<?xml version="1.0" encoding="us-ascii" standalone="no"?><svg xmlns="http://www.w3.org/2000/svg" xmlns:xlink="http://www.w3.org/1999/xlink" contentStyleType="text/css" height="841px" preserveAspectRatio="none" style="width:906px;height:841px;background:#FAFAFA;" version="1.1" viewBox="0 0 906 841" width="906px" zoomAndPan="magnify"><defs/><g><rect fill="#FAFAFA" height="841" style="stroke:none;stroke-width:1.0;" width="906" x="0" y="0"/><!--cluster MyCPT ???--><g id="cluster_MyCPT &#49884;&#49828;&#53596;"><rect fill="#EEEDFE" height="681" rx="2.5" ry="2.5" style="stroke:#534AB7;stroke-width:1.0;" width="604" x="100" y="61.5"/><text fill="#000000" font-family="sans-serif" font-size="14" font-weight="bold" lengthAdjust="spacing" textLength="89" x="357.5" y="79.7399">MyCPT &#49884;&#49828;&#53596;</text></g><!--cluster ?? ??--><g id="cluster_&#44277;&#53685; &#44592;&#45733;"><path d="M126.5,108.5 L182.5,108.5 A3.75,3.75 0 0 1 185,111 L192,134.7719 L349.5,134.7719 A2.5,2.5 0 0 1 352,137.2719 L352,376 A2.5,2.5 0 0 1 349.5,378.5 L126.5,378.5 A2.5,2.5 0 0 1 124,376 L124,111 A2.5,2.5 0 0 1 126.5,108.5 " fill="#EEF6FF" style="stroke:#534AB7;stroke-width:2.0;"/><line style="stroke:#534AB7;stroke-width:2.0;" x1="124" x2="192" y1="134.7719" y2="134.7719"/><text fill="#3C3489" font-family="sans-serif" font-size="14" font-weight="bold" lengthAdjust="spacing" textLength="55" x="128" y="126.7399">&#44277;&#53685; &#44592;&#45733;</text></g><!--cluster ?? ?? ??--><g id="cluster_&#54924;&#50896; &#51204;&#50857; &#44592;&#45733;"><path d="M429,108.5 L514,108.5 A3.75,3.75 0 0 1 516.5,111 L523.5,134.7719 L632,134.7719 A2.5,2.5 0 0 1 634.5,137.2719 L634.5,512 A2.5,2.5 0 0 1 632,514.5 L429,514.5 A2.5,2.5 0 0 1 426.5,512 L426.5,111 A2.5,2.5 0 0 1 429,108.5 " fill="#F0FDF4" style="stroke:#534AB7;stroke-width:2.0;"/><line style="stroke:#534AB7;stroke-width:2.0;" x1="426.5" x2="523.5" y1="134.7719" y2="134.7719"/><text fill="#3C3489" font-family="sans-serif" font-size="14" font-weight="bold" lengthAdjust="spacing" textLength="84" x="430.5" y="126.7399">&#54924;&#50896; &#51204;&#50857; &#44592;&#45733;</text></g><!--cluster ??? ??--><g id="cluster_&#49884;&#49828;&#53596; &#45236;&#48512;"><path d="M383.5,538.5 L452.5,538.5 A3.75,3.75 0 0 1 455,541 L462,564.7719 L677.5,564.7719 A2.5,2.5 0 0 1 680,567.2719 L680,716 A2.5,2.5 0 0 1 677.5,718.5 L383.5,718.5 A2.5,2.5 0 0 1 381,716 L381,541 A2.5,2.5 0 0 1 383.5,538.5 " fill="#FFF7ED" style="stroke:#534AB7;stroke-width:2.0;"/><line style="stroke:#534AB7;stroke-width:2.0;" x1="381" x2="462" y1="564.7719" y2="564.7719"/><text fill="#3C3489" font-family="sans-serif" font-size="14" font-weight="bold" lengthAdjust="spacing" textLength="68" x="385" y="556.7399">&#49884;&#49828;&#53596; &#45236;&#48512;</text></g><g id="elem_UC_Test"><ellipse cx="237.897" cy="244.5735" fill="#FFFFFF" rx="62.397" ry="27.5735" style="stroke:#AFA9EC;stroke-width:1.5;"/><text fill="#26215C" font-family="sans-serif" font-size="12" lengthAdjust="spacing" textLength="47" x="214.397" y="239.1175">&#44160;&#49324; &#51025;&#49884;</text><text fill="#26215C" font-family="sans-serif" font-size="12" lengthAdjust="spacing" textLength="72" x="201.897" y="256.4936">&#54943;&#49688; &#51228;&#54620; &#50630;&#51020;</text></g><g id="elem_UC_Result"><ellipse cx="237.7523" cy="334.5735" fill="#FFFFFF" rx="97.7523" ry="27.5735" style="stroke:#AFA9EC;stroke-width:1.5;"/><text fill="#26215C" font-family="sans-serif" font-size="12" lengthAdjust="spacing" textLength="47" x="214.2523" y="329.1175">&#44208;&#44284; &#54869;&#51064;</text><text fill="#26215C" font-family="sans-serif" font-size="12" lengthAdjust="spacing" textLength="122" x="176.7523" y="346.4936">DISC &#48516;&#49437; &#183; &#44053;&#51216; &#183; &#50557;&#51216;</text></g><g id="elem_UC_Save"><ellipse cx="238.1263" cy="164.6253" fill="#FFFFFF" rx="73.6263" ry="17.1253" style="stroke:#AFA9EC;stroke-width:1.5;"/><text fill="#26215C" font-family="sans-serif" font-size="12" lengthAdjust="spacing" textLength="97" x="186.6263" y="168.8353">&#47196;&#44536;&#51064; &#54980; &#44208;&#44284; &#51200;&#51109;</text></g><g id="elem_UC_Login"><ellipse cx="530.4989" cy="166.6998" fill="#FFFFFF" rx="83.9989" ry="19.1998" style="stroke:#AFA9EC;stroke-width:1.5;"/><text fill="#26215C" font-family="sans-serif" font-size="12" lengthAdjust="spacing" textLength="124" x="465.4989" y="170.9098">&#52852;&#52852;&#50724; &#47196;&#44536;&#51064; / &#47196;&#44536;&#50500;&#50883;</text></g><g id="elem_UC_History"><ellipse cx="530.3646" cy="236.5904" fill="#FFFFFF" rx="63.8646" ry="15.5904" style="stroke:#AFA9EC;stroke-width:1.5;"/><text fill="#26215C" font-family="sans-serif" font-size="12" lengthAdjust="spacing" textLength="72" x="491.3646" y="240.8004">&#44208;&#44284; &#51060;&#47141; &#51312;&#54924;</text></g><g id="elem_UC_Stats"><ellipse cx="530.7462" cy="314.5735" fill="#FFFFFF" rx="77.2462" ry="27.5735" style="stroke:#AFA9EC;stroke-width:1.5;"/><text fill="#26215C" font-family="sans-serif" font-size="12" lengthAdjust="spacing" textLength="72" x="494.7462" y="309.1175">&#53440;&#51064; &#53685;&#44228; &#48708;&#44368;</text><text fill="#26215C" font-family="sans-serif" font-size="12" lengthAdjust="spacing" textLength="93" x="484.2462" y="326.4936">&#45208;&#51060;&#45824; &#183; &#49457;&#48324; &#44592;&#51456;</text></g><g id="elem_UC_Code"><ellipse cx="530.3646" cy="392.5904" fill="#FFFFFF" rx="63.8646" ry="15.5904" style="stroke:#AFA9EC;stroke-width:1.5;"/><text fill="#26215C" font-family="sans-serif" font-size="12" lengthAdjust="spacing" textLength="72" x="491.3646" y="396.8004">&#46041;&#47308; &#53076;&#46300; &#49373;&#49457;</text></g><g id="elem_UC_Compat"><ellipse cx="530.3528" cy="470.5735" fill="#FFFFFF" rx="87.8528" ry="27.5735" style="stroke:#AFA9EC;stroke-width:1.5;"/><text fill="#26215C" font-family="sans-serif" font-size="12" lengthAdjust="spacing" textLength="22" x="519.3528" y="465.1175">&#52992;&#48120;</text><text fill="#26215C" font-family="sans-serif" font-size="12" lengthAdjust="spacing" textLength="108" x="476.3528" y="482.4936">&#46041;&#47308; &#52992;&#48120; &#48372;&#44256;&#49436; &#48156;&#54665;</text></g><g id="elem_UC_Cache"><ellipse cx="530.5928" cy="606.6186" fill="#FFFFFF" rx="133.5928" ry="29.1186" style="stroke:#AFA9EC;stroke-width:1.5;"/><text fill="#26215C" font-family="sans-serif" font-size="12" lengthAdjust="spacing" textLength="107" x="477.0928" y="601.1625">LLM &#52880;&#49884; &#51312;&#54924; / &#51200;&#51109;</text><text fill="#26215C" font-family="sans-serif" font-size="12" lengthAdjust="spacing" textLength="183" x="439.0928" y="618.5387">D &#183; I &#183; S &#183; C &#48260;&#53431; &#44592;&#48152; (9&#8308; = 6,561)</text></g><g id="elem_UC_Clear"><ellipse cx="530.4016" cy="686.5112" fill="#FFFFFF" rx="53.4016" ry="15.5112" style="stroke:#AFA9EC;stroke-width:1.5;"/><text fill="#26215C" font-family="sans-serif" font-size="12" lengthAdjust="spacing" textLength="58" x="498.4016" y="690.7212">&#52880;&#49884; &#52488;&#44592;&#54868;</text></g><!--entity Guest--><g id="elem_Guest"><ellipse cx="42.5" cy="213.5" fill="#FFFFFF" rx="8" ry="8" style="stroke:#7F77DD;stroke-width:0.5;"/><path d="M42.5,221.5 L42.5,248.5 M29.5,229.5 L55.5,229.5 M42.5,248.5 L29.5,263.5 M42.5,248.5 L55.5,263.5 " fill="none" style="stroke:#7F77DD;stroke-width:0.5;"/><text fill="#3C3489" font-family="sans-serif" font-size="13" font-weight="bold" lengthAdjust="spacing" textLength="36" x="24.5" y="280.08">&#48708;&#54924;&#50896;</text></g><!--entity Member--><g id="elem_Member"><ellipse cx="42.5" cy="455.5" fill="#FFFFFF" rx="8" ry="8" style="stroke:#7F77DD;stroke-width:0.5;"/><path d="M42.5,463.5 L42.5,490.5 M29.5,471.5 L55.5,471.5 M42.5,490.5 L29.5,505.5 M42.5,490.5 L55.5,505.5 " fill="none" style="stroke:#7F77DD;stroke-width:0.5;"/><text fill="#3C3489" font-family="sans-serif" font-size="13" font-weight="bold" lengthAdjust="spacing" textLength="73" x="6" y="522.08">&#54924;&#50896; (&#52852;&#52852;&#50724;)</text></g><!--entity Batch--><g id="elem_Batch"><ellipse cx="238" cy="766.5" fill="#FFFFFF" rx="8" ry="8" style="stroke:#7F77DD;stroke-width:0.5;"/><path d="M238,774.5 L238,801.5 M225,782.5 L251,782.5 M238,801.5 L225,816.5 M238,801.5 L251,816.5 " fill="none" style="stroke:#7F77DD;stroke-width:0.5;"/><text fill="#3C3489" font-family="sans-serif" font-size="13" font-weight="bold" lengthAdjust="spacing" textLength="75" x="200.5" y="833.08">&#48176;&#52824; &#49828;&#52992;&#51460;&#47084;</text></g><g id="elem_GMN32"><path d="M724,580 L724,602.5 L664.01,606.5 L724,610.5 L724,633.44 A0,0 0 0 0 724,633.44 L899,633.44 A0,0 0 0 0 899,633.44 L899,590 L889,580 L724,580 A0,0 0 0 0 724,580 " fill="#F5F3FF" style="stroke:#AFA9EC;stroke-width:0.5;"/><path d="M889,580 L889,590 L899,590 L889,580 " fill="#F5F3FF" style="stroke:#AFA9EC;stroke-width:0.5;"/><text fill="#534AB7" font-family="sans-serif" font-size="10" lengthAdjust="spacing" textLength="124" x="730" y="596.6">&#52880;&#49884; &#48120;&#49828; &#49884;&#50640;&#47564; LLM API &#54840;&#52636;</text><text fill="#534AB7" font-family="sans-serif" font-size="10" lengthAdjust="spacing" textLength="123" x="730" y="611.08">&#52880;&#49884; &#55176;&#53944; &#49884; DB&#50640;&#49436; &#51593;&#49884; &#48152;&#54872;</text><text fill="#534AB7" font-family="sans-serif" font-size="10" lengthAdjust="spacing" textLength="154" x="730" y="625.56">&#8594; &#52572;&#45824; 6,561&#54924; API &#54840;&#52636;&#47196; &#51204;&#52404; &#52964;&#48260;</text></g><g id="elem_GMN35"><path d="M736,436.5 L736,466.5 L618.64,470.5 L736,474.5 L736,504.4199 A0,0 0 0 0 736,504.4199 L887,504.4199 A0,0 0 0 0 887,504.4199 L887,446.5 L877,436.5 L736,436.5 A0,0 0 0 0 736,436.5 " fill="#F5F3FF" style="stroke:#AFA9EC;stroke-width:0.5;"/><path d="M877,436.5 L877,446.5 L887,446.5 L877,436.5 " fill="#F5F3FF" style="stroke:#AFA9EC;stroke-width:0.5;"/><text fill="#534AB7" font-family="sans-serif" font-size="10" lengthAdjust="spacing" textLength="127" x="742" y="453.1">&#52880;&#49905; &#50630;&#51060; &#47588;&#48264; &#49892;&#49884;&#44036; LLM &#54840;&#52636;</text><text fill="#534AB7" font-family="sans-serif" font-size="10" lengthAdjust="spacing" textLength="67" x="742" y="467.58">&#51221;&#54869;&#46020; &#50864;&#49440; &#49444;&#44228;</text><text fill="#534AB7" font-family="sans-serif" font-size="10" lengthAdjust="spacing" textLength="98" x="742" y="482.06">&#53076;&#51064; &#52649;&#51204;: &#52488;&#44592; 3&#44060; &#51648;&#44553;</text><text fill="#534AB7" font-family="sans-serif" font-size="10" lengthAdjust="spacing" textLength="130" x="742" y="496.5399">&#51060;&#54980; 24h&#47560;&#45796; +1, &#52572;&#45824; 3&#44060; &#48372;&#50976;</text></g><g id="elem_GMN38"><path d="M139,6 L139,44.96 L337,44.96 L337,16 L327,6 L139,6 " fill="#F5F3FF" style="stroke:#AFA9EC;stroke-width:0.5;"/><path d="M327,6 L327,16 L337,16 L327,6 " fill="#F5F3FF" style="stroke:#AFA9EC;stroke-width:1.0;"/><text fill="#534AB7" font-family="sans-serif" font-size="10" lengthAdjust="spacing" textLength="159" x="145" y="22.6">&#44160;&#49324; &#50756;&#47308; &#54980; &#45208;&#51060;(&#52636;&#49373;&#50672;&#46020;) &#183; &#49457;&#48324; &#51077;&#47141;</text><text fill="#534AB7" font-family="sans-serif" font-size="10" lengthAdjust="spacing" textLength="177" x="145" y="37.08">&#48708;&#54924;&#50896;: &#53685;&#44228; &#48152;&#50689;&#51008; &#47196;&#44536;&#51064; &#51200;&#51109; &#49884;&#50640;&#47564; &#51201;&#50857;</text></g><!--link Guest to UC_Test--><g id="link_Guest_UC_Test"><path d="M60.54,235.33 C87.2,235.33 132.32,235.33 172.88,235.33 " fill="none" id="Guest-to-UC_Test" style="stroke:#7F77DD;stroke-width:1.0;"/><polygon fill="#7F77DD" points="178.88,235.33,169.88,231.33,173.88,235.33,169.88,239.33,178.88,235.33" style="stroke:#7F77DD;stroke-width:1.0;"/></g><!--link Guest to UC_Result--><g id="link_Guest_UC_Result"><path d="M60.75,278 C92.13,278 153,278 153,278 C153,278 153,297.8 153,314.53 " fill="none" id="Guest-to-UC_Result" style="stroke:#7F77DD;stroke-width:1.0;"/><polygon fill="#7F77DD" points="153,320.53,157,311.53,153,315.53,149,311.53,153,320.53" style="stroke:#7F77DD;stroke-width:1.0;"/></g><!--link Guest to UC_Save--><g id="link_Guest_UC_Save"><path d="M60.77,211 C96.02,211 170,211 170,211 C170,211 170,189.74 170,176.97 " fill="none" id="Guest-to-UC_Save" style="stroke:#7F77DD;stroke-width:1.0;"/><polygon fill="#7F77DD" points="170,170.97,166,179.97,170,175.97,174,179.97,170,170.97" style="stroke:#7F77DD;stroke-width:1.0;"/></g><!--link Member to UC_Test--><g id="link_Member_UC_Test"><path d="M64,446.74 C64,380.24 64,253.67 64,253.67 C64,253.67 122.2,253.67 172.61,253.67 " fill="none" id="Member-to-UC_Test" style="stroke:#7F77DD;stroke-width:1.0;"/><polygon fill="#7F77DD" points="178.61,253.67,169.61,249.67,173.61,253.67,169.61,257.67,178.61,253.67" style="stroke:#7F77DD;stroke-width:1.0;"/></g><!--link Member to UC_Result--><g id="link_Member_UC_Result"><path d="M70,446.96 C70,401.92 70,334.5 70,334.5 C70,334.5 97.02,334.5 133.79,334.5 " fill="none" id="Member-to-UC_Result" style="stroke:#7F77DD;stroke-width:1.0;"/><polygon fill="#7F77DD" points="139.79,334.5,130.79,330.5,134.79,334.5,130.79,338.5,139.79,334.5" style="stroke:#7F77DD;stroke-width:1.0;"/></g><!--link Member to UC_Login--><g id="link_Member_UC_Login"><path d="M76,446.91 C76,433.69 76,422.25 76,422.25 C76,422.25 450,422.25 450,422.25 C450,422.25 450,216.39 450,178.32 " fill="none" id="Member-to-UC_Login" style="stroke:#7F77DD;stroke-width:1.0;"/><polygon fill="#7F77DD" points="450,172.32,446,181.32,450,177.32,454,181.32,450,172.32" style="stroke:#7F77DD;stroke-width:1.0;"/></g><!--link Member to UC_History--><g id="link_Member_UC_History"><path d="M79.09,464 C163.96,464 367,464 367,464 C367,464 367,241.67 367,241.67 C367,241.67 417.51,241.67 464.08,241.67 " fill="none" id="Member-to-UC_History" style="stroke:#7F77DD;stroke-width:1.0;"/><polygon fill="#7F77DD" points="470.08,241.67,461.08,237.67,465.08,241.67,461.08,245.67,470.08,241.67" style="stroke:#7F77DD;stroke-width:1.0;"/></g><!--link Member to UC_Stats--><g id="link_Member_UC_Stats"><path d="M67,446.77 C67,391.21 67,297 67,297 C67,297 339.67,297 464.85,297 " fill="none" id="Member-to-UC_Stats" style="stroke:#7F77DD;stroke-width:1.0;"/><polygon fill="#7F77DD" points="470.85,297,461.85,293,465.85,297,461.85,301,470.85,297" style="stroke:#7F77DD;stroke-width:1.0;"/></g><!--link Member to UC_Code--><g id="link_Member_UC_Code"><path d="M73,446.91 C73,421.22 73,392.5 73,392.5 C73,392.5 334.49,392.5 460.4,392.5 " fill="none" id="Member-to-UC_Code" style="stroke:#7F77DD;stroke-width:1.0;"/><polygon fill="#7F77DD" points="466.4,392.5,457.4,388.5,461.4,392.5,457.4,396.5,466.4,392.5" style="stroke:#7F77DD;stroke-width:1.0;"/></g><!--link Member to UC_Compat--><g id="link_Member_UC_Compat"><path d="M79.18,481 C157.31,481 335.79,481 443.14,481 " fill="none" id="Member-to-UC_Compat" style="stroke:#7F77DD;stroke-width:1.0;"/><polygon fill="#7F77DD" points="449.14,481,440.14,477,444.14,481,440.14,485,449.14,481" style="stroke:#7F77DD;stroke-width:1.0;"/><text fill="#534AB7" font-family="sans-serif" font-size="10" lengthAdjust="spacing" textLength="55" x="208.16" y="493.6">&#53076;&#51064; 1&#44060; &#49548;&#47784;</text></g><!--link Batch to UC_Clear--><g id="link_Batch_UC_Clear"><path d="M238,757.74 C238,725.89 238,686.5 238,686.5 C238,686.5 386.41,686.5 470.85,686.5 " fill="none" id="Batch-to-UC_Clear" style="stroke:#7F77DD;stroke-width:1.0;"/><polygon fill="#7F77DD" points="476.85,686.5,467.85,682.5,471.85,686.5,467.85,690.5,476.85,686.5" style="stroke:#7F77DD;stroke-width:1.0;"/><text fill="#534AB7" font-family="sans-serif" font-size="10" lengthAdjust="spacing" textLength="51" x="269.81" y="699.1">1 ~ 2&#45804; &#51452;&#44592;</text></g><!--link UC_Result to UC_Cache--><g id="link_UC_Result_UC_Cache"><path d="M313.6,352 C363.61,352 420,352 420,352 C420,352 420,528.02 420,584.19 " fill="none" id="UC_Result-to-UC_Cache" style="stroke:#7F77DD;stroke-width:1.0;stroke-dasharray:7.0,7.0;"/><polygon fill="#7F77DD" points="420,590.19,424,581.19,420,585.19,416,581.19,420,590.19" style="stroke:#7F77DD;stroke-width:1.0;"/><text fill="#534AB7" font-family="sans-serif" font-size="10" lengthAdjust="spacing" textLength="45" x="374" y="430.5">&#171;include&#187;</text></g><!--link UC_Save to UC_Login--><g id="link_UC_Save_UC_Login"><path d="M311.81,164.5 C352.94,164.5 398.28,164.5 440.89,164.5 " fill="none" id="UC_Save-to-UC_Login" style="stroke:#7F77DD;stroke-width:1.0;stroke-dasharray:7.0,7.0;"/><polygon fill="#7F77DD" points="446.89,164.5,437.89,160.5,441.89,164.5,437.89,168.5,446.89,164.5" style="stroke:#7F77DD;stroke-width:1.0;"/><text fill="#534AB7" font-family="sans-serif" font-size="10" lengthAdjust="spacing" textLength="45" x="333.35" y="177.1">&#171;include&#187;</text></g><!--link UC_Test to GMN38--><g id="link_UC_Test_GMN38"><path d="M292.95,231.33 C309.81,231.33 324,231.33 324,231.33 C324,231.33 324,96.75 324,45.24 " fill="none" id="UC_Test-GMN38" style="stroke:#7F77DD;stroke-width:1.0;stroke-dasharray:7.0,7.0;"/></g><!--SRC=[bLLTJnjN47tVNp5oNq1DQFm159GYWUrjaK2A2dr3gXPxWotCBbelZMYLoi36Cc0fj8sB0PiuYYbD5QaRC61QyjAVaiUzT_z3vzxzi7SJbDQshFNScRddp9mP5-I7EkWgQFcbd0xPl2PdzBog2CNblB8gQT8AB4gPvILDNLEoIRMWQl29ECdUGf-BbD7nu0S1OEezP_vY9wgMbJNNEYgEZgPIQ1LLHNTjyMGyyVcOQvlBVoz3DExzqjSBCYogXQpmkF_UjQASaOho_xaPaO-bay6ROoEnw70oS7FCZvlFvJFBYbmiGdHe6AsJcgO-2jFWnhwCm_74vDHe_u6JzbuG_ofYbfPkmPzEfrDYEepVpnn65_jeDHCVgQQYwhULSbYC_xTI-l1kvLp8AxA-lYg3gkavLH0SxKJ8jM4VLkdHNWIa8dov9XTrxyYnmm2zxh1FlJt8VMRbbKLPy-DDarxNWUwqwKs9jWto_3NtcfBqJ4uGcAmbPGbvHsRNam_cWUusqDT-qeWWPSJhjI9YdL_OvGkmkYRPEOcmDeWZeiZh0hxW8jPPYMw-1jhy2HCjAFRXSrh1sriDkzO0kb-cpIg__flaj_ECIYZOjCvlm3weqMPtGKbDpoM1N1hKQC8_Ls2PDThQOq-qzXQVl3nVoyMrGYWJUT6mhhgO1UmZ0zoyj5MYnoTUs9pqdOn1ZmCatPBIba4FN_MuYlV4b9W8S_Nh3hthFlEUQmOzslBkcb6Nyie7kT9cXxHEWBumyMhF_Qjy4Nkt7WomjqgSJ_d2EZS0PM5Tx2qePBFEKbHBl2x66u9d29ksIpvFNTABeUeyFI0lgq3VFYE_O5UscXZekIVLh1oYULCYVs8xl2Z-4yXvnpflKQC1n6pOlsxtubTM9Vszmlgo0hBP8PUb2Dz3e-bKkAWpCxD0_zf3VxSeM5AdSIW8HdAQVSsnBnJ7cM5lNl4-cNKO67ktqO4lOEJEy4Xqq0SaPN9XHcx-JWKZxODdlcj1bZGE7S7pKGEuUtV25slGvEekQEIg4fmH3CG6JMviqEYe96Zpf12qEZqDsdZZmYRM2u1nrcecdgXb8krobVpnko3m3U03vzo1-KRXHuYHNHpYbpTO7q7mySBGq8HVKlIyVp-lP0fhMNbYGd2vOmRNYRC9EGbybJf_gUh3_kwuBK5beKpu4jhV8wTLO7AOV30DThrBBnizH_kuOkzqcIEafj2N2P7-jirpc7Nxe8wkxye_0xreiE7Wac1YwkN2EULpVjO1-dSRbIJ8IfRl-W_1z5JDht_ZRB8Ea5CCh22ADbvicGQ7suFQgk4g8qyDe8ScDLeudssSNNRYj8DUla84uwuG8SwxSrgokjlCfzbXkokMo97J2jbjmwVHEnuTxeaJI1kjCEf5LTVL5HUsksAzfNnWi05cMPsrCO0usVJlcmXoi6-3qECdk9Kmql_t6VSNZrcdzGtQBFKjFMS- -xf6MnkuFtlG_WK0]--></g></svg>