<?xml version="1.0" encoding="us-ascii" standalone="no"?><svg xmlns="http://www.w3.org/2000/svg" xmlns:xlink="http://www.w3.org/1999/xlink" contentStyleType="text/css" height="821px" preserveAspectRatio="none" style="width:2298px;height:821px;background:#FAFAFA;" version="1.1" viewBox="0 0 2298 821" width="2298px" zoomAndPan="magnify"><defs/><g><rect fill="#FAFAFA" height="821" style="stroke:none;stroke-width:1.0;" width="2298" x="0" y="0"/><!--cluster Developer Tools--><g id="cluster_Developer Tools"><path d="M1052.5,6 L1171.5,6 A3.75,3.75 0 0 1 1174,8.5 L1181,27.1328 L1201.5,27.1328 A2.5,2.5 0 0 1 1204,29.6328 L1204,111.5 A2.5,2.5 0 0 1 1201.5,114 L1052.5,114 A2.5,2.5 0 0 1 1050,111.5 L1050,8.5 A2.5,2.5 0 0 1 1052.5,6 " fill="#FFF9ED" style="stroke:#534AB7;stroke-width:2.0;"/><line style="stroke:#534AB7;stroke-width:2.0;" x1="1050" x2="1181" y1="27.1328" y2="27.1328"/><text fill="#3C3489" font-family="sans-serif" font-size="13" font-weight="bold" lengthAdjust="spacing" textLength="118" x="1054" y="20.0669">Developer Tools</text></g><!--cluster Client--><g id="cluster_Client"><path d="M719.5,6 L762.5,6 A3.75,3.75 0 0 1 765,8.5 L772,27.1328 L1023.5,27.1328 A2.5,2.5 0 0 1 1026,29.6328 L1026,111.5 A2.5,2.5 0 0 1 1023.5,114 L719.5,114 A2.5,2.5 0 0 1 717,111.5 L717,8.5 A2.5,2.5 0 0 1 719.5,6 " fill="#EEF6FF" style="stroke:#534AB7;stroke-width:2.0;"/><line style="stroke:#534AB7;stroke-width:2.0;" x1="717" x2="772" y1="27.1328" y2="27.1328"/><text fill="#3C3489" font-family="sans-serif" font-size="13" font-weight="bold" lengthAdjust="spacing" textLength="42" x="721" y="20.0669">Client</text></g><!--cluster Spring Boot 3.x (com.mycpt.backend)--><g id="cluster_Spring Boot 3.x (com.mycpt.backend)"><path d="M8.5,138 L291.5,138 A3.75,3.75 0 0 1 294,140.5 L301,159.1328 L1370.5,159.1328 A2.5,2.5 0 0 1 1373,161.6328 L1373,604.5 A2.5,2.5 0 0 1 1370.5,607 L8.5,607 A2.5,2.5 0 0 1 6,604.5 L6,140.5 A2.5,2.5 0 0 1 8.5,138 " fill="#EEEDFE" style="stroke:#534AB7;stroke-width:2.0;"/><line style="stroke:#534AB7;stroke-width:2.0;" x1="6" x2="301" y1="159.1328" y2="159.1328"/><text fill="#3C3489" font-family="sans-serif" font-size="13" font-weight="bold" lengthAdjust="spacing" textLength="282" x="10" y="152.0669">Spring Boot 3.x (com.mycpt.backend)</text></g><!--cluster Presentation--><g id="cluster_Presentation"><path d="M816.5,180 L911.5,180 A3.75,3.75 0 0 1 914,182.5 L921,201.1328 L1274.5,201.1328 A2.5,2.5 0 0 1 1277,203.6328 L1277,285.5 A2.5,2.5 0 0 1 1274.5,288 L816.5,288 A2.5,2.5 0 0 1 814,285.5 L814,182.5 A2.5,2.5 0 0 1 816.5,180 " fill="#F5F3FF" style="stroke:#534AB7;stroke-width:2.0;"/><line style="stroke:#534AB7;stroke-width:2.0;" x1="814" x2="921" y1="201.1328" y2="201.1328"/><text fill="#3C3489" font-family="sans-serif" font-size="13" font-weight="bold" lengthAdjust="spacing" textLength="94" x="818" y="194.0669">Presentation</text></g><!--cluster Business--><g id="cluster_Business"><path d="M163.5,327 L229.5,327 A3.75,3.75 0 0 1 232,329.5 L239,348.1328 L1346.5,348.1328 A2.5,2.5 0 0 1 1349,350.6328 L1349,460.5 A2.5,2.5 0 0 1 1346.5,463 L163.5,463 A2.5,2.5 0 0 1 161,460.5 L161,329.5 A2.5,2.5 0 0 1 163.5,327 " fill="#F5F3FF" style="stroke:#534AB7;stroke-width:2.0;"/><line style="stroke:#534AB7;stroke-width:2.0;" x1="161" x2="239" y1="348.1328" y2="348.1328"/><text fill="#3C3489" font-family="sans-serif" font-size="13" font-weight="bold" lengthAdjust="spacing" textLength="65" x="165" y="341.0669">Business</text></g><!--cluster Persistence--><g id="cluster_Persistence"><path d="M690.5,489 L777.5,489 A3.75,3.75 0 0 1 780,491.5 L787,510.1328 L859.5,510.1328 A2.5,2.5 0 0 1 862,512.6328 L862,580.5 A2.5,2.5 0 0 1 859.5,583 L690.5,583 A2.5,2.5 0 0 1 688,580.5 L688,491.5 A2.5,2.5 0 0 1 690.5,489 " fill="#F5F3FF" style="stroke:#534AB7;stroke-width:2.0;"/><line style="stroke:#534AB7;stroke-width:2.0;" x1="688" x2="787" y1="510.1328" y2="510.1328"/><text fill="#3C3489" font-family="sans-serif" font-size="13" font-weight="bold" lengthAdjust="spacing" textLength="86" x="692" y="503.0669">Persistence</text></g><!--cluster MySQL--><g id="cluster_MySQL"><path d="M767,649 C767,639 955,639 955,639 C955,639 1143,639 1143,649 L1143,794 C1143,804 955,804 955,804 C955,804 767,804 767,794 L767,649 " fill="#FFFFFF" style="stroke:#AFA9EC;stroke-width:1.0;"/><path d="M767,649 C767,659 955,659 955,659 C955,659 1143,659 1143,649 " fill="none" style="stroke:#AFA9EC;stroke-width:1.0;"/><text fill="#26215C" font-family="sans-serif" font-size="12" font-weight="bold" lengthAdjust="spacing" textLength="47" x="931.5" y="672.1387">MySQL</text></g><!--cluster Redis--><g id="cluster_Redis"><path d="M1405,330 C1405,320 1505.5,320 1505.5,320 C1505.5,320 1606,320 1606,330 L1606,447 C1606,457 1505.5,457 1505.5,457 C1505.5,457 1405,457 1405,447 L1405,330 " fill="#FFFFFF" style="stroke:#AFA9EC;stroke-width:1.0;"/><path d="M1405,330 C1405,340 1505.5,340 1505.5,340 C1505.5,340 1606,340 1606,330 " fill="none" style="stroke:#AFA9EC;stroke-width:1.0;"/><text fill="#26215C" font-family="sans-serif" font-size="12" font-weight="bold" lengthAdjust="spacing" textLength="39" x="1486" y="353.1387">Redis</text></g><!--cluster ?? ???--><g id="cluster_&#50808;&#48512; &#49436;&#48708;&#49828;"><path d="M1654.6968,346.6867 C1668.1728,331.2371 1681.1951,333.5797 1691.4874,350.3249 C1698.708,331.5694 1714.1708,330.035 1725.3949,346.467 C1734.2175,330.5704 1748.8975,328.4427 1759.8586,344.1338 C1772.8212,325.3494 1787.2557,326.3331 1796.78,347.3253 C1807.8075,330.3514 1818.5584,326.6295 1833.3269,343.2564 C1844.9715,326.5583 1858.0638,326.3695 1867.3388,345.5055 C1879.4761,329.2176 1893.8769,329.6645 1905.8593,345.69 C1915.6878,331.5178 1927.9133,330.1084 1939.3697,343.727 C1950.4135,328.8474 1965.7307,327.2788 1976.4443,344.1129 C1987.8742,326.4394 2001.2097,331.8922 2010.4622,346.4137 C2020.3098,333.5792 2034.1516,331.4896 2042.563,347.9856 C2050.8076,329.946 2066.5238,326.8504 2078.1824,344.5865 C2092.1894,327.7496 2104.3137,330.0898 2113.8253,349.0611 C2128.2671,330.6137 2141.3342,332.6491 2154,351 C2156.8513,352.3923 2156.7828,354.8818 2154.4412,356.6776 C2174.5753,366.3266 2181.6607,381.6298 2163.4406,399.3648 C2180.7904,423.3713 2176.5793,439.8574 2147,448 C2150.3039,447.6567 2152.0186,449.1444 2151.2518,452.58 C2140.0533,468.8819 2120.6406,471.5504 2111.9063,450.0174 C2103.206,466.1538 2093.1521,467.179 2081.625,452.8248 C2068.5736,467.3585 2056.9079,466.4446 2045.1832,451.2011 C2032.4497,472.6259 2018.5508,467.3908 2005.9084,451.1062 C1998.2079,466.656 1985.2261,464.4119 1976.8464,451.8073 C1964.0787,472.7382 1950.4359,470.7175 1935.7443,453.9023 C1927.5643,468.9468 1914.245,472.6183 1902.8461,457.4017 C1888.6775,472.4878 1875.9441,473.956 1864.749,454.1547 C1855.7592,467.3395 1846.0037,467.2918 1835.8057,455.5581 C1824.8541,472.7282 1807.9821,469.9636 1799.2566,453.1631 C1785.9347,470.3833 1773.7391,469.2282 1761.6203,451.8542 C1750.3763,464.9256 1738.0589,468.9521 1728.2752,450.3184 C1718.3736,469.562 1704.0169,469.5055 1690.204,454.6905 C1671.5024,475.0886 1651.2667,463.9805 1646,441 C1647.7434,441.5514 1648.2444,443.0919 1647.0974,444.5394 C1626.2986,432.5196 1622.7632,412.3846 1642.3663,396.3946 C1617.8827,375.7639 1626.7017,354.3243 1653,344 C1654.9935,343.8841 1655.4604,345.0613 1654.6968,346.6867 " fill="#FFF7ED" style="stroke:#AFA9EC;stroke-width:1.0;"/><text fill="#26215C" font-family="sans-serif" font-size="12" font-weight="bold" lengthAdjust="spacing" textLength="39" x="1880.5" y="360.1387">&#50808;&#48512; &#49436;&#48708;&#49828;</text></g><!--entity Swagger--><g id="elem_Swagger"><rect fill="#FFFFFF" height="57.9375" rx="2.5" ry="2.5" style="stroke:#AFA9EC;stroke-width:1.5;" width="122" x="1066" y="40"/><rect fill="#FFFFFF" height="10" style="stroke:#AFA9EC;stroke-width:1.5;" width="15" x="1168" y="45"/><rect fill="#FFFFFF" height="2" style="stroke:#AFA9EC;stroke-width:1.5;" width="4" x="1166" y="47"/><rect fill="#FFFFFF" height="2" style="stroke:#AFA9EC;stroke-width:1.5;" width="4" x="1166" y="51"/><text fill="#26215C" font-family="sans-serif" font-size="12" lengthAdjust="spacing" textLength="70" x="1081" y="71.1387">Swagger UI</text><text fill="#26215C" font-family="sans-serif" font-size="12" lengthAdjust="spacing" textLength="82" x="1081" y="85.1074">(/swagger-ui)</text></g><!--entity NextJS--><g id="elem_NextJS"><rect fill="#FFFFFF" height="57.9375" rx="2.5" ry="2.5" style="stroke:#AFA9EC;stroke-width:1.5;" width="103" x="733.5" y="40"/><rect fill="#FFFFFF" height="10" style="stroke:#AFA9EC;stroke-width:1.5;" width="15" x="816.5" y="45"/><rect fill="#FFFFFF" height="2" style="stroke:#AFA9EC;stroke-width:1.5;" width="4" x="814.5" y="47"/><rect fill="#FFFFFF" height="2" style="stroke:#AFA9EC;stroke-width:1.5;" width="4" x="814.5" y="51"/><text fill="#26215C" font-family="sans-serif" font-size="12" lengthAdjust="spacing" textLength="42" x="748.5" y="71.1387">Next.js</text><text fill="#26215C" font-family="sans-serif" font-size="12" lengthAdjust="spacing" textLength="63" x="748.5" y="85.1074">(SSR/SSG)</text></g><!--entity Session--><g id="elem_Session"><rect fill="#FFFFFF" height="57.9375" rx="2.5" ry="2.5" style="stroke:#AFA9EC;stroke-width:1.5;" width="138" x="872" y="40"/><rect fill="#FFFFFF" height="10" style="stroke:#AFA9EC;stroke-width:1.5;" width="15" x="990" y="45"/><rect fill="#FFFFFF" height="2" style="stroke:#AFA9EC;stroke-width:1.5;" width="4" x="988" y="47"/><rect fill="#FFFFFF" height="2" style="stroke:#AFA9EC;stroke-width:1.5;" width="4" x="988" y="51"/><text fill="#26215C" font-family="sans-serif" font-size="12" lengthAdjust="spacing" textLength="98" x="887" y="71.1387">sessionStorage</text><text fill="#26215C" font-family="sans-serif" font-size="12" lengthAdjust="spacing" textLength="92" x="887" y="85.1074">(&#48708;&#54924;&#50896; &#50896;&#51216;&#49688; &#51076;&#49884; &#48372;&#44288;)</text></g><!--entity Batch--><g id="elem_Batch"><rect fill="#FFFFFF" height="57.9375" rx="2.5" ry="2.5" style="stroke:#AFA9EC;stroke-width:1.5;" width="120" x="22" y="375"/><rect fill="#FFFFFF" height="10" style="stroke:#AFA9EC;stroke-width:1.5;" width="15" x="122" y="380"/><rect fill="#FFFFFF" height="2" style="stroke:#AFA9EC;stroke-width:1.5;" width="4" x="120" y="382"/><rect fill="#FFFFFF" height="2" style="stroke:#AFA9EC;stroke-width:1.5;" width="4" x="120" y="386"/><text fill="#26215C" font-family="sans-serif" font-size="12" lengthAdjust="spacing" textLength="80" x="37" y="406.1387">Spring Batch</text><text fill="#26215C" font-family="sans-serif" font-size="12" lengthAdjust="spacing" textLength="68" x="37" y="420.1074">&#47564;&#47308; &#53076;&#46300;/&#53664;&#53360; &#49325;&#51228;</text></g><!--entity Controllers--><g id="elem_Controllers"><rect fill="#FFFFFF" height="57.9375" rx="2.5" ry="2.5" style="stroke:#AFA9EC;stroke-width:1.5;" width="238" x="830" y="214"/><rect fill="#FFFFFF" height="10" style="stroke:#AFA9EC;stroke-width:1.5;" width="15" x="1048" y="219"/><rect fill="#FFFFFF" height="2" style="stroke:#AFA9EC;stroke-width:1.5;" width="4" x="1046" y="221"/><rect fill="#FFFFFF" height="2" style="stroke:#AFA9EC;stroke-width:1.5;" width="4" x="1046" y="225"/><text fill="#26215C" font-family="sans-serif" font-size="12" lengthAdjust="spacing" textLength="103" x="845" y="245.1387">REST Controllers</text><text fill="#26215C" font-family="sans-serif" font-size="12" lengthAdjust="spacing" textLength="198" x="845" y="259.1074">({&#46020;&#47700;&#51064;}Api + {&#46020;&#47700;&#51064;}V1Controller)</text></g><!--entity Security--><g id="elem_Security"><rect fill="#FFFFFF" height="57.9375" rx="2.5" ry="2.5" style="stroke:#AFA9EC;stroke-width:1.5;" width="158" x="1103" y="214"/><rect fill="#FFFFFF" height="10" style="stroke:#AFA9EC;stroke-width:1.5;" width="15" x="1241" y="219"/><rect fill="#FFFFFF" height="2" style="stroke:#AFA9EC;stroke-width:1.5;" width="4" x="1239" y="221"/><rect fill="#FFFFFF" height="2" style="stroke:#AFA9EC;stroke-width:1.5;" width="4" x="1239" y="225"/><text fill="#26215C" font-family="sans-serif" font-size="12" lengthAdjust="spacing" textLength="94" x="1118" y="245.1387">Spring Security</text><text fill="#26215C" font-family="sans-serif" font-size="12" lengthAdjust="spacing" textLength="118" x="1118" y="259.1074">+ Kakao OAuth 2.0</text></g><!--entity Scoring--><g id="elem_Scoring"><rect fill="#FFFFFF" height="57.9375" rx="2.5" ry="2.5" style="stroke:#AFA9EC;stroke-width:1.5;" width="132" x="883" y="375"/><rect fill="#FFFFFF" height="10" style="stroke:#AFA9EC;stroke-width:1.5;" width="15" x="995" y="380"/><rect fill="#FFFFFF" height="2" style="stroke:#AFA9EC;stroke-width:1.5;" width="4" x="993" y="382"/><rect fill="#FFFFFF" height="2" style="stroke:#AFA9EC;stroke-width:1.5;" width="4" x="993" y="386"/><text fill="#26215C" font-family="sans-serif" font-size="12" lengthAdjust="spacing" textLength="92" x="898" y="406.1387">ScoringService</text><text fill="#26215C" font-family="sans-serif" font-size="12" lengthAdjust="spacing" textLength="71" x="898" y="420.1074">&#52292;&#51216; + &#48260;&#53431; &#51221;&#44508;&#54868;</text></g><!--entity Cache--><g id="elem_Cache"><rect fill="#FFFFFF" height="57.9375" rx="2.5" ry="2.5" style="stroke:#AFA9EC;stroke-width:1.5;" width="124" x="1050" y="375"/><rect fill="#FFFFFF" height="10" style="stroke:#AFA9EC;stroke-width:1.5;" width="15" x="1154" y="380"/><rect fill="#FFFFFF" height="2" style="stroke:#AFA9EC;stroke-width:1.5;" width="4" x="1152" y="382"/><rect fill="#FFFFFF" height="2" style="stroke:#AFA9EC;stroke-width:1.5;" width="4" x="1152" y="386"/><text fill="#26215C" font-family="sans-serif" font-size="12" lengthAdjust="spacing" textLength="84" x="1065" y="406.1387">CacheService</text><text fill="#26215C" font-family="sans-serif" font-size="12" lengthAdjust="spacing" textLength="79" x="1065" y="420.1074">Lazy Caching</text></g><!--entity Llm--><g id="elem_Llm"><rect fill="#FFFFFF" height="57.9375" rx="2.5" ry="2.5" style="stroke:#AFA9EC;stroke-width:1.5;" width="124" x="1209" y="375"/><rect fill="#FFFFFF" height="10" style="stroke:#AFA9EC;stroke-width:1.5;" width="15" x="1313" y="380"/><rect fill="#FFFFFF" height="2" style="stroke:#AFA9EC;stroke-width:1.5;" width="4" x="1311" y="382"/><rect fill="#FFFFFF" height="2" style="stroke:#AFA9EC;stroke-width:1.5;" width="4" x="1311" y="386"/><text fill="#26215C" font-family="sans-serif" font-size="12" lengthAdjust="spacing" textLength="65" x="1224" y="406.1387">LlmService</text><text fill="#26215C" font-family="sans-serif" font-size="12" lengthAdjust="spacing" textLength="84" x="1224" y="420.1074">Claude API &#54840;&#52636;</text></g><!--entity Chemistry--><g id="elem_Chemistry"><rect fill="#FFFFFF" height="57.9375" rx="2.5" ry="2.5" style="stroke:#AFA9EC;stroke-width:1.5;" width="146" x="702" y="375"/><rect fill="#FFFFFF" height="10" style="stroke:#AFA9EC;stroke-width:1.5;" width="15" x="828" y="380"/><rect fill="#FFFFFF" height="2" style="stroke:#AFA9EC;stroke-width:1.5;" width="4" x="826" y="382"/><rect fill="#FFFFFF" height="2" style="stroke:#AFA9EC;stroke-width:1.5;" width="4" x="826" y="386"/><text fill="#26215C" font-family="sans-serif" font-size="12" lengthAdjust="spacing" textLength="106" x="717" y="406.1387">ChemistryService</text><text fill="#26215C" font-family="sans-serif" font-size="12" lengthAdjust="spacing" textLength="85" x="717" y="420.1074">@Async &#52992;&#48120; &#48156;&#54665;</text></g><!--entity Sse--><g id="elem_Sse"><rect fill="#FFFFFF" height="57.9375" rx="2.5" ry="2.5" style="stroke:#AFA9EC;stroke-width:1.5;" width="126" x="177" y="375"/><rect fill="#FFFFFF" height="10" style="stroke:#AFA9EC;stroke-width:1.5;" width="15" x="283" y="380"/><rect fill="#FFFFFF" height="2" style="stroke:#AFA9EC;stroke-width:1.5;" width="4" x="281" y="382"/><rect fill="#FFFFFF" height="2" style="stroke:#AFA9EC;stroke-width:1.5;" width="4" x="281" y="386"/><text fill="#26215C" font-family="sans-serif" font-size="12" lengthAdjust="spacing" textLength="68" x="192" y="406.1387">SseService</text><text fill="#26215C" font-family="sans-serif" font-size="12" lengthAdjust="spacing" textLength="86" x="192" y="420.1074">SseEmitter &#44288;&#47532;</text></g><!--entity Coin--><g id="elem_Coin"><rect fill="#FFFFFF" height="57.9375" rx="2.5" ry="2.5" style="stroke:#AFA9EC;stroke-width:1.5;" width="112" x="338" y="375"/><rect fill="#FFFFFF" height="10" style="stroke:#AFA9EC;stroke-width:1.5;" width="15" x="430" y="380"/><rect fill="#FFFFFF" height="2" style="stroke:#AFA9EC;stroke-width:1.5;" width="4" x="428" y="382"/><rect fill="#FFFFFF" height="2" style="stroke:#AFA9EC;stroke-width:1.5;" width="4" x="428" y="386"/><text fill="#26215C" font-family="sans-serif" font-size="12" lengthAdjust="spacing" textLength="72" x="353" y="406.1387">CoinService</text><text fill="#26215C" font-family="sans-serif" font-size="12" lengthAdjust="spacing" textLength="46" x="353" y="420.1074">&#50728;&#46356;&#47592;&#46300; &#52649;&#51204;</text></g><!--entity OtherServices--><g id="elem_OtherServices"><rect fill="#FFFFFF" height="85.875" rx="2.5" ry="2.5" style="stroke:#AFA9EC;stroke-width:1.5;" width="182" x="485" y="361"/><rect fill="#FFFFFF" height="10" style="stroke:#AFA9EC;stroke-width:1.5;" width="15" x="647" y="366"/><rect fill="#FFFFFF" height="2" style="stroke:#AFA9EC;stroke-width:1.5;" width="4" x="645" y="368"/><rect fill="#FFFFFF" height="2" style="stroke:#AFA9EC;stroke-width:1.5;" width="4" x="645" y="372"/><text fill="#26215C" font-family="sans-serif" font-size="12" lengthAdjust="spacing" textLength="70" x="500" y="392.1387">&#44592;&#53440; Services</text><text fill="#26215C" font-family="sans-serif" font-size="12" lengthAdjust="spacing" textLength="114" x="500" y="406.1074">(Auth/User/Result/</text><text fill="#26215C" font-family="sans-serif" font-size="12" lengthAdjust="spacing" textLength="142" x="500" y="420.0762">Assessment/Statistics/</text><text fill="#26215C" font-family="sans-serif" font-size="12" lengthAdjust="spacing" textLength="142" x="500" y="434.0449">Colleague/Notification)</text></g><!--entity Repos--><g id="elem_Repos"><rect fill="#FFFFFF" height="43.9688" rx="2.5" ry="2.5" style="stroke:#AFA9EC;stroke-width:1.5;" width="141" x="704.5" y="523"/><rect fill="#FFFFFF" height="10" style="stroke:#AFA9EC;stroke-width:1.5;" width="15" x="825.5" y="528"/><rect fill="#FFFFFF" height="2" style="stroke:#AFA9EC;stroke-width:1.5;" width="4" x="823.5" y="530"/><rect fill="#FFFFFF" height="2" style="stroke:#AFA9EC;stroke-width:1.5;" width="4" x="823.5" y="534"/><text fill="#26215C" font-family="sans-serif" font-size="12" lengthAdjust="spacing" textLength="101" x="719.5" y="554.1387">JPA Repositories</text></g><!--entity DiscCache--><g id="elem_DiscCache"><rect fill="#FFFFFF" height="57.9375" rx="2.5" ry="2.5" style="stroke:#AFA9EC;stroke-width:1.5;" width="109" x="1009.5" y="708"/><rect fill="#FFFFFF" height="10" style="stroke:#AFA9EC;stroke-width:1.5;" width="15" x="1098.5" y="713"/><rect fill="#FFFFFF" height="2" style="stroke:#AFA9EC;stroke-width:1.5;" width="4" x="1096.5" y="715"/><rect fill="#FFFFFF" height="2" style="stroke:#AFA9EC;stroke-width:1.5;" width="4" x="1096.5" y="719"/><text fill="#26215C" font-family="sans-serif" font-size="12" lengthAdjust="spacing" textLength="69" x="1024.5" y="739.1387">disc_cache</text><text fill="#26215C" font-family="sans-serif" font-size="12" lengthAdjust="spacing" textLength="42" x="1024.5" y="753.1074">(&#48260;&#53431; &#52880;&#49884;)</text></g><!--entity OtherTables--><g id="elem_OtherTables"><rect fill="#FFFFFF" height="85.875" rx="2.5" ry="2.5" style="stroke:#AFA9EC;stroke-width:1.5;" width="164" x="810" y="694"/><rect fill="#FFFFFF" height="10" style="stroke:#AFA9EC;stroke-width:1.5;" width="15" x="954" y="699"/><rect fill="#FFFFFF" height="2" style="stroke:#AFA9EC;stroke-width:1.5;" width="4" x="952" y="701"/><rect fill="#FFFFFF" height="2" style="stroke:#AFA9EC;stroke-width:1.5;" width="4" x="952" y="705"/><text fill="#26215C" font-family="sans-serif" font-size="12" lengthAdjust="spacing" textLength="124" x="825" y="725.1387">tests + disc_results</text><text fill="#26215C" font-family="sans-serif" font-size="12" lengthAdjust="spacing" textLength="68" x="825" y="739.1074">colleagues</text><text fill="#26215C" font-family="sans-serif" font-size="12" lengthAdjust="spacing" textLength="77" x="825" y="753.0762">notifications</text><text fill="#26215C" font-family="sans-serif" font-size="12" lengthAdjust="spacing" textLength="58" x="825" y="767.0449">&#44592;&#53440; 5&#44060; &#53580;&#51060;&#48660;</text></g><!--entity RedisData--><g id="elem_RedisData"><rect fill="#FFFFFF" height="57.9375" rx="2.5" ry="2.5" style="stroke:#AFA9EC;stroke-width:1.5;" width="133" x="1448.5" y="375"/><rect fill="#FFFFFF" height="10" style="stroke:#AFA9EC;stroke-width:1.5;" width="15" x="1561.5" y="380"/><rect fill="#FFFFFF" height="2" style="stroke:#AFA9EC;stroke-width:1.5;" width="4" x="1559.5" y="382"/><rect fill="#FFFFFF" height="2" style="stroke:#AFA9EC;stroke-width:1.5;" width="4" x="1559.5" y="386"/><text fill="#26215C" font-family="sans-serif" font-size="12" lengthAdjust="spacing" textLength="39" x="1463.5" y="406.1387">&#49464;&#49496; &#51200;&#51109;&#49548;</text><text fill="#26215C" font-family="sans-serif" font-size="12" lengthAdjust="spacing" textLength="93" x="1463.5" y="420.1074">+ @Cacheable</text></g><!--entity ClaudeAPI--><g id="elem_ClaudeAPI"><rect fill="#FFFFFF" height="71.9063" rx="2.5" ry="2.5" style="stroke:#AFA9EC;stroke-width:1.5;" width="164" x="1827" y="368"/><rect fill="#FFFFFF" height="10" style="stroke:#AFA9EC;stroke-width:1.5;" width="15" x="1971" y="373"/><rect fill="#FFFFFF" height="2" style="stroke:#AFA9EC;stroke-width:1.5;" width="4" x="1969" y="375"/><rect fill="#FFFFFF" height="2" style="stroke:#AFA9EC;stroke-width:1.5;" width="4" x="1969" y="379"/><text fill="#26215C" font-family="sans-serif" font-size="12" lengthAdjust="spacing" textLength="60" x="1842" y="399.1387">Anthropic</text><text fill="#26215C" font-family="sans-serif" font-size="12" lengthAdjust="spacing" textLength="66" x="1842" y="413.1074">Claude API</text><text fill="#26215C" font-family="sans-serif" font-size="12" lengthAdjust="spacing" textLength="124" x="1842" y="427.0762">(claude-sonnet-4-6)</text></g><!--entity Kakao--><g id="elem_Kakao"><rect fill="#FFFFFF" height="43.9688" rx="2.5" ry="2.5" style="stroke:#AFA9EC;stroke-width:1.5;" width="120" x="2026" y="382"/><rect fill="#FFFFFF" height="10" style="stroke:#AFA9EC;stroke-width:1.5;" width="15" x="2126" y="387"/><rect fill="#FFFFFF" height="2" style="stroke:#AFA9EC;stroke-width:1.5;" width="4" x="2124" y="389"/><rect fill="#FFFFFF" height="2" style="stroke:#AFA9EC;stroke-width:1.5;" width="4" x="2124" y="393"/><text fill="#26215C" font-family="sans-serif" font-size="12" lengthAdjust="spacing" textLength="80" x="2041" y="413.1387">Kakao OAuth</text></g><!--entity S3--><g id="elem_S3"><rect fill="#FFFFFF" height="71.9063" rx="2.5" ry="2.5" style="stroke:#AFA9EC;stroke-width:1.5;" width="138" x="1654" y="368"/><rect fill="#FFFFFF" height="10" style="stroke:#AFA9EC;stroke-width:1.5;" width="15" x="1772" y="373"/><rect fill="#FFFFFF" height="2" style="stroke:#AFA9EC;stroke-width:1.5;" width="4" x="1770" y="375"/><rect fill="#FFFFFF" height="2" style="stroke:#AFA9EC;stroke-width:1.5;" width="4" x="1770" y="379"/><text fill="#26215C" font-family="sans-serif" font-size="12" lengthAdjust="spacing" textLength="47" x="1669" y="399.1387">AWS S3</text><text fill="#26215C" font-family="sans-serif" font-size="12" lengthAdjust="spacing" textLength="98" x="1669" y="413.1074">&#54532;&#47196;&#54596; &#51060;&#48120;&#51648; Full URL</text><text fill="#26215C" font-family="sans-serif" font-size="12" lengthAdjust="spacing" textLength="24" x="1669" y="427.0762">(&#50868;&#50689;)</text></g><g id="elem_GMN56"><path d="M1388.5,522.5 L1388.5,567.4219 L1557.5,567.4219 L1557.5,532.5 L1547.5,522.5 L1388.5,522.5 " fill="#F5F3FF" style="stroke:#AFA9EC;stroke-width:0.5;"/><path d="M1547.5,522.5 L1547.5,532.5 L1557.5,532.5 L1547.5,522.5 " fill="#F5F3FF" style="stroke:#AFA9EC;stroke-width:1.0;"/><text fill="#534AB7" font-family="sans-serif" font-size="10" lengthAdjust="spacing" textLength="98" x="1394.5" y="536.7822">&#52880;&#49884; HIT + &#50976;&#54952; &#8594; &#51593;&#49884; &#48152;&#54872;</text><text fill="#534AB7" font-family="sans-serif" font-size="10" lengthAdjust="spacing" textLength="148" x="1394.5" y="548.4229">&#52880;&#49884; HIT + &#47564;&#47308; &#8594; LLM &#8594; UPDATE</text><text fill="#534AB7" font-family="sans-serif" font-size="10" lengthAdjust="spacing" textLength="127" x="1394.5" y="560.0635">&#52880;&#49884; MISS &#8594; LLM &#8594; INSERT</text></g><g id="elem_GMN59"><path d="M2181,381.5 L2181,426.4219 L2291,426.4219 L2291,391.5 L2281,381.5 L2181,381.5 " fill="#F5F3FF" style="stroke:#AFA9EC;stroke-width:0.5;"/><path d="M2281,381.5 L2281,391.5 L2291,391.5 L2281,381.5 " fill="#F5F3FF" style="stroke:#AFA9EC;stroke-width:1.0;"/><text fill="#534AB7" font-family="sans-serif" font-size="10" lengthAdjust="spacing" textLength="89" x="2187" y="395.7822">&#48156;&#54665; &#50836;&#52397; &#8594; 202 &#51593;&#49884; &#48152;&#54872;</text><text fill="#534AB7" font-family="sans-serif" font-size="10" lengthAdjust="spacing" textLength="85" x="2187" y="407.4229">@Async&#47196; LLM &#54840;&#52636;</text><text fill="#534AB7" font-family="sans-serif" font-size="10" lengthAdjust="spacing" textLength="60" x="2187" y="419.0635">&#50756;&#47308; &#49884; SSE &#54392;&#49884;</text></g><g id="elem_GMN62"><path d="M1593,522.5 L1593,567.4219 L1741,567.4219 L1741,532.5 L1731,522.5 L1593,522.5 " fill="#F5F3FF" style="stroke:#AFA9EC;stroke-width:0.5;"/><path d="M1731,522.5 L1731,532.5 L1741,532.5 L1731,522.5 " fill="#F5F3FF" style="stroke:#AFA9EC;stroke-width:1.0;"/><text fill="#534AB7" font-family="sans-serif" font-size="10" lengthAdjust="spacing" textLength="66" x="1599" y="536.7822">&#44060;&#48156;: &#49436;&#48260; &#47700;&#47784;&#47532; &#49464;&#49496;</text><text fill="#534AB7" font-family="sans-serif" font-size="10" lengthAdjust="spacing" textLength="80" x="1599" y="548.4229">&#50868;&#50689;: Redis &#49464;&#49496; &#51200;&#51109;&#49548;</text><text fill="#534AB7" font-family="sans-serif" font-size="10" lengthAdjust="spacing" textLength="127" x="1599" y="560.0635">+ disc_cache @Cacheable</text></g><g id="elem_GMN65"><path d="M1223.5,46.5 L1223.5,65 L1188.24,69 L1223.5,73 L1223.5,91.4219 A0,0 0 0 0 1223.5,91.4219 L1364.5,91.4219 A0,0 0 0 0 1364.5,91.4219 L1364.5,56.5 L1354.5,46.5 L1223.5,46.5 A0,0 0 0 0 1223.5,46.5 " fill="#F5F3FF" style="stroke:#AFA9EC;stroke-width:0.5;"/><path d="M1354.5,46.5 L1354.5,56.5 L1364.5,56.5 L1354.5,46.5 " fill="#F5F3FF" style="stroke:#AFA9EC;stroke-width:0.5;"/><text fill="#534AB7" font-family="sans-serif" font-size="10" lengthAdjust="spacing" textLength="45" x="1229.5" y="60.7822">&#44060;&#48156; &#54872;&#44221; &#51204;&#50857;.</text><text fill="#534AB7" font-family="sans-serif" font-size="10" lengthAdjust="spacing" textLength="81" x="1229.5" y="72.4229">&#50868;&#50689; &#48176;&#54252; &#49884; &#48708;&#54876;&#49457;&#54868; &#44160;&#53664;.</text><text fill="#534AB7" font-family="sans-serif" font-size="10" lengthAdjust="spacing" textLength="120" x="1229.5" y="84.0635">/swagger-ui, /v3/api-docs</text></g><!--link Swagger to Controllers--><g id="link_Swagger_Controllers"><path d="M1085.5,98.12 C1085.5,145.49 1085.5,234 1085.5,234 C1085.5,234 1084.73,234 1074.21,234 " fill="none" id="Swagger-to-Controllers" style="stroke:#7F77DD;stroke-width:1.0;"/><polygon fill="#7F77DD" points="1068.21,234,1077.21,238,1073.21,234,1077.21,230,1068.21,234" style="stroke:#7F77DD;stroke-width:1.0;"/><text fill="#534AB7" font-family="sans-serif" font-size="10" lengthAdjust="spacing" textLength="53" x="1031.5" y="159.9822">API &#49688;&#46041; &#53580;&#49828;&#53944;</text><text fill="#534AB7" font-family="sans-serif" font-size="10" lengthAdjust="spacing" textLength="50" x="1033" y="171.6229">(&#44060;&#48156; &#54872;&#44221; &#51204;&#50857;)</text></g><!--link NextJS to Controllers--><g id="link_NextJS_Controllers"><path d="M836.78,69 C846.79,69 854.25,69 854.25,69 C854.25,69 854.25,158.34 854.25,207.88 " fill="none" id="NextJS-to-Controllers" style="stroke:#7F77DD;stroke-width:1.0;"/><polygon fill="#7F77DD" points="854.25,213.88,858.25,204.88,854.25,208.88,850.25,204.88,854.25,213.88" style="stroke:#7F77DD;stroke-width:1.0;"/><text fill="#534AB7" font-family="sans-serif" font-size="10" lengthAdjust="spacing" textLength="67" x="786.25" y="129.9822">HTTPS / REST</text></g><!--link NextJS to Sse--><g id="link_NextJS_Sse"><path d="M733.27,69 C593.55,69 219,69 219,69 C219,69 219,287.35 219,368.86 " fill="none" id="NextJS-to-Sse" style="stroke:#7F77DD;stroke-width:1.0;"/><polygon fill="#7F77DD" points="219,374.86,223,365.86,219,369.86,215,365.86,219,374.86" style="stroke:#7F77DD;stroke-width:1.0;"/><text fill="#534AB7" font-family="sans-serif" font-size="10" lengthAdjust="spacing" textLength="122" x="200.21" y="54.2822">GET /notifications/stream</text><text fill="#534AB7" font-family="sans-serif" font-size="10" lengthAdjust="spacing" textLength="59" x="231.71" y="65.9229">(SSE &#50672;&#44208; &#50976;&#51648;)</text></g><!--link Session to Controllers--><g id="link_Session_Controllers"><path d="M941,98.12 C941,130.24 941,175.62 941,207.78 " fill="none" id="Session-to-Controllers" style="stroke:#7F77DD;stroke-width:1.0;"/><polygon fill="#7F77DD" points="941,213.78,945,204.78,941,208.78,937,204.78,941,213.78" style="stroke:#7F77DD;stroke-width:1.0;"/><text fill="#534AB7" font-family="sans-serif" font-size="10" lengthAdjust="spacing" textLength="65" x="875" y="141.2322">POST /results</text><text fill="#534AB7" font-family="sans-serif" font-size="10" lengthAdjust="spacing" textLength="41" x="887" y="152.8729">(&#50896;&#51216;&#49688; &#51204;&#49569;)</text></g><!--link Security to Controllers--><g id="link_Security_Controllers"><path d="M1102.79,253 C1091.58,253 1085.85,253 1074.08,253 " fill="none" id="Security-to-Controllers" style="stroke:#7F77DD;stroke-width:1.0;"/><polygon fill="#7F77DD" points="1068.08,253,1077.08,257,1073.08,253,1077.08,249,1068.08,253" style="stroke:#7F77DD;stroke-width:1.0;"/><text fill="#534AB7" font-family="sans-serif" font-size="10" lengthAdjust="spacing" textLength="27" x="1071.94" y="263.2822">&#51064;&#51613;/&#51064;&#44032;</text></g><!--link Controllers to Scoring--><g id="link_Controllers_Scoring"><path d="M949,272.16 C949,301.24 949,339.68 949,368.79 " fill="none" id="Controllers-to-Scoring" style="stroke:#7F77DD;stroke-width:1.0;"/><polygon fill="#7F77DD" points="949,374.79,953,365.79,949,369.79,945,365.79,949,374.79" style="stroke:#7F77DD;stroke-width:1.0;"/></g><!--link Controllers to Cache--><g id="link_Controllers_Cache"><path d="M1059,272.16 C1059,301.24 1059,339.68 1059,368.79 " fill="none" id="Controllers-to-Cache" style="stroke:#7F77DD;stroke-width:1.0;"/><polygon fill="#7F77DD" points="1059,374.79,1063,365.79,1059,369.79,1055,365.79,1059,374.79" style="stroke:#7F77DD;stroke-width:1.0;"/></g><!--link Controllers to Chemistry--><g id="link_Controllers_Chemistry"><path d="M840.8,272.16 C840.8,301.24 840.8,339.68 840.8,368.79 " fill="none" id="Controllers-to-Chemistry" style="stroke:#7F77DD;stroke-width:1.0;"/><polygon fill="#7F77DD" points="840.8,374.79,844.8,365.79,840.8,369.79,836.8,365.79,840.8,374.79" style="stroke:#7F77DD;stroke-width:1.0;"/></g><!--link Controllers to OtherServices--><g id="link_Controllers_OtherServices"><path d="M837.2,272.05 C837.2,307.56 837.2,363 837.2,363 C837.2,363 748.68,363 673.36,363 " fill="none" id="Controllers-to-OtherServices" style="stroke:#7F77DD;stroke-width:1.0;"/><polygon fill="#7F77DD" points="667.36,363,676.36,367,672.36,363,676.36,359,667.36,363" style="stroke:#7F77DD;stroke-width:1.0;"/></g><!--link Scoring to Cache--><g id="link_Scoring_Cache"><path d="M1015.3,404 C1026.76,404 1032.63,404 1043.97,404 " fill="none" id="Scoring-to-Cache" style="stroke:#7F77DD;stroke-width:1.0;"/><polygon fill="#7F77DD" points="1049.97,404,1040.97,400,1044.97,404,1040.97,408,1049.97,404" style="stroke:#7F77DD;stroke-width:1.0;"/><text fill="#534AB7" font-family="sans-serif" font-size="10" lengthAdjust="spacing" textLength="33" x="1016.13" y="414.2822">&#48260;&#53431;&#44050; &#51204;&#45804;</text></g><!--link Cache to Llm--><g id="link_Cache_Llm"><path d="M1174.38,404 C1185.69,404 1191.49,404 1202.8,404 " fill="none" id="Cache-to-Llm" style="stroke:#7F77DD;stroke-width:1.0;"/><polygon fill="#7F77DD" points="1208.8,404,1199.8,400,1203.8,404,1199.8,408,1208.8,404" style="stroke:#7F77DD;stroke-width:1.0;"/><text fill="#534AB7" font-family="sans-serif" font-size="10" lengthAdjust="spacing" textLength="50" x="1166.59" y="414.2822">MISS/&#47564;&#47308; &#49884;</text></g><!--link Chemistry to Llm--><g id="link_Chemistry_Llm"><path d="M833.6,374.95 C833.6,373.12 833.6,372 833.6,372 C833.6,372 1235,372 1235,372 C1235,372 1235,367.12 1235,368.95 " fill="none" id="Chemistry-to-Llm" style="stroke:#7F77DD;stroke-width:1.0;"/><polygon fill="#7F77DD" points="1235,374.95,1239,365.95,1235,369.95,1231,365.95,1235,374.95" style="stroke:#7F77DD;stroke-width:1.0;"/><text fill="#534AB7" font-family="sans-serif" font-size="10" lengthAdjust="spacing" textLength="55" x="978.3" y="369.2822">@Async &#54840;&#52636;</text></g><!--link Chemistry to Sse--><g id="link_Chemistry_Sse"><path d="M717.75,374.55 C717.75,349.31 717.75,317 717.75,317 C717.75,317 261,317 261,317 C261,317 261,343.31 261,368.55 " fill="none" id="Chemistry-to-Sse" style="stroke:#7F77DD;stroke-width:1.0;"/><polygon fill="#7F77DD" points="261,374.55,265,365.55,261,369.55,257,365.55,261,374.55" style="stroke:#7F77DD;stroke-width:1.0;"/><text fill="#534AB7" font-family="sans-serif" font-size="10" lengthAdjust="spacing" textLength="36" x="452.38" y="314.2822">&#50756;&#47308; &#49884; &#54392;&#49884;</text></g><!--link Coin to OtherServices--><g id="link_Coin_OtherServices"><path d="M450.09,404 C461.16,404 467.05,404 478.93,404 " fill="none" id="Coin-to-OtherServices" style="stroke:#7F77DD;stroke-width:1.0;"/><polygon fill="#7F77DD" points="484.93,404,475.93,400,479.93,404,475.93,408,484.93,404" style="stroke:#7F77DD;stroke-width:1.0;"/></g><!--link Scoring to Repos--><g id="link_Scoring_Repos"><path d="M928.5,433.22 C928.5,474.52 928.5,545 928.5,545 C928.5,545 892.13,545 851.91,545 " fill="none" id="Scoring-to-Repos" style="stroke:#7F77DD;stroke-width:1.0;"/><polygon fill="#7F77DD" points="845.91,545,854.91,549,850.91,545,854.91,541,845.91,545" style="stroke:#7F77DD;stroke-width:1.0;"/></g><!--link Cache to Repos--><g id="link_Cache_Repos"><path d="M1084.25,433.31 C1084.25,477.48 1084.25,556 1084.25,556 C1084.25,556 942.83,556 851.56,556 " fill="none" id="Cache-to-Repos" style="stroke:#7F77DD;stroke-width:1.0;"/><polygon fill="#7F77DD" points="845.56,556,854.56,560,850.56,556,854.56,552,845.56,556" style="stroke:#7F77DD;stroke-width:1.0;"/></g><!--link OtherServices to Repos--><g id="link_OtherServices_Repos"><path d="M667.09,444 C709.82,444 751.5,444 751.5,444 C751.5,444 751.5,486.83 751.5,516.58 " fill="none" id="OtherServices-to-Repos" style="stroke:#7F77DD;stroke-width:1.0;"/><polygon fill="#7F77DD" points="751.5,522.58,755.5,513.58,751.5,517.58,747.5,513.58,751.5,522.58" style="stroke:#7F77DD;stroke-width:1.0;"/></g><!--link Chemistry to Repos--><g id="link_Chemistry_Repos"><path d="M798.5,433.22 C798.5,459.83 798.5,492.58 798.5,516.76 " fill="none" id="Chemistry-to-Repos" style="stroke:#7F77DD;stroke-width:1.0;"/><polygon fill="#7F77DD" points="798.5,522.76,802.5,513.76,798.5,517.76,794.5,513.76,798.5,522.76" style="stroke:#7F77DD;stroke-width:1.0;"/></g><!--link Repos to MySQL--><g id="link_Repos_MySQL"><path d="M775,567.02 C775,579.0375 775,594.9788 775,612.2916 C775,620.948 775,623.9473 775,632.9704 " fill="none" id="Repos-to-MySQL" style="stroke:#7F77DD;stroke-width:1.0;"/><polygon fill="#7F77DD" points="775,638.9704,779,629.9704,775,633.9704,771,629.9704,775,638.9704" style="stroke:#7F77DD;stroke-width:1.0;"/></g><!--link Cache to Redis--><g id="link_Cache_Redis"><path d="M1155.5,433.33 C1155.5,434.39 1155.5,435 1155.5,435 C1155.5,435 1348.75,435 1348.75,435 C1348.75,435 1348.75,404 1348.75,404 C1348.75,404 1363.3425,404 1378.6188,404 C1386.2569,404 1394.0659,404 1400.3073,404 C1401.8677,404 1403.3301,404 1404.6673,404 C1404.7509,404 1398.834,404 1398.9166,404 " fill="none" id="Cache-to-Redis" style="stroke:#7F77DD;stroke-width:1.0;"/><polygon fill="#7F77DD" points="1404.9166,404,1395.9166,400,1399.9166,404,1395.9166,408,1404.9166,404" style="stroke:#7F77DD;stroke-width:1.0;"/><text fill="#534AB7" font-family="sans-serif" font-size="10" lengthAdjust="spacing" textLength="62" x="1235.71" y="445.2822">@Cacheable</text><text fill="#534AB7" font-family="sans-serif" font-size="10" lengthAdjust="spacing" textLength="59" x="1237.21" y="456.9229">(disc_cache)</text></g><!--link Security to Redis--><g id="link_Security_Redis"><path d="M1261.17,253 C1328.04,253 1413,253 1413,253 C1413,253 1413,261.8569 1413,275.2806 C1413,281.9925 1413,289.8461 1413,298.3052 C1413,302.5347 1413,306.9156 1413,311.3808 C1413,313.6134 1413,315.8671 1413,318.1335 C1413,318.7001 1413,313.2675 1413,313.8356 " fill="none" id="Security-to-Redis" style="stroke:#7F77DD;stroke-width:1.0;"/><polygon fill="#7F77DD" points="1413,319.8356,1417,310.8356,1413,314.8356,1409,310.8356,1413,319.8356" style="stroke:#7F77DD;stroke-width:1.0;"/><text fill="#534AB7" font-family="sans-serif" font-size="10" lengthAdjust="spacing" textLength="27" x="1384.37" y="250.2822">&#49464;&#49496; &#51200;&#51109;</text></g><!--link Llm to ClaudeAPI--><g id="link_Llm_ClaudeAPI"><path d="M1297,374.85 C1297,370.26 1297,367 1297,367 C1297,367 1909,367 1909,367 C1909,367 1909,361.33 1909,361.91 " fill="none" id="Llm-to-ClaudeAPI" style="stroke:#7F77DD;stroke-width:1.0;"/><polygon fill="#7F77DD" points="1909,367.91,1913,358.91,1909,362.91,1905,358.91,1909,367.91" style="stroke:#7F77DD;stroke-width:1.0;"/></g><!--link Security to Kakao--><g id="link_Security_Kakao"><path d="M1261.04,234 C1481.3,234 2086,234 2086,234 C2086,234 2086,329.69 2086,375.78 " fill="none" id="Security-to-Kakao" style="stroke:#7F77DD;stroke-width:1.0;"/><polygon fill="#7F77DD" points="2086,381.78,2090,372.78,2086,376.78,2082,372.78,2086,381.78" style="stroke:#7F77DD;stroke-width:1.0;"/></g><!--link OtherServices to S3--><g id="link_OtherServices_S3"><path d="M667.44,437 C890.09,437 1450.5,437 1647.89,437 " fill="none" id="OtherServices-to-S3" style="stroke:#7F77DD;stroke-width:1.0;"/><polygon fill="#7F77DD" points="1653.89,437,1644.89,433,1648.89,437,1644.89,441,1653.89,437" style="stroke:#7F77DD;stroke-width:1.0;"/><text fill="#534AB7" font-family="sans-serif" font-size="10" lengthAdjust="spacing" textLength="39" x="1108.67" y="447.2822">&#51060;&#48120;&#51648; &#50629;&#47196;&#46300;</text><text fill="#534AB7" font-family="sans-serif" font-size="10" lengthAdjust="spacing" textLength="63" x="1096.67" y="458.9229">(Full URL &#51200;&#51109;)</text></g><!--link Batch to Repos--><g id="link_Batch_Repos"><path d="M82,433.22 C82,474.52 82,545 82,545 C82,545 522.01,545 698.42,545 " fill="none" id="Batch-to-Repos" style="stroke:#7F77DD;stroke-width:1.0;"/><polygon fill="#7F77DD" points="704.42,545,695.42,541,699.42,545,695.42,549,704.42,545" style="stroke:#7F77DD;stroke-width:1.0;"/><text fill="#534AB7" font-family="sans-serif" font-size="10" lengthAdjust="spacing" textLength="70" x="246.32" y="530.2822">&#47564;&#47308; peer_codes</text><text fill="#534AB7" font-family="sans-serif" font-size="10" lengthAdjust="spacing" textLength="110" x="226.32" y="541.9229">&#47564;&#47308; assessment_tokens</text></g><!--link Cache to GMN56--><g id="link_Cache_GMN56"><path d="M1137,433.17 C1137,471.5 1137,534 1137,534 C1137,534 1288.68,534 1388.21,534 " fill="none" id="Cache-GMN56" style="stroke:#7F77DD;stroke-width:1.0;stroke-dasharray:7.0,7.0;"/></g><!--link Chemistry to GMN59--><g id="link_Chemistry_GMN59"><path d="M844.4,374.84 C844.4,369.2 844.4,365 844.4,365 C844.4,365 2236,365 2236,365 C2236,365 2236,372.73 2236,381.31 " fill="none" id="Chemistry-GMN59" style="stroke:#7F77DD;stroke-width:1.0;stroke-dasharray:7.0,7.0;"/></g><!--link Redis to GMN62--><g id="link_Redis_GMN62"><path d="M1606.2739,439 C1606.5122,439 1606.7483,439 1606.9824,439 C1607.9187,439 1608.8213,439 1609.6885,439 C1611.423,439 1613.0161,439 1614.4551,439 C1620.2109,439 1623.5,439 1623.5,439 C1623.5,439 1623.5,491.11 1623.5,522.26 " fill="none" id="Redis-GMN62" style="stroke:#7F77DD;stroke-width:1.0;stroke-dasharray:7.0,7.0;"/></g><!--SRC=[pLZTRnjL5d-Vl-B8F6mZIDp6JRFDmmh77oMGfY7ZiWy4LPFnJJpKdclDZ5iCgcIAMorjf1RMR9EiWrBHRLDKXCc6OX3yCpnwxlmFdFinundRaIea2iw7P-uzvznpVkTpnhrgsNN3CMgmOPXNjnpQiCivMgKEl5BCyX_DZIZAPDDeLBqYjRqLeqOWbQtNgmJqF5oWNiKoOONGry0rR7VQ9OwrcPhCgriV4ZWpEtbJdJrxRlRCN4wBqPYqLgSsiJtuI0DO75DMVFWETSh4KQke__b2BbejeP9NRUAwS6Pc3bV73vHheOO0MSUXrnN9V75-FfyF5sEySvcpsSNv-8OKS5gx4RUWZZeRMsIo_eL28LyiZEeVIHxLVpQfVIQNEVltymdjC-6TrqGVRT1gEQbDsV2C3SCblmlESU0IiiqgRPJ_2C4szKvIUAwOUJ6v4QOdEgfgsSHhrWbGnwjGJViR_DffuI_u_syDZdvPW3ovHggqJXmeKLfr8TW-36u-OazQm9vt1hsMed-PlreONQaHvL82y_E5lC3jNVswiRM5UvUNrkrJQLVUJJUigVV0S47jSZWYURcgXLcNuY5QF5SiIZ4hv0DlvdqNPUZwMbhNBqX-llocpWbSZ5ABshf77PI2TFwFxM1lc_ttFk0VExZF_hK3xCiskzj5M8y7nosbWUHBQA3N7SlUGizI3p8p7y0fh0KpjQPPzsPuqI9sUIeLPX2gD-QkeNlyhmw3Ettmlxx5pttvNdeXJo9yaUch3d4HVSD3J59Xb0iN8CPh1Rq4EOnYXrQhnE7U-CY_r_QVTjX-_qQsRi6h45juvyoGLe8Tunr7RSdsYBDfc0Ibn5bXyFqpzh3tnuCeZLJErudPS2olkMw_2cyPLmqAbx8DhmApCwTLtCXzPBgHG72nuLgyP8wXfvkKIzQ9SyqoCKBPTsqCIpJMFse7Dty0Tl35u8TkiDkHyYMrPCqPPeL4ZCl6XqtWIxWlOUNRadAvMeleSbMZKIQGNLs2OAVFddS5CL8eeHLIirpFQKOChsVTfcq2-xdbVuj1s-i6__bK7X2IAalSeJ9uNQXPdiVzTDpo7p-JshjAdnorxA75EuT-f-C_EVJ_tSNAzPGTj5LOMBOa7_HxmISjK1mym3ZewSlOtjDhnCMUdLwtiovFzXg6QLhdaUfwbkdYUew7Yx7L8EaLwbcRbYcYM4RU9Qz2d53icCzMCI1H3B5DCkQsDrUpi4RgrBMmj5Z45UB4GYWc39b5mpChwxR_PDl_QXlOBnqqCntSFWW-xW6x-Gqxa0uGPBpUH1qnTR6flxsSuflYIfQyikMQLqpkMbxDL8pyT1zpG9gKn_tGy-zwnFLSZ2N1v0Ya43qpH0IlxHWcUAkGdXlqkX3SscRxntw_CuIgP6nKoOGavUU4yk7Nsv_3f8FXrBNJCtEGpozZ4EsmdO-dNZHhax2i4PIQadZZbOI5jVli5fRoWnRxyd_izZPFqDS53bpbzoBgF8hXukHia6AxVVyvzijs5ni3k_D8jgdvi4rbRQ_YqBfbnjC6SJV5pRHBRMpHqsUdpwb29fQHXFF6oeFO5FT2w3zrq3FhTj1f-m-xmHTju31_s-UTeTYeLk7osZAUmVQEEKOoSJBZc8UaocR4z2cxk_zdDnMExPYgORVdaH4hzi0Uz0P7lPSxhMYXCZ1TfjVjwNyaD5eGTH670l_UhaY0Eu-mKwCtC25ydXExEsWHGjvcUq-dkAboBa7JEX0R43GvWi19fxnHAgtga0RUEyTfiKv2-5c02uKIf1DvciQYIuoQ67iA4OhT0uoWAKsDBYUTl7e9ktKwgWMdOcCG6dNxeJ0gQcFX1KmxrbR56vE63Pqzta_Z5tfGm35iqDpRghPgSQx8IjNB9kt92ZPn9sewatQJ1LrO8gx1ltdC4ptOl-y_RclgQ07mq39-PeIwBAs3tkSS5__kCos-7V5WsunvwkAIhgV3Gd-tgqMwdioYcglin9CPaj70TjjAF0IVzSKfs2TXLB4JWU1UYHfNCu44n49GjhAupUExYJF6UMEsZFEYHaCjX5BvHKsiH8IYwKb2BDmZkaI6oXwm42ls6DJ39Zar3E79V8d6mKyBMyA37jO0BUwjUAn4bNv4lD9TLViaGaEFPfGlexhF7jp2Ne2J0Ie_KjYdNg3q_wKU93Y8SfeH_vEEvvab4wHEY7F5f6K-XQWb8nhXhdWK7wWmJCIZzWRrF5e3kXdDj7BYWJUMIZXaOEKBzWv54B77duf7kTuELkfHEdKAfrjUlYY-Bw_ciwN2a91dS89WQKKlh9KqVBWJJ_rA8U58eKzi19QJCR2z3ZlwHZ3FdfuTqqWcF3fR7A7o7k9fpMkwIksHOuSuo9G0a6rfGGmmHst0Hop_wqCSjrLOSy5YZ5XGyJuw9Y616j94jiIoA7RsYVsSZ_O7X_9ro9_soc5202Pz5BvD2D5ADl6P22FqKI-uzqpuWBycsEsozdVuu0M3enREwvmmzgRYDKXVowIDkeNXRRf3j7u3]--></g></svg>