<?xml version="1.0" encoding="us-ascii" standalone="no"?><svg xmlns="http://www.w3.org/2000/svg" xmlns:xlink="http://www.w3.org/1999/xlink" contentStyleType="text/css" height="1891px" preserveAspectRatio="none" style="width:1529px;height:1891px;background:#FAFAFA;" version="1.1" viewBox="0 0 1529 1891" width="1529px" zoomAndPan="magnify"><defs/><g><rect fill="#FAFAFA" height="1891" style="stroke:none;stroke-width:1.0;" width="1529" x="0" y="0"/><!--cluster MyCPT ???--><g id="cluster_MyCPT &#49884;&#49828;&#53596;"><rect fill="#EEEDFE" height="1336" rx="2.5" ry="2.5" style="stroke:#534AB7;stroke-width:1.0;" width="1160" x="106" y="456.5"/><text fill="#000000" font-family="sans-serif" font-size="14" font-weight="bold" lengthAdjust="spacing" textLength="89" x="641.5" y="474.7399">MyCPT &#49884;&#49828;&#53596;</text></g><!--cluster ?? ??--><g id="cluster_&#44277;&#53685; &#44592;&#45733;"><path d="M132.5,508.5 L188.5,508.5 A3.75,3.75 0 0 1 191,511 L198,534.7719 L430.5,534.7719 A2.5,2.5 0 0 1 433,537.2719 L433,898 A2.5,2.5 0 0 1 430.5,900.5 L132.5,900.5 A2.5,2.5 0 0 1 130,898 L130,511 A2.5,2.5 0 0 1 132.5,508.5 " fill="#EEF6FF" style="stroke:#534AB7;stroke-width:2.0;"/><line style="stroke:#534AB7;stroke-width:2.0;" x1="130" x2="198" y1="534.7719" y2="534.7719"/><text fill="#3C3489" font-family="sans-serif" font-size="14" font-weight="bold" lengthAdjust="spacing" textLength="55" x="134" y="526.7399">&#44277;&#53685; &#44592;&#45733;</text></g><!--cluster ?? ?? ??--><g id="cluster_&#54924;&#50896; &#51204;&#50857; &#44592;&#45733;"><path d="M470.5,870.5 L555.5,870.5 A3.75,3.75 0 0 1 558,873 L565,896.7719 L1119,896.7719 A2.5,2.5 0 0 1 1121.5,899.2719 L1121.5,1766 A2.5,2.5 0 0 1 1119,1768.5 L470.5,1768.5 A2.5,2.5 0 0 1 468,1766 L468,873 A2.5,2.5 0 0 1 470.5,870.5 " fill="#F0FDF4" style="stroke:#534AB7;stroke-width:2.0;"/><line style="stroke:#534AB7;stroke-width:2.0;" x1="468" x2="565" y1="896.7719" y2="896.7719"/><text fill="#3C3489" font-family="sans-serif" font-size="14" font-weight="bold" lengthAdjust="spacing" textLength="84" x="472" y="888.7399">&#54924;&#50896; &#51204;&#50857; &#44592;&#45733;</text></g><!--cluster ??? ??--><g id="cluster_&#49884;&#49828;&#53596; &#45236;&#48512;"><path d="M826.5,503.5 L895.5,503.5 A3.75,3.75 0 0 1 898,506 L905,529.7719 L1239.5,529.7719 A2.5,2.5 0 0 1 1242,532.2719 L1242,844 A2.5,2.5 0 0 1 1239.5,846.5 L826.5,846.5 A2.5,2.5 0 0 1 824,844 L824,506 A2.5,2.5 0 0 1 826.5,503.5 " fill="#FFF7ED" style="stroke:#534AB7;stroke-width:2.0;"/><line style="stroke:#534AB7;stroke-width:2.0;" x1="824" x2="905" y1="529.7719" y2="529.7719"/><text fill="#3C3489" font-family="sans-serif" font-size="14" font-weight="bold" lengthAdjust="spacing" textLength="68" x="828" y="521.7399">&#49884;&#49828;&#53596; &#45236;&#48512;</text></g><g id="elem_UC_Test"><ellipse cx="281.397" cy="763.5735" fill="#FFFFFF" rx="62.397" ry="27.5735" style="stroke:#AFA9EC;stroke-width:1.5;"/><text fill="#26215C" font-family="sans-serif" font-size="12" lengthAdjust="spacing" textLength="47" x="257.897" y="758.1175">&#44160;&#49324; &#51025;&#49884;</text><text fill="#26215C" font-family="sans-serif" font-size="12" lengthAdjust="spacing" textLength="72" x="245.397" y="775.4936">&#54943;&#49688; &#51228;&#54620; &#50630;&#51020;</text></g><g id="elem_UC_Result"><ellipse cx="281.72" cy="855.544" fill="#FFFFFF" rx="133.22" ry="29.044" style="stroke:#AFA9EC;stroke-width:1.5;"/><text fill="#26215C" font-family="sans-serif" font-size="12" lengthAdjust="spacing" textLength="47" x="258.22" y="850.088">&#44208;&#44284; &#54869;&#51064;</text><text fill="#26215C" font-family="sans-serif" font-size="12" lengthAdjust="spacing" textLength="182" x="190.72" y="867.4641">DISC &#48516;&#49437; &#183; &#44053;&#51216; &#183; &#50557;&#51216; &#46321; 6&#44060; &#49465;&#49496;</text></g><g id="elem_UC_Save"><ellipse cx="281.4698" cy="671.494" fill="#FFFFFF" rx="135.4698" ry="29.494" style="stroke:#AFA9EC;stroke-width:1.5;"/><text fill="#26215C" font-family="sans-serif" font-size="12" lengthAdjust="spacing" textLength="97" x="232.9698" y="666.0379">&#47196;&#44536;&#51064; &#54980; &#44208;&#44284; &#51200;&#51109;</text><text fill="#26215C" font-family="sans-serif" font-size="12" lengthAdjust="spacing" textLength="188" x="187.4698" y="683.4141">sessionStorage &#50896;&#51216;&#49688; &#8594; &#49436;&#48260; &#51204;&#49569;</text></g><g id="elem_UC_PeerAssess"><ellipse cx="281.4698" cy="577.494" fill="#FFFFFF" rx="135.4698" ry="29.494" style="stroke:#AFA9EC;stroke-width:1.5;"/><text fill="#26215C" font-family="sans-serif" font-size="12" lengthAdjust="spacing" textLength="72" x="245.4698" y="572.0379">&#53440;&#51064; &#54217;&#51221; &#51025;&#49884;</text><text fill="#26215C" font-family="sans-serif" font-size="12" lengthAdjust="spacing" textLength="188" x="187.4698" y="589.4141">&#47553;&#53356; &#51217;&#49549; &#8594; 24&#47928;&#54637; &#8594; &#54588;&#54217;&#51221;&#51088; &#44480;&#49549;</text></g><g id="elem_UC_Login"><ellipse cx="631.9989" cy="928.6998" fill="#FFFFFF" rx="83.9989" ry="19.1998" style="stroke:#AFA9EC;stroke-width:1.5;"/><text fill="#26215C" font-family="sans-serif" font-size="12" lengthAdjust="spacing" textLength="124" x="566.9989" y="932.9098">&#52852;&#52852;&#50724; &#47196;&#44536;&#51064; / &#47196;&#44536;&#50500;&#50883;</text></g><g id="elem_UC_Profile"><ellipse cx="631.8442" cy="1010.5735" fill="#FFFFFF" rx="116.8442" ry="27.5735" style="stroke:#AFA9EC;stroke-width:1.5;"/><text fill="#26215C" font-family="sans-serif" font-size="12" lengthAdjust="spacing" textLength="58" x="602.8442" y="1005.1175">&#54532;&#47196;&#54596; &#49444;&#51221;</text><text fill="#26215C" font-family="sans-serif" font-size="12" lengthAdjust="spacing" textLength="149" x="557.3442" y="1022.4936">&#45769;&#45348;&#51076; &#183; &#49373;&#45380; &#183; &#49457;&#48324; &#183; &#51060;&#48120;&#51648;</text></g><g id="elem_UC_History"><ellipse cx="631.9092" cy="1100.5735" fill="#FFFFFF" rx="103.4092" ry="27.5735" style="stroke:#AFA9EC;stroke-width:1.5;"/><text fill="#26215C" font-family="sans-serif" font-size="12" lengthAdjust="spacing" textLength="72" x="595.9092" y="1095.1175">&#44208;&#44284; &#51060;&#47141; &#51312;&#54924;</text><text fill="#26215C" font-family="sans-serif" font-size="12" lengthAdjust="spacing" textLength="130" x="566.9092" y="1112.4936">&#51088;&#44592; &#54217;&#51221; / &#53440;&#51064; &#54217;&#51221; &#44396;&#48516;</text></g><g id="elem_UC_Stats"><ellipse cx="632.0927" cy="1192.4185" fill="#FFFFFF" rx="135.0927" ry="29.4185" style="stroke:#AFA9EC;stroke-width:1.5;"/><text fill="#26215C" font-family="sans-serif" font-size="12" lengthAdjust="spacing" textLength="47" x="608.5927" y="1186.9625">&#53685;&#44228; &#48708;&#44368;</text><text fill="#26215C" font-family="sans-serif" font-size="12" lengthAdjust="spacing" textLength="187" x="538.5927" y="1204.3386">&#45208;&#51060;&#45824; &#183; &#49457;&#48324; &#44592;&#51456; (&#51088;&#44592; &#54217;&#51221;&#47564; &#51665;&#44228;)</text></g><g id="elem_UC_Trend"><ellipse cx="631.93" cy="1284.5735" fill="#FFFFFF" rx="115.43" ry="27.5735" style="stroke:#AFA9EC;stroke-width:1.5;"/><text fill="#26215C" font-family="sans-serif" font-size="12" lengthAdjust="spacing" textLength="72" x="595.93" y="1279.1175">&#48320;&#54868; &#52628;&#51060; &#51312;&#54924;</text><text fill="#26215C" font-family="sans-serif" font-size="12" lengthAdjust="spacing" textLength="147" x="558.43" y="1296.4936">&#44592;&#44036;&#48324; &#51088;&#44592; &#54217;&#51221; &#54217;&#44512; &#48143; &#52628;&#51060;</text></g><g id="elem_UC_Code"><ellipse cx="632.0147" cy="1377.6029" fill="#FFFFFF" rx="138.5147" ry="30.1029" style="stroke:#AFA9EC;stroke-width:1.5;"/><text fill="#26215C" font-family="sans-serif" font-size="12" lengthAdjust="spacing" textLength="97" x="583.5147" y="1372.1469">&#46041;&#47308; &#52488;&#45824; &#53076;&#46300; &#49373;&#49457;</text><text fill="#26215C" font-family="sans-serif" font-size="12" lengthAdjust="spacing" textLength="196" x="534.0147" y="1389.523">&#45824;&#47928;&#51088;+&#49707;&#51088; 8&#51088;&#47532; &#183; &#45796;&#54924;&#50857; &#183; 7&#51068; &#44081;&#49888;</text></g><g id="elem_UC_ColleagueRegister"><ellipse cx="631.93" cy="1482.3603" fill="#FFFFFF" rx="115.43" ry="39.8603" style="stroke:#AFA9EC;stroke-width:1.5;"/><text fill="#26215C" font-family="sans-serif" font-size="12" lengthAdjust="spacing" textLength="86" x="588.93" y="1468.2162">&#46041;&#47308; &#52488;&#45824; &#48143; &#46321;&#47197;</text><text fill="#26215C" font-family="sans-serif" font-size="12" lengthAdjust="spacing" textLength="147" x="558.43" y="1485.5924">&#47553;&#53356; &#44277;&#50976; &#46608;&#45716; &#53076;&#46300; &#51649;&#51217; &#51077;&#47141;</text><text fill="#26215C" font-family="sans-serif" font-size="12" lengthAdjust="spacing" textLength="122" x="570.93" y="1502.9685">&#49688;&#46973; &#49884; &#50577;&#48169;&#54693; &#44288;&#44228; &#49373;&#49457;</text></g><g id="elem_UC_AssessLink"><ellipse cx="632.0219" cy="1597.3603" fill="#FFFFFF" rx="134.5219" ry="39.8603" style="stroke:#AFA9EC;stroke-width:1.5;"/><text fill="#26215C" font-family="sans-serif" font-size="12" lengthAdjust="spacing" textLength="97" x="583.5219" y="1583.2162">&#53440;&#51064; &#54217;&#51221; &#47553;&#53356; &#49373;&#49457;</text><text fill="#26215C" font-family="sans-serif" font-size="12" lengthAdjust="spacing" textLength="117" x="573.5219" y="1600.5924">'&#45208;&#45716; &#50612;&#46500; &#49324;&#46988;&#51064;&#44032;&#50836;?'</text><text fill="#26215C" font-family="sans-serif" font-size="12" lengthAdjust="spacing" textLength="174" x="545.0219" y="1617.9685">&#51068;&#54924;&#50857; &#53664;&#53360; &#183; 7&#51068; &#47564;&#47308; &#183; &#46972;&#48296; &#51077;&#47141;</text></g><g id="elem_UC_Compat"><ellipse cx="631.9569" cy="1712.3603" fill="#FFFFFF" rx="147.9569" ry="39.8603" style="stroke:#AFA9EC;stroke-width:1.5;"/><text fill="#26215C" font-family="sans-serif" font-size="12" lengthAdjust="spacing" textLength="108" x="577.9569" y="1698.2162">&#46041;&#47308; &#52992;&#48120; &#48372;&#44256;&#49436; &#48156;&#54665;</text><text fill="#26215C" font-family="sans-serif" font-size="12" lengthAdjust="spacing" textLength="175" x="544.4569" y="1715.5924">&#46041;&#47308; &#47785;&#47197;&#50640;&#49436; &#45824;&#49345; &#49440;&#53469; &#183; 6&#44060; &#49465;&#49496;</text><text fill="#26215C" font-family="sans-serif" font-size="12" lengthAdjust="spacing" textLength="193" x="535.4569" y="1732.9685">Lazy Caching + &#51473;&#48373; &#48169;&#51648; &#183; SSE &#54392;&#49884;</text></g><g id="elem_UC_Notify"><ellipse cx="1032.7965" cy="1718.5735" fill="#FFFFFF" rx="72.2965" ry="27.5735" style="stroke:#AFA9EC;stroke-width:1.5;"/><text fill="#26215C" font-family="sans-serif" font-size="12" lengthAdjust="spacing" textLength="72" x="996.7965" y="1713.1175">&#51064;&#50545; &#50508;&#47548; &#54869;&#51064;</text><text fill="#26215C" font-family="sans-serif" font-size="12" lengthAdjust="spacing" textLength="86" x="989.7965" y="1730.4936">&#53364;&#47533; &#49884; &#51593;&#49884; &#49325;&#51228;</text></g><g id="elem_UC_Cache"><ellipse cx="1033.0721" cy="582.3603" fill="#FFFFFF" rx="129.5721" ry="39.8603" style="stroke:#AFA9EC;stroke-width:1.5;"/><text fill="#26215C" font-family="sans-serif" font-size="12" lengthAdjust="spacing" textLength="151" x="957.5721" y="568.2162">&#44060;&#51064; &#48516;&#49437; LLM &#52880;&#49884; &#51312;&#54924;/&#51200;&#51109;</text><text fill="#26215C" font-family="sans-serif" font-size="12" lengthAdjust="spacing" textLength="166" x="950.0721" y="585.5924">D &#183; I &#183; S &#183; C &#48260;&#53431; &#44592;&#48152; (3&#8308; = 81)</text><text fill="#26215C" font-family="sans-serif" font-size="12" lengthAdjust="spacing" textLength="167" x="949.5721" y="602.9685">&#50728;&#46356;&#47592;&#46300; &#47564;&#47308; &#183; &#54665; UPDATE &#44081;&#49888;</text></g><g id="elem_UC_ChemistryCache"><ellipse cx="1032.8092" cy="698.4618" fill="#FFFFFF" rx="192.8092" ry="40.9618" style="stroke:#AFA9EC;stroke-width:1.5;"/><text fill="#26215C" font-family="sans-serif" font-size="12" lengthAdjust="spacing" textLength="162" x="951.8092" y="684.3178">&#52992;&#48120; &#48372;&#44256;&#49436; LLM &#52880;&#49884; &#51312;&#54924;/&#51200;&#51109;</text><text fill="#26215C" font-family="sans-serif" font-size="12" lengthAdjust="spacing" textLength="169" x="948.3092" y="701.6939">&#48260;&#53431; &#51312;&#54633; &#44592;&#48152; (3&#8308; &#215; 3&#8308; = 6,561)</text><text fill="#26215C" font-family="sans-serif" font-size="12" lengthAdjust="spacing" textLength="264" x="900.8092" y="719.07">SELECT FOR UPDATE &#183; Redis Pub/Sub &#51473;&#48373; &#48169;&#51648;</text></g><g id="elem_UC_CleanBatch"><ellipse cx="1032.93" cy="802.5735" fill="#FFFFFF" rx="115.43" ry="27.5735" style="stroke:#AFA9EC;stroke-width:1.5;"/><text fill="#26215C" font-family="sans-serif" font-size="12" lengthAdjust="spacing" textLength="97" x="984.43" y="797.1175">&#47564;&#47308; &#46041;&#47308; &#53076;&#46300; &#49325;&#51228;</text><text fill="#26215C" font-family="sans-serif" font-size="12" lengthAdjust="spacing" textLength="147" x="959.43" y="814.4936">&#47564;&#47308; &#54217;&#51221; &#53664;&#53360; &#49325;&#51228; &#53685;&#54633; &#49892;&#54665;</text></g><!--entity Guest--><g id="elem_Guest"><ellipse cx="42.5" cy="686.5" fill="#FFFFFF" rx="8" ry="8" style="stroke:#7F77DD;stroke-width:0.5;"/><path d="M42.5,694.5 L42.5,721.5 M29.5,702.5 L55.5,702.5 M42.5,721.5 L29.5,736.5 M42.5,721.5 L55.5,736.5 " fill="none" style="stroke:#7F77DD;stroke-width:0.5;"/><text fill="#3C3489" font-family="sans-serif" font-size="13" font-weight="bold" lengthAdjust="spacing" textLength="36" x="24.5" y="753.08">&#48708;&#54924;&#50896;</text></g><!--entity Member--><g id="elem_Member"><ellipse cx="42.5" cy="1203.5" fill="#FFFFFF" rx="8" ry="8" style="stroke:#7F77DD;stroke-width:0.5;"/><path d="M42.5,1211.5 L42.5,1238.5 M29.5,1219.5 L55.5,1219.5 M42.5,1238.5 L29.5,1253.5 M42.5,1238.5 L55.5,1253.5 " fill="none" style="stroke:#7F77DD;stroke-width:0.5;"/><text fill="#3C3489" font-family="sans-serif" font-size="13" font-weight="bold" lengthAdjust="spacing" textLength="73" x="6" y="1270.08">&#54924;&#50896; (&#52852;&#52852;&#50724;)</text></g><!--entity Batch--><g id="elem_Batch"><ellipse cx="632" cy="1816.5" fill="#FFFFFF" rx="8" ry="8" style="stroke:#7F77DD;stroke-width:0.5;"/><path d="M632,1824.5 L632,1851.5 M619,1832.5 L645,1832.5 M632,1851.5 L619,1866.5 M632,1851.5 L645,1866.5 " fill="none" style="stroke:#7F77DD;stroke-width:0.5;"/><text fill="#3C3489" font-family="sans-serif" font-size="13" font-weight="bold" lengthAdjust="spacing" textLength="75" x="594.5" y="1883.08">&#48176;&#52824; &#49828;&#52992;&#51460;&#47084;</text></g><g id="elem_GMN47"><path d="M1308.5,522.5 L1308.5,569.5 L1159.38,573.5 L1308.5,577.5 L1308.5,604.8999 A0,0 0 0 0 1308.5,604.8999 L1499.5,604.8999 A0,0 0 0 0 1499.5,604.8999 L1499.5,532.5 L1489.5,522.5 L1308.5,522.5 A0,0 0 0 0 1308.5,522.5 " fill="#F5F3FF" style="stroke:#AFA9EC;stroke-width:0.5;"/><path d="M1489.5,522.5 L1489.5,532.5 L1499.5,532.5 L1489.5,522.5 " fill="#F5F3FF" style="stroke:#AFA9EC;stroke-width:0.5;"/><text fill="#534AB7" font-family="sans-serif" font-size="10" lengthAdjust="spacing" textLength="142" x="1314.5" y="539.1">&#52880;&#49884; &#48120;&#49828; &#8594; LLM &#54840;&#52636; &#8594; UPDATE</text><text fill="#534AB7" font-family="sans-serif" font-size="10" lengthAdjust="spacing" textLength="118" x="1314.5" y="553.58">&#52880;&#49884; &#55176;&#53944; + &#50976;&#54952; &#8594; &#51593;&#49884; &#48152;&#54872;</text><text fill="#534AB7" font-family="sans-serif" font-size="10" lengthAdjust="spacing" textLength="170" x="1314.5" y="568.06">&#52880;&#49884; &#55176;&#53944; + &#47564;&#47308; &#8594; LLM &#54840;&#52636; &#8594; UPDATE</text><text fill="#534AB7" font-family="sans-serif" font-size="10" lengthAdjust="spacing" textLength="125" x="1314.5" y="582.5399">&#48372;&#44256;&#49436; &#50896;&#47928;&#50640; &#51060;&#47492; &#48120;&#54252;&#54632; &#51200;&#51109;</text><text fill="#534AB7" font-family="sans-serif" font-size="10" lengthAdjust="spacing" textLength="78" x="1314.5" y="597.0199">&#47116;&#45908;&#47553; &#49884; &#51060;&#47492; &#49341;&#51077;</text></g><g id="elem_GMN50"><path d="M1286,640 L1286,694.5 L1226.11,698.5 L1286,702.5 L1286,794.7999 A0,0 0 0 0 1286,794.7999 L1522,794.7999 A0,0 0 0 0 1522,794.7999 L1522,650 L1512,640 L1286,640 A0,0 0 0 0 1286,640 " fill="#F5F3FF" style="stroke:#AFA9EC;stroke-width:0.5;"/><path d="M1512,640 L1512,650 L1522,650 L1512,640 " fill="#F5F3FF" style="stroke:#AFA9EC;stroke-width:0.5;"/><text fill="#534AB7" font-family="sans-serif" font-size="10" lengthAdjust="spacing" textLength="169" x="1292" y="656.6">6,561&#54665; &#49324;&#51204; &#49341;&#51077; (&#50528;&#54540;&#47532;&#52992;&#51060;&#49496; &#49884;&#51089; &#49884;)</text><text fill="#534AB7" font-family="sans-serif" font-size="10" lengthAdjust="spacing" textLength="210" x="1292" y="671.08">&#52880;&#49884; &#48120;&#49828;(NULL) &#8594; &#48156;&#54665;&#51088;: SELECT FOR UPDATE</text><text fill="#534AB7" font-family="sans-serif" font-size="10" lengthAdjust="spacing" textLength="185" x="1296" y="685.56">&#8594; GENERATING &#51204;&#54872; &#51593;&#49884; &#52964;&#48139; &#8594; LLM &#54840;&#52636;</text><text fill="#534AB7" font-family="sans-serif" font-size="10" lengthAdjust="spacing" textLength="164" x="1296" y="700.0399">&#8594; READY &#52964;&#48139; &#8594; Redis Pub/Sub &#48156;&#54665;</text><text fill="#534AB7" font-family="sans-serif" font-size="10" lengthAdjust="spacing" textLength="160" x="1292" y="714.5199">&#52880;&#49884; &#49373;&#49457; &#51473;(GENERATING) &#8594; &#44396;&#46021;&#51088;:</text><text fill="#534AB7" font-family="sans-serif" font-size="10" lengthAdjust="spacing" textLength="211" x="1296" y="728.9999">&#8594; Redis Pub/Sub &#44396;&#46021; &#183; CountDownLatch &#45824;&#44592;</text><text fill="#534AB7" font-family="sans-serif" font-size="10" lengthAdjust="spacing" textLength="135" x="1296" y="743.4799">&#8594; &#50756;&#47308; &#51060;&#48292;&#53944; &#49688;&#49888; &#49884; SSE push</text><text fill="#534AB7" font-family="sans-serif" font-size="10" lengthAdjust="spacing" textLength="154" x="1292" y="757.9599">&#52880;&#49884; &#55176;&#53944;(READY + &#50976;&#54952;) &#8594; &#51593;&#49884; &#48152;&#54872;</text><text fill="#534AB7" font-family="sans-serif" font-size="10" lengthAdjust="spacing" textLength="172" x="1292" y="772.4399">&#52880;&#49884; &#47564;&#47308;(READY + &#47564;&#47308;) &#8594; &#48156;&#54665;&#51088; &#51116;&#51652;&#51077;</text><text fill="#534AB7" font-family="sans-serif" font-size="10" lengthAdjust="spacing" textLength="125" x="1292" y="786.9199">&#48372;&#44256;&#49436; &#50896;&#47928;&#50640; &#51060;&#47492; &#48120;&#54252;&#54632; &#51200;&#51109;</text></g><g id="elem_GMN53"><path d="M903,314.5 L903,440.3399 L1163,440.3399 L1163,324.5 L1153,314.5 L903,314.5 " fill="#F5F3FF" style="stroke:#AFA9EC;stroke-width:0.5;"/><path d="M1153,314.5 L1153,324.5 L1163,324.5 L1153,314.5 " fill="#F5F3FF" style="stroke:#AFA9EC;stroke-width:1.0;"/><text fill="#534AB7" font-family="sans-serif" font-size="10" lengthAdjust="spacing" textLength="239" x="909" y="331.1">@TransactionalEventListener(AFTER_COMMIT)&#51004;&#47196;</text><text fill="#534AB7" font-family="sans-serif" font-size="10" lengthAdjust="spacing" textLength="165" x="909" y="345.58">&#53944;&#47004;&#51117;&#49496; &#52964;&#48139; &#54980; &#48708;&#46041;&#44592; &#52376;&#47532; &#53944;&#47532;&#44144; &#48372;&#51109;</text><text fill="#534AB7" font-family="sans-serif" font-size="10" lengthAdjust="spacing" textLength="161" x="909" y="360.06">&#48156;&#54665; &#51593;&#49884; 202 &#48152;&#54872; &#8594; &#50756;&#47308; &#49884; SSE &#54392;&#49884;</text><text fill="#534AB7" font-family="sans-serif" font-size="10" lengthAdjust="spacing" textLength="145" x="909" y="374.5399">&#48156;&#54665;&#51088;&#183;&#44396;&#46021;&#51088; &#47784;&#46160; SSE push &#49688;&#49888;</text><text fill="#534AB7" font-family="sans-serif" font-size="10" lengthAdjust="spacing" textLength="105" x="909" y="389.0199">&#49345;&#45824;&#48169;&#50640;&#44172; &#51064;&#50545; &#50508;&#47548; &#51204;&#49569;</text><text fill="#534AB7" font-family="sans-serif" font-size="10" lengthAdjust="spacing" textLength="98" x="909" y="403.4999">&#53076;&#51064; &#52649;&#51204;: &#52488;&#44592; 3&#44060; &#51648;&#44553;</text><text fill="#534AB7" font-family="sans-serif" font-size="10" lengthAdjust="spacing" textLength="154" x="909" y="417.9799">&#51060;&#54980; 24h&#47560;&#45796; +1 (&#50728;&#46356;&#47592;&#46300;), &#52572;&#45824; 3&#44060;</text><text fill="#534AB7" font-family="sans-serif" font-size="10" lengthAdjust="spacing" textLength="89" x="909" y="432.4599">&#49892;&#54056; &#49884; &#53076;&#51064; &#51088;&#46041; &#54872;&#48520;</text></g><g id="elem_GMN56"><path d="M969,94 L969,147.44 L1097,147.44 L1097,104 L1087,94 L969,94 " fill="#F5F3FF" style="stroke:#AFA9EC;stroke-width:0.5;"/><path d="M1087,94 L1087,104 L1097,104 L1087,94 " fill="#F5F3FF" style="stroke:#AFA9EC;stroke-width:1.0;"/><text fill="#534AB7" font-family="sans-serif" font-size="10" lengthAdjust="spacing" textLength="96" x="975" y="110.6">&#48372;&#50504;: 7&#51068; &#51452;&#44592; &#44081;&#49888;&#51004;&#47196;</text><text fill="#534AB7" font-family="sans-serif" font-size="10" lengthAdjust="spacing" textLength="107" x="975" y="125.08">&#53076;&#46300; &#50976;&#52628;&#47484; &#53685;&#54620; &#53440;&#51064; &#49457;&#54693;</text><text fill="#534AB7" font-family="sans-serif" font-size="10" lengthAdjust="spacing" textLength="38" x="975" y="139.56">&#50676;&#46988; &#48169;&#51648;</text></g><g id="elem_GMN59"><path d="M961,182 L961,278.8799 L1105,278.8799 L1105,192 L1095,182 L961,182 " fill="#F5F3FF" style="stroke:#AFA9EC;stroke-width:0.5;"/><path d="M1095,182 L1095,192 L1105,192 L1095,182 " fill="#F5F3FF" style="stroke:#AFA9EC;stroke-width:1.0;"/><text fill="#534AB7" font-family="sans-serif" font-size="10" lengthAdjust="spacing" textLength="94" x="967" y="198.6">&#51068;&#54924;&#50857; &#53664;&#53360; (CHAR 32)</text><text fill="#534AB7" font-family="sans-serif" font-size="10" lengthAdjust="spacing" textLength="38" x="967" y="213.08">&#47564;&#47308;: 7&#51068;</text><text fill="#534AB7" font-family="sans-serif" font-size="10" lengthAdjust="spacing" textLength="114" x="967" y="227.56">used=TRUE &#49884; &#51116;&#51217;&#49549; &#52264;&#45800;</text><text fill="#534AB7" font-family="sans-serif" font-size="10" lengthAdjust="spacing" textLength="96" x="967" y="242.0399">&#46972;&#48296;&#47196; &#54217;&#51221;&#51088; &#49885;&#48324; &#44032;&#45733;</text><text fill="#534AB7" font-family="sans-serif" font-size="10" lengthAdjust="spacing" textLength="114" x="967" y="256.5199">&#44208;&#44284;&#45716; &#54588;&#54217;&#51221;&#51088; &#44228;&#51221;&#50640; &#44480;&#49549;</text><text fill="#534AB7" font-family="sans-serif" font-size="10" lengthAdjust="spacing" textLength="123" x="967" y="270.9999">&#45572;&#44032; &#54217;&#51221;&#54664;&#45716;&#51648; &#51200;&#51109;&#54616;&#51648; &#50506;&#51020;</text></g><g id="elem_GMN62"><path d="M139,372.5 L139,440.4199 L424,440.4199 L424,382.5 L414,372.5 L139,372.5 " fill="#F5F3FF" style="stroke:#AFA9EC;stroke-width:0.5;"/><path d="M414,372.5 L414,382.5 L424,382.5 L414,372.5 " fill="#F5F3FF" style="stroke:#AFA9EC;stroke-width:1.0;"/><text fill="#534AB7" font-family="sans-serif" font-size="10" lengthAdjust="spacing" textLength="264" x="145" y="389.1">&#48708;&#54924;&#50896;: DISC &#50896;&#51216;&#49688;&#47484; &#53364;&#46972;&#51060;&#50616;&#53944; sessionStorage&#50640; &#51076;&#49884; &#48372;&#44288;</text><text fill="#534AB7" font-family="sans-serif" font-size="10" lengthAdjust="spacing" textLength="122" x="145" y="403.58">&#49436;&#48260; &#49464;&#49496; &#48120;&#48156;&#44553; (&#54540;&#47084;&#46377; &#48169;&#50612;)</text><text fill="#534AB7" font-family="sans-serif" font-size="10" lengthAdjust="spacing" textLength="163" x="145" y="418.06">&#47196;&#44536;&#51064; &#54980; &#50896;&#51216;&#49688;&#47484; &#49436;&#48260;&#47196; &#51204;&#49569;&#54616;&#50668; &#51200;&#51109;</text><text fill="#534AB7" font-family="sans-serif" font-size="10" lengthAdjust="spacing" textLength="176" x="145" y="432.5399">&#53685;&#44228; &#48152;&#50689; &#48143; &#44208;&#44284; &#51200;&#51109;&#51008; &#47196;&#44536;&#51064; &#54980;&#50640;&#47564; &#44032;&#45733;</text></g><g id="elem_GMN65"><path d="M184,284 L184,337.44 L379,337.44 L379,294 L369,284 L184,284 " fill="#F5F3FF" style="stroke:#AFA9EC;stroke-width:0.5;"/><path d="M369,284 L369,294 L379,294 L369,284 " fill="#F5F3FF" style="stroke:#AFA9EC;stroke-width:1.0;"/><text fill="#534AB7" font-family="sans-serif" font-size="10" lengthAdjust="spacing" textLength="145" x="190" y="300.6">sessionStorage&#51032; DISC &#50896;&#51216;&#49688;&#47484;</text><text fill="#534AB7" font-family="sans-serif" font-size="10" lengthAdjust="spacing" textLength="95" x="190" y="315.08">POST /results &#47196; &#51204;&#49569;</text><text fill="#534AB7" font-family="sans-serif" font-size="10" lengthAdjust="spacing" textLength="174" x="190" y="329.56">&#49436;&#48260;&#44032; &#48260;&#53431;&#44050; &#49328;&#52636; &#54980; disc_tests INSERT</text></g><g id="elem_GMN68"><path d="M936,6 L936,59.44 L1130,59.44 L1130,16 L1120,6 L936,6 " fill="#F5F3FF" style="stroke:#AFA9EC;stroke-width:0.5;"/><path d="M1120,6 L1120,16 L1130,16 L1120,6 " fill="#F5F3FF" style="stroke:#AFA9EC;stroke-width:1.0;"/><text fill="#534AB7" font-family="sans-serif" font-size="10" lengthAdjust="spacing" textLength="129" x="942" y="22.6">&#49373;&#45380;/&#49457;&#48324; &#51077;&#47141; &#54924;&#50896;&#47564; &#48708;&#44368; &#44032;&#45733;</text><text fill="#534AB7" font-family="sans-serif" font-size="10" lengthAdjust="spacing" textLength="164" x="942" y="37.08">&#48120;&#51077;&#47141; &#49884; "&#51221;&#48372; &#51077;&#47141;&#54616;&#44256; &#48708;&#44368;&#54616;&#44592;" &#50504;&#45236;</text><text fill="#534AB7" font-family="sans-serif" font-size="10" lengthAdjust="spacing" textLength="173" x="942" y="51.56">&#51088;&#44592; &#54217;&#51221;(rater_type=SELF) &#44208;&#44284;&#47564; &#51665;&#44228;</text></g><!--link Guest to UC_Test--><g id="link_Guest_UC_Test"><path d="M60.86,746.5 C97.15,746.5 173.15,746.5 226.32,746.5 " fill="none" id="Guest-to-UC_Test" style="stroke:#7F77DD;stroke-width:1.0;"/><polygon fill="#7F77DD" points="232.32,746.5,223.32,742.5,227.32,746.5,223.32,750.5,232.32,746.5" style="stroke:#7F77DD;stroke-width:1.0;"/></g><!--link Guest to UC_Result--><g id="link_Guest_UC_Result"><path d="M60.71,751.75 C98.93,751.75 184,751.75 184,751.75 C184,751.75 184,799.35 184,829.5 " fill="none" id="Guest-to-UC_Result" style="stroke:#7F77DD;stroke-width:1.0;"/><polygon fill="#7F77DD" points="184,835.5,188,826.5,184,830.5,180,826.5,184,835.5" style="stroke:#7F77DD;stroke-width:1.0;"/></g><!--link Guest to UC_Save--><g id="link_Guest_UC_Save"><path d="M60.86,689.5 C85.4,689.5 124.84,689.5 168.13,689.5 " fill="none" id="Guest-to-UC_Save" style="stroke:#7F77DD;stroke-width:1.0;"/><polygon fill="#7F77DD" points="174.13,689.5,165.13,685.5,169.13,689.5,165.13,693.5,174.13,689.5" style="stroke:#7F77DD;stroke-width:1.0;"/></g><!--link Guest to UC_PeerAssess--><g id="link_Guest_UC_PeerAssess"><path d="M43,677.76 C43,636.37 43,577.5 43,577.5 C43,577.5 86.18,577.5 139.88,577.5 " fill="none" id="Guest-to-UC_PeerAssess" style="stroke:#7F77DD;stroke-width:1.0;"/><polygon fill="#7F77DD" points="145.88,577.5,136.88,573.5,140.88,577.5,136.88,581.5,145.88,577.5" style="stroke:#7F77DD;stroke-width:1.0;"/></g><!--link Member to UC_Test--><g id="link_Member_UC_Test"><path d="M64,1194.84 C64,1083.14 64,774 64,774 C64,774 153.07,774 217.5,774 " fill="none" id="Member-to-UC_Test" style="stroke:#7F77DD;stroke-width:1.0;"/><polygon fill="#7F77DD" points="223.5,774,214.5,770,218.5,774,214.5,778,223.5,774" style="stroke:#7F77DD;stroke-width:1.0;"/></g><!--link Member to UC_Result--><g id="link_Member_UC_Result"><path d="M67,1194.66 C67,1097.35 67,855.5 67,855.5 C67,855.5 98.65,855.5 142.4,855.5 " fill="none" id="Member-to-UC_Result" style="stroke:#7F77DD;stroke-width:1.0;"/><polygon fill="#7F77DD" points="148.4,855.5,139.4,851.5,143.4,855.5,139.4,859.5,148.4,855.5" style="stroke:#7F77DD;stroke-width:1.0;"/></g><!--link Member to UC_Login--><g id="link_Member_UC_Login"><path d="M70,1194.81 C70,1112.01 70,928.5 70,928.5 C70,928.5 385.08,928.5 541.86,928.5 " fill="none" id="Member-to-UC_Login" style="stroke:#7F77DD;stroke-width:1.0;"/><polygon fill="#7F77DD" points="547.86,928.5,538.86,924.5,542.86,928.5,538.86,932.5,547.86,928.5" style="stroke:#7F77DD;stroke-width:1.0;"/></g><!--link Member to UC_Profile--><g id="link_Member_UC_Profile"><path d="M73,1194.97 C73,1130.66 73,1010.5 73,1010.5 C73,1010.5 344.9,1010.5 508.82,1010.5 " fill="none" id="Member-to-UC_Profile" style="stroke:#7F77DD;stroke-width:1.0;"/><polygon fill="#7F77DD" points="514.82,1010.5,505.82,1006.5,509.82,1010.5,505.82,1014.5,514.82,1010.5" style="stroke:#7F77DD;stroke-width:1.0;"/></g><!--link Member to UC_History--><g id="link_Member_UC_History"><path d="M76,1194.66 C76,1155.16 76,1100.5 76,1100.5 C76,1100.5 361.54,1100.5 522.4,1100.5 " fill="none" id="Member-to-UC_History" style="stroke:#7F77DD;stroke-width:1.0;"/><polygon fill="#7F77DD" points="528.4,1100.5,519.4,1096.5,523.4,1100.5,519.4,1104.5,528.4,1100.5" style="stroke:#7F77DD;stroke-width:1.0;"/></g><!--link Member to UC_Stats--><g id="link_Member_UC_Stats"><path d="M79.38,1208.5 C165.64,1208.5 377.51,1208.5 512.49,1208.5 " fill="none" id="Member-to-UC_Stats" style="stroke:#7F77DD;stroke-width:1.0;"/><polygon fill="#7F77DD" points="518.49,1208.5,509.49,1204.5,513.49,1208.5,509.49,1212.5,518.49,1208.5" style="stroke:#7F77DD;stroke-width:1.0;"/></g><!--link Member to UC_Trend--><g id="link_Member_UC_Trend"><path d="M79.38,1261.25 C177.81,1261.25 441.56,1261.25 564.04,1261.25 " fill="none" id="Member-to-UC_Trend" style="stroke:#7F77DD;stroke-width:1.0;"/><polygon fill="#7F77DD" points="570.04,1261.25,561.04,1257.25,565.04,1261.25,561.04,1265.25,570.04,1261.25" style="stroke:#7F77DD;stroke-width:1.0;"/></g><!--link Member to UC_Code--><g id="link_Member_UC_Code"><path d="M79.34,1265.5 C189.2,1265.5 507,1265.5 507,1265.5 C507,1265.5 507,1328.54 507,1358.21 " fill="none" id="Member-to-UC_Code" style="stroke:#7F77DD;stroke-width:1.0;"/><polygon fill="#7F77DD" points="507,1364.21,511,1355.21,507,1359.21,503,1355.21,507,1364.21" style="stroke:#7F77DD;stroke-width:1.0;"/></g><!--link Member to UC_ColleagueRegister--><g id="link_Member_UC_ColleagueRegister"><path d="M55,1274.07 C55,1344.09 55,1482.5 55,1482.5 C55,1482.5 341.84,1482.5 510.28,1482.5 " fill="none" id="Member-to-UC_ColleagueRegister" style="stroke:#7F77DD;stroke-width:1.0;"/><polygon fill="#7F77DD" points="516.28,1482.5,507.28,1478.5,511.28,1482.5,507.28,1486.5,516.28,1482.5" style="stroke:#7F77DD;stroke-width:1.0;"/></g><!--link Member to UC_AssessLink--><g id="link_Member_UC_AssessLink"><path d="M31,1274.04 C31,1368.12 31,1597.5 31,1597.5 C31,1597.5 314.34,1597.5 491.5,1597.5 " fill="none" id="Member-to-UC_AssessLink" style="stroke:#7F77DD;stroke-width:1.0;"/><polygon fill="#7F77DD" points="497.5,1597.5,488.5,1593.5,492.5,1597.5,488.5,1601.5,497.5,1597.5" style="stroke:#7F77DD;stroke-width:1.0;"/></g><!--link Member to UC_Compat--><g id="link_Member_UC_Compat"><path d="M79.04,1269.75 C185.68,1269.75 489,1269.75 489,1269.75 C489,1269.75 489,1628.94 489,1695.99 " fill="none" id="Member-to-UC_Compat" style="stroke:#7F77DD;stroke-width:1.0;"/><polygon fill="#7F77DD" points="489,1701.99,493,1692.99,489,1696.99,485,1692.99,489,1701.99" style="stroke:#7F77DD;stroke-width:1.0;"/><text fill="#534AB7" font-family="sans-serif" font-size="10" lengthAdjust="spacing" textLength="55" x="433" y="1293.49">&#53076;&#51064; 1&#44060; &#49548;&#47784;</text></g><!--link Member to UC_Notify--><g id="link_Member_UC_Notify"><path d="M79.22,1239.5 C258.48,1239.5 1033,1239.5 1033,1239.5 C1033,1239.5 1033,1582.45 1033,1684.68 " fill="none" id="Member-to-UC_Notify" style="stroke:#7F77DD;stroke-width:1.0;"/><polygon fill="#7F77DD" points="1033,1690.68,1037,1681.68,1033,1685.68,1029,1681.68,1033,1690.68" style="stroke:#7F77DD;stroke-width:1.0;"/></g><!--link Batch to UC_CleanBatch--><g id="link_Batch_UC_CleanBatch"><path d="M669.64,1847.5 C751.62,1847.5 939,1847.5 939,1847.5 C939,1847.5 939,955.97 939,824.5 " fill="none" id="Batch-to-UC_CleanBatch" style="stroke:#7F77DD;stroke-width:1.0;"/><polygon fill="#7F77DD" points="939,818.5,935,827.5,939,823.5,943,827.5,939,818.5" style="stroke:#7F77DD;stroke-width:1.0;"/><text fill="#534AB7" font-family="sans-serif" font-size="10" lengthAdjust="spacing" textLength="47" x="891" y="1480.28">&#51452;&#44592;&#51201; &#49892;&#54665;</text></g><!--link UC_Result to UC_Cache--><g id="link_UC_Result_UC_Cache"><path d="M414.27,857.25 C418.54,857.25 421,857.25 421,857.25 C421,857.25 421,614.75 421,614.75 C421,614.75 785.74,614.75 950.11,614.75 " fill="none" id="UC_Result-to-UC_Cache" style="stroke:#7F77DD;stroke-width:1.0;stroke-dasharray:7.0,7.0;"/><polygon fill="#7F77DD" points="956.11,614.75,947.11,610.75,951.11,614.75,947.11,618.75,956.11,614.75" style="stroke:#7F77DD;stroke-width:1.0;"/><text fill="#534AB7" font-family="sans-serif" font-size="10" lengthAdjust="spacing" textLength="45" x="517.94" y="627.35">&#171;include&#187;</text></g><!--link UC_Save to UC_Login--><g id="link_UC_Save_UC_Login"><path d="M412.51,679.25 C512.07,679.25 632,679.25 632,679.25 C632,679.25 632,844.99 632,903.36 " fill="none" id="UC_Save-to-UC_Login" style="stroke:#7F77DD;stroke-width:1.0;stroke-dasharray:7.0,7.0;"/><polygon fill="#7F77DD" points="632,909.36,636,900.36,632,904.36,628,900.36,632,909.36" style="stroke:#7F77DD;stroke-width:1.0;"/><text fill="#534AB7" font-family="sans-serif" font-size="10" lengthAdjust="spacing" textLength="45" x="586" y="697.16">&#171;include&#187;</text></g><!--link UC_Compat to UC_ChemistryCache--><g id="link_UC_Compat_UC_ChemistryCache"><path d="M779,1707.62 C779,1632.63 779,718.5 779,718.5 C779,718.5 811.37,718.5 858.28,718.5 " fill="none" id="UC_Compat-to-UC_ChemistryCache" style="stroke:#7F77DD;stroke-width:1.0;stroke-dasharray:7.0,7.0;"/><polygon fill="#7F77DD" points="864.28,718.5,855.28,714.5,859.28,718.5,855.28,722.5,864.28,718.5" style="stroke:#7F77DD;stroke-width:1.0;"/><text fill="#534AB7" font-family="sans-serif" font-size="10" lengthAdjust="spacing" textLength="45" x="780" y="1183.02">&#171;include&#187;</text></g><!--link UC_Compat to UC_Notify--><g id="link_UC_Compat_UC_Notify"><path d="M778.47,1718.5 C840.33,1718.5 903.61,1718.5 954.25,1718.5 " fill="none" id="UC_Compat-to-UC_Notify" style="stroke:#7F77DD;stroke-width:1.0;stroke-dasharray:7.0,7.0;"/><polygon fill="#7F77DD" points="960.25,1718.5,951.25,1714.5,955.25,1718.5,951.25,1722.5,960.25,1718.5" style="stroke:#7F77DD;stroke-width:1.0;"/><text fill="#534AB7" font-family="sans-serif" font-size="10" lengthAdjust="spacing" textLength="45" x="823.36" y="1731.1">&#171;include&#187;</text></g><!--link UC_Compat to GMN53--><g id="link_UC_Compat_GMN53"><path d="M777,1704.16 C777,1592.93 777,406.5 777,406.5 C777,406.5 839.51,406.5 902.75,406.5 " fill="none" id="UC_Compat-GMN53" style="stroke:#7F77DD;stroke-width:1.0;stroke-dasharray:7.0,7.0;"/></g><!--link UC_Code to GMN56--><g id="link_UC_Code_GMN56"><path d="M770.55,1377.5 C772.14,1377.5 773,1377.5 773,1377.5 C773,1377.5 773,120.5 773,120.5 C773,120.5 891.74,120.5 968.73,120.5 " fill="none" id="UC_Code-GMN56" style="stroke:#7F77DD;stroke-width:1.0;stroke-dasharray:7.0,7.0;"/></g><!--link UC_AssessLink to GMN59--><g id="link_UC_AssessLink_GMN59"><path d="M766.9,1597.5 C772.01,1597.5 775,1597.5 775,1597.5 C775,1597.5 775,230.5 775,230.5 C775,230.5 884.46,230.5 960.79,230.5 " fill="none" id="UC_AssessLink-GMN59" style="stroke:#7F77DD;stroke-width:1.0;stroke-dasharray:7.0,7.0;"/></g><!--link UC_Test to GMN62--><g id="link_UC_Test_GMN62"><path d="M244.75,741.25 C203.72,741.25 143,741.25 143,741.25 C143,741.25 143,526.07 143,440.75 " fill="none" id="UC_Test-GMN62" style="stroke:#7F77DD;stroke-width:1.0;stroke-dasharray:7.0,7.0;"/></g><!--link UC_Save to GMN65--><g id="link_UC_Save_GMN65"><path d="M373.05,649.75 C414.34,649.75 454,649.75 454,649.75 C454,649.75 454,325.75 454,325.75 C454,325.75 418.12,325.75 379.09,325.75 " fill="none" id="UC_Save-GMN65" style="stroke:#7F77DD;stroke-width:1.0;stroke-dasharray:7.0,7.0;"/></g><!--link UC_Stats to GMN68--><g id="link_UC_Stats_GMN68"><path d="M758,1181.76 C758,1064.82 758,32.5 758,32.5 C758,32.5 856.55,32.5 935.66,32.5 " fill="none" id="UC_Stats-GMN68" style="stroke:#7F77DD;stroke-width:1.0;stroke-dasharray:7.0,7.0;"/></g><!--SRC=[bLZTJnjN5d_tNt7bVIWeRGZVAMgoI_oH8W51jlEm4b9aO09Mp1ZPfXLTLR9XG0PSOROs668JHpLWkevs00DErtdf_YTzzBtpF-mvzywCFGCuMnA1vywvv_pEzpaEIw_Z91uXqT3yGfpCXQBIR3mKaHsnDo5vAHWDBfAPuEoR-MXaMPvpHSAHAFcBTnJ_ETf8WhDnUF4F1o7FRX7p7tmJYSv9KVrqs3iyx7R3gJSYn_MpVbV_mEElzJD_w0U9zFORJ_6Li4Hc8k4vnu_jSfTZqcmm9lqPoO3yQu_BAhblgAztq6MHt6VU2oo4Pj_8KYn6UXyEmkbeD1hvtgu6FspZEDW_CFfikFs5OFl8Ydy9C0Vdxy7lyNZSNeyTlydPZgxlizOS-8mrvKZyFbCEUll_FrEQyExLEHoIfVZAaaGYqVX2nE4GiUEa7nNjCCtUPfma62FFbwLOt7WbpaaN-rZ3__boDwUPa1PdfAXvNrNPnpnXMsNMIB2oGjzLETMpO7nsmU70i0xAyw2tSsB5DHKWRBi0jDfwmGag0rx35SxcvPMsSKMQTPLk7JlH3TuXhvVRXPW1vsnU9DXgbR3YBZ2QbhN3Tom5qai5BLSWR7-35TDS_4lNgm2gOhkiDYyRH3l8iM9zMdQF-Ls4NYjCAPBVRqXJpR5I1Z-nt2VyH7y-9qDD5VWg7zbwtk3hasBBOHjd-hxGlAa3LwAzLOWkXvKIxEXuMev1c41g-y5Ug2dO5BWZx3ys_Wcy2_H20Lg5RRmtHFY3tqbM0TfQWdFVsMIbdAa-FKrgIR16QPTj_CJPzGtGQbtBVU0FMhOXBh2Z36dU9838a30bIT7H6283EJzQ7A6x7H4TdhNyuNtaTNi7xFumOuEqJD1ZVCufxEsQ8N4yCX-IRKfb5Q3KSg2-KWQOeD3s9eMFHmftmrgHhejFoZcz59-ADVhlEZjDc8f48wz3OUbEHoDnwPYmzoheD2s35K0RmuOzn6hJvbKLOi5W-sqe1kvQiU7Tk6e234YPvbK6mAxcKK8wqGOH1B1o0dAcNHOzJHDskWjtkqqFnuFnc2s6BXFQGPQmwonmDK43bwQg86ihVFZJl2aHgkxeDyomZqhod8tppW7z1I3KKWYMVShIdmjeNS0CMgGJ43B0_05B_Gi3vJ7yeYTLL8fkbp4Q80pWOPWL6v0avsoxPCXoHUQaJg8G7MGHVLyqOnNId1K0Tpv3jx8cbjCan31ek0x-0aUbyhJu2Ki5ONkxL3tJzev9ivP0umlOBG3Xi1ISNvPyqZnu3CfIXwmniaLN_0lm7yUmLwDxPG9bXHwbWRof9jXXzgzV08vYGrTVsoXfITMq0ZWKjKGB5Hlqeg8ZDr29n1eFoM_kDauZ0J5Cw6MjULc2_0Sp5RIzJJ2HU4z_FGEBiVqCVvTEiBKaX5T9M-DbggqYJSlZmHzMY2iukn2Ivya3migxzF8A-9r1XY2nt-yXscuTBDcosE9Iq5QzG6cMEuUobwOdhVAe9Mlqv8Fmmiac_xFw0IgjmMao4W-zNhbLFim2J-XgZLudd7mY6FQuRvLojO3EqGlm-FW4ORzbk1WU-Zr6-NIZ8cDS6_m59Vj2qLPlU6LIywIh_uzaZJmXZtkxmMFv2ircwMa5ewhb9R0kUJdb7Wrux04CfhD5y2tlt8zC1uAdkJChdl_k4ntNq9U3GmZDxndtk0B4-y9dG05WFcak52DJopCz_kKPg_jCY0lI8eHsTEKEhBg6HbpfoSIzX0d7NnhrGaImU0bFLmYPGNxlRPgI89LaqRVHgU1MFWuGyjLNJys6QZtIUw7ra7Slwr5Rkt68-S72r7gaCxKUYlPXFJDgl_NKADtMKr5mRR9vgRIUyP9cFx8N6UlxjdItNyHS8_nd1Ds3yTxBytSZJN-jsCZrX79m5vYcQta5UVpIm0vJIkgkSpXCUn7oyE5JCwQ9-JD2llac9C-6b-UafqyTkdlmXKxE3Tk1t532u6u9ny-I2vtkuUxWaw_OW2Als_DHppTizLjbFijW5chvEhiky4UHGYrAxIYbRTMn11PAsc55Z5QYQa5IQWVvEqZr1Ed4lLK5O2J2DhcVuLF5YOBOj9sgbgleSnvIbzBq9wW-IL4q1HrR_GJTmG6HnWVzkvIsPpWl6LYpe2V16AQpWA4YLzAoKAEhE6eNQz01-3Xzj8j_kkrcwvfyEJxUpVKH3GRw-WYvLOPuHK6Yvvv9ZsyqC3Rv76S_C9bPzlzJfkgspKxcDPzdrFttTXfhJHEYMzX4zyLIrzKIA53Y1BQpZYXRp2sy105l0h0anTsHxw41Oc90auIqC6-n0uNNGt30HHbz3GC557tk5Uo8Iykn1NiyT0azZ03gxXH18d3C6-BHPcaO2QhiL47N_xamwXGeHk_-Mo0Qb6D1_er1CEpvJfBZurYPP2dQDUeDU7olN2yc9iO2tQpGW0aRRe26z0X2vGCF6k4iN5LWbeNkWNCbkyZZr8U49zNckOgWzR3cEXd6w7lKfnl4OclTj6BOC2-18Nw_CVqAaqs5xcPC7-X-GSEk9N4EXSQtdsbUeElQ9nAn726PAA7i-WoEHd3AHEJzlAAUGWZmE2lMKB6-WGLwce81bZpeXSnfcmkwloJige3ZALx46r1AqnMHixe0c81t3c0IojFhL6UFy04OJPLBZOZXKDHeVT0m7M0qvq89ndLwt10jk60i8P0JCEGYtNuDnb1z1kWasZ9atffKkrpVZlf8VnzM1H6V0fs3JmzpJmA-bnwXCOIfM1-PMg7R5QJdCot09gtjaMqN-NgZ9c0R11gnOU7uR5qoBnNyj6-icyWjfS0jdPMsbu8xE9oAQDToUVwGsuB5tQxjJ2GUZopgwkhRlFbrnGZXwxkvJ7EJmiHQR61btAjZsbiNRvvqHmfFOCZ7MWBjfc_VIXtp0d8HmXR2Y7HXdNrNfTapxecz6hUZPSctI1Pyq6GYLb6l_MghCnYRevfd-IHVYopV4R1YmieTiEBIg9kxartqhmfigXRpjyq3L5Cl_07I4-NpGeoqu9gMG4-9gRQfGcwlgjWHKLiemxEluk2361cRz7jyWKwXQIotOe7lqLTZiICHuJxKJkpHhPZ2jYLeq4TEN9mlQ_erC2XKKFqAFjHL9uHD2dOC5DI-6dT5Wp2ZlSBlkfv0j_Ds6y5gRk4jxFy3]--></g></svg>