<?xml version="1.0" encoding="us-ascii" standalone="no"?><svg xmlns="http://www.w3.org/2000/svg" xmlns:xlink="http://www.w3.org/1999/xlink" contentStyleType="text/css" height="1581px" preserveAspectRatio="none" style="width:918px;height:1581px;background:#FAFAFA;" version="1.1" viewBox="0 0 918 1581" width="918px" zoomAndPan="magnify"><defs/><g><rect fill="#FAFAFA" height="1581" style="stroke:none;stroke-width:1.0;" width="918" x="0" y="0"/><!--cluster MyCPT ???--><g id="cluster_MyCPT &#49884;&#49828;&#53596;"><rect fill="#EEEDFE" height="937" rx="2.5" ry="2.5" style="stroke:#534AB7;stroke-width:1.0;" width="813" x="99" y="310"/><text fill="#000000" font-family="sans-serif" font-size="14" font-weight="bold" lengthAdjust="spacing" textLength="89" x="461" y="328.2399">MyCPT &#49884;&#49828;&#53596;</text></g><!--cluster ?? ??--><g id="cluster_&#44277;&#53685; &#44592;&#45733;"><path d="M125.5,612 L181.5,612 A3.75,3.75 0 0 1 184,614.5 L191,638.2719 L348.5,638.2719 A2.5,2.5 0 0 1 351,640.7719 L351,880.5 A2.5,2.5 0 0 1 348.5,883 L125.5,883 A2.5,2.5 0 0 1 123,880.5 L123,614.5 A2.5,2.5 0 0 1 125.5,612 " fill="#EEF6FF" style="stroke:#534AB7;stroke-width:2.0;"/><line style="stroke:#534AB7;stroke-width:2.0;" x1="123" x2="191" y1="638.2719" y2="638.2719"/><text fill="#3C3489" font-family="sans-serif" font-size="14" font-weight="bold" lengthAdjust="spacing" textLength="55" x="127" y="630.2399">&#44277;&#53685; &#44592;&#45733;</text></g><!--cluster ?? ?? ??--><g id="cluster_&#54924;&#50896; &#51204;&#50857; &#44592;&#45733;"><path d="M385.5,701 L470.5,701 A3.75,3.75 0 0 1 473,703.5 L480,727.2719 L885.5,727.2719 A2.5,2.5 0 0 1 888,729.7719 L888,1220.5 A2.5,2.5 0 0 1 885.5,1223 L385.5,1223 A2.5,2.5 0 0 1 383,1220.5 L383,703.5 A2.5,2.5 0 0 1 385.5,701 " fill="#F0FDF4" style="stroke:#534AB7;stroke-width:2.0;"/><line style="stroke:#534AB7;stroke-width:2.0;" x1="383" x2="480" y1="727.2719" y2="727.2719"/><text fill="#3C3489" font-family="sans-serif" font-size="14" font-weight="bold" lengthAdjust="spacing" textLength="84" x="387" y="719.2399">&#54924;&#50896; &#51204;&#50857; &#44592;&#45733;</text></g><!--cluster ??? ??--><g id="cluster_&#49884;&#49828;&#53596; &#45236;&#48512;"><path d="M381.5,357 L450.5,357 A3.75,3.75 0 0 1 453,359.5 L460,383.2719 L675.5,383.2719 A2.5,2.5 0 0 1 678,385.7719 L678,674.5 A2.5,2.5 0 0 1 675.5,677 L381.5,677 A2.5,2.5 0 0 1 379,674.5 L379,359.5 A2.5,2.5 0 0 1 381.5,357 " fill="#FFF7ED" style="stroke:#534AB7;stroke-width:2.0;"/><line style="stroke:#534AB7;stroke-width:2.0;" x1="379" x2="460" y1="383.2719" y2="383.2719"/><text fill="#3C3489" font-family="sans-serif" font-size="14" font-weight="bold" lengthAdjust="spacing" textLength="68" x="383" y="375.2399">&#49884;&#49828;&#53596; &#45236;&#48512;</text></g><g id="elem_UC_Test"><ellipse cx="236.897" cy="839.0735" fill="#FFFFFF" rx="62.397" ry="27.5735" style="stroke:#AFA9EC;stroke-width:1.5;"/><text fill="#26215C" font-family="sans-serif" font-size="12" lengthAdjust="spacing" textLength="47" x="213.397" y="833.6175">&#44160;&#49324; &#51025;&#49884;</text><text fill="#26215C" font-family="sans-serif" font-size="12" lengthAdjust="spacing" textLength="72" x="200.897" y="850.9936">&#54943;&#49688; &#51228;&#54620; &#50630;&#51020;</text></g><g id="elem_UC_Result"><ellipse cx="236.7523" cy="679.0735" fill="#FFFFFF" rx="97.7523" ry="27.5735" style="stroke:#AFA9EC;stroke-width:1.5;"/><text fill="#26215C" font-family="sans-serif" font-size="12" lengthAdjust="spacing" textLength="47" x="213.2523" y="673.6175">&#44208;&#44284; &#54869;&#51064;</text><text fill="#26215C" font-family="sans-serif" font-size="12" lengthAdjust="spacing" textLength="122" x="175.7523" y="690.9936">DISC &#48516;&#49437; &#183; &#44053;&#51216; &#183; &#50557;&#51216;</text></g><g id="elem_UC_Save"><ellipse cx="237.1263" cy="759.1253" fill="#FFFFFF" rx="73.6263" ry="17.1253" style="stroke:#AFA9EC;stroke-width:1.5;"/><text fill="#26215C" font-family="sans-serif" font-size="12" lengthAdjust="spacing" textLength="97" x="185.6263" y="763.3353">&#47196;&#44536;&#51064; &#54980; &#44208;&#44284; &#51200;&#51109;</text></g><g id="elem_UC_Login"><ellipse cx="528.4989" cy="759.1998" fill="#FFFFFF" rx="83.9989" ry="19.1998" style="stroke:#AFA9EC;stroke-width:1.5;"/><text fill="#26215C" font-family="sans-serif" font-size="12" lengthAdjust="spacing" textLength="124" x="463.4989" y="763.4098">&#52852;&#52852;&#50724; &#47196;&#44536;&#51064; / &#47196;&#44536;&#50500;&#50883;</text></g><g id="elem_UC_History"><ellipse cx="528.3646" cy="1191.0904" fill="#FFFFFF" rx="63.8646" ry="15.5904" style="stroke:#AFA9EC;stroke-width:1.5;"/><text fill="#26215C" font-family="sans-serif" font-size="12" lengthAdjust="spacing" textLength="72" x="489.3646" y="1195.3004">&#44208;&#44284; &#51060;&#47141; &#51312;&#54924;</text></g><g id="elem_UC_Stats"><ellipse cx="528.7462" cy="841.0735" fill="#FFFFFF" rx="77.2462" ry="27.5735" style="stroke:#AFA9EC;stroke-width:1.5;"/><text fill="#26215C" font-family="sans-serif" font-size="12" lengthAdjust="spacing" textLength="72" x="492.7462" y="835.6175">&#53440;&#51064; &#53685;&#44228; &#48708;&#44368;</text><text fill="#26215C" font-family="sans-serif" font-size="12" lengthAdjust="spacing" textLength="93" x="482.2462" y="852.9936">&#45208;&#51060;&#45824; &#183; &#49457;&#48324; &#44592;&#51456;</text></g><g id="elem_UC_Code"><ellipse cx="528.6518" cy="931.0735" fill="#FFFFFF" rx="107.6518" ry="27.5735" style="stroke:#AFA9EC;stroke-width:1.5;"/><text fill="#26215C" font-family="sans-serif" font-size="12" lengthAdjust="spacing" textLength="97" x="480.1518" y="925.6175">&#46041;&#47308; &#52488;&#45824; &#53076;&#46300; &#49373;&#49457;</text><text fill="#26215C" font-family="sans-serif" font-size="12" lengthAdjust="spacing" textLength="136" x="460.6518" y="942.9936">&#45796;&#54924;&#50857; &#183; 7&#51068;&#47560;&#45796; &#51088;&#46041; &#44081;&#49888;</text></g><g id="elem_UC_ColleagueRegister"><ellipse cx="528.5395" cy="1021.8079" fill="#FFFFFF" rx="129.5395" ry="28.3079" style="stroke:#AFA9EC;stroke-width:1.5;"/><text fill="#26215C" font-family="sans-serif" font-size="12" lengthAdjust="spacing" textLength="86" x="485.5395" y="1016.3519">&#46041;&#47308; &#52488;&#45824; &#48143; &#46321;&#47197;</text><text fill="#26215C" font-family="sans-serif" font-size="12" lengthAdjust="spacing" textLength="172" x="442.5395" y="1033.728">&#52488;&#45824; &#47553;&#53356; &#49688;&#46973; &#49884; &#50577;&#48169;&#54693; &#44288;&#44228; &#49373;&#49457;</text></g><g id="elem_UC_Compat"><ellipse cx="528.631" cy="1113.0735" fill="#FFFFFF" rx="95.631" ry="27.5735" style="stroke:#AFA9EC;stroke-width:1.5;"/><text fill="#26215C" font-family="sans-serif" font-size="12" lengthAdjust="spacing" textLength="108" x="474.631" y="1107.6175">&#46041;&#47308; &#52992;&#48120; &#48372;&#44256;&#49436; &#48156;&#54665;</text><text fill="#26215C" font-family="sans-serif" font-size="12" lengthAdjust="spacing" textLength="119" x="469.131" y="1124.9936">&#46041;&#47308; &#47785;&#47197;&#50640;&#49436; &#45824;&#49345; &#49440;&#53469;</text></g><g id="elem_UC_Notify"><ellipse cx="809.397" cy="1146.0735" fill="#FFFFFF" rx="62.397" ry="27.5735" style="stroke:#AFA9EC;stroke-width:1.5;"/><text fill="#26215C" font-family="sans-serif" font-size="12" lengthAdjust="spacing" textLength="72" x="773.397" y="1140.6175">&#51064;&#50545; &#50508;&#47548; &#54869;&#51064;</text><text fill="#26215C" font-family="sans-serif" font-size="12" lengthAdjust="spacing" textLength="47" x="785.897" y="1157.9936">&#51069;&#51020; &#52376;&#47532;</text></g><g id="elem_UC_Cache"><ellipse cx="528.5928" cy="425.1186" fill="#FFFFFF" rx="133.5928" ry="29.1186" style="stroke:#AFA9EC;stroke-width:1.5;"/><text fill="#26215C" font-family="sans-serif" font-size="12" lengthAdjust="spacing" textLength="107" x="475.0928" y="419.6625">LLM &#52880;&#49884; &#51312;&#54924; / &#51200;&#51109;</text><text fill="#26215C" font-family="sans-serif" font-size="12" lengthAdjust="spacing" textLength="183" x="437.0928" y="437.0387">D &#183; I &#183; S &#183; C &#48260;&#53431; &#44592;&#48152; (9&#8308; = 6,561)</text></g><g id="elem_UC_Clear"><ellipse cx="528.4016" cy="505.0112" fill="#FFFFFF" rx="53.4016" ry="15.5112" style="stroke:#AFA9EC;stroke-width:1.5;"/><text fill="#26215C" font-family="sans-serif" font-size="12" lengthAdjust="spacing" textLength="58" x="496.4016" y="509.2212">&#52880;&#49884; &#52488;&#44592;&#54868;</text></g><g id="elem_UC_PeerCodeClean"><ellipse cx="528.6263" cy="573.1253" fill="#FFFFFF" rx="73.6263" ry="17.1253" style="stroke:#AFA9EC;stroke-width:1.5;"/><text fill="#26215C" font-family="sans-serif" font-size="12" lengthAdjust="spacing" textLength="97" x="477.1263" y="577.3353">&#47564;&#47308; &#46041;&#47308; &#53076;&#46300; &#49325;&#51228;</text></g><g id="elem_UC_NotifyClean"><ellipse cx="528.7317" cy="642.9463" fill="#FFFFFF" rx="77.7317" ry="17.9463" style="stroke:#AFA9EC;stroke-width:1.5;"/><text fill="#26215C" font-family="sans-serif" font-size="12" lengthAdjust="spacing" textLength="108" x="471.7317" y="647.1564">&#50724;&#47000;&#46108; &#51069;&#51020; &#50508;&#47548; &#49325;&#51228;</text></g><!--entity Guest--><g id="elem_Guest"><ellipse cx="42.5" cy="728" fill="#FFFFFF" rx="8" ry="8" style="stroke:#7F77DD;stroke-width:0.5;"/><path d="M42.5,736 L42.5,763 M29.5,744 L55.5,744 M42.5,763 L29.5,778 M42.5,763 L55.5,778 " fill="none" style="stroke:#7F77DD;stroke-width:0.5;"/><text fill="#3C3489" font-family="sans-serif" font-size="13" font-weight="bold" lengthAdjust="spacing" textLength="36" x="24.5" y="794.58">&#48708;&#54924;&#50896;</text></g><!--entity Member--><g id="elem_Member"><ellipse cx="42.5" cy="1506" fill="#FFFFFF" rx="8" ry="8" style="stroke:#7F77DD;stroke-width:0.5;"/><path d="M42.5,1514 L42.5,1541 M29.5,1522 L55.5,1522 M42.5,1541 L29.5,1556 M42.5,1541 L55.5,1556 " fill="none" style="stroke:#7F77DD;stroke-width:0.5;"/><text fill="#3C3489" font-family="sans-serif" font-size="13" font-weight="bold" lengthAdjust="spacing" textLength="73" x="6" y="1572.58">&#54924;&#50896; (&#52852;&#52852;&#50724;)</text></g><!--entity Batch--><g id="elem_Batch"><ellipse cx="237" cy="1271" fill="#FFFFFF" rx="8" ry="8" style="stroke:#7F77DD;stroke-width:0.5;"/><path d="M237,1279 L237,1306 M224,1287 L250,1287 M237,1306 L224,1321 M237,1306 L250,1321 " fill="none" style="stroke:#7F77DD;stroke-width:0.5;"/><text fill="#3C3489" font-family="sans-serif" font-size="13" font-weight="bold" lengthAdjust="spacing" textLength="75" x="199.5" y="1337.58">&#48176;&#52824; &#49828;&#52992;&#51460;&#47084;</text></g><g id="elem_GMN41"><path d="M722,6 L722,88.3999 L897,88.3999 L897,16 L887,6 L722,6 " fill="#F5F3FF" style="stroke:#AFA9EC;stroke-width:0.5;"/><path d="M887,6 L887,16 L897,16 L887,6 " fill="#F5F3FF" style="stroke:#AFA9EC;stroke-width:1.0;"/><text fill="#534AB7" font-family="sans-serif" font-size="10" lengthAdjust="spacing" textLength="124" x="728" y="22.6">&#52880;&#49884; &#48120;&#49828; &#49884;&#50640;&#47564; LLM API &#54840;&#52636;</text><text fill="#534AB7" font-family="sans-serif" font-size="10" lengthAdjust="spacing" textLength="123" x="728" y="37.08">&#52880;&#49884; &#55176;&#53944; &#49884; DB&#50640;&#49436; &#51593;&#49884; &#48152;&#54872;</text><text fill="#534AB7" font-family="sans-serif" font-size="10" lengthAdjust="spacing" textLength="154" x="728" y="51.56">&#8594; &#52572;&#45824; 6,561&#54924; API &#54840;&#52636;&#47196; &#51204;&#52404; &#52964;&#48260;</text><text fill="#534AB7" font-family="sans-serif" font-size="10" lengthAdjust="spacing" textLength="125" x="728" y="66.0399">&#48372;&#44256;&#49436; &#50896;&#47928;&#50640; &#51060;&#47492; &#48120;&#54252;&#54632; &#51200;&#51109;</text><text fill="#534AB7" font-family="sans-serif" font-size="10" lengthAdjust="spacing" textLength="78" x="728" y="80.5199">&#47116;&#45908;&#47553; &#49884; &#51060;&#47492; &#49341;&#51077;</text></g><g id="elem_GMN44"><path d="M734,212 L734,294.3999 L885,294.3999 L885,222 L875,212 L734,212 " fill="#F5F3FF" style="stroke:#AFA9EC;stroke-width:0.5;"/><path d="M875,212 L875,222 L885,222 L875,212 " fill="#F5F3FF" style="stroke:#AFA9EC;stroke-width:1.0;"/><text fill="#534AB7" font-family="sans-serif" font-size="10" lengthAdjust="spacing" textLength="127" x="740" y="228.6">&#52880;&#49905; &#50630;&#51060; &#47588;&#48264; &#49892;&#49884;&#44036; LLM &#54840;&#52636;</text><text fill="#534AB7" font-family="sans-serif" font-size="10" lengthAdjust="spacing" textLength="111" x="740" y="243.08">&#48156;&#54665; &#49884;&#51216; DISC &#49828;&#45253;&#49399; &#51200;&#51109;</text><text fill="#534AB7" font-family="sans-serif" font-size="10" lengthAdjust="spacing" textLength="125" x="740" y="257.56">&#48372;&#44256;&#49436; &#50896;&#47928;&#50640; &#51060;&#47492; &#48120;&#54252;&#54632; &#51200;&#51109;</text><text fill="#534AB7" font-family="sans-serif" font-size="10" lengthAdjust="spacing" textLength="98" x="740" y="272.0399">&#53076;&#51064; &#52649;&#51204;: &#52488;&#44592; 3&#44060; &#51648;&#44553;</text><text fill="#534AB7" font-family="sans-serif" font-size="10" lengthAdjust="spacing" textLength="130" x="740" y="286.5199">&#51060;&#54980; 24h&#47560;&#45796; +1, &#52572;&#45824; 3&#44060; &#48372;&#50976;</text></g><g id="elem_GMN47"><path d="M745.5,123.5 L745.5,176.94 L873.5,176.94 L873.5,133.5 L863.5,123.5 L745.5,123.5 " fill="#F5F3FF" style="stroke:#AFA9EC;stroke-width:0.5;"/><path d="M863.5,123.5 L863.5,133.5 L873.5,133.5 L863.5,123.5 " fill="#F5F3FF" style="stroke:#AFA9EC;stroke-width:1.0;"/><text fill="#534AB7" font-family="sans-serif" font-size="10" lengthAdjust="spacing" textLength="96" x="751.5" y="140.1">&#48372;&#50504;: 7&#51068; &#51452;&#44592; &#44081;&#49888;&#51004;&#47196;</text><text fill="#534AB7" font-family="sans-serif" font-size="10" lengthAdjust="spacing" textLength="107" x="751.5" y="154.58">&#53076;&#46300; &#50976;&#52628;&#47484; &#53685;&#54620; &#53440;&#51064; &#49457;&#54693;</text><text fill="#534AB7" font-family="sans-serif" font-size="10" lengthAdjust="spacing" textLength="38" x="751.5" y="169.06">&#50676;&#46988; &#48169;&#51648;</text></g><g id="elem_GMN50"><path d="M140,240.5 L140,293.94 L334,293.94 L334,250.5 L324,240.5 L140,240.5 " fill="#F5F3FF" style="stroke:#AFA9EC;stroke-width:0.5;"/><path d="M324,240.5 L324,250.5 L334,250.5 L324,240.5 " fill="#F5F3FF" style="stroke:#AFA9EC;stroke-width:1.0;"/><text fill="#534AB7" font-family="sans-serif" font-size="10" lengthAdjust="spacing" textLength="159" x="146" y="257.1">&#44160;&#49324; &#50756;&#47308; &#54980; &#45208;&#51060;(&#52636;&#49373;&#50672;&#46020;) &#183; &#49457;&#48324; &#51077;&#47141;</text><text fill="#534AB7" font-family="sans-serif" font-size="10" lengthAdjust="spacing" textLength="173" x="146" y="271.58">&#48708;&#54924;&#50896;: D/I/S/C &#48260;&#53431;&#44050;&#51012; &#49464;&#49496;&#50640; &#51076;&#49884; &#51200;&#51109;</text><text fill="#534AB7" font-family="sans-serif" font-size="10" lengthAdjust="spacing" textLength="134" x="146" y="286.06">&#47196;&#44536;&#51064; &#54980; DB&#50640; &#51200;&#51109; &#48143; &#53685;&#44228; &#48152;&#50689;</text></g><!--link Member to UC_Test--><g id="link_Member_UC_Test"><path d="M65,1497.25 C65,1351.22 65,852.75 65,852.75 C65,852.75 126.19,852.75 176.58,852.75 " fill="none" id="Member-to-UC_Test" style="stroke:#7F77DD;stroke-width:1.0;"/><polygon fill="#7F77DD" points="182.58,852.75,173.58,848.75,177.58,852.75,173.58,856.75,182.58,852.75" style="stroke:#7F77DD;stroke-width:1.0;"/></g><!--link Member to UC_Result--><g id="link_Member_UC_Result"><path d="M63,1497.34 C63,1328.6 63,679 63,679 C63,679 93.34,679 132.81,679 " fill="none" id="Member-to-UC_Result" style="stroke:#7F77DD;stroke-width:1.0;"/><polygon fill="#7F77DD" points="138.81,679,129.81,675,133.81,679,129.81,683,138.81,679" style="stroke:#7F77DD;stroke-width:1.0;"/></g><!--link Member to UC_Login--><g id="link_Member_UC_Login"><path d="M67,1497.26 C67,1355.92 67,886 67,886 C67,886 448,886 448,886 C448,886 448,794.77 448,770.46 " fill="none" id="Member-to-UC_Login" style="stroke:#7F77DD;stroke-width:1.0;"/><polygon fill="#7F77DD" points="448,764.46,444,773.46,448,769.46,452,773.46,448,764.46" style="stroke:#7F77DD;stroke-width:1.0;"/></g><!--link Member to UC_History--><g id="link_Member_UC_History"><path d="M77,1497.31 C77,1406.43 77,1191 77,1191 C77,1191 333.64,1191 458.29,1191 " fill="none" id="Member-to-UC_History" style="stroke:#7F77DD;stroke-width:1.0;"/><polygon fill="#7F77DD" points="464.29,1191,455.29,1187,459.29,1191,455.29,1195,464.29,1191" style="stroke:#7F77DD;stroke-width:1.0;"/></g><!--link Member to UC_Stats--><g id="link_Member_UC_Stats"><path d="M79.17,1537 C155.2,1537 323,1537 323,1537 C323,1537 323,840 323,840 C323,840 387.08,840 445.39,840 " fill="none" id="Member-to-UC_Stats" style="stroke:#7F77DD;stroke-width:1.0;"/><polygon fill="#7F77DD" points="451.39,840,442.39,836,446.39,840,442.39,844,451.39,840" style="stroke:#7F77DD;stroke-width:1.0;"/></g><!--link Member to UC_Code--><g id="link_Member_UC_Code"><path d="M69,1497.24 C69,1362.42 69,931 69,931 C69,931 278.95,931 414.77,931 " fill="none" id="Member-to-UC_Code" style="stroke:#7F77DD;stroke-width:1.0;"/><polygon fill="#7F77DD" points="420.77,931,411.77,927,415.77,931,411.77,935,420.77,931" style="stroke:#7F77DD;stroke-width:1.0;"/></g><!--link Member to UC_ColleagueRegister--><g id="link_Member_UC_ColleagueRegister"><path d="M71,1497.44 C71,1376.85 71,1022 71,1022 C71,1022 257.66,1022 392.93,1022 " fill="none" id="Member-to-UC_ColleagueRegister" style="stroke:#7F77DD;stroke-width:1.0;"/><polygon fill="#7F77DD" points="398.93,1022,389.93,1018,393.93,1022,389.93,1026,398.93,1022" style="stroke:#7F77DD;stroke-width:1.0;"/></g><!--link Member to UC_Compat--><g id="link_Member_UC_Compat"><path d="M73,1497.49 C73,1392.23 73,1113 73,1113 C73,1113 293.13,1113 426.73,1113 " fill="none" id="Member-to-UC_Compat" style="stroke:#7F77DD;stroke-width:1.0;"/><polygon fill="#7F77DD" points="432.73,1113,423.73,1109,427.73,1113,423.73,1117,432.73,1113" style="stroke:#7F77DD;stroke-width:1.0;"/><text fill="#534AB7" font-family="sans-serif" font-size="10" lengthAdjust="spacing" textLength="55" x="17" y="1137.98">&#53076;&#51064; 1&#44060; &#49548;&#47784;</text></g><!--link Member to UC_Notify--><g id="link_Member_UC_Notify"><path d="M75,1497.41 C75,1400.08 75,1157 75,1157 C75,1157 573.31,1157 746.17,1157 " fill="none" id="Member-to-UC_Notify" style="stroke:#7F77DD;stroke-width:1.0;"/><polygon fill="#7F77DD" points="752.17,1157,743.17,1153,747.17,1157,743.17,1161,752.17,1157" style="stroke:#7F77DD;stroke-width:1.0;"/></g><!--link Guest to UC_Test--><g id="link_Guest_UC_Test"><path d="M43,798.53 C43,818.69 43,839 43,839 C43,839 111.6,839 168.28,839 " fill="none" id="Guest-to-UC_Test" style="stroke:#7F77DD;stroke-width:1.0;"/><polygon fill="#7F77DD" points="174.28,839,165.28,835,169.28,839,165.28,843,174.28,839" style="stroke:#7F77DD;stroke-width:1.0;"/></g><!--link Guest to UC_Result--><g id="link_Guest_UC_Result"><path d="M60.58,729.75 C91.68,729.75 152,729.75 152,729.75 C152,729.75 152,713.89 152,698.87 " fill="none" id="Guest-to-UC_Result" style="stroke:#7F77DD;stroke-width:1.0;"/><polygon fill="#7F77DD" points="152,692.87,148,701.87,152,697.87,156,701.87,152,692.87" style="stroke:#7F77DD;stroke-width:1.0;"/></g><!--link Guest to UC_Save--><g id="link_Guest_UC_Save"><path d="M60.8,759 C84.25,759 120.32,759 157.48,759 " fill="none" id="Guest-to-UC_Save" style="stroke:#7F77DD;stroke-width:1.0;"/><polygon fill="#7F77DD" points="163.48,759,154.48,755,158.48,759,154.48,763,163.48,759" style="stroke:#7F77DD;stroke-width:1.0;"/></g><!--link Batch to UC_Clear--><g id="link_Batch_UC_Clear"><path d="M274.63,1282.25 C307.5,1282.25 350,1282.25 350,1282.25 C350,1282.25 350,505 350,505 C350,505 416.37,505 468.94,505 " fill="none" id="Batch-to-UC_Clear" style="stroke:#7F77DD;stroke-width:1.0;"/><polygon fill="#7F77DD" points="474.94,505,465.94,501,469.94,505,465.94,509,474.94,505" style="stroke:#7F77DD;stroke-width:1.0;"/><text fill="#534AB7" font-family="sans-serif" font-size="10" lengthAdjust="spacing" textLength="51" x="298" y="881.44">1 ~ 2&#45804; &#51452;&#44592;</text></g><!--link Batch to UC_PeerCodeClean--><g id="link_Batch_UC_PeerCodeClean"><path d="M274.71,1302 C312.47,1302 365,1302 365,1302 C365,1302 365,573 365,573 C365,573 405.48,573 448.88,573 " fill="none" id="Batch-to-UC_PeerCodeClean" style="stroke:#7F77DD;stroke-width:1.0;"/><polygon fill="#7F77DD" points="454.88,573,445.88,569,449.88,573,445.88,577,454.88,573" style="stroke:#7F77DD;stroke-width:1.0;"/><text fill="#534AB7" font-family="sans-serif" font-size="10" lengthAdjust="spacing" textLength="47" x="317" y="950.3">&#51452;&#44592;&#51201; &#49892;&#54665;</text></g><!--link Batch to UC_NotifyClean--><g id="link_Batch_UC_NotifyClean"><path d="M274.57,1321.75 C316.94,1321.75 380,1321.75 380,1321.75 C380,1321.75 380,657.83 380,657.83 C380,657.83 434.57,657.83 478.35,657.83 " fill="none" id="Batch-to-UC_NotifyClean" style="stroke:#7F77DD;stroke-width:1.0;"/><polygon fill="#7F77DD" points="484.35,657.83,475.35,653.83,479.35,657.83,475.35,661.83,484.35,657.83" style="stroke:#7F77DD;stroke-width:1.0;"/><text fill="#534AB7" font-family="sans-serif" font-size="10" lengthAdjust="spacing" textLength="47" x="332" y="1002.93">&#51452;&#44592;&#51201; &#49892;&#54665;</text></g><!--link UC_Result to UC_Cache--><g id="link_UC_Result_UC_Cache"><path d="M282.91,654.67 C334.16,654.67 410,654.67 410,654.67 C410,654.67 410,494.12 410,444.68 " fill="none" id="UC_Result-to-UC_Cache" style="stroke:#7F77DD;stroke-width:1.0;stroke-dasharray:7.0,7.0;"/><polygon fill="#7F77DD" points="410,438.68,406,447.68,410,443.68,414,447.68,410,438.68" style="stroke:#7F77DD;stroke-width:1.0;"/><text fill="#534AB7" font-family="sans-serif" font-size="10" lengthAdjust="spacing" textLength="45" x="364" y="622.82">&#171;include&#187;</text></g><!--link UC_Save to UC_Login--><g id="link_UC_Save_UC_Login"><path d="M310.56,759 C351.29,759 396.08,759 438.39,759 " fill="none" id="UC_Save-to-UC_Login" style="stroke:#7F77DD;stroke-width:1.0;stroke-dasharray:7.0,7.0;"/><polygon fill="#7F77DD" points="444.39,759,435.39,755,439.39,759,435.39,763,444.39,759" style="stroke:#7F77DD;stroke-width:1.0;"/><text fill="#534AB7" font-family="sans-serif" font-size="10" lengthAdjust="spacing" textLength="45" x="331.47" y="771.6">&#171;include&#187;</text></g><!--link UC_Compat to UC_Notify--><g id="link_UC_Compat_UC_Notify"><path d="M604.91,1129.5 C653.99,1129.5 710.35,1129.5 753.25,1129.5 " fill="none" id="UC_Compat-to-UC_Notify" style="stroke:#7F77DD;stroke-width:1.0;stroke-dasharray:7.0,7.0;"/><polygon fill="#7F77DD" points="759.25,1129.5,750.25,1125.5,754.25,1129.5,750.25,1133.5,759.25,1129.5" style="stroke:#7F77DD;stroke-width:1.0;"/><text fill="#534AB7" font-family="sans-serif" font-size="10" lengthAdjust="spacing" textLength="45" x="636.08" y="1142.1">&#171;include&#187;</text></g><!--link UC_Cache to GMN41--><g id="link_UC_Cache_GMN41"><path d="M662.12,425 C698.47,425 728,425 728,425 C728,425 728,186.14 728,88.17 " fill="none" id="UC_Cache-GMN41" style="stroke:#7F77DD;stroke-width:1.0;stroke-dasharray:7.0,7.0;"/></g><!--link UC_Compat to GMN44--><g id="link_UC_Compat_GMN44"><path d="M616.16,1102 C674.69,1102 741,1102 741,1102 C741,1102 741,464.26 741,294.24 " fill="none" id="UC_Compat-GMN44" style="stroke:#7F77DD;stroke-width:1.0;stroke-dasharray:7.0,7.0;"/></g><!--link UC_Code to GMN47--><g id="link_UC_Code_GMN47"><path d="M636.19,931 C666.8,931 692,931 692,931 C692,931 692,150 692,150 C692,150 717.82,150 745.25,150 " fill="none" id="UC_Code-GMN47" style="stroke:#7F77DD;stroke-width:1.0;stroke-dasharray:7.0,7.0;"/></g><!--link UC_Test to GMN50--><g id="link_UC_Test_GMN50"><path d="M182.72,825.25 C147.83,825.25 109,825.25 109,825.25 C109,825.25 109,267 109,267 C109,267 122.13,267 139.99,267 " fill="none" id="UC_Test-GMN50" style="stroke:#7F77DD;stroke-width:1.0;stroke-dasharray:7.0,7.0;"/></g><!--SRC=[bLPRJnjN47xVNp5oNn8r2J7N1gL8OECMAQcYaBuXLOkzCLRCBhANLhHAPV22J725as0mYUqu2fSGKNK10qvhNlfJyhZdx7_edBDdrzxDhG5acJbpvlBDDpCdhTpNGTSWaqhEw918PPIudj9KAViWfSx96NaMfkNuWsH6crSJ4IsjPU2hs2ZxbRfKvBYE1xz906FlAVCVTg9b4af6I8TYGqFHA4fZcgeBML-ah_-R6q8scVfLWN2V-v- -a5PWMaidf8VTVkUpIbpEAb_Y6IE_CHxnU-uTx0qFH7oUUxrxzsPIyGUgair2-De0IaSp6UsNO1fSs6LneAz_T6oe-y0nUzqV_np6B2S_4l_u-7WqDXwCtxCSZAxtisZsVmPDLTC_1kL0hE__GUc5zz6SqobLqHVc5D0o-emcIGvtGkIjOJyhqkUb4CXP-6vUoUhkaIE7I_Hja_rLTYvpdTlAxBIIyUwR9drR0VfeXxPpTCSWBmwvrfYinsSaYT5QLfEOT-ZsGkJEFQ1hLTIrbwiXJ1dZTKiHiavExPLJi5ecURGROcM83SPY71Vm21UoZdDqwH1exJ4QcbBjPoze0RqtgdQv2dHhXTQAtFsFaP_kiLG2bqthf0tsTfdMMbDgT68o0kJCe4OD_Zq7oopJHebze-KB_ERQkQjavzC1I-HbrJfleHMmdniWxD96ZjPttMkJyiyANdheIr90IXi6VNRGoJLsFHQDzGTpzN27ZhiUztlPeC_phgzRMZAbVZ1NMckInYxGboQwTjM_JsMnTWl-2tO-n_DPERLE341QMAUbAPKiLPY9OexZOXmHFCEmwKxEorENzMm0dVLjyge8j5bW5-d51dcAnSdNy3vQNDjXA63wQ768rjfalu0oeFKItiCg7D6rXciyeYMKJzacvZgGfqVaPMrATKNxY_OYCgHG8RKBHZUWcu-9UM1lxeBLpB7ad50wFj9fHKxEAtUL90A3rFwWmtQE_DK2SjAqJXhKgABhghsvYlauv-JD0KP1jqhyh9YZ-KN4gs7dQnq_itDoW4U8E2qV8U6APAz3J5gxG1u3FQwGlKFt-W-Qdhg_y1wZl7u2ijGaPxaG7y13uz4WcsxTkWtqxn87XBC1kUGm5Zk1rMA2VKoo3-oAOyDUEkS4DIjmwSQxnIPy2uDN1WR3bxryvFXCe3Yk_MO1RzhR6vug0Xo4TR_8OHFe2eui_OcjxDwwex2Hbr3OxG2xiIb8lK9AU4LWvI3eD-10vbv_oEQXCxpWwjKHRqJuHQBR_KAdl_mojudyKgSR_39Eug0eoBdWEUCAy9zXXWvhpR1bOhuhHVBcTK1TS4FYunjysVb58Zk_a4ygYGziJyOh1k1648RVePUiOLkzQcDf0yg-Gh5ukH9jO0TWis-k1jIxokAa5rINl4ZXshKHZskeUlDcIesdvnFAo8Wa8aSJGebNwNqbWQLGSfm7j2I-Wfsdc7Q_czo2qTZws6LyUMsLaBh0kcdqpWJObHOzgtOKxNh1VjJYOoSw9gO1tLlbDioAlLr1rNShJu2ULjcmuXt5Uh5Z2-Sxtm_7JQ3_x60ZuetErC7jGGvRQ9XFzZs3HMQl7zhbrwAPcNQZIFxOm3deJ3z7ZovTqFgofAW9_jxuKChkVEAf73dRj8dp58CeiDAWDSiqUEfUsiuKvC3WxkGR5O4Y-MMQF- -Aw8lY5tIdPmU8mx2O9j37sR-VirghJAVMP9ktjtz6h8-lmrTSKBackgJLngVpvRk5APOBmtmL2IgA9KIhRIo64n2VJjK6FTiWksss9DbxGwnCt2MuN9ZULfFKSQQP1nXdqFMqfklQhF0jtYRkQsRRO4EG9UJisqi8BbjIMoPPDovthLui8Qvp5hNxR1k6QCz4psIFExCjymcjeQBHeiiLZdFTu3JmQk5xkd2IYaE-JTtzRrPePR6Jmty0]--></g></svg>