<?xml version="1.0" encoding="us-ascii" standalone="no"?><svg xmlns="http://www.w3.org/2000/svg" xmlns:xlink="http://www.w3.org/1999/xlink" contentStyleType="text/css" height="1680px" preserveAspectRatio="none" style="width:896px;height:1680px;background:#FAFAFA;" version="1.1" viewBox="0 0 896 1680" width="896px" zoomAndPan="magnify"><defs/><g><rect fill="#FAFAFA" height="1680" style="stroke:none;stroke-width:1.0;" width="896" x="0" y="0"/><rect fill="#F5F3FF" height="241.7999" style="stroke:#AFA9EC;stroke-width:1.0;" width="10" x="366.5" y="1123.3599"/><rect fill="#F5F3FF" height="258.0718" style="stroke:#AFA9EC;stroke-width:1.0;" width="10" x="478.5" y="693.6881"/><rect fill="#F5F3FF" height="170.3599" style="stroke:#AFA9EC;stroke-width:1.0;" width="10" x="582.5" y="1151.8399"/><rect fill="#F5F3FF" height="144.1518" style="stroke:#534AB7;stroke-width:1.5;" width="454" x="425" y="765.648"/><rect fill="#F5F3FF" height="46.4079" style="stroke:none;stroke-width:1.0;" width="454" x="425" y="863.392"/><rect fill="#F5F3FF" height="513.8316" style="stroke:#534AB7;stroke-width:1.5;" width="760" x="10" y="1068.0959"/><rect fill="#F5F3FF" height="95.3678" style="stroke:none;stroke-width:1.0;" width="760" x="10" y="1486.5597"/><line style="stroke:#AFA9EC;stroke-width:0.5;stroke-dasharray:5.0,5.0;" x1="39" x2="39" y1="82.3761" y2="1598.9275"/><line style="stroke:#AFA9EC;stroke-width:0.5;stroke-dasharray:5.0,5.0;" x1="183.5" x2="183.5" y1="82.3761" y2="1598.9275"/><line style="stroke:#AFA9EC;stroke-width:0.5;stroke-dasharray:5.0,5.0;" x1="371" x2="371" y1="82.3761" y2="1598.9275"/><line style="stroke:#AFA9EC;stroke-width:0.5;stroke-dasharray:5.0,5.0;" x1="483" x2="483" y1="82.3761" y2="1598.9275"/><line style="stroke:#AFA9EC;stroke-width:0.5;stroke-dasharray:5.0,5.0;" x1="587" x2="587" y1="82.3761" y2="1598.9275"/><line style="stroke:#AFA9EC;stroke-width:0.5;stroke-dasharray:5.0,5.0;" x1="737" x2="737" y1="82.3761" y2="1598.9275"/><line style="stroke:#AFA9EC;stroke-width:0.5;stroke-dasharray:5.0,5.0;" x1="816" x2="816" y1="82.3761" y2="1598.9275"/><text fill="#3C3489" font-family="sans-serif" font-size="12" font-weight="bold" lengthAdjust="spacing" textLength="33" x="20" y="78.9201">&#48708;&#54924;&#50896;</text><ellipse cx="39.5" cy="13.5" fill="#FFFFFF" rx="8" ry="8" style="stroke:#7F77DD;stroke-width:0.5;"/><path d="M39.5,21.5 L39.5,48.5 M26.5,29.5 L52.5,29.5 M39.5,48.5 L26.5,63.5 M39.5,48.5 L52.5,63.5 " fill="none" style="stroke:#7F77DD;stroke-width:0.5;"/><text fill="#3C3489" font-family="sans-serif" font-size="12" font-weight="bold" lengthAdjust="spacing" textLength="33" x="20" y="1611.8476">&#48708;&#54924;&#50896;</text><ellipse cx="39.5" cy="1623.8037" fill="#FFFFFF" rx="8" ry="8" style="stroke:#7F77DD;stroke-width:0.5;"/><path d="M39.5,1631.8037 L39.5,1658.8037 M26.5,1639.8037 L52.5,1639.8037 M39.5,1658.8037 L26.5,1673.8037 M39.5,1658.8037 L52.5,1673.8037 " fill="none" style="stroke:#7F77DD;stroke-width:0.5;"/><rect fill="#FFFFFF" height="48.7522" rx="2.5" ry="2.5" style="stroke:#AFA9EC;stroke-width:0.5;" width="66" x="150.5" y="32.6239"/><text fill="#26215C" font-family="sans-serif" font-size="12" lengthAdjust="spacing" textLength="39" x="164" y="53.544">Next.js</text><text fill="#26215C" font-family="sans-serif" font-size="12" lengthAdjust="spacing" textLength="52" x="157.5" y="70.9201">(&#48652;&#46972;&#50864;&#51200;)</text><rect fill="#FFFFFF" height="48.7522" rx="2.5" ry="2.5" style="stroke:#AFA9EC;stroke-width:0.5;" width="66" x="150.5" y="1597.9275"/><text fill="#26215C" font-family="sans-serif" font-size="12" lengthAdjust="spacing" textLength="39" x="164" y="1618.8476">Next.js</text><text fill="#26215C" font-family="sans-serif" font-size="12" lengthAdjust="spacing" textLength="52" x="157.5" y="1636.2238">(&#48652;&#46972;&#50864;&#51200;)</text><rect fill="#FFFFFF" height="31.3761" rx="2.5" ry="2.5" style="stroke:#AFA9EC;stroke-width:0.5;" width="107" x="318" y="50"/><text fill="#26215C" font-family="sans-serif" font-size="12" lengthAdjust="spacing" textLength="93" x="325" y="70.9201">ResultController</text><rect fill="#FFFFFF" height="31.3761" rx="2.5" ry="2.5" style="stroke:#AFA9EC;stroke-width:0.5;" width="107" x="318" y="1597.9275"/><text fill="#26215C" font-family="sans-serif" font-size="12" lengthAdjust="spacing" textLength="93" x="325" y="1618.8476">ResultController</text><rect fill="#FFFFFF" height="31.3761" rx="2.5" ry="2.5" style="stroke:#AFA9EC;stroke-width:0.5;" width="97" x="435" y="50"/><text fill="#26215C" font-family="sans-serif" font-size="12" lengthAdjust="spacing" textLength="83" x="442" y="70.9201">AuthController</text><rect fill="#FFFFFF" height="31.3761" rx="2.5" ry="2.5" style="stroke:#AFA9EC;stroke-width:0.5;" width="97" x="435" y="1597.9275"/><text fill="#26215C" font-family="sans-serif" font-size="12" lengthAdjust="spacing" textLength="83" x="442" y="1618.8476">AuthController</text><rect fill="#FFFFFF" height="31.3761" rx="2.5" ry="2.5" style="stroke:#AFA9EC;stroke-width:0.5;" width="91" x="542" y="50"/><text fill="#26215C" font-family="sans-serif" font-size="12" lengthAdjust="spacing" textLength="77" x="549" y="70.9201">ResultService</text><rect fill="#FFFFFF" height="31.3761" rx="2.5" ry="2.5" style="stroke:#AFA9EC;stroke-width:0.5;" width="91" x="542" y="1597.9275"/><text fill="#26215C" font-family="sans-serif" font-size="12" lengthAdjust="spacing" textLength="77" x="549" y="1618.8476">ResultService</text><text fill="#26215C" font-family="sans-serif" font-size="12" lengthAdjust="spacing" textLength="39" x="715" y="78.9201">MySQL</text><path d="M719.5,29 C719.5,19 737.5,19 737.5,19 C737.5,19 755.5,19 755.5,29 L755.5,55 C755.5,65 737.5,65 737.5,65 C737.5,65 719.5,65 719.5,55 L719.5,29 " fill="#E2E2F0" style="stroke:#181818;stroke-width:1.5;"/><path d="M719.5,29 C719.5,39 737.5,39 737.5,39 C737.5,39 755.5,39 755.5,29 " fill="none" style="stroke:#181818;stroke-width:1.5;"/><text fill="#26215C" font-family="sans-serif" font-size="12" lengthAdjust="spacing" textLength="39" x="715" y="1611.8476">MySQL</text><path d="M719.5,1625.3037 C719.5,1615.3037 737.5,1615.3037 737.5,1615.3037 C737.5,1615.3037 755.5,1615.3037 755.5,1625.3037 L755.5,1651.3037 C755.5,1661.3037 737.5,1661.3037 737.5,1661.3037 C737.5,1661.3037 719.5,1661.3037 719.5,1651.3037 L719.5,1625.3037 " fill="#E2E2F0" style="stroke:#181818;stroke-width:1.5;"/><path d="M719.5,1625.3037 C719.5,1635.3037 737.5,1635.3037 737.5,1635.3037 C737.5,1635.3037 755.5,1635.3037 755.5,1625.3037 " fill="none" style="stroke:#181818;stroke-width:1.5;"/><rect fill="#E2E2F0" height="31.3761" style="stroke:#181818;stroke-width:0.5;" width="88" x="774" y="46"/><rect fill="#E2E2F0" height="31.3761" style="stroke:#181818;stroke-width:0.5;" width="88" x="770" y="50"/><text fill="#26215C" font-family="sans-serif" font-size="12" lengthAdjust="spacing" textLength="74" x="777" y="70.9201">Kakao OAuth</text><rect fill="#E2E2F0" height="31.3761" style="stroke:#181818;stroke-width:0.5;" width="88" x="774" y="1597.9275"/><rect fill="#E2E2F0" height="31.3761" style="stroke:#181818;stroke-width:0.5;" width="88" x="770" y="1601.9275"/><text fill="#26215C" font-family="sans-serif" font-size="12" lengthAdjust="spacing" textLength="74" x="777" y="1622.8476">Kakao OAuth</text><rect fill="#F5F3FF" height="241.7999" style="stroke:#AFA9EC;stroke-width:1.0;" width="10" x="366.5" y="1123.3599"/><rect fill="#F5F3FF" height="258.0718" style="stroke:#AFA9EC;stroke-width:1.0;" width="10" x="478.5" y="693.6881"/><rect fill="#F5F3FF" height="170.3599" style="stroke:#AFA9EC;stroke-width:1.0;" width="10" x="582.5" y="1151.8399"/><rect fill="#EEEDFE" height="3" style="stroke:#EEEDFE;stroke-width:1.0;" width="889" x="0" y="114.0642"/><line style="stroke:#534AB7;stroke-width:1.0;" x1="0" x2="889" y1="114.0642" y2="114.0642"/><line style="stroke:#534AB7;stroke-width:1.0;" x1="0" x2="889" y1="117.0642" y2="117.0642"/><rect fill="#EEEDFE" height="25.3761" style="stroke:#534AB7;stroke-width:2.0;" width="100" x="394.5" y="102.3761"/><text fill="#3C3489" font-family="sans-serif" font-size="12" font-weight="bold" lengthAdjust="spacing" textLength="83" x="400.5" y="120.2962">&#48708;&#54924;&#50896; &#44160;&#49324; &#51025;&#49884;</text><polygon fill="#7F77DD" points="171.5,154.2322,181.5,158.2322,171.5,162.2322,175.5,158.2322" style="stroke:#7F77DD;stroke-width:1.0;"/><line style="stroke:#7F77DD;stroke-width:1.0;" x1="39.5" x2="177.5" y1="158.2322" y2="158.2322"/><text fill="#534AB7" font-family="sans-serif" font-size="10" lengthAdjust="spacing" textLength="38" x="92.5" y="153.3522">&#44160;&#49324; &#49884;&#51089;</text><polygon fill="#7F77DD" points="359.5,197.1922,369.5,201.1922,359.5,205.1922,363.5,201.1922" style="stroke:#7F77DD;stroke-width:1.0;"/><line style="stroke:#7F77DD;stroke-width:1.0;" x1="183.5" x2="365.5" y1="201.1922" y2="201.1922"/><text fill="#534AB7" font-family="sans-serif" font-size="10" lengthAdjust="spacing" textLength="94" x="230.5" y="181.8322">POST /results/score</text><text fill="#534AB7" font-family="sans-serif" font-size="10" lengthAdjust="spacing" textLength="137" x="209" y="196.3122">{ testType, scores: { d, i, s, c } }</text><polygon fill="#7F77DD" points="194.5,240.1522,184.5,244.1522,194.5,248.1522,190.5,244.1522" style="stroke:#7F77DD;stroke-width:1.0;"/><line style="stroke:#7F77DD;stroke-width:1.0;stroke-dasharray:2.0,2.0;" x1="188.5" x2="370.5" y1="244.1522" y2="244.1522"/><text fill="#534AB7" font-family="sans-serif" font-size="10" lengthAdjust="spacing" textLength="33" x="261" y="224.7922">200 OK</text><text fill="#534AB7" font-family="sans-serif" font-size="10" lengthAdjust="spacing" textLength="138" x="208.5" y="239.2722">{ rawScores, buckets, report }</text><path d="M188,257.1522 L188,295.1522 L276,295.1522 L276,267.1522 L266,257.1522 L188,257.1522 " fill="#F5F3FF" style="stroke:#AFA9EC;stroke-width:0.5;"/><path d="M266,257.1522 L266,267.1522 L276,267.1522 L266,257.1522 " fill="#F5F3FF" style="stroke:#AFA9EC;stroke-width:0.5;"/><text fill="#534AB7" font-family="sans-serif" font-size="10" lengthAdjust="spacing" textLength="67" x="194" y="273.7522">&#49436;&#48260; &#49464;&#49496; &#48120;&#48156;&#44553;</text><text fill="#534AB7" font-family="sans-serif" font-size="10" lengthAdjust="spacing" textLength="53" x="194" y="288.2321">(&#54540;&#47084;&#46377; &#48169;&#50612;)</text><line style="stroke:#7F77DD;stroke-width:1.0;" x1="183.5" x2="225.5" y1="365.0321" y2="365.0321"/><line style="stroke:#7F77DD;stroke-width:1.0;" x1="225.5" x2="225.5" y1="365.0321" y2="378.0321"/><line style="stroke:#7F77DD;stroke-width:1.0;" x1="184.5" x2="225.5" y1="378.0321" y2="378.0321"/><polygon fill="#7F77DD" points="194.5,374.0321,184.5,378.0321,194.5,382.0321,190.5,378.0321" style="stroke:#7F77DD;stroke-width:1.0;"/><text fill="#534AB7" font-family="sans-serif" font-size="10" lengthAdjust="spacing" textLength="117" x="219" y="316.7121">sessionStorage.setItem(</text><text fill="#534AB7" font-family="sans-serif" font-size="10" lengthAdjust="spacing" textLength="62" x="248.5" y="331.1921">'disc_result',</text><text fill="#534AB7" font-family="sans-serif" font-size="10" lengthAdjust="spacing" textLength="170" x="194.5" y="345.6721">{ scores: { d,i,s,c }, buckets: { d,i,s,c } }</text><text fill="#534AB7" font-family="sans-serif" font-size="10" lengthAdjust="spacing" textLength="3" x="276" y="360.1521">)</text><polygon fill="#7F77DD" points="50.5,416.9921,40.5,420.9921,50.5,424.9921,46.5,420.9921" style="stroke:#7F77DD;stroke-width:1.0;"/><line style="stroke:#7F77DD;stroke-width:1.0;stroke-dasharray:2.0,2.0;" x1="44.5" x2="182.5" y1="420.9921" y2="420.9921"/><text fill="#534AB7" font-family="sans-serif" font-size="10" lengthAdjust="spacing" textLength="38" x="92.5" y="401.6321">&#44208;&#44284; &#54868;&#47732;</text><text fill="#534AB7" font-family="sans-serif" font-size="10" lengthAdjust="spacing" textLength="99" x="62" y="416.1121">("&#49324;&#50857;&#51088;&#45784;&#51032; &#44053;&#51216;&#51008;...")</text><rect fill="#EEEDFE" height="3" style="stroke:#EEEDFE;stroke-width:1.0;" width="889" x="0" y="450.6801"/><line style="stroke:#534AB7;stroke-width:1.0;" x1="0" x2="889" y1="450.6801" y2="450.6801"/><line style="stroke:#534AB7;stroke-width:1.0;" x1="0" x2="889" y1="453.6801" y2="453.6801"/><rect fill="#EEEDFE" height="25.3761" style="stroke:#534AB7;stroke-width:2.0;" width="114" x="387.5" y="438.9921"/><text fill="#3C3489" font-family="sans-serif" font-size="12" font-weight="bold" lengthAdjust="spacing" textLength="97" x="393.5" y="456.9122">&#47196;&#44536;&#51064; &#54980; &#44208;&#44284; &#51200;&#51109;</text><polygon fill="#7F77DD" points="171.5,490.8482,181.5,494.8482,171.5,498.8482,175.5,494.8482" style="stroke:#7F77DD;stroke-width:1.0;"/><line style="stroke:#7F77DD;stroke-width:1.0;" x1="39.5" x2="177.5" y1="494.8482" y2="494.8482"/><text fill="#534AB7" font-family="sans-serif" font-size="10" lengthAdjust="spacing" textLength="111" x="56" y="489.9682">'&#47196;&#44536;&#51064;&#54616;&#44256; &#44208;&#44284; &#51200;&#51109;' &#53364;&#47533;</text><line style="stroke:#7F77DD;stroke-width:1.0;" x1="183.5" x2="225.5" y1="537.8081" y2="537.8081"/><line style="stroke:#7F77DD;stroke-width:1.0;" x1="225.5" x2="225.5" y1="537.8081" y2="550.8081"/><line style="stroke:#7F77DD;stroke-width:1.0;" x1="184.5" x2="225.5" y1="550.8081" y2="550.8081"/><polygon fill="#7F77DD" points="194.5,546.8081,184.5,550.8081,194.5,554.8081,190.5,550.8081" style="stroke:#7F77DD;stroke-width:1.0;"/><text fill="#534AB7" font-family="sans-serif" font-size="10" lengthAdjust="spacing" textLength="92" x="190.5" y="518.4482">sessionStorage&#50640;&#49436;</text><text fill="#534AB7" font-family="sans-serif" font-size="10" lengthAdjust="spacing" textLength="47" x="213" y="532.9281">&#50896;&#51216;&#49688; &#51069;&#44592;</text><polygon fill="#7F77DD" points="471.5,589.7681,481.5,593.7681,471.5,597.7681,475.5,593.7681" style="stroke:#7F77DD;stroke-width:1.0;"/><line style="stroke:#7F77DD;stroke-width:1.0;" x1="183.5" x2="477.5" y1="593.7681" y2="593.7681"/><text fill="#534AB7" font-family="sans-serif" font-size="10" lengthAdjust="spacing" textLength="81" x="293" y="574.4081">GET /auth/kakao</text><text fill="#534AB7" font-family="sans-serif" font-size="10" lengthAdjust="spacing" textLength="109" x="279" y="588.8881">(&#52852;&#52852;&#50724; &#47196;&#44536;&#51064; &#47532;&#45796;&#51060;&#47113;&#53944;)</text><polygon fill="#7F77DD" points="194.5,618.2481,184.5,622.2481,194.5,626.2481,190.5,622.2481" style="stroke:#7F77DD;stroke-width:1.0;"/><line style="stroke:#7F77DD;stroke-width:1.0;stroke-dasharray:2.0,2.0;" x1="188.5" x2="482.5" y1="622.2481" y2="622.2481"/><text fill="#534AB7" font-family="sans-serif" font-size="10" lengthAdjust="spacing" textLength="120" x="273.5" y="617.3681">302 &#8594; Kakao &#47196;&#44536;&#51064; &#54168;&#51060;&#51648;</text><polygon fill="#7F77DD" points="804,646.7281,814,650.7281,804,654.7281,808,650.7281" style="stroke:#7F77DD;stroke-width:1.0;"/><line style="stroke:#7F77DD;stroke-width:1.0;" x1="39.5" x2="810" y1="650.7281" y2="650.7281"/><text fill="#534AB7" font-family="sans-serif" font-size="10" lengthAdjust="spacing" textLength="56" x="399.75" y="645.8481">&#52852;&#52852;&#50724; &#47196;&#44536;&#51064;</text><polygon fill="#7F77DD" points="499.5,689.6881,489.5,693.6881,499.5,697.6881,495.5,693.6881" style="stroke:#7F77DD;stroke-width:1.0;"/><line style="stroke:#7F77DD;stroke-width:1.0;stroke-dasharray:2.0,2.0;" x1="493.5" x2="815" y1="693.6881" y2="693.6881"/><text fill="#534AB7" font-family="sans-serif" font-size="10" lengthAdjust="spacing" textLength="125" x="589.75" y="674.3281">GET /auth/kakao/callback</text><text fill="#534AB7" font-family="sans-serif" font-size="10" lengthAdjust="spacing" textLength="33" x="635.75" y="688.8081">{ code }</text><polygon fill="#7F77DD" points="804,718.168,814,722.168,804,726.168,808,722.168" style="stroke:#7F77DD;stroke-width:1.0;"/><line style="stroke:#7F77DD;stroke-width:1.0;" x1="488.5" x2="810" y1="722.168" y2="722.168"/><text fill="#534AB7" font-family="sans-serif" font-size="10" lengthAdjust="spacing" textLength="118" x="593.25" y="717.288">&#53664;&#53360; &#44368;&#54872; &#48143; &#49324;&#50857;&#51088; &#51221;&#48372; &#51312;&#54924;</text><polygon fill="#7F77DD" points="499.5,746.648,489.5,750.648,499.5,754.648,495.5,750.648" style="stroke:#7F77DD;stroke-width:1.0;"/><line style="stroke:#7F77DD;stroke-width:1.0;stroke-dasharray:2.0,2.0;" x1="493.5" x2="815" y1="750.648" y2="750.648"/><text fill="#534AB7" font-family="sans-serif" font-size="10" lengthAdjust="spacing" textLength="76" x="614.25" y="745.768">&#52852;&#52852;&#50724; &#49324;&#50857;&#51088; &#51221;&#48372;</text><path d="M425,765.648 L486,765.648 L486,775.0242 L476,785.0242 L425,785.0242 L425,765.648 " fill="#EEEDFE" style="stroke:#534AB7;stroke-width:1.5;"/><rect fill="none" height="144.1518" style="stroke:#534AB7;stroke-width:1.5;" width="454" x="425" y="765.648"/><text fill="#26215C" font-family="sans-serif" font-size="12" font-weight="bold" lengthAdjust="spacing" textLength="16" x="440" y="780.5681">alt</text><text fill="#3C3489" font-family="sans-serif" font-size="11" font-weight="bold" lengthAdjust="spacing" textLength="51" x="501" y="780.4079">[&#49888;&#44508; &#54924;&#50896;]</text><polygon fill="#7F77DD" points="725.5,816.912,735.5,820.912,725.5,824.912,729.5,820.912" style="stroke:#7F77DD;stroke-width:1.0;"/><line style="stroke:#7F77DD;stroke-width:1.0;" x1="488.5" x2="731.5" y1="820.912" y2="820.912"/><text fill="#534AB7" font-family="sans-serif" font-size="10" lengthAdjust="spacing" textLength="62" x="582" y="801.552">INSERT users</text><text fill="#534AB7" font-family="sans-serif" font-size="10" lengthAdjust="spacing" textLength="145" x="540.5" y="816.032">(kakao_id, nickname, coins=3)</text><path d="M742,833.912 L742,857.912 L869,857.912 L869,843.912 L859,833.912 L742,833.912 " fill="#F5F3FF" style="stroke:#AFA9EC;stroke-width:0.5;"/><path d="M859,833.912 L859,843.912 L869,843.912 L859,833.912 " fill="#F5F3FF" style="stroke:#AFA9EC;stroke-width:0.5;"/><text fill="#534AB7" font-family="sans-serif" font-size="10" lengthAdjust="spacing" textLength="106" x="748" y="850.512">&#44032;&#51077; &#49884; &#53076;&#51064; 3&#44060; &#52488;&#44592; &#51648;&#44553;</text><line style="stroke:#534AB7;stroke-width:1.0;stroke-dasharray:2.0,2.0;" x1="425" x2="879" y1="864.392" y2="864.392"/><text fill="#3C3489" font-family="sans-serif" font-size="11" font-weight="bold" lengthAdjust="spacing" textLength="51" x="430" y="877.1519">[&#44592;&#51316; &#54924;&#50896;]</text><polygon fill="#7F77DD" points="725.5,897.7999,735.5,901.7999,725.5,905.7999,729.5,901.7999" style="stroke:#7F77DD;stroke-width:1.0;"/><line style="stroke:#7F77DD;stroke-width:1.0;" x1="488.5" x2="731.5" y1="901.7999" y2="901.7999"/><text fill="#534AB7" font-family="sans-serif" font-size="10" lengthAdjust="spacing" textLength="157" x="534.5" y="896.9199">SELECT users WHERE kakao_id=?</text><polygon fill="#7F77DD" points="194.5,947.7598,184.5,951.7598,194.5,955.7598,190.5,951.7598" style="stroke:#7F77DD;stroke-width:1.0;"/><line style="stroke:#7F77DD;stroke-width:1.0;stroke-dasharray:2.0,2.0;" x1="188.5" x2="482.5" y1="951.7598" y2="951.7598"/><text fill="#534AB7" font-family="sans-serif" font-size="10" lengthAdjust="spacing" textLength="99" x="284" y="932.3999">302 &#8594; &#44208;&#44284; &#51200;&#51109; &#54168;&#51060;&#51648;</text><text fill="#534AB7" font-family="sans-serif" font-size="10" lengthAdjust="spacing" textLength="82" x="292.5" y="946.8798">(JSESSIONID &#48156;&#44553;)</text><rect fill="#EEEDFE" height="3" style="stroke:#EEEDFE;stroke-width:1.0;" width="889" x="0" y="981.4479"/><line style="stroke:#534AB7;stroke-width:1.0;" x1="0" x2="889" y1="981.4479" y2="981.4479"/><line style="stroke:#534AB7;stroke-width:1.0;" x1="0" x2="889" y1="984.4479" y2="984.4479"/><rect fill="#EEEDFE" height="25.3761" style="stroke:#534AB7;stroke-width:2.0;" width="100" x="394.5" y="969.7598"/><text fill="#3C3489" font-family="sans-serif" font-size="12" font-weight="bold" lengthAdjust="spacing" textLength="83" x="400.5" y="987.6799">&#50896;&#51216;&#49688; &#49436;&#48260; &#51204;&#49569;</text><line style="stroke:#7F77DD;stroke-width:1.0;" x1="183.5" x2="225.5" y1="1040.0959" y2="1040.0959"/><line style="stroke:#7F77DD;stroke-width:1.0;" x1="225.5" x2="225.5" y1="1040.0959" y2="1053.0959"/><line style="stroke:#7F77DD;stroke-width:1.0;" x1="184.5" x2="225.5" y1="1053.0959" y2="1053.0959"/><polygon fill="#7F77DD" points="194.5,1049.0959,184.5,1053.0959,194.5,1057.0959,190.5,1053.0959" style="stroke:#7F77DD;stroke-width:1.0;"/><text fill="#534AB7" font-family="sans-serif" font-size="10" lengthAdjust="spacing" textLength="92" x="190.5" y="1020.7359">sessionStorage&#50640;&#49436;</text><text fill="#534AB7" font-family="sans-serif" font-size="10" lengthAdjust="spacing" textLength="56" x="208.5" y="1035.2159">&#50896;&#51216;&#49688; &#44732;&#45236;&#44592;</text><path d="M10,1068.0959 L71,1068.0959 L71,1077.472 L61,1087.472 L10,1087.472 L10,1068.0959 " fill="#EEEDFE" style="stroke:#534AB7;stroke-width:1.5;"/><rect fill="none" height="513.8316" style="stroke:#534AB7;stroke-width:1.5;" width="760" x="10" y="1068.0959"/><text fill="#26215C" font-family="sans-serif" font-size="12" font-weight="bold" lengthAdjust="spacing" textLength="16" x="25" y="1083.016">alt</text><text fill="#3C3489" font-family="sans-serif" font-size="11" font-weight="bold" lengthAdjust="spacing" textLength="156" x="86" y="1082.8558">[sessionStorage&#50640; &#50896;&#51216;&#49688; &#51080;&#51020;]</text><polygon fill="#7F77DD" points="354.5,1119.3599,364.5,1123.3599,354.5,1127.3599,358.5,1123.3599" style="stroke:#7F77DD;stroke-width:1.0;"/><line style="stroke:#7F77DD;stroke-width:1.0;" x1="183.5" x2="360.5" y1="1123.3599" y2="1123.3599"/><text fill="#534AB7" font-family="sans-serif" font-size="10" lengthAdjust="spacing" textLength="64" x="243" y="1103.9999">POST /results</text><text fill="#534AB7" font-family="sans-serif" font-size="10" lengthAdjust="spacing" textLength="137" x="206.5" y="1118.4799">{ testType, scores: { d, i, s, c } }</text><polygon fill="#7F77DD" points="570.5,1147.8399,580.5,1151.8399,570.5,1155.8399,574.5,1151.8399" style="stroke:#7F77DD;stroke-width:1.0;"/><line style="stroke:#7F77DD;stroke-width:1.0;" x1="376.5" x2="576.5" y1="1151.8399" y2="1151.8399"/><text fill="#534AB7" font-family="sans-serif" font-size="10" lengthAdjust="spacing" textLength="113" x="423" y="1146.9599">save(userId, rawScores)</text><line style="stroke:#7F77DD;stroke-width:1.0;" x1="592.5" x2="634.5" y1="1194.7999" y2="1194.7999"/><line style="stroke:#7F77DD;stroke-width:1.0;" x1="634.5" x2="634.5" y1="1194.7999" y2="1207.7999"/><line style="stroke:#7F77DD;stroke-width:1.0;" x1="593.5" x2="634.5" y1="1207.7999" y2="1207.7999"/><polygon fill="#7F77DD" points="603.5,1203.7999,593.5,1207.7999,603.5,1211.7999,599.5,1207.7999" style="stroke:#7F77DD;stroke-width:1.0;"/><text fill="#534AB7" font-family="sans-serif" font-size="10" lengthAdjust="spacing" textLength="47" x="626" y="1175.4399">&#48260;&#53431;&#44050; &#49328;&#52636;</text><text fill="#534AB7" font-family="sans-serif" font-size="10" lengthAdjust="spacing" textLength="100" x="599.5" y="1189.9199">(&#50896;&#51216;&#49688; &#8594; 9&#45800;&#44228; &#51221;&#44508;&#54868;)</text><polygon fill="#7F77DD" points="725.5,1261.2398,735.5,1265.2398,725.5,1269.2398,729.5,1265.2398" style="stroke:#7F77DD;stroke-width:1.0;"/><line style="stroke:#7F77DD;stroke-width:1.0;" x1="592.5" x2="731.5" y1="1265.2398" y2="1265.2398"/><text fill="#534AB7" font-family="sans-serif" font-size="10" lengthAdjust="spacing" textLength="94" x="618" y="1231.3999">INSERT test_results</text><text fill="#534AB7" font-family="sans-serif" font-size="10" lengthAdjust="spacing" textLength="121" x="604.5" y="1245.8798">(userId, rater_type=SELF,</text><text fill="#534AB7" font-family="sans-serif" font-size="10" lengthAdjust="spacing" textLength="62" x="634" y="1260.3598">&#50896;&#51216;&#49688;, &#48260;&#53431;&#44050;)</text><polygon fill="#7F77DD" points="603.5,1289.7198,593.5,1293.7198,603.5,1297.7198,599.5,1293.7198" style="stroke:#7F77DD;stroke-width:1.0;"/><line style="stroke:#7F77DD;stroke-width:1.0;stroke-dasharray:2.0,2.0;" x1="597.5" x2="736.5" y1="1293.7198" y2="1293.7198"/><text fill="#534AB7" font-family="sans-serif" font-size="10" lengthAdjust="spacing" textLength="37" x="646.5" y="1288.8398">resultId</text><polygon fill="#7F77DD" points="387.5,1318.1998,377.5,1322.1998,387.5,1326.1998,383.5,1322.1998" style="stroke:#7F77DD;stroke-width:1.0;"/><line style="stroke:#7F77DD;stroke-width:1.0;stroke-dasharray:2.0,2.0;" x1="381.5" x2="586.5" y1="1322.1998" y2="1322.1998"/><text fill="#534AB7" font-family="sans-serif" font-size="10" lengthAdjust="spacing" textLength="37" x="463.5" y="1317.3198">resultId</text><polygon fill="#7F77DD" points="194.5,1361.1598,184.5,1365.1598,194.5,1369.1598,190.5,1365.1598" style="stroke:#7F77DD;stroke-width:1.0;"/><line style="stroke:#7F77DD;stroke-width:1.0;stroke-dasharray:2.0,2.0;" x1="188.5" x2="370.5" y1="1365.1598" y2="1365.1598"/><text fill="#534AB7" font-family="sans-serif" font-size="10" lengthAdjust="spacing" textLength="58" x="248.5" y="1345.7998">201 Created</text><text fill="#534AB7" font-family="sans-serif" font-size="10" lengthAdjust="spacing" textLength="47" x="254" y="1360.2798">{ resultId }</text><line style="stroke:#7F77DD;stroke-width:1.0;" x1="183.5" x2="225.5" y1="1422.5997" y2="1422.5997"/><line style="stroke:#7F77DD;stroke-width:1.0;" x1="225.5" x2="225.5" y1="1422.5997" y2="1435.5997"/><line style="stroke:#7F77DD;stroke-width:1.0;" x1="184.5" x2="225.5" y1="1435.5997" y2="1435.5997"/><polygon fill="#7F77DD" points="194.5,1431.5997,184.5,1435.5997,194.5,1439.5997,190.5,1435.5997" style="stroke:#7F77DD;stroke-width:1.0;"/><text fill="#534AB7" font-family="sans-serif" font-size="10" lengthAdjust="spacing" textLength="138" x="190.5" y="1388.7598">sessionStorage.removeItem(</text><text fill="#534AB7" font-family="sans-serif" font-size="10" lengthAdjust="spacing" textLength="59" x="232" y="1403.2397">'disc_result'</text><text fill="#534AB7" font-family="sans-serif" font-size="10" lengthAdjust="spacing" textLength="3" x="258" y="1417.7197">)</text><polygon fill="#7F77DD" points="50.5,1474.5597,40.5,1478.5597,50.5,1482.5597,46.5,1478.5597" style="stroke:#7F77DD;stroke-width:1.0;"/><line style="stroke:#7F77DD;stroke-width:1.0;stroke-dasharray:2.0,2.0;" x1="44.5" x2="182.5" y1="1478.5597" y2="1478.5597"/><text fill="#534AB7" font-family="sans-serif" font-size="10" lengthAdjust="spacing" textLength="58" x="82.5" y="1459.1997">&#44208;&#44284; &#51200;&#51109; &#50756;&#47308;</text><text fill="#534AB7" font-family="sans-serif" font-size="10" lengthAdjust="spacing" textLength="120" x="51.5" y="1473.6797">(&#45769;&#45348;&#51076;&#51004;&#47196; &#51060;&#47492; &#44368;&#52404; &#47116;&#45908;&#47553;)</text><line style="stroke:#534AB7;stroke-width:1.0;stroke-dasharray:2.0,2.0;" x1="10" x2="770" y1="1487.5597" y2="1487.5597"/><text fill="#3C3489" font-family="sans-serif" font-size="11" font-weight="bold" lengthAdjust="spacing" textLength="156" x="15" y="1500.3196">[sessionStorage&#50640; &#50896;&#51216;&#49688; &#50630;&#51020;]</text><path d="M188,1509.4876 L188,1547.4876 L267,1547.4876 L267,1519.4876 L257,1509.4876 L188,1509.4876 " fill="#F5F3FF" style="stroke:#AFA9EC;stroke-width:0.5;"/><path d="M257,1509.4876 L257,1519.4876 L267,1519.4876 L257,1509.4876 " fill="#F5F3FF" style="stroke:#AFA9EC;stroke-width:0.5;"/><text fill="#534AB7" font-family="sans-serif" font-size="10" lengthAdjust="spacing" textLength="56" x="194" y="1526.0876">&#47196;&#44536;&#51064;&#47564; &#50756;&#47308;</text><text fill="#534AB7" font-family="sans-serif" font-size="10" lengthAdjust="spacing" textLength="58" x="194" y="1540.5676">&#44208;&#44284; &#51200;&#51109; &#49828;&#53429;</text><polygon fill="#7F77DD" points="50.5,1569.9275,40.5,1573.9275,50.5,1577.9275,46.5,1573.9275" style="stroke:#7F77DD;stroke-width:1.0;"/><line style="stroke:#7F77DD;stroke-width:1.0;stroke-dasharray:2.0,2.0;" x1="44.5" x2="182.5" y1="1573.9275" y2="1573.9275"/><text fill="#534AB7" font-family="sans-serif" font-size="10" lengthAdjust="spacing" textLength="76" x="73.5" y="1569.0475">&#47700;&#51064; &#54868;&#47732;&#51004;&#47196; &#51060;&#46041;</text><!--SRC=[dLPjJzjM5FxkNt6KVO18uJNjM2kb4oI1iLBOwahxWeICVQ4UniviXuuX98fIr9PifHMiq2OiQAmTKgTP9LtJYVwPVRHl_iFEjHFdEWcbMq0GdtlkUNdESywnjQJgEScKbc5UafSMJIElAsb3CqpuP7oK_GXMgA6G1IclsUE6RazBomHYexcSHa3Cm8HXtrPbc2P60Yn9j_eiOgeBiUvtHVK70aF3tGyRleS_7HwwdEPKBF9TdkWokK4iIreaevgwg8DCT9kO0gU6VsrLLdEIRiEQ033MaPJ_OIU6gH2p8SKyhsJJAEqC8P0rOrxddKcoZOh_mSt8-CX89XDraqmdBtrsfSrDuybUHNZd3Ks9-crYuRiUDKtZJhjzNyWvkPoyD3esmXy4dWPHDAKka2bL9zq12KyxChmydlGpd41fBd8vz1OSjT_CPhEPyMppk1iKuK4GvL3BYx9wVY0PTKN58CxtrrJe6clZi3ES2FIwOPDpAjuCuq9YXIxvEg2NW4unxrsX_gn8d-_4GB9W8ayiM-1f7PictzlztrgpUgzNAthbC_hCePMDkA-UrbJiYQZ-JM9XSwNHcMbe6Z5znORGDhMeycZUljscweiw50C38Z5NL9bm9iKLML0aMvgNB9mGDrR5hwVyqyoO83ERigqQkWMnwzAIPC0CC-wV-y-2a4f1202uhpVevYkWvSTqkmIfb23uS43VjKQYS3NKsIxHmyT2GumAhGHHwQiPyHOCcBx86h1amoIp-XhOQEpMQexWq68YwogiWP805PyJ8CCwh0kScJxUxV3W8CnSPqPCwOxetqx0V5vU8ZP-CKdEC6syBlY4CTN5spOO2yto0D12oNjTm7yrUcyVl3zhdbDoQm_mfBU-M_H-UUNjde3ddD2Vgt61w8fFF85BBmp4me68Y8h87PoB_HQn9ssot3kh0_GegYNF1Ldt99XaBPAech0Ic6KOTqGAwxDwlEKHNGROCyGTz_GCwWUxtaaLMHX3_Ecp4tguustlq_8-kCuUhUpGyaP_Vtyi7jJqgEI-hT5o3UhF2qqBo5fw-DivTUq9hzJtzjtJIlHI3zJlLhqNVroC27swWs3FwiWd5jJzVQJJUxVcy60s6OwN9x9850cV1vOO8J4z-gxAVlUFkIIy5w-yxMDQhdgL1_M7jRWGMeYG93au3FziFGcupMFm4-9KfIytkCG3dQlGnPqGdFLzCD81MT8qjiCP9sL38H2C57L5GWQ6FTmAjEMolbMfttN0VRDJFq0oEeyWh2Z2lUUTLe4UETYJtGDfHTn-3GFGR6pDYlks145Fint4XP0PGmEJqsBsvYt8uqi3csf-EdCgDgAkoaiwlcbWCnggRgMISRmUxIWSAu0Vrq5Mt6DJ0EZxNOPnqdNmU_K-bXeGwQ2vmauY6audFA97rGy49cQdikb6OF3D5zcRMMW6b_gSjQLmGU6ZH0_BZab-AMP5SN9cUZ83GUl71OLqbelr3iVSnjIe5EZMaTyt_uF-xjzdtcRLxm1MdGvrtj_XVLek8Z8VCrO_Sg02X5boEmZ5_AIzrbecB2DfXVIo8aoYhN3SnZjDiTq3tDKsEuXTVVEjwpn1eZhqhn9hxZ1NLguhtlRlxYa3U0yPYmCktcwEvojBTYvCdWiGtqddR4GXXVmPJt3O9reXCCjehAyjnC3Sf1BrsuuxfyMHfeL16vhHlJK4QPEWlk8lhuOblp0TjfgbkNZjc6JPM27TDm_R8oqRdOkaqHtqeE3zMcHlDTiFlC8nFIpGqXdEG61ZzaM1ZIVwkWfUfUZzkEkzl8kBnU_Y3nBuwLP0u7FMCBI6hFUos0WX62ZHs1uUrpVVy0EaQqBUYJzwWit8HV_em1yM_m80]--></g></svg>