<?xml version="1.0" encoding="us-ascii" standalone="no"?><svg xmlns="http://www.w3.org/2000/svg" xmlns:xlink="http://www.w3.org/1999/xlink" contentStyleType="text/css" height="1750px" preserveAspectRatio="none" style="width:1470px;height:1750px;background:#FAFAFA;" version="1.1" viewBox="0 0 1470 1750" width="1470px" zoomAndPan="magnify"><defs/><g><rect fill="#FAFAFA" height="1750" style="stroke:none;stroke-width:1.0;" width="1470" x="0" y="0"/><rect fill="#F5F3FF" height="323.4609" style="stroke:#AFA9EC;stroke-width:1.0;" width="10" x="370" y="359.6719"/><rect fill="#F5F3FF" height="203.2578" style="stroke:#AFA9EC;stroke-width:1.0;" width="10" x="531" y="385.3125"/><rect fill="#F5F3FF" height="946.7109" style="stroke:#AFA9EC;stroke-width:1.0;" width="10" x="644" y="708.7734"/><rect fill="#F5F3FF" height="177.4063" style="stroke:#AFA9EC;stroke-width:1.0;" width="10" x="865" y="928.3594"/><rect fill="#F5F3FF" height="25.6406" style="stroke:#AFA9EC;stroke-width:1.0;" width="10" x="955.5" y="1259.5781"/><rect fill="#F5F3FF" height="235.0938" style="stroke:#AFA9EC;stroke-width:1.0;" width="10" x="1199.5" y="1413.3906"/><rect fill="#F5F3FF" height="1255.1719" style="stroke:#534AB7;stroke-width:1.5;" width="1443" x="10" y="400.3125"/><rect fill="#F5F3FF" height="1162.2813" style="stroke:none;stroke-width:1.0;" width="1443" x="10" y="493.2031"/><rect fill="#F5F3FF" height="819.8203" style="stroke:#534AB7;stroke-width:1.5;" width="1423" x="20" y="828.6641"/><rect fill="#F5F3FF" height="752.5703" style="stroke:none;stroke-width:1.0;" width="1423" x="20" y="895.9141"/><rect fill="#F5F3FF" height="150.1719" style="stroke:#534AB7;stroke-width:1.5;" width="1335" x="98" y="1491.3125"/><line style="stroke:#AFA9EC;stroke-width:0.5;stroke-dasharray:5.0,5.0;" x1="64" x2="64" y1="78.9688" y2="1672.4844"/><line style="stroke:#AFA9EC;stroke-width:0.5;stroke-dasharray:5.0,5.0;" x1="142" x2="142" y1="78.9688" y2="1672.4844"/><line style="stroke:#AFA9EC;stroke-width:0.5;stroke-dasharray:5.0,5.0;" x1="214" x2="214" y1="78.9688" y2="1672.4844"/><line style="stroke:#AFA9EC;stroke-width:0.5;stroke-dasharray:5.0,5.0;" x1="375" x2="375" y1="78.9688" y2="1672.4844"/><line style="stroke:#AFA9EC;stroke-width:0.5;stroke-dasharray:5.0,5.0;" x1="536" x2="536" y1="78.9688" y2="1672.4844"/><line style="stroke:#AFA9EC;stroke-width:0.5;stroke-dasharray:5.0,5.0;" x1="649" x2="649" y1="78.9688" y2="1672.4844"/><line style="stroke:#AFA9EC;stroke-width:0.5;stroke-dasharray:5.0,5.0;" x1="869.5" x2="869.5" y1="78.9688" y2="1672.4844"/><line style="stroke:#AFA9EC;stroke-width:0.5;stroke-dasharray:5.0,5.0;" x1="960.5" x2="960.5" y1="78.9688" y2="1672.4844"/><line style="stroke:#AFA9EC;stroke-width:0.5;stroke-dasharray:5.0,5.0;" x1="1204.5" x2="1204.5" y1="78.9688" y2="1672.4844"/><line style="stroke:#AFA9EC;stroke-width:0.5;stroke-dasharray:5.0,5.0;" x1="1331" x2="1331" y1="78.9688" y2="1672.4844"/><text fill="#3C3489" font-family="sans-serif" font-size="12" font-weight="bold" lengthAdjust="spacing" textLength="62" x="30" y="76.1387">&#48156;&#54665;&#51088; (&#54924;&#50896; A)</text><ellipse cx="64" cy="13.5" fill="#FFFFFF" rx="8" ry="8" style="stroke:#7F77DD;stroke-width:0.5;"/><path d="M64,21.5 L64,48.5 M51,29.5 L77,29.5 M64,48.5 L51,63.5 M64,48.5 L77,63.5 " fill="none" style="stroke:#7F77DD;stroke-width:0.5;"/><text fill="#3C3489" font-family="sans-serif" font-size="12" font-weight="bold" lengthAdjust="spacing" textLength="62" x="30" y="1682.623">&#48156;&#54665;&#51088; (&#54924;&#50896; A)</text><ellipse cx="64" cy="1693.9531" fill="#FFFFFF" rx="8" ry="8" style="stroke:#7F77DD;stroke-width:0.5;"/><path d="M64,1701.9531 L64,1728.9531 M51,1709.9531 L77,1709.9531 M64,1728.9531 L51,1743.9531 M64,1728.9531 L77,1743.9531 " fill="none" style="stroke:#7F77DD;stroke-width:0.5;"/><text fill="#3C3489" font-family="sans-serif" font-size="12" font-weight="bold" lengthAdjust="spacing" textLength="62" x="108" y="76.1387">&#49345;&#45824;&#48169; (&#54924;&#50896; B)</text><ellipse cx="142" cy="13.5" fill="#FFFFFF" rx="8" ry="8" style="stroke:#7F77DD;stroke-width:0.5;"/><path d="M142,21.5 L142,48.5 M129,29.5 L155,29.5 M142,48.5 L129,63.5 M142,48.5 L155,63.5 " fill="none" style="stroke:#7F77DD;stroke-width:0.5;"/><text fill="#3C3489" font-family="sans-serif" font-size="12" font-weight="bold" lengthAdjust="spacing" textLength="62" x="108" y="1682.623">&#49345;&#45824;&#48169; (&#54924;&#50896; B)</text><ellipse cx="142" cy="1693.9531" fill="#FFFFFF" rx="8" ry="8" style="stroke:#7F77DD;stroke-width:0.5;"/><path d="M142,1701.9531 L142,1728.9531 M129,1709.9531 L155,1709.9531 M142,1728.9531 L129,1743.9531 M142,1728.9531 L155,1743.9531 " fill="none" style="stroke:#7F77DD;stroke-width:0.5;"/><rect fill="#FFFFFF" height="27.9688" rx="2.5" ry="2.5" style="stroke:#AFA9EC;stroke-width:0.5;" width="56" x="186" y="50"/><text fill="#26215C" font-family="sans-serif" font-size="12" lengthAdjust="spacing" textLength="42" x="193" y="68.1387">Next.js</text><rect fill="#FFFFFF" height="27.9688" rx="2.5" ry="2.5" style="stroke:#AFA9EC;stroke-width:0.5;" width="56" x="186" y="1671.4844"/><text fill="#26215C" font-family="sans-serif" font-size="12" lengthAdjust="spacing" textLength="42" x="193" y="1689.623">Next.js</text><rect fill="#FFFFFF" height="27.9688" rx="2.5" ry="2.5" style="stroke:#AFA9EC;stroke-width:0.5;" width="136" x="307" y="50"/><text fill="#26215C" font-family="sans-serif" font-size="12" lengthAdjust="spacing" textLength="122" x="314" y="68.1387">ChemistryController</text><rect fill="#FFFFFF" height="27.9688" rx="2.5" ry="2.5" style="stroke:#AFA9EC;stroke-width:0.5;" width="136" x="307" y="1671.4844"/><text fill="#26215C" font-family="sans-serif" font-size="12" lengthAdjust="spacing" textLength="122" x="314" y="1689.623">ChemistryController</text><rect fill="#FFFFFF" height="27.9688" rx="2.5" ry="2.5" style="stroke:#AFA9EC;stroke-width:0.5;" width="86" x="493" y="50"/><text fill="#26215C" font-family="sans-serif" font-size="12" lengthAdjust="spacing" textLength="72" x="500" y="68.1387">CoinService</text><rect fill="#FFFFFF" height="27.9688" rx="2.5" ry="2.5" style="stroke:#AFA9EC;stroke-width:0.5;" width="86" x="493" y="1671.4844"/><text fill="#26215C" font-family="sans-serif" font-size="12" lengthAdjust="spacing" textLength="72" x="500" y="1689.623">CoinService</text><rect fill="#FFFFFF" height="41.9375" rx="2.5" ry="2.5" style="stroke:#AFA9EC;stroke-width:0.5;" width="120" x="589" y="36.0313"/><text fill="#26215C" font-family="sans-serif" font-size="12" lengthAdjust="spacing" textLength="106" x="596" y="54.1699">ChemistryService</text><text fill="#26215C" font-family="sans-serif" font-size="12" lengthAdjust="spacing" textLength="59" x="619.5" y="68.1387">(@Async)</text><rect fill="#FFFFFF" height="41.9375" rx="2.5" ry="2.5" style="stroke:#AFA9EC;stroke-width:0.5;" width="120" x="589" y="1671.4844"/><text fill="#26215C" font-family="sans-serif" font-size="12" lengthAdjust="spacing" textLength="106" x="596" y="1689.623">ChemistryService</text><text fill="#26215C" font-family="sans-serif" font-size="12" lengthAdjust="spacing" textLength="59" x="619.5" y="1703.5918">(@Async)</text><rect fill="#FFFFFF" height="27.9688" rx="2.5" ry="2.5" style="stroke:#AFA9EC;stroke-width:0.5;" width="79" x="830.5" y="50"/><text fill="#26215C" font-family="sans-serif" font-size="12" lengthAdjust="spacing" textLength="65" x="837.5" y="68.1387">LlmService</text><rect fill="#FFFFFF" height="27.9688" rx="2.5" ry="2.5" style="stroke:#AFA9EC;stroke-width:0.5;" width="79" x="830.5" y="1671.4844"/><text fill="#26215C" font-family="sans-serif" font-size="12" lengthAdjust="spacing" textLength="65" x="837.5" y="1689.623">LlmService</text><rect fill="#FFFFFF" height="27.9688" rx="2.5" ry="2.5" style="stroke:#AFA9EC;stroke-width:0.5;" width="82" x="919.5" y="50"/><text fill="#26215C" font-family="sans-serif" font-size="12" lengthAdjust="spacing" textLength="68" x="926.5" y="68.1387">SseService</text><rect fill="#FFFFFF" height="27.9688" rx="2.5" ry="2.5" style="stroke:#AFA9EC;stroke-width:0.5;" width="82" x="919.5" y="1671.4844"/><text fill="#26215C" font-family="sans-serif" font-size="12" lengthAdjust="spacing" textLength="68" x="926.5" y="1689.623">SseService</text><rect fill="#FFFFFF" height="27.9688" rx="2.5" ry="2.5" style="stroke:#AFA9EC;stroke-width:0.5;" width="130" x="1139.5" y="50"/><text fill="#26215C" font-family="sans-serif" font-size="12" lengthAdjust="spacing" textLength="116" x="1146.5" y="68.1387">NotificationService</text><rect fill="#FFFFFF" height="27.9688" rx="2.5" ry="2.5" style="stroke:#AFA9EC;stroke-width:0.5;" width="130" x="1139.5" y="1671.4844"/><text fill="#26215C" font-family="sans-serif" font-size="12" lengthAdjust="spacing" textLength="116" x="1146.5" y="1689.623">NotificationService</text><text fill="#26215C" font-family="sans-serif" font-size="12" lengthAdjust="spacing" textLength="39" x="1309" y="76.1387">MySQL</text><path d="M1313.5,29 C1313.5,19 1331.5,19 1331.5,19 C1331.5,19 1349.5,19 1349.5,29 L1349.5,55 C1349.5,65 1331.5,65 1331.5,65 C1331.5,65 1313.5,65 1313.5,55 L1313.5,29 " fill="#E2E2F0" style="stroke:#181818;stroke-width:1.5;"/><path d="M1313.5,29 C1313.5,39 1331.5,39 1331.5,39 C1331.5,39 1349.5,39 1349.5,29 " fill="none" style="stroke:#181818;stroke-width:1.5;"/><text fill="#26215C" font-family="sans-serif" font-size="12" lengthAdjust="spacing" textLength="39" x="1309" y="1682.623">MySQL</text><path d="M1313.5,1695.4531 C1313.5,1685.4531 1331.5,1685.4531 1331.5,1685.4531 C1331.5,1685.4531 1349.5,1685.4531 1349.5,1695.4531 L1349.5,1721.4531 C1349.5,1731.4531 1331.5,1731.4531 1331.5,1731.4531 C1331.5,1731.4531 1313.5,1731.4531 1313.5,1721.4531 L1313.5,1695.4531 " fill="#E2E2F0" style="stroke:#181818;stroke-width:1.5;"/><path d="M1313.5,1695.4531 C1313.5,1705.4531 1331.5,1705.4531 1331.5,1705.4531 C1331.5,1705.4531 1349.5,1705.4531 1349.5,1695.4531 " fill="none" style="stroke:#181818;stroke-width:1.5;"/><rect fill="#F5F3FF" height="323.4609" style="stroke:#AFA9EC;stroke-width:1.0;" width="10" x="370" y="359.6719"/><rect fill="#F5F3FF" height="203.2578" style="stroke:#AFA9EC;stroke-width:1.0;" width="10" x="531" y="385.3125"/><rect fill="#F5F3FF" height="946.7109" style="stroke:#AFA9EC;stroke-width:1.0;" width="10" x="644" y="708.7734"/><rect fill="#F5F3FF" height="177.4063" style="stroke:#AFA9EC;stroke-width:1.0;" width="10" x="865" y="928.3594"/><rect fill="#F5F3FF" height="25.6406" style="stroke:#AFA9EC;stroke-width:1.0;" width="10" x="955.5" y="1259.5781"/><rect fill="#F5F3FF" height="235.0938" style="stroke:#AFA9EC;stroke-width:1.0;" width="10" x="1199.5" y="1413.3906"/><rect fill="#EEEDFE" height="3" style="stroke:#EEEDFE;stroke-width:1.0;" width="1463" x="0" y="108.9531"/><line style="stroke:#534AB7;stroke-width:1.0;" x1="0" x2="1463" y1="108.9531" y2="108.9531"/><line style="stroke:#534AB7;stroke-width:1.0;" x1="0" x2="1463" y1="111.9531" y2="111.9531"/><rect fill="#EEEDFE" height="21.9688" style="stroke:#534AB7;stroke-width:2.0;" width="80" x="691.5" y="98.9688"/><text fill="#3C3489" font-family="sans-serif" font-size="12" font-weight="bold" lengthAdjust="spacing" textLength="62" x="697.5" y="114.1074">SSE &#50672;&#44208; &#49688;&#47549;</text><polygon fill="#7F77DD" points="202,144.5781,212,148.5781,202,152.5781,206,148.5781" style="stroke:#7F77DD;stroke-width:1.0;"/><line style="stroke:#7F77DD;stroke-width:1.0;" x1="64" x2="208" y1="148.5781" y2="148.5781"/><text fill="#534AB7" font-family="sans-serif" font-size="10" lengthAdjust="spacing" textLength="33" x="122.5" y="144.2197">&#54168;&#51060;&#51648; &#51652;&#51077;</text><polygon fill="#7F77DD" points="948.5,170.2188,958.5,174.2188,948.5,178.2188,952.5,174.2188" style="stroke:#7F77DD;stroke-width:1.0;"/><line style="stroke:#7F77DD;stroke-width:1.0;" x1="214" x2="954.5" y1="174.2188" y2="174.2188"/><text fill="#534AB7" font-family="sans-serif" font-size="10" lengthAdjust="spacing" textLength="122" x="526.25" y="169.8604">GET /notifications/stream</text><path d="M965,187.2188 L965,220.2188 L1106,220.2188 L1106,197.2188 L1096,187.2188 L965,187.2188 " fill="#F5F3FF" style="stroke:#AFA9EC;stroke-width:0.5;"/><path d="M1096,187.2188 L1096,197.2188 L1106,197.2188 L1096,187.2188 " fill="#F5F3FF" style="stroke:#AFA9EC;stroke-width:0.5;"/><text fill="#534AB7" font-family="sans-serif" font-size="10" lengthAdjust="spacing" textLength="94" x="971" y="201.501">SseEmitter &#49373;&#49457; &#54980; &#48372;&#44288;</text><text fill="#534AB7" font-family="sans-serif" font-size="10" lengthAdjust="spacing" textLength="120" x="971" y="213.1416">Last-Event-ID &#44592;&#48152; &#51116;&#51204;&#49569; &#51648;&#50896;</text><polygon fill="#7F77DD" points="225,239.1406,215,243.1406,225,247.1406,221,243.1406" style="stroke:#7F77DD;stroke-width:1.0;"/><line style="stroke:#7F77DD;stroke-width:1.0;stroke-dasharray:2.0,2.0;" x1="219" x2="959.5" y1="243.1406" y2="243.1406"/><text fill="#534AB7" font-family="sans-serif" font-size="10" lengthAdjust="spacing" textLength="152" x="511.25" y="238.7822">SSE &#50672;&#44208; &#50976;&#51648; (text/event-stream)</text><rect fill="#EEEDFE" height="3" style="stroke:#EEEDFE;stroke-width:1.0;" width="1463" x="0" y="271.125"/><line style="stroke:#534AB7;stroke-width:1.0;" x1="0" x2="1463" y1="271.125" y2="271.125"/><line style="stroke:#534AB7;stroke-width:1.0;" x1="0" x2="1463" y1="274.125" y2="274.125"/><rect fill="#EEEDFE" height="21.9688" style="stroke:#534AB7;stroke-width:2.0;" width="93" x="685" y="261.1406"/><text fill="#3C3489" font-family="sans-serif" font-size="12" font-weight="bold" lengthAdjust="spacing" textLength="75" x="691" y="276.2793">&#52992;&#48120; &#48372;&#44256;&#49436; &#48156;&#54665; &#50836;&#52397;</text><polygon fill="#7F77DD" points="202,318.3906,212,322.3906,202,326.3906,206,322.3906" style="stroke:#7F77DD;stroke-width:1.0;"/><line style="stroke:#7F77DD;stroke-width:1.0;" x1="64" x2="208" y1="322.3906" y2="322.3906"/><text fill="#534AB7" font-family="sans-serif" font-size="10" lengthAdjust="spacing" textLength="64" x="107" y="306.3916">&#46041;&#47308; &#47785;&#47197;&#50640;&#49436; B &#49440;&#53469;</text><text fill="#534AB7" font-family="sans-serif" font-size="10" lengthAdjust="spacing" textLength="69" x="104.5" y="318.0322">'&#52992;&#48120; &#48372;&#44256;&#49436; &#48156;&#54665;' &#53364;&#47533;</text><polygon fill="#7F77DD" points="358,355.6719,368,359.6719,358,363.6719,362,359.6719" style="stroke:#7F77DD;stroke-width:1.0;"/><line style="stroke:#7F77DD;stroke-width:1.0;" x1="214" x2="364" y1="359.6719" y2="359.6719"/><text fill="#534AB7" font-family="sans-serif" font-size="10" lengthAdjust="spacing" textLength="120" x="232" y="343.6729">POST /chemistry-reports</text><text fill="#534AB7" font-family="sans-serif" font-size="10" lengthAdjust="spacing" textLength="76" x="254" y="355.3135">{ partnerId: B }</text><polygon fill="#7F77DD" points="519,381.3125,529,385.3125,519,389.3125,523,385.3125" style="stroke:#7F77DD;stroke-width:1.0;"/><line style="stroke:#7F77DD;stroke-width:1.0;" x1="380" x2="525" y1="385.3125" y2="385.3125"/><text fill="#534AB7" font-family="sans-serif" font-size="10" lengthAdjust="spacing" textLength="132" x="389.5" y="380.9541">checkAndDeduct(userId: A)</text><path d="M10,400.3125 L74,400.3125 L74,406.2813 L64,416.2813 L10,416.2813 L10,400.3125 " fill="#EEEDFE" style="stroke:#534AB7;stroke-width:1.5;"/><rect fill="none" height="1255.1719" style="stroke:#534AB7;stroke-width:1.5;" width="1443" x="10" y="400.3125"/><text fill="#26215C" font-family="sans-serif" font-size="12" font-weight="bold" lengthAdjust="spacing" textLength="19" x="25" y="412.4512">alt</text><text fill="#3C3489" font-family="sans-serif" font-size="11" font-weight="bold" lengthAdjust="spacing" textLength="124" x="89" y="412.5229">[&#53076;&#51064; &#48512;&#51313; (coins == 0)]</text><polygon fill="#7F77DD" points="391,429.9219,381,433.9219,391,437.9219,387,433.9219" style="stroke:#7F77DD;stroke-width:1.0;"/><line style="stroke:#7F77DD;stroke-width:1.0;stroke-dasharray:2.0,2.0;" x1="385" x2="530" y1="433.9219" y2="433.9219"/><text fill="#534AB7" font-family="sans-serif" font-size="10" lengthAdjust="spacing" textLength="111" x="400" y="429.5635">INSUFFICIENT_COINS</text><polygon fill="#7F77DD" points="225,455.5625,215,459.5625,225,463.5625,221,459.5625" style="stroke:#7F77DD;stroke-width:1.0;"/><line style="stroke:#7F77DD;stroke-width:1.0;stroke-dasharray:2.0,2.0;" x1="219" x2="369" y1="459.5625" y2="459.5625"/><text fill="#534AB7" font-family="sans-serif" font-size="10" lengthAdjust="spacing" textLength="132" x="226" y="455.2041">400 INSUFFICIENT_COINS</text><polygon fill="#7F77DD" points="75,481.2031,65,485.2031,75,489.2031,71,485.2031" style="stroke:#7F77DD;stroke-width:1.0;"/><line style="stroke:#7F77DD;stroke-width:1.0;stroke-dasharray:2.0,2.0;" x1="69" x2="213" y1="485.2031" y2="485.2031"/><text fill="#534AB7" font-family="sans-serif" font-size="10" lengthAdjust="spacing" textLength="42" x="118" y="480.8447">&#53076;&#51064; &#48512;&#51313; &#50504;&#45236;</text><line style="stroke:#534AB7;stroke-width:1.0;stroke-dasharray:2.0,2.0;" x1="10" x2="1453" y1="494.2031" y2="494.2031"/><text fill="#3C3489" font-family="sans-serif" font-size="11" font-weight="bold" lengthAdjust="spacing" textLength="42" x="15" y="504.4136">[&#53076;&#51064; &#52649;&#48516;]</text><polygon fill="#7F77DD" points="1319.5,521.6484,1329.5,525.6484,1319.5,529.6484,1323.5,525.6484" style="stroke:#7F77DD;stroke-width:1.0;"/><line style="stroke:#7F77DD;stroke-width:1.0;" x1="541" x2="1325.5" y1="525.6484" y2="525.6484"/><text fill="#534AB7" font-family="sans-serif" font-size="10" lengthAdjust="spacing" textLength="174" x="849.25" y="521.29">UPDATE users SET coins = coins - 1</text><polygon fill="#7F77DD" points="1319.5,558.9297,1329.5,562.9297,1319.5,566.9297,1323.5,562.9297" style="stroke:#7F77DD;stroke-width:1.0;"/><line style="stroke:#7F77DD;stroke-width:1.0;" x1="541" x2="1325.5" y1="562.9297" y2="562.9297"/><text fill="#534AB7" font-family="sans-serif" font-size="10" lengthAdjust="spacing" textLength="123" x="874.75" y="546.9307">INSERT coin_transactions</text><text fill="#534AB7" font-family="sans-serif" font-size="10" lengthAdjust="spacing" textLength="218" x="827.25" y="558.5713">(amount=-1, reason=CHEMISTRY_REPORT)</text><polygon fill="#7F77DD" points="391,584.5703,381,588.5703,391,592.5703,387,588.5703" style="stroke:#7F77DD;stroke-width:1.0;"/><line style="stroke:#7F77DD;stroke-width:1.0;stroke-dasharray:2.0,2.0;" x1="385" x2="535" y1="588.5703" y2="588.5703"/><text fill="#534AB7" font-family="sans-serif" font-size="10" lengthAdjust="spacing" textLength="27" x="444.5" y="584.2119">&#52264;&#44048; &#50756;&#47308;</text><polygon fill="#7F77DD" points="637,610.2109,647,614.2109,637,618.2109,641,614.2109" style="stroke:#7F77DD;stroke-width:1.0;"/><line style="stroke:#7F77DD;stroke-width:1.0;" x1="380" x2="643" y1="614.2109" y2="614.2109"/><text fill="#534AB7" font-family="sans-serif" font-size="10" lengthAdjust="spacing" textLength="194" x="417.5" y="609.8525">issueAsync(requesterId: A, partnerId: B)</text><path d="M654,627.2109 L654,660.2109 L791,660.2109 L791,637.2109 L781,627.2109 L654,627.2109 " fill="#F5F3FF" style="stroke:#AFA9EC;stroke-width:0.5;"/><path d="M781,627.2109 L781,637.2109 L791,637.2109 L781,627.2109 " fill="#F5F3FF" style="stroke:#AFA9EC;stroke-width:0.5;"/><text fill="#534AB7" font-family="sans-serif" font-size="10" lengthAdjust="spacing" textLength="116" x="660" y="641.4932">@Async &#8212; &#48324;&#46020; &#49828;&#47112;&#46300;&#50640;&#49436; &#49892;&#54665;</text><text fill="#534AB7" font-family="sans-serif" font-size="10" lengthAdjust="spacing" textLength="42" x="660" y="653.1338">&#54840;&#52636; &#51593;&#49884; &#48152;&#54872;</text><polygon fill="#7F77DD" points="225,679.1328,215,683.1328,225,687.1328,221,683.1328" style="stroke:#7F77DD;stroke-width:1.0;"/><line style="stroke:#7F77DD;stroke-width:1.0;stroke-dasharray:2.0,2.0;" x1="219" x2="374" y1="683.1328" y2="683.1328"/><text fill="#534AB7" font-family="sans-serif" font-size="10" lengthAdjust="spacing" textLength="66" x="261.5" y="678.7744">202 Accepted</text><polygon fill="#7F77DD" points="75,704.7734,65,708.7734,75,712.7734,71,708.7734" style="stroke:#7F77DD;stroke-width:1.0;"/><line style="stroke:#7F77DD;stroke-width:1.0;stroke-dasharray:2.0,2.0;" x1="69" x2="213" y1="708.7734" y2="708.7734"/><text fill="#534AB7" font-family="sans-serif" font-size="10" lengthAdjust="spacing" textLength="76" x="101" y="704.415">"&#48372;&#44256;&#49436; &#49373;&#49457; &#51473;..." &#50504;&#45236;</text><rect fill="#EEEDFE" height="3" style="stroke:#EEEDFE;stroke-width:1.0;" width="1463" x="0" y="736.7578"/><line style="stroke:#534AB7;stroke-width:1.0;" x1="0" x2="1463" y1="736.7578" y2="736.7578"/><line style="stroke:#534AB7;stroke-width:1.0;" x1="0" x2="1463" y1="739.7578" y2="739.7578"/><rect fill="#EEEDFE" height="21.9688" style="stroke:#534AB7;stroke-width:2.0;" width="142" x="660.5" y="726.7734"/><text fill="#3C3489" font-family="sans-serif" font-size="12" font-weight="bold" lengthAdjust="spacing" textLength="124" x="666.5" y="741.9121">&#48708;&#46041;&#44592; LLM &#54840;&#52636; (&#48324;&#46020; &#49828;&#47112;&#46300;)</text><polygon fill="#7F77DD" points="1319.5,784.0234,1329.5,788.0234,1319.5,792.0234,1323.5,788.0234" style="stroke:#7F77DD;stroke-width:1.0;"/><line style="stroke:#7F77DD;stroke-width:1.0;" x1="654" x2="1325.5" y1="788.0234" y2="788.0234"/><text fill="#534AB7" font-family="sans-serif" font-size="10" lengthAdjust="spacing" textLength="106" x="939.75" y="772.0244">SELECT &#52572;&#49888; &#51088;&#44592; &#54217;&#51221; &#48260;&#53431;&#44050;</text><text fill="#534AB7" font-family="sans-serif" font-size="10" lengthAdjust="spacing" textLength="108" x="938.75" y="783.665">(A&#51032; d,i,s,c + B&#51032; d,i,s,c)</text><polygon fill="#7F77DD" points="665,809.6641,655,813.6641,665,817.6641,661,813.6641" style="stroke:#7F77DD;stroke-width:1.0;"/><line style="stroke:#7F77DD;stroke-width:1.0;stroke-dasharray:2.0,2.0;" x1="659" x2="1330.5" y1="813.6641" y2="813.6641"/><text fill="#534AB7" font-family="sans-serif" font-size="10" lengthAdjust="spacing" textLength="62" x="961.75" y="809.3057">A &#48260;&#53431;&#44050;, B &#48260;&#53431;&#44050;</text><path d="M20,828.6641 L84,828.6641 L84,834.6328 L74,844.6328 L20,844.6328 L20,828.6641 " fill="#EEEDFE" style="stroke:#534AB7;stroke-width:1.5;"/><rect fill="none" height="819.8203" style="stroke:#534AB7;stroke-width:1.5;" width="1423" x="20" y="828.6641"/><text fill="#26215C" font-family="sans-serif" font-size="12" font-weight="bold" lengthAdjust="spacing" textLength="19" x="35" y="840.8027">alt</text><text fill="#3C3489" font-family="sans-serif" font-size="11" font-weight="bold" lengthAdjust="spacing" textLength="110" x="99" y="840.8745">[A &#46608;&#45716; B&#51032; &#44160;&#49324; &#44208;&#44284; &#50630;&#51020;]</text><polygon fill="#7F77DD" points="1192.5,858.2734,1202.5,862.2734,1192.5,866.2734,1196.5,862.2734" style="stroke:#7F77DD;stroke-width:1.0;"/><line style="stroke:#7F77DD;stroke-width:1.0;" x1="654" x2="1198.5" y1="862.2734" y2="862.2734"/><text fill="#534AB7" font-family="sans-serif" font-size="10" lengthAdjust="spacing" textLength="172" x="843.25" y="857.915">sendNotification(A, "&#49345;&#45824;&#48169; &#44160;&#49324; &#44208;&#44284; &#50630;&#51020;")</text><polygon fill="#7F77DD" points="948.5,883.9141,958.5,887.9141,948.5,891.9141,952.5,887.9141" style="stroke:#7F77DD;stroke-width:1.0;"/><line style="stroke:#7F77DD;stroke-width:1.0;" x1="654" x2="954.5" y1="887.9141" y2="887.9141"/><text fill="#534AB7" font-family="sans-serif" font-size="10" lengthAdjust="spacing" textLength="150" x="732.25" y="883.5557">push(userId: A, event: ERROR)</text><line style="stroke:#534AB7;stroke-width:1.0;stroke-dasharray:2.0,2.0;" x1="20" x2="1443" y1="896.9141" y2="896.9141"/><text fill="#3C3489" font-family="sans-serif" font-size="11" font-weight="bold" lengthAdjust="spacing" textLength="89" x="25" y="907.1245">[&#46160; &#49324;&#46988; &#47784;&#46160; &#44208;&#44284; &#51080;&#51020;]</text><polygon fill="#7F77DD" points="853,924.3594,863,928.3594,853,932.3594,857,928.3594" style="stroke:#7F77DD;stroke-width:1.0;"/><line style="stroke:#7F77DD;stroke-width:1.0;" x1="654" x2="859" y1="928.3594" y2="928.3594"/><text fill="#534AB7" font-family="sans-serif" font-size="10" lengthAdjust="spacing" textLength="192" x="663.5" y="924.001">generateChemistryReport(A&#48260;&#53431;&#44050;, B&#48260;&#53431;&#44050;)</text><line style="stroke:#7F77DD;stroke-width:1.0;" x1="875" x2="917" y1="965.6406" y2="965.6406"/><line style="stroke:#7F77DD;stroke-width:1.0;" x1="917" x2="917" y1="965.6406" y2="978.6406"/><line style="stroke:#7F77DD;stroke-width:1.0;" x1="876" x2="917" y1="978.6406" y2="978.6406"/><polygon fill="#7F77DD" points="886,974.6406,876,978.6406,886,982.6406,882,978.6406" style="stroke:#7F77DD;stroke-width:1.0;"/><text fill="#534AB7" font-family="sans-serif" font-size="10" lengthAdjust="spacing" textLength="54" x="882" y="949.6416">&#52992;&#48120; &#54532;&#47212;&#54532;&#53944; &#44396;&#49457;</text><text fill="#534AB7" font-family="sans-serif" font-size="10" lengthAdjust="spacing" textLength="50" x="884" y="961.2822">(6&#44060; &#49465;&#49496; &#50836;&#52397;)</text><path d="M880,991.6406 L880,1082.6406 L970,1082.6406 L970,1001.6406 L960,991.6406 L880,991.6406 " fill="#F5F3FF" style="stroke:#AFA9EC;stroke-width:0.5;"/><path d="M960,991.6406 L960,1001.6406 L970,1001.6406 L960,991.6406 " fill="#F5F3FF" style="stroke:#AFA9EC;stroke-width:0.5;"/><text fill="#534AB7" font-family="sans-serif" font-size="10" lengthAdjust="spacing" textLength="30" x="886" y="1005.9229">&#49465;&#49496; &#44396;&#49457;:</text><text fill="#534AB7" font-family="sans-serif" font-size="10" lengthAdjust="spacing" textLength="69" x="886" y="1017.5635">1. &#46160; &#49324;&#46988;&#51032; &#49457;&#54693; &#50836;&#50557;</text><text fill="#534AB7" font-family="sans-serif" font-size="10" lengthAdjust="spacing" textLength="45" x="886" y="1029.2041">2. &#54801;&#50629; &#49884;&#45320;&#51648;</text><text fill="#534AB7" font-family="sans-serif" font-size="10" lengthAdjust="spacing" textLength="45" x="886" y="1040.8447">3. &#44040;&#46321; &#54252;&#51064;&#53944;</text><text fill="#534AB7" font-family="sans-serif" font-size="10" lengthAdjust="spacing" textLength="54" x="886" y="1052.4854">4. &#49548;&#53685; &#48169;&#49885; &#52264;&#51060;</text><text fill="#534AB7" font-family="sans-serif" font-size="10" lengthAdjust="spacing" textLength="66" x="886" y="1064.126">5. &#49436;&#47196;&#50640;&#44172; &#47582;&#45716; &#50669;&#54624;</text><text fill="#534AB7" font-family="sans-serif" font-size="10" lengthAdjust="spacing" textLength="33" x="886" y="1075.7666">6. &#54801;&#50629; &#54017;</text><polygon fill="#7F77DD" points="665,1101.7656,655,1105.7656,665,1109.7656,661,1105.7656" style="stroke:#7F77DD;stroke-width:1.0;"/><line style="stroke:#7F77DD;stroke-width:1.0;stroke-dasharray:2.0,2.0;" x1="659" x2="869" y1="1105.7656" y2="1105.7656"/><text fill="#534AB7" font-family="sans-serif" font-size="10" lengthAdjust="spacing" textLength="71" x="726.5" y="1101.4072">Markdown &#48372;&#44256;&#49436;</text><polygon fill="#7F77DD" points="1319.5,1139.0469,1329.5,1143.0469,1319.5,1147.0469,1323.5,1143.0469" style="stroke:#7F77DD;stroke-width:1.0;"/><line style="stroke:#7F77DD;stroke-width:1.0;" x1="654" x2="1325.5" y1="1143.0469" y2="1143.0469"/><text fill="#534AB7" font-family="sans-serif" font-size="10" lengthAdjust="spacing" textLength="128" x="928.75" y="1127.0479">INSERT chemistry_reports</text><text fill="#534AB7" font-family="sans-serif" font-size="10" lengthAdjust="spacing" textLength="151" x="917.25" y="1138.6885">(requesterId, partnerId, report)</text><polygon fill="#7F77DD" points="665,1164.6875,655,1168.6875,665,1172.6875,661,1168.6875" style="stroke:#7F77DD;stroke-width:1.0;"/><line style="stroke:#7F77DD;stroke-width:1.0;stroke-dasharray:2.0,2.0;" x1="659" x2="1330.5" y1="1168.6875" y2="1168.6875"/><text fill="#534AB7" font-family="sans-serif" font-size="10" lengthAdjust="spacing" textLength="39" x="973.25" y="1164.3291">reportId</text><rect fill="#EEEDFE" height="3" style="stroke:#EEEDFE;stroke-width:1.0;" width="1463" x="0" y="1196.6719"/><line style="stroke:#534AB7;stroke-width:1.0;" x1="0" x2="1463" y1="1196.6719" y2="1196.6719"/><line style="stroke:#534AB7;stroke-width:1.0;" x1="0" x2="1463" y1="1199.6719" y2="1199.6719"/><rect fill="#EEEDFE" height="21.9688" style="stroke:#534AB7;stroke-width:2.0;" width="87" x="688" y="1186.6875"/><text fill="#3C3489" font-family="sans-serif" font-size="12" font-weight="bold" lengthAdjust="spacing" textLength="69" x="694" y="1201.8262">&#48156;&#54665;&#51088; SSE &#54392;&#49884;</text><polygon fill="#7F77DD" points="943.5,1255.5781,953.5,1259.5781,943.5,1263.5781,947.5,1259.5781" style="stroke:#7F77DD;stroke-width:1.0;"/><line style="stroke:#7F77DD;stroke-width:1.0;" x1="654" x2="949.5" y1="1259.5781" y2="1259.5781"/><text fill="#534AB7" font-family="sans-serif" font-size="10" lengthAdjust="spacing" textLength="73" x="768.25" y="1231.9385">push(userId: A,</text><text fill="#534AB7" font-family="sans-serif" font-size="10" lengthAdjust="spacing" textLength="160" x="724.75" y="1243.5791">event: CHEMISTRY_COMPLETE,</text><text fill="#534AB7" font-family="sans-serif" font-size="10" lengthAdjust="spacing" textLength="89" x="760.25" y="1255.2197">data: { reportId })</text><polygon fill="#7F77DD" points="225,1281.2188,215,1285.2188,225,1289.2188,221,1285.2188" style="stroke:#7F77DD;stroke-width:1.0;"/><line style="stroke:#7F77DD;stroke-width:1.0;stroke-dasharray:2.0,2.0;" x1="219" x2="959.5" y1="1285.2188" y2="1285.2188"/><text fill="#534AB7" font-family="sans-serif" font-size="10" lengthAdjust="spacing" textLength="57" x="558.75" y="1280.8604">SSE &#51060;&#48292;&#53944; &#51204;&#49569;</text><polygon fill="#7F77DD" points="75,1318.5,65,1322.5,75,1326.5,71,1322.5" style="stroke:#7F77DD;stroke-width:1.0;"/><line style="stroke:#7F77DD;stroke-width:1.0;stroke-dasharray:2.0,2.0;" x1="69" x2="213" y1="1322.5" y2="1322.5"/><text fill="#534AB7" font-family="sans-serif" font-size="10" lengthAdjust="spacing" textLength="33" x="122.5" y="1306.501">&#53664;&#49828;&#53944; &#50508;&#47548;</text><text fill="#534AB7" font-family="sans-serif" font-size="10" lengthAdjust="spacing" textLength="86" x="96" y="1318.1416">"&#52992;&#48120; &#48372;&#44256;&#49436;&#44032; &#50756;&#49457;&#46096;&#50612;&#50836;!"</text><rect fill="#EEEDFE" height="3" style="stroke:#EEEDFE;stroke-width:1.0;" width="1463" x="0" y="1350.4844"/><line style="stroke:#534AB7;stroke-width:1.0;" x1="0" x2="1463" y1="1350.4844" y2="1350.4844"/><line style="stroke:#534AB7;stroke-width:1.0;" x1="0" x2="1463" y1="1353.4844" y2="1353.4844"/><rect fill="#EEEDFE" height="21.9688" style="stroke:#534AB7;stroke-width:2.0;" width="75" x="694" y="1340.5"/><text fill="#3C3489" font-family="sans-serif" font-size="12" font-weight="bold" lengthAdjust="spacing" textLength="57" x="700" y="1355.6387">&#49345;&#45824;&#48169; &#51064;&#50545; &#50508;&#47548;</text><polygon fill="#7F77DD" points="1187.5,1409.3906,1197.5,1413.3906,1187.5,1417.3906,1191.5,1413.3906" style="stroke:#7F77DD;stroke-width:1.0;"/><line style="stroke:#7F77DD;stroke-width:1.0;" x1="654" x2="1193.5" y1="1413.3906" y2="1413.3906"/><text fill="#534AB7" font-family="sans-serif" font-size="10" lengthAdjust="spacing" textLength="128" x="862.75" y="1385.751">sendNotification(userId: B,</text><text fill="#534AB7" font-family="sans-serif" font-size="10" lengthAdjust="spacing" textLength="138" x="857.75" y="1397.3916">type: CHEMISTRY_REPORT,</text><text fill="#534AB7" font-family="sans-serif" font-size="10" lengthAdjust="spacing" textLength="89" x="882.25" y="1409.0322">data: { reportId })</text><polygon fill="#7F77DD" points="1319.5,1446.6719,1329.5,1450.6719,1319.5,1454.6719,1323.5,1450.6719" style="stroke:#7F77DD;stroke-width:1.0;"/><line style="stroke:#7F77DD;stroke-width:1.0;" x1="1209.5" x2="1325.5" y1="1450.6719" y2="1450.6719"/><text fill="#534AB7" font-family="sans-serif" font-size="10" lengthAdjust="spacing" textLength="98" x="1221.5" y="1434.6729">INSERT notifications</text><text fill="#534AB7" font-family="sans-serif" font-size="10" lengthAdjust="spacing" textLength="66" x="1237.5" y="1446.3135">(userId: B, ...)</text><polygon fill="#7F77DD" points="1220.5,1472.3125,1210.5,1476.3125,1220.5,1480.3125,1216.5,1476.3125" style="stroke:#7F77DD;stroke-width:1.0;"/><line style="stroke:#7F77DD;stroke-width:1.0;stroke-dasharray:2.0,2.0;" x1="1214.5" x2="1330.5" y1="1476.3125" y2="1476.3125"/><text fill="#534AB7" font-family="sans-serif" font-size="10" lengthAdjust="spacing" textLength="62" x="1239.5" y="1471.9541">notificationId</text><path d="M98,1491.3125 L162,1491.3125 L162,1497.2813 L152,1507.2813 L98,1507.2813 L98,1491.3125 " fill="#EEEDFE" style="stroke:#534AB7;stroke-width:1.5;"/><rect fill="none" height="150.1719" style="stroke:#534AB7;stroke-width:1.5;" width="1335" x="98" y="1491.3125"/><text fill="#26215C" font-family="sans-serif" font-size="12" font-weight="bold" lengthAdjust="spacing" textLength="19" x="113" y="1503.4512">alt</text><text fill="#3C3489" font-family="sans-serif" font-size="11" font-weight="bold" lengthAdjust="spacing" textLength="83" x="177" y="1503.5229">[B&#44032; SSE &#50672;&#44208; &#51473;]</text><polygon fill="#7F77DD" points="971.5,1520.9219,961.5,1524.9219,971.5,1528.9219,967.5,1524.9219" style="stroke:#7F77DD;stroke-width:1.0;"/><line style="stroke:#7F77DD;stroke-width:1.0;" x1="965.5" x2="1198.5" y1="1524.9219" y2="1524.9219"/><text fill="#534AB7" font-family="sans-serif" font-size="10" lengthAdjust="spacing" textLength="215" x="972.5" y="1520.5635">push(userId: B, event: NEW_NOTIFICATION)</text><polygon fill="#7F77DD" points="153,1546.5625,143,1550.5625,153,1554.5625,149,1550.5625" style="stroke:#7F77DD;stroke-width:1.0;"/><line style="stroke:#7F77DD;stroke-width:1.0;stroke-dasharray:2.0,2.0;" x1="147" x2="959.5" y1="1550.5625" y2="1550.5625"/><text fill="#534AB7" font-family="sans-serif" font-size="10" lengthAdjust="spacing" textLength="57" x="522.75" y="1546.2041">SSE &#51060;&#48292;&#53944; &#51204;&#49569;</text><polygon fill="#7F77DD" points="202,1572.2031,212,1576.2031,202,1580.2031,206,1576.2031" style="stroke:#7F77DD;stroke-width:1.0;"/><line style="stroke:#7F77DD;stroke-width:1.0;" x1="142" x2="208" y1="1576.2031" y2="1576.2031"/><text fill="#534AB7" font-family="sans-serif" font-size="10" lengthAdjust="spacing" textLength="27" x="164.5" y="1571.8447">&#50508;&#47548; &#53364;&#47533;</text><polygon fill="#7F77DD" points="1319.5,1597.8438,1329.5,1601.8438,1319.5,1605.8438,1323.5,1601.8438" style="stroke:#7F77DD;stroke-width:1.0;"/><line style="stroke:#7F77DD;stroke-width:1.0;" x1="214" x2="1325.5" y1="1601.8438" y2="1601.8438"/><text fill="#534AB7" font-family="sans-serif" font-size="10" lengthAdjust="spacing" textLength="127" x="709.25" y="1597.4854">DELETE /notifications/{id}</text><path d="M1336,1614.8438 L1336,1635.8438 L1423,1635.8438 L1423,1624.8438 L1413,1614.8438 L1336,1614.8438 " fill="#F5F3FF" style="stroke:#AFA9EC;stroke-width:0.5;"/><path d="M1413,1614.8438 L1413,1624.8438 L1423,1624.8438 L1413,1614.8438 " fill="#F5F3FF" style="stroke:#AFA9EC;stroke-width:0.5;"/><text fill="#534AB7" font-family="sans-serif" font-size="10" lengthAdjust="spacing" textLength="66" x="1342" y="1629.126">&#50508;&#47548; &#53364;&#47533; &#49884; &#51593;&#49884; &#49325;&#51228;</text><!--SRC=[bLTRRnD757xVNt7gFk2eSSY5G8aKL5ysr58kD3QgAaMA5diIjZYxxku6cg989fWeG5IIDW43SUIeAPGgg2O46YJuCttqplw7dfcTNUzkR4eJoSxCkSuvt_bcObvJjR9YA0jmHIbScpVqHQsOrakw0P-F9TclPFeQHJAdB9QiCLsp9fK50h5akLmYaCl0HTswgXPWakYzO2gQcJ29eSx5Ejlcr9y830ns5ehOWsS71uRJ0HMJ_B18j0AP8AQfp9DaIPtNe40qYnXIG0q_BRMWbXNDWfiIGEh4eVWFa-X6aHXY5yzvNaxZxiaKt3qlv-LWCALWeUB_27DkxDovJ2OSPYWzTERByv4mOcKjONclwALYEAvN2nuwQHZwZQX_lXa8CZnq9faw5nIuaVfnQroT8-EgHZeNn9UUEE7ms10_uKNSBOUC_MYkA6efot9cJFR4dKhX2zmi1zfHYalT4ycerrLCediyJw5Zha9uCfrGwJNT8bqwxgNndy3oGmRxW55SECNivexpy2xTtO2uysITFjs0P4yC51Ckur0bFIrw-vQzNh6RBtojL5ih9GNd83P9VhJwlZUvE5rISMZ2ylHLig2Qbh6KneGClLGYXglhBoFwkghbY75TBH2XfsfTF0gr6It-LT9SqWfkZhuuR3LUMWYwnMLOdZD9K8xBo3brIvrJ2ugbwg7y-FwIL5GivOfY8czDBEM-6UUYJ4gIHaSXbvE1Fcgs3fj0rshsimymEYf9lE2Gk22A1YFW_5oZzIFwl0BqUPNktf6417Km6rIuAEVXj1R8mpoDvoJAWiIHOwZpLotGvtZkm3xb1TL23WDwkqwhhy1vMWNxzL7hgC9cJp6jX7mT0oIo6MWTD-rc3UZk0MrKwUeUfb31laj4At9OIYo3H33RuAbs6Yphk8LGE4suIpUl7dv- -hvY_tNC8xzkqEeEk204-cIB7hxiKWpxmMFxjtMm_tnXxzNfemrcbm9QRJYtwpFQgIu-Ju5pwyX-zZ9GkZREqEkbgHoMiE0X966GicvOvensavExHeniSGJZBBD9KAyhMDK0JgM0B-vPrT0dUYjSIsh532ak5gpuekawIVO4VI269QLa0VsmHUkOzziAtNi5yG8AJAm0zFTWIxZ3H3Jdx6JkyjXODfsL9_EpwIbSSjLs9i6odUdlxs8W2eBARh578hdGxJLxvKWY9MoqaD2tB-otLJ-n2mXeDBjyAPFCoy3EYME2a1I74Dy968XQO0RojAitQnbuWxF287fnS9K5P3bhD37G2mWOKzT6qr_B4zbSVlgxsMdvqjHqldjXQFEFLdC3wECg8WMrYYHIy72PBhIP0OrLqrmad3NY1hlnJ4kqhJU411OzF5njUW7ySOa7_gbi8HQhzeCgq7lxTcFD_dL7W9RUtqTWScMdTapVuiwpk_G-GspDULn3WJzZ7-dhOFyW90i5KhP8CNfK7vyTknnhpuYW0Rg_sTVN5_CwZcO8GFiTPlyOQG36noUyJEFHC_NmQGLeHmzKerrUh_4vULnEvu6-sQ7t6qWk6yo_y-0kRMo3VLXrLlvkDNz152HflGR5NhNNx2t05v0AB5a3q5SYqhvasxuNvzLVyEHmpb1Usx3lRRc-MeSLkdA0NytMw_V8Mgkqliux4ahPPN9qRc97WdGVHr04xiHEtc8z9_svf5rUDA-sIQ4NE3-EW3mzFJNDZFZ0sPk8uvK3UvSntXzivNdVNUkOArvVw7kU84wn3RveclDPF1aiZl-tcwBVEdO3iWtcolSeUDNPgjfx1_Zft3k6rfi3X0sswMohYI2glgDtQeAyNPVX0V7yWgVgse-8pO6-m6bPSr3cFFoTEzp-89G6-n22c_JH7HoV7RkwXjUBa0prGQk9KCJRxC41aXGcA2Hd-e2khZkhRt2oNj3xTSOFU9yAwJ1Agpls7XlBrY6M-VakWmTzzDBPRWYTitvKP_qMt_D7qozK18SJYd6jgD_GsZSHLmtC9ol7oVw5UD4JpFhNKP2J0eJ4I99fk6NlC1QkE5jq8xAnzjzxxBvsDeyPy-0CVnfOPpI1rZOffwScBetBUHbbxCap0ZVzeB0SGPZx3k4laGvlX_gHVRZFyEM-EA9ryumxK9gpsa16ugRRw_QpzpDQBFeUQ3Khx690RDaR6_JX4QBhivXVbVOi8uBezYlXfsDXkhE2LwSKri9QAfDWcToxwrEA9DwFR4-4Yi0ZzE2R2OO5fF4G5FnSWpOU6XWjfbXTWY-t_Ks1_NRi3aX8-RGrANyxEpcLp-Bp8fdFJats27ElnVmVX8zr68HA40wY-kBfvcgr7t2y5XcPWIxw-hsf5fU5VfY3k4t8BICIx-QbAozfOySRS2cAFByZJ1Y-Q_tRZed-1G00]--></g></svg>