<?xml version="1.0" encoding="us-ascii" standalone="no"?><svg xmlns="http://www.w3.org/2000/svg" xmlns:xlink="http://www.w3.org/1999/xlink" contentStyleType="text/css" height="1454px" preserveAspectRatio="none" style="width:1025px;height:1454px;background:#FAFAFA;" version="1.1" viewBox="0 0 1025 1454" width="1025px" zoomAndPan="magnify"><defs/><g><rect fill="#FAFAFA" height="1454" style="stroke:none;stroke-width:1.0;" width="1025" x="0" y="0"/><rect fill="#F5F3FF" height="1025.0547" style="stroke:#AFA9EC;stroke-width:1.0;" width="10" x="314.5" y="157.8594"/><rect fill="#F5F3FF" height="157.8438" style="stroke:#AFA9EC;stroke-width:1.0;" width="10" x="455.5" y="183.5"/><rect fill="#F5F3FF" height="786.6484" style="stroke:#AFA9EC;stroke-width:1.0;" width="10" x="584.5" y="366.9844"/><rect fill="#F5F3FF" height="75.9219" style="stroke:#AFA9EC;stroke-width:1.0;" width="10" x="716.5" y="730.5781"/><rect fill="#F5F3FF" height="75.9219" style="stroke:#AFA9EC;stroke-width:1.0;" width="10" x="716.5" y="978.7891"/><rect fill="#F5F3FF" height="48.6094" style="stroke:#AFA9EC;stroke-width:1.0;" width="10" x="790.5" y="392.625"/><rect fill="#F5F3FF" height="48.6094" style="stroke:#AFA9EC;stroke-width:1.0;" width="10" x="858" y="564.6016"/><rect fill="#F5F3FF" height="739.0078" style="stroke:#534AB7;stroke-width:1.5;" width="775.5" x="242.5" y="407.625"/><rect fill="#F5F3FF" height="640.1172" style="stroke:none;stroke-width:1.0;" width="775.5" x="242.5" y="506.5156"/><rect fill="#F5F3FF" height="560.0313" style="stroke:#534AB7;stroke-width:1.5;" width="755.5" x="252.5" y="579.6016"/><rect fill="#F5F3FF" height="273.8516" style="stroke:none;stroke-width:1.0;" width="755.5" x="252.5" y="672.4922"/><rect fill="#F5F3FF" height="193.2891" style="stroke:none;stroke-width:1.0;" width="755.5" x="252.5" y="946.3438"/><rect fill="#F5F3FF" height="109.5313" style="stroke:#534AB7;stroke-width:1.5;" width="137" x="104.5" y="1197.9141"/><line style="stroke:#AFA9EC;stroke-width:0.5;stroke-dasharray:5.0,5.0;" x1="32" x2="32" y1="92.9375" y2="1361.7266"/><line style="stroke:#AFA9EC;stroke-width:0.5;stroke-dasharray:5.0,5.0;" x1="142.5" x2="142.5" y1="92.9375" y2="1361.7266"/><line style="stroke:#AFA9EC;stroke-width:0.5;stroke-dasharray:5.0,5.0;" x1="319.5" x2="319.5" y1="92.9375" y2="1361.7266"/><line style="stroke:#AFA9EC;stroke-width:0.5;stroke-dasharray:5.0,5.0;" x1="460.5" x2="460.5" y1="92.9375" y2="1361.7266"/><line style="stroke:#AFA9EC;stroke-width:0.5;stroke-dasharray:5.0,5.0;" x1="589.5" x2="589.5" y1="92.9375" y2="1361.7266"/><line style="stroke:#AFA9EC;stroke-width:0.5;stroke-dasharray:5.0,5.0;" x1="721" x2="721" y1="92.9375" y2="1361.7266"/><line style="stroke:#AFA9EC;stroke-width:0.5;stroke-dasharray:5.0,5.0;" x1="795.5" x2="795.5" y1="92.9375" y2="1361.7266"/><line style="stroke:#AFA9EC;stroke-width:0.5;stroke-dasharray:5.0,5.0;" x1="862.5" x2="862.5" y1="92.9375" y2="1361.7266"/><text fill="#3C3489" font-family="sans-serif" font-size="12" font-weight="bold" lengthAdjust="spacing" textLength="21" x="19" y="76.1387">&#49324;&#50857;&#51088;</text><text fill="#3C3489" font-family="sans-serif" font-size="12" font-weight="bold" lengthAdjust="spacing" textLength="49" x="5" y="90.1074">(&#48708;&#54924;&#50896;/&#54924;&#50896;)</text><ellipse cx="32.5" cy="13.5" fill="#FFFFFF" rx="8" ry="8" style="stroke:#7F77DD;stroke-width:0.5;"/><path d="M32.5,21.5 L32.5,48.5 M19.5,29.5 L45.5,29.5 M32.5,48.5 L19.5,63.5 M32.5,48.5 L45.5,63.5 " fill="none" style="stroke:#7F77DD;stroke-width:0.5;"/><text fill="#3C3489" font-family="sans-serif" font-size="12" font-weight="bold" lengthAdjust="spacing" textLength="21" x="19" y="1371.8652">&#49324;&#50857;&#51088;</text><text fill="#3C3489" font-family="sans-serif" font-size="12" font-weight="bold" lengthAdjust="spacing" textLength="49" x="5" y="1385.834">(&#48708;&#54924;&#50896;/&#54924;&#50896;)</text><ellipse cx="32.5" cy="1397.1641" fill="#FFFFFF" rx="8" ry="8" style="stroke:#7F77DD;stroke-width:0.5;"/><path d="M32.5,1405.1641 L32.5,1432.1641 M19.5,1413.1641 L45.5,1413.1641 M32.5,1432.1641 L19.5,1447.1641 M32.5,1432.1641 L45.5,1447.1641 " fill="none" style="stroke:#7F77DD;stroke-width:0.5;"/><rect fill="#FFFFFF" height="27.9688" rx="2.5" ry="2.5" style="stroke:#AFA9EC;stroke-width:0.5;" width="56" x="114.5" y="63.9688"/><text fill="#26215C" font-family="sans-serif" font-size="12" lengthAdjust="spacing" textLength="42" x="121.5" y="82.1074">Next.js</text><rect fill="#FFFFFF" height="27.9688" rx="2.5" ry="2.5" style="stroke:#AFA9EC;stroke-width:0.5;" width="56" x="114.5" y="1360.7266"/><text fill="#26215C" font-family="sans-serif" font-size="12" lengthAdjust="spacing" textLength="42" x="121.5" y="1378.8652">Next.js</text><rect fill="#FFFFFF" height="27.9688" rx="2.5" ry="2.5" style="stroke:#AFA9EC;stroke-width:0.5;" width="114" x="262.5" y="63.9688"/><text fill="#26215C" font-family="sans-serif" font-size="12" lengthAdjust="spacing" textLength="100" x="269.5" y="82.1074">ResultController</text><rect fill="#FFFFFF" height="27.9688" rx="2.5" ry="2.5" style="stroke:#AFA9EC;stroke-width:0.5;" width="114" x="262.5" y="1360.7266"/><text fill="#26215C" font-family="sans-serif" font-size="12" lengthAdjust="spacing" textLength="100" x="269.5" y="1378.8652">ResultController</text><rect fill="#FFFFFF" height="27.9688" rx="2.5" ry="2.5" style="stroke:#AFA9EC;stroke-width:0.5;" width="106" x="407.5" y="63.9688"/><text fill="#26215C" font-family="sans-serif" font-size="12" lengthAdjust="spacing" textLength="92" x="414.5" y="82.1074">ScoringService</text><rect fill="#FFFFFF" height="27.9688" rx="2.5" ry="2.5" style="stroke:#AFA9EC;stroke-width:0.5;" width="106" x="407.5" y="1360.7266"/><text fill="#26215C" font-family="sans-serif" font-size="12" lengthAdjust="spacing" textLength="92" x="414.5" y="1378.8652">ScoringService</text><rect fill="#FFFFFF" height="27.9688" rx="2.5" ry="2.5" style="stroke:#AFA9EC;stroke-width:0.5;" width="98" x="540.5" y="63.9688"/><text fill="#26215C" font-family="sans-serif" font-size="12" lengthAdjust="spacing" textLength="84" x="547.5" y="82.1074">CacheService</text><rect fill="#FFFFFF" height="27.9688" rx="2.5" ry="2.5" style="stroke:#AFA9EC;stroke-width:0.5;" width="98" x="540.5" y="1360.7266"/><text fill="#26215C" font-family="sans-serif" font-size="12" lengthAdjust="spacing" textLength="84" x="547.5" y="1378.8652">CacheService</text><rect fill="#FFFFFF" height="27.9688" rx="2.5" ry="2.5" style="stroke:#AFA9EC;stroke-width:0.5;" width="79" x="682" y="63.9688"/><text fill="#26215C" font-family="sans-serif" font-size="12" lengthAdjust="spacing" textLength="65" x="689" y="82.1074">LlmService</text><rect fill="#FFFFFF" height="27.9688" rx="2.5" ry="2.5" style="stroke:#AFA9EC;stroke-width:0.5;" width="79" x="682" y="1360.7266"/><text fill="#26215C" font-family="sans-serif" font-size="12" lengthAdjust="spacing" textLength="65" x="689" y="1378.8652">LlmService</text><text fill="#26215C" font-family="sans-serif" font-size="12" lengthAdjust="spacing" textLength="34" x="775.5" y="90.1074">Redis</text><path d="M777.5,42.9688 C777.5,32.9688 795.5,32.9688 795.5,32.9688 C795.5,32.9688 813.5,32.9688 813.5,42.9688 L813.5,68.9688 C813.5,78.9688 795.5,78.9688 795.5,78.9688 C795.5,78.9688 777.5,78.9688 777.5,68.9688 L777.5,42.9688 " fill="#E2E2F0" style="stroke:#181818;stroke-width:1.5;"/><path d="M777.5,42.9688 C777.5,52.9688 795.5,52.9688 795.5,52.9688 C795.5,52.9688 813.5,52.9688 813.5,42.9688 " fill="none" style="stroke:#181818;stroke-width:1.5;"/><text fill="#26215C" font-family="sans-serif" font-size="12" lengthAdjust="spacing" textLength="34" x="775.5" y="1371.8652">Redis</text><path d="M777.5,1384.6953 C777.5,1374.6953 795.5,1374.6953 795.5,1374.6953 C795.5,1374.6953 813.5,1374.6953 813.5,1384.6953 L813.5,1410.6953 C813.5,1420.6953 795.5,1420.6953 795.5,1420.6953 C795.5,1420.6953 777.5,1420.6953 777.5,1410.6953 L777.5,1384.6953 " fill="#E2E2F0" style="stroke:#181818;stroke-width:1.5;"/><path d="M777.5,1384.6953 C777.5,1394.6953 795.5,1394.6953 795.5,1394.6953 C795.5,1394.6953 813.5,1394.6953 813.5,1384.6953 " fill="none" style="stroke:#181818;stroke-width:1.5;"/><text fill="#26215C" font-family="sans-serif" font-size="12" lengthAdjust="spacing" textLength="69" x="825.5" y="76.1387">disc_cache</text><text fill="#26215C" font-family="sans-serif" font-size="12" lengthAdjust="spacing" textLength="49" x="835.5" y="90.1074">(MySQL)</text><path d="M845,29 C845,19 863,19 863,19 C863,19 881,19 881,29 L881,55 C881,65 863,65 863,65 C863,65 845,65 845,55 L845,29 " fill="#E2E2F0" style="stroke:#181818;stroke-width:1.5;"/><path d="M845,29 C845,39 863,39 863,39 C863,39 881,39 881,29 " fill="none" style="stroke:#181818;stroke-width:1.5;"/><text fill="#26215C" font-family="sans-serif" font-size="12" lengthAdjust="spacing" textLength="69" x="825.5" y="1371.8652">disc_cache</text><text fill="#26215C" font-family="sans-serif" font-size="12" lengthAdjust="spacing" textLength="49" x="835.5" y="1385.834">(MySQL)</text><path d="M845,1398.6641 C845,1388.6641 863,1388.6641 863,1388.6641 C863,1388.6641 881,1388.6641 881,1398.6641 L881,1424.6641 C881,1434.6641 863,1434.6641 863,1434.6641 C863,1434.6641 845,1434.6641 845,1424.6641 L845,1398.6641 " fill="#E2E2F0" style="stroke:#181818;stroke-width:1.5;"/><path d="M845,1398.6641 C845,1408.6641 863,1408.6641 863,1408.6641 C863,1408.6641 881,1408.6641 881,1398.6641 " fill="none" style="stroke:#181818;stroke-width:1.5;"/><rect fill="#F5F3FF" height="1025.0547" style="stroke:#AFA9EC;stroke-width:1.0;" width="10" x="314.5" y="157.8594"/><rect fill="#F5F3FF" height="157.8438" style="stroke:#AFA9EC;stroke-width:1.0;" width="10" x="455.5" y="183.5"/><rect fill="#F5F3FF" height="786.6484" style="stroke:#AFA9EC;stroke-width:1.0;" width="10" x="584.5" y="366.9844"/><rect fill="#F5F3FF" height="75.9219" style="stroke:#AFA9EC;stroke-width:1.0;" width="10" x="716.5" y="730.5781"/><rect fill="#F5F3FF" height="75.9219" style="stroke:#AFA9EC;stroke-width:1.0;" width="10" x="716.5" y="978.7891"/><rect fill="#F5F3FF" height="48.6094" style="stroke:#AFA9EC;stroke-width:1.0;" width="10" x="790.5" y="392.625"/><rect fill="#F5F3FF" height="48.6094" style="stroke:#AFA9EC;stroke-width:1.0;" width="10" x="858" y="564.6016"/><polygon fill="#7F77DD" points="130.5,116.5781,140.5,120.5781,130.5,124.5781,134.5,120.5781" style="stroke:#7F77DD;stroke-width:1.0;"/><line style="stroke:#7F77DD;stroke-width:1.0;" x1="32.5" x2="136.5" y1="120.5781" y2="120.5781"/><text fill="#534AB7" font-family="sans-serif" font-size="10" lengthAdjust="spacing" textLength="54" x="60.5" y="116.2197">24&#47928;&#54637; &#51025;&#45813; &#50756;&#47308;</text><polygon fill="#7F77DD" points="302.5,153.8594,312.5,157.8594,302.5,161.8594,306.5,157.8594" style="stroke:#7F77DD;stroke-width:1.0;"/><line style="stroke:#7F77DD;stroke-width:1.0;" x1="142.5" x2="308.5" y1="157.8594" y2="157.8594"/><text fill="#534AB7" font-family="sans-serif" font-size="10" lengthAdjust="spacing" textLength="94" x="181.5" y="141.8604">POST /results/score</text><text fill="#534AB7" font-family="sans-serif" font-size="10" lengthAdjust="spacing" textLength="81" x="188" y="153.501">{ answers: [...] }</text><polygon fill="#7F77DD" points="443.5,179.5,453.5,183.5,443.5,187.5,447.5,183.5" style="stroke:#7F77DD;stroke-width:1.0;"/><line style="stroke:#7F77DD;stroke-width:1.0;" x1="324.5" x2="449.5" y1="183.5" y2="183.5"/><text fill="#534AB7" font-family="sans-serif" font-size="10" lengthAdjust="spacing" textLength="74" x="353" y="179.1416">score(answers)</text><path d="M470,196.5 L470,229.5 L600,229.5 L600,206.5 L590,196.5 L470,196.5 " fill="#F5F3FF" style="stroke:#AFA9EC;stroke-width:0.5;"/><path d="M590,196.5 L590,206.5 L600,206.5 L590,196.5 " fill="#F5F3FF" style="stroke:#AFA9EC;stroke-width:0.5;"/><text fill="#534AB7" font-family="sans-serif" font-size="10" lengthAdjust="spacing" textLength="109" x="476" y="210.7822">D + I + S + C = 24 &#44160;&#51613;</text><text fill="#534AB7" font-family="sans-serif" font-size="10" lengthAdjust="spacing" textLength="102" x="476" y="222.4229">&#50896;&#51216;&#49688; &#8594; &#48260;&#53431;&#44050; (1~9) &#51221;&#44508;&#54868;</text><line style="stroke:#7F77DD;stroke-width:1.0;" x1="465.5" x2="507.5" y1="252.4219" y2="252.4219"/><line style="stroke:#7F77DD;stroke-width:1.0;" x1="507.5" x2="507.5" y1="252.4219" y2="265.4219"/><line style="stroke:#7F77DD;stroke-width:1.0;" x1="466.5" x2="507.5" y1="265.4219" y2="265.4219"/><polygon fill="#7F77DD" points="476.5,261.4219,466.5,265.4219,476.5,269.4219,472.5,265.4219" style="stroke:#7F77DD;stroke-width:1.0;"/><text fill="#534AB7" font-family="sans-serif" font-size="10" lengthAdjust="spacing" textLength="62" x="472.5" y="248.0635">DISC &#50896;&#51216;&#49688; &#49328;&#52636;</text><line style="stroke:#7F77DD;stroke-width:1.0;" x1="465.5" x2="507.5" y1="302.7031" y2="302.7031"/><line style="stroke:#7F77DD;stroke-width:1.0;" x1="507.5" x2="507.5" y1="302.7031" y2="315.7031"/><line style="stroke:#7F77DD;stroke-width:1.0;" x1="466.5" x2="507.5" y1="315.7031" y2="315.7031"/><polygon fill="#7F77DD" points="476.5,311.7031,466.5,315.7031,476.5,319.7031,472.5,315.7031" style="stroke:#7F77DD;stroke-width:1.0;"/><text fill="#534AB7" font-family="sans-serif" font-size="10" lengthAdjust="spacing" textLength="39" x="505.5" y="286.7041">&#48260;&#53431;&#44050; &#51221;&#44508;&#54868;</text><text fill="#534AB7" font-family="sans-serif" font-size="10" lengthAdjust="spacing" textLength="105" x="472.5" y="298.3447">(&#50896;&#51216;&#49688; -24~+48 &#8594; 9&#45800;&#44228;)</text><polygon fill="#7F77DD" points="335.5,337.3438,325.5,341.3438,335.5,345.3438,331.5,341.3438" style="stroke:#7F77DD;stroke-width:1.0;"/><line style="stroke:#7F77DD;stroke-width:1.0;stroke-dasharray:2.0,2.0;" x1="329.5" x2="459.5" y1="341.3438" y2="341.3438"/><text fill="#534AB7" font-family="sans-serif" font-size="10" lengthAdjust="spacing" textLength="107" x="339" y="336.9854">{ d, i, s, c &#50896;&#51216;&#49688; + &#48260;&#53431;&#44050; }</text><polygon fill="#7F77DD" points="572.5,362.9844,582.5,366.9844,572.5,370.9844,576.5,366.9844" style="stroke:#7F77DD;stroke-width:1.0;"/><line style="stroke:#7F77DD;stroke-width:1.0;" x1="324.5" x2="578.5" y1="366.9844" y2="366.9844"/><text fill="#534AB7" font-family="sans-serif" font-size="10" lengthAdjust="spacing" textLength="114" x="397.5" y="362.626">getReport(d, i, s, c &#48260;&#53431;&#44050;)</text><polygon fill="#7F77DD" points="778.5,388.625,788.5,392.625,778.5,396.625,782.5,392.625" style="stroke:#7F77DD;stroke-width:1.0;"/><line style="stroke:#7F77DD;stroke-width:1.0;" x1="594.5" x2="784.5" y1="392.625" y2="392.625"/><text fill="#534AB7" font-family="sans-serif" font-size="10" lengthAdjust="spacing" textLength="152" x="616.5" y="388.2666">GET disc_cache:{d}:{i}:{s}:{c}</text><path d="M242.5,407.625 L306.5,407.625 L306.5,413.5938 L296.5,423.5938 L242.5,423.5938 L242.5,407.625 " fill="#EEEDFE" style="stroke:#534AB7;stroke-width:1.5;"/><rect fill="none" height="739.0078" style="stroke:#534AB7;stroke-width:1.5;" width="775.5" x="242.5" y="407.625"/><text fill="#26215C" font-family="sans-serif" font-size="12" font-weight="bold" lengthAdjust="spacing" textLength="19" x="257.5" y="419.7637">alt</text><text fill="#3C3489" font-family="sans-serif" font-size="11" font-weight="bold" lengthAdjust="spacing" textLength="88" x="321.5" y="419.8354">[Redis &#52880;&#49884; HIT]</text><polygon fill="#7F77DD" points="605.5,437.2344,595.5,441.2344,605.5,445.2344,601.5,441.2344" style="stroke:#7F77DD;stroke-width:1.0;"/><line style="stroke:#7F77DD;stroke-width:1.0;stroke-dasharray:2.0,2.0;" x1="599.5" x2="794.5" y1="441.2344" y2="441.2344"/><text fill="#534AB7" font-family="sans-serif" font-size="10" lengthAdjust="spacing" textLength="48" x="671" y="436.876">&#52880;&#49884; &#45936;&#51060;&#53552; &#48152;&#54872;</text><polygon fill="#7F77DD" points="335.5,462.875,325.5,466.875,335.5,470.875,331.5,466.875" style="stroke:#7F77DD;stroke-width:1.0;"/><line style="stroke:#7F77DD;stroke-width:1.0;stroke-dasharray:2.0,2.0;" x1="329.5" x2="583.5" y1="466.875" y2="466.875"/><text fill="#534AB7" font-family="sans-serif" font-size="10" lengthAdjust="spacing" textLength="33" x="438" y="462.5166">&#48372;&#44256;&#49436; &#48152;&#54872;</text><path d="M599,479.875 L599,500.875 L724,500.875 L724,489.875 L714,479.875 L599,479.875 " fill="#F5F3FF" style="stroke:#AFA9EC;stroke-width:0.5;"/><path d="M714,479.875 L714,489.875 L724,489.875 L714,479.875 " fill="#F5F3FF" style="stroke:#AFA9EC;stroke-width:0.5;"/><text fill="#534AB7" font-family="sans-serif" font-size="10" lengthAdjust="spacing" textLength="104" x="605" y="494.1572">Redis HIT &#8594; DB &#51312;&#54924; &#49373;&#47029;</text><line style="stroke:#534AB7;stroke-width:1.0;stroke-dasharray:2.0,2.0;" x1="242.5" x2="1018" y1="507.5156" y2="507.5156"/><text fill="#3C3489" font-family="sans-serif" font-size="11" font-weight="bold" lengthAdjust="spacing" textLength="98" x="247.5" y="517.7261">[Redis &#52880;&#49884; MISS]</text><polygon fill="#7F77DD" points="605.5,534.9609,595.5,538.9609,605.5,542.9609,601.5,538.9609" style="stroke:#7F77DD;stroke-width:1.0;"/><line style="stroke:#7F77DD;stroke-width:1.0;stroke-dasharray:2.0,2.0;" x1="599.5" x2="794.5" y1="538.9609" y2="538.9609"/><text fill="#534AB7" font-family="sans-serif" font-size="10" lengthAdjust="spacing" textLength="16" x="687" y="534.6025">null</text><polygon fill="#7F77DD" points="846,560.6016,856,564.6016,846,568.6016,850,564.6016" style="stroke:#7F77DD;stroke-width:1.0;"/><line style="stroke:#7F77DD;stroke-width:1.0;" x1="594.5" x2="852" y1="564.6016" y2="564.6016"/><text fill="#534AB7" font-family="sans-serif" font-size="10" lengthAdjust="spacing" textLength="241" x="605.75" y="560.2432">SELECT WHERE d=? AND i=? AND s=? AND c=?</text><path d="M252.5,579.6016 L316.5,579.6016 L316.5,585.5703 L306.5,595.5703 L252.5,595.5703 L252.5,579.6016 " fill="#EEEDFE" style="stroke:#534AB7;stroke-width:1.5;"/><rect fill="none" height="560.0313" style="stroke:#534AB7;stroke-width:1.5;" width="755.5" x="252.5" y="579.6016"/><text fill="#26215C" font-family="sans-serif" font-size="12" font-weight="bold" lengthAdjust="spacing" textLength="19" x="267.5" y="591.7402">alt</text><text fill="#3C3489" font-family="sans-serif" font-size="11" font-weight="bold" lengthAdjust="spacing" textLength="220" x="331.5" y="591.812">[&#52880;&#49884; HIT + &#50976;&#54952; (created_at &gt;= &#47564;&#47308; &#44592;&#51456;)]</text><polygon fill="#7F77DD" points="605.5,609.2109,595.5,613.2109,605.5,617.2109,601.5,613.2109" style="stroke:#7F77DD;stroke-width:1.0;"/><line style="stroke:#7F77DD;stroke-width:1.0;stroke-dasharray:2.0,2.0;" x1="599.5" x2="862" y1="613.2109" y2="613.2109"/><text fill="#534AB7" font-family="sans-serif" font-size="10" lengthAdjust="spacing" textLength="36" x="710.75" y="608.8525">&#52880;&#49884; &#54665; &#48152;&#54872;</text><polygon fill="#7F77DD" points="783.5,634.8516,793.5,638.8516,783.5,642.8516,787.5,638.8516" style="stroke:#7F77DD;stroke-width:1.0;"/><line style="stroke:#7F77DD;stroke-width:1.0;" x1="594.5" x2="789.5" y1="638.8516" y2="638.8516"/><text fill="#534AB7" font-family="sans-serif" font-size="10" lengthAdjust="spacing" textLength="151" x="619.5" y="634.4932">SET disc_cache:{d}:{i}:{s}:{c}</text><polygon fill="#7F77DD" points="335.5,660.4922,325.5,664.4922,335.5,668.4922,331.5,664.4922" style="stroke:#7F77DD;stroke-width:1.0;"/><line style="stroke:#7F77DD;stroke-width:1.0;stroke-dasharray:2.0,2.0;" x1="329.5" x2="583.5" y1="664.4922" y2="664.4922"/><text fill="#534AB7" font-family="sans-serif" font-size="10" lengthAdjust="spacing" textLength="33" x="438" y="660.1338">&#48372;&#44256;&#49436; &#48152;&#54872;</text><line style="stroke:#534AB7;stroke-width:1.0;stroke-dasharray:2.0,2.0;" x1="252.5" x2="1008" y1="673.4922" y2="673.4922"/><text fill="#3C3489" font-family="sans-serif" font-size="11" font-weight="bold" lengthAdjust="spacing" textLength="211" x="257.5" y="683.7026">[&#52880;&#49884; HIT + &#47564;&#47308; (created_at &lt; &#47564;&#47308; &#44592;&#51456;)]</text><polygon fill="#7F77DD" points="605.5,700.9375,595.5,704.9375,605.5,708.9375,601.5,704.9375" style="stroke:#7F77DD;stroke-width:1.0;"/><line style="stroke:#7F77DD;stroke-width:1.0;stroke-dasharray:2.0,2.0;" x1="599.5" x2="862" y1="704.9375" y2="704.9375"/><text fill="#534AB7" font-family="sans-serif" font-size="10" lengthAdjust="spacing" textLength="57" x="700.25" y="700.5791">&#47564;&#47308;&#46108; &#52880;&#49884; &#54665; &#48152;&#54872;</text><polygon fill="#7F77DD" points="704.5,726.5781,714.5,730.5781,704.5,734.5781,708.5,730.5781" style="stroke:#7F77DD;stroke-width:1.0;"/><line style="stroke:#7F77DD;stroke-width:1.0;" x1="594.5" x2="710.5" y1="730.5781" y2="730.5781"/><text fill="#534AB7" font-family="sans-serif" font-size="10" lengthAdjust="spacing" textLength="103" x="604" y="726.2197">generateReport(&#48260;&#53431;&#44050;)</text><line style="stroke:#7F77DD;stroke-width:1.0;" x1="726.5" x2="768.5" y1="767.8594" y2="767.8594"/><line style="stroke:#7F77DD;stroke-width:1.0;" x1="768.5" x2="768.5" y1="767.8594" y2="780.8594"/><line style="stroke:#7F77DD;stroke-width:1.0;" x1="727.5" x2="768.5" y1="780.8594" y2="780.8594"/><polygon fill="#7F77DD" points="737.5,776.8594,727.5,780.8594,737.5,784.8594,733.5,780.8594" style="stroke:#7F77DD;stroke-width:1.0;"/><text fill="#534AB7" font-family="sans-serif" font-size="10" lengthAdjust="spacing" textLength="39" x="739" y="751.8604">&#54532;&#47212;&#54532;&#53944; &#44396;&#49457;</text><text fill="#534AB7" font-family="sans-serif" font-size="10" lengthAdjust="spacing" textLength="50" x="733.5" y="763.501">(6&#44060; &#49465;&#49496; &#50836;&#52397;)</text><polygon fill="#7F77DD" points="605.5,802.5,595.5,806.5,605.5,810.5,601.5,806.5" style="stroke:#7F77DD;stroke-width:1.0;"/><line style="stroke:#7F77DD;stroke-width:1.0;stroke-dasharray:2.0,2.0;" x1="599.5" x2="720.5" y1="806.5" y2="806.5"/><text fill="#534AB7" font-family="sans-serif" font-size="10" lengthAdjust="spacing" textLength="71" x="622.5" y="802.1416">Markdown &#48372;&#44256;&#49436;</text><polygon fill="#7F77DD" points="851,839.7813,861,843.7813,851,847.7813,855,843.7813" style="stroke:#7F77DD;stroke-width:1.0;"/><line style="stroke:#7F77DD;stroke-width:1.0;" x1="594.5" x2="857" y1="843.7813" y2="843.7813"/><text fill="#534AB7" font-family="sans-serif" font-size="10" lengthAdjust="spacing" textLength="209" x="624.25" y="827.7822">UPDATE SET report=?, created_at=NOW()</text><text fill="#534AB7" font-family="sans-serif" font-size="10" lengthAdjust="spacing" textLength="198" x="629.75" y="839.4229">WHERE d=? AND i=? AND s=? AND c=?</text><path d="M868,856.7813 L868,889.7813 L998,889.7813 L998,866.7813 L988,856.7813 L868,856.7813 " fill="#F5F3FF" style="stroke:#AFA9EC;stroke-width:0.5;"/><path d="M988,856.7813 L988,866.7813 L998,866.7813 L988,856.7813 " fill="#F5F3FF" style="stroke:#AFA9EC;stroke-width:0.5;"/><text fill="#534AB7" font-family="sans-serif" font-size="10" lengthAdjust="spacing" textLength="109" x="874" y="871.0635">&#54665; DELETE &#50630;&#51060; UPDATE</text><text fill="#534AB7" font-family="sans-serif" font-size="10" lengthAdjust="spacing" textLength="64" x="874" y="882.7041">FK &#52280;&#51312; &#47924;&#44208;&#49457; &#50976;&#51648;</text><polygon fill="#7F77DD" points="783.5,908.7031,793.5,912.7031,783.5,916.7031,787.5,912.7031" style="stroke:#7F77DD;stroke-width:1.0;"/><line style="stroke:#7F77DD;stroke-width:1.0;" x1="594.5" x2="789.5" y1="912.7031" y2="912.7031"/><text fill="#534AB7" font-family="sans-serif" font-size="10" lengthAdjust="spacing" textLength="151" x="619.5" y="908.3447">SET disc_cache:{d}:{i}:{s}:{c}</text><polygon fill="#7F77DD" points="335.5,934.3438,325.5,938.3438,335.5,942.3438,331.5,938.3438" style="stroke:#7F77DD;stroke-width:1.0;"/><line style="stroke:#7F77DD;stroke-width:1.0;stroke-dasharray:2.0,2.0;" x1="329.5" x2="583.5" y1="938.3438" y2="938.3438"/><text fill="#534AB7" font-family="sans-serif" font-size="10" lengthAdjust="spacing" textLength="33" x="438" y="933.9854">&#48372;&#44256;&#49436; &#48152;&#54872;</text><line style="stroke:#534AB7;stroke-width:1.0;stroke-dasharray:2.0,2.0;" x1="252.5" x2="1008" y1="947.3438" y2="947.3438"/><text fill="#3C3489" font-family="sans-serif" font-size="11" font-weight="bold" lengthAdjust="spacing" textLength="98" x="257.5" y="957.5542">[&#52880;&#49884; MISS (&#54665; &#50630;&#51020;)]</text><polygon fill="#7F77DD" points="704.5,974.7891,714.5,978.7891,704.5,982.7891,708.5,978.7891" style="stroke:#7F77DD;stroke-width:1.0;"/><line style="stroke:#7F77DD;stroke-width:1.0;" x1="594.5" x2="710.5" y1="978.7891" y2="978.7891"/><text fill="#534AB7" font-family="sans-serif" font-size="10" lengthAdjust="spacing" textLength="103" x="604" y="974.4307">generateReport(&#48260;&#53431;&#44050;)</text><line style="stroke:#7F77DD;stroke-width:1.0;" x1="726.5" x2="768.5" y1="1016.0703" y2="1016.0703"/><line style="stroke:#7F77DD;stroke-width:1.0;" x1="768.5" x2="768.5" y1="1016.0703" y2="1029.0703"/><line style="stroke:#7F77DD;stroke-width:1.0;" x1="727.5" x2="768.5" y1="1029.0703" y2="1029.0703"/><polygon fill="#7F77DD" points="737.5,1025.0703,727.5,1029.0703,737.5,1033.0703,733.5,1029.0703" style="stroke:#7F77DD;stroke-width:1.0;"/><text fill="#534AB7" font-family="sans-serif" font-size="10" lengthAdjust="spacing" textLength="39" x="739" y="1000.0713">&#54532;&#47212;&#54532;&#53944; &#44396;&#49457;</text><text fill="#534AB7" font-family="sans-serif" font-size="10" lengthAdjust="spacing" textLength="50" x="733.5" y="1011.7119">(6&#44060; &#49465;&#49496; &#50836;&#52397;)</text><polygon fill="#7F77DD" points="605.5,1050.7109,595.5,1054.7109,605.5,1058.7109,601.5,1054.7109" style="stroke:#7F77DD;stroke-width:1.0;"/><line style="stroke:#7F77DD;stroke-width:1.0;stroke-dasharray:2.0,2.0;" x1="599.5" x2="720.5" y1="1054.7109" y2="1054.7109"/><text fill="#534AB7" font-family="sans-serif" font-size="10" lengthAdjust="spacing" textLength="71" x="622.5" y="1050.3525">Markdown &#48372;&#44256;&#49436;</text><polygon fill="#7F77DD" points="851,1076.3516,861,1080.3516,851,1084.3516,855,1080.3516" style="stroke:#7F77DD;stroke-width:1.0;"/><line style="stroke:#7F77DD;stroke-width:1.0;" x1="594.5" x2="857" y1="1080.3516" y2="1080.3516"/><text fill="#534AB7" font-family="sans-serif" font-size="10" lengthAdjust="spacing" textLength="178" x="639.75" y="1075.9932">INSERT (d, i, s, c, report, created_at)</text><polygon fill="#7F77DD" points="783.5,1101.9922,793.5,1105.9922,783.5,1109.9922,787.5,1105.9922" style="stroke:#7F77DD;stroke-width:1.0;"/><line style="stroke:#7F77DD;stroke-width:1.0;" x1="594.5" x2="789.5" y1="1105.9922" y2="1105.9922"/><text fill="#534AB7" font-family="sans-serif" font-size="10" lengthAdjust="spacing" textLength="151" x="619.5" y="1101.6338">SET disc_cache:{d}:{i}:{s}:{c}</text><polygon fill="#7F77DD" points="335.5,1127.6328,325.5,1131.6328,335.5,1135.6328,331.5,1131.6328" style="stroke:#7F77DD;stroke-width:1.0;"/><line style="stroke:#7F77DD;stroke-width:1.0;stroke-dasharray:2.0,2.0;" x1="329.5" x2="583.5" y1="1131.6328" y2="1131.6328"/><text fill="#534AB7" font-family="sans-serif" font-size="10" lengthAdjust="spacing" textLength="33" x="438" y="1127.2744">&#48372;&#44256;&#49436; &#48152;&#54872;</text><polygon fill="#7F77DD" points="153.5,1178.9141,143.5,1182.9141,153.5,1186.9141,149.5,1182.9141" style="stroke:#7F77DD;stroke-width:1.0;"/><line style="stroke:#7F77DD;stroke-width:1.0;stroke-dasharray:2.0,2.0;" x1="147.5" x2="318.5" y1="1182.9141" y2="1182.9141"/><text fill="#534AB7" font-family="sans-serif" font-size="10" lengthAdjust="spacing" textLength="36" x="213" y="1166.915">200 OK</text><text fill="#534AB7" font-family="sans-serif" font-size="10" lengthAdjust="spacing" textLength="148" x="157" y="1178.5557">{ rawScores, buckets, report }</text><path d="M104.5,1197.9141 L168.5,1197.9141 L168.5,1203.8828 L158.5,1213.8828 L104.5,1213.8828 L104.5,1197.9141 " fill="#EEEDFE" style="stroke:#534AB7;stroke-width:1.5;"/><rect fill="none" height="109.5313" style="stroke:#534AB7;stroke-width:1.5;" width="137" x="104.5" y="1197.9141"/><text fill="#26215C" font-family="sans-serif" font-size="12" font-weight="bold" lengthAdjust="spacing" textLength="19" x="119.5" y="1210.0527">alt</text><text fill="#3C3489" font-family="sans-serif" font-size="11" font-weight="bold" lengthAdjust="spacing" textLength="31" x="183.5" y="1210.1245">[&#48708;&#54924;&#50896;]</text><line style="stroke:#7F77DD;stroke-width:1.0;" x1="142.5" x2="184.5" y1="1243.1641" y2="1243.1641"/><line style="stroke:#7F77DD;stroke-width:1.0;" x1="184.5" x2="184.5" y1="1243.1641" y2="1256.1641"/><line style="stroke:#7F77DD;stroke-width:1.0;" x1="143.5" x2="184.5" y1="1256.1641" y2="1256.1641"/><polygon fill="#7F77DD" points="153.5,1252.1641,143.5,1256.1641,153.5,1260.1641,149.5,1256.1641" style="stroke:#7F77DD;stroke-width:1.0;"/><text fill="#534AB7" font-family="sans-serif" font-size="10" lengthAdjust="spacing" textLength="80" x="149.5" y="1227.165">sessionStorage&#50640;</text><text fill="#534AB7" font-family="sans-serif" font-size="10" lengthAdjust="spacing" textLength="62" x="158.5" y="1238.8057">DISC &#50896;&#51216;&#49688; &#51200;&#51109;</text><path d="M147,1269.1641 L147,1302.1641 L216,1302.1641 L216,1279.1641 L206,1269.1641 L147,1269.1641 " fill="#F5F3FF" style="stroke:#AFA9EC;stroke-width:0.5;"/><path d="M206,1269.1641 L206,1279.1641 L216,1279.1641 L206,1269.1641 " fill="#F5F3FF" style="stroke:#AFA9EC;stroke-width:0.5;"/><text fill="#534AB7" font-family="sans-serif" font-size="10" lengthAdjust="spacing" textLength="48" x="153" y="1283.4463">&#49436;&#48260; &#49464;&#49496; &#48120;&#48156;&#44553;</text><text fill="#534AB7" font-family="sans-serif" font-size="10" lengthAdjust="spacing" textLength="41" x="153" y="1295.0869">(&#54540;&#47084;&#46377; &#48169;&#50612;)</text><polygon fill="#7F77DD" points="43.5,1339.7266,33.5,1343.7266,43.5,1347.7266,39.5,1343.7266" style="stroke:#7F77DD;stroke-width:1.0;"/><line style="stroke:#7F77DD;stroke-width:1.0;stroke-dasharray:2.0,2.0;" x1="37.5" x2="141.5" y1="1343.7266" y2="1343.7266"/><text fill="#534AB7" font-family="sans-serif" font-size="10" lengthAdjust="spacing" textLength="42" x="66.5" y="1327.7275">&#44208;&#44284; &#54868;&#47732; &#54364;&#49884;</text><text fill="#534AB7" font-family="sans-serif" font-size="10" lengthAdjust="spacing" textLength="86" x="44.5" y="1339.3682">(&#48372;&#44256;&#49436; &#47116;&#45908;&#47553; &#49884; &#51060;&#47492; &#49341;&#51077;)</text><!--SRC=[tLTRJznM47xthnZHbrrn2RU4W0hHifS41KYAYVBGL96n3yJ5s5lRXAQ8YD9Dr3H48X59W2wKg6qI9A9kkJIRgFqpVLoV_G-TS-orZtUN9Er3AvMLr_YScVbclfavddLcTJElsCeSJ2dgx8njpPjQsZ8i6pxAfTX7Sa89ZKmhyuQRiqntN9aZq9BAvmq2SWREM-uDNOLnOhM1evXEkqDiVRgbkQwiVqMWgxlvPe3TVQQxwtHQ47785_F4LCaOSHnbXgGCVSO4bPWkiIL13BzTNTNpYkd2eWGmt10K_sCxbgqHErZ5EFkpQLnjTC5Vg_cy988fgek2VmEcBzVNbyd4ONhIFRrd- -jWWYVt5j8xPHbQ7BV61OTEsRQrK6-VBmeWftjwKyDzueQFr8bBe_eq6TLDqfoGSBSXmjEv7XxXULpDnvH3D7-hNZERpMPosTfsCoh23T_BhWX5ktMo8ndzfevEd8nN4sZgQx3Pp9q9CariHdWJqxap73iIQM8ybZpJSia9DLCBvBsb6JejPX9H_89ieIlxT6kFxgnTCnFUcq9rQvL-ltRAloLRG77W2lQd9FPAopZvqktutE6xQKF7nehlJn07EpIDUBPb6CJs1SF7kB2iMhPkpiZ4lgchX8i6It6vjABU8AAKk10N7JNcH45yb3J5LQOKXp3dDDrtdVydxE2JUbrbLf6BiLlo9wC-0PbXIM8aGFjG42uCG7Uljr-kFdu5TFkXT_yOw6R1-t5LaW819Xe6ZEANBycJSChcn3Yd70mGGHO1Zxy5OZi3y6b7HyTdiCIoejzKCEi2NP9W2Uq6xA1HRYOHs4X6kZN-95u_jZvpmmLhEbp6-eLM6C5BnYiDWnWCL0wMwVDjtCEyqzqr-kq6_7dt4NW7XUhAwqhf4IIwRlSdWUu-hhmkLZVN9M9gl3ubgUPGpBVCY9mMRD6L4lsjs5mqmWYjOm8YtVRktjkjlMUvF_tU_PULmq8oibJFz29eRQ3ZgwKDLC61LW5cIT988rbnbiNgGgipn9qWUSjs4uBrqAB0VQmgfPWLjCfB3isTpqv2L6u3YzhImAAEbuENAbI1NwAIOhY1AdsxHkyNuSB893z8s59xexU1bFUWHBUFgeKIUAMDwkO6gWY1-xOXhjj0ftTuL3dSfOLYP2DULNNGla_e7qzNPXZeinAU9a2_sVPsZYM960w9np8s8ill2iQSDuncdZUuFiJW1a3EZcRJat3rGdOY2zhWEKYDPq0FxavmLmVFeNveaRKuFYBD4S5OChIuMzrw2GdL9YYbNLTS61e4xyKgjZfKoYNwqt8IzO01dvo6wfDx4NcnG12MhPnK9VAxgwHHzRt9GnsUW5YKGJnYb1z_U92-eBTM_CVXuldCEymaDae5RIRq5jC9RR33d2qmfL2tkbxmdktZT_MxCbIEzsdXLpn1pbHAw5JX3Rs3vy_MEZrubOnK6mCPK-nPpLem8zRg_QzXDosxAvSpgSaipvdDGnWyXsT4IEdW-AMhYUGryqFAihx5k7r6QmPB6p7eqxlOrm7YDJDt4MYfZ7q6tlvHvQ24qRFAfI-M_zlgOeqD2UOtTtWr-J_E_iYud9sO1E7jq1QKWLW4oNyv8PWFKvCa_YL4KlUE4jvxiGcdinCkNMHJYgqiiBSamR2cvjLPuZgruEAlKd5cOMTfE4-oepgQYse03luyqorJnZaKVwNHfpY2rayDkyjqv-V6Luu_Sp92C5Yi5RoLMPwzNyfUgLWft-DxYUhwglV3lhU-XtpiqIT7IPyGVspXfDIyGhVuX3U0Sr2fSlWxu0pYxHr1zM4HAvcDnX6rkwlUWtNlnTV0QXpxq7kE-2j_q9qxIUal]--></g></svg>