<?xml version="1.0" encoding="us-ascii" standalone="no"?><svg xmlns="http://www.w3.org/2000/svg" xmlns:xlink="http://www.w3.org/1999/xlink" contentStyleType="text/css" height="1501px" preserveAspectRatio="none" style="width:848px;height:1501px;background:#FAFAFA;" version="1.1" viewBox="0 0 848 1501" width="848px" zoomAndPan="magnify"><defs/><g><rect fill="#FAFAFA" height="1501" style="stroke:none;stroke-width:1.0;" width="848" x="0" y="0"/><rect fill="#F5F3FF" height="213.4063" style="stroke:#AFA9EC;stroke-width:1.0;" width="10" x="313.5" y="1001.3984"/><rect fill="#F5F3FF" height="227.8984" style="stroke:#AFA9EC;stroke-width:1.0;" width="10" x="432.5" y="621"/><rect fill="#F5F3FF" height="150.4844" style="stroke:#AFA9EC;stroke-width:1.0;" width="10" x="543.5" y="1027.0391"/><rect fill="#F5F3FF" height="125.3359" style="stroke:#534AB7;stroke-width:1.5;" width="446.5" x="375.5" y="687.2813"/><rect fill="#F5F3FF" height="40.4453" style="stroke:none;stroke-width:1.0;" width="446.5" x="375.5" y="772.1719"/><rect fill="#F5F3FF" height="449.5859" style="stroke:#534AB7;stroke-width:1.5;" width="728" x="10" y="956.1484"/><rect fill="#F5F3FF" height="83.7266" style="stroke:none;stroke-width:1.0;" width="728" x="10" y="1322.0078"/><line style="stroke:#AFA9EC;stroke-width:0.5;stroke-dasharray:5.0,5.0;" x1="33" x2="33" y1="78.9688" y2="1422.7344"/><line style="stroke:#AFA9EC;stroke-width:0.5;stroke-dasharray:5.0,5.0;" x1="146.5" x2="146.5" y1="78.9688" y2="1422.7344"/><line style="stroke:#AFA9EC;stroke-width:0.5;stroke-dasharray:5.0,5.0;" x1="318.5" x2="318.5" y1="78.9688" y2="1422.7344"/><line style="stroke:#AFA9EC;stroke-width:0.5;stroke-dasharray:5.0,5.0;" x1="437.5" x2="437.5" y1="78.9688" y2="1422.7344"/><line style="stroke:#AFA9EC;stroke-width:0.5;stroke-dasharray:5.0,5.0;" x1="548.5" x2="548.5" y1="78.9688" y2="1422.7344"/><line style="stroke:#AFA9EC;stroke-width:0.5;stroke-dasharray:5.0,5.0;" x1="705" x2="705" y1="78.9688" y2="1422.7344"/><line style="stroke:#AFA9EC;stroke-width:0.5;stroke-dasharray:5.0,5.0;" x1="787" x2="787" y1="78.9688" y2="1422.7344"/><text fill="#3C3489" font-family="sans-serif" font-size="12" font-weight="bold" lengthAdjust="spacing" textLength="21" x="20" y="76.1387">&#48708;&#54924;&#50896;</text><ellipse cx="33.5" cy="13.5" fill="#FFFFFF" rx="8" ry="8" style="stroke:#7F77DD;stroke-width:0.5;"/><path d="M33.5,21.5 L33.5,48.5 M20.5,29.5 L46.5,29.5 M33.5,48.5 L20.5,63.5 M33.5,48.5 L46.5,63.5 " fill="none" style="stroke:#7F77DD;stroke-width:0.5;"/><text fill="#3C3489" font-family="sans-serif" font-size="12" font-weight="bold" lengthAdjust="spacing" textLength="21" x="20" y="1432.873">&#48708;&#54924;&#50896;</text><ellipse cx="33.5" cy="1444.2031" fill="#FFFFFF" rx="8" ry="8" style="stroke:#7F77DD;stroke-width:0.5;"/><path d="M33.5,1452.2031 L33.5,1479.2031 M20.5,1460.2031 L46.5,1460.2031 M33.5,1479.2031 L20.5,1494.2031 M33.5,1479.2031 L46.5,1494.2031 " fill="none" style="stroke:#7F77DD;stroke-width:0.5;"/><rect fill="#FFFFFF" height="41.9375" rx="2.5" ry="2.5" style="stroke:#AFA9EC;stroke-width:0.5;" width="56" x="118.5" y="36.0313"/><text fill="#26215C" font-family="sans-serif" font-size="12" lengthAdjust="spacing" textLength="42" x="125.5" y="54.1699">Next.js</text><text fill="#26215C" font-family="sans-serif" font-size="12" lengthAdjust="spacing" textLength="38" x="127.5" y="68.1387">(&#48652;&#46972;&#50864;&#51200;)</text><rect fill="#FFFFFF" height="41.9375" rx="2.5" ry="2.5" style="stroke:#AFA9EC;stroke-width:0.5;" width="56" x="118.5" y="1421.7344"/><text fill="#26215C" font-family="sans-serif" font-size="12" lengthAdjust="spacing" textLength="42" x="125.5" y="1439.873">Next.js</text><text fill="#26215C" font-family="sans-serif" font-size="12" lengthAdjust="spacing" textLength="38" x="127.5" y="1453.8418">(&#48652;&#46972;&#50864;&#51200;)</text><rect fill="#FFFFFF" height="27.9688" rx="2.5" ry="2.5" style="stroke:#AFA9EC;stroke-width:0.5;" width="114" x="261.5" y="50"/><text fill="#26215C" font-family="sans-serif" font-size="12" lengthAdjust="spacing" textLength="100" x="268.5" y="68.1387">ResultController</text><rect fill="#FFFFFF" height="27.9688" rx="2.5" ry="2.5" style="stroke:#AFA9EC;stroke-width:0.5;" width="114" x="261.5" y="1421.7344"/><text fill="#26215C" font-family="sans-serif" font-size="12" lengthAdjust="spacing" textLength="100" x="268.5" y="1439.873">ResultController</text><rect fill="#FFFFFF" height="27.9688" rx="2.5" ry="2.5" style="stroke:#AFA9EC;stroke-width:0.5;" width="104" x="385.5" y="50"/><text fill="#26215C" font-family="sans-serif" font-size="12" lengthAdjust="spacing" textLength="90" x="392.5" y="68.1387">AuthController</text><rect fill="#FFFFFF" height="27.9688" rx="2.5" ry="2.5" style="stroke:#AFA9EC;stroke-width:0.5;" width="104" x="385.5" y="1421.7344"/><text fill="#26215C" font-family="sans-serif" font-size="12" lengthAdjust="spacing" textLength="90" x="392.5" y="1439.873">AuthController</text><rect fill="#FFFFFF" height="27.9688" rx="2.5" ry="2.5" style="stroke:#AFA9EC;stroke-width:0.5;" width="98" x="499.5" y="50"/><text fill="#26215C" font-family="sans-serif" font-size="12" lengthAdjust="spacing" textLength="84" x="506.5" y="68.1387">ResultService</text><rect fill="#FFFFFF" height="27.9688" rx="2.5" ry="2.5" style="stroke:#AFA9EC;stroke-width:0.5;" width="98" x="499.5" y="1421.7344"/><text fill="#26215C" font-family="sans-serif" font-size="12" lengthAdjust="spacing" textLength="84" x="506.5" y="1439.873">ResultService</text><text fill="#26215C" font-family="sans-serif" font-size="12" lengthAdjust="spacing" textLength="39" x="683" y="76.1387">MySQL</text><path d="M687.5,29 C687.5,19 705.5,19 705.5,19 C705.5,19 723.5,19 723.5,29 L723.5,55 C723.5,65 705.5,65 705.5,65 C705.5,65 687.5,65 687.5,55 L687.5,29 " fill="#E2E2F0" style="stroke:#181818;stroke-width:1.5;"/><path d="M687.5,29 C687.5,39 705.5,39 705.5,39 C705.5,39 723.5,39 723.5,29 " fill="none" style="stroke:#181818;stroke-width:1.5;"/><text fill="#26215C" font-family="sans-serif" font-size="12" lengthAdjust="spacing" textLength="39" x="683" y="1432.873">MySQL</text><path d="M687.5,1445.7031 C687.5,1435.7031 705.5,1435.7031 705.5,1435.7031 C705.5,1435.7031 723.5,1435.7031 723.5,1445.7031 L723.5,1471.7031 C723.5,1481.7031 705.5,1481.7031 705.5,1481.7031 C705.5,1481.7031 687.5,1481.7031 687.5,1471.7031 L687.5,1445.7031 " fill="#E2E2F0" style="stroke:#181818;stroke-width:1.5;"/><path d="M687.5,1445.7031 C687.5,1455.7031 705.5,1455.7031 705.5,1455.7031 C705.5,1455.7031 723.5,1455.7031 723.5,1445.7031 " fill="none" style="stroke:#181818;stroke-width:1.5;"/><rect fill="#E2E2F0" height="27.9688" style="stroke:#181818;stroke-width:0.5;" width="94" x="742" y="46"/><rect fill="#E2E2F0" height="27.9688" style="stroke:#181818;stroke-width:0.5;" width="94" x="738" y="50"/><text fill="#26215C" font-family="sans-serif" font-size="12" lengthAdjust="spacing" textLength="80" x="745" y="68.1387">Kakao OAuth</text><rect fill="#E2E2F0" height="27.9688" style="stroke:#181818;stroke-width:0.5;" width="94" x="742" y="1421.7344"/><rect fill="#E2E2F0" height="27.9688" style="stroke:#181818;stroke-width:0.5;" width="94" x="738" y="1425.7344"/><text fill="#26215C" font-family="sans-serif" font-size="12" lengthAdjust="spacing" textLength="80" x="745" y="1443.873">Kakao OAuth</text><rect fill="#F5F3FF" height="213.4063" style="stroke:#AFA9EC;stroke-width:1.0;" width="10" x="313.5" y="1001.3984"/><rect fill="#F5F3FF" height="227.8984" style="stroke:#AFA9EC;stroke-width:1.0;" width="10" x="432.5" y="621"/><rect fill="#F5F3FF" height="150.4844" style="stroke:#AFA9EC;stroke-width:1.0;" width="10" x="543.5" y="1027.0391"/><rect fill="#EEEDFE" height="3" style="stroke:#EEEDFE;stroke-width:1.0;" width="841" x="0" y="108.9531"/><line style="stroke:#534AB7;stroke-width:1.0;" x1="0" x2="841" y1="108.9531" y2="108.9531"/><line style="stroke:#534AB7;stroke-width:1.0;" x1="0" x2="841" y1="111.9531" y2="111.9531"/><rect fill="#EEEDFE" height="21.9688" style="stroke:#534AB7;stroke-width:2.0;" width="75" x="383" y="98.9688"/><text fill="#3C3489" font-family="sans-serif" font-size="12" font-weight="bold" lengthAdjust="spacing" textLength="57" x="389" y="114.1074">&#48708;&#54924;&#50896; &#44160;&#49324; &#51025;&#49884;</text><polygon fill="#7F77DD" points="134.5,144.5781,144.5,148.5781,134.5,152.5781,138.5,148.5781" style="stroke:#7F77DD;stroke-width:1.0;"/><line style="stroke:#7F77DD;stroke-width:1.0;" x1="33.5" x2="140.5" y1="148.5781" y2="148.5781"/><text fill="#534AB7" font-family="sans-serif" font-size="10" lengthAdjust="spacing" textLength="27" x="76.5" y="144.2197">&#44160;&#49324; &#49884;&#51089;</text><polygon fill="#7F77DD" points="306.5,181.8594,316.5,185.8594,306.5,189.8594,310.5,185.8594" style="stroke:#7F77DD;stroke-width:1.0;"/><line style="stroke:#7F77DD;stroke-width:1.0;" x1="146.5" x2="312.5" y1="185.8594" y2="185.8594"/><text fill="#534AB7" font-family="sans-serif" font-size="10" lengthAdjust="spacing" textLength="94" x="185.5" y="169.8604">POST /results/score</text><text fill="#534AB7" font-family="sans-serif" font-size="10" lengthAdjust="spacing" textLength="81" x="192" y="181.501">{ answers: [...] }</text><polygon fill="#7F77DD" points="157.5,219.1406,147.5,223.1406,157.5,227.1406,153.5,223.1406" style="stroke:#7F77DD;stroke-width:1.0;"/><line style="stroke:#7F77DD;stroke-width:1.0;stroke-dasharray:2.0,2.0;" x1="151.5" x2="317.5" y1="223.1406" y2="223.1406"/><text fill="#534AB7" font-family="sans-serif" font-size="10" lengthAdjust="spacing" textLength="36" x="214.5" y="207.1416">200 OK</text><text fill="#534AB7" font-family="sans-serif" font-size="10" lengthAdjust="spacing" textLength="148" x="158.5" y="218.7822">{ rawScores, buckets, report }</text><path d="M151,236.1406 L151,269.1406 L220,269.1406 L220,246.1406 L210,236.1406 L151,236.1406 " fill="#F5F3FF" style="stroke:#AFA9EC;stroke-width:0.5;"/><path d="M210,236.1406 L210,246.1406 L220,246.1406 L210,236.1406 " fill="#F5F3FF" style="stroke:#AFA9EC;stroke-width:0.5;"/><text fill="#534AB7" font-family="sans-serif" font-size="10" lengthAdjust="spacing" textLength="48" x="157" y="250.4229">&#49436;&#48260; &#49464;&#49496; &#48120;&#48156;&#44553;</text><text fill="#534AB7" font-family="sans-serif" font-size="10" lengthAdjust="spacing" textLength="41" x="157" y="262.0635">(&#54540;&#47084;&#46377; &#48169;&#50612;)</text><line style="stroke:#7F77DD;stroke-width:1.0;" x1="146.5" x2="188.5" y1="326.9844" y2="326.9844"/><line style="stroke:#7F77DD;stroke-width:1.0;" x1="188.5" x2="188.5" y1="326.9844" y2="339.9844"/><line style="stroke:#7F77DD;stroke-width:1.0;" x1="147.5" x2="188.5" y1="339.9844" y2="339.9844"/><polygon fill="#7F77DD" points="157.5,335.9844,147.5,339.9844,157.5,343.9844,153.5,339.9844" style="stroke:#7F77DD;stroke-width:1.0;"/><text fill="#534AB7" font-family="sans-serif" font-size="10" lengthAdjust="spacing" textLength="119" x="153.5" y="287.7041">sessionStorage.setItem(</text><text fill="#534AB7" font-family="sans-serif" font-size="10" lengthAdjust="spacing" textLength="86" x="173" y="299.3447">'disc_raw_scores',</text><text fill="#534AB7" font-family="sans-serif" font-size="10" lengthAdjust="spacing" textLength="75" x="178.5" y="310.9854">{ d, i, s, c &#50896;&#51216;&#49688; }</text><text fill="#534AB7" font-family="sans-serif" font-size="10" lengthAdjust="spacing" textLength="4" x="211" y="322.626">)</text><polygon fill="#7F77DD" points="44.5,373.2656,34.5,377.2656,44.5,381.2656,40.5,377.2656" style="stroke:#7F77DD;stroke-width:1.0;"/><line style="stroke:#7F77DD;stroke-width:1.0;stroke-dasharray:2.0,2.0;" x1="38.5" x2="145.5" y1="377.2656" y2="377.2656"/><text fill="#534AB7" font-family="sans-serif" font-size="10" lengthAdjust="spacing" textLength="27" x="76.5" y="361.2666">&#44208;&#44284; &#54868;&#47732;</text><text fill="#534AB7" font-family="sans-serif" font-size="10" lengthAdjust="spacing" textLength="78" x="51" y="372.9072">("&#49324;&#50857;&#51088;&#45784;&#51032; &#44053;&#51216;&#51008;...")</text><rect fill="#EEEDFE" height="3" style="stroke:#EEEDFE;stroke-width:1.0;" width="841" x="0" y="405.25"/><line style="stroke:#534AB7;stroke-width:1.0;" x1="0" x2="841" y1="405.25" y2="405.25"/><line style="stroke:#534AB7;stroke-width:1.0;" x1="0" x2="841" y1="408.25" y2="408.25"/><rect fill="#EEEDFE" height="21.9688" style="stroke:#534AB7;stroke-width:2.0;" width="86" x="377.5" y="395.2656"/><text fill="#3C3489" font-family="sans-serif" font-size="12" font-weight="bold" lengthAdjust="spacing" textLength="68" x="383.5" y="410.4043">&#47196;&#44536;&#51064; &#54980; &#44208;&#44284; &#51200;&#51109;</text><polygon fill="#7F77DD" points="134.5,440.875,144.5,444.875,134.5,448.875,138.5,444.875" style="stroke:#7F77DD;stroke-width:1.0;"/><line style="stroke:#7F77DD;stroke-width:1.0;" x1="33.5" x2="140.5" y1="444.875" y2="444.875"/><text fill="#534AB7" font-family="sans-serif" font-size="10" lengthAdjust="spacing" textLength="81" x="49.5" y="440.5166">'&#47196;&#44536;&#51064;&#54616;&#44256; &#44208;&#44284; &#51200;&#51109;' &#53364;&#47533;</text><line style="stroke:#7F77DD;stroke-width:1.0;" x1="146.5" x2="188.5" y1="482.1563" y2="482.1563"/><line style="stroke:#7F77DD;stroke-width:1.0;" x1="188.5" x2="188.5" y1="482.1563" y2="495.1563"/><line style="stroke:#7F77DD;stroke-width:1.0;" x1="147.5" x2="188.5" y1="495.1563" y2="495.1563"/><polygon fill="#7F77DD" points="157.5,491.1563,147.5,495.1563,157.5,499.1563,153.5,495.1563" style="stroke:#7F77DD;stroke-width:1.0;"/><text fill="#534AB7" font-family="sans-serif" font-size="10" lengthAdjust="spacing" textLength="86" x="153.5" y="466.1572">sessionStorage&#50640;&#49436;</text><text fill="#534AB7" font-family="sans-serif" font-size="10" lengthAdjust="spacing" textLength="33" x="180" y="477.7979">&#50896;&#51216;&#49688; &#51069;&#44592;</text><polygon fill="#7F77DD" points="425.5,528.4375,435.5,532.4375,425.5,536.4375,429.5,532.4375" style="stroke:#7F77DD;stroke-width:1.0;"/><line style="stroke:#7F77DD;stroke-width:1.0;" x1="146.5" x2="431.5" y1="532.4375" y2="532.4375"/><text fill="#534AB7" font-family="sans-serif" font-size="10" lengthAdjust="spacing" textLength="79" x="252.5" y="516.4385">GET /auth/kakao</text><text fill="#534AB7" font-family="sans-serif" font-size="10" lengthAdjust="spacing" textLength="80" x="252" y="528.0791">(&#52852;&#52852;&#50724; &#47196;&#44536;&#51064; &#47532;&#45796;&#51060;&#47113;&#53944;)</text><polygon fill="#7F77DD" points="157.5,554.0781,147.5,558.0781,157.5,562.0781,153.5,558.0781" style="stroke:#7F77DD;stroke-width:1.0;"/><line style="stroke:#7F77DD;stroke-width:1.0;stroke-dasharray:2.0,2.0;" x1="151.5" x2="436.5" y1="558.0781" y2="558.0781"/><text fill="#534AB7" font-family="sans-serif" font-size="10" lengthAdjust="spacing" textLength="104" x="240" y="553.7197">302 &#8594; Kakao &#47196;&#44536;&#51064; &#54168;&#51060;&#51648;</text><polygon fill="#7F77DD" points="775,579.7188,785,583.7188,775,587.7188,779,583.7188" style="stroke:#7F77DD;stroke-width:1.0;"/><line style="stroke:#7F77DD;stroke-width:1.0;" x1="33.5" x2="781" y1="583.7188" y2="583.7188"/><text fill="#534AB7" font-family="sans-serif" font-size="10" lengthAdjust="spacing" textLength="39" x="390.75" y="579.3604">&#52852;&#52852;&#50724; &#47196;&#44536;&#51064;</text><polygon fill="#7F77DD" points="453.5,617,443.5,621,453.5,625,449.5,621" style="stroke:#7F77DD;stroke-width:1.0;"/><line style="stroke:#7F77DD;stroke-width:1.0;stroke-dasharray:2.0,2.0;" x1="447.5" x2="786" y1="621" y2="621"/><text fill="#534AB7" font-family="sans-serif" font-size="10" lengthAdjust="spacing" textLength="119" x="555.25" y="605.001">GET /auth/kakao/callback</text><text fill="#534AB7" font-family="sans-serif" font-size="10" lengthAdjust="spacing" textLength="41" x="594.25" y="616.6416">{ code }</text><polygon fill="#7F77DD" points="775,642.6406,785,646.6406,775,650.6406,779,646.6406" style="stroke:#7F77DD;stroke-width:1.0;"/><line style="stroke:#7F77DD;stroke-width:1.0;" x1="442.5" x2="781" y1="646.6406" y2="646.6406"/><text fill="#534AB7" font-family="sans-serif" font-size="10" lengthAdjust="spacing" textLength="87" x="571.25" y="642.2822">&#53664;&#53360; &#44368;&#54872; &#48143; &#49324;&#50857;&#51088; &#51221;&#48372; &#51312;&#54924;</text><polygon fill="#7F77DD" points="453.5,668.2813,443.5,672.2813,453.5,676.2813,449.5,672.2813" style="stroke:#7F77DD;stroke-width:1.0;"/><line style="stroke:#7F77DD;stroke-width:1.0;stroke-dasharray:2.0,2.0;" x1="447.5" x2="786" y1="672.2813" y2="672.2813"/><text fill="#534AB7" font-family="sans-serif" font-size="10" lengthAdjust="spacing" textLength="54" x="587.75" y="667.9229">&#52852;&#52852;&#50724; &#49324;&#50857;&#51088; &#51221;&#48372;</text><path d="M375.5,687.2813 L439.5,687.2813 L439.5,693.25 L429.5,703.25 L375.5,703.25 L375.5,687.2813 " fill="#EEEDFE" style="stroke:#534AB7;stroke-width:1.5;"/><rect fill="none" height="125.3359" style="stroke:#534AB7;stroke-width:1.5;" width="446.5" x="375.5" y="687.2813"/><text fill="#26215C" font-family="sans-serif" font-size="12" font-weight="bold" lengthAdjust="spacing" textLength="19" x="390.5" y="699.4199">alt</text><text fill="#3C3489" font-family="sans-serif" font-size="11" font-weight="bold" lengthAdjust="spacing" textLength="42" x="454.5" y="699.4917">[&#49888;&#44508; &#54924;&#50896;]</text><polygon fill="#7F77DD" points="693.5,728.5313,703.5,732.5313,693.5,736.5313,697.5,732.5313" style="stroke:#7F77DD;stroke-width:1.0;"/><line style="stroke:#7F77DD;stroke-width:1.0;" x1="442.5" x2="699.5" y1="732.5313" y2="732.5313"/><text fill="#534AB7" font-family="sans-serif" font-size="10" lengthAdjust="spacing" textLength="66" x="541" y="716.5322">INSERT users</text><text fill="#534AB7" font-family="sans-serif" font-size="10" lengthAdjust="spacing" textLength="145" x="501.5" y="728.1729">(kakao_id, nickname, coins=3)</text><path d="M710,745.5313 L710,766.5313 L812,766.5313 L812,755.5313 L802,745.5313 L710,745.5313 " fill="#F5F3FF" style="stroke:#AFA9EC;stroke-width:0.5;"/><path d="M802,745.5313 L802,755.5313 L812,755.5313 L802,745.5313 " fill="#F5F3FF" style="stroke:#AFA9EC;stroke-width:0.5;"/><text fill="#534AB7" font-family="sans-serif" font-size="10" lengthAdjust="spacing" textLength="81" x="716" y="759.8135">&#44032;&#51077; &#49884; &#53076;&#51064; 3&#44060; &#52488;&#44592; &#51648;&#44553;</text><line style="stroke:#534AB7;stroke-width:1.0;stroke-dasharray:2.0,2.0;" x1="375.5" x2="822" y1="773.1719" y2="773.1719"/><text fill="#3C3489" font-family="sans-serif" font-size="11" font-weight="bold" lengthAdjust="spacing" textLength="42" x="380.5" y="783.3823">[&#44592;&#51316; &#54924;&#50896;]</text><polygon fill="#7F77DD" points="693.5,800.6172,703.5,804.6172,693.5,808.6172,697.5,804.6172" style="stroke:#7F77DD;stroke-width:1.0;"/><line style="stroke:#7F77DD;stroke-width:1.0;" x1="442.5" x2="699.5" y1="804.6172" y2="804.6172"/><text fill="#534AB7" font-family="sans-serif" font-size="10" lengthAdjust="spacing" textLength="167" x="490.5" y="800.2588">SELECT users WHERE kakao_id=?</text><polygon fill="#7F77DD" points="157.5,844.8984,147.5,848.8984,157.5,852.8984,153.5,848.8984" style="stroke:#7F77DD;stroke-width:1.0;"/><line style="stroke:#7F77DD;stroke-width:1.0;stroke-dasharray:2.0,2.0;" x1="151.5" x2="436.5" y1="848.8984" y2="848.8984"/><text fill="#534AB7" font-family="sans-serif" font-size="10" lengthAdjust="spacing" textLength="80" x="252" y="832.8994">302 &#8594; &#44208;&#44284; &#51200;&#51109; &#54168;&#51060;&#51648;</text><text fill="#534AB7" font-family="sans-serif" font-size="10" lengthAdjust="spacing" textLength="84" x="250" y="844.54">(JSESSIONID &#48156;&#44553;)</text><rect fill="#EEEDFE" height="3" style="stroke:#EEEDFE;stroke-width:1.0;" width="841" x="0" y="876.8828"/><line style="stroke:#534AB7;stroke-width:1.0;" x1="0" x2="841" y1="876.8828" y2="876.8828"/><line style="stroke:#534AB7;stroke-width:1.0;" x1="0" x2="841" y1="879.8828" y2="879.8828"/><rect fill="#EEEDFE" height="21.9688" style="stroke:#534AB7;stroke-width:2.0;" width="75" x="383" y="866.8984"/><text fill="#3C3489" font-family="sans-serif" font-size="12" font-weight="bold" lengthAdjust="spacing" textLength="57" x="389" y="882.0371">&#50896;&#51216;&#49688; &#49436;&#48260; &#51204;&#49569;</text><line style="stroke:#7F77DD;stroke-width:1.0;" x1="146.5" x2="188.5" y1="928.1484" y2="928.1484"/><line style="stroke:#7F77DD;stroke-width:1.0;" x1="188.5" x2="188.5" y1="928.1484" y2="941.1484"/><line style="stroke:#7F77DD;stroke-width:1.0;" x1="147.5" x2="188.5" y1="941.1484" y2="941.1484"/><polygon fill="#7F77DD" points="157.5,937.1484,147.5,941.1484,157.5,945.1484,153.5,941.1484" style="stroke:#7F77DD;stroke-width:1.0;"/><text fill="#534AB7" font-family="sans-serif" font-size="10" lengthAdjust="spacing" textLength="86" x="153.5" y="912.1494">sessionStorage&#50640;&#49436;</text><text fill="#534AB7" font-family="sans-serif" font-size="10" lengthAdjust="spacing" textLength="39" x="177" y="923.79">&#50896;&#51216;&#49688; &#44732;&#45236;&#44592;</text><path d="M10,956.1484 L74,956.1484 L74,962.1172 L64,972.1172 L10,972.1172 L10,956.1484 " fill="#EEEDFE" style="stroke:#534AB7;stroke-width:1.5;"/><rect fill="none" height="449.5859" style="stroke:#534AB7;stroke-width:1.5;" width="728" x="10" y="956.1484"/><text fill="#26215C" font-family="sans-serif" font-size="12" font-weight="bold" lengthAdjust="spacing" textLength="19" x="25" y="968.2871">alt</text><text fill="#3C3489" font-family="sans-serif" font-size="11" font-weight="bold" lengthAdjust="spacing" textLength="159" x="89" y="968.3589">[sessionStorage&#50640; &#50896;&#51216;&#49688; &#51080;&#51020;]</text><polygon fill="#7F77DD" points="301.5,997.3984,311.5,1001.3984,301.5,1005.3984,305.5,1001.3984" style="stroke:#7F77DD;stroke-width:1.0;"/><line style="stroke:#7F77DD;stroke-width:1.0;" x1="146.5" x2="307.5" y1="1001.3984" y2="1001.3984"/><text fill="#534AB7" font-family="sans-serif" font-size="10" lengthAdjust="spacing" textLength="65" x="197.5" y="985.3994">POST /results</text><text fill="#534AB7" font-family="sans-serif" font-size="10" lengthAdjust="spacing" textLength="75" x="192.5" y="997.04">{ d, i, s, c &#50896;&#51216;&#49688; }</text><polygon fill="#7F77DD" points="531.5,1023.0391,541.5,1027.0391,531.5,1031.0391,535.5,1027.0391" style="stroke:#7F77DD;stroke-width:1.0;"/><line style="stroke:#7F77DD;stroke-width:1.0;" x1="323.5" x2="537.5" y1="1027.0391" y2="1027.0391"/><text fill="#534AB7" font-family="sans-serif" font-size="10" lengthAdjust="spacing" textLength="118" x="374.5" y="1022.6807">save(userId, rawScores)</text><line style="stroke:#7F77DD;stroke-width:1.0;" x1="553.5" x2="595.5" y1="1064.3203" y2="1064.3203"/><line style="stroke:#7F77DD;stroke-width:1.0;" x1="595.5" x2="595.5" y1="1064.3203" y2="1077.3203"/><line style="stroke:#7F77DD;stroke-width:1.0;" x1="554.5" x2="595.5" y1="1077.3203" y2="1077.3203"/><polygon fill="#7F77DD" points="564.5,1073.3203,554.5,1077.3203,564.5,1081.3203,560.5,1077.3203" style="stroke:#7F77DD;stroke-width:1.0;"/><text fill="#534AB7" font-family="sans-serif" font-size="10" lengthAdjust="spacing" textLength="33" x="583.5" y="1048.3213">&#48260;&#53431;&#44050; &#49328;&#52636;</text><text fill="#534AB7" font-family="sans-serif" font-size="10" lengthAdjust="spacing" textLength="79" x="560.5" y="1059.9619">(&#50896;&#51216;&#49688; &#8594; 9&#45800;&#44228; &#51221;&#44508;&#54868;)</text><polygon fill="#7F77DD" points="693.5,1122.2422,703.5,1126.2422,693.5,1130.2422,697.5,1126.2422" style="stroke:#7F77DD;stroke-width:1.0;"/><line style="stroke:#7F77DD;stroke-width:1.0;" x1="553.5" x2="699.5" y1="1126.2422" y2="1126.2422"/><text fill="#534AB7" font-family="sans-serif" font-size="10" lengthAdjust="spacing" textLength="96" x="581.5" y="1098.6025">INSERT test_results</text><text fill="#534AB7" font-family="sans-serif" font-size="10" lengthAdjust="spacing" textLength="128" x="565.5" y="1110.2432">(userId, rater_type=SELF,</text><text fill="#534AB7" font-family="sans-serif" font-size="10" lengthAdjust="spacing" textLength="46" x="606.5" y="1121.8838">&#50896;&#51216;&#49688;, &#48260;&#53431;&#44050;)</text><polygon fill="#7F77DD" points="564.5,1147.8828,554.5,1151.8828,564.5,1155.8828,560.5,1151.8828" style="stroke:#7F77DD;stroke-width:1.0;"/><line style="stroke:#7F77DD;stroke-width:1.0;stroke-dasharray:2.0,2.0;" x1="558.5" x2="704.5" y1="1151.8828" y2="1151.8828"/><text fill="#534AB7" font-family="sans-serif" font-size="10" lengthAdjust="spacing" textLength="36" x="611.5" y="1147.5244">resultId</text><polygon fill="#7F77DD" points="334.5,1173.5234,324.5,1177.5234,334.5,1181.5234,330.5,1177.5234" style="stroke:#7F77DD;stroke-width:1.0;"/><line style="stroke:#7F77DD;stroke-width:1.0;stroke-dasharray:2.0,2.0;" x1="328.5" x2="547.5" y1="1177.5234" y2="1177.5234"/><text fill="#534AB7" font-family="sans-serif" font-size="10" lengthAdjust="spacing" textLength="36" x="418" y="1173.165">resultId</text><polygon fill="#7F77DD" points="157.5,1210.8047,147.5,1214.8047,157.5,1218.8047,153.5,1214.8047" style="stroke:#7F77DD;stroke-width:1.0;"/><line style="stroke:#7F77DD;stroke-width:1.0;stroke-dasharray:2.0,2.0;" x1="151.5" x2="317.5" y1="1214.8047" y2="1214.8047"/><text fill="#534AB7" font-family="sans-serif" font-size="10" lengthAdjust="spacing" textLength="61" x="202" y="1198.8057">201 Created</text><text fill="#534AB7" font-family="sans-serif" font-size="10" lengthAdjust="spacing" textLength="54" x="205.5" y="1210.4463">{ resultId }</text><line style="stroke:#7F77DD;stroke-width:1.0;" x1="146.5" x2="188.5" y1="1263.7266" y2="1263.7266"/><line style="stroke:#7F77DD;stroke-width:1.0;" x1="188.5" x2="188.5" y1="1263.7266" y2="1276.7266"/><line style="stroke:#7F77DD;stroke-width:1.0;" x1="147.5" x2="188.5" y1="1276.7266" y2="1276.7266"/><polygon fill="#7F77DD" points="157.5,1272.7266,147.5,1276.7266,157.5,1280.7266,153.5,1276.7266" style="stroke:#7F77DD;stroke-width:1.0;"/><text fill="#534AB7" font-family="sans-serif" font-size="10" lengthAdjust="spacing" textLength="142" x="153.5" y="1236.0869">sessionStorage.removeItem(</text><text fill="#534AB7" font-family="sans-serif" font-size="10" lengthAdjust="spacing" textLength="83" x="186" y="1247.7275">'disc_raw_scores'</text><text fill="#534AB7" font-family="sans-serif" font-size="10" lengthAdjust="spacing" textLength="4" x="222.5" y="1259.3682">)</text><polygon fill="#7F77DD" points="44.5,1310.0078,34.5,1314.0078,44.5,1318.0078,40.5,1314.0078" style="stroke:#7F77DD;stroke-width:1.0;"/><line style="stroke:#7F77DD;stroke-width:1.0;stroke-dasharray:2.0,2.0;" x1="38.5" x2="145.5" y1="1314.0078" y2="1314.0078"/><text fill="#534AB7" font-family="sans-serif" font-size="10" lengthAdjust="spacing" textLength="42" x="69" y="1298.0088">&#44208;&#44284; &#51200;&#51109; &#50756;&#47308;</text><text fill="#534AB7" font-family="sans-serif" font-size="10" lengthAdjust="spacing" textLength="89" x="45.5" y="1309.6494">(&#45769;&#45348;&#51076;&#51004;&#47196; &#51060;&#47492; &#44368;&#52404; &#47116;&#45908;&#47553;)</text><line style="stroke:#534AB7;stroke-width:1.0;stroke-dasharray:2.0,2.0;" x1="10" x2="738" y1="1323.0078" y2="1323.0078"/><text fill="#3C3489" font-family="sans-serif" font-size="11" font-weight="bold" lengthAdjust="spacing" textLength="159" x="15" y="1333.2183">[sessionStorage&#50640; &#50896;&#51216;&#49688; &#50630;&#51020;]</text><path d="M151,1341.8125 L151,1374.8125 L214,1374.8125 L214,1351.8125 L204,1341.8125 L151,1341.8125 " fill="#F5F3FF" style="stroke:#AFA9EC;stroke-width:0.5;"/><path d="M204,1341.8125 L204,1351.8125 L214,1351.8125 L204,1341.8125 " fill="#F5F3FF" style="stroke:#AFA9EC;stroke-width:0.5;"/><text fill="#534AB7" font-family="sans-serif" font-size="10" lengthAdjust="spacing" textLength="39" x="157" y="1356.0947">&#47196;&#44536;&#51064;&#47564; &#50756;&#47308;</text><text fill="#534AB7" font-family="sans-serif" font-size="10" lengthAdjust="spacing" textLength="42" x="157" y="1367.7354">&#44208;&#44284; &#51200;&#51109; &#49828;&#53429;</text><polygon fill="#7F77DD" points="44.5,1393.7344,34.5,1397.7344,44.5,1401.7344,40.5,1397.7344" style="stroke:#7F77DD;stroke-width:1.0;"/><line style="stroke:#7F77DD;stroke-width:1.0;stroke-dasharray:2.0,2.0;" x1="38.5" x2="145.5" y1="1397.7344" y2="1397.7344"/><text fill="#534AB7" font-family="sans-serif" font-size="10" lengthAdjust="spacing" textLength="54" x="63" y="1393.376">&#47700;&#51064; &#54868;&#47732;&#51004;&#47196; &#51060;&#46041;</text><!--SRC=[dLPjJzjM5FxkNt6KVO18uJLbh9NI2PB0M2biTQLz61CozeLw63kp7JfMLQ8eHMt9Lbh12ct2WiRQ8NMQLT8rhUYVsKVxvZ_iN3jnhfDGjWK4yJtddfVdFESSMykgdfDCQGKM97bvoJJokf8sDCE4ZoR6s8zWXHeAMPJocZrXwFQCj48WDfRBQGJ434mQzWrLXXbY9C2ITAlF8gQw6Ej-LrH_830qt5tOy3tyyV3GI9fJiSXtUQBBv2gnB6c9Z6dgaWuoqMrY2fmQ_hLLMSr9kWst183nZgJy3vCOfaBCnYdcUJ6RnjFE48ApPiotUMUIRAFYVt0pEZ4wcib4tIJJoGkVN6npqtYorn3U1KDJedwRMFYknqpJkDbktp_ad8maBuoDZ_A2mDCW7ashYsHQrKbtG49fHuOZ4qa_mqaypKKkXzu2KVlDR3QRcSWsnTsW20L1b4CjByhQsO5ar5KLWpZRNrEXQwmDOMSu4UXrmoPdLBmPnhd42btoTK0l0PrYtjj2_McHFjkEWMJ1P9vOji3JEZP3lhVxlxNcz5wlLlJAf_IfGolhSLyzhQdO4r7zQyJ2vagZCzFGD6BwYer3szIYocDv-qQRgd_KeHWO48cvgig4Cockoe8YsTA2PE64kBecVZdjIpFZWiniohPgw1R4haZBaW6ppBWlzvy58PM2401mNwtJZPT0ou_eLWbIAK7muO2-our4uLAeirMY1u-4nZ4gj194fIzcnUimOFf7re0b6oQPqsy1JggRnBGkmTVz_VtVm6s1kzJ7EnaU78JPA-oAATqKsNKh0GjvUPdO-CKaESEqyRhWqyDKbsxOO2msYm502oNlLG7_rUZTFV3-h7bEoQtTHqblVQVe_VBIspa6ppccFrVZ0j4LdsO2bqmOY8NZ3_4JaIau1VijOa_PPALtJWVeKLHBdiVuvltyh9u4Exq5IW9KdCe9a04nfPLjUcyFRi_fyPO3z100o-1qt9DJgE_lUCTLf5WCmQLFZ-d1jhUrHyjxu3gxp4Pv7I6BnOE27PRSDpLQha7zMQ5f0Ib93tuxesWzuPNwxfvxKebUwe7wdQht_8_p0Q1FjX7RERsL62s_TsiEZrsJldXvCeiiaF1vO9cn3TEZRwliT- -8Iy9x_jBREgBbgbUvNtzGYmkXXGWdaeF3yFVcuu2uF0O_8KvL-cATIppGkGHTt0c1hE-3aGx8agQn1SqeA1iAWM1UgAiI4Yviq5QWBPVrpKhzZWFkw-twFdBFUGXXHH7kNU-a2lJGmORh7aWhulPh681cOzzLt3Sb21gMBHWkXCmu6fYQ4RFNhaCUtmZOoFBJcLUHbBegB-lu6e74D5JTIYNZU3tQG3Wp03-kWwouoreSwFiTXd7ITV1xzHwM6X3fe9V2nY4QZXuKqSFg1m8JizFPT2Cm-EgpxBKiD8DBVSgwK3Ydy56YXsN793yNiw8uDJipbO6Wq-E2GZhBnNg7OsvZI5GATFFGxvl_GN_ttQctKVKxW5MdGvttTt2Fbek8pB-PcOnttGS96WWpuvOA7lF3z79hEx0if5NIou2VGflXH8rtccBB1BYhRNOGh_h66zTvZEHqw5ybrj1XPAn45xsjtzqJ1kekiXI7MhpT7CzH6xjrFaoO2n1VCkVjjHn98MSc4XpUYLO8p38QwsiBCJ0tfKJzjcFDQN54QM7GXcPqDGr1sYIeh_ZxgM79Bqo7hMPfpjyi9banLidPouNjZvQTpWNIw0gwN_1-BR9NbQtxNk687XHewHHd7x3n-hp0nX9zLGMlKlH-tF5UtC65udVl1udxP3CWxXdR5bh3rNjHR8GG399eR0-EwXkl-S7HDI7ls1yvmKRaed-uxm-9Vm00]--></g></svg>