<?xml version="1.0" encoding="us-ascii" standalone="no"?><svg xmlns="http://www.w3.org/2000/svg" xmlns:xlink="http://www.w3.org/1999/xlink" contentStyleType="text/css" height="1496px" preserveAspectRatio="none" style="width:1021px;height:1496px;background:#FAFAFA;" version="1.1" viewBox="0 0 1021 1496" width="1021px" zoomAndPan="magnify"><defs/><g><rect fill="#FAFAFA" height="1496" style="stroke:none;stroke-width:1.0;" width="1021" x="0" y="0"/><!--cluster MyCPT ???--><g id="cluster_MyCPT &#49884;&#49828;&#53596;"><rect fill="#EEEDFE" height="852" rx="2.5" ry="2.5" style="stroke:#534AB7;stroke-width:1.0;" width="916" x="99" y="310"/><text fill="#000000" font-family="sans-serif" font-size="14" font-weight="bold" lengthAdjust="spacing" textLength="89" x="512.5" y="328.2399">MyCPT &#49884;&#49828;&#53596;</text></g><!--cluster ?? ??--><g id="cluster_&#44277;&#53685; &#44592;&#45733;"><path d="M125.5,494 L181.5,494 A3.75,3.75 0 0 1 184,496.5 L191,520.2719 L418.5,520.2719 A2.5,2.5 0 0 1 421,522.7719 L421,764.5 A2.5,2.5 0 0 1 418.5,767 L125.5,767 A2.5,2.5 0 0 1 123,764.5 L123,496.5 A2.5,2.5 0 0 1 125.5,494 " fill="#EEF6FF" style="stroke:#534AB7;stroke-width:2.0;"/><line style="stroke:#534AB7;stroke-width:2.0;" x1="123" x2="191" y1="520.2719" y2="520.2719"/><text fill="#3C3489" font-family="sans-serif" font-size="14" font-weight="bold" lengthAdjust="spacing" textLength="55" x="127" y="512.2399">&#44277;&#53685; &#44592;&#45733;</text></g><!--cluster ?? ?? ??--><g id="cluster_&#54924;&#50896; &#51204;&#50857; &#44592;&#45733;"><path d="M454,585 L539,585 A3.75,3.75 0 0 1 541.5,587.5 L548.5,611.2719 L988.5,611.2719 A2.5,2.5 0 0 1 991,613.7719 L991,1135.5 A2.5,2.5 0 0 1 988.5,1138 L454,1138 A2.5,2.5 0 0 1 451.5,1135.5 L451.5,587.5 A2.5,2.5 0 0 1 454,585 " fill="#F0FDF4" style="stroke:#534AB7;stroke-width:2.0;"/><line style="stroke:#534AB7;stroke-width:2.0;" x1="451.5" x2="548.5" y1="611.2719" y2="611.2719"/><text fill="#3C3489" font-family="sans-serif" font-size="14" font-weight="bold" lengthAdjust="spacing" textLength="84" x="455.5" y="603.2399">&#54924;&#50896; &#51204;&#50857; &#44592;&#45733;</text></g><!--cluster ??? ??--><g id="cluster_&#49884;&#49828;&#53596; &#45236;&#48512;"><path d="M451.5,357 L520.5,357 A3.75,3.75 0 0 1 523,359.5 L530,383.2719 L760.5,383.2719 A2.5,2.5 0 0 1 763,385.7719 L763,558.5 A2.5,2.5 0 0 1 760.5,561 L451.5,561 A2.5,2.5 0 0 1 449,558.5 L449,359.5 A2.5,2.5 0 0 1 451.5,357 " fill="#FFF7ED" style="stroke:#534AB7;stroke-width:2.0;"/><line style="stroke:#534AB7;stroke-width:2.0;" x1="449" x2="530" y1="383.2719" y2="383.2719"/><text fill="#3C3489" font-family="sans-serif" font-size="14" font-weight="bold" lengthAdjust="spacing" textLength="68" x="453" y="375.2399">&#49884;&#49828;&#53596; &#45236;&#48512;</text></g><g id="elem_UC_Test"><ellipse cx="271.897" cy="723.0735" fill="#FFFFFF" rx="62.397" ry="27.5735" style="stroke:#AFA9EC;stroke-width:1.5;"/><text fill="#26215C" font-family="sans-serif" font-size="12" lengthAdjust="spacing" textLength="47" x="248.397" y="717.6175">&#44160;&#49324; &#51025;&#49884;</text><text fill="#26215C" font-family="sans-serif" font-size="12" lengthAdjust="spacing" textLength="72" x="235.897" y="734.9936">&#54943;&#49688; &#51228;&#54620; &#50630;&#51020;</text></g><g id="elem_UC_Result"><ellipse cx="272.22" cy="562.044" fill="#FFFFFF" rx="133.22" ry="29.044" style="stroke:#AFA9EC;stroke-width:1.5;"/><text fill="#26215C" font-family="sans-serif" font-size="12" lengthAdjust="spacing" textLength="47" x="248.72" y="556.588">&#44208;&#44284; &#54869;&#51064;</text><text fill="#26215C" font-family="sans-serif" font-size="12" lengthAdjust="spacing" textLength="182" x="181.22" y="573.9641">DISC &#48516;&#49437; &#183; &#44053;&#51216; &#183; &#50557;&#51216; &#46321; 6&#44060; &#49465;&#49496;</text></g><g id="elem_UC_Save"><ellipse cx="272.1263" cy="643.1253" fill="#FFFFFF" rx="73.6263" ry="17.1253" style="stroke:#AFA9EC;stroke-width:1.5;"/><text fill="#26215C" font-family="sans-serif" font-size="12" lengthAdjust="spacing" textLength="97" x="220.6263" y="647.3353">&#47196;&#44536;&#51064; &#54980; &#44208;&#44284; &#51200;&#51109;</text></g><g id="elem_UC_Login"><ellipse cx="605.9989" cy="643.1998" fill="#FFFFFF" rx="83.9989" ry="19.1998" style="stroke:#AFA9EC;stroke-width:1.5;"/><text fill="#26215C" font-family="sans-serif" font-size="12" lengthAdjust="spacing" textLength="124" x="540.9989" y="647.4098">&#52852;&#52852;&#50724; &#47196;&#44536;&#51064; / &#47196;&#44536;&#50500;&#50883;</text></g><g id="elem_UC_History"><ellipse cx="605.8646" cy="1106.0904" fill="#FFFFFF" rx="63.8646" ry="15.5904" style="stroke:#AFA9EC;stroke-width:1.5;"/><text fill="#26215C" font-family="sans-serif" font-size="12" lengthAdjust="spacing" textLength="72" x="566.8646" y="1110.3004">&#44208;&#44284; &#51060;&#47141; &#51312;&#54924;</text></g><g id="elem_UC_Stats"><ellipse cx="606.2462" cy="725.0735" fill="#FFFFFF" rx="77.2462" ry="27.5735" style="stroke:#AFA9EC;stroke-width:1.5;"/><text fill="#26215C" font-family="sans-serif" font-size="12" lengthAdjust="spacing" textLength="72" x="570.2462" y="719.6175">&#53440;&#51064; &#53685;&#44228; &#48708;&#44368;</text><text fill="#26215C" font-family="sans-serif" font-size="12" lengthAdjust="spacing" textLength="93" x="559.7462" y="736.9936">&#45208;&#51060;&#45824; &#183; &#49457;&#48324; &#44592;&#51456;</text></g><g id="elem_UC_Code"><ellipse cx="606.0147" cy="818.1029" fill="#FFFFFF" rx="138.5147" ry="30.1029" style="stroke:#AFA9EC;stroke-width:1.5;"/><text fill="#26215C" font-family="sans-serif" font-size="12" lengthAdjust="spacing" textLength="97" x="557.5147" y="812.6469">&#46041;&#47308; &#52488;&#45824; &#53076;&#46300; &#49373;&#49457;</text><text fill="#26215C" font-family="sans-serif" font-size="12" lengthAdjust="spacing" textLength="196" x="508.0147" y="830.023">&#45824;&#47928;&#51088;+&#49707;&#51088; 8&#51088;&#47532; &#183; &#45796;&#54924;&#50857; &#183; 7&#51068; &#44081;&#49888;</text></g><g id="elem_UC_ColleagueRegister"><ellipse cx="605.93" cy="922.8603" fill="#FFFFFF" rx="115.43" ry="39.8603" style="stroke:#AFA9EC;stroke-width:1.5;"/><text fill="#26215C" font-family="sans-serif" font-size="12" lengthAdjust="spacing" textLength="86" x="562.93" y="908.7162">&#46041;&#47308; &#52488;&#45824; &#48143; &#46321;&#47197;</text><text fill="#26215C" font-family="sans-serif" font-size="12" lengthAdjust="spacing" textLength="147" x="532.43" y="926.0924">&#47553;&#53356; &#44277;&#50976; &#46608;&#45716; &#53076;&#46300; &#51649;&#51217; &#51077;&#47141;</text><text fill="#26215C" font-family="sans-serif" font-size="12" lengthAdjust="spacing" textLength="122" x="544.93" y="943.4685">&#49688;&#46973; &#49884; &#50577;&#48169;&#54693; &#44288;&#44228; &#49373;&#49457;</text></g><g id="elem_UC_Compat"><ellipse cx="606.1342" cy="1027.0268" fill="#FFFFFF" rx="130.6342" ry="28.5268" style="stroke:#AFA9EC;stroke-width:1.5;"/><text fill="#26215C" font-family="sans-serif" font-size="12" lengthAdjust="spacing" textLength="108" x="552.1342" y="1021.5708">&#46041;&#47308; &#52992;&#48120; &#48372;&#44256;&#49436; &#48156;&#54665;</text><text fill="#26215C" font-family="sans-serif" font-size="12" lengthAdjust="spacing" textLength="175" x="518.6342" y="1038.9469">&#46041;&#47308; &#47785;&#47197;&#50640;&#49436; &#45824;&#49345; &#49440;&#53469; &#183; 6&#44060; &#49465;&#49496;</text></g><g id="elem_UC_Notify"><ellipse cx="902.2965" cy="1061.0735" fill="#FFFFFF" rx="72.2965" ry="27.5735" style="stroke:#AFA9EC;stroke-width:1.5;"/><text fill="#26215C" font-family="sans-serif" font-size="12" lengthAdjust="spacing" textLength="72" x="866.2965" y="1055.6175">&#51064;&#50545; &#50508;&#47548; &#54869;&#51064;</text><text fill="#26215C" font-family="sans-serif" font-size="12" lengthAdjust="spacing" textLength="86" x="859.2965" y="1072.9936">&#53364;&#47533; &#49884; &#51593;&#49884; &#49325;&#51228;</text></g><g id="elem_UC_Cache"><ellipse cx="605.8858" cy="435.8603" fill="#FFFFFF" rx="140.8858" ry="39.8603" style="stroke:#AFA9EC;stroke-width:1.5;"/><text fill="#26215C" font-family="sans-serif" font-size="12" lengthAdjust="spacing" textLength="107" x="552.3858" y="421.7162">LLM &#52880;&#49884; &#51312;&#54924; / &#51200;&#51109;</text><text fill="#26215C" font-family="sans-serif" font-size="12" lengthAdjust="spacing" textLength="183" x="514.3858" y="439.0924">D &#183; I &#183; S &#183; C &#48260;&#53431; &#44592;&#48152; (9&#8308; = 6,561)</text><text fill="#26215C" font-family="sans-serif" font-size="12" lengthAdjust="spacing" textLength="167" x="522.3858" y="456.4685">&#50728;&#46356;&#47592;&#46300; &#47564;&#47308; &#183; &#54665; UPDATE &#44081;&#49888;</text></g><g id="elem_UC_PeerCodeClean"><ellipse cx="606.1263" cy="528.1253" fill="#FFFFFF" rx="73.6263" ry="17.1253" style="stroke:#AFA9EC;stroke-width:1.5;"/><text fill="#26215C" font-family="sans-serif" font-size="12" lengthAdjust="spacing" textLength="97" x="554.6263" y="532.3353">&#47564;&#47308; &#46041;&#47308; &#53076;&#46300; &#49325;&#51228;</text></g><!--entity Guest--><g id="elem_Guest"><ellipse cx="42.5" cy="612" fill="#FFFFFF" rx="8" ry="8" style="stroke:#7F77DD;stroke-width:0.5;"/><path d="M42.5,620 L42.5,647 M29.5,628 L55.5,628 M42.5,647 L29.5,662 M42.5,647 L55.5,662 " fill="none" style="stroke:#7F77DD;stroke-width:0.5;"/><text fill="#3C3489" font-family="sans-serif" font-size="13" font-weight="bold" lengthAdjust="spacing" textLength="36" x="24.5" y="678.58">&#48708;&#54924;&#50896;</text></g><!--entity Member--><g id="elem_Member"><ellipse cx="42.5" cy="1421" fill="#FFFFFF" rx="8" ry="8" style="stroke:#7F77DD;stroke-width:0.5;"/><path d="M42.5,1429 L42.5,1456 M29.5,1437 L55.5,1437 M42.5,1456 L29.5,1471 M42.5,1456 L55.5,1471 " fill="none" style="stroke:#7F77DD;stroke-width:0.5;"/><text fill="#3C3489" font-family="sans-serif" font-size="13" font-weight="bold" lengthAdjust="spacing" textLength="73" x="6" y="1487.58">&#54924;&#50896; (&#52852;&#52852;&#50724;)</text></g><!--entity Batch--><g id="elem_Batch"><ellipse cx="272" cy="1186" fill="#FFFFFF" rx="8" ry="8" style="stroke:#7F77DD;stroke-width:0.5;"/><path d="M272,1194 L272,1221 M259,1202 L285,1202 M272,1221 L259,1236 M272,1221 L285,1236 " fill="none" style="stroke:#7F77DD;stroke-width:0.5;"/><text fill="#3C3489" font-family="sans-serif" font-size="13" font-weight="bold" lengthAdjust="spacing" textLength="75" x="234.5" y="1252.58">&#48176;&#52824; &#49828;&#52992;&#51460;&#47084;</text></g><g id="elem_GMN37"><path d="M807,6 L807,88.3999 L998,88.3999 L998,16 L988,6 L807,6 " fill="#F5F3FF" style="stroke:#AFA9EC;stroke-width:0.5;"/><path d="M988,6 L988,16 L998,16 L988,6 " fill="#F5F3FF" style="stroke:#AFA9EC;stroke-width:1.0;"/><text fill="#534AB7" font-family="sans-serif" font-size="10" lengthAdjust="spacing" textLength="138" x="813" y="22.6">&#52880;&#49884; &#48120;&#49828; &#8594; LLM &#54840;&#52636; &#8594; INSERT</text><text fill="#534AB7" font-family="sans-serif" font-size="10" lengthAdjust="spacing" textLength="118" x="813" y="37.08">&#52880;&#49884; &#55176;&#53944; + &#50976;&#54952; &#8594; &#51593;&#49884; &#48152;&#54872;</text><text fill="#534AB7" font-family="sans-serif" font-size="10" lengthAdjust="spacing" textLength="170" x="813" y="51.56">&#52880;&#49884; &#55176;&#53944; + &#47564;&#47308; &#8594; LLM &#54840;&#52636; &#8594; UPDATE</text><text fill="#534AB7" font-family="sans-serif" font-size="10" lengthAdjust="spacing" textLength="125" x="813" y="66.0399">&#48372;&#44256;&#49436; &#50896;&#47928;&#50640; &#51060;&#47492; &#48120;&#54252;&#54632; &#51200;&#51109;</text><text fill="#534AB7" font-family="sans-serif" font-size="10" lengthAdjust="spacing" textLength="78" x="813" y="80.5199">&#47116;&#45908;&#47553; &#49884; &#51060;&#47492; &#49341;&#51077;</text></g><g id="elem_GMN40"><path d="M815,212 L815,294.3999 L990,294.3999 L990,222 L980,212 L815,212 " fill="#F5F3FF" style="stroke:#AFA9EC;stroke-width:0.5;"/><path d="M980,212 L980,222 L990,222 L980,212 " fill="#F5F3FF" style="stroke:#AFA9EC;stroke-width:1.0;"/><text fill="#534AB7" font-family="sans-serif" font-size="10" lengthAdjust="spacing" textLength="127" x="821" y="228.6">&#52880;&#49905; &#50630;&#51060; &#47588;&#48264; &#49892;&#49884;&#44036; LLM &#54840;&#52636;</text><text fill="#534AB7" font-family="sans-serif" font-size="10" lengthAdjust="spacing" textLength="111" x="821" y="243.08">&#48156;&#54665; &#49884;&#51216; DISC &#49828;&#45253;&#49399; &#51200;&#51109;</text><text fill="#534AB7" font-family="sans-serif" font-size="10" lengthAdjust="spacing" textLength="125" x="821" y="257.56">&#48372;&#44256;&#49436; &#50896;&#47928;&#50640; &#51060;&#47492; &#48120;&#54252;&#54632; &#51200;&#51109;</text><text fill="#534AB7" font-family="sans-serif" font-size="10" lengthAdjust="spacing" textLength="98" x="821" y="272.0399">&#53076;&#51064; &#52649;&#51204;: &#52488;&#44592; 3&#44060; &#51648;&#44553;</text><text fill="#534AB7" font-family="sans-serif" font-size="10" lengthAdjust="spacing" textLength="154" x="821" y="286.5199">&#51060;&#54980; 24h&#47560;&#45796; +1 (&#50728;&#46356;&#47592;&#46300;), &#52572;&#45824; 3&#44060;</text></g><g id="elem_GMN43"><path d="M838.5,123.5 L838.5,176.94 L966.5,176.94 L966.5,133.5 L956.5,123.5 L838.5,123.5 " fill="#F5F3FF" style="stroke:#AFA9EC;stroke-width:0.5;"/><path d="M956.5,123.5 L956.5,133.5 L966.5,133.5 L956.5,123.5 " fill="#F5F3FF" style="stroke:#AFA9EC;stroke-width:1.0;"/><text fill="#534AB7" font-family="sans-serif" font-size="10" lengthAdjust="spacing" textLength="96" x="844.5" y="140.1">&#48372;&#50504;: 7&#51068; &#51452;&#44592; &#44081;&#49888;&#51004;&#47196;</text><text fill="#534AB7" font-family="sans-serif" font-size="10" lengthAdjust="spacing" textLength="107" x="844.5" y="154.58">&#53076;&#46300; &#50976;&#52628;&#47484; &#53685;&#54620; &#53440;&#51064; &#49457;&#54693;</text><text fill="#534AB7" font-family="sans-serif" font-size="10" lengthAdjust="spacing" textLength="38" x="844.5" y="169.06">&#50676;&#46988; &#48169;&#51648;</text></g><g id="elem_GMN46"><path d="M160.5,240.5 L160.5,293.94 L383.5,293.94 L383.5,250.5 L373.5,240.5 L160.5,240.5 " fill="#F5F3FF" style="stroke:#AFA9EC;stroke-width:0.5;"/><path d="M373.5,240.5 L373.5,250.5 L383.5,250.5 L373.5,240.5 " fill="#F5F3FF" style="stroke:#AFA9EC;stroke-width:1.0;"/><text fill="#534AB7" font-family="sans-serif" font-size="10" lengthAdjust="spacing" textLength="202" x="166.5" y="257.1">&#44160;&#49324; &#50756;&#47308; &#54980; &#45208;&#51060;(&#52636;&#49373;&#50672;&#46020;) &#183; &#49457;&#48324; &#51077;&#47141; (&#52572;&#52488; 1&#54924;)</text><text fill="#534AB7" font-family="sans-serif" font-size="10" lengthAdjust="spacing" textLength="173" x="166.5" y="271.58">&#48708;&#54924;&#50896;: D/I/S/C &#48260;&#53431;&#44050;&#51012; &#49464;&#49496;&#50640; &#51076;&#49884; &#51200;&#51109;</text><text fill="#534AB7" font-family="sans-serif" font-size="10" lengthAdjust="spacing" textLength="134" x="166.5" y="286.06">&#47196;&#44536;&#51064; &#54980; DB&#50640; &#51200;&#51109; &#48143; &#53685;&#44228; &#48152;&#50689;</text></g><!--link Guest to UC_Test--><g id="link_Guest_UC_Test"><path d="M43,682.53 C43,702.69 43,723 43,723 C43,723 135.62,723 203.42,723 " fill="none" id="Guest-to-UC_Test" style="stroke:#7F77DD;stroke-width:1.0;"/><polygon fill="#7F77DD" points="209.42,723,200.42,719,204.42,723,200.42,727,209.42,723" style="stroke:#7F77DD;stroke-width:1.0;"/></g><!--link Guest to UC_Result--><g id="link_Guest_UC_Result"><path d="M60.62,613.75 C95.6,613.75 169,613.75 169,613.75 C169,613.75 169,601.27 169,586.39 " fill="none" id="Guest-to-UC_Result" style="stroke:#7F77DD;stroke-width:1.0;"/><polygon fill="#7F77DD" points="169,580.39,165,589.39,169,585.39,173,589.39,169,580.39" style="stroke:#7F77DD;stroke-width:1.0;"/></g><!--link Guest to UC_Save--><g id="link_Guest_UC_Save"><path d="M60.51,643 C89.88,643 143.71,643 192.26,643 " fill="none" id="Guest-to-UC_Save" style="stroke:#7F77DD;stroke-width:1.0;"/><polygon fill="#7F77DD" points="198.26,643,189.26,639,193.26,643,189.26,647,198.26,643" style="stroke:#7F77DD;stroke-width:1.0;"/></g><!--link Member to UC_Test--><g id="link_Member_UC_Test"><path d="M67,1412.27 C67,1261.98 67,736.75 67,736.75 C67,736.75 151.14,736.75 211.87,736.75 " fill="none" id="Member-to-UC_Test" style="stroke:#7F77DD;stroke-width:1.0;"/><polygon fill="#7F77DD" points="217.87,736.75,208.87,732.75,212.87,736.75,208.87,740.75,217.87,736.75" style="stroke:#7F77DD;stroke-width:1.0;"/></g><!--link Member to UC_Result--><g id="link_Member_UC_Result"><path d="M63,1412.32 C63,1239.61 63,562 63,562 C63,562 91.66,562 132.75,562 " fill="none" id="Member-to-UC_Result" style="stroke:#7F77DD;stroke-width:1.0;"/><polygon fill="#7F77DD" points="138.75,562,129.75,558,133.75,562,129.75,566,138.75,562" style="stroke:#7F77DD;stroke-width:1.0;"/></g><!--link Member to UC_Login--><g id="link_Member_UC_Login"><path d="M65,1412.32 C65,1255.7 65,689 65,689 C65,689 526,689 526,689 C526,689 526,667.48 526,655.01 " fill="none" id="Member-to-UC_Login" style="stroke:#7F77DD;stroke-width:1.0;"/><polygon fill="#7F77DD" points="526,649.01,522,658.01,526,654.01,530,658.01,526,649.01" style="stroke:#7F77DD;stroke-width:1.0;"/></g><!--link Member to UC_History--><g id="link_Member_UC_History"><path d="M77,1412.31 C77,1321.43 77,1106 77,1106 C77,1106 395.09,1106 535.93,1106 " fill="none" id="Member-to-UC_History" style="stroke:#7F77DD;stroke-width:1.0;"/><polygon fill="#7F77DD" points="541.93,1106,532.93,1102,536.93,1106,532.93,1110,541.93,1106" style="stroke:#7F77DD;stroke-width:1.0;"/></g><!--link Member to UC_Stats--><g id="link_Member_UC_Stats"><path d="M79.29,1452 C178.65,1452 445,1452 445,1452 C445,1452 445,724 445,724 C445,724 481.48,724 522.8,724 " fill="none" id="Member-to-UC_Stats" style="stroke:#7F77DD;stroke-width:1.0;"/><polygon fill="#7F77DD" points="528.8,724,519.8,720,523.8,724,519.8,728,528.8,724" style="stroke:#7F77DD;stroke-width:1.0;"/></g><!--link Member to UC_Code--><g id="link_Member_UC_Code"><path d="M69,1412.34 C69,1273.54 69,818 69,818 C69,818 302.25,818 461.36,818 " fill="none" id="Member-to-UC_Code" style="stroke:#7F77DD;stroke-width:1.0;"/><polygon fill="#7F77DD" points="467.36,818,458.36,814,462.36,818,458.36,822,467.36,818" style="stroke:#7F77DD;stroke-width:1.0;"/></g><!--link Member to UC_ColleagueRegister--><g id="link_Member_UC_ColleagueRegister"><path d="M71,1412.24 C71,1289.21 71,923 71,923 C71,923 326.93,923 484.24,923 " fill="none" id="Member-to-UC_ColleagueRegister" style="stroke:#7F77DD;stroke-width:1.0;"/><polygon fill="#7F77DD" points="490.24,923,481.24,919,485.24,923,481.24,927,490.24,923" style="stroke:#7F77DD;stroke-width:1.0;"/></g><!--link Member to UC_Compat--><g id="link_Member_UC_Compat"><path d="M73,1412.4 C73,1306.89 73,1027 73,1027 C73,1027 311.47,1027 469.27,1027 " fill="none" id="Member-to-UC_Compat" style="stroke:#7F77DD;stroke-width:1.0;"/><polygon fill="#7F77DD" points="475.27,1027,466.27,1023,470.27,1027,466.27,1031,475.27,1027" style="stroke:#7F77DD;stroke-width:1.0;"/><text fill="#534AB7" font-family="sans-serif" font-size="10" lengthAdjust="spacing" textLength="55" x="25.44" y="1039.6">&#53076;&#51064; 1&#44060; &#49548;&#47784;</text></g><!--link Member to UC_Notify--><g id="link_Member_UC_Notify"><path d="M75,1412.41 C75,1315.08 75,1072 75,1072 C75,1072 633.15,1072 829.83,1072 " fill="none" id="Member-to-UC_Notify" style="stroke:#7F77DD;stroke-width:1.0;"/><polygon fill="#7F77DD" points="835.83,1072,826.83,1068,830.83,1072,826.83,1076,835.83,1072" style="stroke:#7F77DD;stroke-width:1.0;"/></g><!--link Batch to UC_PeerCodeClean--><g id="link_Batch_UC_PeerCodeClean"><path d="M309.82,1217 C355.13,1217 425,1217 425,1217 C425,1217 425,541 425,541 C425,541 498.82,541 552.44,541 " fill="none" id="Batch-to-UC_PeerCodeClean" style="stroke:#7F77DD;stroke-width:1.0;"/><polygon fill="#7F77DD" points="558.44,541,549.44,537,553.44,541,549.44,545,558.44,541" style="stroke:#7F77DD;stroke-width:1.0;"/><text fill="#534AB7" font-family="sans-serif" font-size="10" lengthAdjust="spacing" textLength="47" x="377" y="882.47">&#51452;&#44592;&#51201; &#49892;&#54665;</text></g><!--link UC_Result to UC_Cache--><g id="link_UC_Result_UC_Cache"><path d="M339.51,537 C405.15,537 495,537 495,537 C495,537 495,496.61 495,466.71 " fill="none" id="UC_Result-to-UC_Cache" style="stroke:#7F77DD;stroke-width:1.0;stroke-dasharray:7.0,7.0;"/><polygon fill="#7F77DD" points="495,460.71,491,469.71,495,465.71,499,469.71,495,460.71" style="stroke:#7F77DD;stroke-width:1.0;"/><text fill="#534AB7" font-family="sans-serif" font-size="10" lengthAdjust="spacing" textLength="45" x="409.4" y="549.6">&#171;include&#187;</text></g><!--link UC_Save to UC_Login--><g id="link_UC_Save_UC_Login"><path d="M345.71,643 C397.77,643 461.64,643 515.89,643 " fill="none" id="UC_Save-to-UC_Login" style="stroke:#7F77DD;stroke-width:1.0;stroke-dasharray:7.0,7.0;"/><polygon fill="#7F77DD" points="521.89,643,512.89,639,516.89,643,512.89,647,521.89,643" style="stroke:#7F77DD;stroke-width:1.0;"/><text fill="#534AB7" font-family="sans-serif" font-size="10" lengthAdjust="spacing" textLength="45" x="387.8" y="655.6">&#171;include&#187;</text></g><!--link UC_Compat to UC_Notify--><g id="link_UC_Compat_UC_Notify"><path d="M709.29,1044.5 C754.58,1044.5 800.05,1044.5 838.48,1044.5 " fill="none" id="UC_Compat-to-UC_Notify" style="stroke:#7F77DD;stroke-width:1.0;stroke-dasharray:7.0,7.0;"/><polygon fill="#7F77DD" points="844.48,1044.5,835.48,1040.5,839.48,1044.5,835.48,1048.5,844.48,1044.5" style="stroke:#7F77DD;stroke-width:1.0;"/><text fill="#534AB7" font-family="sans-serif" font-size="10" lengthAdjust="spacing" textLength="45" x="777.88" y="1057.1">&#171;include&#187;</text></g><!--link UC_Cache to GMN37--><g id="link_UC_Cache_GMN37"><path d="M747.26,436 C782.77,436 811,436 811,436 C811,436 811,188.38 811,88.26 " fill="none" id="UC_Cache-GMN37" style="stroke:#7F77DD;stroke-width:1.0;stroke-dasharray:7.0,7.0;"/></g><!--link UC_Compat to GMN40--><g id="link_UC_Compat_GMN40"><path d="M726.56,1016 C776.5,1016 823,1016 823,1016 C823,1016 823,452.51 823,294.02 " fill="none" id="UC_Compat-GMN40" style="stroke:#7F77DD;stroke-width:1.0;stroke-dasharray:7.0,7.0;"/></g><!--link UC_Code to GMN43--><g id="link_UC_Code_GMN43"><path d="M744.84,818 C763.85,818 777,818 777,818 C777,818 777,150 777,150 C777,150 807.4,150 838.28,150 " fill="none" id="UC_Code-GMN43" style="stroke:#7F77DD;stroke-width:1.0;stroke-dasharray:7.0,7.0;"/></g><!--link UC_Test to GMN46--><g id="link_UC_Test_GMN46"><path d="M217.72,709.25 C170.31,709.25 109,709.25 109,709.25 C109,709.25 109,267 109,267 C109,267 131.68,267 160.13,267 " fill="none" id="UC_Test-GMN46" style="stroke:#7F77DD;stroke-width:1.0;stroke-dasharray:7.0,7.0;"/></g><!--SRC=[bLPRJzjO47xthnXbNufweU7QeYuIvBABHAkgq3UabKdS43NOA36xObUL4c9Ge5cHjWG2JMYgSkrIhIa1mYgyx4_fey_nVzWvntOIkscx3SXnvinzlfav2Uc92ge2oNXiHeLeF2b5rBWY2wcdSNbEJ8gpC2r6diQIohmS3IW99Ga_X4VOdz368aPKFFX301ZzZ9b_s8cIZ4f9cpeO7XmC1f4QLcJLflK6UllktBLf4_7V9V3tEh_KXOG4qqeYAZnhjpkVaY9YIleUo-ZvtL30RRbdeCVV7t1PxcdAJSx48qzbAPK2_wr-f8uaayfltZ0uiKrZVs_VoEXW-u6bzhRR_pdqMOnzmVzGA1GCXxp-DpLxlUlvPZRxlf5DML6_bCh-SE__IsNJlI_6d8ZBahem9u6IL6SKGR2muoENchcTfwyBFX1JyDEyb5AT8uiEr-XbZVsNThiuptrfTbfADkLrdLwMWAxkqaQQxchapJ7d6XNLo8mWC5YBSWpZzjrV23oS1FgyZBpcKjc78QE_JYbynkcPkNm6Hbqdgti-LeRmG3ZCym9DmFcCZscwU0oqyW8LJSdczXkQG-lLibai0zrSffKyD_yuyCia2yKZh1kd3J2tYhHIdvA3OnC18ESQrIhmxmKOUf5M2-oD5g_O6tbr0WE6ZdgrIxfKSlG-abBp2OzcyhPiNDHHAvYlDR3jq6gQxkmvOXFYhn8AFNC5RQUOLZMwVTIAFNmx70ptUMDlrW5QvhgTzw96NsSTM-DAB2vtZ9rMQgIw1_IjZgOTzf_ZAQpbWbl0pAPvFCjdnga621FZh30bayKIKv5Fypnf9mJFq6swcsx6gOfgofETjItoBW-qbcE2z6gTlCAaPYieZnhpQN9Sfpk5wpJt5tx17NoG_MDcW3pVPHd2rE2FGLffO95EwFEgOokWHAMlcIBw6giYULj1EmSPCtCC23DQhW8f5SZgUjENWmojlW2wiuJ9cP8HKgHonQ0ATEC5qO_CZJqmQccM2CljbWE9X2J6vgL7KWoJY6tHqPj6clnT1t9QCqwhL2kZNsLpOmLziix9-oDqaMuM-5a-JRCPp6tLp79STe1WG9cT4pqGn6BHuWbYDq_sMnWtCpMo_y4APN-5Vor-m7PnD3rGrFYJXSzmsUnI88irSfxsyR4-60fwCJa-VX_eFmMkc6CA4MdX7lkBUJ_67XFiWRtsKJCNBpZCzH9Sk_ifKuCVOU16_u2_2xDUEYJhw-JWa5M47EHPPb0C4mMF7mP79aFUuekH6M_rBIadxNPnNG4_bDWSZKe1h9lCuyR8-TW3k7bpk3aut2Ixvzr4tj62DGvTicwIBUicMXtgfZbjwAPQ_UIcSTnxILuaUiyPP81_XbXgM7FxERIMy-JzeOVTneN0ntWpObVoc9ft3TRyLOGhTkh6YY0quuLRjuQRLM8cxzsBov74V5GQ7XRivA4hDXTFHmSksskRotBAmoNmzMbTevGdxS2mSOcjXrY6JyilWQ7LBDNfUPd_77im4NeqsU8qTtBcQXsk0qu8S_kGyzXTWu0rjqeTM6t8TT1kWHP5MdsFivxDkiq2dyFx6lFDN3isYuTsqp3kQfxyYMsGiPhMugEBLpYS14cEyjj2fw2TaS0TFB5sOGtTsoKVSwmygCtGjJOdcIq-X_XEndt7zo6cYcINQFQYpQFlyj-65Zq_mgqsn2OnGWHwET8EqaPzXV5KQcnFzlJDa8CS3dcuxiThHbl_Tzq0UbPc8vm9VZrklWBGHrhC3LbBmeAbFIvekO4hqdACZuDobPwlaxq6Mstirc0lEfpgEEOPtsQDxE0GqO_GNw_fQKLLbLdRjdt3SEuaMnf30WlCsfBNCCbiNMpgP4thQbkOrfx1YC_Ac1xmuzZiOZ4uLx4X27QFTKzqEnFJq5_I2effTTm1FFix6WT7iqAkwqTmbFFmGxu2dHskbsWfquheFm00]--></g></svg>