<?xml version="1.0" encoding="us-ascii" standalone="no"?><svg xmlns="http://www.w3.org/2000/svg" xmlns:xlink="http://www.w3.org/1999/xlink" contentStyleType="text/css" height="811px" preserveAspectRatio="none" style="width:1734px;height:811px;background:#FAFAFA;" version="1.1" viewBox="0 0 1734 811" width="1734px" zoomAndPan="magnify"><defs/><g><rect fill="#FAFAFA" height="811" style="stroke:none;stroke-width:1.0;" width="1734" x="0" y="0"/><!--cluster Developer Tools--><g id="cluster_Developer Tools"><path d="M1205.6173,6 L1324.6173,6 A3.75,3.75 0 0 1 1327.1173,8.5 L1334.1173,27.1328 L1354.6173,27.1328 A2.5,2.5 0 0 1 1357.1173,29.6328 L1357.1173,111.5 A2.5,2.5 0 0 1 1354.6173,114 L1205.6173,114 A2.5,2.5 0 0 1 1203.1173,111.5 L1203.1173,8.5 A2.5,2.5 0 0 1 1205.6173,6 " fill="#FFF9ED" style="stroke:#534AB7;stroke-width:2.0;"/><line style="stroke:#534AB7;stroke-width:2.0;" x1="1203.1173" x2="1334.1173" y1="27.1328" y2="27.1328"/><text fill="#3C3489" font-family="sans-serif" font-size="13" font-weight="bold" lengthAdjust="spacing" textLength="118" x="1207.1173" y="20.0669">Developer Tools</text></g><!--cluster Client--><g id="cluster_Client"><path d="M1407.6173,6 L1450.6173,6 A3.75,3.75 0 0 1 1453.1173,8.5 L1460.1173,27.1328 L1711.6173,27.1328 A2.5,2.5 0 0 1 1714.1173,29.6328 L1714.1173,111.5 A2.5,2.5 0 0 1 1711.6173,114 L1407.6173,114 A2.5,2.5 0 0 1 1405.1173,111.5 L1405.1173,8.5 A2.5,2.5 0 0 1 1407.6173,6 " fill="#EEF6FF" style="stroke:#534AB7;stroke-width:2.0;"/><line style="stroke:#534AB7;stroke-width:2.0;" x1="1405.1173" x2="1460.1173" y1="27.1328" y2="27.1328"/><text fill="#3C3489" font-family="sans-serif" font-size="13" font-weight="bold" lengthAdjust="spacing" textLength="42" x="1409.1173" y="20.0669">Client</text></g><!--cluster Spring Boot 3.x (com.mycpt.backend)--><g id="cluster_Spring Boot 3.x (com.mycpt.backend)"><path d="M602.6173,138 L885.6173,138 A3.75,3.75 0 0 1 888.1173,140.5 L895.1173,159.1328 L1724.6173,159.1328 A2.5,2.5 0 0 1 1727.1173,161.6328 L1727.1173,594.5 A2.5,2.5 0 0 1 1724.6173,597 L602.6173,597 A2.5,2.5 0 0 1 600.1173,594.5 L600.1173,140.5 A2.5,2.5 0 0 1 602.6173,138 " fill="#EEEDFE" style="stroke:#534AB7;stroke-width:2.0;"/><line style="stroke:#534AB7;stroke-width:2.0;" x1="600.1173" x2="895.1173" y1="159.1328" y2="159.1328"/><text fill="#3C3489" font-family="sans-serif" font-size="13" font-weight="bold" lengthAdjust="spacing" textLength="282" x="604.1173" y="152.0669">Spring Boot 3.x (com.mycpt.backend)</text></g><!--cluster Presentation--><g id="cluster_Presentation"><path d="M954.6173,180 L1049.6173,180 A3.75,3.75 0 0 1 1052.1173,182.5 L1059.1173,201.1328 L1412.6173,201.1328 A2.5,2.5 0 0 1 1415.1173,203.6328 L1415.1173,285.5 A2.5,2.5 0 0 1 1412.6173,288 L954.6173,288 A2.5,2.5 0 0 1 952.1173,285.5 L952.1173,182.5 A2.5,2.5 0 0 1 954.6173,180 " fill="#F5F3FF" style="stroke:#534AB7;stroke-width:2.0;"/><line style="stroke:#534AB7;stroke-width:2.0;" x1="952.1173" x2="1059.1173" y1="201.1328" y2="201.1328"/><text fill="#3C3489" font-family="sans-serif" font-size="13" font-weight="bold" lengthAdjust="spacing" textLength="94" x="956.1173" y="194.0669">Presentation</text></g><!--cluster Business--><g id="cluster_Business"><path d="M824.6173,312 L890.6173,312 A3.75,3.75 0 0 1 893.1173,314.5 L900.1173,333.1328 L1687.6173,333.1328 A2.5,2.5 0 0 1 1690.1173,335.6328 L1690.1173,570.5 A2.5,2.5 0 0 1 1687.6173,573 L824.6173,573 A2.5,2.5 0 0 1 822.1173,570.5 L822.1173,314.5 A2.5,2.5 0 0 1 824.6173,312 " fill="#F5F3FF" style="stroke:#534AB7;stroke-width:2.0;"/><line style="stroke:#534AB7;stroke-width:2.0;" x1="822.1173" x2="900.1173" y1="333.1328" y2="333.1328"/><text fill="#3C3489" font-family="sans-serif" font-size="13" font-weight="bold" lengthAdjust="spacing" textLength="65" x="826.1173" y="326.0669">Business</text></g><!--cluster Persistence--><g id="cluster_Persistence"><path d="M626.6173,472 L713.6173,472 A3.75,3.75 0 0 1 716.1173,474.5 L723.1173,493.1328 L795.6173,493.1328 A2.5,2.5 0 0 1 798.1173,495.6328 L798.1173,563.5 A2.5,2.5 0 0 1 795.6173,566 L626.6173,566 A2.5,2.5 0 0 1 624.1173,563.5 L624.1173,474.5 A2.5,2.5 0 0 1 626.6173,472 " fill="#F5F3FF" style="stroke:#534AB7;stroke-width:2.0;"/><line style="stroke:#534AB7;stroke-width:2.0;" x1="624.1173" x2="723.1173" y1="493.1328" y2="493.1328"/><text fill="#3C3489" font-family="sans-serif" font-size="13" font-weight="bold" lengthAdjust="spacing" textLength="86" x="628.1173" y="486.0669">Persistence</text></g><!--cluster MySQL--><g id="cluster_MySQL"><path d="M806.1173,639 C806.1173,629 1003.1173,629 1003.1173,629 C1003.1173,629 1200.1173,629 1200.1173,639 L1200.1173,784 C1200.1173,794 1003.1173,794 1003.1173,794 C1003.1173,794 806.1173,794 806.1173,784 L806.1173,639 " fill="#FFFFFF" style="stroke:#AFA9EC;stroke-width:1.0;"/><path d="M806.1173,639 C806.1173,649 1003.1173,649 1003.1173,649 C1003.1173,649 1200.1173,649 1200.1173,639 " fill="none" style="stroke:#AFA9EC;stroke-width:1.0;"/><text fill="#26215C" font-family="sans-serif" font-size="12" font-weight="bold" lengthAdjust="spacing" textLength="47" x="979.6173" y="662.1387">MySQL</text></g><!--cluster Redis--><g id="cluster_Redis"><path d="M579.1173,660 C579.1173,650 672.6173,650 672.6173,650 C672.6173,650 766.1173,650 766.1173,660 L766.1173,763 C766.1173,773 672.6173,773 672.6173,773 C672.6173,773 579.1173,773 579.1173,763 L579.1173,660 " fill="#FFFFFF" style="stroke:#AFA9EC;stroke-width:1.0;"/><path d="M579.1173,660 C579.1173,670 672.6173,670 672.6173,670 C672.6173,670 766.1173,670 766.1173,660 " fill="none" style="stroke:#AFA9EC;stroke-width:1.0;"/><text fill="#26215C" font-family="sans-serif" font-size="12" font-weight="bold" lengthAdjust="spacing" textLength="39" x="653.1173" y="683.1387">Redis</text></g><!--cluster ?? ???--><g id="cluster_&#50808;&#48512; &#49436;&#48708;&#49828;"><path d="M42.8142,470.6867 C56.2902,455.2371 69.3124,457.5797 79.6047,474.3249 C86.8254,455.5694 102.2881,454.035 113.5123,470.467 C122.3349,454.5704 137.0149,452.4427 147.9759,468.1338 C160.9386,449.3494 175.373,450.3331 184.8973,471.3253 C195.9249,454.3514 206.6758,450.6295 221.4443,467.2564 C233.0889,450.5583 246.1811,450.3695 255.4561,469.5055 C267.5934,453.2176 281.9942,453.6645 293.9767,469.69 C303.8051,455.5178 316.0306,454.1084 327.4871,467.727 C338.5308,452.8474 353.848,451.2788 364.5617,468.1129 C375.9916,450.4394 389.3271,455.8922 398.5795,470.4137 C408.4272,457.5792 422.269,455.4896 430.6803,471.9856 C438.9249,453.946 454.6411,450.8504 466.2998,468.5865 C480.3067,451.7496 492.431,454.0898 501.9426,473.0611 C516.3844,454.6137 529.4515,456.6491 542.1173,475 C544.9687,476.3923 544.9001,478.8818 542.5585,480.6776 C562.6927,490.3266 569.7781,505.6298 551.5579,523.3648 C568.9077,547.3713 564.6966,563.8574 535.1173,572 C538.4212,571.6567 540.1359,573.1444 539.3692,576.58 C528.1707,592.8819 508.7579,595.5504 500.0237,574.0174 C491.3233,590.1538 481.2695,591.179 469.7423,576.8248 C456.6909,591.3585 445.0252,590.4446 433.3005,575.2011 C420.567,596.6259 406.6681,591.3908 394.0257,575.1062 C386.3252,590.656 373.3434,588.4119 364.9637,575.8073 C352.196,596.7382 338.5532,594.7175 323.8616,577.9023 C315.6817,592.9468 302.3623,596.6183 290.9634,581.4017 C276.7949,596.4878 264.0615,597.956 252.8664,578.1547 C243.8766,591.3395 234.121,591.2918 223.923,579.5581 C212.9714,596.7282 196.0994,593.9636 187.3739,577.1631 C174.052,594.3833 161.8564,593.2282 149.7376,575.8542 C138.4936,588.9256 126.1762,592.9521 116.3925,574.3184 C106.491,593.562 92.1342,593.5055 78.3213,578.6905 C59.6197,599.0886 39.384,587.9805 34.1173,565 C35.8608,565.5514 36.3618,567.0919 35.2147,568.5394 C14.416,556.5196 10.8806,536.3846 30.4837,520.3946 C6,499.7639 14.819,478.3243 41.1173,468 C43.1108,467.8841 43.5777,469.0613 42.8142,470.6867 " fill="#FFF7ED" style="stroke:#AFA9EC;stroke-width:1.0;"/><text fill="#26215C" font-family="sans-serif" font-size="12" font-weight="bold" lengthAdjust="spacing" textLength="39" x="268.6173" y="484.1387">&#50808;&#48512; &#49436;&#48708;&#49828;</text></g><!--entity Swagger--><g id="elem_Swagger"><rect fill="#FFFFFF" height="57.9375" rx="2.5" ry="2.5" style="stroke:#AFA9EC;stroke-width:1.5;" width="122" x="1219.1173" y="40"/><rect fill="#FFFFFF" height="10" style="stroke:#AFA9EC;stroke-width:1.5;" width="15" x="1321.1173" y="45"/><rect fill="#FFFFFF" height="2" style="stroke:#AFA9EC;stroke-width:1.5;" width="4" x="1319.1173" y="47"/><rect fill="#FFFFFF" height="2" style="stroke:#AFA9EC;stroke-width:1.5;" width="4" x="1319.1173" y="51"/><text fill="#26215C" font-family="sans-serif" font-size="12" lengthAdjust="spacing" textLength="70" x="1234.1173" y="71.1387">Swagger UI</text><text fill="#26215C" font-family="sans-serif" font-size="12" lengthAdjust="spacing" textLength="82" x="1234.1173" y="85.1074">(/swagger-ui)</text></g><!--entity NextJS--><g id="elem_NextJS"><rect fill="#FFFFFF" height="57.9375" rx="2.5" ry="2.5" style="stroke:#AFA9EC;stroke-width:1.5;" width="103" x="1594.6173" y="40"/><rect fill="#FFFFFF" height="10" style="stroke:#AFA9EC;stroke-width:1.5;" width="15" x="1677.6173" y="45"/><rect fill="#FFFFFF" height="2" style="stroke:#AFA9EC;stroke-width:1.5;" width="4" x="1675.6173" y="47"/><rect fill="#FFFFFF" height="2" style="stroke:#AFA9EC;stroke-width:1.5;" width="4" x="1675.6173" y="51"/><text fill="#26215C" font-family="sans-serif" font-size="12" lengthAdjust="spacing" textLength="42" x="1609.6173" y="71.1387">Next.js</text><text fill="#26215C" font-family="sans-serif" font-size="12" lengthAdjust="spacing" textLength="63" x="1609.6173" y="85.1074">(SSR/SSG)</text></g><!--entity Session--><g id="elem_Session"><rect fill="#FFFFFF" height="57.9375" rx="2.5" ry="2.5" style="stroke:#AFA9EC;stroke-width:1.5;" width="138" x="1421.1173" y="40"/><rect fill="#FFFFFF" height="10" style="stroke:#AFA9EC;stroke-width:1.5;" width="15" x="1539.1173" y="45"/><rect fill="#FFFFFF" height="2" style="stroke:#AFA9EC;stroke-width:1.5;" width="4" x="1537.1173" y="47"/><rect fill="#FFFFFF" height="2" style="stroke:#AFA9EC;stroke-width:1.5;" width="4" x="1537.1173" y="51"/><text fill="#26215C" font-family="sans-serif" font-size="12" lengthAdjust="spacing" textLength="98" x="1436.1173" y="71.1387">sessionStorage</text><text fill="#26215C" font-family="sans-serif" font-size="12" lengthAdjust="spacing" textLength="92" x="1436.1173" y="85.1074">(&#48708;&#54924;&#50896; &#50896;&#51216;&#49688; &#51076;&#49884; &#48372;&#44288;)</text></g><!--entity Batch--><g id="elem_Batch"><rect fill="#FFFFFF" height="57.9375" rx="2.5" ry="2.5" style="stroke:#AFA9EC;stroke-width:1.5;" width="120" x="651.1173" y="360"/><rect fill="#FFFFFF" height="10" style="stroke:#AFA9EC;stroke-width:1.5;" width="15" x="751.1173" y="365"/><rect fill="#FFFFFF" height="2" style="stroke:#AFA9EC;stroke-width:1.5;" width="4" x="749.1173" y="367"/><rect fill="#FFFFFF" height="2" style="stroke:#AFA9EC;stroke-width:1.5;" width="4" x="749.1173" y="371"/><text fill="#26215C" font-family="sans-serif" font-size="12" lengthAdjust="spacing" textLength="80" x="666.1173" y="391.1387">Spring Batch</text><text fill="#26215C" font-family="sans-serif" font-size="12" lengthAdjust="spacing" textLength="68" x="666.1173" y="405.1074">&#47564;&#47308; &#53076;&#46300;/&#53664;&#53360; &#49325;&#51228;</text></g><!--entity Controllers--><g id="elem_Controllers"><rect fill="#FFFFFF" height="57.9375" rx="2.5" ry="2.5" style="stroke:#AFA9EC;stroke-width:1.5;" width="238" x="1161.1173" y="214"/><rect fill="#FFFFFF" height="10" style="stroke:#AFA9EC;stroke-width:1.5;" width="15" x="1379.1173" y="219"/><rect fill="#FFFFFF" height="2" style="stroke:#AFA9EC;stroke-width:1.5;" width="4" x="1377.1173" y="221"/><rect fill="#FFFFFF" height="2" style="stroke:#AFA9EC;stroke-width:1.5;" width="4" x="1377.1173" y="225"/><text fill="#26215C" font-family="sans-serif" font-size="12" lengthAdjust="spacing" textLength="103" x="1176.1173" y="245.1387">REST Controllers</text><text fill="#26215C" font-family="sans-serif" font-size="12" lengthAdjust="spacing" textLength="198" x="1176.1173" y="259.1074">({&#46020;&#47700;&#51064;}Api + {&#46020;&#47700;&#51064;}V1Controller)</text></g><!--entity Security--><g id="elem_Security"><rect fill="#FFFFFF" height="57.9375" rx="2.5" ry="2.5" style="stroke:#AFA9EC;stroke-width:1.5;" width="158" x="968.1173" y="214"/><rect fill="#FFFFFF" height="10" style="stroke:#AFA9EC;stroke-width:1.5;" width="15" x="1106.1173" y="219"/><rect fill="#FFFFFF" height="2" style="stroke:#AFA9EC;stroke-width:1.5;" width="4" x="1104.1173" y="221"/><rect fill="#FFFFFF" height="2" style="stroke:#AFA9EC;stroke-width:1.5;" width="4" x="1104.1173" y="225"/><text fill="#26215C" font-family="sans-serif" font-size="12" lengthAdjust="spacing" textLength="94" x="983.1173" y="245.1387">Spring Security</text><text fill="#26215C" font-family="sans-serif" font-size="12" lengthAdjust="spacing" textLength="118" x="983.1173" y="259.1074">+ Kakao OAuth 2.0</text></g><!--entity Scoring--><g id="elem_Scoring"><rect fill="#FFFFFF" height="57.9375" rx="2.5" ry="2.5" style="stroke:#AFA9EC;stroke-width:1.5;" width="132" x="1202.1173" y="360"/><rect fill="#FFFFFF" height="10" style="stroke:#AFA9EC;stroke-width:1.5;" width="15" x="1314.1173" y="365"/><rect fill="#FFFFFF" height="2" style="stroke:#AFA9EC;stroke-width:1.5;" width="4" x="1312.1173" y="367"/><rect fill="#FFFFFF" height="2" style="stroke:#AFA9EC;stroke-width:1.5;" width="4" x="1312.1173" y="371"/><text fill="#26215C" font-family="sans-serif" font-size="12" lengthAdjust="spacing" textLength="92" x="1217.1173" y="391.1387">ScoringService</text><text fill="#26215C" font-family="sans-serif" font-size="12" lengthAdjust="spacing" textLength="71" x="1217.1173" y="405.1074">&#52292;&#51216; + &#48260;&#53431; &#51221;&#44508;&#54868;</text></g><!--entity Cache--><g id="elem_Cache"><rect fill="#FFFFFF" height="57.9375" rx="2.5" ry="2.5" style="stroke:#AFA9EC;stroke-width:1.5;" width="124" x="1369.1173" y="360"/><rect fill="#FFFFFF" height="10" style="stroke:#AFA9EC;stroke-width:1.5;" width="15" x="1473.1173" y="365"/><rect fill="#FFFFFF" height="2" style="stroke:#AFA9EC;stroke-width:1.5;" width="4" x="1471.1173" y="367"/><rect fill="#FFFFFF" height="2" style="stroke:#AFA9EC;stroke-width:1.5;" width="4" x="1471.1173" y="371"/><text fill="#26215C" font-family="sans-serif" font-size="12" lengthAdjust="spacing" textLength="84" x="1384.1173" y="391.1387">CacheService</text><text fill="#26215C" font-family="sans-serif" font-size="12" lengthAdjust="spacing" textLength="79" x="1384.1173" y="405.1074">Lazy Caching</text></g><!--entity Llm--><g id="elem_Llm"><rect fill="#FFFFFF" height="57.9375" rx="2.5" ry="2.5" style="stroke:#AFA9EC;stroke-width:1.5;" width="124" x="1369.1173" y="499"/><rect fill="#FFFFFF" height="10" style="stroke:#AFA9EC;stroke-width:1.5;" width="15" x="1473.1173" y="504"/><rect fill="#FFFFFF" height="2" style="stroke:#AFA9EC;stroke-width:1.5;" width="4" x="1471.1173" y="506"/><rect fill="#FFFFFF" height="2" style="stroke:#AFA9EC;stroke-width:1.5;" width="4" x="1471.1173" y="510"/><text fill="#26215C" font-family="sans-serif" font-size="12" lengthAdjust="spacing" textLength="65" x="1384.1173" y="530.1387">LlmService</text><text fill="#26215C" font-family="sans-serif" font-size="12" lengthAdjust="spacing" textLength="84" x="1384.1173" y="544.1074">Claude API &#54840;&#52636;</text></g><!--entity Chemistry--><g id="elem_Chemistry"><rect fill="#FFFFFF" height="57.9375" rx="2.5" ry="2.5" style="stroke:#AFA9EC;stroke-width:1.5;" width="146" x="1528.1173" y="360"/><rect fill="#FFFFFF" height="10" style="stroke:#AFA9EC;stroke-width:1.5;" width="15" x="1654.1173" y="365"/><rect fill="#FFFFFF" height="2" style="stroke:#AFA9EC;stroke-width:1.5;" width="4" x="1652.1173" y="367"/><rect fill="#FFFFFF" height="2" style="stroke:#AFA9EC;stroke-width:1.5;" width="4" x="1652.1173" y="371"/><text fill="#26215C" font-family="sans-serif" font-size="12" lengthAdjust="spacing" textLength="106" x="1543.1173" y="391.1387">ChemistryService</text><text fill="#26215C" font-family="sans-serif" font-size="12" lengthAdjust="spacing" textLength="85" x="1543.1173" y="405.1074">@Async &#52992;&#48120; &#48156;&#54665;</text></g><!--entity Sse--><g id="elem_Sse"><rect fill="#FFFFFF" height="57.9375" rx="2.5" ry="2.5" style="stroke:#AFA9EC;stroke-width:1.5;" width="126" x="1548.1173" y="499"/><rect fill="#FFFFFF" height="10" style="stroke:#AFA9EC;stroke-width:1.5;" width="15" x="1654.1173" y="504"/><rect fill="#FFFFFF" height="2" style="stroke:#AFA9EC;stroke-width:1.5;" width="4" x="1652.1173" y="506"/><rect fill="#FFFFFF" height="2" style="stroke:#AFA9EC;stroke-width:1.5;" width="4" x="1652.1173" y="510"/><text fill="#26215C" font-family="sans-serif" font-size="12" lengthAdjust="spacing" textLength="68" x="1563.1173" y="530.1387">SseService</text><text fill="#26215C" font-family="sans-serif" font-size="12" lengthAdjust="spacing" textLength="86" x="1563.1173" y="544.1074">SseEmitter &#44288;&#47532;</text></g><!--entity Coin--><g id="elem_Coin"><rect fill="#FFFFFF" height="57.9375" rx="2.5" ry="2.5" style="stroke:#AFA9EC;stroke-width:1.5;" width="112" x="1055.1173" y="360"/><rect fill="#FFFFFF" height="10" style="stroke:#AFA9EC;stroke-width:1.5;" width="15" x="1147.1173" y="365"/><rect fill="#FFFFFF" height="2" style="stroke:#AFA9EC;stroke-width:1.5;" width="4" x="1145.1173" y="367"/><rect fill="#FFFFFF" height="2" style="stroke:#AFA9EC;stroke-width:1.5;" width="4" x="1145.1173" y="371"/><text fill="#26215C" font-family="sans-serif" font-size="12" lengthAdjust="spacing" textLength="72" x="1070.1173" y="391.1387">CoinService</text><text fill="#26215C" font-family="sans-serif" font-size="12" lengthAdjust="spacing" textLength="46" x="1070.1173" y="405.1074">&#50728;&#46356;&#47592;&#46300; &#52649;&#51204;</text></g><!--entity OtherServices--><g id="elem_OtherServices"><rect fill="#FFFFFF" height="85.875" rx="2.5" ry="2.5" style="stroke:#AFA9EC;stroke-width:1.5;" width="182" x="838.1173" y="346"/><rect fill="#FFFFFF" height="10" style="stroke:#AFA9EC;stroke-width:1.5;" width="15" x="1000.1173" y="351"/><rect fill="#FFFFFF" height="2" style="stroke:#AFA9EC;stroke-width:1.5;" width="4" x="998.1173" y="353"/><rect fill="#FFFFFF" height="2" style="stroke:#AFA9EC;stroke-width:1.5;" width="4" x="998.1173" y="357"/><text fill="#26215C" font-family="sans-serif" font-size="12" lengthAdjust="spacing" textLength="70" x="853.1173" y="377.1387">&#44592;&#53440; Services</text><text fill="#26215C" font-family="sans-serif" font-size="12" lengthAdjust="spacing" textLength="114" x="853.1173" y="391.1074">(Auth/User/Result/</text><text fill="#26215C" font-family="sans-serif" font-size="12" lengthAdjust="spacing" textLength="142" x="853.1173" y="405.0762">Assessment/Statistics/</text><text fill="#26215C" font-family="sans-serif" font-size="12" lengthAdjust="spacing" textLength="142" x="853.1173" y="419.0449">Colleague/Notification)</text></g><!--entity Repos--><g id="elem_Repos"><rect fill="#FFFFFF" height="43.9688" rx="2.5" ry="2.5" style="stroke:#AFA9EC;stroke-width:1.5;" width="141" x="640.6173" y="506"/><rect fill="#FFFFFF" height="10" style="stroke:#AFA9EC;stroke-width:1.5;" width="15" x="761.6173" y="511"/><rect fill="#FFFFFF" height="2" style="stroke:#AFA9EC;stroke-width:1.5;" width="4" x="759.6173" y="513"/><rect fill="#FFFFFF" height="2" style="stroke:#AFA9EC;stroke-width:1.5;" width="4" x="759.6173" y="517"/><text fill="#26215C" font-family="sans-serif" font-size="12" lengthAdjust="spacing" textLength="101" x="655.6173" y="537.1387">JPA Repositories</text></g><!--entity DiscCache--><g id="elem_DiscCache"><rect fill="#FFFFFF" height="57.9375" rx="2.5" ry="2.5" style="stroke:#AFA9EC;stroke-width:1.5;" width="109" x="1066.6173" y="698"/><rect fill="#FFFFFF" height="10" style="stroke:#AFA9EC;stroke-width:1.5;" width="15" x="1155.6173" y="703"/><rect fill="#FFFFFF" height="2" style="stroke:#AFA9EC;stroke-width:1.5;" width="4" x="1153.6173" y="705"/><rect fill="#FFFFFF" height="2" style="stroke:#AFA9EC;stroke-width:1.5;" width="4" x="1153.6173" y="709"/><text fill="#26215C" font-family="sans-serif" font-size="12" lengthAdjust="spacing" textLength="69" x="1081.6173" y="729.1387">disc_cache</text><text fill="#26215C" font-family="sans-serif" font-size="12" lengthAdjust="spacing" textLength="42" x="1081.6173" y="743.1074">(&#48260;&#53431; &#52880;&#49884;)</text></g><!--entity OtherTables--><g id="elem_OtherTables"><rect fill="#FFFFFF" height="85.875" rx="2.5" ry="2.5" style="stroke:#AFA9EC;stroke-width:1.5;" width="182" x="849.1173" y="684"/><rect fill="#FFFFFF" height="10" style="stroke:#AFA9EC;stroke-width:1.5;" width="15" x="1011.1173" y="689"/><rect fill="#FFFFFF" height="2" style="stroke:#AFA9EC;stroke-width:1.5;" width="4" x="1009.1173" y="691"/><rect fill="#FFFFFF" height="2" style="stroke:#AFA9EC;stroke-width:1.5;" width="4" x="1009.1173" y="695"/><text fill="#26215C" font-family="sans-serif" font-size="12" lengthAdjust="spacing" textLength="113" x="864.1173" y="715.1387">tests + disc_tests</text><text fill="#26215C" font-family="sans-serif" font-size="12" lengthAdjust="spacing" textLength="68" x="864.1173" y="729.1074">colleagues</text><text fill="#26215C" font-family="sans-serif" font-size="12" lengthAdjust="spacing" textLength="142" x="864.1173" y="743.0762">notifications + &#49436;&#48652;&#53440;&#51077; 2&#44060;</text><text fill="#26215C" font-family="sans-serif" font-size="12" lengthAdjust="spacing" textLength="58" x="864.1173" y="757.0449">&#44592;&#53440; 5&#44060; &#53580;&#51060;&#48660;</text></g><!--entity RedisData--><g id="elem_RedisData"><rect fill="#FFFFFF" height="43.9688" rx="2.5" ry="2.5" style="stroke:#AFA9EC;stroke-width:1.5;" width="119" x="622.6173" y="705"/><rect fill="#FFFFFF" height="10" style="stroke:#AFA9EC;stroke-width:1.5;" width="15" x="721.6173" y="710"/><rect fill="#FFFFFF" height="2" style="stroke:#AFA9EC;stroke-width:1.5;" width="4" x="719.6173" y="712"/><rect fill="#FFFFFF" height="2" style="stroke:#AFA9EC;stroke-width:1.5;" width="4" x="719.6173" y="716"/><text fill="#26215C" font-family="sans-serif" font-size="12" lengthAdjust="spacing" textLength="79" x="637.6173" y="736.1387">@Cacheable</text></g><!--entity ClaudeAPI--><g id="elem_ClaudeAPI"><rect fill="#FFFFFF" height="71.9063" rx="2.5" ry="2.5" style="stroke:#AFA9EC;stroke-width:1.5;" width="164" x="370.1173" y="492"/><rect fill="#FFFFFF" height="10" style="stroke:#AFA9EC;stroke-width:1.5;" width="15" x="514.1173" y="497"/><rect fill="#FFFFFF" height="2" style="stroke:#AFA9EC;stroke-width:1.5;" width="4" x="512.1173" y="499"/><rect fill="#FFFFFF" height="2" style="stroke:#AFA9EC;stroke-width:1.5;" width="4" x="512.1173" y="503"/><text fill="#26215C" font-family="sans-serif" font-size="12" lengthAdjust="spacing" textLength="60" x="385.1173" y="523.1387">Anthropic</text><text fill="#26215C" font-family="sans-serif" font-size="12" lengthAdjust="spacing" textLength="66" x="385.1173" y="537.1074">Claude API</text><text fill="#26215C" font-family="sans-serif" font-size="12" lengthAdjust="spacing" textLength="124" x="385.1173" y="551.0762">(claude-sonnet-4-6)</text></g><!--entity Kakao--><g id="elem_Kakao"><rect fill="#FFFFFF" height="43.9688" rx="2.5" ry="2.5" style="stroke:#AFA9EC;stroke-width:1.5;" width="120" x="42.1173" y="506"/><rect fill="#FFFFFF" height="10" style="stroke:#AFA9EC;stroke-width:1.5;" width="15" x="142.1173" y="511"/><rect fill="#FFFFFF" height="2" style="stroke:#AFA9EC;stroke-width:1.5;" width="4" x="140.1173" y="513"/><rect fill="#FFFFFF" height="2" style="stroke:#AFA9EC;stroke-width:1.5;" width="4" x="140.1173" y="517"/><text fill="#26215C" font-family="sans-serif" font-size="12" lengthAdjust="spacing" textLength="80" x="57.1173" y="537.1387">Kakao OAuth</text></g><!--entity S3--><g id="elem_S3"><rect fill="#FFFFFF" height="71.9063" rx="2.5" ry="2.5" style="stroke:#AFA9EC;stroke-width:1.5;" width="138" x="197.1173" y="492"/><rect fill="#FFFFFF" height="10" style="stroke:#AFA9EC;stroke-width:1.5;" width="15" x="315.1173" y="497"/><rect fill="#FFFFFF" height="2" style="stroke:#AFA9EC;stroke-width:1.5;" width="4" x="313.1173" y="499"/><rect fill="#FFFFFF" height="2" style="stroke:#AFA9EC;stroke-width:1.5;" width="4" x="313.1173" y="503"/><text fill="#26215C" font-family="sans-serif" font-size="12" lengthAdjust="spacing" textLength="47" x="212.1173" y="523.1387">AWS S3</text><text fill="#26215C" font-family="sans-serif" font-size="12" lengthAdjust="spacing" textLength="98" x="212.1173" y="537.1074">&#54532;&#47196;&#54596; &#51060;&#48120;&#51648; Full URL</text><text fill="#26215C" font-family="sans-serif" font-size="12" lengthAdjust="spacing" textLength="24" x="212.1173" y="551.0762">(&#50868;&#50689;)</text></g><!--link Swagger to Controllers--><g id="link_Swagger_Controllers"><path d="M1280.1173,98.12 C1280.1173,130.24 1280.1173,175.62 1280.1173,207.78 " fill="none" id="Swagger-to-Controllers" style="stroke:#7F77DD;stroke-width:1.0;"/><polygon fill="#7F77DD" points="1280.1173,213.78,1284.1173,204.78,1280.1173,208.78,1276.1173,204.78,1280.1173,213.78" style="stroke:#7F77DD;stroke-width:1.0;"/><text fill="#534AB7" font-family="sans-serif" font-size="10" lengthAdjust="spacing" textLength="53" x="1226.1173" y="166.2322">API &#49688;&#46041; &#53580;&#49828;&#53944;</text><text fill="#534AB7" font-family="sans-serif" font-size="10" lengthAdjust="spacing" textLength="50" x="1227.6173" y="177.8729">(&#44060;&#48156; &#54872;&#44221; &#51204;&#50857;)</text></g><!--link NextJS to Controllers--><g id="link_NextJS_Controllers"><path d="M1634.3673,98.35 C1634.3673,144.54 1634.3673,229 1634.3673,229 C1634.3673,229 1508.3973,229 1405.5573,229 " fill="none" id="NextJS-to-Controllers" style="stroke:#7F77DD;stroke-width:1.0;"/><polygon fill="#7F77DD" points="1399.5573,229,1408.5573,233,1404.5573,229,1408.5573,225,1399.5573,229" style="stroke:#7F77DD;stroke-width:1.0;"/><text fill="#534AB7" font-family="sans-serif" font-size="10" lengthAdjust="spacing" textLength="67" x="1514.2873" y="226.2822">HTTPS / REST</text></g><!--link NextJS to Sse--><g id="link_NextJS_Sse"><path d="M1685.8673,98.06 C1685.8673,198.96 1685.8673,528 1685.8673,528 C1685.8673,528 1687.1973,528 1680.1873,528 " fill="none" id="NextJS-to-Sse" style="stroke:#7F77DD;stroke-width:1.0;"/><polygon fill="#7F77DD" points="1674.1873,528,1683.1873,532,1679.1873,528,1683.1873,524,1674.1873,528" style="stroke:#7F77DD;stroke-width:1.0;"/><text fill="#534AB7" font-family="sans-serif" font-size="10" lengthAdjust="spacing" textLength="122" x="1562.8673" y="304.1522">GET /notifications/stream</text><text fill="#534AB7" font-family="sans-serif" font-size="10" lengthAdjust="spacing" textLength="59" x="1594.3673" y="315.7929">(SSE &#50672;&#44208; &#50976;&#51648;)</text></g><!--link Session to NextJS--><g id="link_Session_NextJS"><path d="M1559.4473,69 C1571.1673,69 1577.1473,69 1588.3173,69 " fill="none" id="Session-to-NextJS" style="stroke:#7F77DD;stroke-width:1.0;"/><polygon fill="#7F77DD" points="1594.3173,69,1585.3173,65,1589.3173,69,1585.3173,73,1594.3173,69" style="stroke:#7F77DD;stroke-width:1.0;"/><text fill="#534AB7" font-family="sans-serif" font-size="10" lengthAdjust="spacing" textLength="39" x="1557.3873" y="79.2822">&#48708;&#54924;&#50896; &#50896;&#51216;&#49688;</text><text fill="#534AB7" font-family="sans-serif" font-size="10" lengthAdjust="spacing" textLength="95" x="1529.3873" y="90.9229">&#47196;&#44536;&#51064; &#49884; POST /results</text></g><!--link Security to Controllers--><g id="link_Security_Controllers"><path d="M1126.3273,243 C1137.5373,243 1143.2673,243 1155.0373,243 " fill="none" id="Security-to-Controllers" style="stroke:#7F77DD;stroke-width:1.0;"/><polygon fill="#7F77DD" points="1161.0373,243,1152.0373,239,1156.0373,243,1152.0373,247,1161.0373,243" style="stroke:#7F77DD;stroke-width:1.0;"/><text fill="#534AB7" font-family="sans-serif" font-size="10" lengthAdjust="spacing" textLength="27" x="1130.1773" y="253.2822">&#51064;&#51613;/&#51064;&#44032;</text></g><!--link Controllers to OtherServices--><g id="link_Controllers_OtherServices"><path d="M1171.3673,272.19 C1171.3673,304.78 1171.3673,353 1171.3673,353 C1171.3673,353 1095.0273,353 1026.3573,353 " fill="none" id="Controllers-to-OtherServices" style="stroke:#7F77DD;stroke-width:1.0;"/><polygon fill="#7F77DD" points="1020.3573,353,1029.3573,357,1025.3573,353,1029.3573,349,1020.3573,353" style="stroke:#7F77DD;stroke-width:1.0;"/><text fill="#534AB7" font-family="sans-serif" font-size="10" lengthAdjust="spacing" textLength="12" x="1123.2673" y="350.2822">&#50948;&#51076;</text></g><!--link Controllers to Scoring--><g id="link_Controllers_Scoring"><path d="M1268.1173,272.19 C1268.1173,297.66 1268.1173,328.41 1268.1173,353.86 " fill="none" id="Controllers-to-Scoring" style="stroke:#7F77DD;stroke-width:1.0;"/><polygon fill="#7F77DD" points="1268.1173,359.86,1272.1173,350.86,1268.1173,354.86,1264.1173,350.86,1268.1173,359.86" style="stroke:#7F77DD;stroke-width:1.0;"/><text fill="#534AB7" font-family="sans-serif" font-size="10" lengthAdjust="spacing" textLength="94" x="1269.1173" y="313.3122">POST /results/score</text></g><!--link Controllers to Chemistry--><g id="link_Controllers_Chemistry"><path d="M1399.1473,243 C1468.9773,243 1543.6173,243 1543.6173,243 C1543.6173,243 1543.6173,311.2 1543.6173,353.81 " fill="none" id="Controllers-to-Chemistry" style="stroke:#7F77DD;stroke-width:1.0;"/><polygon fill="#7F77DD" points="1543.6173,359.81,1547.6173,350.81,1543.6173,354.81,1539.6173,350.81,1543.6173,359.81" style="stroke:#7F77DD;stroke-width:1.0;"/><text fill="#534AB7" font-family="sans-serif" font-size="10" lengthAdjust="spacing" textLength="120" x="1408.7873" y="240.2822">POST /chemistry-reports</text></g><!--link Controllers to Sse--><g id="link_Controllers_Sse"><path d="M1399.4173,258 C1455.6573,258 1510.6173,258 1510.6173,258 C1510.6173,258 1510.6173,519 1510.6173,519 C1510.6173,519 1521.8473,519 1542.0373,519 " fill="none" id="Controllers-to-Sse" style="stroke:#7F77DD;stroke-width:1.0;"/><polygon fill="#7F77DD" points="1548.0373,519,1539.0373,515,1543.0373,519,1539.0373,523,1548.0373,519" style="stroke:#7F77DD;stroke-width:1.0;"/><text fill="#534AB7" font-family="sans-serif" font-size="10" lengthAdjust="spacing" textLength="51" x="1458.6173" y="348.8922">SSE &#44396;&#46021;/&#51204;&#49569;</text></g><!--link Scoring to Repos--><g id="link_Scoring_Repos"><path d="M1268.1173,418.14 C1268.1173,458.9 1268.1173,528 1268.1173,528 C1268.1173,528 937.5473,528 787.6573,528 " fill="none" id="Scoring-to-Repos" style="stroke:#7F77DD;stroke-width:1.0;"/><polygon fill="#7F77DD" points="781.6573,528,790.6573,532,786.6573,528,790.6573,524,781.6573,528" style="stroke:#7F77DD;stroke-width:1.0;"/></g><!--link Cache to Repos--><g id="link_Cache_Repos"><path d="M1368.8673,389 C1358.8073,389 1351.6173,389 1351.6173,389 C1351.6173,389 1351.6173,539 1351.6173,539 C1351.6173,539 954.3773,539 787.7973,539 " fill="none" id="Cache-to-Repos" style="stroke:#7F77DD;stroke-width:1.0;"/><polygon fill="#7F77DD" points="781.7973,539,790.7973,543,786.7973,539,790.7973,535,781.7973,539" style="stroke:#7F77DD;stroke-width:1.0;"/></g><!--link Cache to Llm--><g id="link_Cache_Llm"><path d="M1451.7873,418.14 C1451.7873,441.86 1451.7873,469.19 1451.7873,492.9 " fill="none" id="Cache-to-Llm" style="stroke:#7F77DD;stroke-width:1.0;"/><polygon fill="#7F77DD" points="1451.7873,498.9,1455.7873,489.9,1451.7873,493.9,1447.7873,489.9,1451.7873,498.9" style="stroke:#7F77DD;stroke-width:1.0;"/><text fill="#534AB7" font-family="sans-serif" font-size="10" lengthAdjust="spacing" textLength="89" x="1361.7873" y="455.8022">&#52880;&#49884; MISS &#49884; LLM &#54840;&#52636;</text></g><!--link Chemistry to Llm--><g id="link_Chemistry_Llm"><path d="M1538.1173,418.08 C1538.1173,461.44 1538.1173,538 1538.1173,538 C1538.1173,538 1522.8973,538 1499.3573,538 " fill="none" id="Chemistry-to-Llm" style="stroke:#7F77DD;stroke-width:1.0;"/><polygon fill="#7F77DD" points="1493.3573,538,1502.3573,542,1498.3573,538,1502.3573,534,1493.3573,538" style="stroke:#7F77DD;stroke-width:1.0;"/><text fill="#534AB7" font-family="sans-serif" font-size="10" lengthAdjust="spacing" textLength="40" x="1497.1173" y="497.7022">@Async</text></g><!--link Chemistry to Sse--><g id="link_Chemistry_Sse"><path d="M1611.1173,418.14 C1611.1173,441.86 1611.1173,469.19 1611.1173,492.9 " fill="none" id="Chemistry-to-Sse" style="stroke:#7F77DD;stroke-width:1.0;"/><polygon fill="#7F77DD" points="1611.1173,498.9,1615.1173,489.9,1611.1173,493.9,1607.1173,489.9,1611.1173,498.9" style="stroke:#7F77DD;stroke-width:1.0;"/><text fill="#534AB7" font-family="sans-serif" font-size="10" lengthAdjust="spacing" textLength="48" x="1562.1173" y="455.8022">&#50756;&#47308; &#51060;&#48292;&#53944; &#54392;&#49884;</text></g><!--link OtherServices to Repos--><g id="link_OtherServices_Repos"><path d="M838.0573,425 C805.3473,425 776.3673,425 776.3673,425 C776.3673,425 776.3673,469.64 776.3673,499.9 " fill="none" id="OtherServices-to-Repos" style="stroke:#7F77DD;stroke-width:1.0;"/><polygon fill="#7F77DD" points="776.3673,505.9,780.3673,496.9,776.3673,500.9,772.3673,496.9,776.3673,505.9" style="stroke:#7F77DD;stroke-width:1.0;"/></g><!--link Coin to Repos--><g id="link_Coin_Repos"><path d="M1060.8673,418.05 C1060.8673,455.81 1060.8673,517 1060.8673,517 C1060.8673,517 890.0973,517 787.8973,517 " fill="none" id="Coin-to-Repos" style="stroke:#7F77DD;stroke-width:1.0;"/><polygon fill="#7F77DD" points="781.8973,517,790.8973,521,786.8973,517,790.8973,513,781.8973,517" style="stroke:#7F77DD;stroke-width:1.0;"/></g><!--link Batch to Repos--><g id="link_Batch_Repos"><path d="M711.1173,418.14 C711.1173,444.25 711.1173,475.99 711.1173,499.75 " fill="none" id="Batch-to-Repos" style="stroke:#7F77DD;stroke-width:1.0;"/><polygon fill="#7F77DD" points="711.1173,505.75,715.1173,496.75,711.1173,500.75,707.1173,496.75,711.1173,505.75" style="stroke:#7F77DD;stroke-width:1.0;"/><text fill="#534AB7" font-family="sans-serif" font-size="10" lengthAdjust="spacing" textLength="48" x="662.1173" y="459.2222">&#47564;&#47308; &#45936;&#51060;&#53552; &#49325;&#51228;</text></g><!--link Repos to MySQL--><g id="link_Repos_MySQL"><path d="M761.6173,550.06 C761.6173,601.87 761.6173,727 761.6173,727 C761.6173,727 773.1523,727 785.4086,727 C791.5367,727 797.8451,727 802.9822,727 C803.6243,727 804.2481,727 804.851,727 C805.1525,727 805.4487,727 805.7393,727 C805.812,727 799.8843,727 799.9562,727 " fill="none" id="Repos-to-MySQL" style="stroke:#7F77DD;stroke-width:1.0;"/><polygon fill="#7F77DD" points="805.9562,727,796.9562,723,800.9562,727,796.9562,731,805.9562,727" style="stroke:#7F77DD;stroke-width:1.0;"/></g><!--link Cache to Redis--><g id="link_Cache_Redis"><path d="M1410.4473,418.24 C1410.4473,449.92 1410.4473,496 1410.4473,496 C1410.4473,496 605.3673,496 605.3673,496 C605.3673,496 605.3673,553.75 605.3673,611.5 C605.3673,618.7188 605.3673,625.9375 605.3673,633.0435 C605.3673,636.5964 605.3673,640.1212 605.3673,643.6037 C605.3673,645.3449 605.3673,641.0756 605.3673,642.7939 " fill="none" id="Cache-to-Redis" style="stroke:#7F77DD;stroke-width:1.0;"/><polygon fill="#7F77DD" points="605.3673,648.7939,609.3673,639.7939,605.3673,643.7939,601.3673,639.7939,605.3673,648.7939" style="stroke:#7F77DD;stroke-width:1.0;"/><text fill="#534AB7" font-family="sans-serif" font-size="10" lengthAdjust="spacing" textLength="85" x="836.3873" y="493.2822">@Cacheable (&#50868;&#50689;)</text></g><!--link Repos to Redis--><g id="link_Repos_Redis"><path d="M640.4273,528 C612.5773,528 587.1173,528 587.1173,528 C587.1173,528 587.1173,574.69 587.1173,622.8388 C587.1173,628.8573 587.1173,634.8987 587.1173,640.8746 C587.1173,643.8625 587.1173,640.834 587.1173,643.7781 " fill="none" id="Repos-to-Redis" style="stroke:#7F77DD;stroke-width:1.0;"/><polygon fill="#7F77DD" points="587.1173,649.7781,591.1173,640.7781,587.1173,644.7781,583.1173,640.7781,587.1173,649.7781" style="stroke:#7F77DD;stroke-width:1.0;"/><text fill="#534AB7" font-family="sans-serif" font-size="10" lengthAdjust="spacing" textLength="82" x="504.1173" y="597.8422">OAuth2 &#51064;&#44032; &#50836;&#52397; &#51200;&#51109;</text></g><!--link Security to Kakao--><g id="link_Security_Kakao"><path d="M967.7673,243 C740.2973,243 102.1173,243 102.1173,243 C102.1173,243 102.1173,432.45 102.1173,499.64 " fill="none" id="Security-to-Kakao" style="stroke:#7F77DD;stroke-width:1.0;"/><polygon fill="#7F77DD" points="102.1173,505.64,106.1173,496.64,102.1173,500.64,98.1173,496.64,102.1173,505.64" style="stroke:#7F77DD;stroke-width:1.0;"/><text fill="#534AB7" font-family="sans-serif" font-size="10" lengthAdjust="spacing" textLength="82" x="320.6273" y="240.2822">OAuth2 &#51064;&#44032; &#53076;&#46300; &#44368;&#54872;</text></g><!--link Llm to ClaudeAPI--><g id="link_Llm_ClaudeAPI"><path d="M1368.7573,503 C1198.4973,503 731.6673,503 540.1973,503 " fill="none" id="Llm-to-ClaudeAPI" style="stroke:#7F77DD;stroke-width:1.0;"/><polygon fill="#7F77DD" points="534.1973,503,543.1973,507,539.1973,503,543.1973,499,534.1973,503" style="stroke:#7F77DD;stroke-width:1.0;"/><text fill="#534AB7" font-family="sans-serif" font-size="10" lengthAdjust="spacing" textLength="48" x="902.4773" y="513.2822">&#48372;&#44256;&#49436; &#49373;&#49457; &#50836;&#52397;</text></g><!--link Repos to S3--><g id="link_Repos_S3"><path d="M645.8673,505.66 C645.8673,486.51 645.8673,462 645.8673,462 C645.8673,462 266.1173,462 266.1173,462 C266.1173,462 266.1173,470.5 266.1173,485.91 " fill="none" id="Repos-to-S3" style="stroke:#7F77DD;stroke-width:1.0;"/><polygon fill="#7F77DD" points="266.1173,491.91,270.1173,482.91,266.1173,486.91,262.1173,482.91,266.1173,491.91" style="stroke:#7F77DD;stroke-width:1.0;"/><text fill="#534AB7" font-family="sans-serif" font-size="10" lengthAdjust="spacing" textLength="83" x="378.8673" y="459.2822">&#54532;&#47196;&#54596; &#51060;&#48120;&#51648; &#50629;&#47196;&#46300; (&#50868;&#50689;)</text></g><!--SRC=[jLPRRnD757xVNt7aFa04ZabC2EIXml65XeQGPatxqA1ginxYRTQxriuQC0WfW8DQcegqDIL97HHKoaK24K8AfYf_fe_UyN_ecPczENRKgbAD4FRCET_vpkqRw99XLJL7gy22fYyjEdRDAcLjqtRWeqA6_r5eQ54YbxIQwHPiovtHAWGIcMhL9A3cu8pjbWqTPeXz5AXcqIGbZd4fCTXNDQuH61aTVEd77ZqnEZAMLM8skbsfsXQnNBYk04psaHKVVcCx9UBufyZ_L3uRdXQHv995A8MHuJ4yxGyepmA601d7iQ_u9kE5yV5SBZYC-OwbZsScn-CN4k2OSYEUGHKvQujaCFzyFfyhvFVp3v7tyn_jPP_Efe-VFDN3FXtySklOemNRBFMoAMckjg1Hyf_AsL-u7cpTj6kb_mFOijs328yLqlyEDwpfWOqo3OkuzIe1st7Bjg84ZKlao6LYsbNYGD6sJPeGwPpAvmIbBzKhsk8YtbsOchSEfwZybQmPGnT1e-3VyaWXNjOqSA0JlFk54uM2X9aXLztXhobYgEfSIbNFI7z-V5Rb1XG7mB0jrRKTH44xxtsZkxdAVba3_CksrzWtwy0UDjXtBV3Ux7Nsbdq6qg-7WLfr36iHYsQxa1w-2eTnpOOhTRtg3dCz85PfA14C9zB3yA7hh4CeijTSn4m43H0f8CUvl5g4B1ROiKsJE3oRwzwzXlUyoRRQDp9L0uv0xE3paSXMaetvIaIVgKhqccEuzNdh27ogBMasdC_Kt3AC3X_pavJtw7IZX-vaZHfyTVgeghhDaLNYN3PqB2TxtS0Q8Zzljz6zzGxOzltEkrPteodnfRLqpMfwcOIEqzgrEl0Zl9Svy6jfEMrMGhkigTLA13ApKz1TRxEtBM6C5ZvecLGCwZhrqE5qXjOj7TYVozwhDdWxhUxFtye0WQcV2Ot8uFTynN1Td4SS0E_92ycU-doojc556Qy_yvfDx-apxwSMiBVFsNR3xu5XIVDEUwTxUnby3zvDNlJK1PJvr1oXgDsfUIj3-MHMS2PIAXyBwXewnVCiRwEsM2Ef6TirBXcw61dPvlDkcJW1R5_FPh7x24CidVIrxUni1kP8rQO6xe51g80J1m5CC3AJcgkNvotlwQhtwogm3qrCCzMzizszkGFiraksBHiWpFXoXCgOE5TNFvjEy4lnJUvdoQ3wLpflBLyzVqR-MCDjaodby3xe_26uV6puv0G87qSKYi9VTtwK1owXBZtAHIsi2XQzE8KZTvDjFeV38wETdHPqLrRPrfxNRWxnyC89fpD2cBVqeCBulHVj2B16osklOlVOmnNWUFEMtysn7l2e7KLjmSHcz5HYZc2yX2mnVfELE2tIvDONmviSkd1N-GGas4RRUxiiIBnliBkFfMIE1vAPiTooOrSDFRuLM5PT_4XIsq8bJXvFdl15GHoZ2VUDRR-u5By5w1SggEbvgzjiU8zQtViDu1c-QhEdor2ecIPSc9l666npZwtVzAKnpJa70Wx9adt5IduS5o6O40kBqkhTsn1Lk_kuUxUDE5X5ZnToOxsp-m5Rry3M3IdA8P3gZkrkGanc5IdaS52KJuh5MHLIm1MqtnON68BF19p95o7Lq_0KgW7HAkBno0DxiDFPnI5lRMFkGuh_022QOooMNOGByJdQW6S4j-PHg_EkZHeD_3cPFO-odl87cUSOVp-yMtlOQoLGu2XARuA8nPvifV2Vpiwo4hyBakmH1UxHQk1pDj3KbsEPG0-x5CKhCj0fbCt8IG-EaWvAY8F93OmMLNy2U84xlx_mxgsaUDFlFC81YjW4BbAHnA98nt-ym8SW2YA51SvDgQfemFJqEV_HK69P37ILhyOWivuqs4P3o2Ako2wVQEZ-qCP8IcyJzh76Xm46fICqTC154CpNOE_x7OpNRGJwooSfflLYPNAJYdGDW8G4-mMBmBaOnJwOTYXA4ApuFg01Ja95Ha7E9B3D9jjzYQkCclaRvxPVnVXYeGn4enxDkbIb0t35quD3iuPYeKJDYXObq3TPBFo_svjj30hizXPhlFPvAL55GqSr7SzcaF2n1ojuniE7LVaR]--></g></svg>