<?xml version="1.0" encoding="us-ascii" standalone="no"?><svg xmlns="http://www.w3.org/2000/svg" xmlns:xlink="http://www.w3.org/1999/xlink" contentStyleType="text/css" height="1567px" preserveAspectRatio="none" style="width:890px;height:1567px;background:#FAFAFA;" version="1.1" viewBox="0 0 890 1567" width="890px" zoomAndPan="magnify"><defs/><g><rect fill="#FAFAFA" height="1567" style="stroke:none;stroke-width:1.0;" width="890" x="0" y="0"/><rect fill="#F5F3FF" height="213.4063" style="stroke:#AFA9EC;stroke-width:1.0;" width="10" x="355.5" y="1067.9609"/><rect fill="#F5F3FF" height="227.8984" style="stroke:#AFA9EC;stroke-width:1.0;" width="10" x="474.5" y="687.5625"/><rect fill="#F5F3FF" height="150.4844" style="stroke:#AFA9EC;stroke-width:1.0;" width="10" x="585.5" y="1093.6016"/><rect fill="#F5F3FF" height="125.3359" style="stroke:#534AB7;stroke-width:1.5;" width="446.5" x="417.5" y="753.8438"/><rect fill="#F5F3FF" height="40.4453" style="stroke:none;stroke-width:1.0;" width="446.5" x="417.5" y="838.7344"/><rect fill="#F5F3FF" height="449.5859" style="stroke:#534AB7;stroke-width:1.5;" width="770" x="10" y="1022.7109"/><rect fill="#F5F3FF" height="83.7266" style="stroke:none;stroke-width:1.0;" width="770" x="10" y="1388.5703"/><line style="stroke:#AFA9EC;stroke-width:0.5;stroke-dasharray:5.0,5.0;" x1="33" x2="33" y1="78.9688" y2="1489.2969"/><line style="stroke:#AFA9EC;stroke-width:0.5;stroke-dasharray:5.0,5.0;" x1="146.5" x2="146.5" y1="78.9688" y2="1489.2969"/><line style="stroke:#AFA9EC;stroke-width:0.5;stroke-dasharray:5.0,5.0;" x1="360.5" x2="360.5" y1="78.9688" y2="1489.2969"/><line style="stroke:#AFA9EC;stroke-width:0.5;stroke-dasharray:5.0,5.0;" x1="479.5" x2="479.5" y1="78.9688" y2="1489.2969"/><line style="stroke:#AFA9EC;stroke-width:0.5;stroke-dasharray:5.0,5.0;" x1="590.5" x2="590.5" y1="78.9688" y2="1489.2969"/><line style="stroke:#AFA9EC;stroke-width:0.5;stroke-dasharray:5.0,5.0;" x1="747" x2="747" y1="78.9688" y2="1489.2969"/><line style="stroke:#AFA9EC;stroke-width:0.5;stroke-dasharray:5.0,5.0;" x1="829" x2="829" y1="78.9688" y2="1489.2969"/><text fill="#3C3489" font-family="sans-serif" font-size="12" font-weight="bold" lengthAdjust="spacing" textLength="21" x="20" y="76.1387">&#48708;&#54924;&#50896;</text><ellipse cx="33.5" cy="13.5" fill="#FFFFFF" rx="8" ry="8" style="stroke:#7F77DD;stroke-width:0.5;"/><path d="M33.5,21.5 L33.5,48.5 M20.5,29.5 L46.5,29.5 M33.5,48.5 L20.5,63.5 M33.5,48.5 L46.5,63.5 " fill="none" style="stroke:#7F77DD;stroke-width:0.5;"/><text fill="#3C3489" font-family="sans-serif" font-size="12" font-weight="bold" lengthAdjust="spacing" textLength="21" x="20" y="1499.4355">&#48708;&#54924;&#50896;</text><ellipse cx="33.5" cy="1510.7656" fill="#FFFFFF" rx="8" ry="8" style="stroke:#7F77DD;stroke-width:0.5;"/><path d="M33.5,1518.7656 L33.5,1545.7656 M20.5,1526.7656 L46.5,1526.7656 M33.5,1545.7656 L20.5,1560.7656 M33.5,1545.7656 L46.5,1560.7656 " fill="none" style="stroke:#7F77DD;stroke-width:0.5;"/><rect fill="#FFFFFF" height="41.9375" rx="2.5" ry="2.5" style="stroke:#AFA9EC;stroke-width:0.5;" width="56" x="118.5" y="36.0313"/><text fill="#26215C" font-family="sans-serif" font-size="12" lengthAdjust="spacing" textLength="42" x="125.5" y="54.1699">Next.js</text><text fill="#26215C" font-family="sans-serif" font-size="12" lengthAdjust="spacing" textLength="38" x="127.5" y="68.1387">(&#48652;&#46972;&#50864;&#51200;)</text><rect fill="#FFFFFF" height="41.9375" rx="2.5" ry="2.5" style="stroke:#AFA9EC;stroke-width:0.5;" width="56" x="118.5" y="1488.2969"/><text fill="#26215C" font-family="sans-serif" font-size="12" lengthAdjust="spacing" textLength="42" x="125.5" y="1506.4355">Next.js</text><text fill="#26215C" font-family="sans-serif" font-size="12" lengthAdjust="spacing" textLength="38" x="127.5" y="1520.4043">(&#48652;&#46972;&#50864;&#51200;)</text><rect fill="#FFFFFF" height="27.9688" rx="2.5" ry="2.5" style="stroke:#AFA9EC;stroke-width:0.5;" width="114" x="303.5" y="50"/><text fill="#26215C" font-family="sans-serif" font-size="12" lengthAdjust="spacing" textLength="100" x="310.5" y="68.1387">ResultController</text><rect fill="#FFFFFF" height="27.9688" rx="2.5" ry="2.5" style="stroke:#AFA9EC;stroke-width:0.5;" width="114" x="303.5" y="1488.2969"/><text fill="#26215C" font-family="sans-serif" font-size="12" lengthAdjust="spacing" textLength="100" x="310.5" y="1506.4355">ResultController</text><rect fill="#FFFFFF" height="27.9688" rx="2.5" ry="2.5" style="stroke:#AFA9EC;stroke-width:0.5;" width="104" x="427.5" y="50"/><text fill="#26215C" font-family="sans-serif" font-size="12" lengthAdjust="spacing" textLength="90" x="434.5" y="68.1387">AuthController</text><rect fill="#FFFFFF" height="27.9688" rx="2.5" ry="2.5" style="stroke:#AFA9EC;stroke-width:0.5;" width="104" x="427.5" y="1488.2969"/><text fill="#26215C" font-family="sans-serif" font-size="12" lengthAdjust="spacing" textLength="90" x="434.5" y="1506.4355">AuthController</text><rect fill="#FFFFFF" height="27.9688" rx="2.5" ry="2.5" style="stroke:#AFA9EC;stroke-width:0.5;" width="98" x="541.5" y="50"/><text fill="#26215C" font-family="sans-serif" font-size="12" lengthAdjust="spacing" textLength="84" x="548.5" y="68.1387">ResultService</text><rect fill="#FFFFFF" height="27.9688" rx="2.5" ry="2.5" style="stroke:#AFA9EC;stroke-width:0.5;" width="98" x="541.5" y="1488.2969"/><text fill="#26215C" font-family="sans-serif" font-size="12" lengthAdjust="spacing" textLength="84" x="548.5" y="1506.4355">ResultService</text><text fill="#26215C" font-family="sans-serif" font-size="12" lengthAdjust="spacing" textLength="39" x="725" y="76.1387">MySQL</text><path d="M729.5,29 C729.5,19 747.5,19 747.5,19 C747.5,19 765.5,19 765.5,29 L765.5,55 C765.5,65 747.5,65 747.5,65 C747.5,65 729.5,65 729.5,55 L729.5,29 " fill="#E2E2F0" style="stroke:#181818;stroke-width:1.5;"/><path d="M729.5,29 C729.5,39 747.5,39 747.5,39 C747.5,39 765.5,39 765.5,29 " fill="none" style="stroke:#181818;stroke-width:1.5;"/><text fill="#26215C" font-family="sans-serif" font-size="12" lengthAdjust="spacing" textLength="39" x="725" y="1499.4355">MySQL</text><path d="M729.5,1512.2656 C729.5,1502.2656 747.5,1502.2656 747.5,1502.2656 C747.5,1502.2656 765.5,1502.2656 765.5,1512.2656 L765.5,1538.2656 C765.5,1548.2656 747.5,1548.2656 747.5,1548.2656 C747.5,1548.2656 729.5,1548.2656 729.5,1538.2656 L729.5,1512.2656 " fill="#E2E2F0" style="stroke:#181818;stroke-width:1.5;"/><path d="M729.5,1512.2656 C729.5,1522.2656 747.5,1522.2656 747.5,1522.2656 C747.5,1522.2656 765.5,1522.2656 765.5,1512.2656 " fill="none" style="stroke:#181818;stroke-width:1.5;"/><rect fill="#E2E2F0" height="27.9688" style="stroke:#181818;stroke-width:0.5;" width="94" x="784" y="46"/><rect fill="#E2E2F0" height="27.9688" style="stroke:#181818;stroke-width:0.5;" width="94" x="780" y="50"/><text fill="#26215C" font-family="sans-serif" font-size="12" lengthAdjust="spacing" textLength="80" x="787" y="68.1387">Kakao OAuth</text><rect fill="#E2E2F0" height="27.9688" style="stroke:#181818;stroke-width:0.5;" width="94" x="784" y="1488.2969"/><rect fill="#E2E2F0" height="27.9688" style="stroke:#181818;stroke-width:0.5;" width="94" x="780" y="1492.2969"/><text fill="#26215C" font-family="sans-serif" font-size="12" lengthAdjust="spacing" textLength="80" x="787" y="1510.4355">Kakao OAuth</text><rect fill="#F5F3FF" height="213.4063" style="stroke:#AFA9EC;stroke-width:1.0;" width="10" x="355.5" y="1067.9609"/><rect fill="#F5F3FF" height="227.8984" style="stroke:#AFA9EC;stroke-width:1.0;" width="10" x="474.5" y="687.5625"/><rect fill="#F5F3FF" height="150.4844" style="stroke:#AFA9EC;stroke-width:1.0;" width="10" x="585.5" y="1093.6016"/><rect fill="#EEEDFE" height="3" style="stroke:#EEEDFE;stroke-width:1.0;" width="883" x="0" y="108.9531"/><line style="stroke:#534AB7;stroke-width:1.0;" x1="0" x2="883" y1="108.9531" y2="108.9531"/><line style="stroke:#534AB7;stroke-width:1.0;" x1="0" x2="883" y1="111.9531" y2="111.9531"/><rect fill="#EEEDFE" height="21.9688" style="stroke:#534AB7;stroke-width:2.0;" width="75" x="404" y="98.9688"/><text fill="#3C3489" font-family="sans-serif" font-size="12" font-weight="bold" lengthAdjust="spacing" textLength="57" x="410" y="114.1074">&#48708;&#54924;&#50896; &#44160;&#49324; &#51025;&#49884;</text><polygon fill="#7F77DD" points="134.5,144.5781,144.5,148.5781,134.5,152.5781,138.5,148.5781" style="stroke:#7F77DD;stroke-width:1.0;"/><line style="stroke:#7F77DD;stroke-width:1.0;" x1="33.5" x2="140.5" y1="148.5781" y2="148.5781"/><text fill="#534AB7" font-family="sans-serif" font-size="10" lengthAdjust="spacing" textLength="27" x="76.5" y="144.2197">&#44160;&#49324; &#49884;&#51089;</text><polygon fill="#7F77DD" points="348.5,181.8594,358.5,185.8594,348.5,189.8594,352.5,185.8594" style="stroke:#7F77DD;stroke-width:1.0;"/><line style="stroke:#7F77DD;stroke-width:1.0;" x1="146.5" x2="354.5" y1="185.8594" y2="185.8594"/><text fill="#534AB7" font-family="sans-serif" font-size="10" lengthAdjust="spacing" textLength="94" x="206.5" y="169.8604">POST /results/score</text><text fill="#534AB7" font-family="sans-serif" font-size="10" lengthAdjust="spacing" textLength="157" x="175" y="181.501">{ testType, scores: { d, i, s, c } }</text><polygon fill="#7F77DD" points="157.5,219.1406,147.5,223.1406,157.5,227.1406,153.5,223.1406" style="stroke:#7F77DD;stroke-width:1.0;"/><line style="stroke:#7F77DD;stroke-width:1.0;stroke-dasharray:2.0,2.0;" x1="151.5" x2="359.5" y1="223.1406" y2="223.1406"/><text fill="#534AB7" font-family="sans-serif" font-size="10" lengthAdjust="spacing" textLength="36" x="235.5" y="207.1416">200 OK</text><text fill="#534AB7" font-family="sans-serif" font-size="10" lengthAdjust="spacing" textLength="148" x="179.5" y="218.7822">{ rawScores, buckets, report }</text><path d="M151,236.1406 L151,269.1406 L220,269.1406 L220,246.1406 L210,236.1406 L151,236.1406 " fill="#F5F3FF" style="stroke:#AFA9EC;stroke-width:0.5;"/><path d="M210,236.1406 L210,246.1406 L220,246.1406 L210,236.1406 " fill="#F5F3FF" style="stroke:#AFA9EC;stroke-width:0.5;"/><text fill="#534AB7" font-family="sans-serif" font-size="10" lengthAdjust="spacing" textLength="48" x="157" y="250.4229">&#49436;&#48260; &#49464;&#49496; &#48120;&#48156;&#44553;</text><text fill="#534AB7" font-family="sans-serif" font-size="10" lengthAdjust="spacing" textLength="41" x="157" y="262.0635">(&#54540;&#47084;&#46377; &#48169;&#50612;)</text><line style="stroke:#7F77DD;stroke-width:1.0;" x1="146.5" x2="188.5" y1="326.9844" y2="326.9844"/><line style="stroke:#7F77DD;stroke-width:1.0;" x1="188.5" x2="188.5" y1="326.9844" y2="339.9844"/><line style="stroke:#7F77DD;stroke-width:1.0;" x1="147.5" x2="188.5" y1="339.9844" y2="339.9844"/><polygon fill="#7F77DD" points="157.5,335.9844,147.5,339.9844,157.5,343.9844,153.5,339.9844" style="stroke:#7F77DD;stroke-width:1.0;"/><text fill="#534AB7" font-family="sans-serif" font-size="10" lengthAdjust="spacing" textLength="119" x="194" y="287.7041">sessionStorage.setItem(</text><text fill="#534AB7" font-family="sans-serif" font-size="10" lengthAdjust="spacing" textLength="59" x="227" y="299.3447">'disc_result',</text><text fill="#534AB7" font-family="sans-serif" font-size="10" lengthAdjust="spacing" textLength="194" x="159.5" y="310.9854">{ scores: { d,i,s,c }, buckets: { d,i,s,c } }</text><text fill="#534AB7" font-family="sans-serif" font-size="10" lengthAdjust="spacing" textLength="4" x="251.5" y="322.626">)</text><polygon fill="#7F77DD" points="44.5,373.2656,34.5,377.2656,44.5,381.2656,40.5,377.2656" style="stroke:#7F77DD;stroke-width:1.0;"/><line style="stroke:#7F77DD;stroke-width:1.0;stroke-dasharray:2.0,2.0;" x1="38.5" x2="145.5" y1="377.2656" y2="377.2656"/><text fill="#534AB7" font-family="sans-serif" font-size="10" lengthAdjust="spacing" textLength="27" x="76.5" y="361.2666">&#44208;&#44284; &#54868;&#47732;</text><text fill="#534AB7" font-family="sans-serif" font-size="10" lengthAdjust="spacing" textLength="78" x="51" y="372.9072">("&#49324;&#50857;&#51088;&#45784;&#51032; &#44053;&#51216;&#51008;...")</text><rect fill="#EEEDFE" height="3" style="stroke:#EEEDFE;stroke-width:1.0;" width="883" x="0" y="405.25"/><line style="stroke:#534AB7;stroke-width:1.0;" x1="0" x2="883" y1="405.25" y2="405.25"/><line style="stroke:#534AB7;stroke-width:1.0;" x1="0" x2="883" y1="408.25" y2="408.25"/><rect fill="#EEEDFE" height="21.9688" style="stroke:#534AB7;stroke-width:2.0;" width="86" x="398.5" y="395.2656"/><text fill="#3C3489" font-family="sans-serif" font-size="12" font-weight="bold" lengthAdjust="spacing" textLength="68" x="404.5" y="410.4043">&#47196;&#44536;&#51064; &#54980; &#44208;&#44284; &#51200;&#51109;</text><polygon fill="#7F77DD" points="134.5,440.875,144.5,444.875,134.5,448.875,138.5,444.875" style="stroke:#7F77DD;stroke-width:1.0;"/><line style="stroke:#7F77DD;stroke-width:1.0;" x1="33.5" x2="140.5" y1="444.875" y2="444.875"/><text fill="#534AB7" font-family="sans-serif" font-size="10" lengthAdjust="spacing" textLength="81" x="49.5" y="440.5166">'&#47196;&#44536;&#51064;&#54616;&#44256; &#44208;&#44284; &#51200;&#51109;' &#53364;&#47533;</text><line style="stroke:#7F77DD;stroke-width:1.0;" x1="146.5" x2="188.5" y1="482.1563" y2="482.1563"/><line style="stroke:#7F77DD;stroke-width:1.0;" x1="188.5" x2="188.5" y1="482.1563" y2="495.1563"/><line style="stroke:#7F77DD;stroke-width:1.0;" x1="147.5" x2="188.5" y1="495.1563" y2="495.1563"/><polygon fill="#7F77DD" points="157.5,491.1563,147.5,495.1563,157.5,499.1563,153.5,495.1563" style="stroke:#7F77DD;stroke-width:1.0;"/><text fill="#534AB7" font-family="sans-serif" font-size="10" lengthAdjust="spacing" textLength="86" x="153.5" y="466.1572">sessionStorage&#50640;&#49436;</text><text fill="#534AB7" font-family="sans-serif" font-size="10" lengthAdjust="spacing" textLength="33" x="180" y="477.7979">&#50896;&#51216;&#49688; &#51069;&#44592;</text><polygon fill="#7F77DD" points="467.5,528.4375,477.5,532.4375,467.5,536.4375,471.5,532.4375" style="stroke:#7F77DD;stroke-width:1.0;"/><line style="stroke:#7F77DD;stroke-width:1.0;" x1="146.5" x2="473.5" y1="532.4375" y2="532.4375"/><text fill="#534AB7" font-family="sans-serif" font-size="10" lengthAdjust="spacing" textLength="186" x="220" y="516.4385">GET /auth/kakao?redirect=/save-result</text><text fill="#534AB7" font-family="sans-serif" font-size="10" lengthAdjust="spacing" textLength="188" x="219" y="528.0791">(sessionStorage &#51316;&#51116; &#49884; redirect &#54028;&#46972;&#48120;&#53552; &#54252;&#54632;)</text><path d="M484,545.4375 L484,589.4375 L623,589.4375 L623,555.4375 L613,545.4375 L484,545.4375 " fill="#F5F3FF" style="stroke:#AFA9EC;stroke-width:0.5;"/><path d="M613,545.4375 L613,555.4375 L623,555.4375 L613,545.4375 " fill="#F5F3FF" style="stroke:#AFA9EC;stroke-width:0.5;"/><text fill="#534AB7" font-family="sans-serif" font-size="10" lengthAdjust="spacing" textLength="118" x="490" y="559.7197">redirect &#54028;&#46972;&#48120;&#53552; &#54868;&#51060;&#53944;&#47532;&#49828;&#53944; &#44160;&#51613;</text><text fill="#534AB7" font-family="sans-serif" font-size="10" lengthAdjust="spacing" textLength="84" x="490" y="571.3604">&#54728;&#50857;: /, /save-result</text><text fill="#534AB7" font-family="sans-serif" font-size="10" lengthAdjust="spacing" textLength="56" x="490" y="583.001">&#44536; &#50808; &#8594; / &#47196; &#51060;&#46041;</text><polygon fill="#7F77DD" points="157.5,620.6406,147.5,624.6406,157.5,628.6406,153.5,624.6406" style="stroke:#7F77DD;stroke-width:1.0;"/><line style="stroke:#7F77DD;stroke-width:1.0;stroke-dasharray:2.0,2.0;" x1="151.5" x2="478.5" y1="624.6406" y2="624.6406"/><text fill="#534AB7" font-family="sans-serif" font-size="10" lengthAdjust="spacing" textLength="89" x="268.5" y="608.6416">302 &#8594; /save-result</text><text fill="#534AB7" font-family="sans-serif" font-size="10" lengthAdjust="spacing" textLength="118" x="254" y="620.2822">(accessToken JWT &#53216;&#53412; &#48156;&#44553;)</text><polygon fill="#7F77DD" points="817,646.2813,827,650.2813,817,654.2813,821,650.2813" style="stroke:#7F77DD;stroke-width:1.0;"/><line style="stroke:#7F77DD;stroke-width:1.0;" x1="33.5" x2="823" y1="650.2813" y2="650.2813"/><text fill="#534AB7" font-family="sans-serif" font-size="10" lengthAdjust="spacing" textLength="39" x="411.75" y="645.9229">&#52852;&#52852;&#50724; &#47196;&#44536;&#51064;</text><polygon fill="#7F77DD" points="495.5,683.5625,485.5,687.5625,495.5,691.5625,491.5,687.5625" style="stroke:#7F77DD;stroke-width:1.0;"/><line style="stroke:#7F77DD;stroke-width:1.0;stroke-dasharray:2.0,2.0;" x1="489.5" x2="828" y1="687.5625" y2="687.5625"/><text fill="#534AB7" font-family="sans-serif" font-size="10" lengthAdjust="spacing" textLength="119" x="597.25" y="671.5635">GET /auth/kakao/callback</text><text fill="#534AB7" font-family="sans-serif" font-size="10" lengthAdjust="spacing" textLength="41" x="636.25" y="683.2041">{ code }</text><polygon fill="#7F77DD" points="817,709.2031,827,713.2031,817,717.2031,821,713.2031" style="stroke:#7F77DD;stroke-width:1.0;"/><line style="stroke:#7F77DD;stroke-width:1.0;" x1="484.5" x2="823" y1="713.2031" y2="713.2031"/><text fill="#534AB7" font-family="sans-serif" font-size="10" lengthAdjust="spacing" textLength="87" x="613.25" y="708.8447">&#53664;&#53360; &#44368;&#54872; &#48143; &#49324;&#50857;&#51088; &#51221;&#48372; &#51312;&#54924;</text><polygon fill="#7F77DD" points="495.5,734.8438,485.5,738.8438,495.5,742.8438,491.5,738.8438" style="stroke:#7F77DD;stroke-width:1.0;"/><line style="stroke:#7F77DD;stroke-width:1.0;stroke-dasharray:2.0,2.0;" x1="489.5" x2="828" y1="738.8438" y2="738.8438"/><text fill="#534AB7" font-family="sans-serif" font-size="10" lengthAdjust="spacing" textLength="54" x="629.75" y="734.4854">&#52852;&#52852;&#50724; &#49324;&#50857;&#51088; &#51221;&#48372;</text><path d="M417.5,753.8438 L481.5,753.8438 L481.5,759.8125 L471.5,769.8125 L417.5,769.8125 L417.5,753.8438 " fill="#EEEDFE" style="stroke:#534AB7;stroke-width:1.5;"/><rect fill="none" height="125.3359" style="stroke:#534AB7;stroke-width:1.5;" width="446.5" x="417.5" y="753.8438"/><text fill="#26215C" font-family="sans-serif" font-size="12" font-weight="bold" lengthAdjust="spacing" textLength="19" x="432.5" y="765.9824">alt</text><text fill="#3C3489" font-family="sans-serif" font-size="11" font-weight="bold" lengthAdjust="spacing" textLength="42" x="496.5" y="766.0542">[&#49888;&#44508; &#54924;&#50896;]</text><polygon fill="#7F77DD" points="735.5,795.0938,745.5,799.0938,735.5,803.0938,739.5,799.0938" style="stroke:#7F77DD;stroke-width:1.0;"/><line style="stroke:#7F77DD;stroke-width:1.0;" x1="484.5" x2="741.5" y1="799.0938" y2="799.0938"/><text fill="#534AB7" font-family="sans-serif" font-size="10" lengthAdjust="spacing" textLength="66" x="583" y="783.0947">INSERT users</text><text fill="#534AB7" font-family="sans-serif" font-size="10" lengthAdjust="spacing" textLength="145" x="543.5" y="794.7354">(kakao_id, nickname, coins=3)</text><path d="M752,812.0938 L752,833.0938 L854,833.0938 L854,822.0938 L844,812.0938 L752,812.0938 " fill="#F5F3FF" style="stroke:#AFA9EC;stroke-width:0.5;"/><path d="M844,812.0938 L844,822.0938 L854,822.0938 L844,812.0938 " fill="#F5F3FF" style="stroke:#AFA9EC;stroke-width:0.5;"/><text fill="#534AB7" font-family="sans-serif" font-size="10" lengthAdjust="spacing" textLength="81" x="758" y="826.376">&#44032;&#51077; &#49884; &#53076;&#51064; 3&#44060; &#52488;&#44592; &#51648;&#44553;</text><line style="stroke:#534AB7;stroke-width:1.0;stroke-dasharray:2.0,2.0;" x1="417.5" x2="864" y1="839.7344" y2="839.7344"/><text fill="#3C3489" font-family="sans-serif" font-size="11" font-weight="bold" lengthAdjust="spacing" textLength="42" x="422.5" y="849.9448">[&#44592;&#51316; &#54924;&#50896;]</text><polygon fill="#7F77DD" points="735.5,867.1797,745.5,871.1797,735.5,875.1797,739.5,871.1797" style="stroke:#7F77DD;stroke-width:1.0;"/><line style="stroke:#7F77DD;stroke-width:1.0;" x1="484.5" x2="741.5" y1="871.1797" y2="871.1797"/><text fill="#534AB7" font-family="sans-serif" font-size="10" lengthAdjust="spacing" textLength="167" x="532.5" y="866.8213">SELECT users WHERE kakao_id=?</text><polygon fill="#7F77DD" points="157.5,911.4609,147.5,915.4609,157.5,919.4609,153.5,915.4609" style="stroke:#7F77DD;stroke-width:1.0;"/><line style="stroke:#7F77DD;stroke-width:1.0;stroke-dasharray:2.0,2.0;" x1="151.5" x2="478.5" y1="915.4609" y2="915.4609"/><text fill="#534AB7" font-family="sans-serif" font-size="10" lengthAdjust="spacing" textLength="80" x="273" y="899.4619">302 &#8594; &#44208;&#44284; &#51200;&#51109; &#54168;&#51060;&#51648;</text><text fill="#534AB7" font-family="sans-serif" font-size="10" lengthAdjust="spacing" textLength="84" x="271" y="911.1025">(JSESSIONID &#48156;&#44553;)</text><rect fill="#EEEDFE" height="3" style="stroke:#EEEDFE;stroke-width:1.0;" width="883" x="0" y="943.4453"/><line style="stroke:#534AB7;stroke-width:1.0;" x1="0" x2="883" y1="943.4453" y2="943.4453"/><line style="stroke:#534AB7;stroke-width:1.0;" x1="0" x2="883" y1="946.4453" y2="946.4453"/><rect fill="#EEEDFE" height="21.9688" style="stroke:#534AB7;stroke-width:2.0;" width="75" x="404" y="933.4609"/><text fill="#3C3489" font-family="sans-serif" font-size="12" font-weight="bold" lengthAdjust="spacing" textLength="57" x="410" y="948.5996">&#50896;&#51216;&#49688; &#49436;&#48260; &#51204;&#49569;</text><line style="stroke:#7F77DD;stroke-width:1.0;" x1="146.5" x2="188.5" y1="994.7109" y2="994.7109"/><line style="stroke:#7F77DD;stroke-width:1.0;" x1="188.5" x2="188.5" y1="994.7109" y2="1007.7109"/><line style="stroke:#7F77DD;stroke-width:1.0;" x1="147.5" x2="188.5" y1="1007.7109" y2="1007.7109"/><polygon fill="#7F77DD" points="157.5,1003.7109,147.5,1007.7109,157.5,1011.7109,153.5,1007.7109" style="stroke:#7F77DD;stroke-width:1.0;"/><text fill="#534AB7" font-family="sans-serif" font-size="10" lengthAdjust="spacing" textLength="86" x="153.5" y="978.7119">sessionStorage&#50640;&#49436;</text><text fill="#534AB7" font-family="sans-serif" font-size="10" lengthAdjust="spacing" textLength="39" x="177" y="990.3525">&#50896;&#51216;&#49688; &#44732;&#45236;&#44592;</text><path d="M10,1022.7109 L74,1022.7109 L74,1028.6797 L64,1038.6797 L10,1038.6797 L10,1022.7109 " fill="#EEEDFE" style="stroke:#534AB7;stroke-width:1.5;"/><rect fill="none" height="449.5859" style="stroke:#534AB7;stroke-width:1.5;" width="770" x="10" y="1022.7109"/><text fill="#26215C" font-family="sans-serif" font-size="12" font-weight="bold" lengthAdjust="spacing" textLength="19" x="25" y="1034.8496">alt</text><text fill="#3C3489" font-family="sans-serif" font-size="11" font-weight="bold" lengthAdjust="spacing" textLength="159" x="89" y="1034.9214">[sessionStorage&#50640; &#50896;&#51216;&#49688; &#51080;&#51020;]</text><polygon fill="#7F77DD" points="343.5,1063.9609,353.5,1067.9609,343.5,1071.9609,347.5,1067.9609" style="stroke:#7F77DD;stroke-width:1.0;"/><line style="stroke:#7F77DD;stroke-width:1.0;" x1="146.5" x2="349.5" y1="1067.9609" y2="1067.9609"/><text fill="#534AB7" font-family="sans-serif" font-size="10" lengthAdjust="spacing" textLength="65" x="218.5" y="1051.9619">POST /results</text><text fill="#534AB7" font-family="sans-serif" font-size="10" lengthAdjust="spacing" textLength="157" x="172.5" y="1063.6025">{ testType, scores: { d, i, s, c } }</text><polygon fill="#7F77DD" points="573.5,1089.6016,583.5,1093.6016,573.5,1097.6016,577.5,1093.6016" style="stroke:#7F77DD;stroke-width:1.0;"/><line style="stroke:#7F77DD;stroke-width:1.0;" x1="365.5" x2="579.5" y1="1093.6016" y2="1093.6016"/><text fill="#534AB7" font-family="sans-serif" font-size="10" lengthAdjust="spacing" textLength="118" x="416.5" y="1089.2432">save(userId, rawScores)</text><line style="stroke:#7F77DD;stroke-width:1.0;" x1="595.5" x2="637.5" y1="1130.8828" y2="1130.8828"/><line style="stroke:#7F77DD;stroke-width:1.0;" x1="637.5" x2="637.5" y1="1130.8828" y2="1143.8828"/><line style="stroke:#7F77DD;stroke-width:1.0;" x1="596.5" x2="637.5" y1="1143.8828" y2="1143.8828"/><polygon fill="#7F77DD" points="606.5,1139.8828,596.5,1143.8828,606.5,1147.8828,602.5,1143.8828" style="stroke:#7F77DD;stroke-width:1.0;"/><text fill="#534AB7" font-family="sans-serif" font-size="10" lengthAdjust="spacing" textLength="33" x="625.5" y="1114.8838">&#48260;&#53431;&#44050; &#49328;&#52636;</text><text fill="#534AB7" font-family="sans-serif" font-size="10" lengthAdjust="spacing" textLength="79" x="602.5" y="1126.5244">(&#50896;&#51216;&#49688; &#8594; 9&#45800;&#44228; &#51221;&#44508;&#54868;)</text><polygon fill="#7F77DD" points="735.5,1188.8047,745.5,1192.8047,735.5,1196.8047,739.5,1192.8047" style="stroke:#7F77DD;stroke-width:1.0;"/><line style="stroke:#7F77DD;stroke-width:1.0;" x1="595.5" x2="741.5" y1="1192.8047" y2="1192.8047"/><text fill="#534AB7" font-family="sans-serif" font-size="10" lengthAdjust="spacing" textLength="87" x="628" y="1165.165">INSERT disc_tests</text><text fill="#534AB7" font-family="sans-serif" font-size="10" lengthAdjust="spacing" textLength="128" x="607.5" y="1176.8057">(userId, rater_type=SELF,</text><text fill="#534AB7" font-family="sans-serif" font-size="10" lengthAdjust="spacing" textLength="46" x="648.5" y="1188.4463">&#50896;&#51216;&#49688;, &#48260;&#53431;&#44050;)</text><polygon fill="#7F77DD" points="606.5,1214.4453,596.5,1218.4453,606.5,1222.4453,602.5,1218.4453" style="stroke:#7F77DD;stroke-width:1.0;"/><line style="stroke:#7F77DD;stroke-width:1.0;stroke-dasharray:2.0,2.0;" x1="600.5" x2="746.5" y1="1218.4453" y2="1218.4453"/><text fill="#534AB7" font-family="sans-serif" font-size="10" lengthAdjust="spacing" textLength="36" x="653.5" y="1214.0869">resultId</text><polygon fill="#7F77DD" points="376.5,1240.0859,366.5,1244.0859,376.5,1248.0859,372.5,1244.0859" style="stroke:#7F77DD;stroke-width:1.0;"/><line style="stroke:#7F77DD;stroke-width:1.0;stroke-dasharray:2.0,2.0;" x1="370.5" x2="589.5" y1="1244.0859" y2="1244.0859"/><text fill="#534AB7" font-family="sans-serif" font-size="10" lengthAdjust="spacing" textLength="36" x="460" y="1239.7275">resultId</text><polygon fill="#7F77DD" points="157.5,1277.3672,147.5,1281.3672,157.5,1285.3672,153.5,1281.3672" style="stroke:#7F77DD;stroke-width:1.0;"/><line style="stroke:#7F77DD;stroke-width:1.0;stroke-dasharray:2.0,2.0;" x1="151.5" x2="359.5" y1="1281.3672" y2="1281.3672"/><text fill="#534AB7" font-family="sans-serif" font-size="10" lengthAdjust="spacing" textLength="61" x="223" y="1265.3682">201 Created</text><text fill="#534AB7" font-family="sans-serif" font-size="10" lengthAdjust="spacing" textLength="54" x="226.5" y="1277.0088">{ resultId }</text><line style="stroke:#7F77DD;stroke-width:1.0;" x1="146.5" x2="188.5" y1="1330.2891" y2="1330.2891"/><line style="stroke:#7F77DD;stroke-width:1.0;" x1="188.5" x2="188.5" y1="1330.2891" y2="1343.2891"/><line style="stroke:#7F77DD;stroke-width:1.0;" x1="147.5" x2="188.5" y1="1343.2891" y2="1343.2891"/><polygon fill="#7F77DD" points="157.5,1339.2891,147.5,1343.2891,157.5,1347.2891,153.5,1343.2891" style="stroke:#7F77DD;stroke-width:1.0;"/><text fill="#534AB7" font-family="sans-serif" font-size="10" lengthAdjust="spacing" textLength="142" x="153.5" y="1302.6494">sessionStorage.removeItem(</text><text fill="#534AB7" font-family="sans-serif" font-size="10" lengthAdjust="spacing" textLength="56" x="199.5" y="1314.29">'disc_result'</text><text fill="#534AB7" font-family="sans-serif" font-size="10" lengthAdjust="spacing" textLength="4" x="222.5" y="1325.9307">)</text><polygon fill="#7F77DD" points="44.5,1376.5703,34.5,1380.5703,44.5,1384.5703,40.5,1380.5703" style="stroke:#7F77DD;stroke-width:1.0;"/><line style="stroke:#7F77DD;stroke-width:1.0;stroke-dasharray:2.0,2.0;" x1="38.5" x2="145.5" y1="1380.5703" y2="1380.5703"/><text fill="#534AB7" font-family="sans-serif" font-size="10" lengthAdjust="spacing" textLength="42" x="69" y="1364.5713">&#44208;&#44284; &#51200;&#51109; &#50756;&#47308;</text><text fill="#534AB7" font-family="sans-serif" font-size="10" lengthAdjust="spacing" textLength="89" x="45.5" y="1376.2119">(&#45769;&#45348;&#51076;&#51004;&#47196; &#51060;&#47492; &#44368;&#52404; &#47116;&#45908;&#47553;)</text><line style="stroke:#534AB7;stroke-width:1.0;stroke-dasharray:2.0,2.0;" x1="10" x2="780" y1="1389.5703" y2="1389.5703"/><text fill="#3C3489" font-family="sans-serif" font-size="11" font-weight="bold" lengthAdjust="spacing" textLength="159" x="15" y="1399.7808">[sessionStorage&#50640; &#50896;&#51216;&#49688; &#50630;&#51020;]</text><path d="M151,1408.375 L151,1441.375 L214,1441.375 L214,1418.375 L204,1408.375 L151,1408.375 " fill="#F5F3FF" style="stroke:#AFA9EC;stroke-width:0.5;"/><path d="M204,1408.375 L204,1418.375 L214,1418.375 L204,1408.375 " fill="#F5F3FF" style="stroke:#AFA9EC;stroke-width:0.5;"/><text fill="#534AB7" font-family="sans-serif" font-size="10" lengthAdjust="spacing" textLength="39" x="157" y="1422.6572">&#47196;&#44536;&#51064;&#47564; &#50756;&#47308;</text><text fill="#534AB7" font-family="sans-serif" font-size="10" lengthAdjust="spacing" textLength="42" x="157" y="1434.2979">&#44208;&#44284; &#51200;&#51109; &#49828;&#53429;</text><polygon fill="#7F77DD" points="44.5,1460.2969,34.5,1464.2969,44.5,1468.2969,40.5,1464.2969" style="stroke:#7F77DD;stroke-width:1.0;"/><line style="stroke:#7F77DD;stroke-width:1.0;stroke-dasharray:2.0,2.0;" x1="38.5" x2="145.5" y1="1464.2969" y2="1464.2969"/><text fill="#534AB7" font-family="sans-serif" font-size="10" lengthAdjust="spacing" textLength="54" x="63" y="1459.9385">&#47700;&#51064; &#54868;&#47732;&#51004;&#47196; &#51060;&#46041;</text><!--SRC=[dLPjJzjM5FxkNt6KVO18WG1fnugKLf04HajXQv3w1QaozeLw13kp7Jg6a2XA4ItPIYjOeKrOgZ5Q9APP9LtJYQh_PH_jw_-mS-t4BqaetGA2-Dxp-fpdd6DjGPBplCelmYmlBCohIa4MKqfEKU6BqM7smscUX4Zc-49E7rLaVP9V910PpkTp1B9f65Fqkv80aqI9WSRBMez6L6akqbatA_r8e7-WysN3zy2N0_sNKm4HZNnV8B90RX9Du-V9S4wQbq4WiavKBY26VtL9aFAyhCCA1p3IbfJpOJUAAXArSOfvNicayBGz1FUi6VDgq1alw2Zu7zmCZWuEfjDXDubKuj9NLrhSD9xqPOHtLic9ORzDB1pNmwggt6krxnm6d5nEN1eU6GnUk9xwy6X2cYCJaamw0-BTjcLuUJJXP3Y6f_cGikVDlMhLp6GowT5CyxeJ5Dw56sM_xqLSFZ-GjBGaOH3d-siAT8orSTaUJWXwMT79EHLlXd4XiJoNmJgW5vTE4UjzqNvUeY-s8y1hC5OWciu5QHsP93_elTzfCtAtLIzPbJFwtA3LjQWZdif9s1DX-Lj4m-PAeJDLoUM8wWWs3dKr5nOUBkXtMqITepP1rq2Mg4kIG08ciqi29_8wFyjhE25kBcU_dN1kqoESm6mAkgJ86aHky0ky0bFCk7FlF7DSCWaU062-MQFh9q0hJ-XM6P99ZdFWW9whZKHXo9FPAjE39rpZ60Ny157ecwdiDCHLvqYBQuAYaXbv1NGqDhsS9pYqs94s12iWna32vnW8i0ghNC1CJz3jG5yVJDrWHbJ-NjRHZi5iGLWWEdvHILvHTLJd7CAeqlnT7PIvPda0QB5ilIdYlpfzi0VMdtNBA9lrXtZJRU-Kh5zFh9rZi8nZ-aijoX5PT8Z71TBp0j5m82AYMUGEpiLUZUZZEbdidf41kaH94-wuMNV5sCbAA54ffiKmIo_kq2cipiXHtoEwTB5dY1lcwHdO-plMSGrP647ywVDZUh1jRUtHoXwOnYwjRjFAMczlRoJgrlHbsNnNfvKws2-AJGl8Mdhm-pbrxV9KxDqzyxGQLke2-txDElhZOaJeisq4UqP6Fh6WDlUGJX_CkX44iybmL1xB855uV8ulC49UKuaegKZQP5pZbqYF2oOc7NO2z6MD7ZWiXAO6s2NMdLXRksY0_VZ4tdqTRU63rrfmdjh-3gtKx4Trw-Y4FZh4BmxXZogeOJ_RHDY781w3O71uWxW1tQ_3FnjF8SwmnvnhrkDzdqbUnY5I9_e6N9rmhhmWOBRJoWAHuVhjQQ0Vg_Rw8RYKZGQAv_Rq4D3tDVQxT-ZNdNFlUZw9TbpWSpds7iBwIb140kvOb9PuHCq3om_UTsblLEtx1fXlj-rzR2ZZCNYiHChiMgSrh961SwLp87x4hMeOG4x7mbRDTsLmvnBReu4GqYDeO7mocxar3GLyyM6JsKddZeJ3H9Q41HdVbd2WA9Ai9HDHL0-p04SZuCSqaDaF70xH3pkiLnAcWTzhcqXNeA_Mt07XrP3aSCBY5NBl4u5bCnEPL2CmkFrrvbO6ci4bhp52S1UG8Toizi_OuZKC1fEydirai-DJa-DfZmiYQIyNw_z0zpKcNxL8DruwlVy_MjZy-ynQhpbTpAhJ9XxqTx19AoL4vdDMmsSk1G0loy0UnUFWjhZgBqIM4NPKDol2EDhoLaQqtHJRdn1GRR63sDdhxqpZAHBLe7yXAjr-hgnSLwojr-Of0tWN6Olp8zfgBiXNPqEmZ1bf_V3mhVgEZXWaaJsZiG3oCJy0PXTDzRG4w28vBeQzjg8Ua0fGnaUW1Slmvks7b4fGNdJMRyEIKvOsMyt2NBmuLRAeB97EkvDjGjz6-ofiz0RTBrg_bTXxsTP3gtX83ugqVDQSlaT5DfpecnfOrPBrquxrwZwEJgU7FqdVPnikVSzvaG1_n5glIeqGt74IZWsNn_hRuFZec91rx0mUTxS7edTt1_Sl]--></g></svg>