<?xml version="1.0" encoding="us-ascii" standalone="no"?><svg xmlns="http://www.w3.org/2000/svg" xmlns:xlink="http://www.w3.org/1999/xlink" contentStyleType="text/css" height="2190px" preserveAspectRatio="none" style="width:1051px;height:2190px;background:#FAFAFA;" version="1.1" viewBox="0 0 1051 2190" width="1051px" zoomAndPan="magnify"><defs/><g><rect fill="#FAFAFA" height="2190" style="stroke:none;stroke-width:1.0;" width="1051" x="0" y="0"/><!--cluster MyCPT ???--><g id="cluster_MyCPT &#49884;&#49828;&#53596;"><rect fill="#EEEDFE" height="1220" rx="2.5" ry="2.5" style="stroke:#534AB7;stroke-width:1.0;" width="939.5" x="106" y="530"/><text fill="#000000" font-family="sans-serif" font-size="14" font-weight="bold" lengthAdjust="spacing" textLength="89" x="531.25" y="548.2399">MyCPT &#49884;&#49828;&#53596;</text></g><!--cluster ?? ??--><g id="cluster_&#44277;&#53685; &#44592;&#45733;"><path d="M132.5,603 L188.5,603 A3.75,3.75 0 0 1 191,605.5 L198,629.2719 L430.5,629.2719 A2.5,2.5 0 0 1 433,631.7719 L433,993.5 A2.5,2.5 0 0 1 430.5,996 L132.5,996 A2.5,2.5 0 0 1 130,993.5 L130,605.5 A2.5,2.5 0 0 1 132.5,603 " fill="#EEF6FF" style="stroke:#534AB7;stroke-width:2.0;"/><line style="stroke:#534AB7;stroke-width:2.0;" x1="130" x2="198" y1="629.2719" y2="629.2719"/><text fill="#3C3489" font-family="sans-serif" font-size="14" font-weight="bold" lengthAdjust="spacing" textLength="55" x="134" y="621.2399">&#44277;&#53685; &#44592;&#45733;</text></g><!--cluster ?? ?? ??--><g id="cluster_&#54924;&#50896; &#51204;&#50857; &#44592;&#45733;"><path d="M473,827 L558,827 A3.75,3.75 0 0 1 560.5,829.5 L567.5,853.2719 L1019,853.2719 A2.5,2.5 0 0 1 1021.5,855.7719 L1021.5,1723.5 A2.5,2.5 0 0 1 1019,1726 L473,1726 A2.5,2.5 0 0 1 470.5,1723.5 L470.5,829.5 A2.5,2.5 0 0 1 473,827 " fill="#F0FDF4" style="stroke:#534AB7;stroke-width:2.0;"/><line style="stroke:#534AB7;stroke-width:2.0;" x1="470.5" x2="567.5" y1="853.2719" y2="853.2719"/><text fill="#3C3489" font-family="sans-serif" font-size="14" font-weight="bold" lengthAdjust="spacing" textLength="84" x="474.5" y="845.2399">&#54924;&#50896; &#51204;&#50857; &#44592;&#45733;</text></g><!--cluster ??? ??--><g id="cluster_&#49884;&#49828;&#53596; &#45236;&#48512;"><path d="M470.5,577 L539.5,577 A3.75,3.75 0 0 1 542,579.5 L549,603.2719 L779.5,603.2719 A2.5,2.5 0 0 1 782,605.7719 L782,800.5 A2.5,2.5 0 0 1 779.5,803 L470.5,803 A2.5,2.5 0 0 1 468,800.5 L468,579.5 A2.5,2.5 0 0 1 470.5,577 " fill="#FFF7ED" style="stroke:#534AB7;stroke-width:2.0;"/><line style="stroke:#534AB7;stroke-width:2.0;" x1="468" x2="549" y1="603.2719" y2="603.2719"/><text fill="#3C3489" font-family="sans-serif" font-size="14" font-weight="bold" lengthAdjust="spacing" textLength="68" x="472" y="595.2399">&#49884;&#49828;&#53596; &#45236;&#48512;</text></g><g id="elem_UC_Test"><ellipse cx="281.397" cy="952.0735" fill="#FFFFFF" rx="62.397" ry="27.5735" style="stroke:#AFA9EC;stroke-width:1.5;"/><text fill="#26215C" font-family="sans-serif" font-size="12" lengthAdjust="spacing" textLength="47" x="257.897" y="946.6175">&#44160;&#49324; &#51025;&#49884;</text><text fill="#26215C" font-family="sans-serif" font-size="12" lengthAdjust="spacing" textLength="72" x="245.397" y="963.9936">&#54943;&#49688; &#51228;&#54620; &#50630;&#51020;</text></g><g id="elem_UC_Result"><ellipse cx="281.72" cy="766.044" fill="#FFFFFF" rx="133.22" ry="29.044" style="stroke:#AFA9EC;stroke-width:1.5;"/><text fill="#26215C" font-family="sans-serif" font-size="12" lengthAdjust="spacing" textLength="47" x="258.22" y="760.588">&#44208;&#44284; &#54869;&#51064;</text><text fill="#26215C" font-family="sans-serif" font-size="12" lengthAdjust="spacing" textLength="182" x="190.72" y="777.9641">DISC &#48516;&#49437; &#183; &#44053;&#51216; &#183; &#50557;&#51216; &#46321; 6&#44060; &#49465;&#49496;</text></g><g id="elem_UC_Save"><ellipse cx="281.4698" cy="859.994" fill="#FFFFFF" rx="135.4698" ry="29.494" style="stroke:#AFA9EC;stroke-width:1.5;"/><text fill="#26215C" font-family="sans-serif" font-size="12" lengthAdjust="spacing" textLength="97" x="232.9698" y="854.5379">&#47196;&#44536;&#51064; &#54980; &#44208;&#44284; &#51200;&#51109;</text><text fill="#26215C" font-family="sans-serif" font-size="12" lengthAdjust="spacing" textLength="188" x="187.4698" y="871.9141">sessionStorage &#50896;&#51216;&#49688; &#8594; &#49436;&#48260; &#51204;&#49569;</text></g><g id="elem_UC_PeerAssess"><ellipse cx="281.4698" cy="671.994" fill="#FFFFFF" rx="135.4698" ry="29.494" style="stroke:#AFA9EC;stroke-width:1.5;"/><text fill="#26215C" font-family="sans-serif" font-size="12" lengthAdjust="spacing" textLength="72" x="245.4698" y="666.5379">&#53440;&#51064; &#54217;&#51221; &#51025;&#49884;</text><text fill="#26215C" font-family="sans-serif" font-size="12" lengthAdjust="spacing" textLength="188" x="187.4698" y="683.9141">&#47553;&#53356; &#51217;&#49549; &#8594; 24&#47928;&#54637; &#8594; &#54588;&#54217;&#51221;&#51088; &#44480;&#49549;</text></g><g id="elem_UC_Login"><ellipse cx="624.9989" cy="885.1998" fill="#FFFFFF" rx="83.9989" ry="19.1998" style="stroke:#AFA9EC;stroke-width:1.5;"/><text fill="#26215C" font-family="sans-serif" font-size="12" lengthAdjust="spacing" textLength="124" x="559.9989" y="889.4098">&#52852;&#52852;&#50724; &#47196;&#44536;&#51064; / &#47196;&#44536;&#50500;&#50883;</text></g><g id="elem_UC_Profile"><ellipse cx="624.8442" cy="1592.0735" fill="#FFFFFF" rx="116.8442" ry="27.5735" style="stroke:#AFA9EC;stroke-width:1.5;"/><text fill="#26215C" font-family="sans-serif" font-size="12" lengthAdjust="spacing" textLength="58" x="595.8442" y="1586.6175">&#54532;&#47196;&#54596; &#49444;&#51221;</text><text fill="#26215C" font-family="sans-serif" font-size="12" lengthAdjust="spacing" textLength="149" x="550.3442" y="1603.9936">&#45769;&#45348;&#51076; &#183; &#49373;&#45380; &#183; &#49457;&#48324; &#183; &#51060;&#48120;&#51648;</text></g><g id="elem_UC_History"><ellipse cx="624.9092" cy="1682.0735" fill="#FFFFFF" rx="103.4092" ry="27.5735" style="stroke:#AFA9EC;stroke-width:1.5;"/><text fill="#26215C" font-family="sans-serif" font-size="12" lengthAdjust="spacing" textLength="72" x="588.9092" y="1676.6175">&#44208;&#44284; &#51060;&#47141; &#51312;&#54924;</text><text fill="#26215C" font-family="sans-serif" font-size="12" lengthAdjust="spacing" textLength="130" x="559.9092" y="1693.9936">&#51088;&#44592; &#54217;&#51221; / &#53440;&#51064; &#54217;&#51221; &#44396;&#48516;</text></g><g id="elem_UC_Stats"><ellipse cx="625.0927" cy="968.9185" fill="#FFFFFF" rx="135.0927" ry="29.4185" style="stroke:#AFA9EC;stroke-width:1.5;"/><text fill="#26215C" font-family="sans-serif" font-size="12" lengthAdjust="spacing" textLength="47" x="601.5927" y="963.4625">&#53685;&#44228; &#48708;&#44368;</text><text fill="#26215C" font-family="sans-serif" font-size="12" lengthAdjust="spacing" textLength="187" x="531.5927" y="980.8386">&#45208;&#51060;&#45824; &#183; &#49457;&#48324; &#44592;&#51456; (&#51088;&#44592; &#54217;&#51221;&#47564; &#51665;&#44228;)</text></g><g id="elem_UC_Trend"><ellipse cx="624.93" cy="1061.0735" fill="#FFFFFF" rx="115.43" ry="27.5735" style="stroke:#AFA9EC;stroke-width:1.5;"/><text fill="#26215C" font-family="sans-serif" font-size="12" lengthAdjust="spacing" textLength="72" x="588.93" y="1055.6175">&#48320;&#54868; &#52628;&#51060; &#51312;&#54924;</text><text fill="#26215C" font-family="sans-serif" font-size="12" lengthAdjust="spacing" textLength="147" x="551.43" y="1072.9936">&#44592;&#44036;&#48324; &#51088;&#44592; &#54217;&#51221; &#54217;&#44512; &#48143; &#52628;&#51060;</text></g><g id="elem_UC_Code"><ellipse cx="625.0147" cy="1154.1029" fill="#FFFFFF" rx="138.5147" ry="30.1029" style="stroke:#AFA9EC;stroke-width:1.5;"/><text fill="#26215C" font-family="sans-serif" font-size="12" lengthAdjust="spacing" textLength="97" x="576.5147" y="1148.6469">&#46041;&#47308; &#52488;&#45824; &#53076;&#46300; &#49373;&#49457;</text><text fill="#26215C" font-family="sans-serif" font-size="12" lengthAdjust="spacing" textLength="196" x="527.0147" y="1166.023">&#45824;&#47928;&#51088;+&#49707;&#51088; 8&#51088;&#47532; &#183; &#45796;&#54924;&#50857; &#183; 7&#51068; &#44081;&#49888;</text></g><g id="elem_UC_ColleagueRegister"><ellipse cx="624.93" cy="1258.8603" fill="#FFFFFF" rx="115.43" ry="39.8603" style="stroke:#AFA9EC;stroke-width:1.5;"/><text fill="#26215C" font-family="sans-serif" font-size="12" lengthAdjust="spacing" textLength="86" x="581.93" y="1244.7162">&#46041;&#47308; &#52488;&#45824; &#48143; &#46321;&#47197;</text><text fill="#26215C" font-family="sans-serif" font-size="12" lengthAdjust="spacing" textLength="147" x="551.43" y="1262.0924">&#47553;&#53356; &#44277;&#50976; &#46608;&#45716; &#53076;&#46300; &#51649;&#51217; &#51077;&#47141;</text><text fill="#26215C" font-family="sans-serif" font-size="12" lengthAdjust="spacing" textLength="122" x="563.93" y="1279.4685">&#49688;&#46973; &#49884; &#50577;&#48169;&#54693; &#44288;&#44228; &#49373;&#49457;</text></g><g id="elem_UC_AssessLink"><ellipse cx="625.0219" cy="1373.8603" fill="#FFFFFF" rx="134.5219" ry="39.8603" style="stroke:#AFA9EC;stroke-width:1.5;"/><text fill="#26215C" font-family="sans-serif" font-size="12" lengthAdjust="spacing" textLength="97" x="576.5219" y="1359.7162">&#53440;&#51064; &#54217;&#51221; &#47553;&#53356; &#49373;&#49457;</text><text fill="#26215C" font-family="sans-serif" font-size="12" lengthAdjust="spacing" textLength="117" x="566.5219" y="1377.0924">'&#45208;&#45716; &#50612;&#46500; &#49324;&#46988;&#51064;&#44032;&#50836;?'</text><text fill="#26215C" font-family="sans-serif" font-size="12" lengthAdjust="spacing" textLength="174" x="538.0219" y="1394.4685">&#51068;&#54924;&#50857; &#53664;&#53360; &#183; 7&#51068; &#47564;&#47308; &#183; &#46972;&#48296; &#51077;&#47141;</text></g><g id="elem_UC_Compat"><ellipse cx="625.229" cy="1488.8603" fill="#FFFFFF" rx="135.229" ry="39.8603" style="stroke:#AFA9EC;stroke-width:1.5;"/><text fill="#26215C" font-family="sans-serif" font-size="12" lengthAdjust="spacing" textLength="108" x="571.229" y="1474.7162">&#46041;&#47308; &#52992;&#48120; &#48372;&#44256;&#49436; &#48156;&#54665;</text><text fill="#26215C" font-family="sans-serif" font-size="12" lengthAdjust="spacing" textLength="175" x="537.729" y="1492.0924">&#46041;&#47308; &#47785;&#47197;&#50640;&#49436; &#45824;&#49345; &#49440;&#53469; &#183; 6&#44060; &#49465;&#49496;</text><text fill="#26215C" font-family="sans-serif" font-size="12" lengthAdjust="spacing" textLength="154" x="548.229" y="1509.4685">@Async LLM &#183; SSE &#50756;&#47308; &#54392;&#49884;</text></g><g id="elem_UC_Notify"><ellipse cx="932.7965" cy="1586.0735" fill="#FFFFFF" rx="72.2965" ry="27.5735" style="stroke:#AFA9EC;stroke-width:1.5;"/><text fill="#26215C" font-family="sans-serif" font-size="12" lengthAdjust="spacing" textLength="72" x="896.7965" y="1580.6175">&#51064;&#50545; &#50508;&#47548; &#54869;&#51064;</text><text fill="#26215C" font-family="sans-serif" font-size="12" lengthAdjust="spacing" textLength="86" x="889.7965" y="1597.9936">&#53364;&#47533; &#49884; &#51593;&#49884; &#49325;&#51228;</text></g><g id="elem_UC_Cache"><ellipse cx="624.8858" cy="655.8603" fill="#FFFFFF" rx="140.8858" ry="39.8603" style="stroke:#AFA9EC;stroke-width:1.5;"/><text fill="#26215C" font-family="sans-serif" font-size="12" lengthAdjust="spacing" textLength="107" x="571.3858" y="641.7162">LLM &#52880;&#49884; &#51312;&#54924; / &#51200;&#51109;</text><text fill="#26215C" font-family="sans-serif" font-size="12" lengthAdjust="spacing" textLength="183" x="533.3858" y="659.0924">D &#183; I &#183; S &#183; C &#48260;&#53431; &#44592;&#48152; (9&#8308; = 6,561)</text><text fill="#26215C" font-family="sans-serif" font-size="12" lengthAdjust="spacing" textLength="167" x="541.3858" y="676.4685">&#50728;&#46356;&#47592;&#46300; &#47564;&#47308; &#183; &#54665; UPDATE &#44081;&#49888;</text></g><g id="elem_UC_CleanBatch"><ellipse cx="624.93" cy="759.0735" fill="#FFFFFF" rx="115.43" ry="27.5735" style="stroke:#AFA9EC;stroke-width:1.5;"/><text fill="#26215C" font-family="sans-serif" font-size="12" lengthAdjust="spacing" textLength="97" x="576.43" y="753.6175">&#47564;&#47308; &#46041;&#47308; &#53076;&#46300; &#49325;&#51228;</text><text fill="#26215C" font-family="sans-serif" font-size="12" lengthAdjust="spacing" textLength="147" x="551.43" y="770.9936">&#47564;&#47308; &#54217;&#51221; &#53664;&#53360; &#49325;&#51228; &#53685;&#54633; &#49892;&#54665;</text></g><!--entity Guest--><g id="elem_Guest"><ellipse cx="42.5" cy="782" fill="#FFFFFF" rx="8" ry="8" style="stroke:#7F77DD;stroke-width:0.5;"/><path d="M42.5,790 L42.5,817 M29.5,798 L55.5,798 M42.5,817 L29.5,832 M42.5,817 L55.5,832 " fill="none" style="stroke:#7F77DD;stroke-width:0.5;"/><text fill="#3C3489" font-family="sans-serif" font-size="13" font-weight="bold" lengthAdjust="spacing" textLength="36" x="24.5" y="848.58">&#48708;&#54924;&#50896;</text></g><!--entity Member--><g id="elem_Member"><ellipse cx="42.5" cy="2115" fill="#FFFFFF" rx="8" ry="8" style="stroke:#7F77DD;stroke-width:0.5;"/><path d="M42.5,2123 L42.5,2150 M29.5,2131 L55.5,2131 M42.5,2150 L29.5,2165 M42.5,2150 L55.5,2165 " fill="none" style="stroke:#7F77DD;stroke-width:0.5;"/><text fill="#3C3489" font-family="sans-serif" font-size="13" font-weight="bold" lengthAdjust="spacing" textLength="73" x="6" y="2181.58">&#54924;&#50896; (&#52852;&#52852;&#50724;)</text></g><!--entity Batch--><g id="elem_Batch"><ellipse cx="281.5" cy="1774" fill="#FFFFFF" rx="8" ry="8" style="stroke:#7F77DD;stroke-width:0.5;"/><path d="M281.5,1782 L281.5,1809 M268.5,1790 L294.5,1790 M281.5,1809 L268.5,1824 M281.5,1809 L294.5,1824 " fill="none" style="stroke:#7F77DD;stroke-width:0.5;"/><text fill="#3C3489" font-family="sans-serif" font-size="13" font-weight="bold" lengthAdjust="spacing" textLength="75" x="244" y="1840.58">&#48176;&#52824; &#49828;&#52992;&#51460;&#47084;</text></g><g id="elem_GMN45"><path d="M837.5,6 L837.5,88.3999 L1028.5,88.3999 L1028.5,16 L1018.5,6 L837.5,6 " fill="#F5F3FF" style="stroke:#AFA9EC;stroke-width:0.5;"/><path d="M1018.5,6 L1018.5,16 L1028.5,16 L1018.5,6 " fill="#F5F3FF" style="stroke:#AFA9EC;stroke-width:1.0;"/><text fill="#534AB7" font-family="sans-serif" font-size="10" lengthAdjust="spacing" textLength="138" x="843.5" y="22.6">&#52880;&#49884; &#48120;&#49828; &#8594; LLM &#54840;&#52636; &#8594; INSERT</text><text fill="#534AB7" font-family="sans-serif" font-size="10" lengthAdjust="spacing" textLength="118" x="843.5" y="37.08">&#52880;&#49884; &#55176;&#53944; + &#50976;&#54952; &#8594; &#51593;&#49884; &#48152;&#54872;</text><text fill="#534AB7" font-family="sans-serif" font-size="10" lengthAdjust="spacing" textLength="170" x="843.5" y="51.56">&#52880;&#49884; &#55176;&#53944; + &#47564;&#47308; &#8594; LLM &#54840;&#52636; &#8594; UPDATE</text><text fill="#534AB7" font-family="sans-serif" font-size="10" lengthAdjust="spacing" textLength="125" x="843.5" y="66.0399">&#48372;&#44256;&#49436; &#50896;&#47928;&#50640; &#51060;&#47492; &#48120;&#54252;&#54632; &#51200;&#51109;</text><text fill="#534AB7" font-family="sans-serif" font-size="10" lengthAdjust="spacing" textLength="78" x="843.5" y="80.5199">&#47116;&#45908;&#47553; &#49884; &#51060;&#47492; &#49341;&#51077;</text></g><g id="elem_GMN48"><path d="M826,432 L826,514.3999 L1040,514.3999 L1040,442 L1030,432 L826,432 " fill="#F5F3FF" style="stroke:#AFA9EC;stroke-width:0.5;"/><path d="M1030,432 L1030,442 L1040,442 L1030,432 " fill="#F5F3FF" style="stroke:#AFA9EC;stroke-width:1.0;"/><text fill="#534AB7" font-family="sans-serif" font-size="10" lengthAdjust="spacing" textLength="171" x="832" y="448.6">&#52880;&#49905; &#50630;&#51060; &#47588;&#48264; &#49892;&#49884;&#44036; LLM &#54840;&#52636; (@Async)</text><text fill="#534AB7" font-family="sans-serif" font-size="10" lengthAdjust="spacing" textLength="161" x="832" y="463.08">&#48156;&#54665; &#51593;&#49884; 202 &#48152;&#54872; &#8594; &#50756;&#47308; &#49884; SSE &#54392;&#49884;</text><text fill="#534AB7" font-family="sans-serif" font-size="10" lengthAdjust="spacing" textLength="193" x="832" y="477.56">DISC &#48260;&#53431; &#49828;&#45253;&#49399; &#48120;&#51200;&#51109; (&#48372;&#44256;&#49436; &#53581;&#49828;&#53944;&#47196; &#52649;&#48516;)</text><text fill="#534AB7" font-family="sans-serif" font-size="10" lengthAdjust="spacing" textLength="98" x="832" y="492.0399">&#53076;&#51064; &#52649;&#51204;: &#52488;&#44592; 3&#44060; &#51648;&#44553;</text><text fill="#534AB7" font-family="sans-serif" font-size="10" lengthAdjust="spacing" textLength="154" x="832" y="506.5199">&#51060;&#54980; 24h&#47560;&#45796; +1 (&#50728;&#46356;&#47592;&#46300;), &#52572;&#45824; 3&#44060;</text></g><g id="elem_GMN51"><path d="M869,211.5 L869,264.94 L997,264.94 L997,221.5 L987,211.5 L869,211.5 " fill="#F5F3FF" style="stroke:#AFA9EC;stroke-width:0.5;"/><path d="M987,211.5 L987,221.5 L997,221.5 L987,211.5 " fill="#F5F3FF" style="stroke:#AFA9EC;stroke-width:1.0;"/><text fill="#534AB7" font-family="sans-serif" font-size="10" lengthAdjust="spacing" textLength="96" x="875" y="228.1">&#48372;&#50504;: 7&#51068; &#51452;&#44592; &#44081;&#49888;&#51004;&#47196;</text><text fill="#534AB7" font-family="sans-serif" font-size="10" lengthAdjust="spacing" textLength="107" x="875" y="242.58">&#53076;&#46300; &#50976;&#52628;&#47484; &#53685;&#54620; &#53440;&#51064; &#49457;&#54693;</text><text fill="#534AB7" font-family="sans-serif" font-size="10" lengthAdjust="spacing" textLength="38" x="875" y="257.06">&#50676;&#46988; &#48169;&#51648;</text></g><g id="elem_GMN54"><path d="M861,299.5 L861,396.3799 L1005,396.3799 L1005,309.5 L995,299.5 L861,299.5 " fill="#F5F3FF" style="stroke:#AFA9EC;stroke-width:0.5;"/><path d="M995,299.5 L995,309.5 L1005,309.5 L995,299.5 " fill="#F5F3FF" style="stroke:#AFA9EC;stroke-width:1.0;"/><text fill="#534AB7" font-family="sans-serif" font-size="10" lengthAdjust="spacing" textLength="94" x="867" y="316.1">&#51068;&#54924;&#50857; &#53664;&#53360; (CHAR 32)</text><text fill="#534AB7" font-family="sans-serif" font-size="10" lengthAdjust="spacing" textLength="38" x="867" y="330.58">&#47564;&#47308;: 7&#51068;</text><text fill="#534AB7" font-family="sans-serif" font-size="10" lengthAdjust="spacing" textLength="114" x="867" y="345.06">used=TRUE &#49884; &#51116;&#51217;&#49549; &#52264;&#45800;</text><text fill="#534AB7" font-family="sans-serif" font-size="10" lengthAdjust="spacing" textLength="96" x="867" y="359.5399">&#46972;&#48296;&#47196; &#54217;&#51221;&#51088; &#49885;&#48324; &#44032;&#45733;</text><text fill="#534AB7" font-family="sans-serif" font-size="10" lengthAdjust="spacing" textLength="114" x="867" y="374.0199">&#44208;&#44284;&#45716; &#54588;&#54217;&#51221;&#51088; &#44228;&#51221;&#50640; &#44480;&#49549;</text><text fill="#534AB7" font-family="sans-serif" font-size="10" lengthAdjust="spacing" textLength="123" x="867" y="388.4999">&#45572;&#44032; &#54217;&#51221;&#54664;&#45716;&#51648; &#51200;&#51109;&#54616;&#51648; &#50506;&#51020;</text></g><g id="elem_GMN57"><path d="M139,446 L139,513.9199 L424,513.9199 L424,456 L414,446 L139,446 " fill="#F5F3FF" style="stroke:#AFA9EC;stroke-width:0.5;"/><path d="M414,446 L414,456 L424,456 L414,446 " fill="#F5F3FF" style="stroke:#AFA9EC;stroke-width:1.0;"/><text fill="#534AB7" font-family="sans-serif" font-size="10" lengthAdjust="spacing" textLength="264" x="145" y="462.6">&#48708;&#54924;&#50896;: DISC &#50896;&#51216;&#49688;&#47484; &#53364;&#46972;&#51060;&#50616;&#53944; sessionStorage&#50640; &#51076;&#49884; &#48372;&#44288;</text><text fill="#534AB7" font-family="sans-serif" font-size="10" lengthAdjust="spacing" textLength="122" x="145" y="477.08">&#49436;&#48260; &#49464;&#49496; &#48120;&#48156;&#44553; (&#54540;&#47084;&#46377; &#48169;&#50612;)</text><text fill="#534AB7" font-family="sans-serif" font-size="10" lengthAdjust="spacing" textLength="163" x="145" y="491.56">&#47196;&#44536;&#51064; &#54980; &#50896;&#51216;&#49688;&#47484; &#49436;&#48260;&#47196; &#51204;&#49569;&#54616;&#50668; &#51200;&#51109;</text><text fill="#534AB7" font-family="sans-serif" font-size="10" lengthAdjust="spacing" textLength="176" x="145" y="506.0399">&#53685;&#44228; &#48152;&#50689; &#48143; &#44208;&#44284; &#51200;&#51109;&#51008; &#47196;&#44536;&#51064; &#54980;&#50640;&#47564; &#44032;&#45733;</text></g><g id="elem_GMN60"><path d="M179.5,357.5 L179.5,410.94 L383.5,410.94 L383.5,367.5 L373.5,357.5 L179.5,357.5 " fill="#F5F3FF" style="stroke:#AFA9EC;stroke-width:0.5;"/><path d="M373.5,357.5 L373.5,367.5 L383.5,367.5 L373.5,357.5 " fill="#F5F3FF" style="stroke:#AFA9EC;stroke-width:1.0;"/><text fill="#534AB7" font-family="sans-serif" font-size="10" lengthAdjust="spacing" textLength="145" x="185.5" y="374.1">sessionStorage&#51032; DISC &#50896;&#51216;&#49688;&#47484;</text><text fill="#534AB7" font-family="sans-serif" font-size="10" lengthAdjust="spacing" textLength="95" x="185.5" y="388.58">POST /results &#47196; &#51204;&#49569;</text><text fill="#534AB7" font-family="sans-serif" font-size="10" lengthAdjust="spacing" textLength="183" x="185.5" y="403.06">&#49436;&#48260;&#44032; &#48260;&#53431;&#44050; &#49328;&#52636; &#54980; test_results INSERT</text></g><g id="elem_GMN63"><path d="M836,123.5 L836,176.94 L1030,176.94 L1030,133.5 L1020,123.5 L836,123.5 " fill="#F5F3FF" style="stroke:#AFA9EC;stroke-width:0.5;"/><path d="M1020,123.5 L1020,133.5 L1030,133.5 L1020,123.5 " fill="#F5F3FF" style="stroke:#AFA9EC;stroke-width:1.0;"/><text fill="#534AB7" font-family="sans-serif" font-size="10" lengthAdjust="spacing" textLength="129" x="842" y="140.1">&#49373;&#45380;/&#49457;&#48324; &#51077;&#47141; &#54924;&#50896;&#47564; &#48708;&#44368; &#44032;&#45733;</text><text fill="#534AB7" font-family="sans-serif" font-size="10" lengthAdjust="spacing" textLength="164" x="842" y="154.58">&#48120;&#51077;&#47141; &#49884; "&#51221;&#48372; &#51077;&#47141;&#54616;&#44256; &#48708;&#44368;&#54616;&#44592;" &#50504;&#45236;</text><text fill="#534AB7" font-family="sans-serif" font-size="10" lengthAdjust="spacing" textLength="173" x="842" y="169.06">&#51088;&#44592; &#54217;&#51221;(rater_type=SELF) &#44208;&#44284;&#47564; &#51665;&#44228;</text></g><!--link Guest to UC_Test--><g id="link_Guest_UC_Test"><path d="M48.5,852.66 C48.5,890.84 48.5,942.83 48.5,942.83 C48.5,942.83 147.37,942.83 216.4,942.83 " fill="none" id="Guest-to-UC_Test" style="stroke:#7F77DD;stroke-width:1.0;"/><polygon fill="#7F77DD" points="222.4,942.83,213.4,938.83,217.4,942.83,213.4,946.83,222.4,942.83" style="stroke:#7F77DD;stroke-width:1.0;"/></g><!--link Guest to UC_Result--><g id="link_Guest_UC_Result"><path d="M60.86,784.25 C86.11,784.25 127.49,784.25 171.89,784.25 " fill="none" id="Guest-to-UC_Result" style="stroke:#7F77DD;stroke-width:1.0;"/><polygon fill="#7F77DD" points="177.89,784.25,168.89,780.25,172.89,784.25,168.89,788.25,177.89,784.25" style="stroke:#7F77DD;stroke-width:1.0;"/></g><!--link Guest to UC_Save--><g id="link_Guest_UC_Save"><path d="M60.86,841.5 C85.72,841.5 126.06,841.5 169.87,841.5 " fill="none" id="Guest-to-UC_Save" style="stroke:#7F77DD;stroke-width:1.0;"/><polygon fill="#7F77DD" points="175.87,841.5,166.87,837.5,170.87,841.5,166.87,845.5,175.87,841.5" style="stroke:#7F77DD;stroke-width:1.0;"/></g><!--link Guest to UC_PeerAssess--><g id="link_Guest_UC_PeerAssess"><path d="M42.5,773.35 C42.5,731.64 42.5,672 42.5,672 C42.5,672 86,672 139.94,672 " fill="none" id="Guest-to-UC_PeerAssess" style="stroke:#7F77DD;stroke-width:1.0;"/><polygon fill="#7F77DD" points="145.94,672,136.94,668,140.94,672,136.94,676,145.94,672" style="stroke:#7F77DD;stroke-width:1.0;"/></g><!--link Member to UC_Test--><g id="link_Member_UC_Test"><path d="M63.5,2106.24 C63.5,1899.96 63.5,961.17 63.5,961.17 C63.5,961.17 151.94,961.17 216.51,961.17 " fill="none" id="Member-to-UC_Test" style="stroke:#7F77DD;stroke-width:1.0;"/><polygon fill="#7F77DD" points="222.51,961.17,213.51,957.17,217.51,961.17,213.51,965.17,222.51,961.17" style="stroke:#7F77DD;stroke-width:1.0;"/></g><!--link Member to UC_Result--><g id="link_Member_UC_Result"><path d="M15.5,2106.25 C15.5,1879.07 15.5,755.25 15.5,755.25 C15.5,755.25 82.38,755.25 151.84,755.25 " fill="none" id="Member-to-UC_Result" style="stroke:#7F77DD;stroke-width:1.0;"/><polygon fill="#7F77DD" points="157.84,755.25,148.84,751.25,152.84,755.25,148.84,759.25,157.84,755.25" style="stroke:#7F77DD;stroke-width:1.0;"/></g><!--link Member to UC_Login--><g id="link_Member_UC_Login"><path d="M36.5,2106.2 C36.5,1893.11 36.5,896.75 36.5,896.75 C36.5,896.75 399.18,896.75 552.92,896.75 " fill="none" id="Member-to-UC_Login" style="stroke:#7F77DD;stroke-width:1.0;"/><polygon fill="#7F77DD" points="558.92,896.75,549.92,892.75,553.92,896.75,549.92,900.75,558.92,896.75" style="stroke:#7F77DD;stroke-width:1.0;"/></g><!--link Member to UC_Profile--><g id="link_Member_UC_Profile"><path d="M75.5,2106.16 C75.5,1979.13 75.5,1592 75.5,1592 C75.5,1592 340.41,1592 501.79,1592 " fill="none" id="Member-to-UC_Profile" style="stroke:#7F77DD;stroke-width:1.0;"/><polygon fill="#7F77DD" points="507.79,1592,498.79,1588,502.79,1592,498.79,1596,507.79,1592" style="stroke:#7F77DD;stroke-width:1.0;"/></g><!--link Member to UC_History--><g id="link_Member_UC_History"><path d="M77.5,2106.44 C77.5,1994.23 77.5,1682 77.5,1682 C77.5,1682 356.65,1682 515.38,1682 " fill="none" id="Member-to-UC_History" style="stroke:#7F77DD;stroke-width:1.0;"/><polygon fill="#7F77DD" points="521.38,1682,512.38,1678,516.38,1682,512.38,1686,521.38,1682" style="stroke:#7F77DD;stroke-width:1.0;"/></g><!--link Member to UC_Stats--><g id="link_Member_UC_Stats"><path d="M65.5,2106.17 C65.5,1902.73 65.5,989 65.5,989 C65.5,989 358.84,989 519.62,989 " fill="none" id="Member-to-UC_Stats" style="stroke:#7F77DD;stroke-width:1.0;"/><polygon fill="#7F77DD" points="525.62,989,516.62,985,520.62,989,516.62,993,525.62,989" style="stroke:#7F77DD;stroke-width:1.0;"/></g><!--link Member to UC_Trend--><g id="link_Member_UC_Trend"><path d="M67.5,2106.42 C67.5,1911.29 67.5,1061 67.5,1061 C67.5,1061 340.19,1061 503.49,1061 " fill="none" id="Member-to-UC_Trend" style="stroke:#7F77DD;stroke-width:1.0;"/><polygon fill="#7F77DD" points="509.49,1061,500.49,1057,504.49,1061,500.49,1065,509.49,1061" style="stroke:#7F77DD;stroke-width:1.0;"/></g><!--link Member to UC_Code--><g id="link_Member_UC_Code"><path d="M69.5,2106.19 C69.5,1921.15 69.5,1154 69.5,1154 C69.5,1154 315.72,1154 480.26,1154 " fill="none" id="Member-to-UC_Code" style="stroke:#7F77DD;stroke-width:1.0;"/><polygon fill="#7F77DD" points="486.26,1154,477.26,1150,481.26,1154,477.26,1158,486.26,1154" style="stroke:#7F77DD;stroke-width:1.0;"/></g><!--link Member to UC_ColleagueRegister--><g id="link_Member_UC_ColleagueRegister"><path d="M71.5,2106.45 C71.5,1934.32 71.5,1259 71.5,1259 C71.5,1259 341.05,1259 503.31,1259 " fill="none" id="Member-to-UC_ColleagueRegister" style="stroke:#7F77DD;stroke-width:1.0;"/><polygon fill="#7F77DD" points="509.31,1259,500.31,1255,504.31,1259,500.31,1263,509.31,1259" style="stroke:#7F77DD;stroke-width:1.0;"/></g><!--link Member to UC_AssessLink--><g id="link_Member_UC_AssessLink"><path d="M73.5,2106.39 C73.5,1948.69 73.5,1374 73.5,1374 C73.5,1374 321.18,1374 484.44,1374 " fill="none" id="Member-to-UC_AssessLink" style="stroke:#7F77DD;stroke-width:1.0;"/><polygon fill="#7F77DD" points="490.44,1374,481.44,1370,485.44,1374,481.44,1378,490.44,1374" style="stroke:#7F77DD;stroke-width:1.0;"/></g><!--link Member to UC_Compat--><g id="link_Member_UC_Compat"><path d="M79.13,2132.83 C187.57,2132.83 499.5,2132.83 499.5,2132.83 C499.5,2132.83 499.5,1606.64 499.5,1509.97 " fill="none" id="Member-to-UC_Compat" style="stroke:#7F77DD;stroke-width:1.0;"/><polygon fill="#7F77DD" points="499.5,1503.97,495.5,1512.97,499.5,1508.97,503.5,1512.97,499.5,1503.97" style="stroke:#7F77DD;stroke-width:1.0;"/><text fill="#534AB7" font-family="sans-serif" font-size="10" lengthAdjust="spacing" textLength="55" x="443.5" y="2041.19">&#53076;&#51064; 1&#44060; &#49548;&#47784;</text></g><!--link Member to UC_Notify--><g id="link_Member_UC_Notify"><path d="M79.09,2159.17 C246.75,2159.17 933.5,2159.17 933.5,2159.17 C933.5,2159.17 933.5,1734.14 933.5,1619.65 " fill="none" id="Member-to-UC_Notify" style="stroke:#7F77DD;stroke-width:1.0;"/><polygon fill="#7F77DD" points="933.5,1613.65,929.5,1622.65,933.5,1618.65,937.5,1622.65,933.5,1613.65" style="stroke:#7F77DD;stroke-width:1.0;"/></g><!--link Batch to UC_CleanBatch--><g id="link_Batch_UC_CleanBatch"><path d="M319.42,1805 C373.02,1805 464.5,1805 464.5,1805 C464.5,1805 464.5,770 464.5,770 C464.5,770 482.99,770 512.84,770 " fill="none" id="Batch-to-UC_CleanBatch" style="stroke:#7F77DD;stroke-width:1.0;"/><polygon fill="#7F77DD" points="518.84,770,509.84,766,513.84,770,509.84,774,518.84,770" style="stroke:#7F77DD;stroke-width:1.0;"/><text fill="#534AB7" font-family="sans-serif" font-size="10" lengthAdjust="spacing" textLength="47" x="416.5" y="1345.47">&#51452;&#44592;&#51201; &#49892;&#54665;</text></g><!--link UC_Result to UC_Cache--><g id="link_UC_Result_UC_Cache"><path d="M401.57,753.5 C452.58,753.5 500.5,753.5 500.5,753.5 C500.5,753.5 500.5,709.13 500.5,680.8 " fill="none" id="UC_Result-to-UC_Cache" style="stroke:#7F77DD;stroke-width:1.0;stroke-dasharray:7.0,7.0;"/><polygon fill="#7F77DD" points="500.5,674.8,496.5,683.8,500.5,679.8,504.5,683.8,500.5,674.8" style="stroke:#7F77DD;stroke-width:1.0;"/><text fill="#534AB7" font-family="sans-serif" font-size="10" lengthAdjust="spacing" textLength="45" x="444.39" y="766.1">&#171;include&#187;</text></g><!--link UC_Save to UC_Login--><g id="link_UC_Save_UC_Login"><path d="M390.19,877.75 C441.19,877.75 494.81,877.75 541.22,877.75 " fill="none" id="UC_Save-to-UC_Login" style="stroke:#7F77DD;stroke-width:1.0;stroke-dasharray:7.0,7.0;"/><polygon fill="#7F77DD" points="547.22,877.75,538.22,873.75,542.22,877.75,538.22,881.75,547.22,877.75" style="stroke:#7F77DD;stroke-width:1.0;"/><text fill="#534AB7" font-family="sans-serif" font-size="10" lengthAdjust="spacing" textLength="45" x="422.7" y="890.35">&#171;include&#187;</text></g><!--link UC_Compat to UC_Notify--><g id="link_UC_Compat_UC_Notify"><path d="M751.5,1503.33 C751.5,1530.98 751.5,1589 751.5,1589 C751.5,1589 804.13,1589 854.74,1589 " fill="none" id="UC_Compat-to-UC_Notify" style="stroke:#7F77DD;stroke-width:1.0;stroke-dasharray:7.0,7.0;"/><polygon fill="#7F77DD" points="860.74,1589,851.74,1585,855.74,1589,851.74,1593,860.74,1589" style="stroke:#7F77DD;stroke-width:1.0;"/><text fill="#534AB7" font-family="sans-serif" font-size="10" lengthAdjust="spacing" textLength="45" x="764.29" y="1601.6">&#171;include&#187;</text></g><!--link UC_Cache to GMN45--><g id="link_UC_Cache_GMN45"><path d="M625.5,615.57 C625.5,479.55 625.5,47 625.5,47 C625.5,47 747.12,47 837.39,47 " fill="none" id="UC_Cache-GMN45" style="stroke:#7F77DD;stroke-width:1.0;stroke-dasharray:7.0,7.0;"/></g><!--link UC_Compat to GMN48--><g id="link_UC_Compat_GMN48"><path d="M760.27,1489 C804.97,1489 843.5,1489 843.5,1489 C843.5,1489 843.5,704.16 843.5,514.09 " fill="none" id="UC_Compat-GMN48" style="stroke:#7F77DD;stroke-width:1.0;stroke-dasharray:7.0,7.0;"/></g><!--link UC_Code to GMN51--><g id="link_UC_Code_GMN51"><path d="M763.84,1154 C783.12,1154 796.5,1154 796.5,1154 C796.5,1154 796.5,238 796.5,238 C796.5,238 833.34,238 868.75,238 " fill="none" id="UC_Code-GMN51" style="stroke:#7F77DD;stroke-width:1.0;stroke-dasharray:7.0,7.0;"/></g><!--link UC_AssessLink to GMN54--><g id="link_UC_AssessLink_GMN54"><path d="M759.55,1374 C788.96,1374 811.5,1374 811.5,1374 C811.5,1374 811.5,377 811.5,377 C811.5,377 834.76,377 860.92,377 " fill="none" id="UC_AssessLink-GMN54" style="stroke:#7F77DD;stroke-width:1.0;stroke-dasharray:7.0,7.0;"/></g><!--link UC_Test to GMN57--><g id="link_UC_Test_GMN57"><path d="M324.72,932 C365.52,932 420.5,932 420.5,932 C420.5,932 420.5,619.83 420.5,514.34 " fill="none" id="UC_Test-GMN57" style="stroke:#7F77DD;stroke-width:1.0;stroke-dasharray:7.0,7.0;"/></g><!--link UC_Save to GMN60--><g id="link_UC_Save_GMN60"><path d="M405.87,848.25 C428.18,848.25 444.5,848.25 444.5,848.25 C444.5,848.25 444.5,403.5 444.5,403.5 C444.5,403.5 416.55,403.5 383.8,403.5 " fill="none" id="UC_Save-GMN60" style="stroke:#7F77DD;stroke-width:1.0;stroke-dasharray:7.0,7.0;"/></g><!--link UC_Stats to GMN63--><g id="link_UC_Stats_GMN63"><path d="M760.07,969 C773.05,969 781.5,969 781.5,969 C781.5,969 781.5,150 781.5,150 C781.5,150 806.26,150 835.77,150 " fill="none" id="UC_Stats-GMN63" style="stroke:#7F77DD;stroke-width:1.0;stroke-dasharray:7.0,7.0;"/></g><!--SRC=[bLTRJnlN5dxthzXo7mfAcWHpQw8cFSJORIJI4s7oXXGvPW9Md9d87bhHeqfZ6901Hu5J6mongQEQMqjq1Z31gPoN_fG-pjxp7xhMtdl6dWaXfoI2cNrPwrjhVUio6UM9JdIDPDFJCpgPIcULb9xMr53kQLfzdimcdv77oTJJwQmsgqv5jOoM9P_5H_1VgEj8CgN3ndz2XDpzu33_mHqjEwLavUfmV7XuT1HMuvggoxN-QF_0bpVbMYBzeqBw-jqtVIwZaCTQPYhqKxVUsPoIIkQKVw8PaD-CHVsQ8qEHli6eJtF4kpSnaquzLPLSZlHT6uJLaMnM-o5e1b_iaZZOFp1oTxXxGuYzuSV_730dfp-2FnQBZSPZGVoUv22wo2UzEV09RwgQ_Z5N3iRx_pzNUl0-QdCchIhwt7E5Q5bzHWk517V2z9tfR1VPgxKmIUR8DxDAJdUtn3hfOU-Q-B_IwELdxYlF7YjPxxvbiNSLmbOQh6smXab_EUAdxYRrr4meXBHEgjDWT_Z-NFJ1166hLJZhB5R3O3BWTKCHja_FdAKpOhSikh8RnZ34X-9nxXVY4IvidnXi_eYmsZe8cbITxLzO0RJNgqwvIjZc4giLkVg7qKSJQ4hWicMVjecpLMQrrgGwUYyH9VIjoSmQ-VESs5QPrTVmYPNVunFz-PWCsHR8DT-nnOehTrp9pMO2akdhgdtU0gd4UMKIgOVL3RQpEwdcW2QGsWdm5reAFWNf2FklfV-2x2ezCU6ioPPUkoeIoUyLlm9dmU3INowpUjapd-xddJnuexxEbbvmSP41UjHooc_uYrDgYmjiPutOvmOSSZKyK9JiI0wHWPwVV86GOKT4suUTUCHln4VZ0y5uUDmW7HTSTv_B9dkru6eSqwRJQi2eaWaddJAORpO09XYqkapXSSVaOLYeqKNnP1xJK_5KQzB_jTY-uHcIrPwaCyg5WSR3zLt2NbjWqwGANW1hN1zU9twVscT7m0LNxBVf78HhBe1twSm6690ozjaQW9sle8QYqGKH5B260JdJhOlk5mdRNuUxlLw4zQIU2t3er72sIeIzBO5K3pH8iIqJHVlXmn_xl4wezLBUy6YVLTIfWEINM_HNWD0i85ZslaH_hg9t0JDOKJI0CY3y2YlyZaJv4dxHlICqYgusa0r00tWPPhKs9CanMwsxkgBQb7APAaG7MKHVrpokGfgpAk2khD6LaeTbFmyS1WiN8LuGg4A5rjvZgI1iOvrQXyx6Bh6R1ZfVmEu0o6IKvFIiCgvCGyIWB5sIDMwsICC_X_Xn31jDkj4WK5ReJX6EsvR1jajVVmuuQcrflhDKT_AMvmK8A5g97ggrwSc1HEwY4earbbQVNkoSjW4S9lIqQP_M8V_1JLLdOnbS9FRfRuVWCRQvnlUA1bl80xtgpW8lKrqLQLBzrqXkJasHiR7xk9L8n0ZRCb66izu2ztNSzEnvCb2om59MFePQLwHxdPhev9jqxurm_Tuo_pF_1ighA-axJKy_cVkWPdXLdT3v9drhXFaOC1mR3TOBHCh-MEE2ESCX3zqwEOestEE6u2-epIUcCt_EIv1L8Jqt_yetoMqoT7LmgAyNebCveAKItJz01dKY0fua3n-CZap4WcHDfcQ2R1MttBX8CdA3aR1yqyqtmG2n2MzdJlaGtDG0TPu2eA8g-Xxw1pp4soaXNtnnnsj8_YNPI_oBlFhxbxhATKZqNvzG_v8KwbyKvTU_vjPE_wfR-lohec05TFDIur_Z9I6u54nI_tvNkWGl8cq9_xc5uS5axkFyNohItmu2noKtGpm4dkiwKK4PlxQnGjVpCdIXaESlSktQ7OycgE-hhz9gAZCxfTov4v9H0Hpo57Vd1QSaP7bA80gS2l5vJypzsfDkPih4m0Qtqk0T7DF5gRJOsof_lVTT8ZO-qJdfx1ISbHQvGg2aEji7Og0GQGiPusnLBZWgQNs1T94rSALJcM0GmEQmkSPxwPw9s9oNHqxvG6OjdguNwGl8mxoe6k8SctyFDJ44_E3ZxKL6kpM90pmMmriJu3NeIG730zAWytM3x17bhXULyfBf6Xkv4P462nU86eWxM195BOHBOk0JHGKyJ1SMsS8vTpUtXVHq37SMNs11Msd1W08DzX160rGhEGWBC1xTmZQ7BRcVKtBVi5lBUARMn24mCZ13zmlGGScLFfW7kefLxrN2pghO7_7YvJxY_HLWiNBXbkWzWiAojh5g6m0AOBnsLUim3T3TjgXGLNV6WOO7FHJFRJQXou6p3W7lPQfzFUo3HjWJ_NPadFH7U2WueGIw42-kKxSdnX_611rsZkHqogm3kdg0vtdBHBzsXbEsMkFJasN0i0bdn027tTa_mvwQ-BJfJhCehM32BIdAsIZ07R1CijCfL_XBUGM-2uBMFjPqNNicpPKV2zxNq2r15czMvow5tbXhGtZPHWjpoJ_NyoJPCNdk0OsQ1lfD3lTc2xer4Wre2oGXFKwf21zAj7J88x7Hv7xqVKFuD0ivd8hyEm7jsZpgfA0xc5eLLidpgSlt2S9gXbywOCMPLBhxCh_8Bv60gRNAX-w1Km_-dPWWrxEydEP81wxd2OoKo3_RWZITjp2hqLeTtF_8lIYht2NaTATdyOLmNSxUOWWZ8e1ednZKEwp2J1TdC4fXdCnFc_8Qk1HINrx1bvOL1k8KO9v1HTspTqys2Kti4NvCtqx4nkAzBbszCR-3_My0]--></g></svg>