<?xml version="1.0" encoding="us-ascii" standalone="no"?><svg xmlns="http://www.w3.org/2000/svg" xmlns:xlink="http://www.w3.org/1999/xlink" contentStyleType="text/css" height="1818px" preserveAspectRatio="none" style="width:750px;height:1818px;background:#FAFAFA;" version="1.1" viewBox="0 0 750 1818" width="750px" zoomAndPan="magnify"><defs/><g><rect fill="#FAFAFA" height="1818" style="stroke:none;stroke-width:1.0;" width="750" x="0" y="0"/><rect fill="#F5F3FF" height="200.3199" style="stroke:#AFA9EC;stroke-width:1.0;" width="10" x="324" y="190.0883"/><rect fill="#F5F3FF" height="523.2474" style="stroke:#AFA9EC;stroke-width:1.0;" width="10" x="324" y="513.2243"/><rect fill="#F5F3FF" height="520.5597" style="stroke:#AFA9EC;stroke-width:1.0;" width="10" x="324" y="1131.8078"/><rect fill="#F5F3FF" height="128.8799" style="stroke:#AFA9EC;stroke-width:1.0;" width="10" x="495" y="218.5683"/><rect fill="#F5F3FF" height="437.3275" style="stroke:#AFA9EC;stroke-width:1.0;" width="10" x="495" y="541.7043"/><rect fill="#F5F3FF" height="463.5997" style="stroke:#AFA9EC;stroke-width:1.0;" width="10" x="495" y="1160.2878"/><rect fill="#F5F3FF" height="28.48" style="stroke:#AFA9EC;stroke-width:1.0;" width="10" x="615" y="1323.6477"/><rect fill="#F5F3FF" height="55.784" style="stroke:#AFA9EC;stroke-width:1.0;" width="10" x="696" y="570.1843"/><rect fill="#F5F3FF" height="459.2874" style="stroke:#534AB7;stroke-width:1.5;" width="643.5" x="90" y="585.1843"/><rect fill="#F5F3FF" height="103.3678" style="stroke:none;stroke-width:1.0;" width="643.5" x="90" y="690.9282"/><rect fill="#F5F3FF" height="103.3678" style="stroke:none;stroke-width:1.0;" width="643.5" x="90" y="794.2961"/><rect fill="#F5F3FF" height="146.8078" style="stroke:none;stroke-width:1.0;" width="643.5" x="90" y="897.6639"/><line style="stroke:#AFA9EC;stroke-width:0.5;stroke-dasharray:5.0,5.0;" x1="47" x2="47" y1="99.7522" y2="1719.3275"/><line style="stroke:#AFA9EC;stroke-width:0.5;stroke-dasharray:5.0,5.0;" x1="137" x2="137" y1="99.7522" y2="1719.3275"/><line style="stroke:#AFA9EC;stroke-width:0.5;stroke-dasharray:5.0,5.0;" x1="328.5" x2="328.5" y1="99.7522" y2="1719.3275"/><line style="stroke:#AFA9EC;stroke-width:0.5;stroke-dasharray:5.0,5.0;" x1="499.5" x2="499.5" y1="99.7522" y2="1719.3275"/><line style="stroke:#AFA9EC;stroke-width:0.5;stroke-dasharray:5.0,5.0;" x1="619.5" x2="619.5" y1="99.7522" y2="1719.3275"/><line style="stroke:#AFA9EC;stroke-width:0.5;stroke-dasharray:5.0,5.0;" x1="700.5" x2="700.5" y1="99.7522" y2="1719.3275"/><text fill="#3C3489" font-family="sans-serif" font-size="12" font-weight="bold" lengthAdjust="spacing" textLength="79" x="5" y="96.2962">&#54924;&#50896; (&#54588;&#54217;&#51221;&#51088;)</text><ellipse cx="47.5" cy="30.8761" fill="#FFFFFF" rx="8" ry="8" style="stroke:#7F77DD;stroke-width:0.5;"/><path d="M47.5,38.8761 L47.5,65.8761 M34.5,46.8761 L60.5,46.8761 M47.5,65.8761 L34.5,80.8761 M47.5,65.8761 L60.5,80.8761 " fill="none" style="stroke:#7F77DD;stroke-width:0.5;"/><text fill="#3C3489" font-family="sans-serif" font-size="12" font-weight="bold" lengthAdjust="spacing" textLength="79" x="5" y="1732.2476">&#54924;&#50896; (&#54588;&#54217;&#51221;&#51088;)</text><ellipse cx="47.5" cy="1744.2036" fill="#FFFFFF" rx="8" ry="8" style="stroke:#7F77DD;stroke-width:0.5;"/><path d="M47.5,1752.2036 L47.5,1779.2036 M34.5,1760.2036 L60.5,1760.2036 M47.5,1779.2036 L34.5,1794.2036 M47.5,1779.2036 L60.5,1794.2036 " fill="none" style="stroke:#7F77DD;stroke-width:0.5;"/><text fill="#3C3489" font-family="sans-serif" font-size="12" font-weight="bold" lengthAdjust="spacing" textLength="33" x="117.5" y="78.9201">&#54217;&#51221;&#51088;</text><text fill="#3C3489" font-family="sans-serif" font-size="12" font-weight="bold" lengthAdjust="spacing" textLength="68" x="100" y="96.2962">(&#48708;&#54924;&#50896; &#44032;&#45733;)</text><ellipse cx="137" cy="13.5" fill="#FFFFFF" rx="8" ry="8" style="stroke:#7F77DD;stroke-width:0.5;"/><path d="M137,21.5 L137,48.5 M124,29.5 L150,29.5 M137,48.5 L124,63.5 M137,48.5 L150,63.5 " fill="none" style="stroke:#7F77DD;stroke-width:0.5;"/><text fill="#3C3489" font-family="sans-serif" font-size="12" font-weight="bold" lengthAdjust="spacing" textLength="33" x="117.5" y="1732.2476">&#54217;&#51221;&#51088;</text><text fill="#3C3489" font-family="sans-serif" font-size="12" font-weight="bold" lengthAdjust="spacing" textLength="68" x="100" y="1749.6237">(&#48708;&#54924;&#50896; &#44032;&#45733;)</text><ellipse cx="137" cy="1761.5797" fill="#FFFFFF" rx="8" ry="8" style="stroke:#7F77DD;stroke-width:0.5;"/><path d="M137,1769.5797 L137,1796.5797 M124,1777.5797 L150,1777.5797 M137,1796.5797 L124,1811.5797 M137,1796.5797 L150,1811.5797 " fill="none" style="stroke:#7F77DD;stroke-width:0.5;"/><rect fill="#FFFFFF" height="31.3761" rx="2.5" ry="2.5" style="stroke:#AFA9EC;stroke-width:0.5;" width="139" x="259.5" y="67.3761"/><text fill="#26215C" font-family="sans-serif" font-size="12" lengthAdjust="spacing" textLength="125" x="266.5" y="88.2962">AssessmentController</text><rect fill="#FFFFFF" height="31.3761" rx="2.5" ry="2.5" style="stroke:#AFA9EC;stroke-width:0.5;" width="139" x="259.5" y="1718.3275"/><text fill="#26215C" font-family="sans-serif" font-size="12" lengthAdjust="spacing" textLength="125" x="266.5" y="1739.2476">AssessmentController</text><rect fill="#FFFFFF" height="31.3761" rx="2.5" ry="2.5" style="stroke:#AFA9EC;stroke-width:0.5;" width="123" x="438.5" y="67.3761"/><text fill="#26215C" font-family="sans-serif" font-size="12" lengthAdjust="spacing" textLength="109" x="445.5" y="88.2962">AssessmentService</text><rect fill="#FFFFFF" height="31.3761" rx="2.5" ry="2.5" style="stroke:#AFA9EC;stroke-width:0.5;" width="123" x="438.5" y="1718.3275"/><text fill="#26215C" font-family="sans-serif" font-size="12" lengthAdjust="spacing" textLength="109" x="445.5" y="1739.2476">AssessmentService</text><rect fill="#FFFFFF" height="31.3761" rx="2.5" ry="2.5" style="stroke:#AFA9EC;stroke-width:0.5;" width="97" x="571.5" y="67.3761"/><text fill="#26215C" font-family="sans-serif" font-size="12" lengthAdjust="spacing" textLength="83" x="578.5" y="88.2962">ScoringService</text><rect fill="#FFFFFF" height="31.3761" rx="2.5" ry="2.5" style="stroke:#AFA9EC;stroke-width:0.5;" width="97" x="571.5" y="1718.3275"/><text fill="#26215C" font-family="sans-serif" font-size="12" lengthAdjust="spacing" textLength="83" x="578.5" y="1739.2476">ScoringService</text><text fill="#26215C" font-family="sans-serif" font-size="12" lengthAdjust="spacing" textLength="39" x="678.5" y="96.2962">MySQL</text><path d="M683,46.3761 C683,36.3761 701,36.3761 701,36.3761 C701,36.3761 719,36.3761 719,46.3761 L719,72.3761 C719,82.3761 701,82.3761 701,82.3761 C701,82.3761 683,82.3761 683,72.3761 L683,46.3761 " fill="#E2E2F0" style="stroke:#181818;stroke-width:1.5;"/><path d="M683,46.3761 C683,56.3761 701,56.3761 701,56.3761 C701,56.3761 719,56.3761 719,46.3761 " fill="none" style="stroke:#181818;stroke-width:1.5;"/><text fill="#26215C" font-family="sans-serif" font-size="12" lengthAdjust="spacing" textLength="39" x="678.5" y="1732.2476">MySQL</text><path d="M683,1745.7036 C683,1735.7036 701,1735.7036 701,1735.7036 C701,1735.7036 719,1735.7036 719,1745.7036 L719,1771.7036 C719,1781.7036 701,1781.7036 701,1781.7036 C701,1781.7036 683,1781.7036 683,1771.7036 L683,1745.7036 " fill="#E2E2F0" style="stroke:#181818;stroke-width:1.5;"/><path d="M683,1745.7036 C683,1755.7036 701,1755.7036 701,1755.7036 C701,1755.7036 719,1755.7036 719,1745.7036 " fill="none" style="stroke:#181818;stroke-width:1.5;"/><rect fill="#F5F3FF" height="200.3199" style="stroke:#AFA9EC;stroke-width:1.0;" width="10" x="324" y="190.0883"/><rect fill="#F5F3FF" height="523.2474" style="stroke:#AFA9EC;stroke-width:1.0;" width="10" x="324" y="513.2243"/><rect fill="#F5F3FF" height="520.5597" style="stroke:#AFA9EC;stroke-width:1.0;" width="10" x="324" y="1131.8078"/><rect fill="#F5F3FF" height="128.8799" style="stroke:#AFA9EC;stroke-width:1.0;" width="10" x="495" y="218.5683"/><rect fill="#F5F3FF" height="437.3275" style="stroke:#AFA9EC;stroke-width:1.0;" width="10" x="495" y="541.7043"/><rect fill="#F5F3FF" height="463.5997" style="stroke:#AFA9EC;stroke-width:1.0;" width="10" x="495" y="1160.2878"/><rect fill="#F5F3FF" height="28.48" style="stroke:#AFA9EC;stroke-width:1.0;" width="10" x="615" y="1323.6477"/><rect fill="#F5F3FF" height="55.784" style="stroke:#AFA9EC;stroke-width:1.0;" width="10" x="696" y="570.1843"/><rect fill="#EEEDFE" height="3" style="stroke:#EEEDFE;stroke-width:1.0;" width="743.5" x="0" y="131.4403"/><line style="stroke:#534AB7;stroke-width:1.0;" x1="0" x2="743.5" y1="131.4403" y2="131.4403"/><line style="stroke:#534AB7;stroke-width:1.0;" x1="0" x2="743.5" y1="134.4403" y2="134.4403"/><rect fill="#EEEDFE" height="25.3761" style="stroke:#534AB7;stroke-width:2.0;" width="64" x="339.75" y="119.7522"/><text fill="#3C3489" font-family="sans-serif" font-size="12" font-weight="bold" lengthAdjust="spacing" textLength="47" x="345.75" y="137.6723">&#47553;&#53356; &#49373;&#49457;</text><polygon fill="#7F77DD" points="312,186.0883,322,190.0883,312,194.0883,316,190.0883" style="stroke:#7F77DD;stroke-width:1.0;"/><line style="stroke:#7F77DD;stroke-width:1.0;" x1="47.5" x2="318" y1="190.0883" y2="190.0883"/><text fill="#534AB7" font-family="sans-serif" font-size="10" lengthAdjust="spacing" textLength="93" x="139.25" y="170.7284">POST /assessments</text><text fill="#534AB7" font-family="sans-serif" font-size="10" lengthAdjust="spacing" textLength="81" x="145.25" y="185.2083">{ testType, label }</text><polygon fill="#7F77DD" points="483,214.5683,493,218.5683,483,222.5683,487,218.5683" style="stroke:#7F77DD;stroke-width:1.0;"/><line style="stroke:#7F77DD;stroke-width:1.0;" x1="334" x2="489" y1="218.5683" y2="218.5683"/><text fill="#534AB7" font-family="sans-serif" font-size="10" lengthAdjust="spacing" textLength="140" x="344.5" y="213.6883">createToken(subjectId, label)</text><polygon fill="#7F77DD" points="689,286.4883,699,290.4883,689,294.4883,693,290.4883" style="stroke:#7F77DD;stroke-width:1.0;"/><line style="stroke:#7F77DD;stroke-width:1.0;" x1="505" x2="695" y1="290.4883" y2="290.4883"/><text fill="#534AB7" font-family="sans-serif" font-size="10" lengthAdjust="spacing" textLength="132" x="537" y="242.1683">INSERT assessment_tokens</text><text fill="#534AB7" font-family="sans-serif" font-size="10" lengthAdjust="spacing" textLength="131" x="537.5" y="256.6483">(subject_id, token=UUID32,</text><text fill="#534AB7" font-family="sans-serif" font-size="10" lengthAdjust="spacing" textLength="90" x="558" y="271.1283">label, used=FALSE,</text><text fill="#534AB7" font-family="sans-serif" font-size="10" lengthAdjust="spacing" textLength="95" x="555.5" y="285.6083">expiresAt=now+7&#51068;)</text><polygon fill="#7F77DD" points="516,314.9683,506,318.9683,516,322.9683,512,318.9683" style="stroke:#7F77DD;stroke-width:1.0;"/><line style="stroke:#7F77DD;stroke-width:1.0;stroke-dasharray:2.0,2.0;" x1="510" x2="700" y1="318.9683" y2="318.9683"/><text fill="#534AB7" font-family="sans-serif" font-size="10" lengthAdjust="spacing" textLength="58" x="574" y="314.0883">saved token</text><polygon fill="#7F77DD" points="345,343.4482,335,347.4482,345,351.4482,341,347.4482" style="stroke:#7F77DD;stroke-width:1.0;"/><line style="stroke:#7F77DD;stroke-width:1.0;stroke-dasharray:2.0,2.0;" x1="339" x2="499" y1="347.4482" y2="347.4482"/><text fill="#534AB7" font-family="sans-serif" font-size="10" lengthAdjust="spacing" textLength="88" x="373" y="342.5682">{ token, expiresAt }</text><polygon fill="#7F77DD" points="58.5,386.4082,48.5,390.4082,58.5,394.4082,54.5,390.4082" style="stroke:#7F77DD;stroke-width:1.0;"/><line style="stroke:#7F77DD;stroke-width:1.0;stroke-dasharray:2.0,2.0;" x1="52.5" x2="328" y1="390.4082" y2="390.4082"/><text fill="#534AB7" font-family="sans-serif" font-size="10" lengthAdjust="spacing" textLength="58" x="159.25" y="371.0482">201 Created</text><text fill="#534AB7" font-family="sans-serif" font-size="10" lengthAdjust="spacing" textLength="88" x="144.25" y="385.5282">{ token, expiresAt }</text><path d="M52,403.4082 L52,441.4082 L187,441.4082 L187,413.4082 L177,403.4082 L52,403.4082 " fill="#F5F3FF" style="stroke:#AFA9EC;stroke-width:0.5;"/><path d="M177,403.4082 L177,413.4082 L187,413.4082 L177,403.4082 " fill="#F5F3FF" style="stroke:#AFA9EC;stroke-width:0.5;"/><text fill="#534AB7" font-family="sans-serif" font-size="10" lengthAdjust="spacing" textLength="114" x="58" y="420.0082">URL &#51312;&#54633;&#51008; &#53364;&#46972;&#51060;&#50616;&#53944; &#52376;&#47532;</text><text fill="#534AB7" font-family="sans-serif" font-size="10" lengthAdjust="spacing" textLength="106" x="58" y="434.4882">/a/{token} &#54805;&#49885;&#51004;&#47196; &#44277;&#50976;</text><rect fill="#EEEDFE" height="3" style="stroke:#EEEDFE;stroke-width:1.0;" width="743.5" x="0" y="469.0562"/><line style="stroke:#534AB7;stroke-width:1.0;" x1="0" x2="743.5" y1="469.0562" y2="469.0562"/><line style="stroke:#534AB7;stroke-width:1.0;" x1="0" x2="743.5" y1="472.0562" y2="472.0562"/><rect fill="#EEEDFE" height="25.3761" style="stroke:#534AB7;stroke-width:2.0;" width="64" x="339.75" y="457.3682"/><text fill="#3C3489" font-family="sans-serif" font-size="12" font-weight="bold" lengthAdjust="spacing" textLength="47" x="345.75" y="475.2883">&#47553;&#53356; &#51217;&#49549;</text><polygon fill="#7F77DD" points="312,509.2243,322,513.2243,312,517.2243,316,513.2243" style="stroke:#7F77DD;stroke-width:1.0;"/><line style="stroke:#7F77DD;stroke-width:1.0;" x1="137" x2="318" y1="513.2243" y2="513.2243"/><text fill="#534AB7" font-family="sans-serif" font-size="10" lengthAdjust="spacing" textLength="125" x="168" y="508.3443">GET /assessments/{token}</text><polygon fill="#7F77DD" points="483,537.7043,493,541.7043,483,545.7043,487,541.7043" style="stroke:#7F77DD;stroke-width:1.0;"/><line style="stroke:#7F77DD;stroke-width:1.0;" x1="334" x2="489" y1="541.7043" y2="541.7043"/><text fill="#534AB7" font-family="sans-serif" font-size="10" lengthAdjust="spacing" textLength="104" x="362.5" y="536.8243">getSubjectInfo(token)</text><polygon fill="#7F77DD" points="684,566.1843,694,570.1843,684,574.1843,688,570.1843" style="stroke:#7F77DD;stroke-width:1.0;"/><line style="stroke:#7F77DD;stroke-width:1.0;" x1="505" x2="690" y1="570.1843" y2="570.1843"/><text fill="#534AB7" font-family="sans-serif" font-size="10" lengthAdjust="spacing" textLength="112" x="544.5" y="565.3043">SELECT WHERE token=?</text><path d="M90,585.1843 L151,585.1843 L151,594.5604 L141,604.5604 L90,604.5604 L90,585.1843 " fill="#EEEDFE" style="stroke:#534AB7;stroke-width:1.5;"/><rect fill="none" height="459.2874" style="stroke:#534AB7;stroke-width:1.5;" width="643.5" x="90" y="585.1843"/><text fill="#26215C" font-family="sans-serif" font-size="12" font-weight="bold" lengthAdjust="spacing" textLength="16" x="105" y="600.1044">alt</text><text fill="#3C3489" font-family="sans-serif" font-size="11" font-weight="bold" lengthAdjust="spacing" textLength="51" x="166" y="599.9442">[&#53664;&#53360; &#50630;&#51020;]</text><polygon fill="#7F77DD" points="516,621.9683,506,625.9683,516,629.9683,512,625.9683" style="stroke:#7F77DD;stroke-width:1.0;"/><line style="stroke:#7F77DD;stroke-width:1.0;stroke-dasharray:2.0,2.0;" x1="510" x2="700" y1="625.9683" y2="625.9683"/><text fill="#534AB7" font-family="sans-serif" font-size="10" lengthAdjust="spacing" textLength="18" x="594" y="621.0883">null</text><polygon fill="#7F77DD" points="345,650.4482,335,654.4482,345,658.4482,341,654.4482" style="stroke:#7F77DD;stroke-width:1.0;"/><line style="stroke:#7F77DD;stroke-width:1.0;stroke-dasharray:2.0,2.0;" x1="339" x2="494" y1="654.4482" y2="654.4482"/><text fill="#534AB7" font-family="sans-serif" font-size="10" lengthAdjust="spacing" textLength="122" x="353.5" y="649.5682">EntityNotFoundException</text><polygon fill="#7F77DD" points="148,678.9282,138,682.9282,148,686.9282,144,682.9282" style="stroke:#7F77DD;stroke-width:1.0;"/><line style="stroke:#7F77DD;stroke-width:1.0;stroke-dasharray:2.0,2.0;" x1="142" x2="323" y1="682.9282" y2="682.9282"/><text fill="#534AB7" font-family="sans-serif" font-size="10" lengthAdjust="spacing" textLength="69" x="196" y="678.0482">404 Not Found</text><line style="stroke:#534AB7;stroke-width:1.0;stroke-dasharray:2.0,2.0;" x1="90" x2="733.5" y1="691.9282" y2="691.9282"/><text fill="#3C3489" font-family="sans-serif" font-size="11" font-weight="bold" lengthAdjust="spacing" textLength="75" x="95" y="704.6881">[used = TRUE]</text><polygon fill="#7F77DD" points="516,725.3361,506,729.3361,516,733.3361,512,729.3361" style="stroke:#7F77DD;stroke-width:1.0;"/><line style="stroke:#7F77DD;stroke-width:1.0;stroke-dasharray:2.0,2.0;" x1="510" x2="700" y1="729.3361" y2="729.3361"/><text fill="#534AB7" font-family="sans-serif" font-size="10" lengthAdjust="spacing" textLength="90" x="558" y="724.4561">token (used=TRUE)</text><polygon fill="#7F77DD" points="345,753.8161,335,757.8161,345,761.8161,341,757.8161" style="stroke:#7F77DD;stroke-width:1.0;"/><line style="stroke:#7F77DD;stroke-width:1.0;stroke-dasharray:2.0,2.0;" x1="339" x2="494" y1="757.8161" y2="757.8161"/><text fill="#534AB7" font-family="sans-serif" font-size="10" lengthAdjust="spacing" textLength="137" x="346" y="752.9361">TokenAlreadyUsedException</text><polygon fill="#7F77DD" points="148,782.2961,138,786.2961,148,790.2961,144,786.2961" style="stroke:#7F77DD;stroke-width:1.0;"/><line style="stroke:#7F77DD;stroke-width:1.0;stroke-dasharray:2.0,2.0;" x1="142" x2="323" y1="786.2961" y2="786.2961"/><text fill="#534AB7" font-family="sans-serif" font-size="10" lengthAdjust="spacing" textLength="84" x="188.5" y="781.4161">400 TOKEN_USED</text><line style="stroke:#534AB7;stroke-width:1.0;stroke-dasharray:2.0,2.0;" x1="90" x2="733.5" y1="795.2961" y2="795.2961"/><text fill="#3C3489" font-family="sans-serif" font-size="11" font-weight="bold" lengthAdjust="spacing" textLength="104" x="95" y="808.056">[expiresAt &lt; NOW()]</text><polygon fill="#7F77DD" points="516,828.7039,506,832.7039,516,836.7039,512,832.7039" style="stroke:#7F77DD;stroke-width:1.0;"/><line style="stroke:#7F77DD;stroke-width:1.0;stroke-dasharray:2.0,2.0;" x1="510" x2="700" y1="832.7039" y2="832.7039"/><text fill="#534AB7" font-family="sans-serif" font-size="10" lengthAdjust="spacing" textLength="54" x="576" y="827.8239">token (&#47564;&#47308;)</text><polygon fill="#7F77DD" points="345,857.1839,335,861.1839,345,865.1839,341,861.1839" style="stroke:#7F77DD;stroke-width:1.0;"/><line style="stroke:#7F77DD;stroke-width:1.0;stroke-dasharray:2.0,2.0;" x1="339" x2="494" y1="861.1839" y2="861.1839"/><text fill="#534AB7" font-family="sans-serif" font-size="10" lengthAdjust="spacing" textLength="113" x="358" y="856.3039">TokenExpiredException</text><polygon fill="#7F77DD" points="148,885.6639,138,889.6639,148,893.6639,144,889.6639" style="stroke:#7F77DD;stroke-width:1.0;"/><line style="stroke:#7F77DD;stroke-width:1.0;stroke-dasharray:2.0,2.0;" x1="142" x2="323" y1="889.6639" y2="889.6639"/><text fill="#534AB7" font-family="sans-serif" font-size="10" lengthAdjust="spacing" textLength="92" x="184.5" y="884.7839">400 EXPIRED_CODE</text><line style="stroke:#534AB7;stroke-width:1.0;stroke-dasharray:2.0,2.0;" x1="90" x2="733.5" y1="898.6639" y2="898.6639"/><text fill="#3C3489" font-family="sans-serif" font-size="11" font-weight="bold" lengthAdjust="spacing" textLength="61" x="95" y="911.4238">[&#50976;&#54952;&#54620; &#53664;&#53360;]</text><polygon fill="#7F77DD" points="516,932.0718,506,936.0718,516,940.0718,512,936.0718" style="stroke:#7F77DD;stroke-width:1.0;"/><line style="stroke:#7F77DD;stroke-width:1.0;stroke-dasharray:2.0,2.0;" x1="510" x2="700" y1="936.0718" y2="936.0718"/><text fill="#534AB7" font-family="sans-serif" font-size="10" lengthAdjust="spacing" textLength="54" x="576" y="931.1918">token (&#50976;&#54952;)</text><polygon fill="#7F77DD" points="345,975.0317,335,979.0317,345,983.0317,341,979.0317" style="stroke:#7F77DD;stroke-width:1.0;"/><line style="stroke:#7F77DD;stroke-width:1.0;stroke-dasharray:2.0,2.0;" x1="339" x2="499" y1="979.0317" y2="979.0317"/><text fill="#534AB7" font-family="sans-serif" font-size="10" lengthAdjust="spacing" textLength="91" x="371.5" y="959.6718">{ subjectNickname,</text><text fill="#534AB7" font-family="sans-serif" font-size="10" lengthAdjust="spacing" textLength="115" x="359.5" y="974.1517">subjectProfileImageUrl }</text><polygon fill="#7F77DD" points="148,1032.4717,138,1036.4717,148,1040.4717,144,1036.4717" style="stroke:#7F77DD;stroke-width:1.0;"/><line style="stroke:#7F77DD;stroke-width:1.0;stroke-dasharray:2.0,2.0;" x1="142" x2="328" y1="1036.4717" y2="1036.4717"/><text fill="#534AB7" font-family="sans-serif" font-size="10" lengthAdjust="spacing" textLength="33" x="216.5" y="1002.6317">200 OK</text><text fill="#534AB7" font-family="sans-serif" font-size="10" lengthAdjust="spacing" textLength="91" x="187.5" y="1017.1117">{ subjectNickname,</text><text fill="#534AB7" font-family="sans-serif" font-size="10" lengthAdjust="spacing" textLength="115" x="175.5" y="1031.5917">subjectProfileImageUrl }</text><rect fill="#EEEDFE" height="3" style="stroke:#EEEDFE;stroke-width:1.0;" width="743.5" x="0" y="1073.1598"/><line style="stroke:#534AB7;stroke-width:1.0;" x1="0" x2="743.5" y1="1073.1598" y2="1073.1598"/><line style="stroke:#534AB7;stroke-width:1.0;" x1="0" x2="743.5" y1="1076.1598" y2="1076.1598"/><rect fill="#EEEDFE" height="25.3761" style="stroke:#534AB7;stroke-width:2.0;" width="64" x="339.75" y="1061.4717"/><text fill="#3C3489" font-family="sans-serif" font-size="12" font-weight="bold" lengthAdjust="spacing" textLength="47" x="345.75" y="1079.3918">&#54217;&#51221; &#51228;&#52636;</text><polygon fill="#7F77DD" points="312,1127.8078,322,1131.8078,312,1135.8078,316,1131.8078" style="stroke:#7F77DD;stroke-width:1.0;"/><line style="stroke:#7F77DD;stroke-width:1.0;" x1="137" x2="318" y1="1131.8078" y2="1131.8078"/><text fill="#534AB7" font-family="sans-serif" font-size="10" lengthAdjust="spacing" textLength="168" x="146.5" y="1112.4478">POST /assessments/{token}/submit</text><text fill="#534AB7" font-family="sans-serif" font-size="10" lengthAdjust="spacing" textLength="137" x="162" y="1126.9278">{ testType, scores: { d, i, s, c } }</text><polygon fill="#7F77DD" points="483,1156.2878,493,1160.2878,483,1164.2878,487,1160.2878" style="stroke:#7F77DD;stroke-width:1.0;"/><line style="stroke:#7F77DD;stroke-width:1.0;" x1="334" x2="489" y1="1160.2878" y2="1160.2878"/><text fill="#534AB7" font-family="sans-serif" font-size="10" lengthAdjust="spacing" textLength="109" x="360" y="1155.4078">submit(token, request)</text><path d="M510,1173.2878 L510,1226.2878 L620,1226.2878 L620,1183.2878 L610,1173.2878 L510,1173.2878 " fill="#F5F3FF" style="stroke:#AFA9EC;stroke-width:0.5;"/><path d="M610,1173.2878 L610,1183.2878 L620,1183.2878 L610,1173.2878 " fill="#F5F3FF" style="stroke:#AFA9EC;stroke-width:0.5;"/><text fill="#534AB7" font-family="sans-serif" font-size="10" lengthAdjust="spacing" textLength="75" x="516" y="1189.8878">@Transactional</text><text fill="#534AB7" font-family="sans-serif" font-size="10" lengthAdjust="spacing" textLength="89" x="516" y="1204.3678">&#51473;&#44036; &#49892;&#54056; &#49884; &#51204;&#52404; &#47204;&#48177;</text><text fill="#534AB7" font-family="sans-serif" font-size="10" lengthAdjust="spacing" textLength="58" x="516" y="1218.8477">&#48512;&#48516; &#51200;&#51109; &#50630;&#51020;</text><polygon fill="#7F77DD" points="689,1262.6877,699,1266.6877,689,1270.6877,693,1266.6877" style="stroke:#7F77DD;stroke-width:1.0;"/><line style="stroke:#7F77DD;stroke-width:1.0;" x1="505" x2="695" y1="1266.6877" y2="1266.6877"/><text fill="#534AB7" font-family="sans-serif" font-size="10" lengthAdjust="spacing" textLength="112" x="547" y="1247.3277">SELECT WHERE token=?</text><text fill="#534AB7" font-family="sans-serif" font-size="10" lengthAdjust="spacing" textLength="122" x="542" y="1261.8077">(findAndValidate &#8212; &#51116;&#44160;&#51613;)</text><polygon fill="#7F77DD" points="516,1291.1677,506,1295.1677,516,1299.1677,512,1295.1677" style="stroke:#7F77DD;stroke-width:1.0;"/><line style="stroke:#7F77DD;stroke-width:1.0;stroke-dasharray:2.0,2.0;" x1="510" x2="700" y1="1295.1677" y2="1295.1677"/><text fill="#534AB7" font-family="sans-serif" font-size="10" lengthAdjust="spacing" textLength="54" x="576" y="1290.2877">token (&#50976;&#54952;)</text><polygon fill="#7F77DD" points="603,1319.6477,613,1323.6477,603,1327.6477,607,1323.6477" style="stroke:#7F77DD;stroke-width:1.0;"/><line style="stroke:#7F77DD;stroke-width:1.0;" x1="505" x2="609" y1="1323.6477" y2="1323.6477"/><text fill="#534AB7" font-family="sans-serif" font-size="10" lengthAdjust="spacing" textLength="85" x="517.5" y="1318.7677">normalize(scores)</text><polygon fill="#7F77DD" points="516,1348.1277,506,1352.1277,516,1356.1277,512,1352.1277" style="stroke:#7F77DD;stroke-width:1.0;"/><line style="stroke:#7F77DD;stroke-width:1.0;stroke-dasharray:2.0,2.0;" x1="510" x2="619" y1="1352.1277" y2="1352.1277"/><text fill="#534AB7" font-family="sans-serif" font-size="10" lengthAdjust="spacing" textLength="84" x="520.5" y="1347.2477">buckets { d, i, s, c }</text><polygon fill="#7F77DD" points="689,1420.0476,699,1424.0476,689,1428.0476,693,1424.0476" style="stroke:#7F77DD;stroke-width:1.0;"/><line style="stroke:#7F77DD;stroke-width:1.0;" x1="505" x2="695" y1="1424.0476" y2="1424.0476"/><text fill="#534AB7" font-family="sans-serif" font-size="10" lengthAdjust="spacing" textLength="60" x="573" y="1375.7277">INSERT tests</text><text fill="#534AB7" font-family="sans-serif" font-size="10" lengthAdjust="spacing" textLength="98" x="554" y="1390.2076">(user_id=subject_id,</text><text fill="#534AB7" font-family="sans-serif" font-size="10" lengthAdjust="spacing" textLength="92" x="557" y="1404.6876">rater_type=OTHER,</text><text fill="#534AB7" font-family="sans-serif" font-size="10" lengthAdjust="spacing" textLength="88" x="559" y="1419.1676">label=token.label)</text><polygon fill="#7F77DD" points="516,1448.5276,506,1452.5276,516,1456.5276,512,1452.5276" style="stroke:#7F77DD;stroke-width:1.0;"/><line style="stroke:#7F77DD;stroke-width:1.0;stroke-dasharray:2.0,2.0;" x1="510" x2="700" y1="1452.5276" y2="1452.5276"/><text fill="#534AB7" font-family="sans-serif" font-size="10" lengthAdjust="spacing" textLength="55" x="575.5" y="1447.6476">test (saved)</text><polygon fill="#7F77DD" points="689,1491.4876,699,1495.4876,689,1499.4876,693,1495.4876" style="stroke:#7F77DD;stroke-width:1.0;"/><line style="stroke:#7F77DD;stroke-width:1.0;" x1="505" x2="695" y1="1495.4876" y2="1495.4876"/><text fill="#534AB7" font-family="sans-serif" font-size="10" lengthAdjust="spacing" textLength="94" x="556" y="1476.1276">INSERT disc_results</text><text fill="#534AB7" font-family="sans-serif" font-size="10" lengthAdjust="spacing" textLength="104" x="551" y="1490.6076">(test_id, &#50896;&#51216;&#49688;, &#48260;&#53431;&#44050;)</text><polygon fill="#7F77DD" points="516,1519.9676,506,1523.9676,516,1527.9676,512,1523.9676" style="stroke:#7F77DD;stroke-width:1.0;"/><line style="stroke:#7F77DD;stroke-width:1.0;stroke-dasharray:2.0,2.0;" x1="510" x2="700" y1="1523.9676" y2="1523.9676"/><text fill="#534AB7" font-family="sans-serif" font-size="10" lengthAdjust="spacing" textLength="85" x="560.5" y="1519.0876">discResult (saved)</text><polygon fill="#7F77DD" points="689,1562.9275,699,1566.9275,689,1570.9275,693,1566.9275" style="stroke:#7F77DD;stroke-width:1.0;"/><line style="stroke:#7F77DD;stroke-width:1.0;" x1="505" x2="695" y1="1566.9275" y2="1566.9275"/><text fill="#534AB7" font-family="sans-serif" font-size="10" lengthAdjust="spacing" textLength="136" x="535" y="1547.5676">UPDATE assessment_tokens</text><text fill="#534AB7" font-family="sans-serif" font-size="10" lengthAdjust="spacing" textLength="151" x="527.5" y="1562.0475">SET used=TRUE WHERE token=?</text><polygon fill="#7F77DD" points="516,1591.4075,506,1595.4075,516,1599.4075,512,1595.4075" style="stroke:#7F77DD;stroke-width:1.0;"/><line style="stroke:#7F77DD;stroke-width:1.0;stroke-dasharray:2.0,2.0;" x1="510" x2="700" y1="1595.4075" y2="1595.4075"/><text fill="#534AB7" font-family="sans-serif" font-size="10" lengthAdjust="spacing" textLength="40" x="583" y="1590.5275">updated</text><polygon fill="#7F77DD" points="345,1619.8875,335,1623.8875,345,1627.8875,341,1623.8875" style="stroke:#7F77DD;stroke-width:1.0;"/><line style="stroke:#7F77DD;stroke-width:1.0;stroke-dasharray:2.0,2.0;" x1="339" x2="499" y1="1623.8875" y2="1623.8875"/><text fill="#534AB7" font-family="sans-serif" font-size="10" lengthAdjust="spacing" textLength="20" x="407" y="1619.0075">void</text><polygon fill="#7F77DD" points="148,1648.3675,138,1652.3675,148,1656.3675,144,1652.3675" style="stroke:#7F77DD;stroke-width:1.0;"/><line style="stroke:#7F77DD;stroke-width:1.0;stroke-dasharray:2.0,2.0;" x1="142" x2="328" y1="1652.3675" y2="1652.3675"/><text fill="#534AB7" font-family="sans-serif" font-size="10" lengthAdjust="spacing" textLength="33" x="216.5" y="1647.4875">200 OK</text><path d="M142,1665.3675 L142,1703.3675 L319,1703.3675 L319,1675.3675 L309,1665.3675 L142,1665.3675 " fill="#F5F3FF" style="stroke:#AFA9EC;stroke-width:0.5;"/><path d="M309,1665.3675 L309,1675.3675 L319,1675.3675 L309,1665.3675 " fill="#F5F3FF" style="stroke:#AFA9EC;stroke-width:0.5;"/><text fill="#534AB7" font-family="sans-serif" font-size="10" lengthAdjust="spacing" textLength="94" x="148" y="1681.9675">&#51025;&#49884;&#51088;&#50640;&#44172; &#44208;&#44284; &#48120;&#45432;&#52636;</text><text fill="#534AB7" font-family="sans-serif" font-size="10" lengthAdjust="spacing" textLength="156" x="148" y="1696.4475">&#44208;&#44284;&#45716; &#54588;&#54217;&#51221;&#51088;(Subject) &#44228;&#51221;&#50640; &#44480;&#49549;</text><!--SRC=[dLTRJnjN47xVNp6YBxRgb6j24zLjZRrEKOYXlZHzG4BBxZ4vPJdhxgv9248oBOtQXAga2asKsX5HSwiKgGv9KohnQ_hetVqFdRCNUzTUKoX8WEVCpFVDdBaSZ5NAQf8khS6o9A-kw5gTALbDrNHuBv_XtuBHrL18LQghPbvZPa5Q8p2IgTLK0gKSNDRCwrI60j5IO4ZCE6SGdLP7ucrBz1Q1yOduGnzxuiB4-FbiICKWNzS9aybLOXZI2iceT8M1J9X9T26aXZzDAjEQn4pO501c1e9ol_Y9fYj4zwKOvqKnYz912fuiuBmL1fDa4nNF03ETdvxEvQ8mazd9gGylzi7udymDJE-ofYfHt20NBdH6rxKR_VvTOGZa_EHKPcOwVE0XZQ5eZbR976KaFY7Tqu48p-SdtGWlexGMCUwYUKVzbg8evl9YS1oNYkw1ntAyXw9i32UIe-iKIGp72nHYkVg7SNIAf4fqdl0Or_aBBdPF9SPvvFAOPf8XDHC4yf-bsIKTlab4yGfon7cqQ_-w1mdd_h7pqm_smRxzU2yv0f81fVhoLqGskuh1wI9BM7_l-7QTTiEwyympA4gymS9TDP8n3Ep1DSBPC5FNL9Nehcxlup234j7NgKmyAjxVKTMIhEcKhKJqF96WIAQqB1auTQvkb3wVSyzoCuAGJeFrOjlPVWNsjorxvpMaquBWnmddFWwnWakmC5ygmwZK9MGiiaqmYM6MDsea1QgqJ5JOukcXwnXvE2GXv0ZT-XJHfwmJL2rhguGb30ztLl5z9NkkWdY5m1ATv6RGVhPG4ejbw95QChalf1QuMwBepnMcAvNPtEH4Qf6vxbDGDuYIpcVcIYBAoCqQrOcHCTDCk_7-jDqwJWe8SIv2rv3MYU9v2t7fJzIcfv62hazCYq86embdXUFuYRy44sFZa7LJexX9Fj5TECzkW-XqvRe9MhLRiG2LuXpOJzhE_kzsgm7EzbkhTMottjg_73btZi0-V6WzVuLgezBefWks1Sx3VVjkosuUMq-Qq7dpfzqy40XJt1QC5Cx1FVlsZsxXkFK-K3QNnMZL10XdAvGLOlhHpBAgbd1TdAP0IkASc2t3jS_4ekYNmISzCzu3acg2S_l0sMw3_U2stThbywp_ubbTLL4UoZgQ0Wmj0P6PrDmeQBYMSKQ9DsLICwd6qAJlphsSNOAfiIb0TN3r1O6esAoyFY4DvM95ZEFaHWC9jugvJl8i1DsMowXOOyf61JsSYk8ObEUlY8MbIadC-HnxDVaH5EQl9P8dCBLUx5g_xPwTfkXYd9QY-EN2R57CBMNdSw9F4clNUVJIsM_w5tq2Hq_rJ1mtmHyr1IglCdpRuJJn9GkwLgKgcLt3LrT5vzCnuZUesg7nJ60yyrVu2FY_4A7U8homi76znOMDsxJVDKzet85v7tJkA4AlKJCw_WrSDSJWsS1vI_5p2cJOEki-y3md_86dyxUQOSRrUT-WwoRoqxAEJsYkhp69jwpzz5wdlGFstQVExalyrSJ0T-p3js0zUMgrNwE6zQvXlKEDWuRz-5am0tgZxZGJ1TTDbJ8bmvGl99KgdEa_ZVjWFtxLEMpOpringwIlti8m_jRcOqVJrz3XBPBmqXlEXB_Q0-Mez-Mwl4fCe-ys8al8jn-sKldDyZMAuqN77PeEhTD5flE2MJBnujFpPKn4i5FJRbGV-EjxC6Rq2GbtYIQ70YlKa9SmLloVXkDp6tU7u-lAFjYplt-O0kjmn_dchqxxvnWCRbvqhOSZLHPocR8OzseeuRBg3jI-hJ40LQ_ncrPEU0ciQrGvpUQFzllfbhltkiG2Rzt3giPtgFrWhtEu2vt3TkVDCLX_75dV7M67euedikxSX_2hDk4lr2IkznqkUe3FrxyQkCrxrVyl]--></g></svg>