<?xml version="1.0" encoding="us-ascii" standalone="no"?><svg xmlns="http://www.w3.org/2000/svg" xmlns:xlink="http://www.w3.org/1999/xlink" contentStyleType="text/css" height="871px" preserveAspectRatio="none" style="width:2326px;height:871px;background:#FAFAFA;" version="1.1" viewBox="0 0 2326 871" width="2326px" zoomAndPan="magnify"><defs/><g><rect fill="#FAFAFA" height="871" style="stroke:none;stroke-width:1.0;" width="2326" x="0" y="0"/><!--cluster Developer Tools--><g id="cluster_Developer Tools"><path d="M1078.7547,6.244 L1182.7547,6.244 A3.75,3.75 0 0 1 1185.2547,8.744 L1192.2547,31.068 L1221.7547,31.068 A2.5,2.5 0 0 1 1224.2547,33.568 L1224.2547,121.744 A2.5,2.5 0 0 1 1221.7547,124.244 L1078.7547,124.244 A2.5,2.5 0 0 1 1076.2547,121.744 L1076.2547,8.744 A2.5,2.5 0 0 1 1078.7547,6.244 " fill="#FFF9ED" style="stroke:#534AB7;stroke-width:2.0;"/><line style="stroke:#534AB7;stroke-width:2.0;" x1="1076.2547" x2="1192.2547" y1="31.068" y2="31.068"/><text fill="#3C3489" font-family="sans-serif" font-size="13" font-weight="bold" lengthAdjust="spacing" textLength="103" x="1080.2547" y="23.324">Developer Tools</text></g><!--cluster Client--><g id="cluster_Client"><path d="M1250.7547,6.244 L1289.7547,6.244 A3.75,3.75 0 0 1 1292.2547,8.744 L1299.2547,31.068 L1575.7547,31.068 A2.5,2.5 0 0 1 1578.2547,33.568 L1578.2547,121.744 A2.5,2.5 0 0 1 1575.7547,124.244 L1250.7547,124.244 A2.5,2.5 0 0 1 1248.2547,121.744 L1248.2547,8.744 A2.5,2.5 0 0 1 1250.7547,6.244 " fill="#EEF6FF" style="stroke:#534AB7;stroke-width:2.0;"/><line style="stroke:#534AB7;stroke-width:2.0;" x1="1248.2547" x2="1299.2547" y1="31.068" y2="31.068"/><text fill="#3C3489" font-family="sans-serif" font-size="13" font-weight="bold" lengthAdjust="spacing" textLength="38" x="1252.2547" y="23.324">Client</text></g><!--cluster Spring Boot 3.x (com.mycpt.backend)--><g id="cluster_Spring Boot 3.x (com.mycpt.backend)"><path d="M584.7547,148.244 L826.7547,148.244 A3.75,3.75 0 0 1 829.2547,150.744 L836.2547,173.068 L1942.7547,173.068 A2.5,2.5 0 0 1 1945.2547,175.568 L1945.2547,637.244 A2.5,2.5 0 0 1 1942.7547,639.744 L584.7547,639.744 A2.5,2.5 0 0 1 582.2547,637.244 L582.2547,150.744 A2.5,2.5 0 0 1 584.7547,148.244 " fill="#EEEDFE" style="stroke:#534AB7;stroke-width:2.0;"/><line style="stroke:#534AB7;stroke-width:2.0;" x1="582.2547" x2="836.2547" y1="173.068" y2="173.068"/><text fill="#3C3489" font-family="sans-serif" font-size="13" font-weight="bold" lengthAdjust="spacing" textLength="241" x="586.2547" y="165.324">Spring Boot 3.x (com.mycpt.backend)</text></g><!--cluster Presentation--><g id="cluster_Presentation"><path d="M940.7547,193.244 L1024.7547,193.244 A3.75,3.75 0 0 1 1027.2547,195.744 L1034.2547,218.068 L1377.7547,218.068 A2.5,2.5 0 0 1 1380.2547,220.568 L1380.2547,308.744 A2.5,2.5 0 0 1 1377.7547,311.244 L940.7547,311.244 A2.5,2.5 0 0 1 938.2547,308.744 L938.2547,195.744 A2.5,2.5 0 0 1 940.7547,193.244 " fill="#F5F3FF" style="stroke:#534AB7;stroke-width:2.0;"/><line style="stroke:#534AB7;stroke-width:2.0;" x1="938.2547" x2="1034.2547" y1="218.068" y2="218.068"/><text fill="#3C3489" font-family="sans-serif" font-size="13" font-weight="bold" lengthAdjust="spacing" textLength="83" x="942.2547" y="210.324">Presentation</text></g><!--cluster Business--><g id="cluster_Business"><path d="M758.7547,338.744 L814.7547,338.744 A3.75,3.75 0 0 1 817.2547,341.244 L824.2547,363.568 L1918.7547,363.568 A2.5,2.5 0 0 1 1921.2547,366.068 L1921.2547,489.244 A2.5,2.5 0 0 1 1918.7547,491.744 L758.7547,491.744 A2.5,2.5 0 0 1 756.2547,489.244 L756.2547,341.244 A2.5,2.5 0 0 1 758.7547,338.744 " fill="#F5F3FF" style="stroke:#534AB7;stroke-width:2.0;"/><line style="stroke:#534AB7;stroke-width:2.0;" x1="756.2547" x2="824.2547" y1="363.568" y2="363.568"/><text fill="#3C3489" font-family="sans-serif" font-size="13" font-weight="bold" lengthAdjust="spacing" textLength="55" x="760.2547" y="355.824">Business</text></g><!--cluster Persistence--><g id="cluster_Persistence"><path d="M1072.7547,515.744 L1148.7547,515.744 A3.75,3.75 0 0 1 1151.2547,518.244 L1158.2547,540.568 L1235.7547,540.568 A2.5,2.5 0 0 1 1238.2547,543.068 L1238.2547,613.244 A2.5,2.5 0 0 1 1235.7547,615.744 L1072.7547,615.744 A2.5,2.5 0 0 1 1070.2547,613.244 L1070.2547,518.244 A2.5,2.5 0 0 1 1072.7547,515.744 " fill="#F5F3FF" style="stroke:#534AB7;stroke-width:2.0;"/><line style="stroke:#534AB7;stroke-width:2.0;" x1="1070.2547" x2="1158.2547" y1="540.568" y2="540.568"/><text fill="#3C3489" font-family="sans-serif" font-size="13" font-weight="bold" lengthAdjust="spacing" textLength="75" x="1074.2547" y="532.824">Persistence</text></g><!--cluster MySQL--><g id="cluster_MySQL"><path d="M1146.2547,681.744 C1146.2547,671.744 1323.2547,671.744 1323.2547,671.744 C1323.2547,671.744 1500.2547,671.744 1500.2547,681.744 L1500.2547,844.744 C1500.2547,854.744 1323.2547,854.744 1323.2547,854.744 C1323.2547,854.744 1146.2547,854.744 1146.2547,844.744 L1146.2547,681.744 " fill="#FFFFFF" style="stroke:#AFA9EC;stroke-width:1.0;"/><path d="M1146.2547,681.744 C1146.2547,691.744 1323.2547,691.744 1323.2547,691.744 C1323.2547,691.744 1500.2547,691.744 1500.2547,681.744 " fill="none" style="stroke:#AFA9EC;stroke-width:1.0;"/><text fill="#26215C" font-family="sans-serif" font-size="12" font-weight="bold" lengthAdjust="spacing" textLength="40" x="1303.2547" y="707.6641">MySQL</text></g><!--cluster Redis--><g id="cluster_Redis"><path d="M1977.2547,353.244 C1977.2547,343.244 2065.7547,343.244 2065.7547,343.244 C2065.7547,343.244 2154.2547,343.244 2154.2547,353.244 L2154.2547,463.244 C2154.2547,473.244 2065.7547,473.244 2065.7547,473.244 C2065.7547,473.244 1977.2547,473.244 1977.2547,463.244 L1977.2547,353.244 " fill="#FFFFFF" style="stroke:#AFA9EC;stroke-width:1.0;"/><path d="M1977.2547,353.244 C1977.2547,363.244 2065.7547,363.244 2065.7547,363.244 C2065.7547,363.244 2154.2547,363.244 2154.2547,353.244 " fill="none" style="stroke:#AFA9EC;stroke-width:1.0;"/><text fill="#26215C" font-family="sans-serif" font-size="12" font-weight="bold" lengthAdjust="spacing" textLength="33" x="2049.2547" y="379.1641">Redis</text></g><!--cluster ?? ???--><g id="cluster_&#50808;&#48512; &#49436;&#48708;&#49828;"><path d="M53.8127,358.9961 C63.2311,343.0667 78.4659,343.7733 85.8385,360.9737 C96.5482,345.1397 113.1462,344.7443 124.3687,360.3453 C133.1094,344.9228 145.0485,340.8416 158.1289,355.4699 C167.5983,341.4902 180.6347,341.411 190.4437,355.0731 C203.4822,338.0868 220.2173,337.7432 228.9802,359.3432 C238.7508,340.313 251.1865,343.9089 262.9898,357.2046 C274.1518,341.3256 285.5692,336.6473 298.6157,355.258 C312.3601,338.658 322.5667,340.0019 332.5335,358.8704 C342.4514,338.1784 362.2281,338.0277 372.1733,358.8444 C382.7498,341.63 394.9543,343.0993 406.2523,358.0807 C415.3044,344.4029 426.122,342.8588 437.6277,355.1119 C449.7525,341.7636 468.0378,342.9407 474.9421,361.2628 C486.0685,344.9952 500.6127,345.9605 511.033,362.0504 C523.8201,342.6277 539.0155,347.3204 550.2547,363.744 C554.9235,362.7334 557.3016,365.5519 556.1488,370.014 C582.7005,384.009 581.8127,401.162 561.1586,419.8978 C582.1362,443.236 571.0666,467.3326 543.2547,474.744 C543.782,474.3901 544.0729,474.5126 544.1813,475.1396 C536.4249,492.9706 519.9255,494.4974 509.189,478.1947 C500.8717,491.9919 488.0641,495.8038 477.5961,480.5322 C465.8488,499.7272 447.5042,496.2318 440.3323,476.1872 C434.5997,494.1314 419.5011,497.1753 408.0679,481.689 C394.2916,497.1685 382.5987,495.6888 372.236,478.0011 C359.957,494.8328 345.7459,494.834 333.9974,477.4089 C323.7432,499.6783 311.5138,498.8193 296.0739,482.506 C285.0283,494.9143 271.5533,495.2161 264.3085,478.3778 C255.9496,492.2843 240.1793,495.3342 230.8213,479.5028 C217.6887,496.6703 204.2039,502.1886 189.7556,480.908 C181.7205,494.6706 168.0804,495.2169 159.8279,481.1417 C148.0284,496.8676 129.7507,496.3214 123.9934,475.2566 C112.3916,492.0819 99.2935,496.0701 86.2149,476.8024 C69.0812,494.2224 50.0992,491.4665 41.2547,467.744 C44.0948,467.7347 45.5944,469.3603 43.9742,472.1218 C20.6377,463.4396 9.7462,439.8714 34.315,421.9638 C6,397.5594 12.5908,367.4739 48.2547,356.744 C51.0981,354.9076 53.1516,355.4471 53.8127,358.9961 " fill="#FFF7ED" style="stroke:#AFA9EC;stroke-width:1.0;"/><text fill="#26215C" font-family="sans-serif" font-size="12" font-weight="bold" lengthAdjust="spacing" textLength="58" x="266.7547" y="375.6641">&#50808;&#48512; &#49436;&#48708;&#49828;</text></g><!--entity Swagger--><g id="elem_Swagger"><rect fill="#FFFFFF" height="64.7522" rx="2.5" ry="2.5" style="stroke:#AFA9EC;stroke-width:1.5;" width="116" x="1092.2547" y="43.244"/><rect fill="#FFFFFF" height="10" style="stroke:#AFA9EC;stroke-width:1.5;" width="15" x="1188.2547" y="48.244"/><rect fill="#FFFFFF" height="2" style="stroke:#AFA9EC;stroke-width:1.5;" width="4" x="1186.2547" y="50.244"/><rect fill="#FFFFFF" height="2" style="stroke:#AFA9EC;stroke-width:1.5;" width="4" x="1186.2547" y="54.244"/><text fill="#26215C" font-family="sans-serif" font-size="12" lengthAdjust="spacing" textLength="66" x="1107.2547" y="77.1641">Swagger UI</text><text fill="#26215C" font-family="sans-serif" font-size="12" lengthAdjust="spacing" textLength="76" x="1107.2547" y="94.5402">(/swagger-ui)</text></g><!--entity NextJS--><g id="elem_NextJS"><rect fill="#FFFFFF" height="64.7522" rx="2.5" ry="2.5" style="stroke:#AFA9EC;stroke-width:1.5;" width="97" x="1465.7547" y="43.244"/><rect fill="#FFFFFF" height="10" style="stroke:#AFA9EC;stroke-width:1.5;" width="15" x="1542.7547" y="48.244"/><rect fill="#FFFFFF" height="2" style="stroke:#AFA9EC;stroke-width:1.5;" width="4" x="1540.7547" y="50.244"/><rect fill="#FFFFFF" height="2" style="stroke:#AFA9EC;stroke-width:1.5;" width="4" x="1540.7547" y="54.244"/><text fill="#26215C" font-family="sans-serif" font-size="12" lengthAdjust="spacing" textLength="39" x="1480.7547" y="77.1641">Next.js</text><text fill="#26215C" font-family="sans-serif" font-size="12" lengthAdjust="spacing" textLength="57" x="1480.7547" y="94.5402">(SSR/SSG)</text></g><!--entity Session--><g id="elem_Session"><rect fill="#FFFFFF" height="64.7522" rx="2.5" ry="2.5" style="stroke:#AFA9EC;stroke-width:1.5;" width="167" x="1263.7547" y="43.244"/><rect fill="#FFFFFF" height="10" style="stroke:#AFA9EC;stroke-width:1.5;" width="15" x="1410.7547" y="48.244"/><rect fill="#FFFFFF" height="2" style="stroke:#AFA9EC;stroke-width:1.5;" width="4" x="1408.7547" y="50.244"/><rect fill="#FFFFFF" height="2" style="stroke:#AFA9EC;stroke-width:1.5;" width="4" x="1408.7547" y="54.244"/><text fill="#26215C" font-family="sans-serif" font-size="12" lengthAdjust="spacing" textLength="87" x="1278.7547" y="77.1641">sessionStorage</text><text fill="#26215C" font-family="sans-serif" font-size="12" lengthAdjust="spacing" textLength="127" x="1278.7547" y="94.5402">(&#48708;&#54924;&#50896; &#50896;&#51216;&#49688; &#51076;&#49884; &#48372;&#44288;)</text></g><!--entity Batch--><g id="elem_Batch"><rect fill="#FFFFFF" height="64.7522" rx="2.5" ry="2.5" style="stroke:#AFA9EC;stroke-width:1.5;" width="139" x="598.7547" y="393.244"/><rect fill="#FFFFFF" height="10" style="stroke:#AFA9EC;stroke-width:1.5;" width="15" x="717.7547" y="398.244"/><rect fill="#FFFFFF" height="2" style="stroke:#AFA9EC;stroke-width:1.5;" width="4" x="715.7547" y="400.244"/><rect fill="#FFFFFF" height="2" style="stroke:#AFA9EC;stroke-width:1.5;" width="4" x="715.7547" y="404.244"/><text fill="#26215C" font-family="sans-serif" font-size="12" lengthAdjust="spacing" textLength="72" x="613.7547" y="427.1641">Spring Batch</text><text fill="#26215C" font-family="sans-serif" font-size="12" lengthAdjust="spacing" textLength="99" x="613.7547" y="444.5402">&#47564;&#47308; &#53076;&#46300;/&#53664;&#53360; &#49325;&#51228;</text></g><!--entity Controllers--><g id="elem_Controllers"><rect fill="#FFFFFF" height="64.7522" rx="2.5" ry="2.5" style="stroke:#AFA9EC;stroke-width:1.5;" width="231" x="1133.7547" y="230.244"/><rect fill="#FFFFFF" height="10" style="stroke:#AFA9EC;stroke-width:1.5;" width="15" x="1344.7547" y="235.244"/><rect fill="#FFFFFF" height="2" style="stroke:#AFA9EC;stroke-width:1.5;" width="4" x="1342.7547" y="237.244"/><rect fill="#FFFFFF" height="2" style="stroke:#AFA9EC;stroke-width:1.5;" width="4" x="1342.7547" y="241.244"/><text fill="#26215C" font-family="sans-serif" font-size="12" lengthAdjust="spacing" textLength="95" x="1148.7547" y="264.1641">REST Controllers</text><text fill="#26215C" font-family="sans-serif" font-size="12" lengthAdjust="spacing" textLength="191" x="1148.7547" y="281.5402">({&#46020;&#47700;&#51064;}Api + {&#46020;&#47700;&#51064;}V1Controller)</text></g><!--entity Security--><g id="elem_Security"><rect fill="#FFFFFF" height="64.7522" rx="2.5" ry="2.5" style="stroke:#AFA9EC;stroke-width:1.5;" width="144" x="954.2547" y="230.244"/><rect fill="#FFFFFF" height="10" style="stroke:#AFA9EC;stroke-width:1.5;" width="15" x="1078.2547" y="235.244"/><rect fill="#FFFFFF" height="2" style="stroke:#AFA9EC;stroke-width:1.5;" width="4" x="1076.2547" y="237.244"/><rect fill="#FFFFFF" height="2" style="stroke:#AFA9EC;stroke-width:1.5;" width="4" x="1076.2547" y="241.244"/><text fill="#26215C" font-family="sans-serif" font-size="12" lengthAdjust="spacing" textLength="85" x="969.2547" y="264.1641">Spring Security</text><text fill="#26215C" font-family="sans-serif" font-size="12" lengthAdjust="spacing" textLength="104" x="969.2547" y="281.5402">+ Kakao OAuth 2.0</text></g><!--entity Scoring--><g id="elem_Scoring"><rect fill="#FFFFFF" height="64.7522" rx="2.5" ry="2.5" style="stroke:#AFA9EC;stroke-width:1.5;" width="133" x="916.7547" y="393.244"/><rect fill="#FFFFFF" height="10" style="stroke:#AFA9EC;stroke-width:1.5;" width="15" x="1029.7547" y="398.244"/><rect fill="#FFFFFF" height="2" style="stroke:#AFA9EC;stroke-width:1.5;" width="4" x="1027.7547" y="400.244"/><rect fill="#FFFFFF" height="2" style="stroke:#AFA9EC;stroke-width:1.5;" width="4" x="1027.7547" y="404.244"/><text fill="#26215C" font-family="sans-serif" font-size="12" lengthAdjust="spacing" textLength="83" x="931.7547" y="427.1641">ScoringService</text><text fill="#26215C" font-family="sans-serif" font-size="12" lengthAdjust="spacing" textLength="93" x="931.7547" y="444.5402">&#52292;&#51216; + &#48260;&#53431; &#51221;&#44508;&#54868;</text></g><!--entity Cache--><g id="elem_Cache"><rect fill="#FFFFFF" height="64.7522" rx="2.5" ry="2.5" style="stroke:#AFA9EC;stroke-width:1.5;" width="116" x="1465.2547" y="393.244"/><rect fill="#FFFFFF" height="10" style="stroke:#AFA9EC;stroke-width:1.5;" width="15" x="1561.2547" y="398.244"/><rect fill="#FFFFFF" height="2" style="stroke:#AFA9EC;stroke-width:1.5;" width="4" x="1559.2547" y="400.244"/><rect fill="#FFFFFF" height="2" style="stroke:#AFA9EC;stroke-width:1.5;" width="4" x="1559.2547" y="404.244"/><text fill="#26215C" font-family="sans-serif" font-size="12" lengthAdjust="spacing" textLength="76" x="1480.2547" y="427.1641">CacheService</text><text fill="#26215C" font-family="sans-serif" font-size="12" lengthAdjust="spacing" textLength="74" x="1480.2547" y="444.5402">Lazy Caching</text></g><!--entity Llm--><g id="elem_Llm"><rect fill="#FFFFFF" height="64.7522" rx="2.5" ry="2.5" style="stroke:#AFA9EC;stroke-width:1.5;" width="126" x="1616.2547" y="393.244"/><rect fill="#FFFFFF" height="10" style="stroke:#AFA9EC;stroke-width:1.5;" width="15" x="1722.2547" y="398.244"/><rect fill="#FFFFFF" height="2" style="stroke:#AFA9EC;stroke-width:1.5;" width="4" x="1720.2547" y="400.244"/><rect fill="#FFFFFF" height="2" style="stroke:#AFA9EC;stroke-width:1.5;" width="4" x="1720.2547" y="404.244"/><text fill="#26215C" font-family="sans-serif" font-size="12" lengthAdjust="spacing" textLength="62" x="1631.2547" y="427.1641">LlmService</text><text fill="#26215C" font-family="sans-serif" font-size="12" lengthAdjust="spacing" textLength="86" x="1631.2547" y="444.5402">Claude API &#54840;&#52636;</text></g><!--entity Chemistry--><g id="elem_Chemistry"><rect fill="#FFFFFF" height="64.7522" rx="2.5" ry="2.5" style="stroke:#AFA9EC;stroke-width:1.5;" width="139" x="1084.7547" y="393.244"/><rect fill="#FFFFFF" height="10" style="stroke:#AFA9EC;stroke-width:1.5;" width="15" x="1203.7547" y="398.244"/><rect fill="#FFFFFF" height="2" style="stroke:#AFA9EC;stroke-width:1.5;" width="4" x="1201.7547" y="400.244"/><rect fill="#FFFFFF" height="2" style="stroke:#AFA9EC;stroke-width:1.5;" width="4" x="1201.7547" y="404.244"/><text fill="#26215C" font-family="sans-serif" font-size="12" lengthAdjust="spacing" textLength="99" x="1099.7547" y="427.1641">ChemistryService</text><text fill="#26215C" font-family="sans-serif" font-size="12" lengthAdjust="spacing" textLength="93" x="1099.7547" y="444.5402">@Async &#52992;&#48120; &#48156;&#54665;</text></g><!--entity Sse--><g id="elem_Sse"><rect fill="#FFFFFF" height="64.7522" rx="2.5" ry="2.5" style="stroke:#AFA9EC;stroke-width:1.5;" width="128" x="1777.2547" y="393.244"/><rect fill="#FFFFFF" height="10" style="stroke:#AFA9EC;stroke-width:1.5;" width="15" x="1885.2547" y="398.244"/><rect fill="#FFFFFF" height="2" style="stroke:#AFA9EC;stroke-width:1.5;" width="4" x="1883.2547" y="400.244"/><rect fill="#FFFFFF" height="2" style="stroke:#AFA9EC;stroke-width:1.5;" width="4" x="1883.2547" y="404.244"/><text fill="#26215C" font-family="sans-serif" font-size="12" lengthAdjust="spacing" textLength="61" x="1792.2547" y="427.1641">SseService</text><text fill="#26215C" font-family="sans-serif" font-size="12" lengthAdjust="spacing" textLength="88" x="1792.2547" y="444.5402">SseEmitter &#44288;&#47532;</text></g><!--entity Coin--><g id="elem_Coin"><rect fill="#FFFFFF" height="64.7522" rx="2.5" ry="2.5" style="stroke:#AFA9EC;stroke-width:1.5;" width="109" x="772.7547" y="393.244"/><rect fill="#FFFFFF" height="10" style="stroke:#AFA9EC;stroke-width:1.5;" width="15" x="861.7547" y="398.244"/><rect fill="#FFFFFF" height="2" style="stroke:#AFA9EC;stroke-width:1.5;" width="4" x="859.7547" y="400.244"/><rect fill="#FFFFFF" height="2" style="stroke:#AFA9EC;stroke-width:1.5;" width="4" x="859.7547" y="404.244"/><text fill="#26215C" font-family="sans-serif" font-size="12" lengthAdjust="spacing" textLength="66" x="787.7547" y="427.1641">CoinService</text><text fill="#26215C" font-family="sans-serif" font-size="12" lengthAdjust="spacing" textLength="69" x="787.7547" y="444.5402">&#50728;&#46356;&#47592;&#46300; &#52649;&#51204;</text></g><!--entity OtherServices--><g id="elem_OtherServices"><rect fill="#FFFFFF" height="99.5045" rx="2.5" ry="2.5" style="stroke:#AFA9EC;stroke-width:1.5;" width="171" x="1258.7547" y="375.744"/><rect fill="#FFFFFF" height="10" style="stroke:#AFA9EC;stroke-width:1.5;" width="15" x="1409.7547" y="380.744"/><rect fill="#FFFFFF" height="2" style="stroke:#AFA9EC;stroke-width:1.5;" width="4" x="1407.7547" y="382.744"/><rect fill="#FFFFFF" height="2" style="stroke:#AFA9EC;stroke-width:1.5;" width="4" x="1407.7547" y="386.744"/><text fill="#26215C" font-family="sans-serif" font-size="12" lengthAdjust="spacing" textLength="72" x="1273.7547" y="409.6641">&#44592;&#53440; Services</text><text fill="#26215C" font-family="sans-serif" font-size="12" lengthAdjust="spacing" textLength="108" x="1273.7547" y="427.0402">(Auth/User/Result/</text><text fill="#26215C" font-family="sans-serif" font-size="12" lengthAdjust="spacing" textLength="131" x="1273.7547" y="444.4163">Assessment/Statistics/</text><text fill="#26215C" font-family="sans-serif" font-size="12" lengthAdjust="spacing" textLength="131" x="1273.7547" y="461.7925">Colleague/Notification)</text></g><!--entity Repos--><g id="elem_Repos"><rect fill="#FFFFFF" height="47.3761" rx="2.5" ry="2.5" style="stroke:#AFA9EC;stroke-width:1.5;" width="135" x="1086.7547" y="552.744"/><rect fill="#FFFFFF" height="10" style="stroke:#AFA9EC;stroke-width:1.5;" width="15" x="1201.7547" y="557.744"/><rect fill="#FFFFFF" height="2" style="stroke:#AFA9EC;stroke-width:1.5;" width="4" x="1199.7547" y="559.744"/><rect fill="#FFFFFF" height="2" style="stroke:#AFA9EC;stroke-width:1.5;" width="4" x="1199.7547" y="563.744"/><text fill="#26215C" font-family="sans-serif" font-size="12" lengthAdjust="spacing" textLength="95" x="1101.7547" y="586.6641">JPA Repositories</text></g><!--entity DiscCache--><g id="elem_DiscCache"><rect fill="#FFFFFF" height="64.7522" rx="2.5" ry="2.5" style="stroke:#AFA9EC;stroke-width:1.5;" width="102" x="1374.2547" y="748.244"/><rect fill="#FFFFFF" height="10" style="stroke:#AFA9EC;stroke-width:1.5;" width="15" x="1456.2547" y="753.244"/><rect fill="#FFFFFF" height="2" style="stroke:#AFA9EC;stroke-width:1.5;" width="4" x="1454.2547" y="755.244"/><rect fill="#FFFFFF" height="2" style="stroke:#AFA9EC;stroke-width:1.5;" width="4" x="1454.2547" y="759.244"/><text fill="#26215C" font-family="sans-serif" font-size="12" lengthAdjust="spacing" textLength="62" x="1389.2547" y="782.1641">disc_cache</text><text fill="#26215C" font-family="sans-serif" font-size="12" lengthAdjust="spacing" textLength="55" x="1389.2547" y="799.5402">(&#48260;&#53431; &#52880;&#49884;)</text></g><!--entity OtherTables--><g id="elem_OtherTables"><rect fill="#FFFFFF" height="99.5045" rx="2.5" ry="2.5" style="stroke:#AFA9EC;stroke-width:1.5;" width="150" x="1189.2547" y="730.744"/><rect fill="#FFFFFF" height="10" style="stroke:#AFA9EC;stroke-width:1.5;" width="15" x="1319.2547" y="735.744"/><rect fill="#FFFFFF" height="2" style="stroke:#AFA9EC;stroke-width:1.5;" width="4" x="1317.2547" y="737.744"/><rect fill="#FFFFFF" height="2" style="stroke:#AFA9EC;stroke-width:1.5;" width="4" x="1317.2547" y="741.744"/><text fill="#26215C" font-family="sans-serif" font-size="12" lengthAdjust="spacing" textLength="110" x="1204.2547" y="764.6641">tests + disc_results</text><text fill="#26215C" font-family="sans-serif" font-size="12" lengthAdjust="spacing" textLength="60" x="1204.2547" y="782.0402">colleagues</text><text fill="#26215C" font-family="sans-serif" font-size="12" lengthAdjust="spacing" textLength="70" x="1204.2547" y="799.4163">notifications</text><text fill="#26215C" font-family="sans-serif" font-size="12" lengthAdjust="spacing" textLength="79" x="1204.2547" y="816.7925">&#44592;&#53440; 5&#44060; &#53580;&#51060;&#48660;</text></g><!--entity RedisData--><g id="elem_RedisData"><rect fill="#FFFFFF" height="47.3761" rx="2.5" ry="2.5" style="stroke:#AFA9EC;stroke-width:1.5;" width="110" x="2020.2547" y="402.244"/><rect fill="#FFFFFF" height="10" style="stroke:#AFA9EC;stroke-width:1.5;" width="15" x="2110.2547" y="407.244"/><rect fill="#FFFFFF" height="2" style="stroke:#AFA9EC;stroke-width:1.5;" width="4" x="2108.2547" y="409.244"/><rect fill="#FFFFFF" height="2" style="stroke:#AFA9EC;stroke-width:1.5;" width="4" x="2108.2547" y="413.244"/><text fill="#26215C" font-family="sans-serif" font-size="12" lengthAdjust="spacing" textLength="70" x="2035.2547" y="436.1641">@Cacheable</text></g><!--entity ClaudeAPI--><g id="elem_ClaudeAPI"><rect fill="#FFFFFF" height="82.1284" rx="2.5" ry="2.5" style="stroke:#AFA9EC;stroke-width:1.5;" width="150" x="392.2547" y="384.744"/><rect fill="#FFFFFF" height="10" style="stroke:#AFA9EC;stroke-width:1.5;" width="15" x="522.2547" y="389.744"/><rect fill="#FFFFFF" height="2" style="stroke:#AFA9EC;stroke-width:1.5;" width="4" x="520.2547" y="391.744"/><rect fill="#FFFFFF" height="2" style="stroke:#AFA9EC;stroke-width:1.5;" width="4" x="520.2547" y="395.744"/><text fill="#26215C" font-family="sans-serif" font-size="12" lengthAdjust="spacing" textLength="54" x="407.2547" y="418.6641">Anthropic</text><text fill="#26215C" font-family="sans-serif" font-size="12" lengthAdjust="spacing" textLength="61" x="407.2547" y="436.0402">Claude API</text><text fill="#26215C" font-family="sans-serif" font-size="12" lengthAdjust="spacing" textLength="110" x="407.2547" y="453.4163">(claude-sonnet-4-6)</text></g><!--entity Kakao--><g id="elem_Kakao"><rect fill="#FFFFFF" height="47.3761" rx="2.5" ry="2.5" style="stroke:#AFA9EC;stroke-width:1.5;" width="114" x="49.2547" y="402.244"/><rect fill="#FFFFFF" height="10" style="stroke:#AFA9EC;stroke-width:1.5;" width="15" x="143.2547" y="407.244"/><rect fill="#FFFFFF" height="2" style="stroke:#AFA9EC;stroke-width:1.5;" width="4" x="141.2547" y="409.244"/><rect fill="#FFFFFF" height="2" style="stroke:#AFA9EC;stroke-width:1.5;" width="4" x="141.2547" y="413.244"/><text fill="#26215C" font-family="sans-serif" font-size="12" lengthAdjust="spacing" textLength="74" x="64.2547" y="436.1641">Kakao OAuth</text></g><!--entity S3--><g id="elem_S3"><rect fill="#FFFFFF" height="82.1284" rx="2.5" ry="2.5" style="stroke:#AFA9EC;stroke-width:1.5;" width="159" x="198.7547" y="384.744"/><rect fill="#FFFFFF" height="10" style="stroke:#AFA9EC;stroke-width:1.5;" width="15" x="337.7547" y="389.744"/><rect fill="#FFFFFF" height="2" style="stroke:#AFA9EC;stroke-width:1.5;" width="4" x="335.7547" y="391.744"/><rect fill="#FFFFFF" height="2" style="stroke:#AFA9EC;stroke-width:1.5;" width="4" x="335.7547" y="395.744"/><text fill="#26215C" font-family="sans-serif" font-size="12" lengthAdjust="spacing" textLength="42" x="213.7547" y="418.6641">AWS S3</text><text fill="#26215C" font-family="sans-serif" font-size="12" lengthAdjust="spacing" textLength="119" x="213.7547" y="436.0402">&#54532;&#47196;&#54596; &#51060;&#48120;&#51648; Full URL</text><text fill="#26215C" font-family="sans-serif" font-size="12" lengthAdjust="spacing" textLength="30" x="213.7547" y="453.4163">(&#50868;&#50689;)</text></g><g id="elem_GMN55"><path d="M1960.7547,549.744 L1960.7547,603.184 L2129.7547,603.184 L2129.7547,559.744 L2119.7547,549.744 L1960.7547,549.744 " fill="#F5F3FF" style="stroke:#AFA9EC;stroke-width:0.5;"/><path d="M2119.7547,549.744 L2119.7547,559.744 L2129.7547,559.744 L2119.7547,549.744 " fill="#F5F3FF" style="stroke:#AFA9EC;stroke-width:1.0;"/><text fill="#534AB7" font-family="sans-serif" font-size="10" lengthAdjust="spacing" textLength="116" x="1966.7547" y="566.344">&#52880;&#49884; HIT + &#50976;&#54952; &#8594; &#51593;&#49884; &#48152;&#54872;</text><text fill="#534AB7" font-family="sans-serif" font-size="10" lengthAdjust="spacing" textLength="148" x="1966.7547" y="580.824">&#52880;&#49884; HIT + &#47564;&#47308; &#8594; LLM &#8594; UPDATE</text><text fill="#534AB7" font-family="sans-serif" font-size="10" lengthAdjust="spacing" textLength="123" x="1966.7547" y="595.304">&#52880;&#49884; MISS &#8594; LLM &#8594; INSERT</text></g><g id="elem_GMN58"><path d="M2178.7547,399.244 L2178.7547,452.684 L2309.7547,452.684 L2309.7547,409.244 L2299.7547,399.244 L2178.7547,399.244 " fill="#F5F3FF" style="stroke:#AFA9EC;stroke-width:0.5;"/><path d="M2299.7547,399.244 L2299.7547,409.244 L2309.7547,409.244 L2299.7547,399.244 " fill="#F5F3FF" style="stroke:#AFA9EC;stroke-width:1.0;"/><text fill="#534AB7" font-family="sans-serif" font-size="10" lengthAdjust="spacing" textLength="110" x="2184.7547" y="415.844">&#48156;&#54665; &#50836;&#52397; &#8594; 202 &#51593;&#49884; &#48152;&#54872;</text><text fill="#534AB7" font-family="sans-serif" font-size="10" lengthAdjust="spacing" textLength="85" x="2184.7547" y="430.324">@Async&#47196; LLM &#54840;&#52636;</text><text fill="#534AB7" font-family="sans-serif" font-size="10" lengthAdjust="spacing" textLength="69" x="2184.7547" y="444.804">&#50756;&#47308; &#49884; SSE &#54392;&#49884;</text></g><g id="elem_GMN61"><path d="M2164.7547,564.244 L2164.7547,588.724 L2319.7547,588.724 L2319.7547,574.244 L2309.7547,564.244 L2164.7547,564.244 " fill="#F5F3FF" style="stroke:#AFA9EC;stroke-width:0.5;"/><path d="M2309.7547,564.244 L2309.7547,574.244 L2319.7547,574.244 L2309.7547,564.244 " fill="#F5F3FF" style="stroke:#AFA9EC;stroke-width:1.0;"/><text fill="#534AB7" font-family="sans-serif" font-size="10" lengthAdjust="spacing" textLength="134" x="2170.7547" y="580.844">disc_cache @Cacheable &#51204;&#50857;</text></g><g id="elem_GMN64"><path d="M1598.2547,49.244 L1598.2547,102.684 L1740.2547,102.684 L1740.2547,59.244 L1730.2547,49.244 L1598.2547,49.244 " fill="#F5F3FF" style="stroke:#AFA9EC;stroke-width:0.5;"/><path d="M1730.2547,49.244 L1730.2547,59.244 L1740.2547,59.244 L1730.2547,49.244 " fill="#F5F3FF" style="stroke:#AFA9EC;stroke-width:1.0;"/><text fill="#534AB7" font-family="sans-serif" font-size="10" lengthAdjust="spacing" textLength="61" x="1604.2547" y="65.844">&#44060;&#48156; &#54872;&#44221; &#51204;&#50857;.</text><text fill="#534AB7" font-family="sans-serif" font-size="10" lengthAdjust="spacing" textLength="110" x="1604.2547" y="80.324">&#50868;&#50689; &#48176;&#54252; &#49884; &#48708;&#54876;&#49457;&#54868; &#44160;&#53664;.</text><text fill="#534AB7" font-family="sans-serif" font-size="10" lengthAdjust="spacing" textLength="121" x="1604.2547" y="94.804">/swagger-ui, /v3/api-docs</text></g><!--link Swagger to Controllers--><g id="link_Swagger_Controllers"><path d="M1171.0047,108.314 C1171.0047,142.534 1171.0047,190.034 1171.0047,224.234 " fill="none" id="Swagger-to-Controllers" style="stroke:#7F77DD;stroke-width:1.0;"/><polygon fill="#7F77DD" points="1171.0047,230.234,1175.0047,221.234,1171.0047,225.234,1167.0047,221.234,1171.0047,230.234" style="stroke:#7F77DD;stroke-width:1.0;"/><text fill="#534AB7" font-family="sans-serif" font-size="10" lengthAdjust="spacing" textLength="64" x="1172.0047" y="181.874">API &#49688;&#46041; &#53580;&#49828;&#53944;</text><text fill="#534AB7" font-family="sans-serif" font-size="10" lengthAdjust="spacing" textLength="64" x="1172.0047" y="196.354">(&#44060;&#48156; &#54872;&#44221; &#51204;&#50857;)</text></g><!--link NextJS to Controllers--><g id="link_NextJS_Controllers"><path d="M1514.2547,108.624 C1514.2547,159.804 1514.2547,252.744 1514.2547,252.744 C1514.2547,252.744 1442.4047,252.744 1371.1047,252.744 " fill="none" id="NextJS-to-Controllers" style="stroke:#7F77DD;stroke-width:1.0;"/><polygon fill="#7F77DD" points="1365.1047,252.744,1374.1047,256.744,1370.1047,252.744,1374.1047,248.744,1365.1047,252.744" style="stroke:#7F77DD;stroke-width:1.0;"/><text fill="#534AB7" font-family="sans-serif" font-size="10" lengthAdjust="spacing" textLength="63" x="1447.7347" y="249.344">HTTPS / REST</text></g><!--link NextJS to Sse--><g id="link_NextJS_Sse"><path d="M1490.0047,108.354 C1490.0047,135.504 1490.0047,169.744 1490.0047,169.744 C1490.0047,169.744 1862.5847,169.744 1862.5847,169.744 C1862.5847,169.744 1862.5847,318.044 1862.5847,387.064 " fill="none" id="NextJS-to-Sse" style="stroke:#7F77DD;stroke-width:1.0;"/><polygon fill="#7F77DD" points="1862.5847,393.064,1866.5847,384.064,1862.5847,388.064,1858.5847,384.064,1862.5847,393.064" style="stroke:#7F77DD;stroke-width:1.0;"/><text fill="#534AB7" font-family="sans-serif" font-size="10" lengthAdjust="spacing" textLength="123" x="1633.2647" y="152.344">GET /notifications/stream</text><text fill="#534AB7" font-family="sans-serif" font-size="10" lengthAdjust="spacing" textLength="64" x="1662.7647" y="166.824">(SSE &#50672;&#44208; &#50976;&#51648;)</text></g><!--link Session to Controllers--><g id="link_Session_Controllers"><path d="M1314.2547,108.314 C1314.2547,142.534 1314.2547,190.034 1314.2547,224.234 " fill="none" id="Session-to-Controllers" style="stroke:#7F77DD;stroke-width:1.0;"/><polygon fill="#7F77DD" points="1314.2547,230.234,1318.2547,221.234,1314.2547,225.234,1310.2547,221.234,1314.2547,230.234" style="stroke:#7F77DD;stroke-width:1.0;"/><text fill="#534AB7" font-family="sans-serif" font-size="10" lengthAdjust="spacing" textLength="64" x="1249.2547" y="181.874">POST /results</text><text fill="#534AB7" font-family="sans-serif" font-size="10" lengthAdjust="spacing" textLength="53" x="1254.7547" y="196.354">(&#50896;&#51216;&#49688; &#51204;&#49569;)</text></g><!--link Security to Controllers--><g id="link_Security_Controllers"><path d="M1098.3447,262.744 C1109.6747,262.744 1115.6247,262.744 1127.6347,262.744 " fill="none" id="Security-to-Controllers" style="stroke:#7F77DD;stroke-width:1.0;"/><polygon fill="#7F77DD" points="1133.6347,262.744,1124.6347,258.744,1128.6347,262.744,1124.6347,266.744,1133.6347,262.744" style="stroke:#7F77DD;stroke-width:1.0;"/><text fill="#534AB7" font-family="sans-serif" font-size="10" lengthAdjust="spacing" textLength="40" x="1095.9947" y="275.344">&#51064;&#51613;/&#51064;&#44032;</text></g><!--link Controllers to Scoring--><g id="link_Controllers_Scoring"><path d="M1148.7547,295.264 C1148.7547,330.494 1148.7547,381.744 1148.7547,381.744 C1148.7547,381.744 1002.0047,381.744 1002.0047,381.744 C1002.0047,381.744 1002.0047,380.484 1002.0047,386.844 " fill="none" id="Controllers-to-Scoring" style="stroke:#7F77DD;stroke-width:1.0;"/><polygon fill="#7F77DD" points="1002.0047,392.844,1006.0047,383.844,1002.0047,387.844,998.0047,383.844,1002.0047,392.844" style="stroke:#7F77DD;stroke-width:1.0;"/></g><!--link Controllers to Cache--><g id="link_Controllers_Cache"><path d="M1364.8247,273.744 C1445.3847,273.744 1538.5047,273.744 1538.5047,273.744 C1538.5047,273.744 1538.5047,342.474 1538.5047,387.134 " fill="none" id="Controllers-to-Cache" style="stroke:#7F77DD;stroke-width:1.0;"/><polygon fill="#7F77DD" points="1538.5047,393.134,1542.5047,384.134,1538.5047,388.134,1534.5047,384.134,1538.5047,393.134" style="stroke:#7F77DD;stroke-width:1.0;"/></g><!--link Controllers to Chemistry--><g id="link_Controllers_Chemistry"><path d="M1163.7547,295.334 C1163.7547,323.764 1163.7547,358.794 1163.7547,387.204 " fill="none" id="Controllers-to-Chemistry" style="stroke:#7F77DD;stroke-width:1.0;"/><polygon fill="#7F77DD" points="1163.7547,393.204,1167.7547,384.204,1163.7547,388.204,1159.7547,384.204,1163.7547,393.204" style="stroke:#7F77DD;stroke-width:1.0;"/></g><!--link Controllers to OtherServices--><g id="link_Controllers_OtherServices"><path d="M1311.7547,295.334 C1311.7547,318.284 1311.7547,343.444 1311.7547,369.544 " fill="none" id="Controllers-to-OtherServices" style="stroke:#7F77DD;stroke-width:1.0;"/><polygon fill="#7F77DD" points="1311.7547,375.544,1315.7547,366.544,1311.7547,370.544,1307.7547,366.544,1311.7547,375.544" style="stroke:#7F77DD;stroke-width:1.0;"/></g><!--link Scoring to Cache--><g id="link_Scoring_Cache"><path d="M1005.4247,458.424 C1005.4247,478.634 1005.4247,500.744 1005.4247,500.744 C1005.4247,500.744 1468.9247,500.744 1468.9247,500.744 C1468.9247,500.744 1468.9247,484.634 1468.9247,464.424 " fill="none" id="Scoring-to-Cache" style="stroke:#7F77DD;stroke-width:1.0;"/><polygon fill="#7F77DD" points="1468.9247,458.424,1464.9247,467.424,1468.9247,463.424,1472.9247,467.424,1468.9247,458.424" style="stroke:#7F77DD;stroke-width:1.0;"/><text fill="#534AB7" font-family="sans-serif" font-size="10" lengthAdjust="spacing" textLength="47" x="1189.1747" y="497.344">&#48260;&#53431;&#44050; &#51204;&#45804;</text></g><!--link Cache to Llm--><g id="link_Cache_Llm"><path d="M1581.3447,425.744 C1592.6947,425.744 1598.6447,425.744 1610.1447,425.744 " fill="none" id="Cache-to-Llm" style="stroke:#7F77DD;stroke-width:1.0;"/><polygon fill="#7F77DD" points="1616.1447,425.744,1607.1447,421.744,1611.1447,425.744,1607.1447,429.744,1616.1447,425.744" style="stroke:#7F77DD;stroke-width:1.0;"/><text fill="#534AB7" font-family="sans-serif" font-size="10" lengthAdjust="spacing" textLength="56" x="1570.7447" y="438.344">MISS/&#47564;&#47308; &#49884;</text></g><!--link Chemistry to Llm--><g id="link_Chemistry_Llm"><path d="M1208.7547,393.204 C1208.7547,374.924 1208.7547,355.744 1208.7547,355.744 C1208.7547,355.744 1678.2547,355.744 1678.2547,355.744 C1678.2547,355.744 1678.2547,368.924 1678.2547,387.204 " fill="none" id="Chemistry-to-Llm" style="stroke:#7F77DD;stroke-width:1.0;"/><polygon fill="#7F77DD" points="1678.2547,393.204,1682.2547,384.204,1678.2547,388.204,1674.2547,384.204,1678.2547,393.204" style="stroke:#7F77DD;stroke-width:1.0;"/><text fill="#534AB7" font-family="sans-serif" font-size="10" lengthAdjust="spacing" textLength="56" x="1386.5047" y="352.344">@Async &#54840;&#52636;</text></g><!--link Chemistry to Sse--><g id="link_Chemistry_Sse"><path d="M1193.7547,392.994 C1193.7547,367.264 1193.7547,335.744 1193.7547,335.744 C1193.7547,335.744 1819.9247,335.744 1819.9247,335.744 C1819.9247,335.744 1819.9247,361.264 1819.9247,386.994 " fill="none" id="Chemistry-to-Sse" style="stroke:#7F77DD;stroke-width:1.0;"/><polygon fill="#7F77DD" points="1819.9247,392.994,1823.9247,383.994,1819.9247,387.994,1815.9247,383.994,1819.9247,392.994" style="stroke:#7F77DD;stroke-width:1.0;"/><text fill="#534AB7" font-family="sans-serif" font-size="10" lengthAdjust="spacing" textLength="49" x="1456.8347" y="332.344">&#50756;&#47308; &#49884; &#54392;&#49884;</text></g><!--link Coin to OtherServices--><g id="link_Coin_OtherServices"><path d="M827.2547,393.064 C827.2547,391.014 827.2547,389.744 827.2547,389.744 C827.2547,389.744 1105.6647,389.744 1252.5947,389.744 " fill="none" id="Coin-to-OtherServices" style="stroke:#7F77DD;stroke-width:1.0;"/><polygon fill="#7F77DD" points="1258.5947,389.744,1249.5947,385.744,1253.5947,389.744,1249.5947,393.744,1258.5947,389.744" style="stroke:#7F77DD;stroke-width:1.0;"/></g><!--link Scoring to Repos--><g id="link_Scoring_Repos"><path d="M961.0847,458.554 C961.0847,500.774 961.0847,568.744 961.0847,568.744 C961.0847,568.744 1024.9947,568.744 1080.6947,568.744 " fill="none" id="Scoring-to-Repos" style="stroke:#7F77DD;stroke-width:1.0;"/><polygon fill="#7F77DD" points="1086.6947,568.744,1077.6947,564.744,1081.6947,568.744,1077.6947,572.744,1086.6947,568.744" style="stroke:#7F77DD;stroke-width:1.0;"/></g><!--link Cache to Repos--><g id="link_Cache_Repos"><path d="M1472.5847,458.334 C1472.5847,505.904 1472.5847,588.744 1472.5847,588.744 C1472.5847,588.744 1321.2047,588.744 1227.7647,588.744 " fill="none" id="Cache-to-Repos" style="stroke:#7F77DD;stroke-width:1.0;"/><polygon fill="#7F77DD" points="1221.7647,588.744,1230.7647,592.744,1226.7647,588.744,1230.7647,584.744,1221.7647,588.744" style="stroke:#7F77DD;stroke-width:1.0;"/></g><!--link OtherServices to Repos--><g id="link_OtherServices_Repos"><path d="M1299.0047,476.024 C1299.0047,519.954 1299.0047,576.744 1299.0047,576.744 C1299.0047,576.744 1265.6447,576.744 1227.9647,576.744 " fill="none" id="OtherServices-to-Repos" style="stroke:#7F77DD;stroke-width:1.0;"/><polygon fill="#7F77DD" points="1221.9647,576.744,1230.9647,580.744,1226.9647,576.744,1230.9647,572.744,1221.9647,576.744" style="stroke:#7F77DD;stroke-width:1.0;"/></g><!--link Chemistry to Repos--><g id="link_Chemistry_Repos"><path d="M1154.2547,458.404 C1154.2547,486.754 1154.2547,521.144 1154.2547,546.514 " fill="none" id="Chemistry-to-Repos" style="stroke:#7F77DD;stroke-width:1.0;"/><polygon fill="#7F77DD" points="1154.2547,552.514,1158.2547,543.514,1154.2547,547.514,1150.2547,543.514,1154.2547,552.514" style="stroke:#7F77DD;stroke-width:1.0;"/></g><!--link Repos to MySQL--><g id="link_Repos_MySQL"><path d="M1154.2547,600.104 C1154.2547,613.169 1154.2547,630.5009 1154.2547,649.2665 C1154.2547,653.9579 1154.2547,658.7389 1154.2547,663.5653 C1154.2547,665.9785 1154.2547,662.403 1154.2547,664.8333 " fill="none" id="Repos-to-MySQL" style="stroke:#7F77DD;stroke-width:1.0;"/><polygon fill="#7F77DD" points="1154.2547,670.8333,1158.2547,661.8333,1154.2547,665.8333,1150.2547,661.8333,1154.2547,670.8333" style="stroke:#7F77DD;stroke-width:1.0;"/></g><!--link Cache to Redis--><g id="link_Cache_Redis"><path d="M1572.0047,393.044 C1572.0047,388.174 1572.0047,384.744 1572.0047,384.744 C1572.0047,384.744 1675.3172,384.744 1778.6297,384.744 C1830.286,384.744 1881.9422,384.744 1920.6844,384.744 C1940.0555,384.744 1956.1981,384.744 1967.4979,384.744 C1970.3228,384.744 1972.8451,384.744 1975.0395,384.744 C1975.5881,384.744 1970.1162,384.744 1970.6234,384.744 " fill="none" id="Cache-to-Redis" style="stroke:#7F77DD;stroke-width:1.0;"/><polygon fill="#7F77DD" points="1976.6234,384.744,1967.6234,380.744,1971.6234,384.744,1967.6234,388.744,1976.6234,384.744" style="stroke:#7F77DD;stroke-width:1.0;"/><text fill="#534AB7" font-family="sans-serif" font-size="10" lengthAdjust="spacing" textLength="59" x="1734.7547" y="367.344">@Cacheable</text><text fill="#534AB7" font-family="sans-serif" font-size="10" lengthAdjust="spacing" textLength="59" x="1734.7547" y="381.824">(disc_cache)</text></g><!--link Llm to ClaudeAPI--><g id="link_Llm_ClaudeAPI"><path d="M1679.2547,458.484 C1679.2547,487.654 1679.2547,525.744 1679.2547,525.744 C1679.2547,525.744 467.2547,525.744 467.2547,525.744 C467.2547,525.744 467.2547,500.544 467.2547,472.994 " fill="none" id="Llm-to-ClaudeAPI" style="stroke:#7F77DD;stroke-width:1.0;"/><polygon fill="#7F77DD" points="467.2547,466.994,463.2547,475.994,467.2547,471.994,471.2547,475.994,467.2547,466.994" style="stroke:#7F77DD;stroke-width:1.0;"/></g><!--link Security to Kakao--><g id="link_Security_Kakao"><path d="M954.0647,262.744 C737.1847,262.744 106.2547,262.744 106.2547,262.744 C106.2547,262.744 106.2547,350.834 106.2547,396.044 " fill="none" id="Security-to-Kakao" style="stroke:#7F77DD;stroke-width:1.0;"/><polygon fill="#7F77DD" points="106.2547,402.044,110.2547,393.044,106.2547,397.044,102.2547,393.044,106.2547,402.044" style="stroke:#7F77DD;stroke-width:1.0;"/></g><!--link OtherServices to S3--><g id="link_OtherServices_S3"><path d="M1258.3747,378.744 C1005.0047,378.744 278.2547,378.744 278.2547,378.744 C278.2547,378.744 278.2547,374.994 278.2547,378.504 " fill="none" id="OtherServices-to-S3" style="stroke:#7F77DD;stroke-width:1.0;"/><polygon fill="#7F77DD" points="278.2547,384.504,282.2547,375.504,278.2547,379.504,274.2547,375.504,278.2547,384.504" style="stroke:#7F77DD;stroke-width:1.0;"/><text fill="#534AB7" font-family="sans-serif" font-size="10" lengthAdjust="spacing" textLength="56" x="704.4347" y="361.344">&#51060;&#48120;&#51648; &#50629;&#47196;&#46300;</text><text fill="#534AB7" font-family="sans-serif" font-size="10" lengthAdjust="spacing" textLength="64" x="700.4347" y="375.824">(Full URL &#51200;&#51109;)</text></g><!--link Batch to Repos--><g id="link_Batch_Repos"><path d="M668.2547,458.304 C668.2547,504.824 668.2547,584.744 668.2547,584.744 C668.2547,584.744 947.1347,584.744 1080.6747,584.744 " fill="none" id="Batch-to-Repos" style="stroke:#7F77DD;stroke-width:1.0;"/><polygon fill="#7F77DD" points="1086.6747,584.744,1077.6747,580.744,1081.6747,584.744,1077.6747,588.744,1086.6747,584.744" style="stroke:#7F77DD;stroke-width:1.0;"/><text fill="#534AB7" font-family="sans-serif" font-size="10" lengthAdjust="spacing" textLength="76" x="717.2447" y="567.344">&#47564;&#47308; peer_codes</text><text fill="#534AB7" font-family="sans-serif" font-size="10" lengthAdjust="spacing" textLength="116" x="697.2447" y="581.824">&#47564;&#47308; assessment_tokens</text></g><!--link Cache to GMN55--><g id="link_Cache_GMN55"><path d="M1528.7547,458.334 C1528.7547,499.414 1528.7547,564.744 1528.7547,564.744 C1528.7547,564.744 1814.0147,564.744 1960.5447,564.744 " fill="none" id="Cache-GMN55" style="stroke:#7F77DD;stroke-width:1.0;stroke-dasharray:7.0,7.0;"/></g><!--link Chemistry to GMN58--><g id="link_Chemistry_GMN58"><path d="M1178.7547,393.034 C1178.7547,360.614 1178.7547,315.744 1178.7547,315.744 C1178.7547,315.744 2244.2547,315.744 2244.2547,315.744 C2244.2547,315.744 2244.2547,366.564 2244.2547,399.114 " fill="none" id="Chemistry-GMN58" style="stroke:#7F77DD;stroke-width:1.0;stroke-dasharray:7.0,7.0;"/></g><!--link Redis to GMN61--><g id="link_Redis_GMN61"><path d="M2154.5436,467.744 C2158.0951,467.744 2161.1913,467.744 2163.7411,467.744 C2168.8407,467.744 2171.7547,467.744 2171.7547,467.744 C2171.7547,467.744 2171.7547,535.964 2171.7547,564.214 " fill="none" id="Redis-GMN61" style="stroke:#7F77DD;stroke-width:1.0;stroke-dasharray:7.0,7.0;"/></g><!--link Swagger to GMN64--><g id="link_Swagger_GMN64"><path d="M1150.2547,43.234 C1150.2547,33.684 1150.2547,25.744 1150.2547,25.744 C1150.2547,25.744 1669.2547,25.744 1669.2547,25.744 C1669.2547,25.744 1669.2547,37.104 1669.2547,48.984 " fill="none" id="Swagger-GMN64" style="stroke:#7F77DD;stroke-width:1.0;stroke-dasharray:7.0,7.0;"/></g><!--SRC=[pLXVRnj547-_Jp4o3pI2n6dSDBGF2CT_sa2QXfmB3mHLb_CcFchVMdVd5bDLCi6je8tK08OcmQbIjRG9IbKJGXiG_J8y-lQ-0xExT-Uxs94Y95hIf3dlpipE_EQtCtEnhnXcLREq2Yne-fKbYzRCOeQMgGLlvDFydsA74aMogDNAJfwQpenM8P18Lwjb0ceMpb6dPEWmG-ZRO6kcFMmJorXC3DPLZIy8d1mRlEcVFNPwxEHuHed8wBHIfIOn7RYk04psEIk- -0wrYiJoLz7_CxbCk5f09w-OnBRXvCWuhlOVADS23m7IbaMl-I8J-Oc9R3POZEYEfqwb9oUY6zB0g78Z6a4LVTQMo63_SxbSDfyxx7ze-R3_Ot7lKvdKgNVEnBnF1P-SEkPeWPQBSM-AcgCjQ3RvLt3s0nUphPTfhVXV63QfSvJ3u_dKyUo6c1wPgB9X4gTU9K0jfqGLvKtukzN0Rt1_QtJtNfw5BBbAohHAB2XGMhR1MzdsbX-n9mrWprlTJiENVvNVIi2kn27d4WBpCxcimEqJzPgsj8HxbwRcpHD9MtuQhXb3du9cWx_BuGZjPSe6the4fsZ-T3ulpSoGpvsHpsoqeQfpILKz9_Nvylig5x2HfGOrLOTQQ0Nbt3-QtiOA-saLy8TjhRAlru3TRx8xROHrlxlVy3sGUZ4FrAfbc4kOMUf0QkHpE86rOAHIrwlE22zQn2mE9O8RXExrfQkN7lVXjdVx0DnVRl9pNtsMZfL9X2yCVTOYDgAlEOX98c2vI05YF9TJ2v115bkqN2OMpyPrzsxJtMcnpOCRwQe1Rq5auQEJFLa9TaIt7xKfqo7MegOJj19LXUxlk-n1vxy7KGRf9rybUiqodFgy-HPye5tHA5nCrvmIZ8sC-hoH-wXq8uRWPCqsUCdiGq_LARUi4kkgeID3sQzDf2K6w-urlUKNmBP-wBveU-ijQLzAIzMCffT8g3YjVL47leJx4bQ-BIMdovLGBbFMQaK2wTafyDOEsFEs44O9tsY9L0pRiUgXmdjfksxgmFvgkC-Gj9ssz-Ctye10r8_4xZc3pxcAuJWyJ_iDz_6kzDxs_SbGm-n5lBRjjbhkastt-pPMhXssrVHfOPXIl7lGyRvgWA_12SP1Jrx2zfwS8pRsxEIycRRvPQyWJPCgPwhj6BgDwnbE5ssfHf8pr34M3LsmM3BlebCYLc2sBsUpI4WqGqoTzANj_Taqp94gjGqiBGQnXJcn49W9A3EfENfftdIVhBWFLu2zR66OIU_MblTb1zZoKxOb4o34UBq9EsBYGbtzS3h1DyMJB7b5mzOlwporl9hv7Fbp5U-032cB-q7cFt68xTZ89Q5a2QGGFJr019_D22RuqKTwlDjfWtTpXMtkkmUj7bG5RQ5C1bnIVavW7_w-zHqCEXXEN1qT6OTiTXf9jCRMlXmwxgsDmp97q6f2uerF4fRtHCpSlK_3dIogS5Kv1oJO-e7x77jZiurDWDr-95lIHD2IqgPJicZLqADN137MnOTXcvhOZeTF3P_sYvPOHX6k6oa5ObDy5aO_La5DpPjUg-a-Q7i_D853-ko0Tu5yhLo6ItFJU0RRsETuo4kIwiSt4CLgq63tVqRyTjYTpTVTG3YsVQu6dPsp85BOWTthTFSwhtOoKG9dOBX8hvd3xyOyEYjg80u0xjrrGVRRZx0hOpQG_2xd__eQHeIGDzd6pX0FLSuW65eB8iE08iSDEEgKyuN2h0f9u7soNnPh8WHVP-5ShW39s9rCOe4bMaMCEBaGnVOMCcX8ySUKeqwUlOYTEHdU-nEHaGU3klL011MshE01XYrZgUJqMSFcpHvl9l4NPb30qMl6FDj-7LMYMc6KVjyQj2UhrS2TiC4CseqNRn69U0PtUPzVT6zprNtSLFoZ1S2zoFYP8UgoZ7Oxtt5St3kxIdGxrC4M6SdKXIbLJGP5_KvR2NqzMiLlfBBh3bQ8iu6jDttpu7rx84x1dWY77JiI29wLi4dLOqX0X8AoRKLZxj-DdT6l6ucbNnSzwdaXdCfEAc8b51GDJWfYuJxaInYehFS8P5ZiaTIzXYZe75JvUnsyraeq0T7qXyKx97tCRx-0nuFk9IdbfoSivUpUJIplsDZHdqErUkWOrVn_zHx0GPJ3YFW_daj-MIJdguHObtLQv4E4lwI54zXbX-Bx46PUl2alKCUX5Q2BuKWg1nOuFrN06G6BcRUnBNZ17dyZtiGwQrXy3ylvft2vwUaBulUbsMowaEi9yaiP4vYQKNDp1GNVpSHBk- -GIAJm9pB1oi4Ms4QBxJqLocEZOtqUoJkCoHP7-5SPeZULbsd_jXuwjeU3P3b0ZxiHJliT9w9zP9Fbi_NMjlnxn6jxvnz0eJZAmUiymA3EEiBX4_CFejpnxkuA5Fbx-dgRDN_5Dn_exZLmOEQ2aJyLl0t9gwcaLZMGeBhTG-iV]--></g></svg>