<?xml version="1.0" encoding="us-ascii" standalone="no"?><svg xmlns="http://www.w3.org/2000/svg" xmlns:xlink="http://www.w3.org/1999/xlink" contentStyleType="text/css" height="2190px" preserveAspectRatio="none" style="width:1046px;height:2190px;background:#FAFAFA;" version="1.1" viewBox="0 0 1046 2190" width="1046px" zoomAndPan="magnify"><defs/><g><rect fill="#FAFAFA" height="2190" style="stroke:none;stroke-width:1.0;" width="1046" x="0" y="0"/><!--cluster MyCPT ???--><g id="cluster_MyCPT &#49884;&#49828;&#53596;"><rect fill="#EEEDFE" height="1220" rx="2.5" ry="2.5" style="stroke:#534AB7;stroke-width:1.0;" width="934.5" x="106" y="530"/><text fill="#000000" font-family="sans-serif" font-size="14" font-weight="bold" lengthAdjust="spacing" textLength="89" x="528.75" y="548.2399">MyCPT &#49884;&#49828;&#53596;</text></g><!--cluster ?? ??--><g id="cluster_&#44277;&#53685; &#44592;&#45733;"><path d="M132.5,603 L188.5,603 A3.75,3.75 0 0 1 191,605.5 L198,629.2719 L430.5,629.2719 A2.5,2.5 0 0 1 433,631.7719 L433,993.5 A2.5,2.5 0 0 1 430.5,996 L132.5,996 A2.5,2.5 0 0 1 130,993.5 L130,605.5 A2.5,2.5 0 0 1 132.5,603 " fill="#EEF6FF" style="stroke:#534AB7;stroke-width:2.0;"/><line style="stroke:#534AB7;stroke-width:2.0;" x1="130" x2="198" y1="629.2719" y2="629.2719"/><text fill="#3C3489" font-family="sans-serif" font-size="14" font-weight="bold" lengthAdjust="spacing" textLength="55" x="134" y="621.2399">&#44277;&#53685; &#44592;&#45733;</text></g><!--cluster ?? ?? ??--><g id="cluster_&#54924;&#50896; &#51204;&#50857; &#44592;&#45733;"><path d="M470.5,827 L555.5,827 A3.75,3.75 0 0 1 558,829.5 L565,853.2719 L1014,853.2719 A2.5,2.5 0 0 1 1016.5,855.7719 L1016.5,1723.5 A2.5,2.5 0 0 1 1014,1726 L470.5,1726 A2.5,2.5 0 0 1 468,1723.5 L468,829.5 A2.5,2.5 0 0 1 470.5,827 " fill="#F0FDF4" style="stroke:#534AB7;stroke-width:2.0;"/><line style="stroke:#534AB7;stroke-width:2.0;" x1="468" x2="565" y1="853.2719" y2="853.2719"/><text fill="#3C3489" font-family="sans-serif" font-size="14" font-weight="bold" lengthAdjust="spacing" textLength="84" x="472" y="845.2399">&#54924;&#50896; &#51204;&#50857; &#44592;&#45733;</text></g><!--cluster ??? ??--><g id="cluster_&#49884;&#49828;&#53596; &#45236;&#48512;"><path d="M479.5,577 L548.5,577 A3.75,3.75 0 0 1 551,579.5 L558,603.2719 L765.5,603.2719 A2.5,2.5 0 0 1 768,605.7719 L768,800.5 A2.5,2.5 0 0 1 765.5,803 L479.5,803 A2.5,2.5 0 0 1 477,800.5 L477,579.5 A2.5,2.5 0 0 1 479.5,577 " fill="#FFF7ED" style="stroke:#534AB7;stroke-width:2.0;"/><line style="stroke:#534AB7;stroke-width:2.0;" x1="477" x2="558" y1="603.2719" y2="603.2719"/><text fill="#3C3489" font-family="sans-serif" font-size="14" font-weight="bold" lengthAdjust="spacing" textLength="68" x="481" y="595.2399">&#49884;&#49828;&#53596; &#45236;&#48512;</text></g><g id="elem_UC_Test"><ellipse cx="281.397" cy="952.0735" fill="#FFFFFF" rx="62.397" ry="27.5735" style="stroke:#AFA9EC;stroke-width:1.5;"/><text fill="#26215C" font-family="sans-serif" font-size="12" lengthAdjust="spacing" textLength="47" x="257.897" y="946.6175">&#44160;&#49324; &#51025;&#49884;</text><text fill="#26215C" font-family="sans-serif" font-size="12" lengthAdjust="spacing" textLength="72" x="245.397" y="963.9936">&#54943;&#49688; &#51228;&#54620; &#50630;&#51020;</text></g><g id="elem_UC_Result"><ellipse cx="281.72" cy="766.044" fill="#FFFFFF" rx="133.22" ry="29.044" style="stroke:#AFA9EC;stroke-width:1.5;"/><text fill="#26215C" font-family="sans-serif" font-size="12" lengthAdjust="spacing" textLength="47" x="258.22" y="760.588">&#44208;&#44284; &#54869;&#51064;</text><text fill="#26215C" font-family="sans-serif" font-size="12" lengthAdjust="spacing" textLength="182" x="190.72" y="777.9641">DISC &#48516;&#49437; &#183; &#44053;&#51216; &#183; &#50557;&#51216; &#46321; 6&#44060; &#49465;&#49496;</text></g><g id="elem_UC_Save"><ellipse cx="281.4698" cy="859.994" fill="#FFFFFF" rx="135.4698" ry="29.494" style="stroke:#AFA9EC;stroke-width:1.5;"/><text fill="#26215C" font-family="sans-serif" font-size="12" lengthAdjust="spacing" textLength="97" x="232.9698" y="854.5379">&#47196;&#44536;&#51064; &#54980; &#44208;&#44284; &#51200;&#51109;</text><text fill="#26215C" font-family="sans-serif" font-size="12" lengthAdjust="spacing" textLength="188" x="187.4698" y="871.9141">sessionStorage &#50896;&#51216;&#49688; &#8594; &#49436;&#48260; &#51204;&#49569;</text></g><g id="elem_UC_PeerAssess"><ellipse cx="281.4698" cy="671.994" fill="#FFFFFF" rx="135.4698" ry="29.494" style="stroke:#AFA9EC;stroke-width:1.5;"/><text fill="#26215C" font-family="sans-serif" font-size="12" lengthAdjust="spacing" textLength="72" x="245.4698" y="666.5379">&#53440;&#51064; &#54217;&#51221; &#51025;&#49884;</text><text fill="#26215C" font-family="sans-serif" font-size="12" lengthAdjust="spacing" textLength="188" x="187.4698" y="683.9141">&#47553;&#53356; &#51217;&#49549; &#8594; 24&#47928;&#54637; &#8594; &#54588;&#54217;&#51221;&#51088; &#44480;&#49549;</text></g><g id="elem_UC_Login"><ellipse cx="622.4989" cy="885.1998" fill="#FFFFFF" rx="83.9989" ry="19.1998" style="stroke:#AFA9EC;stroke-width:1.5;"/><text fill="#26215C" font-family="sans-serif" font-size="12" lengthAdjust="spacing" textLength="124" x="557.4989" y="889.4098">&#52852;&#52852;&#50724; &#47196;&#44536;&#51064; / &#47196;&#44536;&#50500;&#50883;</text></g><g id="elem_UC_Profile"><ellipse cx="622.3442" cy="1592.0735" fill="#FFFFFF" rx="116.8442" ry="27.5735" style="stroke:#AFA9EC;stroke-width:1.5;"/><text fill="#26215C" font-family="sans-serif" font-size="12" lengthAdjust="spacing" textLength="58" x="593.3442" y="1586.6175">&#54532;&#47196;&#54596; &#49444;&#51221;</text><text fill="#26215C" font-family="sans-serif" font-size="12" lengthAdjust="spacing" textLength="149" x="547.8442" y="1603.9936">&#45769;&#45348;&#51076; &#183; &#49373;&#45380; &#183; &#49457;&#48324; &#183; &#51060;&#48120;&#51648;</text></g><g id="elem_UC_History"><ellipse cx="622.4092" cy="1682.0735" fill="#FFFFFF" rx="103.4092" ry="27.5735" style="stroke:#AFA9EC;stroke-width:1.5;"/><text fill="#26215C" font-family="sans-serif" font-size="12" lengthAdjust="spacing" textLength="72" x="586.4092" y="1676.6175">&#44208;&#44284; &#51060;&#47141; &#51312;&#54924;</text><text fill="#26215C" font-family="sans-serif" font-size="12" lengthAdjust="spacing" textLength="130" x="557.4092" y="1693.9936">&#51088;&#44592; &#54217;&#51221; / &#53440;&#51064; &#54217;&#51221; &#44396;&#48516;</text></g><g id="elem_UC_Stats"><ellipse cx="622.5927" cy="968.9185" fill="#FFFFFF" rx="135.0927" ry="29.4185" style="stroke:#AFA9EC;stroke-width:1.5;"/><text fill="#26215C" font-family="sans-serif" font-size="12" lengthAdjust="spacing" textLength="47" x="599.0927" y="963.4625">&#53685;&#44228; &#48708;&#44368;</text><text fill="#26215C" font-family="sans-serif" font-size="12" lengthAdjust="spacing" textLength="187" x="529.0927" y="980.8386">&#45208;&#51060;&#45824; &#183; &#49457;&#48324; &#44592;&#51456; (&#51088;&#44592; &#54217;&#51221;&#47564; &#51665;&#44228;)</text></g><g id="elem_UC_Trend"><ellipse cx="622.43" cy="1061.0735" fill="#FFFFFF" rx="115.43" ry="27.5735" style="stroke:#AFA9EC;stroke-width:1.5;"/><text fill="#26215C" font-family="sans-serif" font-size="12" lengthAdjust="spacing" textLength="72" x="586.43" y="1055.6175">&#48320;&#54868; &#52628;&#51060; &#51312;&#54924;</text><text fill="#26215C" font-family="sans-serif" font-size="12" lengthAdjust="spacing" textLength="147" x="548.93" y="1072.9936">&#44592;&#44036;&#48324; &#51088;&#44592; &#54217;&#51221; &#54217;&#44512; &#48143; &#52628;&#51060;</text></g><g id="elem_UC_Code"><ellipse cx="622.5147" cy="1154.1029" fill="#FFFFFF" rx="138.5147" ry="30.1029" style="stroke:#AFA9EC;stroke-width:1.5;"/><text fill="#26215C" font-family="sans-serif" font-size="12" lengthAdjust="spacing" textLength="97" x="574.0147" y="1148.6469">&#46041;&#47308; &#52488;&#45824; &#53076;&#46300; &#49373;&#49457;</text><text fill="#26215C" font-family="sans-serif" font-size="12" lengthAdjust="spacing" textLength="196" x="524.5147" y="1166.023">&#45824;&#47928;&#51088;+&#49707;&#51088; 8&#51088;&#47532; &#183; &#45796;&#54924;&#50857; &#183; 7&#51068; &#44081;&#49888;</text></g><g id="elem_UC_ColleagueRegister"><ellipse cx="622.43" cy="1258.8603" fill="#FFFFFF" rx="115.43" ry="39.8603" style="stroke:#AFA9EC;stroke-width:1.5;"/><text fill="#26215C" font-family="sans-serif" font-size="12" lengthAdjust="spacing" textLength="86" x="579.43" y="1244.7162">&#46041;&#47308; &#52488;&#45824; &#48143; &#46321;&#47197;</text><text fill="#26215C" font-family="sans-serif" font-size="12" lengthAdjust="spacing" textLength="147" x="548.93" y="1262.0924">&#47553;&#53356; &#44277;&#50976; &#46608;&#45716; &#53076;&#46300; &#51649;&#51217; &#51077;&#47141;</text><text fill="#26215C" font-family="sans-serif" font-size="12" lengthAdjust="spacing" textLength="122" x="561.43" y="1279.4685">&#49688;&#46973; &#49884; &#50577;&#48169;&#54693; &#44288;&#44228; &#49373;&#49457;</text></g><g id="elem_UC_AssessLink"><ellipse cx="622.5219" cy="1373.8603" fill="#FFFFFF" rx="134.5219" ry="39.8603" style="stroke:#AFA9EC;stroke-width:1.5;"/><text fill="#26215C" font-family="sans-serif" font-size="12" lengthAdjust="spacing" textLength="97" x="574.0219" y="1359.7162">&#53440;&#51064; &#54217;&#51221; &#47553;&#53356; &#49373;&#49457;</text><text fill="#26215C" font-family="sans-serif" font-size="12" lengthAdjust="spacing" textLength="117" x="564.0219" y="1377.0924">'&#45208;&#45716; &#50612;&#46500; &#49324;&#46988;&#51064;&#44032;&#50836;?'</text><text fill="#26215C" font-family="sans-serif" font-size="12" lengthAdjust="spacing" textLength="174" x="535.5219" y="1394.4685">&#51068;&#54924;&#50857; &#53664;&#53360; &#183; 7&#51068; &#47564;&#47308; &#183; &#46972;&#48296; &#51077;&#47141;</text></g><g id="elem_UC_Compat"><ellipse cx="622.729" cy="1488.8603" fill="#FFFFFF" rx="135.229" ry="39.8603" style="stroke:#AFA9EC;stroke-width:1.5;"/><text fill="#26215C" font-family="sans-serif" font-size="12" lengthAdjust="spacing" textLength="108" x="568.729" y="1474.7162">&#46041;&#47308; &#52992;&#48120; &#48372;&#44256;&#49436; &#48156;&#54665;</text><text fill="#26215C" font-family="sans-serif" font-size="12" lengthAdjust="spacing" textLength="175" x="535.229" y="1492.0924">&#46041;&#47308; &#47785;&#47197;&#50640;&#49436; &#45824;&#49345; &#49440;&#53469; &#183; 6&#44060; &#49465;&#49496;</text><text fill="#26215C" font-family="sans-serif" font-size="12" lengthAdjust="spacing" textLength="154" x="545.729" y="1509.4685">@Async LLM &#183; SSE &#50756;&#47308; &#54392;&#49884;</text></g><g id="elem_UC_Notify"><ellipse cx="927.7965" cy="1586.0735" fill="#FFFFFF" rx="72.2965" ry="27.5735" style="stroke:#AFA9EC;stroke-width:1.5;"/><text fill="#26215C" font-family="sans-serif" font-size="12" lengthAdjust="spacing" textLength="72" x="891.7965" y="1580.6175">&#51064;&#50545; &#50508;&#47548; &#54869;&#51064;</text><text fill="#26215C" font-family="sans-serif" font-size="12" lengthAdjust="spacing" textLength="86" x="884.7965" y="1597.9936">&#53364;&#47533; &#49884; &#51593;&#49884; &#49325;&#51228;</text></g><g id="elem_UC_Cache"><ellipse cx="622.5721" cy="655.8603" fill="#FFFFFF" rx="129.5721" ry="39.8603" style="stroke:#AFA9EC;stroke-width:1.5;"/><text fill="#26215C" font-family="sans-serif" font-size="12" lengthAdjust="spacing" textLength="107" x="569.0721" y="641.7162">LLM &#52880;&#49884; &#51312;&#54924; / &#51200;&#51109;</text><text fill="#26215C" font-family="sans-serif" font-size="12" lengthAdjust="spacing" textLength="166" x="539.5721" y="659.0924">D &#183; I &#183; S &#183; C &#48260;&#53431; &#44592;&#48152; (3&#8308; = 81)</text><text fill="#26215C" font-family="sans-serif" font-size="12" lengthAdjust="spacing" textLength="167" x="539.0721" y="676.4685">&#50728;&#46356;&#47592;&#46300; &#47564;&#47308; &#183; &#54665; UPDATE &#44081;&#49888;</text></g><g id="elem_UC_CleanBatch"><ellipse cx="622.43" cy="759.0735" fill="#FFFFFF" rx="115.43" ry="27.5735" style="stroke:#AFA9EC;stroke-width:1.5;"/><text fill="#26215C" font-family="sans-serif" font-size="12" lengthAdjust="spacing" textLength="97" x="573.93" y="753.6175">&#47564;&#47308; &#46041;&#47308; &#53076;&#46300; &#49325;&#51228;</text><text fill="#26215C" font-family="sans-serif" font-size="12" lengthAdjust="spacing" textLength="147" x="548.93" y="770.9936">&#47564;&#47308; &#54217;&#51221; &#53664;&#53360; &#49325;&#51228; &#53685;&#54633; &#49892;&#54665;</text></g><!--entity Guest--><g id="elem_Guest"><ellipse cx="42.5" cy="782" fill="#FFFFFF" rx="8" ry="8" style="stroke:#7F77DD;stroke-width:0.5;"/><path d="M42.5,790 L42.5,817 M29.5,798 L55.5,798 M42.5,817 L29.5,832 M42.5,817 L55.5,832 " fill="none" style="stroke:#7F77DD;stroke-width:0.5;"/><text fill="#3C3489" font-family="sans-serif" font-size="13" font-weight="bold" lengthAdjust="spacing" textLength="36" x="24.5" y="848.58">&#48708;&#54924;&#50896;</text></g><!--entity Member--><g id="elem_Member"><ellipse cx="42.5" cy="2115" fill="#FFFFFF" rx="8" ry="8" style="stroke:#7F77DD;stroke-width:0.5;"/><path d="M42.5,2123 L42.5,2150 M29.5,2131 L55.5,2131 M42.5,2150 L29.5,2165 M42.5,2150 L55.5,2165 " fill="none" style="stroke:#7F77DD;stroke-width:0.5;"/><text fill="#3C3489" font-family="sans-serif" font-size="13" font-weight="bold" lengthAdjust="spacing" textLength="73" x="6" y="2181.58">&#54924;&#50896; (&#52852;&#52852;&#50724;)</text></g><!--entity Batch--><g id="elem_Batch"><ellipse cx="281.5" cy="1774" fill="#FFFFFF" rx="8" ry="8" style="stroke:#7F77DD;stroke-width:0.5;"/><path d="M281.5,1782 L281.5,1809 M268.5,1790 L294.5,1790 M281.5,1809 L268.5,1824 M281.5,1809 L294.5,1824 " fill="none" style="stroke:#7F77DD;stroke-width:0.5;"/><text fill="#3C3489" font-family="sans-serif" font-size="13" font-weight="bold" lengthAdjust="spacing" textLength="75" x="244" y="1840.58">&#48176;&#52824; &#49828;&#52992;&#51460;&#47084;</text></g><g id="elem_GMN45"><path d="M832.5,6 L832.5,88.3999 L1023.5,88.3999 L1023.5,16 L1013.5,6 L832.5,6 " fill="#F5F3FF" style="stroke:#AFA9EC;stroke-width:0.5;"/><path d="M1013.5,6 L1013.5,16 L1023.5,16 L1013.5,6 " fill="#F5F3FF" style="stroke:#AFA9EC;stroke-width:1.0;"/><text fill="#534AB7" font-family="sans-serif" font-size="10" lengthAdjust="spacing" textLength="138" x="838.5" y="22.6">&#52880;&#49884; &#48120;&#49828; &#8594; LLM &#54840;&#52636; &#8594; INSERT</text><text fill="#534AB7" font-family="sans-serif" font-size="10" lengthAdjust="spacing" textLength="118" x="838.5" y="37.08">&#52880;&#49884; &#55176;&#53944; + &#50976;&#54952; &#8594; &#51593;&#49884; &#48152;&#54872;</text><text fill="#534AB7" font-family="sans-serif" font-size="10" lengthAdjust="spacing" textLength="170" x="838.5" y="51.56">&#52880;&#49884; &#55176;&#53944; + &#47564;&#47308; &#8594; LLM &#54840;&#52636; &#8594; UPDATE</text><text fill="#534AB7" font-family="sans-serif" font-size="10" lengthAdjust="spacing" textLength="125" x="838.5" y="66.0399">&#48372;&#44256;&#49436; &#50896;&#47928;&#50640; &#51060;&#47492; &#48120;&#54252;&#54632; &#51200;&#51109;</text><text fill="#534AB7" font-family="sans-serif" font-size="10" lengthAdjust="spacing" textLength="78" x="838.5" y="80.5199">&#47116;&#45908;&#47553; &#49884; &#51060;&#47492; &#49341;&#51077;</text></g><g id="elem_GMN48"><path d="M821,432 L821,514.3999 L1035,514.3999 L1035,442 L1025,432 L821,432 " fill="#F5F3FF" style="stroke:#AFA9EC;stroke-width:0.5;"/><path d="M1025,432 L1025,442 L1035,442 L1025,432 " fill="#F5F3FF" style="stroke:#AFA9EC;stroke-width:1.0;"/><text fill="#534AB7" font-family="sans-serif" font-size="10" lengthAdjust="spacing" textLength="171" x="827" y="448.6">&#52880;&#49905; &#50630;&#51060; &#47588;&#48264; &#49892;&#49884;&#44036; LLM &#54840;&#52636; (@Async)</text><text fill="#534AB7" font-family="sans-serif" font-size="10" lengthAdjust="spacing" textLength="161" x="827" y="463.08">&#48156;&#54665; &#51593;&#49884; 202 &#48152;&#54872; &#8594; &#50756;&#47308; &#49884; SSE &#54392;&#49884;</text><text fill="#534AB7" font-family="sans-serif" font-size="10" lengthAdjust="spacing" textLength="193" x="827" y="477.56">DISC &#48260;&#53431; &#49828;&#45253;&#49399; &#48120;&#51200;&#51109; (&#48372;&#44256;&#49436; &#53581;&#49828;&#53944;&#47196; &#52649;&#48516;)</text><text fill="#534AB7" font-family="sans-serif" font-size="10" lengthAdjust="spacing" textLength="98" x="827" y="492.0399">&#53076;&#51064; &#52649;&#51204;: &#52488;&#44592; 3&#44060; &#51648;&#44553;</text><text fill="#534AB7" font-family="sans-serif" font-size="10" lengthAdjust="spacing" textLength="154" x="827" y="506.5199">&#51060;&#54980; 24h&#47560;&#45796; +1 (&#50728;&#46356;&#47592;&#46300;), &#52572;&#45824; 3&#44060;</text></g><g id="elem_GMN51"><path d="M864,211.5 L864,264.94 L992,264.94 L992,221.5 L982,211.5 L864,211.5 " fill="#F5F3FF" style="stroke:#AFA9EC;stroke-width:0.5;"/><path d="M982,211.5 L982,221.5 L992,221.5 L982,211.5 " fill="#F5F3FF" style="stroke:#AFA9EC;stroke-width:1.0;"/><text fill="#534AB7" font-family="sans-serif" font-size="10" lengthAdjust="spacing" textLength="96" x="870" y="228.1">&#48372;&#50504;: 7&#51068; &#51452;&#44592; &#44081;&#49888;&#51004;&#47196;</text><text fill="#534AB7" font-family="sans-serif" font-size="10" lengthAdjust="spacing" textLength="107" x="870" y="242.58">&#53076;&#46300; &#50976;&#52628;&#47484; &#53685;&#54620; &#53440;&#51064; &#49457;&#54693;</text><text fill="#534AB7" font-family="sans-serif" font-size="10" lengthAdjust="spacing" textLength="38" x="870" y="257.06">&#50676;&#46988; &#48169;&#51648;</text></g><g id="elem_GMN54"><path d="M856,299.5 L856,396.3799 L1000,396.3799 L1000,309.5 L990,299.5 L856,299.5 " fill="#F5F3FF" style="stroke:#AFA9EC;stroke-width:0.5;"/><path d="M990,299.5 L990,309.5 L1000,309.5 L990,299.5 " fill="#F5F3FF" style="stroke:#AFA9EC;stroke-width:1.0;"/><text fill="#534AB7" font-family="sans-serif" font-size="10" lengthAdjust="spacing" textLength="94" x="862" y="316.1">&#51068;&#54924;&#50857; &#53664;&#53360; (CHAR 32)</text><text fill="#534AB7" font-family="sans-serif" font-size="10" lengthAdjust="spacing" textLength="38" x="862" y="330.58">&#47564;&#47308;: 7&#51068;</text><text fill="#534AB7" font-family="sans-serif" font-size="10" lengthAdjust="spacing" textLength="114" x="862" y="345.06">used=TRUE &#49884; &#51116;&#51217;&#49549; &#52264;&#45800;</text><text fill="#534AB7" font-family="sans-serif" font-size="10" lengthAdjust="spacing" textLength="96" x="862" y="359.5399">&#46972;&#48296;&#47196; &#54217;&#51221;&#51088; &#49885;&#48324; &#44032;&#45733;</text><text fill="#534AB7" font-family="sans-serif" font-size="10" lengthAdjust="spacing" textLength="114" x="862" y="374.0199">&#44208;&#44284;&#45716; &#54588;&#54217;&#51221;&#51088; &#44228;&#51221;&#50640; &#44480;&#49549;</text><text fill="#534AB7" font-family="sans-serif" font-size="10" lengthAdjust="spacing" textLength="123" x="862" y="388.4999">&#45572;&#44032; &#54217;&#51221;&#54664;&#45716;&#51648; &#51200;&#51109;&#54616;&#51648; &#50506;&#51020;</text></g><g id="elem_GMN57"><path d="M139,446 L139,513.9199 L424,513.9199 L424,456 L414,446 L139,446 " fill="#F5F3FF" style="stroke:#AFA9EC;stroke-width:0.5;"/><path d="M414,446 L414,456 L424,456 L414,446 " fill="#F5F3FF" style="stroke:#AFA9EC;stroke-width:1.0;"/><text fill="#534AB7" font-family="sans-serif" font-size="10" lengthAdjust="spacing" textLength="264" x="145" y="462.6">&#48708;&#54924;&#50896;: DISC &#50896;&#51216;&#49688;&#47484; &#53364;&#46972;&#51060;&#50616;&#53944; sessionStorage&#50640; &#51076;&#49884; &#48372;&#44288;</text><text fill="#534AB7" font-family="sans-serif" font-size="10" lengthAdjust="spacing" textLength="122" x="145" y="477.08">&#49436;&#48260; &#49464;&#49496; &#48120;&#48156;&#44553; (&#54540;&#47084;&#46377; &#48169;&#50612;)</text><text fill="#534AB7" font-family="sans-serif" font-size="10" lengthAdjust="spacing" textLength="163" x="145" y="491.56">&#47196;&#44536;&#51064; &#54980; &#50896;&#51216;&#49688;&#47484; &#49436;&#48260;&#47196; &#51204;&#49569;&#54616;&#50668; &#51200;&#51109;</text><text fill="#534AB7" font-family="sans-serif" font-size="10" lengthAdjust="spacing" textLength="176" x="145" y="506.0399">&#53685;&#44228; &#48152;&#50689; &#48143; &#44208;&#44284; &#51200;&#51109;&#51008; &#47196;&#44536;&#51064; &#54980;&#50640;&#47564; &#44032;&#45733;</text></g><g id="elem_GMN60"><path d="M179.5,357.5 L179.5,410.94 L383.5,410.94 L383.5,367.5 L373.5,357.5 L179.5,357.5 " fill="#F5F3FF" style="stroke:#AFA9EC;stroke-width:0.5;"/><path d="M373.5,357.5 L373.5,367.5 L383.5,367.5 L373.5,357.5 " fill="#F5F3FF" style="stroke:#AFA9EC;stroke-width:1.0;"/><text fill="#534AB7" font-family="sans-serif" font-size="10" lengthAdjust="spacing" textLength="145" x="185.5" y="374.1">sessionStorage&#51032; DISC &#50896;&#51216;&#49688;&#47484;</text><text fill="#534AB7" font-family="sans-serif" font-size="10" lengthAdjust="spacing" textLength="95" x="185.5" y="388.58">POST /results &#47196; &#51204;&#49569;</text><text fill="#534AB7" font-family="sans-serif" font-size="10" lengthAdjust="spacing" textLength="183" x="185.5" y="403.06">&#49436;&#48260;&#44032; &#48260;&#53431;&#44050; &#49328;&#52636; &#54980; test_results INSERT</text></g><g id="elem_GMN63"><path d="M831,123.5 L831,176.94 L1025,176.94 L1025,133.5 L1015,123.5 L831,123.5 " fill="#F5F3FF" style="stroke:#AFA9EC;stroke-width:0.5;"/><path d="M1015,123.5 L1015,133.5 L1025,133.5 L1015,123.5 " fill="#F5F3FF" style="stroke:#AFA9EC;stroke-width:1.0;"/><text fill="#534AB7" font-family="sans-serif" font-size="10" lengthAdjust="spacing" textLength="129" x="837" y="140.1">&#49373;&#45380;/&#49457;&#48324; &#51077;&#47141; &#54924;&#50896;&#47564; &#48708;&#44368; &#44032;&#45733;</text><text fill="#534AB7" font-family="sans-serif" font-size="10" lengthAdjust="spacing" textLength="164" x="837" y="154.58">&#48120;&#51077;&#47141; &#49884; "&#51221;&#48372; &#51077;&#47141;&#54616;&#44256; &#48708;&#44368;&#54616;&#44592;" &#50504;&#45236;</text><text fill="#534AB7" font-family="sans-serif" font-size="10" lengthAdjust="spacing" textLength="173" x="837" y="169.06">&#51088;&#44592; &#54217;&#51221;(rater_type=SELF) &#44208;&#44284;&#47564; &#51665;&#44228;</text></g><!--link Guest to UC_Test--><g id="link_Guest_UC_Test"><path d="M48.5,852.66 C48.5,890.84 48.5,942.83 48.5,942.83 C48.5,942.83 147.37,942.83 216.4,942.83 " fill="none" id="Guest-to-UC_Test" style="stroke:#7F77DD;stroke-width:1.0;"/><polygon fill="#7F77DD" points="222.4,942.83,213.4,938.83,217.4,942.83,213.4,946.83,222.4,942.83" style="stroke:#7F77DD;stroke-width:1.0;"/></g><!--link Guest to UC_Result--><g id="link_Guest_UC_Result"><path d="M60.86,784.25 C86.11,784.25 127.49,784.25 171.89,784.25 " fill="none" id="Guest-to-UC_Result" style="stroke:#7F77DD;stroke-width:1.0;"/><polygon fill="#7F77DD" points="177.89,784.25,168.89,780.25,172.89,784.25,168.89,788.25,177.89,784.25" style="stroke:#7F77DD;stroke-width:1.0;"/></g><!--link Guest to UC_Save--><g id="link_Guest_UC_Save"><path d="M60.86,841.5 C85.72,841.5 126.06,841.5 169.87,841.5 " fill="none" id="Guest-to-UC_Save" style="stroke:#7F77DD;stroke-width:1.0;"/><polygon fill="#7F77DD" points="175.87,841.5,166.87,837.5,170.87,841.5,166.87,845.5,175.87,841.5" style="stroke:#7F77DD;stroke-width:1.0;"/></g><!--link Guest to UC_PeerAssess--><g id="link_Guest_UC_PeerAssess"><path d="M42.5,773.35 C42.5,731.64 42.5,672 42.5,672 C42.5,672 86,672 139.94,672 " fill="none" id="Guest-to-UC_PeerAssess" style="stroke:#7F77DD;stroke-width:1.0;"/><polygon fill="#7F77DD" points="145.94,672,136.94,668,140.94,672,136.94,676,145.94,672" style="stroke:#7F77DD;stroke-width:1.0;"/></g><!--link Member to UC_Test--><g id="link_Member_UC_Test"><path d="M63.5,2106.24 C63.5,1899.96 63.5,961.17 63.5,961.17 C63.5,961.17 151.94,961.17 216.51,961.17 " fill="none" id="Member-to-UC_Test" style="stroke:#7F77DD;stroke-width:1.0;"/><polygon fill="#7F77DD" points="222.51,961.17,213.51,957.17,217.51,961.17,213.51,965.17,222.51,961.17" style="stroke:#7F77DD;stroke-width:1.0;"/></g><!--link Member to UC_Result--><g id="link_Member_UC_Result"><path d="M15.5,2106.25 C15.5,1879.07 15.5,755.25 15.5,755.25 C15.5,755.25 82.38,755.25 151.84,755.25 " fill="none" id="Member-to-UC_Result" style="stroke:#7F77DD;stroke-width:1.0;"/><polygon fill="#7F77DD" points="157.84,755.25,148.84,751.25,152.84,755.25,148.84,759.25,157.84,755.25" style="stroke:#7F77DD;stroke-width:1.0;"/></g><!--link Member to UC_Login--><g id="link_Member_UC_Login"><path d="M36.5,2106.2 C36.5,1893.11 36.5,896.75 36.5,896.75 C36.5,896.75 397.16,896.75 550.42,896.75 " fill="none" id="Member-to-UC_Login" style="stroke:#7F77DD;stroke-width:1.0;"/><polygon fill="#7F77DD" points="556.42,896.75,547.42,892.75,551.42,896.75,547.42,900.75,556.42,896.75" style="stroke:#7F77DD;stroke-width:1.0;"/></g><!--link Member to UC_Profile--><g id="link_Member_UC_Profile"><path d="M75.5,2106.16 C75.5,1979.13 75.5,1592 75.5,1592 C75.5,1592 338.8,1592 499.49,1592 " fill="none" id="Member-to-UC_Profile" style="stroke:#7F77DD;stroke-width:1.0;"/><polygon fill="#7F77DD" points="505.49,1592,496.49,1588,500.49,1592,496.49,1596,505.49,1592" style="stroke:#7F77DD;stroke-width:1.0;"/></g><!--link Member to UC_History--><g id="link_Member_UC_History"><path d="M77.5,2106.44 C77.5,1994.23 77.5,1682 77.5,1682 C77.5,1682 354.58,1682 512.71,1682 " fill="none" id="Member-to-UC_History" style="stroke:#7F77DD;stroke-width:1.0;"/><polygon fill="#7F77DD" points="518.71,1682,509.71,1678,513.71,1682,509.71,1686,518.71,1682" style="stroke:#7F77DD;stroke-width:1.0;"/></g><!--link Member to UC_Stats--><g id="link_Member_UC_Stats"><path d="M65.5,2106.17 C65.5,1902.73 65.5,989 65.5,989 C65.5,989 357.1,989 517.24,989 " fill="none" id="Member-to-UC_Stats" style="stroke:#7F77DD;stroke-width:1.0;"/><polygon fill="#7F77DD" points="523.24,989,514.24,985,518.24,989,514.24,993,523.24,989" style="stroke:#7F77DD;stroke-width:1.0;"/></g><!--link Member to UC_Trend--><g id="link_Member_UC_Trend"><path d="M67.5,2106.42 C67.5,1911.29 67.5,1061 67.5,1061 C67.5,1061 338.17,1061 500.83,1061 " fill="none" id="Member-to-UC_Trend" style="stroke:#7F77DD;stroke-width:1.0;"/><polygon fill="#7F77DD" points="506.83,1061,497.83,1057,501.83,1061,497.83,1065,506.83,1061" style="stroke:#7F77DD;stroke-width:1.0;"/></g><!--link Member to UC_Code--><g id="link_Member_UC_Code"><path d="M69.5,2106.19 C69.5,1921.15 69.5,1154 69.5,1154 C69.5,1154 313.86,1154 477.67,1154 " fill="none" id="Member-to-UC_Code" style="stroke:#7F77DD;stroke-width:1.0;"/><polygon fill="#7F77DD" points="483.67,1154,474.67,1150,478.67,1154,474.67,1158,483.67,1154" style="stroke:#7F77DD;stroke-width:1.0;"/></g><!--link Member to UC_ColleagueRegister--><g id="link_Member_UC_ColleagueRegister"><path d="M71.5,2106.45 C71.5,1934.32 71.5,1259 71.5,1259 C71.5,1259 339.42,1259 500.99,1259 " fill="none" id="Member-to-UC_ColleagueRegister" style="stroke:#7F77DD;stroke-width:1.0;"/><polygon fill="#7F77DD" points="506.99,1259,497.99,1255,501.99,1259,497.99,1263,506.99,1259" style="stroke:#7F77DD;stroke-width:1.0;"/></g><!--link Member to UC_AssessLink--><g id="link_Member_UC_AssessLink"><path d="M73.5,2106.39 C73.5,1948.69 73.5,1374 73.5,1374 C73.5,1374 319.31,1374 481.85,1374 " fill="none" id="Member-to-UC_AssessLink" style="stroke:#7F77DD;stroke-width:1.0;"/><polygon fill="#7F77DD" points="487.85,1374,478.85,1370,482.85,1374,478.85,1378,487.85,1374" style="stroke:#7F77DD;stroke-width:1.0;"/></g><!--link Member to UC_Compat--><g id="link_Member_UC_Compat"><path d="M79.27,2132.83 C187.35,2132.83 496.5,2132.83 496.5,2132.83 C496.5,2132.83 496.5,1605.49 496.5,1509.66 " fill="none" id="Member-to-UC_Compat" style="stroke:#7F77DD;stroke-width:1.0;"/><polygon fill="#7F77DD" points="496.5,1503.66,492.5,1512.66,496.5,1508.66,500.5,1512.66,496.5,1503.66" style="stroke:#7F77DD;stroke-width:1.0;"/><text fill="#534AB7" font-family="sans-serif" font-size="10" lengthAdjust="spacing" textLength="55" x="440.5" y="2039.46">&#53076;&#51064; 1&#44060; &#49548;&#47784;</text></g><!--link Member to UC_Notify--><g id="link_Member_UC_Notify"><path d="M79.16,2159.17 C246.37,2159.17 928.5,2159.17 928.5,2159.17 C928.5,2159.17 928.5,1734.14 928.5,1619.65 " fill="none" id="Member-to-UC_Notify" style="stroke:#7F77DD;stroke-width:1.0;"/><polygon fill="#7F77DD" points="928.5,1613.65,924.5,1622.65,928.5,1618.65,932.5,1622.65,928.5,1613.65" style="stroke:#7F77DD;stroke-width:1.0;"/></g><!--link Batch to UC_CleanBatch--><g id="link_Batch_UC_CleanBatch"><path d="M319.42,1805 C373.02,1805 464.5,1805 464.5,1805 C464.5,1805 464.5,770 464.5,770 C464.5,770 481.65,770 510.24,770 " fill="none" id="Batch-to-UC_CleanBatch" style="stroke:#7F77DD;stroke-width:1.0;"/><polygon fill="#7F77DD" points="516.24,770,507.24,766,511.24,770,507.24,774,516.24,770" style="stroke:#7F77DD;stroke-width:1.0;"/><text fill="#534AB7" font-family="sans-serif" font-size="10" lengthAdjust="spacing" textLength="47" x="416.5" y="1346.77">&#51452;&#44592;&#51201; &#49892;&#54665;</text></g><!--link UC_Result to UC_Cache--><g id="link_UC_Result_UC_Cache"><path d="M401.57,753.5 C452.58,753.5 500.5,753.5 500.5,753.5 C500.5,753.5 500.5,702.35 500.5,675.56 " fill="none" id="UC_Result-to-UC_Cache" style="stroke:#7F77DD;stroke-width:1.0;stroke-dasharray:7.0,7.0;"/><polygon fill="#7F77DD" points="500.5,669.56,496.5,678.56,500.5,674.56,504.5,678.56,500.5,669.56" style="stroke:#7F77DD;stroke-width:1.0;"/><text fill="#534AB7" font-family="sans-serif" font-size="10" lengthAdjust="spacing" textLength="45" x="447.01" y="766.1">&#171;include&#187;</text></g><!--link UC_Save to UC_Login--><g id="link_UC_Save_UC_Login"><path d="M389.86,877.75 C440.18,877.75 492.86,877.75 538.69,877.75 " fill="none" id="UC_Save-to-UC_Login" style="stroke:#7F77DD;stroke-width:1.0;stroke-dasharray:7.0,7.0;"/><polygon fill="#7F77DD" points="544.69,877.75,535.69,873.75,539.69,877.75,535.69,881.75,544.69,877.75" style="stroke:#7F77DD;stroke-width:1.0;"/><text fill="#534AB7" font-family="sans-serif" font-size="10" lengthAdjust="spacing" textLength="45" x="421.28" y="890.35">&#171;include&#187;</text></g><!--link UC_Compat to UC_Notify--><g id="link_UC_Compat_UC_Notify"><path d="M748.5,1503.76 C748.5,1531.57 748.5,1589 748.5,1589 C748.5,1589 799.89,1589 849.77,1589 " fill="none" id="UC_Compat-to-UC_Notify" style="stroke:#7F77DD;stroke-width:1.0;stroke-dasharray:7.0,7.0;"/><polygon fill="#7F77DD" points="855.77,1589,846.77,1585,850.77,1589,846.77,1593,855.77,1589" style="stroke:#7F77DD;stroke-width:1.0;"/><text fill="#534AB7" font-family="sans-serif" font-size="10" lengthAdjust="spacing" textLength="45" x="760.51" y="1601.6">&#171;include&#187;</text></g><!--link UC_Cache to GMN45--><g id="link_UC_Cache_GMN45"><path d="M622.5,615.57 C622.5,479.55 622.5,47 622.5,47 C622.5,47 742.58,47 832.18,47 " fill="none" id="UC_Cache-GMN45" style="stroke:#7F77DD;stroke-width:1.0;stroke-dasharray:7.0,7.0;"/></g><!--link UC_Compat to GMN48--><g id="link_UC_Compat_GMN48"><path d="M757.76,1489 C801.29,1489 838.5,1489 838.5,1489 C838.5,1489 838.5,704.16 838.5,514.09 " fill="none" id="UC_Compat-GMN48" style="stroke:#7F77DD;stroke-width:1.0;stroke-dasharray:7.0,7.0;"/></g><!--link UC_Code to GMN51--><g id="link_UC_Code_GMN51"><path d="M761.29,1154 C779.22,1154 791.5,1154 791.5,1154 C791.5,1154 791.5,238 791.5,238 C791.5,238 828.34,238 863.75,238 " fill="none" id="UC_Code-GMN51" style="stroke:#7F77DD;stroke-width:1.0;stroke-dasharray:7.0,7.0;"/></g><!--link UC_AssessLink to GMN54--><g id="link_UC_AssessLink_GMN54"><path d="M757.19,1374 C785.25,1374 806.5,1374 806.5,1374 C806.5,1374 806.5,377 806.5,377 C806.5,377 829.76,377 855.92,377 " fill="none" id="UC_AssessLink-GMN54" style="stroke:#7F77DD;stroke-width:1.0;stroke-dasharray:7.0,7.0;"/></g><!--link UC_Test to GMN57--><g id="link_UC_Test_GMN57"><path d="M324.72,932 C365.52,932 420.5,932 420.5,932 C420.5,932 420.5,619.83 420.5,514.34 " fill="none" id="UC_Test-GMN57" style="stroke:#7F77DD;stroke-width:1.0;stroke-dasharray:7.0,7.0;"/></g><!--link UC_Save to GMN60--><g id="link_UC_Save_GMN60"><path d="M405.87,848.25 C428.18,848.25 444.5,848.25 444.5,848.25 C444.5,848.25 444.5,403.5 444.5,403.5 C444.5,403.5 416.55,403.5 383.8,403.5 " fill="none" id="UC_Save-GMN60" style="stroke:#7F77DD;stroke-width:1.0;stroke-dasharray:7.0,7.0;"/></g><!--link UC_Stats to GMN63--><g id="link_UC_Stats_GMN63"><path d="M757.62,969 C769.13,969 776.5,969 776.5,969 C776.5,969 776.5,150 776.5,150 C776.5,150 801.26,150 830.77,150 " fill="none" id="UC_Stats-GMN63" style="stroke:#7F77DD;stroke-width:1.0;stroke-dasharray:7.0,7.0;"/></g><!--SRC=[bLTRJnjN47xthpXo7mfAcmH3GXerQOcnsqWaZJ1vGueSim4hpcvaBwreLMaD2pBWAD3QO8XD7TNSMg8kO89JEI_zANdSS_O_TEQSisllXf2MHB1xBZFVp7npsOpoI2UwHhBfoIcTJAIpIafFQseezpYjFarcaq_8msJgyMHMcrOdebf6ov9FuaFuBzHr99dIOUEd426ttZlCVt17oqueMRaw61yS71w6rRYcwdAjFze_SEqBkPP8_wYGldxtJP_9AEIXbfa8_TojTpgdf98vvVze1kHVnA9-pP6haRuhKP_cY7TlR2gTUgmgkHpfktW5LeUoMUs7e1byiKlYbVw1eLk3tHj2x6K__gU0EJdv0VonM6mu7WlYzoG7qKK-wis1ZtXJrVGFkV9AlF-_kTA3zq6RCsbLqMUUAaJBwbDQA2Iu4wPlJ6Upo5wiX4aoHxwPLdAwkoNMIGzxqyJ_bKOlFtD7UV9GoNhtBOkzgH2sr61jWpLC-ji1FtKhgQUcGY6aTLAT1Bl3TsQYzyO8Mwx2MMU-6WQJ0QyRYh1zVE8id12xPT6bxJ268Nur7kT-8HxXmlQHmMOF2AkjWg1nrTdyZHL0UxtgbAk4hI-mMf6hlnzzC8Qc12vRzd6RE1jbLckDgyEt4r52NvlCh95_JebjbLbz1PzO-Iq-qLyFoLNR0hdc6pPVSUMEAhdfJ40oVLcrJriWbJWlJ2BriBh1jhR7rHpG158x0Vv2Iy6d81rXlrlu1MHNwP49PqssyD9LaKX-h_WLE7C6b_vyaTNBdlbqD-_amHlrLRRmZ8kB3D23bbD-nL-SKbjSO5ihn3uru92huPwYP8ToY0pq_EmBX0mx8jhSxyGZVZa-71y8niFZ1kcuu9BxN3RPYpbNuuWscLO3HfLCEEcKmNop0J31eEL52ezR9W_3N8tEYoVpa1wBfrgJ_jLYkuPdI5PxbCuePmOQ3zUt2NjfWKtZAdW1h75zU8duVMgV700NNB7VfdCGhfa0teKJ6s10ojWdAm1sje8QYaONH5306WRaJBSkkbiaR7SLxlPw4TQJUYx0eMF3sIWHzhe4KZtG8CMsJ1JjXmz_xDCweTPpUSEZVLPH9mAIds_Gtm52iu1WsTiI_RMAtWNCO4NH0Cg0y0kiy2SIvHhyeZi7Q1HTRY0RW0RmCiXgRKYIGxPSTtL5jGdbF5M83hA8lgnvN8KqPrN0NLcXIoKFosuUE0mMpaEy85252gsznL91sDegjVQTjMrYDmrqle3T0P39ACd9QMLKcOI8GLaw9slSR966VmhnunZMcdIjGQ2iqAqY7BSjWssMlleKSDJQqdndeUxaBSyB452q4ZrKQzEZFOdSHIKIQoIjFZxREMq3E4peSTC-haF-WvkgpjeYk4Ziqp_smMDiVONl5GqsbmTwrPqvNgQwAjAu-lLGRaPDaP6HExYLICG8sp1HXhFQ0lTrtFJaQJ9Gii1ILZw4MbUaEvsQwEIRTEULSFtE8lyp-mhAgolfhgQd7ysyLpEygaxeR9E-Di9y31YC3GVh1I9bVwzmmPpXa8TkdHn66svpG_0NrEOZqvazvIN8gf2U_dVv9hb1hlNrGcWgUxHKehjxI9zEEC2DvFwzuQ6nM92foTHKaAhYbXiKoKHkBRALRxh99i8lDk7jn2dlWuyQeCvJ03nKHTD3vu1xU2ybvFFFRthToBya6ub_aPT-_r9NhGw9vkiJwb-IGlsBelRwrzp2wLzrwvv_LLIhW6vUP_nhl1u4bu8Pwj_lofNWHUGiuJ_NCJoOoNsS_0j5-iTUuBWaPeY7m7DT9oeeu_SsbkTwNeOk5FByHIvUlEdH1FLz-MLQJMMc9vIRDqCoAe13dkBkFEEKX2nF2KI1Ko4-x8cXNtlKpKoP5TZTbXgyVMEkE9KMUrtbhxVl9cAZOvsJpbR1MMgH2mJggREv9wO9aREGBiv6vOoZajPdI1TP0rSwPGcc0EmCwokyaUwOYCrvVk2KzsJAukbwaJw3FCoBaY7EiTctK113m0y-svvbj5kGEC13CRar0Lw37XKmF20Dsbuto1vHwtfHAQ-Nhh6Hon5fi721A82uW_LG54Au9AOzKL70mtHkdisTSdTpMqXFnt1d_XbMiwKMJ2VGNVTXBa2raeEm0BFHTUnns8_xEILt3RkrY6TgJPm08mDJTBS0xPDSw8DXeAjOzNv6s4aLcoDUFDz7lBa2B5OkN1UDHr1OrZPMRGD00OpNhceTHW6wtHOLgkeEED3je87YkVKcj3XmrZxWFK-rhu6zrmLxejyEZPB-20y59vH05-B5TUB6sEZzcA33re4SJPcrHvVty3plb-ZNpcJAbcjyTB8Cc3JXZ9ZUi3Nx1zXZ4v_MtL4MfHLCk2L5EMi5k0EMINOwvGf_AI_1Hq7GseUQhcjFfBdoIy7x5BekoE8Dwjobq1XhRGWlMsjXBlc7UfuaMoRFFQ1Hqq2_oSdUR46hHg81RO4afCSf5U4hYPRsUIJMcjoFlWy8dsOXXrEHVoIWNUi7dHHqfrAhmYfvFdBvlZzOpV1B1wmua4ftd-SN-HaICBLMUTyzSEhUTuanSYdBoscETE1wdi18YVopBKZJMGkp6gtLmVqFt8koofr3JdTq5fy7b-JWBIOm8WA8zeaflSCgp7Hn1gCKnh7yk2clWKiXzUKLV6bPOI1E0OOPLDGzUFTaaz347k2Nz8r4R2JUwzBLc_4xsFy5]--></g></svg>