<?xml version="1.0" encoding="us-ascii" standalone="no"?><svg xmlns="http://www.w3.org/2000/svg" xmlns:xlink="http://www.w3.org/1999/xlink" contentStyleType="text/css" height="877px" preserveAspectRatio="none" style="width:1722px;height:877px;background:#FAFAFA;" version="1.1" viewBox="0 0 1722 877" width="1722px" zoomAndPan="magnify"><defs/><g><rect fill="#FAFAFA" height="877" style="stroke:none;stroke-width:1.0;" width="1722" x="0" y="0"/><!--cluster Developer Tools--><g id="cluster_Developer Tools"><path d="M1201.7547,6.244 L1305.7547,6.244 A3.75,3.75 0 0 1 1308.2547,8.744 L1315.2547,31.068 L1344.7547,31.068 A2.5,2.5 0 0 1 1347.2547,33.568 L1347.2547,121.744 A2.5,2.5 0 0 1 1344.7547,124.244 L1201.7547,124.244 A2.5,2.5 0 0 1 1199.2547,121.744 L1199.2547,8.744 A2.5,2.5 0 0 1 1201.7547,6.244 " fill="#FFF9ED" style="stroke:#534AB7;stroke-width:2.0;"/><line style="stroke:#534AB7;stroke-width:2.0;" x1="1199.2547" x2="1315.2547" y1="31.068" y2="31.068"/><text fill="#3C3489" font-family="sans-serif" font-size="13" font-weight="bold" lengthAdjust="spacing" textLength="103" x="1203.2547" y="23.324">Developer Tools</text></g><!--cluster Client--><g id="cluster_Client"><path d="M1382.7547,6.244 L1421.7547,6.244 A3.75,3.75 0 0 1 1424.2547,8.744 L1431.2547,31.068 L1707.7547,31.068 A2.5,2.5 0 0 1 1710.2547,33.568 L1710.2547,121.744 A2.5,2.5 0 0 1 1707.7547,124.244 L1382.7547,124.244 A2.5,2.5 0 0 1 1380.2547,121.744 L1380.2547,8.744 A2.5,2.5 0 0 1 1382.7547,6.244 " fill="#EEF6FF" style="stroke:#534AB7;stroke-width:2.0;"/><line style="stroke:#534AB7;stroke-width:2.0;" x1="1380.2547" x2="1431.2547" y1="31.068" y2="31.068"/><text fill="#3C3489" font-family="sans-serif" font-size="13" font-weight="bold" lengthAdjust="spacing" textLength="38" x="1384.2547" y="23.324">Client</text></g><!--cluster Spring Boot 3.x (com.mycpt.backend)--><g id="cluster_Spring Boot 3.x (com.mycpt.backend)"><path d="M584.7547,148.244 L826.7547,148.244 A3.75,3.75 0 0 1 829.2547,150.744 L836.2547,173.068 L1712.7547,173.068 A2.5,2.5 0 0 1 1715.2547,175.568 L1715.2547,643.244 A2.5,2.5 0 0 1 1712.7547,645.744 L584.7547,645.744 A2.5,2.5 0 0 1 582.2547,643.244 L582.2547,150.744 A2.5,2.5 0 0 1 584.7547,148.244 " fill="#EEEDFE" style="stroke:#534AB7;stroke-width:2.0;"/><line style="stroke:#534AB7;stroke-width:2.0;" x1="582.2547" x2="836.2547" y1="173.068" y2="173.068"/><text fill="#3C3489" font-family="sans-serif" font-size="13" font-weight="bold" lengthAdjust="spacing" textLength="241" x="586.2547" y="165.324">Spring Boot 3.x (com.mycpt.backend)</text></g><!--cluster Presentation--><g id="cluster_Presentation"><path d="M964.7547,193.244 L1048.7547,193.244 A3.75,3.75 0 0 1 1051.2547,195.744 L1058.2547,218.068 L1401.7547,218.068 A2.5,2.5 0 0 1 1404.2547,220.568 L1404.2547,308.744 A2.5,2.5 0 0 1 1401.7547,311.244 L964.7547,311.244 A2.5,2.5 0 0 1 962.2547,308.744 L962.2547,195.744 A2.5,2.5 0 0 1 964.7547,193.244 " fill="#F5F3FF" style="stroke:#534AB7;stroke-width:2.0;"/><line style="stroke:#534AB7;stroke-width:2.0;" x1="962.2547" x2="1058.2547" y1="218.068" y2="218.068"/><text fill="#3C3489" font-family="sans-serif" font-size="13" font-weight="bold" lengthAdjust="spacing" textLength="83" x="966.2547" y="210.324">Presentation</text></g><!--cluster Business--><g id="cluster_Business"><path d="M838.7547,335.244 L894.7547,335.244 A3.75,3.75 0 0 1 897.2547,337.744 L904.2547,360.068 L1675.7547,360.068 A2.5,2.5 0 0 1 1678.2547,362.568 L1678.2547,619.244 A2.5,2.5 0 0 1 1675.7547,621.744 L838.7547,621.744 A2.5,2.5 0 0 1 836.2547,619.244 L836.2547,337.744 A2.5,2.5 0 0 1 838.7547,335.244 " fill="#F5F3FF" style="stroke:#534AB7;stroke-width:2.0;"/><line style="stroke:#534AB7;stroke-width:2.0;" x1="836.2547" x2="904.2547" y1="360.068" y2="360.068"/><text fill="#3C3489" font-family="sans-serif" font-size="13" font-weight="bold" lengthAdjust="spacing" textLength="55" x="840.2547" y="352.324">Business</text></g><!--cluster Persistence--><g id="cluster_Persistence"><path d="M646.7547,512.744 L722.7547,512.744 A3.75,3.75 0 0 1 725.2547,515.244 L732.2547,537.568 L809.7547,537.568 A2.5,2.5 0 0 1 812.2547,540.068 L812.2547,610.244 A2.5,2.5 0 0 1 809.7547,612.744 L646.7547,612.744 A2.5,2.5 0 0 1 644.2547,610.244 L644.2547,515.244 A2.5,2.5 0 0 1 646.7547,512.744 " fill="#F5F3FF" style="stroke:#534AB7;stroke-width:2.0;"/><line style="stroke:#534AB7;stroke-width:2.0;" x1="644.2547" x2="732.2547" y1="537.568" y2="537.568"/><text fill="#3C3489" font-family="sans-serif" font-size="13" font-weight="bold" lengthAdjust="spacing" textLength="75" x="648.2547" y="529.824">Persistence</text></g><!--cluster MySQL--><g id="cluster_MySQL"><path d="M816.2547,687.744 C816.2547,677.744 1012.2547,677.744 1012.2547,677.744 C1012.2547,677.744 1208.2547,677.744 1208.2547,687.744 L1208.2547,850.744 C1208.2547,860.744 1012.2547,860.744 1012.2547,860.744 C1012.2547,860.744 816.2547,860.744 816.2547,850.744 L816.2547,687.744 " fill="#FFFFFF" style="stroke:#AFA9EC;stroke-width:1.0;"/><path d="M816.2547,687.744 C816.2547,697.744 1012.2547,697.744 1012.2547,697.744 C1012.2547,697.744 1208.2547,697.744 1208.2547,687.744 " fill="none" style="stroke:#AFA9EC;stroke-width:1.0;"/><text fill="#26215C" font-family="sans-serif" font-size="12" font-weight="bold" lengthAdjust="spacing" textLength="40" x="992.2547" y="713.6641">MySQL</text></g><!--cluster Redis--><g id="cluster_Redis"><path d="M599.2547,714.244 C599.2547,704.244 687.7547,704.244 687.7547,704.244 C687.7547,704.244 776.2547,704.244 776.2547,714.244 L776.2547,824.244 C776.2547,834.244 687.7547,834.244 687.7547,834.244 C687.7547,834.244 599.2547,834.244 599.2547,824.244 L599.2547,714.244 " fill="#FFFFFF" style="stroke:#AFA9EC;stroke-width:1.0;"/><path d="M599.2547,714.244 C599.2547,724.244 687.7547,724.244 687.7547,724.244 C687.7547,724.244 776.2547,724.244 776.2547,714.244 " fill="none" style="stroke:#AFA9EC;stroke-width:1.0;"/><text fill="#26215C" font-family="sans-serif" font-size="12" font-weight="bold" lengthAdjust="spacing" textLength="33" x="671.2547" y="740.1641">Redis</text></g><!--cluster ?? ???--><g id="cluster_&#50808;&#48512; &#49436;&#48708;&#49828;"><path d="M53.8127,506.4961 C63.2311,490.5667 78.4659,491.2733 85.8385,508.4737 C96.5482,492.6397 113.1462,492.2443 124.3687,507.8453 C133.1094,492.4228 145.0485,488.3416 158.1289,502.9699 C167.5983,488.9902 180.6347,488.911 190.4437,502.5731 C203.4822,485.5868 220.2173,485.2432 228.9802,506.8432 C238.7508,487.813 251.1865,491.4089 262.9898,504.7046 C274.1518,488.8256 285.5692,484.1473 298.6157,502.758 C312.3601,486.158 322.5667,487.5019 332.5335,506.3704 C342.4514,485.6784 362.2281,485.5277 372.1733,506.3444 C382.7498,489.13 394.9543,490.5993 406.2523,505.5807 C415.3044,491.9029 426.122,490.3588 437.6277,502.6119 C449.7525,489.2636 468.0378,490.4407 474.9421,508.7628 C486.0685,492.4952 500.6127,493.4605 511.033,509.5504 C523.8201,490.1277 539.0155,494.8204 550.2547,511.244 C554.9235,510.2334 557.3016,513.0519 556.1488,517.514 C582.7005,531.509 581.8127,548.662 561.1586,567.3978 C582.1362,590.736 571.0666,614.8326 543.2547,622.244 C543.782,621.8901 544.0729,622.0126 544.1813,622.6396 C536.4249,640.4706 519.9255,641.9974 509.189,625.6947 C500.8717,639.4919 488.0641,643.3038 477.5961,628.0322 C465.8488,647.2272 447.5042,643.7318 440.3323,623.6872 C434.5997,641.6314 419.5011,644.6753 408.0679,629.189 C394.2916,644.6685 382.5987,643.1888 372.236,625.5011 C359.957,642.3328 345.7459,642.334 333.9974,624.9089 C323.7432,647.1783 311.5138,646.3193 296.0739,630.006 C285.0283,642.4143 271.5533,642.7161 264.3085,625.8778 C255.9496,639.7843 240.1793,642.8342 230.8213,627.0028 C217.6887,644.1703 204.2039,649.6886 189.7556,628.408 C181.7205,642.1706 168.0804,642.7169 159.8279,628.6417 C148.0284,644.3676 129.7507,643.8214 123.9934,622.7566 C112.3916,639.5819 99.2935,643.5701 86.2149,624.3024 C69.0812,641.7224 50.0992,638.9665 41.2547,615.244 C44.0948,615.2347 45.5944,616.8603 43.9742,619.6218 C20.6377,610.9396 9.7462,587.3714 34.315,569.4638 C6,545.0594 12.5908,514.9739 48.2547,504.244 C51.0981,502.4076 53.1516,502.9471 53.8127,506.4961 " fill="#FFF7ED" style="stroke:#AFA9EC;stroke-width:1.0;"/><text fill="#26215C" font-family="sans-serif" font-size="12" font-weight="bold" lengthAdjust="spacing" textLength="58" x="266.7547" y="523.1641">&#50808;&#48512; &#49436;&#48708;&#49828;</text></g><!--entity Swagger--><g id="elem_Swagger"><rect fill="#FFFFFF" height="64.7522" rx="2.5" ry="2.5" style="stroke:#AFA9EC;stroke-width:1.5;" width="116" x="1215.2547" y="43.244"/><rect fill="#FFFFFF" height="10" style="stroke:#AFA9EC;stroke-width:1.5;" width="15" x="1311.2547" y="48.244"/><rect fill="#FFFFFF" height="2" style="stroke:#AFA9EC;stroke-width:1.5;" width="4" x="1309.2547" y="50.244"/><rect fill="#FFFFFF" height="2" style="stroke:#AFA9EC;stroke-width:1.5;" width="4" x="1309.2547" y="54.244"/><text fill="#26215C" font-family="sans-serif" font-size="12" lengthAdjust="spacing" textLength="66" x="1230.2547" y="77.1641">Swagger UI</text><text fill="#26215C" font-family="sans-serif" font-size="12" lengthAdjust="spacing" textLength="76" x="1230.2547" y="94.5402">(/swagger-ui)</text></g><!--entity NextJS--><g id="elem_NextJS"><rect fill="#FFFFFF" height="64.7522" rx="2.5" ry="2.5" style="stroke:#AFA9EC;stroke-width:1.5;" width="97" x="1597.7547" y="43.244"/><rect fill="#FFFFFF" height="10" style="stroke:#AFA9EC;stroke-width:1.5;" width="15" x="1674.7547" y="48.244"/><rect fill="#FFFFFF" height="2" style="stroke:#AFA9EC;stroke-width:1.5;" width="4" x="1672.7547" y="50.244"/><rect fill="#FFFFFF" height="2" style="stroke:#AFA9EC;stroke-width:1.5;" width="4" x="1672.7547" y="54.244"/><text fill="#26215C" font-family="sans-serif" font-size="12" lengthAdjust="spacing" textLength="39" x="1612.7547" y="77.1641">Next.js</text><text fill="#26215C" font-family="sans-serif" font-size="12" lengthAdjust="spacing" textLength="57" x="1612.7547" y="94.5402">(SSR/SSG)</text></g><!--entity Session--><g id="elem_Session"><rect fill="#FFFFFF" height="64.7522" rx="2.5" ry="2.5" style="stroke:#AFA9EC;stroke-width:1.5;" width="167" x="1395.7547" y="43.244"/><rect fill="#FFFFFF" height="10" style="stroke:#AFA9EC;stroke-width:1.5;" width="15" x="1542.7547" y="48.244"/><rect fill="#FFFFFF" height="2" style="stroke:#AFA9EC;stroke-width:1.5;" width="4" x="1540.7547" y="50.244"/><rect fill="#FFFFFF" height="2" style="stroke:#AFA9EC;stroke-width:1.5;" width="4" x="1540.7547" y="54.244"/><text fill="#26215C" font-family="sans-serif" font-size="12" lengthAdjust="spacing" textLength="87" x="1410.7547" y="77.1641">sessionStorage</text><text fill="#26215C" font-family="sans-serif" font-size="12" lengthAdjust="spacing" textLength="127" x="1410.7547" y="94.5402">(&#48708;&#54924;&#50896; &#50896;&#51216;&#49688; &#51076;&#49884; &#48372;&#44288;)</text></g><!--entity Batch--><g id="elem_Batch"><rect fill="#FFFFFF" height="64.7522" rx="2.5" ry="2.5" style="stroke:#AFA9EC;stroke-width:1.5;" width="219" x="598.7547" y="389.744"/><rect fill="#FFFFFF" height="10" style="stroke:#AFA9EC;stroke-width:1.5;" width="15" x="797.7547" y="394.744"/><rect fill="#FFFFFF" height="2" style="stroke:#AFA9EC;stroke-width:1.5;" width="4" x="795.7547" y="396.744"/><rect fill="#FFFFFF" height="2" style="stroke:#AFA9EC;stroke-width:1.5;" width="4" x="795.7547" y="400.744"/><text fill="#26215C" font-family="sans-serif" font-size="12" lengthAdjust="spacing" textLength="171" x="613.7547" y="423.6641">ExpiredDataCleanupScheduler</text><text fill="#26215C" font-family="sans-serif" font-size="12" lengthAdjust="spacing" textLength="179" x="613.7547" y="441.0402">(@Scheduled) &#47564;&#47308; &#53076;&#46300;/&#53664;&#53360; &#49325;&#51228;</text></g><!--entity Controllers--><g id="elem_Controllers"><rect fill="#FFFFFF" height="64.7522" rx="2.5" ry="2.5" style="stroke:#AFA9EC;stroke-width:1.5;" width="231" x="1157.7547" y="230.244"/><rect fill="#FFFFFF" height="10" style="stroke:#AFA9EC;stroke-width:1.5;" width="15" x="1368.7547" y="235.244"/><rect fill="#FFFFFF" height="2" style="stroke:#AFA9EC;stroke-width:1.5;" width="4" x="1366.7547" y="237.244"/><rect fill="#FFFFFF" height="2" style="stroke:#AFA9EC;stroke-width:1.5;" width="4" x="1366.7547" y="241.244"/><text fill="#26215C" font-family="sans-serif" font-size="12" lengthAdjust="spacing" textLength="95" x="1172.7547" y="264.1641">REST Controllers</text><text fill="#26215C" font-family="sans-serif" font-size="12" lengthAdjust="spacing" textLength="191" x="1172.7547" y="281.5402">({&#46020;&#47700;&#51064;}Api + {&#46020;&#47700;&#51064;}V1Controller)</text></g><!--entity Security--><g id="elem_Security"><rect fill="#FFFFFF" height="64.7522" rx="2.5" ry="2.5" style="stroke:#AFA9EC;stroke-width:1.5;" width="144" x="978.2547" y="230.244"/><rect fill="#FFFFFF" height="10" style="stroke:#AFA9EC;stroke-width:1.5;" width="15" x="1102.2547" y="235.244"/><rect fill="#FFFFFF" height="2" style="stroke:#AFA9EC;stroke-width:1.5;" width="4" x="1100.2547" y="237.244"/><rect fill="#FFFFFF" height="2" style="stroke:#AFA9EC;stroke-width:1.5;" width="4" x="1100.2547" y="241.244"/><text fill="#26215C" font-family="sans-serif" font-size="12" lengthAdjust="spacing" textLength="85" x="993.2547" y="264.1641">Spring Security</text><text fill="#26215C" font-family="sans-serif" font-size="12" lengthAdjust="spacing" textLength="104" x="993.2547" y="281.5402">+ Kakao OAuth 2.0</text></g><!--entity Scoring--><g id="elem_Scoring"><rect fill="#FFFFFF" height="64.7522" rx="2.5" ry="2.5" style="stroke:#AFA9EC;stroke-width:1.5;" width="133" x="1202.7547" y="389.744"/><rect fill="#FFFFFF" height="10" style="stroke:#AFA9EC;stroke-width:1.5;" width="15" x="1315.7547" y="394.744"/><rect fill="#FFFFFF" height="2" style="stroke:#AFA9EC;stroke-width:1.5;" width="4" x="1313.7547" y="396.744"/><rect fill="#FFFFFF" height="2" style="stroke:#AFA9EC;stroke-width:1.5;" width="4" x="1313.7547" y="400.744"/><text fill="#26215C" font-family="sans-serif" font-size="12" lengthAdjust="spacing" textLength="83" x="1217.7547" y="423.6641">ScoringService</text><text fill="#26215C" font-family="sans-serif" font-size="12" lengthAdjust="spacing" textLength="93" x="1217.7547" y="441.0402">&#52292;&#51216; + &#48260;&#53431; &#51221;&#44508;&#54868;</text></g><!--entity Cache--><g id="elem_Cache"><rect fill="#FFFFFF" height="64.7522" rx="2.5" ry="2.5" style="stroke:#AFA9EC;stroke-width:1.5;" width="116" x="1371.2547" y="389.744"/><rect fill="#FFFFFF" height="10" style="stroke:#AFA9EC;stroke-width:1.5;" width="15" x="1467.2547" y="394.744"/><rect fill="#FFFFFF" height="2" style="stroke:#AFA9EC;stroke-width:1.5;" width="4" x="1465.2547" y="396.744"/><rect fill="#FFFFFF" height="2" style="stroke:#AFA9EC;stroke-width:1.5;" width="4" x="1465.2547" y="400.744"/><text fill="#26215C" font-family="sans-serif" font-size="12" lengthAdjust="spacing" textLength="76" x="1386.2547" y="423.6641">CacheService</text><text fill="#26215C" font-family="sans-serif" font-size="12" lengthAdjust="spacing" textLength="74" x="1386.2547" y="441.0402">Lazy Caching</text></g><!--entity Llm--><g id="elem_Llm"><rect fill="#FFFFFF" height="64.7522" rx="2.5" ry="2.5" style="stroke:#AFA9EC;stroke-width:1.5;" width="126" x="1366.2547" y="540.744"/><rect fill="#FFFFFF" height="10" style="stroke:#AFA9EC;stroke-width:1.5;" width="15" x="1472.2547" y="545.744"/><rect fill="#FFFFFF" height="2" style="stroke:#AFA9EC;stroke-width:1.5;" width="4" x="1470.2547" y="547.744"/><rect fill="#FFFFFF" height="2" style="stroke:#AFA9EC;stroke-width:1.5;" width="4" x="1470.2547" y="551.744"/><text fill="#26215C" font-family="sans-serif" font-size="12" lengthAdjust="spacing" textLength="62" x="1381.2547" y="574.6641">LlmService</text><text fill="#26215C" font-family="sans-serif" font-size="12" lengthAdjust="spacing" textLength="86" x="1381.2547" y="592.0402">Claude API &#54840;&#52636;</text></g><!--entity Chemistry--><g id="elem_Chemistry"><rect fill="#FFFFFF" height="64.7522" rx="2.5" ry="2.5" style="stroke:#AFA9EC;stroke-width:1.5;" width="139" x="1522.7547" y="389.744"/><rect fill="#FFFFFF" height="10" style="stroke:#AFA9EC;stroke-width:1.5;" width="15" x="1641.7547" y="394.744"/><rect fill="#FFFFFF" height="2" style="stroke:#AFA9EC;stroke-width:1.5;" width="4" x="1639.7547" y="396.744"/><rect fill="#FFFFFF" height="2" style="stroke:#AFA9EC;stroke-width:1.5;" width="4" x="1639.7547" y="400.744"/><text fill="#26215C" font-family="sans-serif" font-size="12" lengthAdjust="spacing" textLength="99" x="1537.7547" y="423.6641">ChemistryService</text><text fill="#26215C" font-family="sans-serif" font-size="12" lengthAdjust="spacing" textLength="93" x="1537.7547" y="441.0402">@Async &#52992;&#48120; &#48156;&#54665;</text></g><!--entity Sse--><g id="elem_Sse"><rect fill="#FFFFFF" height="64.7522" rx="2.5" ry="2.5" style="stroke:#AFA9EC;stroke-width:1.5;" width="128" x="1534.2547" y="540.744"/><rect fill="#FFFFFF" height="10" style="stroke:#AFA9EC;stroke-width:1.5;" width="15" x="1642.2547" y="545.744"/><rect fill="#FFFFFF" height="2" style="stroke:#AFA9EC;stroke-width:1.5;" width="4" x="1640.2547" y="547.744"/><rect fill="#FFFFFF" height="2" style="stroke:#AFA9EC;stroke-width:1.5;" width="4" x="1640.2547" y="551.744"/><text fill="#26215C" font-family="sans-serif" font-size="12" lengthAdjust="spacing" textLength="61" x="1549.2547" y="574.6641">SseService</text><text fill="#26215C" font-family="sans-serif" font-size="12" lengthAdjust="spacing" textLength="88" x="1549.2547" y="592.0402">SseEmitter &#44288;&#47532;</text></g><!--entity Coin--><g id="elem_Coin"><rect fill="#FFFFFF" height="64.7522" rx="2.5" ry="2.5" style="stroke:#AFA9EC;stroke-width:1.5;" width="109" x="1058.7547" y="389.744"/><rect fill="#FFFFFF" height="10" style="stroke:#AFA9EC;stroke-width:1.5;" width="15" x="1147.7547" y="394.744"/><rect fill="#FFFFFF" height="2" style="stroke:#AFA9EC;stroke-width:1.5;" width="4" x="1145.7547" y="396.744"/><rect fill="#FFFFFF" height="2" style="stroke:#AFA9EC;stroke-width:1.5;" width="4" x="1145.7547" y="400.744"/><text fill="#26215C" font-family="sans-serif" font-size="12" lengthAdjust="spacing" textLength="66" x="1073.7547" y="423.6641">CoinService</text><text fill="#26215C" font-family="sans-serif" font-size="12" lengthAdjust="spacing" textLength="69" x="1073.7547" y="441.0402">&#50728;&#46356;&#47592;&#46300; &#52649;&#51204;</text></g><!--entity OtherServices--><g id="elem_OtherServices"><rect fill="#FFFFFF" height="99.5045" rx="2.5" ry="2.5" style="stroke:#AFA9EC;stroke-width:1.5;" width="171" x="852.7547" y="372.244"/><rect fill="#FFFFFF" height="10" style="stroke:#AFA9EC;stroke-width:1.5;" width="15" x="1003.7547" y="377.244"/><rect fill="#FFFFFF" height="2" style="stroke:#AFA9EC;stroke-width:1.5;" width="4" x="1001.7547" y="379.244"/><rect fill="#FFFFFF" height="2" style="stroke:#AFA9EC;stroke-width:1.5;" width="4" x="1001.7547" y="383.244"/><text fill="#26215C" font-family="sans-serif" font-size="12" lengthAdjust="spacing" textLength="72" x="867.7547" y="406.1641">&#44592;&#53440; Services</text><text fill="#26215C" font-family="sans-serif" font-size="12" lengthAdjust="spacing" textLength="108" x="867.7547" y="423.5402">(Auth/User/Result/</text><text fill="#26215C" font-family="sans-serif" font-size="12" lengthAdjust="spacing" textLength="131" x="867.7547" y="440.9163">Assessment/Statistics/</text><text fill="#26215C" font-family="sans-serif" font-size="12" lengthAdjust="spacing" textLength="131" x="867.7547" y="458.2925">Colleague/Notification)</text></g><!--entity Repos--><g id="elem_Repos"><rect fill="#FFFFFF" height="47.3761" rx="2.5" ry="2.5" style="stroke:#AFA9EC;stroke-width:1.5;" width="135" x="660.7547" y="549.744"/><rect fill="#FFFFFF" height="10" style="stroke:#AFA9EC;stroke-width:1.5;" width="15" x="775.7547" y="554.744"/><rect fill="#FFFFFF" height="2" style="stroke:#AFA9EC;stroke-width:1.5;" width="4" x="773.7547" y="556.744"/><rect fill="#FFFFFF" height="2" style="stroke:#AFA9EC;stroke-width:1.5;" width="4" x="773.7547" y="560.744"/><text fill="#26215C" font-family="sans-serif" font-size="12" lengthAdjust="spacing" textLength="95" x="675.7547" y="583.6641">JPA Repositories</text></g><!--entity DiscCache--><g id="elem_DiscCache"><rect fill="#FFFFFF" height="64.7522" rx="2.5" ry="2.5" style="stroke:#AFA9EC;stroke-width:1.5;" width="102" x="1082.2547" y="754.244"/><rect fill="#FFFFFF" height="10" style="stroke:#AFA9EC;stroke-width:1.5;" width="15" x="1164.2547" y="759.244"/><rect fill="#FFFFFF" height="2" style="stroke:#AFA9EC;stroke-width:1.5;" width="4" x="1162.2547" y="761.244"/><rect fill="#FFFFFF" height="2" style="stroke:#AFA9EC;stroke-width:1.5;" width="4" x="1162.2547" y="765.244"/><text fill="#26215C" font-family="sans-serif" font-size="12" lengthAdjust="spacing" textLength="62" x="1097.2547" y="788.1641">disc_cache</text><text fill="#26215C" font-family="sans-serif" font-size="12" lengthAdjust="spacing" textLength="55" x="1097.2547" y="805.5402">(&#48260;&#53431; &#52880;&#49884;)</text></g><!--entity OtherTables--><g id="elem_OtherTables"><rect fill="#FFFFFF" height="99.5045" rx="2.5" ry="2.5" style="stroke:#AFA9EC;stroke-width:1.5;" width="188" x="859.2547" y="736.744"/><rect fill="#FFFFFF" height="10" style="stroke:#AFA9EC;stroke-width:1.5;" width="15" x="1027.2547" y="741.744"/><rect fill="#FFFFFF" height="2" style="stroke:#AFA9EC;stroke-width:1.5;" width="4" x="1025.2547" y="743.744"/><rect fill="#FFFFFF" height="2" style="stroke:#AFA9EC;stroke-width:1.5;" width="4" x="1025.2547" y="747.744"/><text fill="#26215C" font-family="sans-serif" font-size="12" lengthAdjust="spacing" textLength="100" x="874.2547" y="770.6641">tests + disc_tests</text><text fill="#26215C" font-family="sans-serif" font-size="12" lengthAdjust="spacing" textLength="60" x="874.2547" y="788.0402">colleagues</text><text fill="#26215C" font-family="sans-serif" font-size="12" lengthAdjust="spacing" textLength="148" x="874.2547" y="805.4163">notifications + &#49436;&#48652;&#53440;&#51077; 2&#44060;</text><text fill="#26215C" font-family="sans-serif" font-size="12" lengthAdjust="spacing" textLength="79" x="874.2547" y="822.7925">&#44592;&#53440; 5&#44060; &#53580;&#51060;&#48660;</text></g><!--entity RedisData--><g id="elem_RedisData"><rect fill="#FFFFFF" height="47.3761" rx="2.5" ry="2.5" style="stroke:#AFA9EC;stroke-width:1.5;" width="110" x="642.2547" y="763.244"/><rect fill="#FFFFFF" height="10" style="stroke:#AFA9EC;stroke-width:1.5;" width="15" x="732.2547" y="768.244"/><rect fill="#FFFFFF" height="2" style="stroke:#AFA9EC;stroke-width:1.5;" width="4" x="730.2547" y="770.244"/><rect fill="#FFFFFF" height="2" style="stroke:#AFA9EC;stroke-width:1.5;" width="4" x="730.2547" y="774.244"/><text fill="#26215C" font-family="sans-serif" font-size="12" lengthAdjust="spacing" textLength="70" x="657.2547" y="797.1641">@Cacheable</text></g><!--entity ClaudeAPI--><g id="elem_ClaudeAPI"><rect fill="#FFFFFF" height="82.1284" rx="2.5" ry="2.5" style="stroke:#AFA9EC;stroke-width:1.5;" width="150" x="392.2547" y="532.244"/><rect fill="#FFFFFF" height="10" style="stroke:#AFA9EC;stroke-width:1.5;" width="15" x="522.2547" y="537.244"/><rect fill="#FFFFFF" height="2" style="stroke:#AFA9EC;stroke-width:1.5;" width="4" x="520.2547" y="539.244"/><rect fill="#FFFFFF" height="2" style="stroke:#AFA9EC;stroke-width:1.5;" width="4" x="520.2547" y="543.244"/><text fill="#26215C" font-family="sans-serif" font-size="12" lengthAdjust="spacing" textLength="54" x="407.2547" y="566.1641">Anthropic</text><text fill="#26215C" font-family="sans-serif" font-size="12" lengthAdjust="spacing" textLength="61" x="407.2547" y="583.5402">Claude API</text><text fill="#26215C" font-family="sans-serif" font-size="12" lengthAdjust="spacing" textLength="110" x="407.2547" y="600.9163">(claude-sonnet-4-6)</text></g><!--entity Kakao--><g id="elem_Kakao"><rect fill="#FFFFFF" height="47.3761" rx="2.5" ry="2.5" style="stroke:#AFA9EC;stroke-width:1.5;" width="114" x="49.2547" y="549.744"/><rect fill="#FFFFFF" height="10" style="stroke:#AFA9EC;stroke-width:1.5;" width="15" x="143.2547" y="554.744"/><rect fill="#FFFFFF" height="2" style="stroke:#AFA9EC;stroke-width:1.5;" width="4" x="141.2547" y="556.744"/><rect fill="#FFFFFF" height="2" style="stroke:#AFA9EC;stroke-width:1.5;" width="4" x="141.2547" y="560.744"/><text fill="#26215C" font-family="sans-serif" font-size="12" lengthAdjust="spacing" textLength="74" x="64.2547" y="583.6641">Kakao OAuth</text></g><!--entity S3--><g id="elem_S3"><rect fill="#FFFFFF" height="82.1284" rx="2.5" ry="2.5" style="stroke:#AFA9EC;stroke-width:1.5;" width="159" x="198.7547" y="532.244"/><rect fill="#FFFFFF" height="10" style="stroke:#AFA9EC;stroke-width:1.5;" width="15" x="337.7547" y="537.244"/><rect fill="#FFFFFF" height="2" style="stroke:#AFA9EC;stroke-width:1.5;" width="4" x="335.7547" y="539.244"/><rect fill="#FFFFFF" height="2" style="stroke:#AFA9EC;stroke-width:1.5;" width="4" x="335.7547" y="543.244"/><text fill="#26215C" font-family="sans-serif" font-size="12" lengthAdjust="spacing" textLength="42" x="213.7547" y="566.1641">AWS S3</text><text fill="#26215C" font-family="sans-serif" font-size="12" lengthAdjust="spacing" textLength="119" x="213.7547" y="583.5402">&#54532;&#47196;&#54596; &#51060;&#48120;&#51648; Full URL</text><text fill="#26215C" font-family="sans-serif" font-size="12" lengthAdjust="spacing" textLength="30" x="213.7547" y="600.9163">(&#50868;&#50689;)</text></g><!--link Swagger to Controllers--><g id="link_Swagger_Controllers"><path d="M1273.2547,108.314 C1273.2547,142.534 1273.2547,190.034 1273.2547,224.234 " fill="none" id="Swagger-to-Controllers" style="stroke:#7F77DD;stroke-width:1.0;"/><polygon fill="#7F77DD" points="1273.2547,230.234,1277.2547,221.234,1273.2547,225.234,1269.2547,221.234,1273.2547,230.234" style="stroke:#7F77DD;stroke-width:1.0;"/><text fill="#534AB7" font-family="sans-serif" font-size="10" lengthAdjust="spacing" textLength="64" x="1274.2547" y="151.874">API &#49688;&#46041; &#53580;&#49828;&#53944;</text><text fill="#534AB7" font-family="sans-serif" font-size="10" lengthAdjust="spacing" textLength="64" x="1274.2547" y="166.354">(&#44060;&#48156; &#54872;&#44221; &#51204;&#50857;)</text></g><!--link NextJS to Controllers--><g id="link_NextJS_Controllers"><path d="M1629.7547,108.314 C1629.7547,157.924 1629.7547,246.744 1629.7547,246.744 C1629.7547,246.744 1499.0947,246.744 1395.0047,246.744 " fill="none" id="NextJS-to-Controllers" style="stroke:#7F77DD;stroke-width:1.0;"/><polygon fill="#7F77DD" points="1389.0047,246.744,1398.0047,250.744,1394.0047,246.744,1398.0047,242.744,1389.0047,246.744" style="stroke:#7F77DD;stroke-width:1.0;"/><text fill="#534AB7" font-family="sans-serif" font-size="10" lengthAdjust="spacing" textLength="63" x="1514.5947" y="243.344">HTTPS / REST</text></g><!--link NextJS to Sse--><g id="link_NextJS_Sse"><path d="M1678.5047,108.424 C1678.5047,219.214 1678.5047,573.744 1678.5047,573.744 C1678.5047,573.744 1677.7947,573.744 1668.2647,573.744 " fill="none" id="NextJS-to-Sse" style="stroke:#7F77DD;stroke-width:1.0;"/><polygon fill="#7F77DD" points="1662.2647,573.744,1671.2647,577.744,1667.2647,573.744,1671.2647,569.744,1662.2647,573.744" style="stroke:#7F77DD;stroke-width:1.0;"/><text fill="#534AB7" font-family="sans-serif" font-size="10" lengthAdjust="spacing" textLength="123" x="1554.5047" y="331.804">GET /notifications/stream</text><text fill="#534AB7" font-family="sans-serif" font-size="10" lengthAdjust="spacing" textLength="64" x="1584.0047" y="346.284">(SSE &#50672;&#44208; &#50976;&#51648;)</text></g><!--link Session to NextJS--><g id="link_Session_NextJS"><path d="M1562.7547,75.744 C1574.6647,75.744 1580.5647,75.744 1591.5047,75.744 " fill="none" id="Session-to-NextJS" style="stroke:#7F77DD;stroke-width:1.0;"/><polygon fill="#7F77DD" points="1597.5047,75.744,1588.5047,71.744,1592.5047,75.744,1588.5047,79.744,1597.5047,75.744" style="stroke:#7F77DD;stroke-width:1.0;"/><text fill="#534AB7" font-family="sans-serif" font-size="10" lengthAdjust="spacing" textLength="56" x="1552.1247" y="88.344">&#48708;&#54924;&#50896; &#50896;&#51216;&#49688;</text><text fill="#534AB7" font-family="sans-serif" font-size="10" lengthAdjust="spacing" textLength="104" x="1528.1247" y="102.824">&#47196;&#44536;&#51064; &#49884; POST /results</text></g><!--link Security to Controllers--><g id="link_Security_Controllers"><path d="M1122.3447,262.744 C1133.6747,262.744 1139.6247,262.744 1151.6347,262.744 " fill="none" id="Security-to-Controllers" style="stroke:#7F77DD;stroke-width:1.0;"/><polygon fill="#7F77DD" points="1157.6347,262.744,1148.6347,258.744,1152.6347,262.744,1148.6347,266.744,1157.6347,262.744" style="stroke:#7F77DD;stroke-width:1.0;"/><text fill="#534AB7" font-family="sans-serif" font-size="10" lengthAdjust="spacing" textLength="40" x="1119.9947" y="275.344">&#51064;&#51613;/&#51064;&#44032;</text></g><!--link Controllers to OtherServices--><g id="link_Controllers_OtherServices"><path d="M1162.7547,295.264 C1162.7547,330.494 1162.7547,381.744 1162.7547,381.744 C1162.7547,381.744 1093.2147,381.744 1029.7647,381.744 " fill="none" id="Controllers-to-OtherServices" style="stroke:#7F77DD;stroke-width:1.0;"/><polygon fill="#7F77DD" points="1023.7647,381.744,1032.7647,385.744,1028.7647,381.744,1032.7647,377.744,1023.7647,381.744" style="stroke:#7F77DD;stroke-width:1.0;"/><text fill="#534AB7" font-family="sans-serif" font-size="10" lengthAdjust="spacing" textLength="18" x="1117.5047" y="378.344">&#50948;&#51076;</text></g><!--link Controllers to Scoring--><g id="link_Controllers_Scoring"><path d="M1269.2547,295.404 C1269.2547,322.934 1269.2547,356.114 1269.2547,383.624 " fill="none" id="Controllers-to-Scoring" style="stroke:#7F77DD;stroke-width:1.0;"/><polygon fill="#7F77DD" points="1269.2547,389.624,1273.2547,380.624,1269.2547,384.624,1265.2547,380.624,1269.2547,389.624" style="stroke:#7F77DD;stroke-width:1.0;"/><text fill="#534AB7" font-family="sans-serif" font-size="10" lengthAdjust="spacing" textLength="94" x="1270.2547" y="339.114">POST /results/score</text></g><!--link Controllers to Chemistry--><g id="link_Controllers_Chemistry"><path d="M1389.1147,262.744 C1462.1547,262.744 1542.7547,262.744 1542.7547,262.744 C1542.7547,262.744 1542.7547,336.914 1542.7547,383.584 " fill="none" id="Controllers-to-Chemistry" style="stroke:#7F77DD;stroke-width:1.0;"/><polygon fill="#7F77DD" points="1542.7547,389.584,1546.7547,380.584,1542.7547,384.584,1538.7547,380.584,1542.7547,389.584" style="stroke:#7F77DD;stroke-width:1.0;"/><text fill="#534AB7" font-family="sans-serif" font-size="10" lengthAdjust="spacing" textLength="116" x="1412.3547" y="259.344">POST /chemistry-reports</text></g><!--link Controllers to Sse--><g id="link_Controllers_Sse"><path d="M1389.0047,279.744 C1448.0247,279.744 1507.5047,279.744 1507.5047,279.744 C1507.5047,279.744 1507.5047,562.744 1507.5047,562.744 C1507.5047,562.744 1513.2247,562.744 1528.2447,562.744 " fill="none" id="Controllers-to-Sse" style="stroke:#7F77DD;stroke-width:1.0;"/><polygon fill="#7F77DD" points="1534.2447,562.744,1525.2447,558.744,1529.2447,562.744,1525.2447,566.744,1534.2447,562.744" style="stroke:#7F77DD;stroke-width:1.0;"/><text fill="#534AB7" font-family="sans-serif" font-size="10" lengthAdjust="spacing" textLength="60" x="1446.5047" y="371.964">SSE &#44396;&#46021;/&#51204;&#49569;</text></g><!--link Scoring to Repos--><g id="link_Scoring_Repos"><path d="M1269.2547,454.744 C1269.2547,499.264 1269.2547,573.744 1269.2547,573.744 C1269.2547,573.744 947.1147,573.744 801.9547,573.744 " fill="none" id="Scoring-to-Repos" style="stroke:#7F77DD;stroke-width:1.0;"/><polygon fill="#7F77DD" points="795.9547,573.744,804.9547,577.744,800.9547,573.744,804.9547,569.744,795.9547,573.744" style="stroke:#7F77DD;stroke-width:1.0;"/></g><!--link Cache to Repos--><g id="link_Cache_Repos"><path d="M1371.1547,422.744 C1359.6347,422.744 1351.0047,422.744 1351.0047,422.744 C1351.0047,422.744 1351.0047,585.744 1351.0047,585.744 C1351.0047,585.744 963.0047,585.744 801.7847,585.744 " fill="none" id="Cache-to-Repos" style="stroke:#7F77DD;stroke-width:1.0;"/><polygon fill="#7F77DD" points="795.7847,585.744,804.7847,589.744,800.7847,585.744,804.7847,581.744,795.7847,585.744" style="stroke:#7F77DD;stroke-width:1.0;"/></g><!--link Cache to Llm--><g id="link_Cache_Llm"><path d="M1448.5847,455.004 C1448.5847,480.334 1448.5847,509.234 1448.5847,534.544 " fill="none" id="Cache-to-Llm" style="stroke:#7F77DD;stroke-width:1.0;"/><polygon fill="#7F77DD" points="1448.5847,540.544,1452.5847,531.544,1448.5847,535.544,1444.5847,531.544,1448.5847,540.544" style="stroke:#7F77DD;stroke-width:1.0;"/><text fill="#534AB7" font-family="sans-serif" font-size="10" lengthAdjust="spacing" textLength="94" x="1353.5847" y="494.374">&#52880;&#49884; MISS &#49884; LLM &#54840;&#52636;</text></g><!--link Chemistry to Llm--><g id="link_Chemistry_Llm"><path d="M1528.5047,455.124 C1528.5047,502.614 1528.5047,584.744 1528.5047,584.744 C1528.5047,584.744 1517.9647,584.744 1498.3947,584.744 " fill="none" id="Chemistry-to-Llm" style="stroke:#7F77DD;stroke-width:1.0;"/><polygon fill="#7F77DD" points="1492.3947,584.744,1501.3947,588.744,1497.3947,584.744,1501.3947,580.744,1492.3947,584.744" style="stroke:#7F77DD;stroke-width:1.0;"/><text fill="#534AB7" font-family="sans-serif" font-size="10" lengthAdjust="spacing" textLength="36" x="1491.5047" y="534.594">@Async</text></g><!--link Chemistry to Sse--><g id="link_Chemistry_Sse"><path d="M1598.0047,455.004 C1598.0047,480.334 1598.0047,509.234 1598.0047,534.544 " fill="none" id="Chemistry-to-Sse" style="stroke:#7F77DD;stroke-width:1.0;"/><polygon fill="#7F77DD" points="1598.0047,540.544,1602.0047,531.544,1598.0047,535.544,1594.0047,531.544,1598.0047,540.544" style="stroke:#7F77DD;stroke-width:1.0;"/><text fill="#534AB7" font-family="sans-serif" font-size="10" lengthAdjust="spacing" textLength="67" x="1530.0047" y="494.374">&#50756;&#47308; &#51060;&#48292;&#53944; &#54392;&#49884;</text></g><!--link OtherServices to Repos--><g id="link_OtherServices_Repos"><path d="M852.7147,463.744 C807.8047,463.744 762.0047,463.744 762.0047,463.744 C762.0047,463.744 762.0047,511.284 762.0047,543.484 " fill="none" id="OtherServices-to-Repos" style="stroke:#7F77DD;stroke-width:1.0;"/><polygon fill="#7F77DD" points="762.0047,549.484,766.0047,540.484,762.0047,544.484,758.0047,540.484,762.0047,549.484" style="stroke:#7F77DD;stroke-width:1.0;"/></g><!--link Coin to Repos--><g id="link_Coin_Repos"><path d="M1070.5047,454.954 C1070.5047,496.184 1070.5047,561.744 1070.5047,561.744 C1070.5047,561.744 901.6147,561.744 801.8747,561.744 " fill="none" id="Coin-to-Repos" style="stroke:#7F77DD;stroke-width:1.0;"/><polygon fill="#7F77DD" points="795.8747,561.744,804.8747,565.744,800.8747,561.744,804.8747,557.744,795.8747,561.744" style="stroke:#7F77DD;stroke-width:1.0;"/></g><!--link Batch to Repos--><g id="link_Batch_Repos"><path d="M728.2547,455.004 C728.2547,483.464 728.2547,517.984 728.2547,543.434 " fill="none" id="Batch-to-Repos" style="stroke:#7F77DD;stroke-width:1.0;"/><polygon fill="#7F77DD" points="728.2547,549.434,732.2547,540.434,728.2547,544.434,724.2547,540.434,728.2547,549.434" style="stroke:#7F77DD;stroke-width:1.0;"/><text fill="#534AB7" font-family="sans-serif" font-size="10" lengthAdjust="spacing" textLength="134" x="593.2547" y="498.824">&#47564;&#47308; &#45936;&#51060;&#53552; &#49325;&#51228; (@Scheduled)</text></g><!--link Repos to MySQL--><g id="link_Repos_MySQL"><path d="M774.0047,596.904 C774.0047,652.494 774.0047,786.744 774.0047,786.744 C774.0047,786.744 785.0472,786.744 796.7797,786.744 C802.646,786.744 808.6847,786.744 813.6019,786.744 C814.2166,786.744 814.8137,786.744 815.3908,786.744 C815.6793,786.744 809.9628,786.744 810.241,786.744 " fill="none" id="Repos-to-MySQL" style="stroke:#7F77DD;stroke-width:1.0;"/><polygon fill="#7F77DD" points="816.241,786.744,807.241,782.744,811.241,786.744,807.241,790.744,816.241,786.744" style="stroke:#7F77DD;stroke-width:1.0;"/></g><!--link Cache to Redis--><g id="link_Cache_Redis"><path d="M1409.9247,455.014 C1409.9247,473.424 1409.9247,492.744 1409.9247,492.744 C1409.9247,492.744 625.2547,492.744 625.2547,492.744 C625.2547,492.744 625.2547,566.244 625.2547,639.744 C625.2547,658.119 625.2547,676.494 625.2547,693.7206 C625.2547,695.8739 625.2547,698.0093 625.2547,700.1245 C625.2547,701.182 625.2547,696.2346 625.2547,697.2818 " fill="none" id="Cache-to-Redis" style="stroke:#7F77DD;stroke-width:1.0;"/><polygon fill="#7F77DD" points="625.2547,703.2818,629.2547,694.2818,625.2547,698.2818,621.2547,694.2818,625.2547,703.2818" style="stroke:#7F77DD;stroke-width:1.0;"/><text fill="#534AB7" font-family="sans-serif" font-size="10" lengthAdjust="spacing" textLength="85" x="794.6747" y="489.344">@Cacheable (&#50868;&#50689;)</text></g><!--link Repos to Redis--><g id="link_Repos_Redis"><path d="M660.6747,573.744 C632.9647,573.744 607.2547,573.744 607.2547,573.744 C607.2547,573.744 607.2547,623.719 607.2547,675.2553 C607.2547,681.6973 607.2547,688.1637 607.2547,694.56 C607.2547,697.7581 607.2547,694.9387 607.2547,698.0899 " fill="none" id="Repos-to-Redis" style="stroke:#7F77DD;stroke-width:1.0;"/><polygon fill="#7F77DD" points="607.2547,704.0899,611.2547,695.0899,607.2547,699.0899,603.2547,695.0899,607.2547,704.0899" style="stroke:#7F77DD;stroke-width:1.0;"/><text fill="#534AB7" font-family="sans-serif" font-size="10" lengthAdjust="spacing" textLength="95" x="511.2547" y="649.824">OAuth2 &#51064;&#44032; &#50836;&#52397; &#51200;&#51109;</text></g><!--link Security to Kakao--><g id="link_Security_Kakao"><path d="M978.1347,262.744 C757.4647,262.744 106.2547,262.744 106.2547,262.744 C106.2547,262.744 106.2547,471.194 106.2547,543.654 " fill="none" id="Security-to-Kakao" style="stroke:#7F77DD;stroke-width:1.0;"/><polygon fill="#7F77DD" points="106.2547,549.654,110.2547,540.654,106.2547,544.654,102.2547,540.654,106.2547,549.654" style="stroke:#7F77DD;stroke-width:1.0;"/><text fill="#534AB7" font-family="sans-serif" font-size="10" lengthAdjust="spacing" textLength="95" x="302.7447" y="259.344">OAuth2 &#51064;&#44032; &#53076;&#46300; &#44368;&#54872;</text></g><!--link Llm to ClaudeAPI--><g id="link_Llm_ClaudeAPI"><path d="M1366.1347,601.744 C1195.5847,601.744 732.0547,601.744 548.3447,601.744 " fill="none" id="Llm-to-ClaudeAPI" style="stroke:#7F77DD;stroke-width:1.0;"/><polygon fill="#7F77DD" points="542.3447,601.744,551.3447,605.744,547.3447,601.744,551.3447,597.744,542.3447,601.744" style="stroke:#7F77DD;stroke-width:1.0;"/><text fill="#534AB7" font-family="sans-serif" font-size="10" lengthAdjust="spacing" textLength="67" x="886.2347" y="598.344">&#48372;&#44256;&#49436; &#49373;&#49457; &#50836;&#52397;</text></g><!--link Repos to S3--><g id="link_Repos_S3"><path d="M694.5047,549.684 C694.5047,532.694 694.5047,512.744 694.5047,512.744 C694.5047,512.744 278.2547,512.744 278.2547,512.744 C278.2547,512.744 278.2547,515.434 278.2547,526.224 " fill="none" id="Repos-to-S3" style="stroke:#7F77DD;stroke-width:1.0;"/><polygon fill="#7F77DD" points="278.2547,532.224,282.2547,523.224,278.2547,527.224,274.2547,523.224,278.2547,532.224" style="stroke:#7F77DD;stroke-width:1.0;"/><text fill="#534AB7" font-family="sans-serif" font-size="10" lengthAdjust="spacing" textLength="111" x="383.1147" y="509.344">&#54532;&#47196;&#54596; &#51060;&#48120;&#51648; &#50629;&#47196;&#46300; (&#50868;&#50689;)</text></g><!--SRC=[jLPRRnD757xVNt7aFa04pfAO4CX3XUCB3GqXpPhsWQ1ginxYRTQxriuQC0WfW8DQcegqDIL97MHKoaK24T8KJ5N-J1-zu__GCpjxJHorgbGZX3rppdU-S_i6kgIRDTLMgx2WQakBjbKtopdBi6pug9ZbVoGQMfJ9PRLkE4NBT6RKAe5KjbOp22XvE6Cv5Ls36M8T1QgQD4s9hLzE3VPLzEi4HaO7N_gnHq-CZepbf9YDPbLhbabC1sv809Fxo7eVVcFPPMBxfyZ_L24NdfQGv999A8MHuJ4ytHzGd0KC0RAsRLtrJSQBu-FvV70OyntB7CzEZiSl1C0nwMOyWnfoLXV9OFw5GY5VBEpb7oBlvJ-QP9_9POwVF9LWdmb-EGtiqO9bb9DioggZBgYK_AToxYzS0biph7hv_m0sBUSWmcF5pB_33MjwOACCtIHEeqR0ifsA9Kb1ur9vSeKOLetOKB8iWwQyT4uLyXwbYyfLTN4HxovCpPk7PIf-fUlwq2LGAVYtF5A8bpDq7EWKxtxnHB4eO6R8DMVuAueOYZ8dAyePuS-FpohSWE80w9QfE9QDA6Zdlc_sDrVPpsk0VrbdZNsz3knHattR1lUttTxkiiz0-2KOA3LRDnUnQ9O3cU5hS1ZNRBZQq6hECDS3OfQ7Ki5m8ZqC7xhEseGYUzL1p5JG02y5v3XNK4gGmmBRbc4GcsTpmxtVT5-qs5RtPhQcmn687Nm-4jaAiZ5VWUWpLOXMjtMdCMyUWK_L9TM2yzcwKu7HuMD-ak8UdMucw4xMgSvNPnzLHRCuiaBiAxg6vMHlcbX3vEVkDFkttm7hFEYzQ_StMW9VM0lNdAfLIEWuhLvl03_2Uv43lnQMqqOrjCiPQhrC83ix1VtrBdlRzepHmWUjaAfE7RiHEfpEqeQf0VjpsNtT1NUxtV_f6n4WCFKpeH4P_5wewew3yuW3u3vzATXJdq_Eqiqeu_NdRglbFdlk_jW6zlO5wpJz7kYcCEzrj_jtbi7tuDtaHPSleCpBSuIYTilpPfRooQpYJCWA7mlgw1h5ynnlexfO9_ACvUYNTSqR6T7cyqw5s07ilfxDOlSHXfWQsTUsixDPc2CrY-gu1pgX7fnt4C1SB5ohwJOfvr7fSiZ0hDSKR4YvZaE56PmEVfI7m7sswlwo2kn32qiWz-zs-hUsWTr-nJgYEPEgerNuueIgcJhNK3wRJl5BxvlOtR9EjIyrtdQ-blxy_B66coZIpUDzC1M7uCgnuPCJuFdONX4f_7Nt1t7W4EhGerpmmefXGqfJE8wtsEOBE3mosjjkGtzbbMtjkjtM40_lEU7aHWZpfXPK7xydqOu0QxRTxYfsbZrQ0OutR_gT7ak0HwqggGi6DYfHYJc2yLAY_FXDLEAqboQtlXJUy4PmL_4yfDX6rtsxx95utsJtdWWv7G_aD6iw5TkgwLfyOx2iclSZJIqJLJfzF7t25mpl64suRqmPl4lljmVwXG9APjxijvhkutR_GHDuXg-xxDao5Ek60HVcfZ46sznbwxTysSnmpe6uGxfiNJNJ7yS52YQyPKRPTUzlU5MxzwH_huiuM4MN5t9ZlRVp0LlNnDODIT8X4CgFxMv1J88b8V9mK9HFIgLP1MJWwhhV5fSRWiy4d2cKG4uqN4Qb86hLUrWAm1vkztPmoDiTp7r8yXy7HBFrnOg3S24-HnlmnCoRMC7UkoxgD_2dPlOyIhxi3pBFCVwskBTtiTTIeCvHb6I2YCMURiduJszxMOhV1Kac18Dxj9lur0qqzQLQ991W9rEy8WETGacDdBJWA6sZlDYOtC1eKVKdW1Uuz_jBz_wAp9j-zp4EKCGcS15gvIsASFp72tmaeY12ME3SbA9u3PYUFkS_A58iYu6kuaKPP9P8WsqqFLd45TdX4mtzxxiOIKesOGzhV3HWK3gUXWwu28Bv6kn-jutn-ir0Vo4kr7oiOe-2jp_vIKdW1AYU7llLYo9nPOfzi0QXGa6mxtk01ZXvaZ8AOa21RRROpYlSQnJGNpctlPB6jmmr8PhxQF25H1s0wxr3E45hg1nIrBbeQmAn4vN3_-Jzri6WmEviiUORdvSKbJTqL3BnR0Qf87kuWcSyV5YLlm40]--></g></svg>