<?xml version="1.0" encoding="us-ascii" standalone="no"?><svg xmlns="http://www.w3.org/2000/svg" xmlns:xlink="http://www.w3.org/1999/xlink" contentStyleType="text/css" height="1593px" preserveAspectRatio="none" style="width:1072px;height:1593px;background:#FAFAFA;" version="1.1" viewBox="0 0 1072 1593" width="1072px" zoomAndPan="magnify"><defs/><g><rect fill="#FAFAFA" height="1593" style="stroke:none;stroke-width:1.0;" width="1072" x="0" y="0"/><rect fill="#F5F3FF" height="1121.1511" style="stroke:#AFA9EC;stroke-width:1.0;" width="10" x="342" y="173.1922"/><rect fill="#F5F3FF" height="147.8799" style="stroke:#AFA9EC;stroke-width:1.0;" width="10" x="486" y="201.6722"/><rect fill="#F5F3FF" height="881.3513" style="stroke:#AFA9EC;stroke-width:1.0;" width="10" x="622" y="378.0321"/><rect fill="#F5F3FF" height="84.44" style="stroke:#AFA9EC;stroke-width:1.0;" width="10" x="760" y="787.7757"/><rect fill="#F5F3FF" height="84.44" style="stroke:#AFA9EC;stroke-width:1.0;" width="10" x="760" y="1067.5035"/><rect fill="#F5F3FF" height="55.784" style="stroke:#AFA9EC;stroke-width:1.0;" width="10" x="845" y="406.5121"/><rect fill="#F5F3FF" height="55.784" style="stroke:#AFA9EC;stroke-width:1.0;" width="10" x="907.5" y="600.1439"/><rect fill="#F5F3FF" height="830.8713" style="stroke:#534AB7;stroke-width:1.5;" width="791.5" x="273.5" y="421.5121"/><rect fill="#F5F3FF" height="719.1273" style="stroke:none;stroke-width:1.0;" width="791.5" x="273.5" y="533.256"/><rect fill="#F5F3FF" height="630.2395" style="stroke:#534AB7;stroke-width:1.5;" width="771.5" x="283.5" y="615.1439"/><rect fill="#F5F3FF" height="308.2077" style="stroke:none;stroke-width:1.0;" width="771.5" x="283.5" y="720.8879"/><rect fill="#F5F3FF" height="216.2878" style="stroke:none;stroke-width:1.0;" width="771.5" x="283.5" y="1029.0956"/><rect fill="#F5F3FF" height="125.2239" style="stroke:#534AB7;stroke-width:1.5;" width="139.5" x="143.5" y="1309.3433"/><line style="stroke:#AFA9EC;stroke-width:0.5;stroke-dasharray:5.0,5.0;" x1="43" x2="43" y1="99.7522" y2="1494.5273"/><line style="stroke:#AFA9EC;stroke-width:0.5;stroke-dasharray:5.0,5.0;" x1="179.5" x2="179.5" y1="99.7522" y2="1494.5273"/><line style="stroke:#AFA9EC;stroke-width:0.5;stroke-dasharray:5.0,5.0;" x1="346.5" x2="346.5" y1="99.7522" y2="1494.5273"/><line style="stroke:#AFA9EC;stroke-width:0.5;stroke-dasharray:5.0,5.0;" x1="490.5" x2="490.5" y1="99.7522" y2="1494.5273"/><line style="stroke:#AFA9EC;stroke-width:0.5;stroke-dasharray:5.0,5.0;" x1="627" x2="627" y1="99.7522" y2="1494.5273"/><line style="stroke:#AFA9EC;stroke-width:0.5;stroke-dasharray:5.0,5.0;" x1="765" x2="765" y1="99.7522" y2="1494.5273"/><line style="stroke:#AFA9EC;stroke-width:0.5;stroke-dasharray:5.0,5.0;" x1="849.5" x2="849.5" y1="99.7522" y2="1494.5273"/><line style="stroke:#AFA9EC;stroke-width:0.5;stroke-dasharray:5.0,5.0;" x1="912.5" x2="912.5" y1="99.7522" y2="1494.5273"/><text fill="#3C3489" font-family="sans-serif" font-size="12" font-weight="bold" lengthAdjust="spacing" textLength="33" x="23.5" y="78.9201">&#49324;&#50857;&#51088;</text><text fill="#3C3489" font-family="sans-serif" font-size="12" font-weight="bold" lengthAdjust="spacing" textLength="70" x="5" y="96.2962">(&#48708;&#54924;&#50896;/&#54924;&#50896;)</text><ellipse cx="43" cy="13.5" fill="#FFFFFF" rx="8" ry="8" style="stroke:#7F77DD;stroke-width:0.5;"/><path d="M43,21.5 L43,48.5 M30,29.5 L56,29.5 M43,48.5 L30,63.5 M43,48.5 L56,63.5 " fill="none" style="stroke:#7F77DD;stroke-width:0.5;"/><text fill="#3C3489" font-family="sans-serif" font-size="12" font-weight="bold" lengthAdjust="spacing" textLength="33" x="23.5" y="1507.4474">&#49324;&#50857;&#51088;</text><text fill="#3C3489" font-family="sans-serif" font-size="12" font-weight="bold" lengthAdjust="spacing" textLength="70" x="5" y="1524.8235">(&#48708;&#54924;&#50896;/&#54924;&#50896;)</text><ellipse cx="43" cy="1536.7795" fill="#FFFFFF" rx="8" ry="8" style="stroke:#7F77DD;stroke-width:0.5;"/><path d="M43,1544.7795 L43,1571.7795 M30,1552.7795 L56,1552.7795 M43,1571.7795 L30,1586.7795 M43,1571.7795 L56,1586.7795 " fill="none" style="stroke:#7F77DD;stroke-width:0.5;"/><rect fill="#FFFFFF" height="31.3761" rx="2.5" ry="2.5" style="stroke:#AFA9EC;stroke-width:0.5;" width="53" x="153.5" y="67.3761"/><text fill="#26215C" font-family="sans-serif" font-size="12" lengthAdjust="spacing" textLength="39" x="160.5" y="88.2962">Next.js</text><rect fill="#FFFFFF" height="31.3761" rx="2.5" ry="2.5" style="stroke:#AFA9EC;stroke-width:0.5;" width="53" x="153.5" y="1493.5273"/><text fill="#26215C" font-family="sans-serif" font-size="12" lengthAdjust="spacing" textLength="39" x="160.5" y="1514.4474">Next.js</text><rect fill="#FFFFFF" height="31.3761" rx="2.5" ry="2.5" style="stroke:#AFA9EC;stroke-width:0.5;" width="107" x="293.5" y="67.3761"/><text fill="#26215C" font-family="sans-serif" font-size="12" lengthAdjust="spacing" textLength="93" x="300.5" y="88.2962">ResultController</text><rect fill="#FFFFFF" height="31.3761" rx="2.5" ry="2.5" style="stroke:#AFA9EC;stroke-width:0.5;" width="107" x="293.5" y="1493.5273"/><text fill="#26215C" font-family="sans-serif" font-size="12" lengthAdjust="spacing" textLength="93" x="300.5" y="1514.4474">ResultController</text><rect fill="#FFFFFF" height="31.3761" rx="2.5" ry="2.5" style="stroke:#AFA9EC;stroke-width:0.5;" width="97" x="442.5" y="67.3761"/><text fill="#26215C" font-family="sans-serif" font-size="12" lengthAdjust="spacing" textLength="83" x="449.5" y="88.2962">ScoringService</text><rect fill="#FFFFFF" height="31.3761" rx="2.5" ry="2.5" style="stroke:#AFA9EC;stroke-width:0.5;" width="97" x="442.5" y="1493.5273"/><text fill="#26215C" font-family="sans-serif" font-size="12" lengthAdjust="spacing" textLength="83" x="449.5" y="1514.4474">ScoringService</text><rect fill="#FFFFFF" height="31.3761" rx="2.5" ry="2.5" style="stroke:#AFA9EC;stroke-width:0.5;" width="90" x="582" y="67.3761"/><text fill="#26215C" font-family="sans-serif" font-size="12" lengthAdjust="spacing" textLength="76" x="589" y="88.2962">CacheService</text><rect fill="#FFFFFF" height="31.3761" rx="2.5" ry="2.5" style="stroke:#AFA9EC;stroke-width:0.5;" width="90" x="582" y="1493.5273"/><text fill="#26215C" font-family="sans-serif" font-size="12" lengthAdjust="spacing" textLength="76" x="589" y="1514.4474">CacheService</text><rect fill="#FFFFFF" height="31.3761" rx="2.5" ry="2.5" style="stroke:#AFA9EC;stroke-width:0.5;" width="76" x="727" y="67.3761"/><text fill="#26215C" font-family="sans-serif" font-size="12" lengthAdjust="spacing" textLength="62" x="734" y="88.2962">LlmService</text><rect fill="#FFFFFF" height="31.3761" rx="2.5" ry="2.5" style="stroke:#AFA9EC;stroke-width:0.5;" width="76" x="727" y="1493.5273"/><text fill="#26215C" font-family="sans-serif" font-size="12" lengthAdjust="spacing" textLength="62" x="734" y="1514.4474">LlmService</text><text fill="#26215C" font-family="sans-serif" font-size="12" lengthAdjust="spacing" textLength="31" x="831.5" y="96.2962">Redis</text><path d="M832,46.3761 C832,36.3761 850,36.3761 850,36.3761 C850,36.3761 868,36.3761 868,46.3761 L868,72.3761 C868,82.3761 850,82.3761 850,82.3761 C850,82.3761 832,82.3761 832,72.3761 L832,46.3761 " fill="#E2E2F0" style="stroke:#181818;stroke-width:1.5;"/><path d="M832,46.3761 C832,56.3761 850,56.3761 850,56.3761 C850,56.3761 868,56.3761 868,46.3761 " fill="none" style="stroke:#181818;stroke-width:1.5;"/><text fill="#26215C" font-family="sans-serif" font-size="12" lengthAdjust="spacing" textLength="31" x="831.5" y="1507.4474">Redis</text><path d="M832,1520.9034 C832,1510.9034 850,1510.9034 850,1510.9034 C850,1510.9034 868,1510.9034 868,1520.9034 L868,1546.9034 C868,1556.9034 850,1556.9034 850,1556.9034 C850,1556.9034 832,1556.9034 832,1546.9034 L832,1520.9034 " fill="#E2E2F0" style="stroke:#181818;stroke-width:1.5;"/><path d="M832,1520.9034 C832,1530.9034 850,1530.9034 850,1530.9034 C850,1530.9034 868,1530.9034 868,1520.9034 " fill="none" style="stroke:#181818;stroke-width:1.5;"/><text fill="#26215C" font-family="sans-serif" font-size="12" lengthAdjust="spacing" textLength="62" x="878.5" y="78.9201">disc_cache</text><text fill="#26215C" font-family="sans-serif" font-size="12" lengthAdjust="spacing" textLength="47" x="886" y="96.2962">(MySQL)</text><path d="M894.5,29 C894.5,19 912.5,19 912.5,19 C912.5,19 930.5,19 930.5,29 L930.5,55 C930.5,65 912.5,65 912.5,65 C912.5,65 894.5,65 894.5,55 L894.5,29 " fill="#E2E2F0" style="stroke:#181818;stroke-width:1.5;"/><path d="M894.5,29 C894.5,39 912.5,39 912.5,39 C912.5,39 930.5,39 930.5,29 " fill="none" style="stroke:#181818;stroke-width:1.5;"/><text fill="#26215C" font-family="sans-serif" font-size="12" lengthAdjust="spacing" textLength="62" x="878.5" y="1507.4474">disc_cache</text><text fill="#26215C" font-family="sans-serif" font-size="12" lengthAdjust="spacing" textLength="47" x="886" y="1524.8235">(MySQL)</text><path d="M894.5,1538.2795 C894.5,1528.2795 912.5,1528.2795 912.5,1528.2795 C912.5,1528.2795 930.5,1528.2795 930.5,1538.2795 L930.5,1564.2795 C930.5,1574.2795 912.5,1574.2795 912.5,1574.2795 C912.5,1574.2795 894.5,1574.2795 894.5,1564.2795 L894.5,1538.2795 " fill="#E2E2F0" style="stroke:#181818;stroke-width:1.5;"/><path d="M894.5,1538.2795 C894.5,1548.2795 912.5,1548.2795 912.5,1548.2795 C912.5,1548.2795 930.5,1548.2795 930.5,1538.2795 " fill="none" style="stroke:#181818;stroke-width:1.5;"/><rect fill="#F5F3FF" height="1121.1511" style="stroke:#AFA9EC;stroke-width:1.0;" width="10" x="342" y="173.1922"/><rect fill="#F5F3FF" height="147.8799" style="stroke:#AFA9EC;stroke-width:1.0;" width="10" x="486" y="201.6722"/><rect fill="#F5F3FF" height="881.3513" style="stroke:#AFA9EC;stroke-width:1.0;" width="10" x="622" y="378.0321"/><rect fill="#F5F3FF" height="84.44" style="stroke:#AFA9EC;stroke-width:1.0;" width="10" x="760" y="787.7757"/><rect fill="#F5F3FF" height="84.44" style="stroke:#AFA9EC;stroke-width:1.0;" width="10" x="760" y="1067.5035"/><rect fill="#F5F3FF" height="55.784" style="stroke:#AFA9EC;stroke-width:1.0;" width="10" x="845" y="406.5121"/><rect fill="#F5F3FF" height="55.784" style="stroke:#AFA9EC;stroke-width:1.0;" width="10" x="907.5" y="600.1439"/><polygon fill="#7F77DD" points="168,126.2322,178,130.2322,168,134.2322,172,130.2322" style="stroke:#7F77DD;stroke-width:1.0;"/><line style="stroke:#7F77DD;stroke-width:1.0;" x1="43" x2="174" y1="130.2322" y2="130.2322"/><text fill="#534AB7" font-family="sans-serif" font-size="10" lengthAdjust="spacing" textLength="70" x="76.5" y="125.3522">24&#47928;&#54637; &#51025;&#45813; &#50756;&#47308;</text><polygon fill="#7F77DD" points="330,169.1922,340,173.1922,330,177.1922,334,173.1922" style="stroke:#7F77DD;stroke-width:1.0;"/><line style="stroke:#7F77DD;stroke-width:1.0;" x1="180" x2="336" y1="173.1922" y2="173.1922"/><text fill="#534AB7" font-family="sans-serif" font-size="10" lengthAdjust="spacing" textLength="94" x="214" y="153.8322">POST /results/score</text><text fill="#534AB7" font-family="sans-serif" font-size="10" lengthAdjust="spacing" textLength="137" x="192.5" y="168.3122">{ testType, scores: { d, i, s, c } }</text><polygon fill="#7F77DD" points="474,197.6722,484,201.6722,474,205.6722,478,201.6722" style="stroke:#7F77DD;stroke-width:1.0;"/><line style="stroke:#7F77DD;stroke-width:1.0;" x1="352" x2="480" y1="201.6722" y2="201.6722"/><text fill="#534AB7" font-family="sans-serif" font-size="10" lengthAdjust="spacing" textLength="88" x="375" y="196.7922">normalize(d, i, s, c)</text><path d="M501,214.6722 L501,267.6722 L645,267.6722 L645,224.6722 L635,214.6722 L501,214.6722 " fill="#F5F3FF" style="stroke:#AFA9EC;stroke-width:0.5;"/><path d="M635,214.6722 L635,224.6722 L645,224.6722 L635,214.6722 " fill="#F5F3FF" style="stroke:#AFA9EC;stroke-width:0.5;"/><text fill="#534AB7" font-family="sans-serif" font-size="10" lengthAdjust="spacing" textLength="94" x="507" y="231.2722">D + I + S + C = 24 &#44160;&#51613;</text><text fill="#534AB7" font-family="sans-serif" font-size="10" lengthAdjust="spacing" textLength="114" x="507" y="245.7522">&#50896;&#51216;&#49688; &#48276;&#50948; &#44160;&#51613; (-24~+48)</text><text fill="#534AB7" font-family="sans-serif" font-size="10" lengthAdjust="spacing" textLength="123" x="507" y="260.2321">&#50896;&#51216;&#49688; &#8594; &#48260;&#53431;&#44050; (1~3) &#51221;&#44508;&#54868;</text><line style="stroke:#7F77DD;stroke-width:1.0;" x1="496" x2="538" y1="308.0721" y2="308.0721"/><line style="stroke:#7F77DD;stroke-width:1.0;" x1="538" x2="538" y1="308.0721" y2="321.0721"/><line style="stroke:#7F77DD;stroke-width:1.0;" x1="497" x2="538" y1="321.0721" y2="321.0721"/><polygon fill="#7F77DD" points="507,317.0721,497,321.0721,507,325.0721,503,321.0721" style="stroke:#7F77DD;stroke-width:1.0;"/><text fill="#534AB7" font-family="sans-serif" font-size="10" lengthAdjust="spacing" textLength="56" x="531" y="288.7121">&#48260;&#53431;&#44050; &#51221;&#44508;&#54868;</text><text fill="#534AB7" font-family="sans-serif" font-size="10" lengthAdjust="spacing" textLength="112" x="503" y="303.1921">(&#50896;&#51216;&#49688; -24~+48 &#8594; 3&#45800;&#44228;)</text><polygon fill="#7F77DD" points="363,345.5521,353,349.5521,363,353.5521,359,349.5521" style="stroke:#7F77DD;stroke-width:1.0;"/><line style="stroke:#7F77DD;stroke-width:1.0;stroke-dasharray:2.0,2.0;" x1="357" x2="490" y1="349.5521" y2="349.5521"/><text fill="#534AB7" font-family="sans-serif" font-size="10" lengthAdjust="spacing" textLength="110" x="366.5" y="344.6721">{ d, i, s, c &#50896;&#51216;&#49688; + &#48260;&#53431;&#44050; }</text><polygon fill="#7F77DD" points="610,374.0321,620,378.0321,610,382.0321,614,378.0321" style="stroke:#7F77DD;stroke-width:1.0;"/><line style="stroke:#7F77DD;stroke-width:1.0;" x1="352" x2="616" y1="378.0321" y2="378.0321"/><text fill="#534AB7" font-family="sans-serif" font-size="10" lengthAdjust="spacing" textLength="117" x="428.5" y="373.1521">getReport(d, i, s, c &#48260;&#53431;&#44050;)</text><polygon fill="#7F77DD" points="833,402.5121,843,406.5121,833,410.5121,837,406.5121" style="stroke:#7F77DD;stroke-width:1.0;"/><line style="stroke:#7F77DD;stroke-width:1.0;" x1="632" x2="839" y1="406.5121" y2="406.5121"/><text fill="#534AB7" font-family="sans-serif" font-size="10" lengthAdjust="spacing" textLength="129" x="674" y="401.6321">GET disc_cache:{d}:{i}:{s}:{c}</text><path d="M273.5,421.5121 L334.5,421.5121 L334.5,430.8882 L324.5,440.8882 L273.5,440.8882 L273.5,421.5121 " fill="#EEEDFE" style="stroke:#534AB7;stroke-width:1.5;"/><rect fill="none" height="830.8713" style="stroke:#534AB7;stroke-width:1.5;" width="791.5" x="273.5" y="421.5121"/><text fill="#26215C" font-family="sans-serif" font-size="12" font-weight="bold" lengthAdjust="spacing" textLength="16" x="288.5" y="436.4322">alt</text><text fill="#3C3489" font-family="sans-serif" font-size="11" font-weight="bold" lengthAdjust="spacing" textLength="82" x="349.5" y="436.272">[Redis &#52880;&#49884; HIT]</text><polygon fill="#7F77DD" points="643,458.2961,633,462.2961,643,466.2961,639,462.2961" style="stroke:#7F77DD;stroke-width:1.0;"/><line style="stroke:#7F77DD;stroke-width:1.0;stroke-dasharray:2.0,2.0;" x1="637" x2="849" y1="462.2961" y2="462.2961"/><text fill="#534AB7" font-family="sans-serif" font-size="10" lengthAdjust="spacing" textLength="67" x="707.5" y="457.4161">&#52880;&#49884; &#45936;&#51060;&#53552; &#48152;&#54872;</text><polygon fill="#7F77DD" points="363,486.7761,353,490.7761,363,494.7761,359,490.7761" style="stroke:#7F77DD;stroke-width:1.0;"/><line style="stroke:#7F77DD;stroke-width:1.0;stroke-dasharray:2.0,2.0;" x1="357" x2="621" y1="490.7761" y2="490.7761"/><text fill="#534AB7" font-family="sans-serif" font-size="10" lengthAdjust="spacing" textLength="47" x="463.5" y="485.8961">&#48372;&#44256;&#49436; &#48152;&#54872;</text><path d="M637,503.7761 L637,527.7761 L770,527.7761 L770,513.7761 L760,503.7761 L637,503.7761 " fill="#F5F3FF" style="stroke:#AFA9EC;stroke-width:0.5;"/><path d="M760,503.7761 L760,513.7761 L770,513.7761 L760,503.7761 " fill="#F5F3FF" style="stroke:#AFA9EC;stroke-width:0.5;"/><text fill="#534AB7" font-family="sans-serif" font-size="10" lengthAdjust="spacing" textLength="112" x="643" y="520.376">Redis HIT &#8594; DB &#51312;&#54924; &#49373;&#47029;</text><line style="stroke:#534AB7;stroke-width:1.0;stroke-dasharray:2.0,2.0;" x1="273.5" x2="1065" y1="534.256" y2="534.256"/><text fill="#3C3489" font-family="sans-serif" font-size="11" font-weight="bold" lengthAdjust="spacing" textLength="90" x="278.5" y="547.0159">[Redis &#52880;&#49884; MISS]</text><polygon fill="#7F77DD" points="643,567.6639,633,571.6639,643,575.6639,639,571.6639" style="stroke:#7F77DD;stroke-width:1.0;"/><line style="stroke:#7F77DD;stroke-width:1.0;stroke-dasharray:2.0,2.0;" x1="637" x2="849" y1="571.6639" y2="571.6639"/><text fill="#534AB7" font-family="sans-serif" font-size="10" lengthAdjust="spacing" textLength="18" x="732" y="566.7839">null</text><polygon fill="#7F77DD" points="895.5,596.1439,905.5,600.1439,895.5,604.1439,899.5,600.1439" style="stroke:#7F77DD;stroke-width:1.0;"/><line style="stroke:#7F77DD;stroke-width:1.0;" x1="632" x2="901.5" y1="600.1439" y2="600.1439"/><text fill="#534AB7" font-family="sans-serif" font-size="10" lengthAdjust="spacing" textLength="208" x="665.75" y="595.2639">SELECT WHERE d=? AND i=? AND s=? AND c=?</text><path d="M283.5,615.1439 L344.5,615.1439 L344.5,624.52 L334.5,634.52 L283.5,634.52 L283.5,615.1439 " fill="#EEEDFE" style="stroke:#534AB7;stroke-width:1.5;"/><rect fill="none" height="630.2395" style="stroke:#534AB7;stroke-width:1.5;" width="771.5" x="283.5" y="615.1439"/><text fill="#26215C" font-family="sans-serif" font-size="12" font-weight="bold" lengthAdjust="spacing" textLength="16" x="298.5" y="630.064">alt</text><text fill="#3C3489" font-family="sans-serif" font-size="11" font-weight="bold" lengthAdjust="spacing" textLength="214" x="359.5" y="629.9038">[&#52880;&#49884; HIT + &#50976;&#54952; (created_at &gt;= &#47564;&#47308; &#44592;&#51456;)]</text><polygon fill="#7F77DD" points="643,651.9279,633,655.9279,643,659.9279,639,655.9279" style="stroke:#7F77DD;stroke-width:1.0;"/><line style="stroke:#7F77DD;stroke-width:1.0;stroke-dasharray:2.0,2.0;" x1="637" x2="911.5" y1="655.9279" y2="655.9279"/><text fill="#534AB7" font-family="sans-serif" font-size="10" lengthAdjust="spacing" textLength="49" x="747.75" y="651.0479">&#52880;&#49884; &#54665; &#48152;&#54872;</text><polygon fill="#7F77DD" points="838,680.4079,848,684.4079,838,688.4079,842,684.4079" style="stroke:#7F77DD;stroke-width:1.0;"/><line style="stroke:#7F77DD;stroke-width:1.0;" x1="632" x2="844" y1="684.4079" y2="684.4079"/><text fill="#534AB7" font-family="sans-serif" font-size="10" lengthAdjust="spacing" textLength="128" x="677" y="679.5279">SET disc_cache:{d}:{i}:{s}:{c}</text><polygon fill="#7F77DD" points="363,708.8879,353,712.8879,363,716.8879,359,712.8879" style="stroke:#7F77DD;stroke-width:1.0;"/><line style="stroke:#7F77DD;stroke-width:1.0;stroke-dasharray:2.0,2.0;" x1="357" x2="621" y1="712.8879" y2="712.8879"/><text fill="#534AB7" font-family="sans-serif" font-size="10" lengthAdjust="spacing" textLength="47" x="463.5" y="708.0079">&#48372;&#44256;&#49436; &#48152;&#54872;</text><line style="stroke:#534AB7;stroke-width:1.0;stroke-dasharray:2.0,2.0;" x1="283.5" x2="1055" y1="721.8879" y2="721.8879"/><text fill="#3C3489" font-family="sans-serif" font-size="11" font-weight="bold" lengthAdjust="spacing" textLength="208" x="288.5" y="734.6478">[&#52880;&#49884; HIT + &#47564;&#47308; (created_at &lt; &#47564;&#47308; &#44592;&#51456;)]</text><polygon fill="#7F77DD" points="643,755.2957,633,759.2957,643,763.2957,639,759.2957" style="stroke:#7F77DD;stroke-width:1.0;"/><line style="stroke:#7F77DD;stroke-width:1.0;stroke-dasharray:2.0,2.0;" x1="637" x2="911.5" y1="759.2957" y2="759.2957"/><text fill="#534AB7" font-family="sans-serif" font-size="10" lengthAdjust="spacing" textLength="78" x="733.25" y="754.4157">&#47564;&#47308;&#46108; &#52880;&#49884; &#54665; &#48152;&#54872;</text><polygon fill="#7F77DD" points="748,783.7757,758,787.7757,748,791.7757,752,787.7757" style="stroke:#7F77DD;stroke-width:1.0;"/><line style="stroke:#7F77DD;stroke-width:1.0;" x1="632" x2="754" y1="787.7757" y2="787.7757"/><text fill="#534AB7" font-family="sans-serif" font-size="10" lengthAdjust="spacing" textLength="109" x="641.5" y="782.8957">generateReport(&#48260;&#53431;&#44050;)</text><line style="stroke:#7F77DD;stroke-width:1.0;" x1="770" x2="812" y1="830.7357" y2="830.7357"/><line style="stroke:#7F77DD;stroke-width:1.0;" x1="812" x2="812" y1="830.7357" y2="843.7357"/><line style="stroke:#7F77DD;stroke-width:1.0;" x1="771" x2="812" y1="843.7357" y2="843.7357"/><polygon fill="#7F77DD" points="781,839.7357,771,843.7357,781,847.7357,777,843.7357" style="stroke:#7F77DD;stroke-width:1.0;"/><text fill="#534AB7" font-family="sans-serif" font-size="10" lengthAdjust="spacing" textLength="56" x="779.5" y="811.3757">&#54532;&#47212;&#54532;&#53944; &#44396;&#49457;</text><text fill="#534AB7" font-family="sans-serif" font-size="10" lengthAdjust="spacing" textLength="61" x="777" y="825.8557">(6&#44060; &#49465;&#49496; &#50836;&#52397;)</text><polygon fill="#7F77DD" points="643,868.2157,633,872.2157,643,876.2157,639,872.2157" style="stroke:#7F77DD;stroke-width:1.0;"/><line style="stroke:#7F77DD;stroke-width:1.0;stroke-dasharray:2.0,2.0;" x1="637" x2="764" y1="872.2157" y2="872.2157"/><text fill="#534AB7" font-family="sans-serif" font-size="10" lengthAdjust="spacing" textLength="79" x="659" y="867.3357">Markdown &#48372;&#44256;&#49436;</text><polygon fill="#7F77DD" points="900.5,911.1756,910.5,915.1756,900.5,919.1756,904.5,915.1756" style="stroke:#7F77DD;stroke-width:1.0;"/><line style="stroke:#7F77DD;stroke-width:1.0;" x1="632" x2="906.5" y1="915.1756" y2="915.1756"/><text fill="#534AB7" font-family="sans-serif" font-size="10" lengthAdjust="spacing" textLength="194" x="675.25" y="895.8157">UPDATE SET report=?, created_at=NOW()</text><text fill="#534AB7" font-family="sans-serif" font-size="10" lengthAdjust="spacing" textLength="171" x="686.75" y="910.2956">WHERE d=? AND i=? AND s=? AND c=?</text><path d="M917,928.1756 L917,966.1756 L1045,966.1756 L1045,938.1756 L1035,928.1756 L917,928.1756 " fill="#F5F3FF" style="stroke:#AFA9EC;stroke-width:0.5;"/><path d="M1035,928.1756 L1035,938.1756 L1045,938.1756 L1035,928.1756 " fill="#F5F3FF" style="stroke:#AFA9EC;stroke-width:0.5;"/><text fill="#534AB7" font-family="sans-serif" font-size="10" lengthAdjust="spacing" textLength="107" x="923" y="944.7756">&#54665; DELETE &#50630;&#51060; UPDATE</text><text fill="#534AB7" font-family="sans-serif" font-size="10" lengthAdjust="spacing" textLength="81" x="923" y="959.2556">FK &#52280;&#51312; &#47924;&#44208;&#49457; &#50976;&#51648;</text><polygon fill="#7F77DD" points="838,988.6156,848,992.6156,838,996.6156,842,992.6156" style="stroke:#7F77DD;stroke-width:1.0;"/><line style="stroke:#7F77DD;stroke-width:1.0;" x1="632" x2="844" y1="992.6156" y2="992.6156"/><text fill="#534AB7" font-family="sans-serif" font-size="10" lengthAdjust="spacing" textLength="128" x="677" y="987.7356">SET disc_cache:{d}:{i}:{s}:{c}</text><polygon fill="#7F77DD" points="363,1017.0956,353,1021.0956,363,1025.0956,359,1021.0956" style="stroke:#7F77DD;stroke-width:1.0;"/><line style="stroke:#7F77DD;stroke-width:1.0;stroke-dasharray:2.0,2.0;" x1="357" x2="621" y1="1021.0956" y2="1021.0956"/><text fill="#534AB7" font-family="sans-serif" font-size="10" lengthAdjust="spacing" textLength="47" x="463.5" y="1016.2156">&#48372;&#44256;&#49436; &#48152;&#54872;</text><line style="stroke:#534AB7;stroke-width:1.0;stroke-dasharray:2.0,2.0;" x1="283.5" x2="1055" y1="1030.0956" y2="1030.0956"/><text fill="#3C3489" font-family="sans-serif" font-size="11" font-weight="bold" lengthAdjust="spacing" textLength="102" x="288.5" y="1042.8555">[&#52880;&#49884; MISS (&#54665; &#50630;&#51020;)]</text><polygon fill="#7F77DD" points="748,1063.5035,758,1067.5035,748,1071.5035,752,1067.5035" style="stroke:#7F77DD;stroke-width:1.0;"/><line style="stroke:#7F77DD;stroke-width:1.0;" x1="632" x2="754" y1="1067.5035" y2="1067.5035"/><text fill="#534AB7" font-family="sans-serif" font-size="10" lengthAdjust="spacing" textLength="109" x="641.5" y="1062.6235">generateReport(&#48260;&#53431;&#44050;)</text><line style="stroke:#7F77DD;stroke-width:1.0;" x1="770" x2="812" y1="1110.4634" y2="1110.4634"/><line style="stroke:#7F77DD;stroke-width:1.0;" x1="812" x2="812" y1="1110.4634" y2="1123.4634"/><line style="stroke:#7F77DD;stroke-width:1.0;" x1="771" x2="812" y1="1123.4634" y2="1123.4634"/><polygon fill="#7F77DD" points="781,1119.4634,771,1123.4634,781,1127.4634,777,1123.4634" style="stroke:#7F77DD;stroke-width:1.0;"/><text fill="#534AB7" font-family="sans-serif" font-size="10" lengthAdjust="spacing" textLength="56" x="779.5" y="1091.1034">&#54532;&#47212;&#54532;&#53944; &#44396;&#49457;</text><text fill="#534AB7" font-family="sans-serif" font-size="10" lengthAdjust="spacing" textLength="61" x="777" y="1105.5834">(6&#44060; &#49465;&#49496; &#50836;&#52397;)</text><polygon fill="#7F77DD" points="643,1147.9434,633,1151.9434,643,1155.9434,639,1151.9434" style="stroke:#7F77DD;stroke-width:1.0;"/><line style="stroke:#7F77DD;stroke-width:1.0;stroke-dasharray:2.0,2.0;" x1="637" x2="764" y1="1151.9434" y2="1151.9434"/><text fill="#534AB7" font-family="sans-serif" font-size="10" lengthAdjust="spacing" textLength="79" x="659" y="1147.0634">Markdown &#48372;&#44256;&#49436;</text><polygon fill="#7F77DD" points="900.5,1176.4234,910.5,1180.4234,900.5,1184.4234,904.5,1180.4234" style="stroke:#7F77DD;stroke-width:1.0;"/><line style="stroke:#7F77DD;stroke-width:1.0;" x1="632" x2="906.5" y1="1180.4234" y2="1180.4234"/><text fill="#534AB7" font-family="sans-serif" font-size="10" lengthAdjust="spacing" textLength="169" x="687.75" y="1175.5434">INSERT (d, i, s, c, report, created_at)</text><polygon fill="#7F77DD" points="838,1204.9034,848,1208.9034,838,1212.9034,842,1208.9034" style="stroke:#7F77DD;stroke-width:1.0;"/><line style="stroke:#7F77DD;stroke-width:1.0;" x1="632" x2="844" y1="1208.9034" y2="1208.9034"/><text fill="#534AB7" font-family="sans-serif" font-size="10" lengthAdjust="spacing" textLength="128" x="677" y="1204.0234">SET disc_cache:{d}:{i}:{s}:{c}</text><polygon fill="#7F77DD" points="363,1233.3834,353,1237.3834,363,1241.3834,359,1237.3834" style="stroke:#7F77DD;stroke-width:1.0;"/><line style="stroke:#7F77DD;stroke-width:1.0;stroke-dasharray:2.0,2.0;" x1="357" x2="621" y1="1237.3834" y2="1237.3834"/><text fill="#534AB7" font-family="sans-serif" font-size="10" lengthAdjust="spacing" textLength="47" x="463.5" y="1232.5034">&#48372;&#44256;&#49436; &#48152;&#54872;</text><polygon fill="#7F77DD" points="191,1290.3433,181,1294.3433,191,1298.3433,187,1294.3433" style="stroke:#7F77DD;stroke-width:1.0;"/><line style="stroke:#7F77DD;stroke-width:1.0;stroke-dasharray:2.0,2.0;" x1="185" x2="346" y1="1294.3433" y2="1294.3433"/><text fill="#534AB7" font-family="sans-serif" font-size="10" lengthAdjust="spacing" textLength="33" x="247" y="1274.9834">200 OK</text><text fill="#534AB7" font-family="sans-serif" font-size="10" lengthAdjust="spacing" textLength="138" x="194.5" y="1289.4633">{ rawScores, buckets, report }</text><path d="M143.5,1309.3433 L204.5,1309.3433 L204.5,1318.7195 L194.5,1328.7195 L143.5,1328.7195 L143.5,1309.3433 " fill="#EEEDFE" style="stroke:#534AB7;stroke-width:1.5;"/><rect fill="none" height="125.2239" style="stroke:#534AB7;stroke-width:1.5;" width="139.5" x="143.5" y="1309.3433"/><text fill="#26215C" font-family="sans-serif" font-size="12" font-weight="bold" lengthAdjust="spacing" textLength="16" x="158.5" y="1324.2634">alt</text><text fill="#3C3489" font-family="sans-serif" font-size="11" font-weight="bold" lengthAdjust="spacing" textLength="38" x="219.5" y="1324.1032">[&#48708;&#54924;&#50896;]</text><line style="stroke:#7F77DD;stroke-width:1.0;" x1="180" x2="222" y1="1364.6073" y2="1364.6073"/><line style="stroke:#7F77DD;stroke-width:1.0;" x1="222" x2="222" y1="1364.6073" y2="1377.6073"/><line style="stroke:#7F77DD;stroke-width:1.0;" x1="181" x2="222" y1="1377.6073" y2="1377.6073"/><polygon fill="#7F77DD" points="191,1373.6073,181,1377.6073,191,1381.6073,187,1377.6073" style="stroke:#7F77DD;stroke-width:1.0;"/><text fill="#534AB7" font-family="sans-serif" font-size="10" lengthAdjust="spacing" textLength="83" x="187" y="1345.2473">sessionStorage&#50640;</text><text fill="#534AB7" font-family="sans-serif" font-size="10" lengthAdjust="spacing" textLength="71" x="193" y="1359.7273">DISC &#50896;&#51216;&#49688; &#51200;&#51109;</text><path d="M185,1390.6073 L185,1428.6073 L273,1428.6073 L273,1400.6073 L263,1390.6073 L185,1390.6073 " fill="#F5F3FF" style="stroke:#AFA9EC;stroke-width:0.5;"/><path d="M263,1390.6073 L263,1400.6073 L273,1400.6073 L263,1390.6073 " fill="#F5F3FF" style="stroke:#AFA9EC;stroke-width:0.5;"/><text fill="#534AB7" font-family="sans-serif" font-size="10" lengthAdjust="spacing" textLength="67" x="191" y="1407.2073">&#49436;&#48260; &#49464;&#49496; &#48120;&#48156;&#44553;</text><text fill="#534AB7" font-family="sans-serif" font-size="10" lengthAdjust="spacing" textLength="53" x="191" y="1421.6873">(&#54540;&#47084;&#46377; &#48169;&#50612;)</text><polygon fill="#7F77DD" points="54,1472.5273,44,1476.5273,54,1480.5273,50,1476.5273" style="stroke:#7F77DD;stroke-width:1.0;"/><line style="stroke:#7F77DD;stroke-width:1.0;stroke-dasharray:2.0,2.0;" x1="48" x2="179" y1="1476.5273" y2="1476.5273"/><text fill="#534AB7" font-family="sans-serif" font-size="10" lengthAdjust="spacing" textLength="58" x="82.5" y="1457.1673">&#44208;&#44284; &#54868;&#47732; &#54364;&#49884;</text><text fill="#534AB7" font-family="sans-serif" font-size="10" lengthAdjust="spacing" textLength="113" x="55" y="1471.6473">(&#48372;&#44256;&#49436; &#47116;&#45908;&#47553; &#49884; &#51060;&#47492; &#49341;&#51077;)</text><!--SRC=[tLTjJzjM5FxkNt74lYGghBmLMZIAGbvQL5uwdAfVAbN6le27iJFRj6E8YdLfjQvKebNQKXOOrRPI9AfbGDMqslxCFiOt_s7dNZlsTHBQRXysQKIEyJqlppdFEUVwnbdGpO9YAuimewWBSxQrP6ffox1i-2INOX_92JKqCgii6MxECjr9PP50HwfGC0Z86RXWkVEw2fF4wWH7CPqkXzZwR4TxMrd_ca1FRtjXWDqxqDjp9YseEEJB9MAgP88uZZ97KeO-Pu9AJ9VOag26twwkwWN5T6550XXjIOh_CObbQyGELZ7FSzaqhhQ6uAyrObuLmHJLHSM_0JEO6npCPE8mVUc-_hFdcc229tSPwPsn32sEs-22GwTisxhPx9yl2Y1d-lfJeuEYm4VgngLnVPQCwoPfJqWeRSdmJAwFPtW1Lminun3D5pLRPhFPJ2xR4BUZ8XJuKVP4ADhooO5az1iw1d4oNaEXRQo1i5quqsIMs8pmDgvp0nmxKcdZF5OyqtB92JtJIEI3hHa6BLOIKVo6xA2t3-ZMFjtPk6OclBV5-jOw_M7Zj7zBTe3Ym1MSJqcSbOv9yfNxwHSEbwOD7GShBfyc3ave6l5iop28xIk6Zt5bMRLitPoJYNr3LmbN3PRYUcb5dIUYbhWGLnqt5aL5V9GqnLLc58Umu3JT3vt_9qZmIRskCg_8nSIo_FcuJq1cL98O2T1rFaWNXg2ttpkerX-_0hhzqBl_6kYpelVJkYG52amrJ1ZLBq_9UJXjSsASqmucY20hu1B7pIyN2Ew4RCaPWXNGEa77vqvGOHLMMPtq6mhsWK2W9FX6f80lX34jUr4niCY9o4ioSj4WLkADPUjpyovOi-4oDZQSWZ6yPBpIC8nPGkrmZRxOHXas1DtTeDzjWdTOekLY8854Ls__hLFzPvCndJ_lFaAzOltscrhb4IHwRlKbWUu-hhqfrv-L969glBabgH5xB8t8C3J1aaJE0qGEqkVTVraxAYOZJytSnoYDd9mIO5ObZRIo56TPx3VqEaVSQLAmR5UWEl8ea1xhKodc1Rto9aHt5x9vY1fmQ4LR7LhHyNBmKeKky9jMKWmtCANlDkZzCbmSo_EjXIrrjKORQ7aFAdJxk5wiW5VPh3_RH1CXSTytn6rRwFIEZcj7kxHOZdp4swa9sey9u-Fboem2VLx1_GNejzlUpcj98eP3uhbCZCdo-v8nbmoZNUGjePzdS4CWPyUpwJnSlPYTpe8sF0AfoGpemTq9xkhm2Dg77jdGuoFI716CBKFBk_Mjbv1GRO9QsdN5XVF3uEsju_13hLgXFw-nEG06V78Pwa_kHUJ54a5Ojd9IbyZlxv9MqmyM3sru0M9P1lc8MNxsyKdwYjv6-H-dYpisdp2JsAWLZ9amMymczC6sTxR0Z4BRUgdeFJ_0x_htLQYzFg35tt076QXLCAZYMtfd4-XMYHw-IaQchObCAFQ2Pjqq8zQQuszWjssxAvSpgNoMrypcAGoFu1uHKZeyENKraRncVanRDeyOzyzepM1h8mPzUXVdEa2yPkOk0QrKSSx0EpYk7LOmUzQvT6_jl-qkDjYGO77pWDUJ_-FgZqtAsUay26-7pg0Dn2P8_ii5mNgOcYJnBo6JfdUKyDwBdNcwks7g4ZktsCfDcHzOEc5cILqWhjD8Blug5SyiR2yDJvXiguvEIWq01t-mwPOfuyaKVxVHftWepOp9QU6bJNVNwCulhQyS_nJA2C5aiLVmLcLrzdwjUfLohNgFonBrqhhtuu5NsaS-zkcJuwHFY7yMuQGqeiAm-9bl28yvbThHxu1d46__6EeFozZ9xB0SKRkxxZqeUNlV0Ejnd4Fl1UBV_eFkt4bAVm40]--></g></svg>