<?xml version="1.0" encoding="us-ascii" standalone="no"?><svg xmlns="http://www.w3.org/2000/svg" xmlns:xlink="http://www.w3.org/1999/xlink" contentStyleType="text/css" height="1758px" preserveAspectRatio="none" style="width:896px;height:1758px;background:#FAFAFA;" version="1.1" viewBox="0 0 896 1758" width="896px" zoomAndPan="magnify"><defs/><g><rect fill="#FAFAFA" height="1758" style="stroke:none;stroke-width:1.0;" width="896" x="0" y="0"/><rect fill="#F5F3FF" height="241.7999" style="stroke:#AFA9EC;stroke-width:1.0;" width="10" x="366.5" y="1201.2798"/><rect fill="#F5F3FF" height="258.0718" style="stroke:#AFA9EC;stroke-width:1.0;" width="10" x="478.5" y="771.608"/><rect fill="#F5F3FF" height="170.3599" style="stroke:#AFA9EC;stroke-width:1.0;" width="10" x="582.5" y="1229.7598"/><rect fill="#F5F3FF" height="144.1518" style="stroke:#534AB7;stroke-width:1.5;" width="454" x="425" y="843.568"/><rect fill="#F5F3FF" height="46.4079" style="stroke:none;stroke-width:1.0;" width="454" x="425" y="941.3119"/><rect fill="#F5F3FF" height="513.8316" style="stroke:#534AB7;stroke-width:1.5;" width="760" x="10" y="1146.0159"/><rect fill="#F5F3FF" height="95.3678" style="stroke:none;stroke-width:1.0;" width="760" x="10" y="1564.4796"/><line style="stroke:#AFA9EC;stroke-width:0.5;stroke-dasharray:5.0,5.0;" x1="39" x2="39" y1="82.3761" y2="1676.8475"/><line style="stroke:#AFA9EC;stroke-width:0.5;stroke-dasharray:5.0,5.0;" x1="183.5" x2="183.5" y1="82.3761" y2="1676.8475"/><line style="stroke:#AFA9EC;stroke-width:0.5;stroke-dasharray:5.0,5.0;" x1="371" x2="371" y1="82.3761" y2="1676.8475"/><line style="stroke:#AFA9EC;stroke-width:0.5;stroke-dasharray:5.0,5.0;" x1="483" x2="483" y1="82.3761" y2="1676.8475"/><line style="stroke:#AFA9EC;stroke-width:0.5;stroke-dasharray:5.0,5.0;" x1="587" x2="587" y1="82.3761" y2="1676.8475"/><line style="stroke:#AFA9EC;stroke-width:0.5;stroke-dasharray:5.0,5.0;" x1="737" x2="737" y1="82.3761" y2="1676.8475"/><line style="stroke:#AFA9EC;stroke-width:0.5;stroke-dasharray:5.0,5.0;" x1="816" x2="816" y1="82.3761" y2="1676.8475"/><text fill="#3C3489" font-family="sans-serif" font-size="12" font-weight="bold" lengthAdjust="spacing" textLength="33" x="20" y="78.9201">&#48708;&#54924;&#50896;</text><ellipse cx="39.5" cy="13.5" fill="#FFFFFF" rx="8" ry="8" style="stroke:#7F77DD;stroke-width:0.5;"/><path d="M39.5,21.5 L39.5,48.5 M26.5,29.5 L52.5,29.5 M39.5,48.5 L26.5,63.5 M39.5,48.5 L52.5,63.5 " fill="none" style="stroke:#7F77DD;stroke-width:0.5;"/><text fill="#3C3489" font-family="sans-serif" font-size="12" font-weight="bold" lengthAdjust="spacing" textLength="33" x="20" y="1689.7676">&#48708;&#54924;&#50896;</text><ellipse cx="39.5" cy="1701.7236" fill="#FFFFFF" rx="8" ry="8" style="stroke:#7F77DD;stroke-width:0.5;"/><path d="M39.5,1709.7236 L39.5,1736.7236 M26.5,1717.7236 L52.5,1717.7236 M39.5,1736.7236 L26.5,1751.7236 M39.5,1736.7236 L52.5,1751.7236 " fill="none" style="stroke:#7F77DD;stroke-width:0.5;"/><rect fill="#FFFFFF" height="48.7522" rx="2.5" ry="2.5" style="stroke:#AFA9EC;stroke-width:0.5;" width="66" x="150.5" y="32.6239"/><text fill="#26215C" font-family="sans-serif" font-size="12" lengthAdjust="spacing" textLength="39" x="164" y="53.544">Next.js</text><text fill="#26215C" font-family="sans-serif" font-size="12" lengthAdjust="spacing" textLength="52" x="157.5" y="70.9201">(&#48652;&#46972;&#50864;&#51200;)</text><rect fill="#FFFFFF" height="48.7522" rx="2.5" ry="2.5" style="stroke:#AFA9EC;stroke-width:0.5;" width="66" x="150.5" y="1675.8475"/><text fill="#26215C" font-family="sans-serif" font-size="12" lengthAdjust="spacing" textLength="39" x="164" y="1696.7676">Next.js</text><text fill="#26215C" font-family="sans-serif" font-size="12" lengthAdjust="spacing" textLength="52" x="157.5" y="1714.1437">(&#48652;&#46972;&#50864;&#51200;)</text><rect fill="#FFFFFF" height="31.3761" rx="2.5" ry="2.5" style="stroke:#AFA9EC;stroke-width:0.5;" width="107" x="318" y="50"/><text fill="#26215C" font-family="sans-serif" font-size="12" lengthAdjust="spacing" textLength="93" x="325" y="70.9201">ResultController</text><rect fill="#FFFFFF" height="31.3761" rx="2.5" ry="2.5" style="stroke:#AFA9EC;stroke-width:0.5;" width="107" x="318" y="1675.8475"/><text fill="#26215C" font-family="sans-serif" font-size="12" lengthAdjust="spacing" textLength="93" x="325" y="1696.7676">ResultController</text><rect fill="#FFFFFF" height="31.3761" rx="2.5" ry="2.5" style="stroke:#AFA9EC;stroke-width:0.5;" width="97" x="435" y="50"/><text fill="#26215C" font-family="sans-serif" font-size="12" lengthAdjust="spacing" textLength="83" x="442" y="70.9201">AuthController</text><rect fill="#FFFFFF" height="31.3761" rx="2.5" ry="2.5" style="stroke:#AFA9EC;stroke-width:0.5;" width="97" x="435" y="1675.8475"/><text fill="#26215C" font-family="sans-serif" font-size="12" lengthAdjust="spacing" textLength="83" x="442" y="1696.7676">AuthController</text><rect fill="#FFFFFF" height="31.3761" rx="2.5" ry="2.5" style="stroke:#AFA9EC;stroke-width:0.5;" width="91" x="542" y="50"/><text fill="#26215C" font-family="sans-serif" font-size="12" lengthAdjust="spacing" textLength="77" x="549" y="70.9201">ResultService</text><rect fill="#FFFFFF" height="31.3761" rx="2.5" ry="2.5" style="stroke:#AFA9EC;stroke-width:0.5;" width="91" x="542" y="1675.8475"/><text fill="#26215C" font-family="sans-serif" font-size="12" lengthAdjust="spacing" textLength="77" x="549" y="1696.7676">ResultService</text><text fill="#26215C" font-family="sans-serif" font-size="12" lengthAdjust="spacing" textLength="39" x="715" y="78.9201">MySQL</text><path d="M719.5,29 C719.5,19 737.5,19 737.5,19 C737.5,19 755.5,19 755.5,29 L755.5,55 C755.5,65 737.5,65 737.5,65 C737.5,65 719.5,65 719.5,55 L719.5,29 " fill="#E2E2F0" style="stroke:#181818;stroke-width:1.5;"/><path d="M719.5,29 C719.5,39 737.5,39 737.5,39 C737.5,39 755.5,39 755.5,29 " fill="none" style="stroke:#181818;stroke-width:1.5;"/><text fill="#26215C" font-family="sans-serif" font-size="12" lengthAdjust="spacing" textLength="39" x="715" y="1689.7676">MySQL</text><path d="M719.5,1703.2236 C719.5,1693.2236 737.5,1693.2236 737.5,1693.2236 C737.5,1693.2236 755.5,1693.2236 755.5,1703.2236 L755.5,1729.2236 C755.5,1739.2236 737.5,1739.2236 737.5,1739.2236 C737.5,1739.2236 719.5,1739.2236 719.5,1729.2236 L719.5,1703.2236 " fill="#E2E2F0" style="stroke:#181818;stroke-width:1.5;"/><path d="M719.5,1703.2236 C719.5,1713.2236 737.5,1713.2236 737.5,1713.2236 C737.5,1713.2236 755.5,1713.2236 755.5,1703.2236 " fill="none" style="stroke:#181818;stroke-width:1.5;"/><rect fill="#E2E2F0" height="31.3761" style="stroke:#181818;stroke-width:0.5;" width="88" x="774" y="46"/><rect fill="#E2E2F0" height="31.3761" style="stroke:#181818;stroke-width:0.5;" width="88" x="770" y="50"/><text fill="#26215C" font-family="sans-serif" font-size="12" lengthAdjust="spacing" textLength="74" x="777" y="70.9201">Kakao OAuth</text><rect fill="#E2E2F0" height="31.3761" style="stroke:#181818;stroke-width:0.5;" width="88" x="774" y="1675.8475"/><rect fill="#E2E2F0" height="31.3761" style="stroke:#181818;stroke-width:0.5;" width="88" x="770" y="1679.8475"/><text fill="#26215C" font-family="sans-serif" font-size="12" lengthAdjust="spacing" textLength="74" x="777" y="1700.7676">Kakao OAuth</text><rect fill="#F5F3FF" height="241.7999" style="stroke:#AFA9EC;stroke-width:1.0;" width="10" x="366.5" y="1201.2798"/><rect fill="#F5F3FF" height="258.0718" style="stroke:#AFA9EC;stroke-width:1.0;" width="10" x="478.5" y="771.608"/><rect fill="#F5F3FF" height="170.3599" style="stroke:#AFA9EC;stroke-width:1.0;" width="10" x="582.5" y="1229.7598"/><rect fill="#EEEDFE" height="3" style="stroke:#EEEDFE;stroke-width:1.0;" width="889" x="0" y="114.0642"/><line style="stroke:#534AB7;stroke-width:1.0;" x1="0" x2="889" y1="114.0642" y2="114.0642"/><line style="stroke:#534AB7;stroke-width:1.0;" x1="0" x2="889" y1="117.0642" y2="117.0642"/><rect fill="#EEEDFE" height="25.3761" style="stroke:#534AB7;stroke-width:2.0;" width="100" x="394.5" y="102.3761"/><text fill="#3C3489" font-family="sans-serif" font-size="12" font-weight="bold" lengthAdjust="spacing" textLength="83" x="400.5" y="120.2962">&#48708;&#54924;&#50896; &#44160;&#49324; &#51025;&#49884;</text><polygon fill="#7F77DD" points="171.5,154.2322,181.5,158.2322,171.5,162.2322,175.5,158.2322" style="stroke:#7F77DD;stroke-width:1.0;"/><line style="stroke:#7F77DD;stroke-width:1.0;" x1="39.5" x2="177.5" y1="158.2322" y2="158.2322"/><text fill="#534AB7" font-family="sans-serif" font-size="10" lengthAdjust="spacing" textLength="38" x="92.5" y="153.3522">&#44160;&#49324; &#49884;&#51089;</text><polygon fill="#7F77DD" points="359.5,197.1922,369.5,201.1922,359.5,205.1922,363.5,201.1922" style="stroke:#7F77DD;stroke-width:1.0;"/><line style="stroke:#7F77DD;stroke-width:1.0;" x1="183.5" x2="365.5" y1="201.1922" y2="201.1922"/><text fill="#534AB7" font-family="sans-serif" font-size="10" lengthAdjust="spacing" textLength="94" x="230.5" y="181.8322">POST /results/score</text><text fill="#534AB7" font-family="sans-serif" font-size="10" lengthAdjust="spacing" textLength="90" x="232.5" y="196.3122">{ scores: { d, i, s, c } }</text><polygon fill="#7F77DD" points="194.5,240.1522,184.5,244.1522,194.5,248.1522,190.5,244.1522" style="stroke:#7F77DD;stroke-width:1.0;"/><line style="stroke:#7F77DD;stroke-width:1.0;stroke-dasharray:2.0,2.0;" x1="188.5" x2="370.5" y1="244.1522" y2="244.1522"/><text fill="#534AB7" font-family="sans-serif" font-size="10" lengthAdjust="spacing" textLength="33" x="261" y="224.7922">200 OK</text><text fill="#534AB7" font-family="sans-serif" font-size="10" lengthAdjust="spacing" textLength="138" x="208.5" y="239.2722">{ rawScores, buckets, report }</text><path d="M188,257.1522 L188,295.1522 L276,295.1522 L276,267.1522 L266,257.1522 L188,257.1522 " fill="#F5F3FF" style="stroke:#AFA9EC;stroke-width:0.5;"/><path d="M266,257.1522 L266,267.1522 L276,267.1522 L266,257.1522 " fill="#F5F3FF" style="stroke:#AFA9EC;stroke-width:0.5;"/><text fill="#534AB7" font-family="sans-serif" font-size="10" lengthAdjust="spacing" textLength="67" x="194" y="273.7522">&#49436;&#48260; &#49464;&#49496; &#48120;&#48156;&#44553;</text><text fill="#534AB7" font-family="sans-serif" font-size="10" lengthAdjust="spacing" textLength="53" x="194" y="288.2321">(&#54540;&#47084;&#46377; &#48169;&#50612;)</text><line style="stroke:#7F77DD;stroke-width:1.0;" x1="183.5" x2="225.5" y1="365.0321" y2="365.0321"/><line style="stroke:#7F77DD;stroke-width:1.0;" x1="225.5" x2="225.5" y1="365.0321" y2="378.0321"/><line style="stroke:#7F77DD;stroke-width:1.0;" x1="184.5" x2="225.5" y1="378.0321" y2="378.0321"/><polygon fill="#7F77DD" points="194.5,374.0321,184.5,378.0321,194.5,382.0321,190.5,378.0321" style="stroke:#7F77DD;stroke-width:1.0;"/><text fill="#534AB7" font-family="sans-serif" font-size="10" lengthAdjust="spacing" textLength="117" x="219" y="316.7121">sessionStorage.setItem(</text><text fill="#534AB7" font-family="sans-serif" font-size="10" lengthAdjust="spacing" textLength="62" x="248.5" y="331.1921">'disc_result',</text><text fill="#534AB7" font-family="sans-serif" font-size="10" lengthAdjust="spacing" textLength="170" x="194.5" y="345.6721">{ scores: { d,i,s,c }, buckets: { d,i,s,c } }</text><text fill="#534AB7" font-family="sans-serif" font-size="10" lengthAdjust="spacing" textLength="3" x="276" y="360.1521">)</text><polygon fill="#7F77DD" points="50.5,416.9921,40.5,420.9921,50.5,424.9921,46.5,420.9921" style="stroke:#7F77DD;stroke-width:1.0;"/><line style="stroke:#7F77DD;stroke-width:1.0;stroke-dasharray:2.0,2.0;" x1="44.5" x2="182.5" y1="420.9921" y2="420.9921"/><text fill="#534AB7" font-family="sans-serif" font-size="10" lengthAdjust="spacing" textLength="38" x="92.5" y="401.6321">&#44208;&#44284; &#54868;&#47732;</text><text fill="#534AB7" font-family="sans-serif" font-size="10" lengthAdjust="spacing" textLength="99" x="62" y="416.1121">("&#49324;&#50857;&#51088;&#45784;&#51032; &#44053;&#51216;&#51008;...")</text><rect fill="#EEEDFE" height="3" style="stroke:#EEEDFE;stroke-width:1.0;" width="889" x="0" y="450.6801"/><line style="stroke:#534AB7;stroke-width:1.0;" x1="0" x2="889" y1="450.6801" y2="450.6801"/><line style="stroke:#534AB7;stroke-width:1.0;" x1="0" x2="889" y1="453.6801" y2="453.6801"/><rect fill="#EEEDFE" height="25.3761" style="stroke:#534AB7;stroke-width:2.0;" width="114" x="387.5" y="438.9921"/><text fill="#3C3489" font-family="sans-serif" font-size="12" font-weight="bold" lengthAdjust="spacing" textLength="97" x="393.5" y="456.9122">&#47196;&#44536;&#51064; &#54980; &#44208;&#44284; &#51200;&#51109;</text><polygon fill="#7F77DD" points="171.5,490.8482,181.5,494.8482,171.5,498.8482,175.5,494.8482" style="stroke:#7F77DD;stroke-width:1.0;"/><line style="stroke:#7F77DD;stroke-width:1.0;" x1="39.5" x2="177.5" y1="494.8482" y2="494.8482"/><text fill="#534AB7" font-family="sans-serif" font-size="10" lengthAdjust="spacing" textLength="111" x="56" y="489.9682">'&#47196;&#44536;&#51064;&#54616;&#44256; &#44208;&#44284; &#51200;&#51109;' &#53364;&#47533;</text><line style="stroke:#7F77DD;stroke-width:1.0;" x1="183.5" x2="225.5" y1="537.8081" y2="537.8081"/><line style="stroke:#7F77DD;stroke-width:1.0;" x1="225.5" x2="225.5" y1="537.8081" y2="550.8081"/><line style="stroke:#7F77DD;stroke-width:1.0;" x1="184.5" x2="225.5" y1="550.8081" y2="550.8081"/><polygon fill="#7F77DD" points="194.5,546.8081,184.5,550.8081,194.5,554.8081,190.5,550.8081" style="stroke:#7F77DD;stroke-width:1.0;"/><text fill="#534AB7" font-family="sans-serif" font-size="10" lengthAdjust="spacing" textLength="92" x="190.5" y="518.4482">sessionStorage&#50640;&#49436;</text><text fill="#534AB7" font-family="sans-serif" font-size="10" lengthAdjust="spacing" textLength="47" x="213" y="532.9281">&#50896;&#51216;&#49688; &#51069;&#44592;</text><polygon fill="#7F77DD" points="471.5,589.7681,481.5,593.7681,471.5,597.7681,475.5,593.7681" style="stroke:#7F77DD;stroke-width:1.0;"/><line style="stroke:#7F77DD;stroke-width:1.0;" x1="183.5" x2="477.5" y1="593.7681" y2="593.7681"/><text fill="#534AB7" font-family="sans-serif" font-size="10" lengthAdjust="spacing" textLength="187" x="240" y="574.4081">GET /auth/kakao?redirect=/save-result</text><text fill="#534AB7" font-family="sans-serif" font-size="10" lengthAdjust="spacing" textLength="209" x="229" y="588.8881">(sessionStorage &#51316;&#51116; &#49884; redirect &#54028;&#46972;&#48120;&#53552; &#54252;&#54632;)</text><path d="M488,606.7681 L488,659.7681 L661,659.7681 L661,616.7681 L651,606.7681 L488,606.7681 " fill="#F5F3FF" style="stroke:#AFA9EC;stroke-width:0.5;"/><path d="M651,606.7681 L651,616.7681 L661,616.7681 L651,606.7681 " fill="#F5F3FF" style="stroke:#AFA9EC;stroke-width:0.5;"/><text fill="#534AB7" font-family="sans-serif" font-size="10" lengthAdjust="spacing" textLength="152" x="494" y="623.3681">redirect &#54028;&#46972;&#48120;&#53552; &#54868;&#51060;&#53944;&#47532;&#49828;&#53944; &#44160;&#51613;</text><text fill="#534AB7" font-family="sans-serif" font-size="10" lengthAdjust="spacing" textLength="89" x="494" y="637.8481">&#54728;&#50857;: /, /save-result</text><text fill="#534AB7" font-family="sans-serif" font-size="10" lengthAdjust="spacing" textLength="69" x="494" y="652.3281">&#44536; &#50808; &#8594; / &#47196; &#51060;&#46041;</text><polygon fill="#7F77DD" points="194.5,696.168,184.5,700.168,194.5,704.168,190.5,700.168" style="stroke:#7F77DD;stroke-width:1.0;"/><line style="stroke:#7F77DD;stroke-width:1.0;stroke-dasharray:2.0,2.0;" x1="188.5" x2="482.5" y1="700.168" y2="700.168"/><text fill="#534AB7" font-family="sans-serif" font-size="10" lengthAdjust="spacing" textLength="89" x="289" y="680.8081">302 &#8594; /save-result</text><text fill="#534AB7" font-family="sans-serif" font-size="10" lengthAdjust="spacing" textLength="130" x="268.5" y="695.288">(accessToken JWT &#53216;&#53412; &#48156;&#44553;)</text><polygon fill="#7F77DD" points="804,724.648,814,728.648,804,732.648,808,728.648" style="stroke:#7F77DD;stroke-width:1.0;"/><line style="stroke:#7F77DD;stroke-width:1.0;" x1="39.5" x2="810" y1="728.648" y2="728.648"/><text fill="#534AB7" font-family="sans-serif" font-size="10" lengthAdjust="spacing" textLength="56" x="399.75" y="723.768">&#52852;&#52852;&#50724; &#47196;&#44536;&#51064;</text><polygon fill="#7F77DD" points="499.5,767.608,489.5,771.608,499.5,775.608,495.5,771.608" style="stroke:#7F77DD;stroke-width:1.0;"/><line style="stroke:#7F77DD;stroke-width:1.0;stroke-dasharray:2.0,2.0;" x1="493.5" x2="815" y1="771.608" y2="771.608"/><text fill="#534AB7" font-family="sans-serif" font-size="10" lengthAdjust="spacing" textLength="125" x="589.75" y="752.248">GET /auth/kakao/callback</text><text fill="#534AB7" font-family="sans-serif" font-size="10" lengthAdjust="spacing" textLength="33" x="635.75" y="766.728">{ code }</text><polygon fill="#7F77DD" points="804,796.088,814,800.088,804,804.088,808,800.088" style="stroke:#7F77DD;stroke-width:1.0;"/><line style="stroke:#7F77DD;stroke-width:1.0;" x1="488.5" x2="810" y1="800.088" y2="800.088"/><text fill="#534AB7" font-family="sans-serif" font-size="10" lengthAdjust="spacing" textLength="118" x="593.25" y="795.208">&#53664;&#53360; &#44368;&#54872; &#48143; &#49324;&#50857;&#51088; &#51221;&#48372; &#51312;&#54924;</text><polygon fill="#7F77DD" points="499.5,824.568,489.5,828.568,499.5,832.568,495.5,828.568" style="stroke:#7F77DD;stroke-width:1.0;"/><line style="stroke:#7F77DD;stroke-width:1.0;stroke-dasharray:2.0,2.0;" x1="493.5" x2="815" y1="828.568" y2="828.568"/><text fill="#534AB7" font-family="sans-serif" font-size="10" lengthAdjust="spacing" textLength="76" x="614.25" y="823.688">&#52852;&#52852;&#50724; &#49324;&#50857;&#51088; &#51221;&#48372;</text><path d="M425,843.568 L486,843.568 L486,852.9441 L476,862.9441 L425,862.9441 L425,843.568 " fill="#EEEDFE" style="stroke:#534AB7;stroke-width:1.5;"/><rect fill="none" height="144.1518" style="stroke:#534AB7;stroke-width:1.5;" width="454" x="425" y="843.568"/><text fill="#26215C" font-family="sans-serif" font-size="12" font-weight="bold" lengthAdjust="spacing" textLength="16" x="440" y="858.4881">alt</text><text fill="#3C3489" font-family="sans-serif" font-size="11" font-weight="bold" lengthAdjust="spacing" textLength="51" x="501" y="858.3279">[&#49888;&#44508; &#54924;&#50896;]</text><polygon fill="#7F77DD" points="725.5,894.832,735.5,898.832,725.5,902.832,729.5,898.832" style="stroke:#7F77DD;stroke-width:1.0;"/><line style="stroke:#7F77DD;stroke-width:1.0;" x1="488.5" x2="731.5" y1="898.832" y2="898.832"/><text fill="#534AB7" font-family="sans-serif" font-size="10" lengthAdjust="spacing" textLength="62" x="582" y="879.472">INSERT users</text><text fill="#534AB7" font-family="sans-serif" font-size="10" lengthAdjust="spacing" textLength="145" x="540.5" y="893.952">(kakao_id, nickname, coins=3)</text><path d="M742,911.832 L742,935.832 L869,935.832 L869,921.832 L859,911.832 L742,911.832 " fill="#F5F3FF" style="stroke:#AFA9EC;stroke-width:0.5;"/><path d="M859,911.832 L859,921.832 L869,921.832 L859,911.832 " fill="#F5F3FF" style="stroke:#AFA9EC;stroke-width:0.5;"/><text fill="#534AB7" font-family="sans-serif" font-size="10" lengthAdjust="spacing" textLength="106" x="748" y="928.4319">&#44032;&#51077; &#49884; &#53076;&#51064; 3&#44060; &#52488;&#44592; &#51648;&#44553;</text><line style="stroke:#534AB7;stroke-width:1.0;stroke-dasharray:2.0,2.0;" x1="425" x2="879" y1="942.3119" y2="942.3119"/><text fill="#3C3489" font-family="sans-serif" font-size="11" font-weight="bold" lengthAdjust="spacing" textLength="51" x="430" y="955.0718">[&#44592;&#51316; &#54924;&#50896;]</text><polygon fill="#7F77DD" points="725.5,975.7198,735.5,979.7198,725.5,983.7198,729.5,979.7198" style="stroke:#7F77DD;stroke-width:1.0;"/><line style="stroke:#7F77DD;stroke-width:1.0;" x1="488.5" x2="731.5" y1="979.7198" y2="979.7198"/><text fill="#534AB7" font-family="sans-serif" font-size="10" lengthAdjust="spacing" textLength="157" x="534.5" y="974.8398">SELECT users WHERE kakao_id=?</text><polygon fill="#7F77DD" points="194.5,1025.6798,184.5,1029.6798,194.5,1033.6798,190.5,1029.6798" style="stroke:#7F77DD;stroke-width:1.0;"/><line style="stroke:#7F77DD;stroke-width:1.0;stroke-dasharray:2.0,2.0;" x1="188.5" x2="482.5" y1="1029.6798" y2="1029.6798"/><text fill="#534AB7" font-family="sans-serif" font-size="10" lengthAdjust="spacing" textLength="99" x="284" y="1010.3198">302 &#8594; &#44208;&#44284; &#51200;&#51109; &#54168;&#51060;&#51648;</text><text fill="#534AB7" font-family="sans-serif" font-size="10" lengthAdjust="spacing" textLength="82" x="292.5" y="1024.7998">(JSESSIONID &#48156;&#44553;)</text><rect fill="#EEEDFE" height="3" style="stroke:#EEEDFE;stroke-width:1.0;" width="889" x="0" y="1059.3678"/><line style="stroke:#534AB7;stroke-width:1.0;" x1="0" x2="889" y1="1059.3678" y2="1059.3678"/><line style="stroke:#534AB7;stroke-width:1.0;" x1="0" x2="889" y1="1062.3678" y2="1062.3678"/><rect fill="#EEEDFE" height="25.3761" style="stroke:#534AB7;stroke-width:2.0;" width="100" x="394.5" y="1047.6798"/><text fill="#3C3489" font-family="sans-serif" font-size="12" font-weight="bold" lengthAdjust="spacing" textLength="83" x="400.5" y="1065.5999">&#50896;&#51216;&#49688; &#49436;&#48260; &#51204;&#49569;</text><line style="stroke:#7F77DD;stroke-width:1.0;" x1="183.5" x2="225.5" y1="1118.0159" y2="1118.0159"/><line style="stroke:#7F77DD;stroke-width:1.0;" x1="225.5" x2="225.5" y1="1118.0159" y2="1131.0159"/><line style="stroke:#7F77DD;stroke-width:1.0;" x1="184.5" x2="225.5" y1="1131.0159" y2="1131.0159"/><polygon fill="#7F77DD" points="194.5,1127.0159,184.5,1131.0159,194.5,1135.0159,190.5,1131.0159" style="stroke:#7F77DD;stroke-width:1.0;"/><text fill="#534AB7" font-family="sans-serif" font-size="10" lengthAdjust="spacing" textLength="92" x="190.5" y="1098.6559">sessionStorage&#50640;&#49436;</text><text fill="#534AB7" font-family="sans-serif" font-size="10" lengthAdjust="spacing" textLength="56" x="208.5" y="1113.1359">&#50896;&#51216;&#49688; &#44732;&#45236;&#44592;</text><path d="M10,1146.0159 L71,1146.0159 L71,1155.392 L61,1165.392 L10,1165.392 L10,1146.0159 " fill="#EEEDFE" style="stroke:#534AB7;stroke-width:1.5;"/><rect fill="none" height="513.8316" style="stroke:#534AB7;stroke-width:1.5;" width="760" x="10" y="1146.0159"/><text fill="#26215C" font-family="sans-serif" font-size="12" font-weight="bold" lengthAdjust="spacing" textLength="16" x="25" y="1160.936">alt</text><text fill="#3C3489" font-family="sans-serif" font-size="11" font-weight="bold" lengthAdjust="spacing" textLength="156" x="86" y="1160.7758">[sessionStorage&#50640; &#50896;&#51216;&#49688; &#51080;&#51020;]</text><polygon fill="#7F77DD" points="354.5,1197.2798,364.5,1201.2798,354.5,1205.2798,358.5,1201.2798" style="stroke:#7F77DD;stroke-width:1.0;"/><line style="stroke:#7F77DD;stroke-width:1.0;" x1="183.5" x2="360.5" y1="1201.2798" y2="1201.2798"/><text fill="#534AB7" font-family="sans-serif" font-size="10" lengthAdjust="spacing" textLength="64" x="243" y="1181.9199">POST /results</text><text fill="#534AB7" font-family="sans-serif" font-size="10" lengthAdjust="spacing" textLength="90" x="230" y="1196.3999">{ scores: { d, i, s, c } }</text><polygon fill="#7F77DD" points="570.5,1225.7598,580.5,1229.7598,570.5,1233.7598,574.5,1229.7598" style="stroke:#7F77DD;stroke-width:1.0;"/><line style="stroke:#7F77DD;stroke-width:1.0;" x1="376.5" x2="576.5" y1="1229.7598" y2="1229.7598"/><text fill="#534AB7" font-family="sans-serif" font-size="10" lengthAdjust="spacing" textLength="113" x="423" y="1224.8798">save(userId, rawScores)</text><line style="stroke:#7F77DD;stroke-width:1.0;" x1="592.5" x2="634.5" y1="1272.7198" y2="1272.7198"/><line style="stroke:#7F77DD;stroke-width:1.0;" x1="634.5" x2="634.5" y1="1272.7198" y2="1285.7198"/><line style="stroke:#7F77DD;stroke-width:1.0;" x1="593.5" x2="634.5" y1="1285.7198" y2="1285.7198"/><polygon fill="#7F77DD" points="603.5,1281.7198,593.5,1285.7198,603.5,1289.7198,599.5,1285.7198" style="stroke:#7F77DD;stroke-width:1.0;"/><text fill="#534AB7" font-family="sans-serif" font-size="10" lengthAdjust="spacing" textLength="47" x="626" y="1253.3598">&#48260;&#53431;&#44050; &#49328;&#52636;</text><text fill="#534AB7" font-family="sans-serif" font-size="10" lengthAdjust="spacing" textLength="100" x="599.5" y="1267.8398">(&#50896;&#51216;&#49688; &#8594; 3&#45800;&#44228; &#51221;&#44508;&#54868;)</text><polygon fill="#7F77DD" points="725.5,1339.1598,735.5,1343.1598,725.5,1347.1598,729.5,1343.1598" style="stroke:#7F77DD;stroke-width:1.0;"/><line style="stroke:#7F77DD;stroke-width:1.0;" x1="592.5" x2="731.5" y1="1343.1598" y2="1343.1598"/><text fill="#534AB7" font-family="sans-serif" font-size="10" lengthAdjust="spacing" textLength="85" x="622.5" y="1309.3198">INSERT disc_tests</text><text fill="#534AB7" font-family="sans-serif" font-size="10" lengthAdjust="spacing" textLength="121" x="604.5" y="1323.7998">(userId, rater_type=SELF,</text><text fill="#534AB7" font-family="sans-serif" font-size="10" lengthAdjust="spacing" textLength="62" x="634" y="1338.2798">&#50896;&#51216;&#49688;, &#48260;&#53431;&#44050;)</text><polygon fill="#7F77DD" points="603.5,1367.6398,593.5,1371.6398,603.5,1375.6398,599.5,1371.6398" style="stroke:#7F77DD;stroke-width:1.0;"/><line style="stroke:#7F77DD;stroke-width:1.0;stroke-dasharray:2.0,2.0;" x1="597.5" x2="736.5" y1="1371.6398" y2="1371.6398"/><text fill="#534AB7" font-family="sans-serif" font-size="10" lengthAdjust="spacing" textLength="37" x="646.5" y="1366.7598">resultId</text><polygon fill="#7F77DD" points="387.5,1396.1197,377.5,1400.1197,387.5,1404.1197,383.5,1400.1197" style="stroke:#7F77DD;stroke-width:1.0;"/><line style="stroke:#7F77DD;stroke-width:1.0;stroke-dasharray:2.0,2.0;" x1="381.5" x2="586.5" y1="1400.1197" y2="1400.1197"/><text fill="#534AB7" font-family="sans-serif" font-size="10" lengthAdjust="spacing" textLength="37" x="463.5" y="1395.2397">resultId</text><polygon fill="#7F77DD" points="194.5,1439.0797,184.5,1443.0797,194.5,1447.0797,190.5,1443.0797" style="stroke:#7F77DD;stroke-width:1.0;"/><line style="stroke:#7F77DD;stroke-width:1.0;stroke-dasharray:2.0,2.0;" x1="188.5" x2="370.5" y1="1443.0797" y2="1443.0797"/><text fill="#534AB7" font-family="sans-serif" font-size="10" lengthAdjust="spacing" textLength="58" x="248.5" y="1423.7197">201 Created</text><text fill="#534AB7" font-family="sans-serif" font-size="10" lengthAdjust="spacing" textLength="47" x="254" y="1438.1997">{ resultId }</text><line style="stroke:#7F77DD;stroke-width:1.0;" x1="183.5" x2="225.5" y1="1500.5197" y2="1500.5197"/><line style="stroke:#7F77DD;stroke-width:1.0;" x1="225.5" x2="225.5" y1="1500.5197" y2="1513.5197"/><line style="stroke:#7F77DD;stroke-width:1.0;" x1="184.5" x2="225.5" y1="1513.5197" y2="1513.5197"/><polygon fill="#7F77DD" points="194.5,1509.5197,184.5,1513.5197,194.5,1517.5197,190.5,1513.5197" style="stroke:#7F77DD;stroke-width:1.0;"/><text fill="#534AB7" font-family="sans-serif" font-size="10" lengthAdjust="spacing" textLength="138" x="190.5" y="1466.6797">sessionStorage.removeItem(</text><text fill="#534AB7" font-family="sans-serif" font-size="10" lengthAdjust="spacing" textLength="59" x="232" y="1481.1597">'disc_result'</text><text fill="#534AB7" font-family="sans-serif" font-size="10" lengthAdjust="spacing" textLength="3" x="258" y="1495.6397">)</text><polygon fill="#7F77DD" points="50.5,1552.4796,40.5,1556.4796,50.5,1560.4796,46.5,1556.4796" style="stroke:#7F77DD;stroke-width:1.0;"/><line style="stroke:#7F77DD;stroke-width:1.0;stroke-dasharray:2.0,2.0;" x1="44.5" x2="182.5" y1="1556.4796" y2="1556.4796"/><text fill="#534AB7" font-family="sans-serif" font-size="10" lengthAdjust="spacing" textLength="58" x="82.5" y="1537.1197">&#44208;&#44284; &#51200;&#51109; &#50756;&#47308;</text><text fill="#534AB7" font-family="sans-serif" font-size="10" lengthAdjust="spacing" textLength="120" x="51.5" y="1551.5996">(&#45769;&#45348;&#51076;&#51004;&#47196; &#51060;&#47492; &#44368;&#52404; &#47116;&#45908;&#47553;)</text><line style="stroke:#534AB7;stroke-width:1.0;stroke-dasharray:2.0,2.0;" x1="10" x2="770" y1="1565.4796" y2="1565.4796"/><text fill="#3C3489" font-family="sans-serif" font-size="11" font-weight="bold" lengthAdjust="spacing" textLength="156" x="15" y="1578.2395">[sessionStorage&#50640; &#50896;&#51216;&#49688; &#50630;&#51020;]</text><path d="M188,1587.4075 L188,1625.4075 L267,1625.4075 L267,1597.4075 L257,1587.4075 L188,1587.4075 " fill="#F5F3FF" style="stroke:#AFA9EC;stroke-width:0.5;"/><path d="M257,1587.4075 L257,1597.4075 L267,1597.4075 L257,1587.4075 " fill="#F5F3FF" style="stroke:#AFA9EC;stroke-width:0.5;"/><text fill="#534AB7" font-family="sans-serif" font-size="10" lengthAdjust="spacing" textLength="56" x="194" y="1604.0075">&#47196;&#44536;&#51064;&#47564; &#50756;&#47308;</text><text fill="#534AB7" font-family="sans-serif" font-size="10" lengthAdjust="spacing" textLength="58" x="194" y="1618.4875">&#44208;&#44284; &#51200;&#51109; &#49828;&#53429;</text><polygon fill="#7F77DD" points="50.5,1647.8475,40.5,1651.8475,50.5,1655.8475,46.5,1651.8475" style="stroke:#7F77DD;stroke-width:1.0;"/><line style="stroke:#7F77DD;stroke-width:1.0;stroke-dasharray:2.0,2.0;" x1="44.5" x2="182.5" y1="1651.8475" y2="1651.8475"/><text fill="#534AB7" font-family="sans-serif" font-size="10" lengthAdjust="spacing" textLength="76" x="73.5" y="1646.9675">&#47700;&#51064; &#54868;&#47732;&#51004;&#47196; &#51060;&#46041;</text><!--SRC=[dLPjJzjM5FxkNt6KVO18WG0fOqLAAqW2ewMmDKZzWbGP-q8zWftP3Xsha2XA4ItPIYjOeKrOgZ5Q9APP9LtJYMh_PH_jw_-mS-t4Bqc0RG61S-zvVSvpph6sACbvNkMNO8uN5XTKfI2BAIMdgF3Ps0ZxuJHFGYJpV26dZocoFiKl4OYCvFCv0jaqZ2lwFKc0AQB4GEDbhKSZgZGVwQoRbRudq3_G-RBXU-3pWVx1L4148zyMY2oGMqJJ-0KoafCMP128h1EL2uZXNrqIf3mlw_200nXjIyhvi1j55OdQECKyhsPIUDeUWdlMZ7arw8mNT1Jy3sw6neQ6qkcmcqGgSUMBgork6j_q5OHtJic9ORzDB1pN8wggt6-rxnm6d0mcheoC3WKlN4zzU3GfpPD9IIQT0V5ksp8S74iu6OxZQJwax7bphrerCvbCUYpJlEu4XNVXHjdlUn5NpWyaBIrB6CJv_fe27MDjNBQ74u9ULdHoJiMROLnABCzbi0xenQLJnFfOj5-MwAlj2F0QZ1U8fdD1MaUco7TwxpVQhDnjrKjMvOo-D6XrBUg8ft8IzaHO_ZRHiBbIw4nLSZcYEeADGrtDXOL72lgz5b7dg4tGDP0bwh8aa839xBB0YRpEp_4QJeXRAzcl9vtRz2WdC9k2BYco1f6R_2Alm3GpxjmxtpakcGGF033VhT7r4w2LPtIh3CaanpbmGC-rHg8mxCbibUd1CwvnZ09-WYZqrNHs1kAgSwJ5DK5HoQpy09m7RHWUW1W32KTN30HOXLKkeDmJT3RGrmVJDvcgoj_FEjenc2i8YqJ71vNa5LL7TSwXYIejtDD1cMyM1O0MozQx8lwhqqTxOFrUjuooMN-CDztsJidw-SJQEGRBEAO_rQ8SaKM7RbmWAIyG3SSWufX5nk0qxDM8Fg6JfUvP6Q1Bb3JXhfjhLuoTX1ELObeCi_JY3ft2wgmSzJsYInTnXhDXdfw1lRzZ7TUGUn54dRuyfWVRrjOUhUo1QUpIwZQjhFNszaQYRYLVbyqFTLgfW_sgsBI0NAK7lvvJpIvFnTxTCq-hOQKki1_MhAFVBaU4ljX6i6TbP14BQdCFIVJ9h1j1C9kyHkNn3DA3n-_nHKR3woeH9HMfcenh_3BfSS74fCDEWBwkqGE7Uz3K0Bl4UX9hQnSDi9-UsBjleoryy1eApbFRtw6LclsaRXsTq2U7-E3G_AY26lQBJOHz6E8n20Q7DuWRqFqw_Btn7E8CUyovPZtTzvdaPHmYTQ9lmDK9vyeB0cOxeomI6MxScG7wLzLUFmINij50yTnE7WRwiSP-zmxzkdFkNS-5QCS5FfTZRn-ihmH59E0EGscPHzGyiFpWVPVsHjL-Q83vVjlUnuOodeB7IgJChdLQmnePE4qw1-97tAg60UHqB6pL_506TngnxHa88JsA1YQcifdRCr30rnqsZvrqxaeuJ6H9M9Jn7Ga7YYB9MZ8HHVKm2t0W0dvC0vdzoE4G_RJ3UYLX6lXSsqIw0dspvWu8huOaXtCLhv1x5mIMpKncKet0uCwNcTiPQ0QNlCu8mLr2Xd2psZzYYzSm64poHZQJpKvCJqsaFIw8fBrShFy3tTUOVDKYtNZjzFx_Q67pppDhlUPqCQjEctZGty4chPGGcN-p42vS1G1URe6TYSV17N7DNtui3-oZRWRz1Dho5aMqtHJRbH1GRR63YDdh7qpZETBJe7yW5jr-Xgn82MlhhNdAODr5dkBKYBQQ2xBKsGiwDYsZgXyUla7VrLVo98cS6Oi5y8xv0J2xQAgd9K0NlmanxBKLwu1KW2W-0YrOXlTjFwHKWlAYitGRbfoojDbg5kRoTQcI9MMPTDwORF_vDjeNOACZw7xH-gN4ti6s7bl5GtfGfEMpvimzAhAHHD_LmAgMh1zsh3SFSM0wdNiXQLzikAGzv_K1_C5glIarGd27I3WsN1dhxuD3esD2rh4pRjoD7eZUtHZSFm00]--></g></svg>