<?xml version="1.0" encoding="us-ascii" standalone="no"?><svg xmlns="http://www.w3.org/2000/svg" xmlns:xlink="http://www.w3.org/1999/xlink" contentStyleType="text/css" height="1281px" preserveAspectRatio="none" style="width:1182px;height:1281px;background:#FAFAFA;" version="1.1" viewBox="0 0 1182 1281" width="1182px" zoomAndPan="magnify"><defs/><g><rect fill="#FAFAFA" height="1281" style="stroke:none;stroke-width:1.0;" width="1182" x="0" y="0"/><rect fill="#F5F3FF" height="852.6875" style="stroke:#AFA9EC;stroke-width:1.0;" width="10" x="333.5" y="157.8594"/><rect fill="#F5F3FF" height="130.8438" style="stroke:#AFA9EC;stroke-width:1.0;" width="10" x="474.5" y="183.5"/><rect fill="#F5F3FF" height="641.2813" style="stroke:#AFA9EC;stroke-width:1.0;" width="10" x="603.5" y="339.9844"/><rect fill="#F5F3FF" height="75.9219" style="stroke:#AFA9EC;stroke-width:1.0;" width="10" x="735.5" y="703.5781"/><rect fill="#F5F3FF" height="48.6094" style="stroke:#AFA9EC;stroke-width:1.0;" width="10" x="809.5" y="365.625"/><rect fill="#F5F3FF" height="48.6094" style="stroke:#AFA9EC;stroke-width:1.0;" width="10" x="950.5" y="537.6016"/><rect fill="#F5F3FF" height="421.6641" style="stroke:#534AB7;stroke-width:1.5;" width="903.5" x="271.5" y="552.6016"/><rect fill="#F5F3FF" height="328.7734" style="stroke:none;stroke-width:1.0;" width="903.5" x="271.5" y="645.4922"/><rect fill="#F5F3FF" height="109.5313" style="stroke:#534AB7;stroke-width:1.5;" width="137" x="119.5" y="1025.5469"/><line style="stroke:#AFA9EC;stroke-width:0.5;stroke-dasharray:5.0,5.0;" x1="47" x2="47" y1="92.9375" y2="1189.3594"/><line style="stroke:#AFA9EC;stroke-width:0.5;stroke-dasharray:5.0,5.0;" x1="157.5" x2="157.5" y1="92.9375" y2="1189.3594"/><line style="stroke:#AFA9EC;stroke-width:0.5;stroke-dasharray:5.0,5.0;" x1="338.5" x2="338.5" y1="92.9375" y2="1189.3594"/><line style="stroke:#AFA9EC;stroke-width:0.5;stroke-dasharray:5.0,5.0;" x1="479.5" x2="479.5" y1="92.9375" y2="1189.3594"/><line style="stroke:#AFA9EC;stroke-width:0.5;stroke-dasharray:5.0,5.0;" x1="608.5" x2="608.5" y1="92.9375" y2="1189.3594"/><line style="stroke:#AFA9EC;stroke-width:0.5;stroke-dasharray:5.0,5.0;" x1="740" x2="740" y1="92.9375" y2="1189.3594"/><line style="stroke:#AFA9EC;stroke-width:0.5;stroke-dasharray:5.0,5.0;" x1="814.5" x2="814.5" y1="92.9375" y2="1189.3594"/><line style="stroke:#AFA9EC;stroke-width:0.5;stroke-dasharray:5.0,5.0;" x1="955" x2="955" y1="92.9375" y2="1189.3594"/><text fill="#3C3489" font-family="sans-serif" font-size="12" font-weight="bold" lengthAdjust="spacing" textLength="21" x="34" y="76.1387">&#49324;&#50857;&#51088;</text><text fill="#3C3489" font-family="sans-serif" font-size="12" font-weight="bold" lengthAdjust="spacing" textLength="49" x="20" y="90.1074">(&#48708;&#54924;&#50896;/&#54924;&#50896;)</text><ellipse cx="47.5" cy="13.5" fill="#FFFFFF" rx="8" ry="8" style="stroke:#7F77DD;stroke-width:0.5;"/><path d="M47.5,21.5 L47.5,48.5 M34.5,29.5 L60.5,29.5 M47.5,48.5 L34.5,63.5 M47.5,48.5 L60.5,63.5 " fill="none" style="stroke:#7F77DD;stroke-width:0.5;"/><text fill="#3C3489" font-family="sans-serif" font-size="12" font-weight="bold" lengthAdjust="spacing" textLength="21" x="34" y="1199.498">&#49324;&#50857;&#51088;</text><text fill="#3C3489" font-family="sans-serif" font-size="12" font-weight="bold" lengthAdjust="spacing" textLength="49" x="20" y="1213.4668">(&#48708;&#54924;&#50896;/&#54924;&#50896;)</text><ellipse cx="47.5" cy="1224.7969" fill="#FFFFFF" rx="8" ry="8" style="stroke:#7F77DD;stroke-width:0.5;"/><path d="M47.5,1232.7969 L47.5,1259.7969 M34.5,1240.7969 L60.5,1240.7969 M47.5,1259.7969 L34.5,1274.7969 M47.5,1259.7969 L60.5,1274.7969 " fill="none" style="stroke:#7F77DD;stroke-width:0.5;"/><rect fill="#FFFFFF" height="27.9688" rx="2.5" ry="2.5" style="stroke:#AFA9EC;stroke-width:0.5;" width="56" x="129.5" y="63.9688"/><text fill="#26215C" font-family="sans-serif" font-size="12" lengthAdjust="spacing" textLength="42" x="136.5" y="82.1074">Next.js</text><rect fill="#FFFFFF" height="27.9688" rx="2.5" ry="2.5" style="stroke:#AFA9EC;stroke-width:0.5;" width="56" x="129.5" y="1188.3594"/><text fill="#26215C" font-family="sans-serif" font-size="12" lengthAdjust="spacing" textLength="42" x="136.5" y="1206.498">Next.js</text><rect fill="#FFFFFF" height="27.9688" rx="2.5" ry="2.5" style="stroke:#AFA9EC;stroke-width:0.5;" width="114" x="281.5" y="63.9688"/><text fill="#26215C" font-family="sans-serif" font-size="12" lengthAdjust="spacing" textLength="100" x="288.5" y="82.1074">ResultController</text><rect fill="#FFFFFF" height="27.9688" rx="2.5" ry="2.5" style="stroke:#AFA9EC;stroke-width:0.5;" width="114" x="281.5" y="1188.3594"/><text fill="#26215C" font-family="sans-serif" font-size="12" lengthAdjust="spacing" textLength="100" x="288.5" y="1206.498">ResultController</text><rect fill="#FFFFFF" height="27.9688" rx="2.5" ry="2.5" style="stroke:#AFA9EC;stroke-width:0.5;" width="106" x="426.5" y="63.9688"/><text fill="#26215C" font-family="sans-serif" font-size="12" lengthAdjust="spacing" textLength="92" x="433.5" y="82.1074">ScoringService</text><rect fill="#FFFFFF" height="27.9688" rx="2.5" ry="2.5" style="stroke:#AFA9EC;stroke-width:0.5;" width="106" x="426.5" y="1188.3594"/><text fill="#26215C" font-family="sans-serif" font-size="12" lengthAdjust="spacing" textLength="92" x="433.5" y="1206.498">ScoringService</text><rect fill="#FFFFFF" height="27.9688" rx="2.5" ry="2.5" style="stroke:#AFA9EC;stroke-width:0.5;" width="98" x="559.5" y="63.9688"/><text fill="#26215C" font-family="sans-serif" font-size="12" lengthAdjust="spacing" textLength="84" x="566.5" y="82.1074">CacheService</text><rect fill="#FFFFFF" height="27.9688" rx="2.5" ry="2.5" style="stroke:#AFA9EC;stroke-width:0.5;" width="98" x="559.5" y="1188.3594"/><text fill="#26215C" font-family="sans-serif" font-size="12" lengthAdjust="spacing" textLength="84" x="566.5" y="1206.498">CacheService</text><rect fill="#FFFFFF" height="27.9688" rx="2.5" ry="2.5" style="stroke:#AFA9EC;stroke-width:0.5;" width="79" x="701" y="63.9688"/><text fill="#26215C" font-family="sans-serif" font-size="12" lengthAdjust="spacing" textLength="65" x="708" y="82.1074">LlmService</text><rect fill="#FFFFFF" height="27.9688" rx="2.5" ry="2.5" style="stroke:#AFA9EC;stroke-width:0.5;" width="79" x="701" y="1188.3594"/><text fill="#26215C" font-family="sans-serif" font-size="12" lengthAdjust="spacing" textLength="65" x="708" y="1206.498">LlmService</text><text fill="#26215C" font-family="sans-serif" font-size="12" lengthAdjust="spacing" textLength="34" x="794.5" y="90.1074">Redis</text><path d="M796.5,42.9688 C796.5,32.9688 814.5,32.9688 814.5,32.9688 C814.5,32.9688 832.5,32.9688 832.5,42.9688 L832.5,68.9688 C832.5,78.9688 814.5,78.9688 814.5,78.9688 C814.5,78.9688 796.5,78.9688 796.5,68.9688 L796.5,42.9688 " fill="#E2E2F0" style="stroke:#181818;stroke-width:1.5;"/><path d="M796.5,42.9688 C796.5,52.9688 814.5,52.9688 814.5,52.9688 C814.5,52.9688 832.5,52.9688 832.5,42.9688 " fill="none" style="stroke:#181818;stroke-width:1.5;"/><text fill="#26215C" font-family="sans-serif" font-size="12" lengthAdjust="spacing" textLength="34" x="794.5" y="1199.498">Redis</text><path d="M796.5,1212.3281 C796.5,1202.3281 814.5,1202.3281 814.5,1202.3281 C814.5,1202.3281 832.5,1202.3281 832.5,1212.3281 L832.5,1238.3281 C832.5,1248.3281 814.5,1248.3281 814.5,1248.3281 C814.5,1248.3281 796.5,1248.3281 796.5,1238.3281 L796.5,1212.3281 " fill="#E2E2F0" style="stroke:#181818;stroke-width:1.5;"/><path d="M796.5,1212.3281 C796.5,1222.3281 814.5,1222.3281 814.5,1222.3281 C814.5,1222.3281 832.5,1222.3281 832.5,1212.3281 " fill="none" style="stroke:#181818;stroke-width:1.5;"/><text fill="#26215C" font-family="sans-serif" font-size="12" lengthAdjust="spacing" textLength="69" x="918" y="76.1387">disc_cache</text><text fill="#26215C" font-family="sans-serif" font-size="12" lengthAdjust="spacing" textLength="49" x="928" y="90.1074">(MySQL)</text><path d="M937.5,29 C937.5,19 955.5,19 955.5,19 C955.5,19 973.5,19 973.5,29 L973.5,55 C973.5,65 955.5,65 955.5,65 C955.5,65 937.5,65 937.5,55 L937.5,29 " fill="#E2E2F0" style="stroke:#181818;stroke-width:1.5;"/><path d="M937.5,29 C937.5,39 955.5,39 955.5,39 C955.5,39 973.5,39 973.5,29 " fill="none" style="stroke:#181818;stroke-width:1.5;"/><text fill="#26215C" font-family="sans-serif" font-size="12" lengthAdjust="spacing" textLength="69" x="918" y="1199.498">disc_cache</text><text fill="#26215C" font-family="sans-serif" font-size="12" lengthAdjust="spacing" textLength="49" x="928" y="1213.4668">(MySQL)</text><path d="M937.5,1226.2969 C937.5,1216.2969 955.5,1216.2969 955.5,1216.2969 C955.5,1216.2969 973.5,1216.2969 973.5,1226.2969 L973.5,1252.2969 C973.5,1262.2969 955.5,1262.2969 955.5,1262.2969 C955.5,1262.2969 937.5,1262.2969 937.5,1252.2969 L937.5,1226.2969 " fill="#E2E2F0" style="stroke:#181818;stroke-width:1.5;"/><path d="M937.5,1226.2969 C937.5,1236.2969 955.5,1236.2969 955.5,1236.2969 C955.5,1236.2969 973.5,1236.2969 973.5,1226.2969 " fill="none" style="stroke:#181818;stroke-width:1.5;"/><rect fill="#F5F3FF" height="852.6875" style="stroke:#AFA9EC;stroke-width:1.0;" width="10" x="333.5" y="157.8594"/><rect fill="#F5F3FF" height="130.8438" style="stroke:#AFA9EC;stroke-width:1.0;" width="10" x="474.5" y="183.5"/><rect fill="#F5F3FF" height="641.2813" style="stroke:#AFA9EC;stroke-width:1.0;" width="10" x="603.5" y="339.9844"/><rect fill="#F5F3FF" height="75.9219" style="stroke:#AFA9EC;stroke-width:1.0;" width="10" x="735.5" y="703.5781"/><rect fill="#F5F3FF" height="48.6094" style="stroke:#AFA9EC;stroke-width:1.0;" width="10" x="809.5" y="365.625"/><rect fill="#F5F3FF" height="48.6094" style="stroke:#AFA9EC;stroke-width:1.0;" width="10" x="950.5" y="537.6016"/><polygon fill="#7F77DD" points="145.5,116.5781,155.5,120.5781,145.5,124.5781,149.5,120.5781" style="stroke:#7F77DD;stroke-width:1.0;"/><line style="stroke:#7F77DD;stroke-width:1.0;" x1="47.5" x2="151.5" y1="120.5781" y2="120.5781"/><text fill="#534AB7" font-family="sans-serif" font-size="10" lengthAdjust="spacing" textLength="54" x="75.5" y="116.2197">24&#47928;&#54637; &#51025;&#45813; &#50756;&#47308;</text><polygon fill="#7F77DD" points="321.5,153.8594,331.5,157.8594,321.5,161.8594,325.5,157.8594" style="stroke:#7F77DD;stroke-width:1.0;"/><line style="stroke:#7F77DD;stroke-width:1.0;" x1="157.5" x2="327.5" y1="157.8594" y2="157.8594"/><text fill="#534AB7" font-family="sans-serif" font-size="10" lengthAdjust="spacing" textLength="94" x="198.5" y="141.8604">POST /results/score</text><text fill="#534AB7" font-family="sans-serif" font-size="10" lengthAdjust="spacing" textLength="157" x="167" y="153.501">{ testType, scores: { d, i, s, c } }</text><polygon fill="#7F77DD" points="462.5,179.5,472.5,183.5,462.5,187.5,466.5,183.5" style="stroke:#7F77DD;stroke-width:1.0;"/><line style="stroke:#7F77DD;stroke-width:1.0;" x1="343.5" x2="468.5" y1="183.5" y2="183.5"/><text fill="#534AB7" font-family="sans-serif" font-size="10" lengthAdjust="spacing" textLength="91" x="363.5" y="179.1416">normalize(d, i, s, c)</text><path d="M489,196.5 L489,240.5 L619,240.5 L619,206.5 L609,196.5 L489,196.5 " fill="#F5F3FF" style="stroke:#AFA9EC;stroke-width:0.5;"/><path d="M609,196.5 L609,206.5 L619,206.5 L609,196.5 " fill="#F5F3FF" style="stroke:#AFA9EC;stroke-width:0.5;"/><text fill="#534AB7" font-family="sans-serif" font-size="10" lengthAdjust="spacing" textLength="109" x="495" y="210.7822">D + I + S + C = 24 &#44160;&#51613;</text><text fill="#534AB7" font-family="sans-serif" font-size="10" lengthAdjust="spacing" textLength="103" x="495" y="222.4229">&#50896;&#51216;&#49688; &#48276;&#50948; &#44160;&#51613; (-24~+48)</text><text fill="#534AB7" font-family="sans-serif" font-size="10" lengthAdjust="spacing" textLength="102" x="495" y="234.0635">&#50896;&#51216;&#49688; &#8594; &#48260;&#53431;&#44050; (1~3) &#51221;&#44508;&#54868;</text><line style="stroke:#7F77DD;stroke-width:1.0;" x1="484.5" x2="526.5" y1="275.7031" y2="275.7031"/><line style="stroke:#7F77DD;stroke-width:1.0;" x1="526.5" x2="526.5" y1="275.7031" y2="288.7031"/><line style="stroke:#7F77DD;stroke-width:1.0;" x1="485.5" x2="526.5" y1="288.7031" y2="288.7031"/><polygon fill="#7F77DD" points="495.5,284.7031,485.5,288.7031,495.5,292.7031,491.5,288.7031" style="stroke:#7F77DD;stroke-width:1.0;"/><text fill="#534AB7" font-family="sans-serif" font-size="10" lengthAdjust="spacing" textLength="39" x="524.5" y="259.7041">&#48260;&#53431;&#44050; &#51221;&#44508;&#54868;</text><text fill="#534AB7" font-family="sans-serif" font-size="10" lengthAdjust="spacing" textLength="105" x="491.5" y="271.3447">(&#50896;&#51216;&#49688; -24~+48 &#8594; 3&#45800;&#44228;)</text><polygon fill="#7F77DD" points="354.5,310.3438,344.5,314.3438,354.5,318.3438,350.5,314.3438" style="stroke:#7F77DD;stroke-width:1.0;"/><line style="stroke:#7F77DD;stroke-width:1.0;stroke-dasharray:2.0,2.0;" x1="348.5" x2="478.5" y1="314.3438" y2="314.3438"/><text fill="#534AB7" font-family="sans-serif" font-size="10" lengthAdjust="spacing" textLength="107" x="358" y="309.9854">{ d, i, s, c &#50896;&#51216;&#49688; + &#48260;&#53431;&#44050; }</text><polygon fill="#7F77DD" points="591.5,335.9844,601.5,339.9844,591.5,343.9844,595.5,339.9844" style="stroke:#7F77DD;stroke-width:1.0;"/><line style="stroke:#7F77DD;stroke-width:1.0;" x1="343.5" x2="597.5" y1="339.9844" y2="339.9844"/><text fill="#534AB7" font-family="sans-serif" font-size="10" lengthAdjust="spacing" textLength="114" x="416.5" y="335.626">getReport(d, i, s, c &#48260;&#53431;&#44050;)</text><polygon fill="#7F77DD" points="797.5,361.625,807.5,365.625,797.5,369.625,801.5,365.625" style="stroke:#7F77DD;stroke-width:1.0;"/><line style="stroke:#7F77DD;stroke-width:1.0;" x1="613.5" x2="803.5" y1="365.625" y2="365.625"/><text fill="#534AB7" font-family="sans-serif" font-size="10" lengthAdjust="spacing" textLength="152" x="635.5" y="361.2666">GET disc_cache:{d}:{i}:{s}:{c}</text><polygon fill="#7F77DD" points="624.5,410.2344,614.5,414.2344,624.5,418.2344,620.5,414.2344" style="stroke:#7F77DD;stroke-width:1.0;"/><line style="stroke:#7F77DD;stroke-width:1.0;stroke-dasharray:2.0,2.0;" x1="618.5" x2="813.5" y1="414.2344" y2="414.2344"/><text fill="#534AB7" font-family="sans-serif" font-size="10" lengthAdjust="spacing" textLength="48" x="690" y="409.876">&#52880;&#49884; &#45936;&#51060;&#53552; &#48152;&#54872;</text><polygon fill="#7F77DD" points="354.5,435.875,344.5,439.875,354.5,443.875,350.5,439.875" style="stroke:#7F77DD;stroke-width:1.0;"/><line style="stroke:#7F77DD;stroke-width:1.0;stroke-dasharray:2.0,2.0;" x1="348.5" x2="602.5" y1="439.875" y2="439.875"/><text fill="#534AB7" font-family="sans-serif" font-size="10" lengthAdjust="spacing" textLength="33" x="457" y="435.5166">&#48372;&#44256;&#49436; &#48152;&#54872;</text><path d="M618,452.875 L618,473.875 L743,473.875 L743,462.875 L733,452.875 L618,452.875 " fill="#F5F3FF" style="stroke:#AFA9EC;stroke-width:0.5;"/><path d="M733,452.875 L733,462.875 L743,462.875 L733,452.875 " fill="#F5F3FF" style="stroke:#AFA9EC;stroke-width:0.5;"/><text fill="#534AB7" font-family="sans-serif" font-size="10" lengthAdjust="spacing" textLength="104" x="624" y="467.1572">Redis HIT &#8594; DB &#51312;&#54924; &#49373;&#47029;</text><polygon fill="#7F77DD" points="624.5,507.9609,614.5,511.9609,624.5,515.9609,620.5,511.9609" style="stroke:#7F77DD;stroke-width:1.0;"/><line style="stroke:#7F77DD;stroke-width:1.0;stroke-dasharray:2.0,2.0;" x1="618.5" x2="813.5" y1="511.9609" y2="511.9609"/><text fill="#534AB7" font-family="sans-serif" font-size="10" lengthAdjust="spacing" textLength="16" x="706" y="507.6025">null</text><polygon fill="#7F77DD" points="938.5,533.6016,948.5,537.6016,938.5,541.6016,942.5,537.6016" style="stroke:#7F77DD;stroke-width:1.0;"/><line style="stroke:#7F77DD;stroke-width:1.0;" x1="613.5" x2="944.5" y1="537.6016" y2="537.6016"/><text fill="#534AB7" font-family="sans-serif" font-size="10" lengthAdjust="spacing" textLength="241" x="661.5" y="533.2432">SELECT WHERE d=? AND i=? AND s=? AND c=?</text><path d="M271.5,552.6016 L335.5,552.6016 L335.5,558.5703 L325.5,568.5703 L271.5,568.5703 L271.5,552.6016 " fill="#EEEDFE" style="stroke:#534AB7;stroke-width:1.5;"/><rect fill="none" height="421.6641" style="stroke:#534AB7;stroke-width:1.5;" width="903.5" x="271.5" y="552.6016"/><text fill="#26215C" font-family="sans-serif" font-size="12" font-weight="bold" lengthAdjust="spacing" textLength="19" x="286.5" y="564.7402">alt</text><text fill="#3C3489" font-family="sans-serif" font-size="11" font-weight="bold" lengthAdjust="spacing" textLength="360" x="350.5" y="564.812">[&#52880;&#49884; HIT + &#50976;&#54952; (report NOT NULL AND created_at &gt;= &#47564;&#47308; &#44592;&#51456;)]</text><polygon fill="#7F77DD" points="624.5,582.2109,614.5,586.2109,624.5,590.2109,620.5,586.2109" style="stroke:#7F77DD;stroke-width:1.0;"/><line style="stroke:#7F77DD;stroke-width:1.0;stroke-dasharray:2.0,2.0;" x1="618.5" x2="954.5" y1="586.2109" y2="586.2109"/><text fill="#534AB7" font-family="sans-serif" font-size="10" lengthAdjust="spacing" textLength="36" x="766.5" y="581.8525">&#52880;&#49884; &#54665; &#48152;&#54872;</text><polygon fill="#7F77DD" points="802.5,607.8516,812.5,611.8516,802.5,615.8516,806.5,611.8516" style="stroke:#7F77DD;stroke-width:1.0;"/><line style="stroke:#7F77DD;stroke-width:1.0;" x1="613.5" x2="808.5" y1="611.8516" y2="611.8516"/><text fill="#534AB7" font-family="sans-serif" font-size="10" lengthAdjust="spacing" textLength="151" x="638.5" y="607.4932">SET disc_cache:{d}:{i}:{s}:{c}</text><polygon fill="#7F77DD" points="354.5,633.4922,344.5,637.4922,354.5,641.4922,350.5,637.4922" style="stroke:#7F77DD;stroke-width:1.0;"/><line style="stroke:#7F77DD;stroke-width:1.0;stroke-dasharray:2.0,2.0;" x1="348.5" x2="602.5" y1="637.4922" y2="637.4922"/><text fill="#534AB7" font-family="sans-serif" font-size="10" lengthAdjust="spacing" textLength="33" x="457" y="633.1338">&#48372;&#44256;&#49436; &#48152;&#54872;</text><line style="stroke:#534AB7;stroke-width:1.0;stroke-dasharray:2.0,2.0;" x1="271.5" x2="1175" y1="646.4922" y2="646.4922"/><text fill="#3C3489" font-family="sans-serif" font-size="11" font-weight="bold" lengthAdjust="spacing" textLength="355" x="276.5" y="656.7026">[&#52880;&#49884; HIT + &#47564;&#47308; &#46608;&#45716; &#48120;&#49373;&#49457; (report NULL OR created_at &lt; &#47564;&#47308; &#44592;&#51456;)]</text><polygon fill="#7F77DD" points="624.5,673.9375,614.5,677.9375,624.5,681.9375,620.5,677.9375" style="stroke:#7F77DD;stroke-width:1.0;"/><line style="stroke:#7F77DD;stroke-width:1.0;stroke-dasharray:2.0,2.0;" x1="618.5" x2="954.5" y1="677.9375" y2="677.9375"/><text fill="#534AB7" font-family="sans-serif" font-size="10" lengthAdjust="spacing" textLength="57" x="756" y="673.5791">&#47564;&#47308;&#46108; &#52880;&#49884; &#54665; &#48152;&#54872;</text><polygon fill="#7F77DD" points="723.5,699.5781,733.5,703.5781,723.5,707.5781,727.5,703.5781" style="stroke:#7F77DD;stroke-width:1.0;"/><line style="stroke:#7F77DD;stroke-width:1.0;" x1="613.5" x2="729.5" y1="703.5781" y2="703.5781"/><text fill="#534AB7" font-family="sans-serif" font-size="10" lengthAdjust="spacing" textLength="103" x="623" y="699.2197">generateReport(&#48260;&#53431;&#44050;)</text><line style="stroke:#7F77DD;stroke-width:1.0;" x1="745.5" x2="787.5" y1="740.8594" y2="740.8594"/><line style="stroke:#7F77DD;stroke-width:1.0;" x1="787.5" x2="787.5" y1="740.8594" y2="753.8594"/><line style="stroke:#7F77DD;stroke-width:1.0;" x1="746.5" x2="787.5" y1="753.8594" y2="753.8594"/><polygon fill="#7F77DD" points="756.5,749.8594,746.5,753.8594,756.5,757.8594,752.5,753.8594" style="stroke:#7F77DD;stroke-width:1.0;"/><text fill="#534AB7" font-family="sans-serif" font-size="10" lengthAdjust="spacing" textLength="39" x="758" y="724.8604">&#54532;&#47212;&#54532;&#53944; &#44396;&#49457;</text><text fill="#534AB7" font-family="sans-serif" font-size="10" lengthAdjust="spacing" textLength="50" x="752.5" y="736.501">(6&#44060; &#49465;&#49496; &#50836;&#52397;)</text><polygon fill="#7F77DD" points="624.5,775.5,614.5,779.5,624.5,783.5,620.5,779.5" style="stroke:#7F77DD;stroke-width:1.0;"/><line style="stroke:#7F77DD;stroke-width:1.0;stroke-dasharray:2.0,2.0;" x1="618.5" x2="739.5" y1="779.5" y2="779.5"/><text fill="#534AB7" font-family="sans-serif" font-size="10" lengthAdjust="spacing" textLength="71" x="641.5" y="775.1416">Markdown &#48372;&#44256;&#49436;</text><polygon fill="#7F77DD" points="943.5,824.4219,953.5,828.4219,943.5,832.4219,947.5,828.4219" style="stroke:#7F77DD;stroke-width:1.0;"/><line style="stroke:#7F77DD;stroke-width:1.0;" x1="613.5" x2="949.5" y1="828.4219" y2="828.4219"/><text fill="#534AB7" font-family="sans-serif" font-size="10" lengthAdjust="spacing" textLength="318" x="625.5" y="800.7822">CacheService -&gt; DB : UPDATE SET report=?, created_at=NOW()</text><text fill="#534AB7" font-family="sans-serif" font-size="10" lengthAdjust="spacing" textLength="109" x="730" y="812.4229">(&#48120;&#49373;&#49457; &#54252;&#54632; &#8212; INSERT &#50630;&#51020;)</text><text fill="#534AB7" font-family="sans-serif" font-size="10" lengthAdjust="spacing" textLength="198" x="685.5" y="824.0635">WHERE d=? AND i=? AND s=? AND c=?</text><path d="M960,841.4219 L960,874.4219 L1090,874.4219 L1090,851.4219 L1080,841.4219 L960,841.4219 " fill="#F5F3FF" style="stroke:#AFA9EC;stroke-width:0.5;"/><path d="M1080,841.4219 L1080,851.4219 L1090,851.4219 L1080,841.4219 " fill="#F5F3FF" style="stroke:#AFA9EC;stroke-width:0.5;"/><text fill="#534AB7" font-family="sans-serif" font-size="10" lengthAdjust="spacing" textLength="109" x="966" y="855.7041">&#54665; DELETE &#50630;&#51060; UPDATE</text><text fill="#534AB7" font-family="sans-serif" font-size="10" lengthAdjust="spacing" textLength="64" x="966" y="867.3447">FK &#52280;&#51312; &#47924;&#44208;&#49457; &#50976;&#51648;</text><polygon fill="#7F77DD" points="802.5,893.3438,812.5,897.3438,802.5,901.3438,806.5,897.3438" style="stroke:#7F77DD;stroke-width:1.0;"/><line style="stroke:#7F77DD;stroke-width:1.0;" x1="613.5" x2="808.5" y1="897.3438" y2="897.3438"/><text fill="#534AB7" font-family="sans-serif" font-size="10" lengthAdjust="spacing" textLength="151" x="638.5" y="892.9854">SET disc_cache:{d}:{i}:{s}:{c}</text><polygon fill="#7F77DD" points="354.5,918.9844,344.5,922.9844,354.5,926.9844,350.5,922.9844" style="stroke:#7F77DD;stroke-width:1.0;"/><line style="stroke:#7F77DD;stroke-width:1.0;stroke-dasharray:2.0,2.0;" x1="348.5" x2="602.5" y1="922.9844" y2="922.9844"/><text fill="#534AB7" font-family="sans-serif" font-size="10" lengthAdjust="spacing" textLength="33" x="457" y="918.626">&#48372;&#44256;&#49436; &#48152;&#54872;</text><path d="M960,935.9844 L960,968.9844 L1165,968.9844 L1165,945.9844 L1155,935.9844 L960,935.9844 " fill="#F5F3FF" style="stroke:#AFA9EC;stroke-width:0.5;"/><path d="M1155,935.9844 L1155,945.9844 L1165,945.9844 L1155,935.9844 " fill="#F5F3FF" style="stroke:#AFA9EC;stroke-width:0.5;"/><text fill="#534AB7" font-family="sans-serif" font-size="10" lengthAdjust="spacing" textLength="184" x="966" y="950.2666">&#54665; &#50630;&#51020; = &#52488;&#44592;&#54868; &#50724;&#47448; &#8594; IllegalStateException</text><text fill="#534AB7" font-family="sans-serif" font-size="10" lengthAdjust="spacing" textLength="138" x="966" y="961.9072">81&#44060; &#54665;&#51008; schema.sql&#50640;&#49436; &#49324;&#51204; &#49341;&#51077;&#46120;</text><polygon fill="#7F77DD" points="168.5,1006.5469,158.5,1010.5469,168.5,1014.5469,164.5,1010.5469" style="stroke:#7F77DD;stroke-width:1.0;"/><line style="stroke:#7F77DD;stroke-width:1.0;stroke-dasharray:2.0,2.0;" x1="162.5" x2="337.5" y1="1010.5469" y2="1010.5469"/><text fill="#534AB7" font-family="sans-serif" font-size="10" lengthAdjust="spacing" textLength="36" x="230" y="994.5479">200 OK</text><text fill="#534AB7" font-family="sans-serif" font-size="10" lengthAdjust="spacing" textLength="148" x="174" y="1006.1885">{ rawScores, buckets, report }</text><path d="M119.5,1025.5469 L183.5,1025.5469 L183.5,1031.5156 L173.5,1041.5156 L119.5,1041.5156 L119.5,1025.5469 " fill="#EEEDFE" style="stroke:#534AB7;stroke-width:1.5;"/><rect fill="none" height="109.5313" style="stroke:#534AB7;stroke-width:1.5;" width="137" x="119.5" y="1025.5469"/><text fill="#26215C" font-family="sans-serif" font-size="12" font-weight="bold" lengthAdjust="spacing" textLength="19" x="134.5" y="1037.6855">alt</text><text fill="#3C3489" font-family="sans-serif" font-size="11" font-weight="bold" lengthAdjust="spacing" textLength="31" x="198.5" y="1037.7573">[&#48708;&#54924;&#50896;]</text><line style="stroke:#7F77DD;stroke-width:1.0;" x1="157.5" x2="199.5" y1="1070.7969" y2="1070.7969"/><line style="stroke:#7F77DD;stroke-width:1.0;" x1="199.5" x2="199.5" y1="1070.7969" y2="1083.7969"/><line style="stroke:#7F77DD;stroke-width:1.0;" x1="158.5" x2="199.5" y1="1083.7969" y2="1083.7969"/><polygon fill="#7F77DD" points="168.5,1079.7969,158.5,1083.7969,168.5,1087.7969,164.5,1083.7969" style="stroke:#7F77DD;stroke-width:1.0;"/><text fill="#534AB7" font-family="sans-serif" font-size="10" lengthAdjust="spacing" textLength="80" x="164.5" y="1054.7979">sessionStorage&#50640;</text><text fill="#534AB7" font-family="sans-serif" font-size="10" lengthAdjust="spacing" textLength="62" x="173.5" y="1066.4385">DISC &#50896;&#51216;&#49688; &#51200;&#51109;</text><path d="M162,1096.7969 L162,1129.7969 L231,1129.7969 L231,1106.7969 L221,1096.7969 L162,1096.7969 " fill="#F5F3FF" style="stroke:#AFA9EC;stroke-width:0.5;"/><path d="M221,1096.7969 L221,1106.7969 L231,1106.7969 L221,1096.7969 " fill="#F5F3FF" style="stroke:#AFA9EC;stroke-width:0.5;"/><text fill="#534AB7" font-family="sans-serif" font-size="10" lengthAdjust="spacing" textLength="48" x="168" y="1111.0791">&#49436;&#48260; &#49464;&#49496; &#48120;&#48156;&#44553;</text><text fill="#534AB7" font-family="sans-serif" font-size="10" lengthAdjust="spacing" textLength="41" x="168" y="1122.7197">(&#54540;&#47084;&#46377; &#48169;&#50612;)</text><polygon fill="#7F77DD" points="58.5,1167.3594,48.5,1171.3594,58.5,1175.3594,54.5,1171.3594" style="stroke:#7F77DD;stroke-width:1.0;"/><line style="stroke:#7F77DD;stroke-width:1.0;stroke-dasharray:2.0,2.0;" x1="52.5" x2="156.5" y1="1171.3594" y2="1171.3594"/><text fill="#534AB7" font-family="sans-serif" font-size="10" lengthAdjust="spacing" textLength="42" x="81.5" y="1155.3604">&#44208;&#44284; &#54868;&#47732; &#54364;&#49884;</text><text fill="#534AB7" font-family="sans-serif" font-size="10" lengthAdjust="spacing" textLength="86" x="59.5" y="1167.001">(&#48372;&#44256;&#49436; &#47116;&#45908;&#47553; &#49884; &#51060;&#47492; &#49341;&#51077;)</text><!--SRC=[lLVhRzDM5F_kl-Ae-vA85kW32jKAIlE0YZHbTH1Va91htwPUNJlOBj1LHHqBY4VH0WfGkhGB6ezM2bhM1b6cxP_XOtpzF-nSs_4ZIO7jmrevpZtlypldt7jZBCXgKT25HPWLn8M2hYsfKb9JD1s-oIJOFsVu4XAP4vOKCwEfPavO9D2NA1OL0dmApcdcl2n2ZcZzO0YgCM0GNPxhwwtBopyG61pgpVHy3vqS6ZoH38aOvDeIKKKoHGn3A9248XTK48bg4fqBYU6dAOjoKL1DME409hgISluOHzCbedjKpFDqEedKxX1SMZlcrR0pGJHHy5-u6SsCZgPIKJV3oU6HKwSxt7WhSndXdTKKAUgtZONZEg7hserE-munvEJ4y4XYOZJCS3qTHr9MdYDPMIMz0V6vNHcUo0mx6Pv3QZ6Yx7jpMPsQwNGwbKctsRsWy1bkb8E15sdvy41IydKPWpZSNrkWPwmUirSuCsIEw0pm7gOp9ntVWKWFuv7YgPf93kcPTY9VR4q_w70bqOlRa7tqTfrkxjBjyXKrPdqisPlhz9VoCVSLxmF1W4iudrnuLlfovAPvz7l3uIOL6GShofyX1ave4ltfcg8GtHNqbr5XNjHqMItmHBykYyGHzKXHkQGWpfEmL9WG5SqgYs51N7AIO0gpWa5OS9BiXkvy2t5m9LuLcLN4OcgP_oxh0f2Qu3W60WoSyTA5CHWQiUe7zjDtGBSUMm_V0trHidvRvpXFW8dw2QFunMa-3yTq1nZZc849efCLC8bXvfUB17T2HZB6O0MaVf1ntGyYhC8ggvDyNS0-2078XMoZ9mylTADg-gAWO95ZWPLuOA8DBESqbYuNvatGvdmoDZOSWKbyU7oIC8vPGcjlZRxPGXus1AsLwRqDiFOgj5hoE10R61gvTMJaL3mYy-dk4vGhsRS_j1fF83PuQpWEjFQqzQ5glwXmH9MSvkQuTkoHD095NmLB4XZtF3fEXgs7EwtzKZomr8bz1DB0o96GcrLE8jqeHL4EznjQBH1pXXGrtGn17LWCWHxfKovY1QqwJOZcpgNp43JWs8gqEhOYusFW8uQwm6rQJb1CJvN-MQOFgt1-CkziBOmqq1sj9sKzQj2jfbrgWDNOi5zie4eeSTSsH7MxuBJscwtz6YrL0nlHTkfmxSQ4yJdbIaq0VTd0_GNeJrlMzdkE8uf1ehbCJVByvv9HbnIbL-HTePzXxiQ0JsVJoJnSFf-UIOCqVXOIkHJ8tjlmtkBuMTJtBRAXnoN2702CBKEhDNjp1sAwKth8JUSXTocRTIte13Mbgu89PyR1UhkE6mAq3XhqrHgR3M3175uQ-zdz0D18SXWAenpMEVpdEwTRzOi5HHsdA97ClNoiZRBre0BMxmTOFrhw8u22mJ0z4qRXswy7mHMqojN_30VkyivKgaH7AMyqG_F8T7mRx4XW1ARawzgLalMoZf_sWmDelQzZThZhd6mrCAZIHtfd0-XcXUwzYmUgtObC2Vg2fDrG0rGxus_xxjcgFOcNBgOI-RHJQ1ViyRFz8Pp7SzENOt5sVlj5iN-ksqztuDDQ1IPpV7ec3_JvNRgrZb9VCmMT4-r4mIgImad2I1nZJI-kAshc0j360OurMFLcQw_18i11eM_N_l_6xGpSCSD2Tm70Cuqsxs4_uf42TEELzTezgYRHP45GU1CnJTyKIT6KDTNHFJN86W0jqAqrFANdoQ9mrBYcqETbvfXTdsebVFrDj-zOvHqsElxPXj-uyC7ISHA4JfV8pUBuSPY-m6u7kd23Twu5_J2x92uG4xzuqnOviC8t0xPZ-VSujY46zv6s0mD_5c5sFDx_yDSH9d95JKtooT3HI6jhTFjrzyRktlKOAfWxpXQ-3jXSOEDPZMhhuBx3YzcLTUlNkbNPnRhiqcVDU1WL1vHsL1YMSxCQmyj4exN_5s1PhDqcs8-hk0cmbWvAN5kt7bMijpy2snwm_QmtRTpZt3y0]--></g></svg>