<?xml version="1.0" encoding="us-ascii" standalone="no"?><svg xmlns="http://www.w3.org/2000/svg" xmlns:xlink="http://www.w3.org/1999/xlink" contentStyleType="text/css" height="821px" preserveAspectRatio="none" style="width:2248px;height:821px;background:#FAFAFA;" version="1.1" viewBox="0 0 2248 821" width="2248px" zoomAndPan="magnify"><defs/><g><rect fill="#FAFAFA" height="821" style="stroke:none;stroke-width:1.0;" width="2248" x="0" y="0"/><!--cluster Client--><g id="cluster_Client"><path d="M727.5,6 L770.5,6 A3.75,3.75 0 0 1 773,8.5 L780,27.1328 L1031.5,27.1328 A2.5,2.5 0 0 1 1034,29.6328 L1034,111.5 A2.5,2.5 0 0 1 1031.5,114 L727.5,114 A2.5,2.5 0 0 1 725,111.5 L725,8.5 A2.5,2.5 0 0 1 727.5,6 " fill="#EEF6FF" style="stroke:#534AB7;stroke-width:2.0;"/><line style="stroke:#534AB7;stroke-width:2.0;" x1="725" x2="780" y1="27.1328" y2="27.1328"/><text fill="#3C3489" font-family="sans-serif" font-size="13" font-weight="bold" lengthAdjust="spacing" textLength="42" x="729" y="20.0669">Client</text></g><!--cluster Spring Boot 3.x--><g id="cluster_Spring Boot 3.x"><path d="M8.5,138 L123.5,138 A3.75,3.75 0 0 1 126,140.5 L133,159.1328 L1370.5,159.1328 A2.5,2.5 0 0 1 1373,161.6328 L1373,604.5 A2.5,2.5 0 0 1 1370.5,607 L8.5,607 A2.5,2.5 0 0 1 6,604.5 L6,140.5 A2.5,2.5 0 0 1 8.5,138 " fill="#EEEDFE" style="stroke:#534AB7;stroke-width:2.0;"/><line style="stroke:#534AB7;stroke-width:2.0;" x1="6" x2="133" y1="159.1328" y2="159.1328"/><text fill="#3C3489" font-family="sans-serif" font-size="13" font-weight="bold" lengthAdjust="spacing" textLength="114" x="10" y="152.0669">Spring Boot 3.x</text></g><!--cluster Presentation--><g id="cluster_Presentation"><path d="M863.5,180 L958.5,180 A3.75,3.75 0 0 1 961,182.5 L968,201.1328 L1227.5,201.1328 A2.5,2.5 0 0 1 1230,203.6328 L1230,285.5 A2.5,2.5 0 0 1 1227.5,288 L863.5,288 A2.5,2.5 0 0 1 861,285.5 L861,182.5 A2.5,2.5 0 0 1 863.5,180 " fill="#F5F3FF" style="stroke:#534AB7;stroke-width:2.0;"/><line style="stroke:#534AB7;stroke-width:2.0;" x1="861" x2="968" y1="201.1328" y2="201.1328"/><text fill="#3C3489" font-family="sans-serif" font-size="13" font-weight="bold" lengthAdjust="spacing" textLength="94" x="865" y="194.0669">Presentation</text></g><!--cluster Business--><g id="cluster_Business"><path d="M163.5,327 L229.5,327 A3.75,3.75 0 0 1 232,329.5 L239,348.1328 L1346.5,348.1328 A2.5,2.5 0 0 1 1349,350.6328 L1349,460.5 A2.5,2.5 0 0 1 1346.5,463 L163.5,463 A2.5,2.5 0 0 1 161,460.5 L161,329.5 A2.5,2.5 0 0 1 163.5,327 " fill="#F5F3FF" style="stroke:#534AB7;stroke-width:2.0;"/><line style="stroke:#534AB7;stroke-width:2.0;" x1="161" x2="239" y1="348.1328" y2="348.1328"/><text fill="#3C3489" font-family="sans-serif" font-size="13" font-weight="bold" lengthAdjust="spacing" textLength="65" x="165" y="341.0669">Business</text></g><!--cluster Persistence--><g id="cluster_Persistence"><path d="M690.5,489 L777.5,489 A3.75,3.75 0 0 1 780,491.5 L787,510.1328 L859.5,510.1328 A2.5,2.5 0 0 1 862,512.6328 L862,580.5 A2.5,2.5 0 0 1 859.5,583 L690.5,583 A2.5,2.5 0 0 1 688,580.5 L688,491.5 A2.5,2.5 0 0 1 690.5,489 " fill="#F5F3FF" style="stroke:#534AB7;stroke-width:2.0;"/><line style="stroke:#534AB7;stroke-width:2.0;" x1="688" x2="787" y1="510.1328" y2="510.1328"/><text fill="#3C3489" font-family="sans-serif" font-size="13" font-weight="bold" lengthAdjust="spacing" textLength="86" x="692" y="503.0669">Persistence</text></g><!--cluster MySQL--><g id="cluster_MySQL"><path d="M767,649 C767,639 931.5,639 931.5,639 C931.5,639 1096,639 1096,649 L1096,794 C1096,804 931.5,804 931.5,804 C931.5,804 767,804 767,794 L767,649 " fill="#FFFFFF" style="stroke:#AFA9EC;stroke-width:1.0;"/><path d="M767,649 C767,659 931.5,659 931.5,659 C931.5,659 1096,659 1096,649 " fill="none" style="stroke:#AFA9EC;stroke-width:1.0;"/><text fill="#26215C" font-family="sans-serif" font-size="12" font-weight="bold" lengthAdjust="spacing" textLength="47" x="908" y="672.1387">MySQL</text></g><!--cluster Redis--><g id="cluster_Redis"><path d="M1405,330 C1405,320 1505.5,320 1505.5,320 C1505.5,320 1606,320 1606,330 L1606,447 C1606,457 1505.5,457 1505.5,457 C1505.5,457 1405,457 1405,447 L1405,330 " fill="#FFFFFF" style="stroke:#AFA9EC;stroke-width:1.0;"/><path d="M1405,330 C1405,340 1505.5,340 1505.5,340 C1505.5,340 1606,340 1606,330 " fill="none" style="stroke:#AFA9EC;stroke-width:1.0;"/><text fill="#26215C" font-family="sans-serif" font-size="12" font-weight="bold" lengthAdjust="spacing" textLength="39" x="1486" y="353.1387">Redis</text></g><!--cluster ?? ???--><g id="cluster_&#50808;&#48512; &#49436;&#48708;&#49828;"><path d="M1654.89,349.1856 C1665.0994,332.2954 1674.9643,330.1668 1687.6032,346.816 C1698.3806,333.2126 1708.8698,331.9299 1720.5071,345.7857 C1730.3885,330.7275 1741.8854,332.5795 1752.1958,345.2962 C1759.6763,331.2923 1774.6709,330.1047 1783.9725,343.1573 C1794.4294,327.4071 1808.7683,329.4944 1816.8131,345.6408 C1825.1636,330.4576 1839.3521,334.0302 1847.0585,346.3493 C1856.535,333.65 1865.8256,333.4582 1875.6863,345.9121 C1886.1953,327.3731 1901.5561,330.5485 1910.6195,347.3415 C1921.0084,333.5839 1932.5837,332.6139 1942.9956,347.3153 C1948.6694,331.3523 1963.3255,330.8461 1973.0287,343.0134 C1985.283,328.2806 1994.3495,329.3921 2002.6283,346.6874 C2013.3077,329.8365 2028.2529,329.709 2038.2711,347.3702 C2047.5997,332.2732 2059.9976,332.3667 2068.8327,347.8631 C2079.8222,333.2812 2095.765,334.7015 2104,351 C2106.9049,350.1896 2108.6954,351.4503 2108.0507,354.6161 C2134.1146,361.7457 2133.7396,381.7186 2118.3601,398.569 C2132.8809,421.5435 2130.118,445.6112 2097,448 C2100.206,448.4575 2100.2339,451.0386 2098.6535,453.0602 C2087.1043,465.232 2076.3353,464.2049 2067.622,449.7546 C2061.6193,465.8821 2048.6488,467.9174 2038.189,454.1415 C2027.0468,467.6044 2012.2528,468.3195 2004.008,450.9313 C1996.0558,470.5582 1984.6464,469.3346 1970.9136,456.8977 C1959.0929,467.3714 1948.516,468.534 1940.8917,452.1983 C1933.0572,465.9656 1918.2118,466.811 1909.8243,452.8173 C1902.7647,472.5491 1887.6574,474.4193 1875.7996,457.2404 C1866.646,472.1846 1854.9307,472.3888 1846.8528,456.2389 C1837.3116,473.4591 1822.0121,471.5592 1812.0601,456.6843 C1801.4605,470.3319 1787.483,470.4369 1780.3346,453.1453 C1773.6167,465.979 1761.1048,467.1138 1752.2507,455.6103 C1741.0164,469.0976 1724.9139,467.8879 1716.4403,452.2194 C1705.6566,466.6389 1694.8258,463.8632 1685.2626,450.8331 C1667.2735,465.5974 1654.794,462.9505 1646,441 C1647.2473,440.2664 1648.1676,440.7545 1648.3429,442.1691 C1624.1121,433.8152 1620.1315,416.5595 1640.7198,400.0867 C1621.6011,377.0769 1618.8405,355.3446 1653,344 C1655.8844,344.8035 1657.107,346.5228 1654.89,349.1856 " fill="#FFF7ED" style="stroke:#AFA9EC;stroke-width:1.0;"/><text fill="#26215C" font-family="sans-serif" font-size="12" font-weight="bold" lengthAdjust="spacing" textLength="39" x="1855.5" y="360.1387">&#50808;&#48512; &#49436;&#48708;&#49828;</text></g><!--entity NextJS--><g id="elem_NextJS"><rect fill="#FFFFFF" height="57.9375" rx="2.5" ry="2.5" style="stroke:#AFA9EC;stroke-width:1.5;" width="103" x="741.5" y="40"/><rect fill="#FFFFFF" height="10" style="stroke:#AFA9EC;stroke-width:1.5;" width="15" x="824.5" y="45"/><rect fill="#FFFFFF" height="2" style="stroke:#AFA9EC;stroke-width:1.5;" width="4" x="822.5" y="47"/><rect fill="#FFFFFF" height="2" style="stroke:#AFA9EC;stroke-width:1.5;" width="4" x="822.5" y="51"/><text fill="#26215C" font-family="sans-serif" font-size="12" lengthAdjust="spacing" textLength="42" x="756.5" y="71.1387">Next.js</text><text fill="#26215C" font-family="sans-serif" font-size="12" lengthAdjust="spacing" textLength="63" x="756.5" y="85.1074">(SSR/SSG)</text></g><!--entity Session--><g id="elem_Session"><rect fill="#FFFFFF" height="57.9375" rx="2.5" ry="2.5" style="stroke:#AFA9EC;stroke-width:1.5;" width="138" x="880" y="40"/><rect fill="#FFFFFF" height="10" style="stroke:#AFA9EC;stroke-width:1.5;" width="15" x="998" y="45"/><rect fill="#FFFFFF" height="2" style="stroke:#AFA9EC;stroke-width:1.5;" width="4" x="996" y="47"/><rect fill="#FFFFFF" height="2" style="stroke:#AFA9EC;stroke-width:1.5;" width="4" x="996" y="51"/><text fill="#26215C" font-family="sans-serif" font-size="12" lengthAdjust="spacing" textLength="98" x="895" y="71.1387">sessionStorage</text><text fill="#26215C" font-family="sans-serif" font-size="12" lengthAdjust="spacing" textLength="92" x="895" y="85.1074">(&#48708;&#54924;&#50896; &#50896;&#51216;&#49688; &#51076;&#49884; &#48372;&#44288;)</text></g><!--entity Batch--><g id="elem_Batch"><rect fill="#FFFFFF" height="57.9375" rx="2.5" ry="2.5" style="stroke:#AFA9EC;stroke-width:1.5;" width="120" x="22" y="375"/><rect fill="#FFFFFF" height="10" style="stroke:#AFA9EC;stroke-width:1.5;" width="15" x="122" y="380"/><rect fill="#FFFFFF" height="2" style="stroke:#AFA9EC;stroke-width:1.5;" width="4" x="120" y="382"/><rect fill="#FFFFFF" height="2" style="stroke:#AFA9EC;stroke-width:1.5;" width="4" x="120" y="386"/><text fill="#26215C" font-family="sans-serif" font-size="12" lengthAdjust="spacing" textLength="80" x="37" y="406.1387">Spring Batch</text><text fill="#26215C" font-family="sans-serif" font-size="12" lengthAdjust="spacing" textLength="68" x="37" y="420.1074">&#47564;&#47308; &#53076;&#46300;/&#53664;&#53360; &#49325;&#51228;</text></g><!--entity Controllers--><g id="elem_Controllers"><rect fill="#FFFFFF" height="57.9375" rx="2.5" ry="2.5" style="stroke:#AFA9EC;stroke-width:1.5;" width="143" x="877.5" y="214"/><rect fill="#FFFFFF" height="10" style="stroke:#AFA9EC;stroke-width:1.5;" width="15" x="1000.5" y="219"/><rect fill="#FFFFFF" height="2" style="stroke:#AFA9EC;stroke-width:1.5;" width="4" x="998.5" y="221"/><rect fill="#FFFFFF" height="2" style="stroke:#AFA9EC;stroke-width:1.5;" width="4" x="998.5" y="225"/><text fill="#26215C" font-family="sans-serif" font-size="12" lengthAdjust="spacing" textLength="103" x="892.5" y="245.1387">REST Controllers</text><text fill="#26215C" font-family="sans-serif" font-size="12" lengthAdjust="spacing" textLength="72" x="892.5" y="259.1074">(28&#44060; &#50644;&#46300;&#54252;&#51064;&#53944;)</text></g><!--entity Security--><g id="elem_Security"><rect fill="#FFFFFF" height="57.9375" rx="2.5" ry="2.5" style="stroke:#AFA9EC;stroke-width:1.5;" width="158" x="1056" y="214"/><rect fill="#FFFFFF" height="10" style="stroke:#AFA9EC;stroke-width:1.5;" width="15" x="1194" y="219"/><rect fill="#FFFFFF" height="2" style="stroke:#AFA9EC;stroke-width:1.5;" width="4" x="1192" y="221"/><rect fill="#FFFFFF" height="2" style="stroke:#AFA9EC;stroke-width:1.5;" width="4" x="1192" y="225"/><text fill="#26215C" font-family="sans-serif" font-size="12" lengthAdjust="spacing" textLength="94" x="1071" y="245.1387">Spring Security</text><text fill="#26215C" font-family="sans-serif" font-size="12" lengthAdjust="spacing" textLength="118" x="1071" y="259.1074">+ Kakao OAuth 2.0</text></g><!--entity Scoring--><g id="elem_Scoring"><rect fill="#FFFFFF" height="57.9375" rx="2.5" ry="2.5" style="stroke:#AFA9EC;stroke-width:1.5;" width="132" x="883" y="375"/><rect fill="#FFFFFF" height="10" style="stroke:#AFA9EC;stroke-width:1.5;" width="15" x="995" y="380"/><rect fill="#FFFFFF" height="2" style="stroke:#AFA9EC;stroke-width:1.5;" width="4" x="993" y="382"/><rect fill="#FFFFFF" height="2" style="stroke:#AFA9EC;stroke-width:1.5;" width="4" x="993" y="386"/><text fill="#26215C" font-family="sans-serif" font-size="12" lengthAdjust="spacing" textLength="92" x="898" y="406.1387">ScoringService</text><text fill="#26215C" font-family="sans-serif" font-size="12" lengthAdjust="spacing" textLength="71" x="898" y="420.1074">&#52292;&#51216; + &#48260;&#53431; &#51221;&#44508;&#54868;</text></g><!--entity Cache--><g id="elem_Cache"><rect fill="#FFFFFF" height="57.9375" rx="2.5" ry="2.5" style="stroke:#AFA9EC;stroke-width:1.5;" width="124" x="1050" y="375"/><rect fill="#FFFFFF" height="10" style="stroke:#AFA9EC;stroke-width:1.5;" width="15" x="1154" y="380"/><rect fill="#FFFFFF" height="2" style="stroke:#AFA9EC;stroke-width:1.5;" width="4" x="1152" y="382"/><rect fill="#FFFFFF" height="2" style="stroke:#AFA9EC;stroke-width:1.5;" width="4" x="1152" y="386"/><text fill="#26215C" font-family="sans-serif" font-size="12" lengthAdjust="spacing" textLength="84" x="1065" y="406.1387">CacheService</text><text fill="#26215C" font-family="sans-serif" font-size="12" lengthAdjust="spacing" textLength="79" x="1065" y="420.1074">Lazy Caching</text></g><!--entity Llm--><g id="elem_Llm"><rect fill="#FFFFFF" height="57.9375" rx="2.5" ry="2.5" style="stroke:#AFA9EC;stroke-width:1.5;" width="124" x="1209" y="375"/><rect fill="#FFFFFF" height="10" style="stroke:#AFA9EC;stroke-width:1.5;" width="15" x="1313" y="380"/><rect fill="#FFFFFF" height="2" style="stroke:#AFA9EC;stroke-width:1.5;" width="4" x="1311" y="382"/><rect fill="#FFFFFF" height="2" style="stroke:#AFA9EC;stroke-width:1.5;" width="4" x="1311" y="386"/><text fill="#26215C" font-family="sans-serif" font-size="12" lengthAdjust="spacing" textLength="65" x="1224" y="406.1387">LlmService</text><text fill="#26215C" font-family="sans-serif" font-size="12" lengthAdjust="spacing" textLength="84" x="1224" y="420.1074">Claude API &#54840;&#52636;</text></g><!--entity Chemistry--><g id="elem_Chemistry"><rect fill="#FFFFFF" height="57.9375" rx="2.5" ry="2.5" style="stroke:#AFA9EC;stroke-width:1.5;" width="146" x="702" y="375"/><rect fill="#FFFFFF" height="10" style="stroke:#AFA9EC;stroke-width:1.5;" width="15" x="828" y="380"/><rect fill="#FFFFFF" height="2" style="stroke:#AFA9EC;stroke-width:1.5;" width="4" x="826" y="382"/><rect fill="#FFFFFF" height="2" style="stroke:#AFA9EC;stroke-width:1.5;" width="4" x="826" y="386"/><text fill="#26215C" font-family="sans-serif" font-size="12" lengthAdjust="spacing" textLength="106" x="717" y="406.1387">ChemistryService</text><text fill="#26215C" font-family="sans-serif" font-size="12" lengthAdjust="spacing" textLength="85" x="717" y="420.1074">@Async &#52992;&#48120; &#48156;&#54665;</text></g><!--entity Sse--><g id="elem_Sse"><rect fill="#FFFFFF" height="57.9375" rx="2.5" ry="2.5" style="stroke:#AFA9EC;stroke-width:1.5;" width="126" x="177" y="375"/><rect fill="#FFFFFF" height="10" style="stroke:#AFA9EC;stroke-width:1.5;" width="15" x="283" y="380"/><rect fill="#FFFFFF" height="2" style="stroke:#AFA9EC;stroke-width:1.5;" width="4" x="281" y="382"/><rect fill="#FFFFFF" height="2" style="stroke:#AFA9EC;stroke-width:1.5;" width="4" x="281" y="386"/><text fill="#26215C" font-family="sans-serif" font-size="12" lengthAdjust="spacing" textLength="68" x="192" y="406.1387">SseService</text><text fill="#26215C" font-family="sans-serif" font-size="12" lengthAdjust="spacing" textLength="86" x="192" y="420.1074">SseEmitter &#44288;&#47532;</text></g><!--entity Coin--><g id="elem_Coin"><rect fill="#FFFFFF" height="57.9375" rx="2.5" ry="2.5" style="stroke:#AFA9EC;stroke-width:1.5;" width="112" x="338" y="375"/><rect fill="#FFFFFF" height="10" style="stroke:#AFA9EC;stroke-width:1.5;" width="15" x="430" y="380"/><rect fill="#FFFFFF" height="2" style="stroke:#AFA9EC;stroke-width:1.5;" width="4" x="428" y="382"/><rect fill="#FFFFFF" height="2" style="stroke:#AFA9EC;stroke-width:1.5;" width="4" x="428" y="386"/><text fill="#26215C" font-family="sans-serif" font-size="12" lengthAdjust="spacing" textLength="72" x="353" y="406.1387">CoinService</text><text fill="#26215C" font-family="sans-serif" font-size="12" lengthAdjust="spacing" textLength="46" x="353" y="420.1074">&#50728;&#46356;&#47592;&#46300; &#52649;&#51204;</text></g><!--entity OtherServices--><g id="elem_OtherServices"><rect fill="#FFFFFF" height="85.875" rx="2.5" ry="2.5" style="stroke:#AFA9EC;stroke-width:1.5;" width="182" x="485" y="361"/><rect fill="#FFFFFF" height="10" style="stroke:#AFA9EC;stroke-width:1.5;" width="15" x="647" y="366"/><rect fill="#FFFFFF" height="2" style="stroke:#AFA9EC;stroke-width:1.5;" width="4" x="645" y="368"/><rect fill="#FFFFFF" height="2" style="stroke:#AFA9EC;stroke-width:1.5;" width="4" x="645" y="372"/><text fill="#26215C" font-family="sans-serif" font-size="12" lengthAdjust="spacing" textLength="70" x="500" y="392.1387">&#44592;&#53440; Services</text><text fill="#26215C" font-family="sans-serif" font-size="12" lengthAdjust="spacing" textLength="114" x="500" y="406.1074">(Auth/User/Result/</text><text fill="#26215C" font-family="sans-serif" font-size="12" lengthAdjust="spacing" textLength="142" x="500" y="420.0762">Assessment/Statistics/</text><text fill="#26215C" font-family="sans-serif" font-size="12" lengthAdjust="spacing" textLength="142" x="500" y="434.0449">Colleague/Notification)</text></g><!--entity Repos--><g id="elem_Repos"><rect fill="#FFFFFF" height="43.9688" rx="2.5" ry="2.5" style="stroke:#AFA9EC;stroke-width:1.5;" width="141" x="704.5" y="523"/><rect fill="#FFFFFF" height="10" style="stroke:#AFA9EC;stroke-width:1.5;" width="15" x="825.5" y="528"/><rect fill="#FFFFFF" height="2" style="stroke:#AFA9EC;stroke-width:1.5;" width="4" x="823.5" y="530"/><rect fill="#FFFFFF" height="2" style="stroke:#AFA9EC;stroke-width:1.5;" width="4" x="823.5" y="534"/><text fill="#26215C" font-family="sans-serif" font-size="12" lengthAdjust="spacing" textLength="101" x="719.5" y="554.1387">JPA Repositories</text></g><!--entity DiscCache--><g id="elem_DiscCache"><rect fill="#FFFFFF" height="57.9375" rx="2.5" ry="2.5" style="stroke:#AFA9EC;stroke-width:1.5;" width="109" x="962.5" y="708"/><rect fill="#FFFFFF" height="10" style="stroke:#AFA9EC;stroke-width:1.5;" width="15" x="1051.5" y="713"/><rect fill="#FFFFFF" height="2" style="stroke:#AFA9EC;stroke-width:1.5;" width="4" x="1049.5" y="715"/><rect fill="#FFFFFF" height="2" style="stroke:#AFA9EC;stroke-width:1.5;" width="4" x="1049.5" y="719"/><text fill="#26215C" font-family="sans-serif" font-size="12" lengthAdjust="spacing" textLength="69" x="977.5" y="739.1387">disc_cache</text><text fill="#26215C" font-family="sans-serif" font-size="12" lengthAdjust="spacing" textLength="42" x="977.5" y="753.1074">(&#48260;&#53431; &#52880;&#49884;)</text></g><!--entity OtherTables--><g id="elem_OtherTables"><rect fill="#FFFFFF" height="85.875" rx="2.5" ry="2.5" style="stroke:#AFA9EC;stroke-width:1.5;" width="117" x="810.5" y="694"/><rect fill="#FFFFFF" height="10" style="stroke:#AFA9EC;stroke-width:1.5;" width="15" x="907.5" y="699"/><rect fill="#FFFFFF" height="2" style="stroke:#AFA9EC;stroke-width:1.5;" width="4" x="905.5" y="701"/><rect fill="#FFFFFF" height="2" style="stroke:#AFA9EC;stroke-width:1.5;" width="4" x="905.5" y="705"/><text fill="#26215C" font-family="sans-serif" font-size="12" lengthAdjust="spacing" textLength="74" x="825.5" y="725.1387">test_results</text><text fill="#26215C" font-family="sans-serif" font-size="12" lengthAdjust="spacing" textLength="68" x="825.5" y="739.1074">colleagues</text><text fill="#26215C" font-family="sans-serif" font-size="12" lengthAdjust="spacing" textLength="77" x="825.5" y="753.0762">notifications</text><text fill="#26215C" font-family="sans-serif" font-size="12" lengthAdjust="spacing" textLength="58" x="825.5" y="767.0449">&#44592;&#53440; 6&#44060; &#53580;&#51060;&#48660;</text></g><!--entity RedisData--><g id="elem_RedisData"><rect fill="#FFFFFF" height="57.9375" rx="2.5" ry="2.5" style="stroke:#AFA9EC;stroke-width:1.5;" width="133" x="1448.5" y="375"/><rect fill="#FFFFFF" height="10" style="stroke:#AFA9EC;stroke-width:1.5;" width="15" x="1561.5" y="380"/><rect fill="#FFFFFF" height="2" style="stroke:#AFA9EC;stroke-width:1.5;" width="4" x="1559.5" y="382"/><rect fill="#FFFFFF" height="2" style="stroke:#AFA9EC;stroke-width:1.5;" width="4" x="1559.5" y="386"/><text fill="#26215C" font-family="sans-serif" font-size="12" lengthAdjust="spacing" textLength="39" x="1463.5" y="406.1387">&#49464;&#49496; &#51200;&#51109;&#49548;</text><text fill="#26215C" font-family="sans-serif" font-size="12" lengthAdjust="spacing" textLength="93" x="1463.5" y="420.1074">+ @Cacheable</text></g><!--entity ClaudeAPI--><g id="elem_ClaudeAPI"><rect fill="#FFFFFF" height="71.9063" rx="2.5" ry="2.5" style="stroke:#AFA9EC;stroke-width:1.5;" width="164" x="1777" y="368"/><rect fill="#FFFFFF" height="10" style="stroke:#AFA9EC;stroke-width:1.5;" width="15" x="1921" y="373"/><rect fill="#FFFFFF" height="2" style="stroke:#AFA9EC;stroke-width:1.5;" width="4" x="1919" y="375"/><rect fill="#FFFFFF" height="2" style="stroke:#AFA9EC;stroke-width:1.5;" width="4" x="1919" y="379"/><text fill="#26215C" font-family="sans-serif" font-size="12" lengthAdjust="spacing" textLength="60" x="1792" y="399.1387">Anthropic</text><text fill="#26215C" font-family="sans-serif" font-size="12" lengthAdjust="spacing" textLength="66" x="1792" y="413.1074">Claude API</text><text fill="#26215C" font-family="sans-serif" font-size="12" lengthAdjust="spacing" textLength="124" x="1792" y="427.0762">(claude-sonnet-4-6)</text></g><!--entity Kakao--><g id="elem_Kakao"><rect fill="#FFFFFF" height="43.9688" rx="2.5" ry="2.5" style="stroke:#AFA9EC;stroke-width:1.5;" width="120" x="1976" y="382"/><rect fill="#FFFFFF" height="10" style="stroke:#AFA9EC;stroke-width:1.5;" width="15" x="2076" y="387"/><rect fill="#FFFFFF" height="2" style="stroke:#AFA9EC;stroke-width:1.5;" width="4" x="2074" y="389"/><rect fill="#FFFFFF" height="2" style="stroke:#AFA9EC;stroke-width:1.5;" width="4" x="2074" y="393"/><text fill="#26215C" font-family="sans-serif" font-size="12" lengthAdjust="spacing" textLength="80" x="1991" y="413.1387">Kakao OAuth</text></g><!--entity S3--><g id="elem_S3"><rect fill="#FFFFFF" height="71.9063" rx="2.5" ry="2.5" style="stroke:#AFA9EC;stroke-width:1.5;" width="87" x="1654.5" y="368"/><rect fill="#FFFFFF" height="10" style="stroke:#AFA9EC;stroke-width:1.5;" width="15" x="1721.5" y="373"/><rect fill="#FFFFFF" height="2" style="stroke:#AFA9EC;stroke-width:1.5;" width="4" x="1719.5" y="375"/><rect fill="#FFFFFF" height="2" style="stroke:#AFA9EC;stroke-width:1.5;" width="4" x="1719.5" y="379"/><text fill="#26215C" font-family="sans-serif" font-size="12" lengthAdjust="spacing" textLength="47" x="1669.5" y="399.1387">AWS S3</text><text fill="#26215C" font-family="sans-serif" font-size="12" lengthAdjust="spacing" textLength="46" x="1669.5" y="413.1074">&#54532;&#47196;&#54596; &#51060;&#48120;&#51648;</text><text fill="#26215C" font-family="sans-serif" font-size="12" lengthAdjust="spacing" textLength="24" x="1669.5" y="427.0762">(&#50868;&#50689;)</text></g><g id="elem_GMN53"><path d="M1388.5,522.5 L1388.5,567.4219 L1557.5,567.4219 L1557.5,532.5 L1547.5,522.5 L1388.5,522.5 " fill="#F5F3FF" style="stroke:#AFA9EC;stroke-width:0.5;"/><path d="M1547.5,522.5 L1547.5,532.5 L1557.5,532.5 L1547.5,522.5 " fill="#F5F3FF" style="stroke:#AFA9EC;stroke-width:1.0;"/><text fill="#534AB7" font-family="sans-serif" font-size="10" lengthAdjust="spacing" textLength="98" x="1394.5" y="536.7822">&#52880;&#49884; HIT + &#50976;&#54952; &#8594; &#51593;&#49884; &#48152;&#54872;</text><text fill="#534AB7" font-family="sans-serif" font-size="10" lengthAdjust="spacing" textLength="148" x="1394.5" y="548.4229">&#52880;&#49884; HIT + &#47564;&#47308; &#8594; LLM &#8594; UPDATE</text><text fill="#534AB7" font-family="sans-serif" font-size="10" lengthAdjust="spacing" textLength="127" x="1394.5" y="560.0635">&#52880;&#49884; MISS &#8594; LLM &#8594; INSERT</text></g><g id="elem_GMN56"><path d="M2131,381.5 L2131,426.4219 L2241,426.4219 L2241,391.5 L2231,381.5 L2131,381.5 " fill="#F5F3FF" style="stroke:#AFA9EC;stroke-width:0.5;"/><path d="M2231,381.5 L2231,391.5 L2241,391.5 L2231,381.5 " fill="#F5F3FF" style="stroke:#AFA9EC;stroke-width:1.0;"/><text fill="#534AB7" font-family="sans-serif" font-size="10" lengthAdjust="spacing" textLength="89" x="2137" y="395.7822">&#48156;&#54665; &#50836;&#52397; &#8594; 202 &#51593;&#49884; &#48152;&#54872;</text><text fill="#534AB7" font-family="sans-serif" font-size="10" lengthAdjust="spacing" textLength="85" x="2137" y="407.4229">@Async&#47196; LLM &#54840;&#52636;</text><text fill="#534AB7" font-family="sans-serif" font-size="10" lengthAdjust="spacing" textLength="60" x="2137" y="419.0635">&#50756;&#47308; &#49884; SSE &#54392;&#49884;</text></g><g id="elem_GMN59"><path d="M1593,522.5 L1593,567.4219 L1741,567.4219 L1741,532.5 L1731,522.5 L1593,522.5 " fill="#F5F3FF" style="stroke:#AFA9EC;stroke-width:0.5;"/><path d="M1731,522.5 L1731,532.5 L1741,532.5 L1731,522.5 " fill="#F5F3FF" style="stroke:#AFA9EC;stroke-width:1.0;"/><text fill="#534AB7" font-family="sans-serif" font-size="10" lengthAdjust="spacing" textLength="66" x="1599" y="536.7822">&#44060;&#48156;: &#49436;&#48260; &#47700;&#47784;&#47532; &#49464;&#49496;</text><text fill="#534AB7" font-family="sans-serif" font-size="10" lengthAdjust="spacing" textLength="80" x="1599" y="548.4229">&#50868;&#50689;: Redis &#49464;&#49496; &#51200;&#51109;&#49548;</text><text fill="#534AB7" font-family="sans-serif" font-size="10" lengthAdjust="spacing" textLength="127" x="1599" y="560.0635">+ disc_cache @Cacheable</text></g><!--link NextJS to Controllers--><g id="link_NextJS_Controllers"><path d="M823.9,98.12 C823.9,145.49 823.9,234 823.9,234 C823.9,234 843.36,234 871.32,234 " fill="none" id="NextJS-to-Controllers" style="stroke:#7F77DD;stroke-width:1.0;"/><polygon fill="#7F77DD" points="877.32,234,868.32,230,872.32,234,868.32,238,877.32,234" style="stroke:#7F77DD;stroke-width:1.0;"/><text fill="#534AB7" font-family="sans-serif" font-size="10" lengthAdjust="spacing" textLength="67" x="755.9" y="190.0522">HTTPS / REST</text></g><!--link NextJS to Sse--><g id="link_NextJS_Sse"><path d="M741.3,69 C600.21,69 219,69 219,69 C219,69 219,287.35 219,368.86 " fill="none" id="NextJS-to-Sse" style="stroke:#7F77DD;stroke-width:1.0;"/><polygon fill="#7F77DD" points="219,374.86,223,365.86,219,369.86,215,365.86,219,374.86" style="stroke:#7F77DD;stroke-width:1.0;"/><text fill="#534AB7" font-family="sans-serif" font-size="10" lengthAdjust="spacing" textLength="122" x="204.22" y="54.2822">GET /notifications/stream</text><text fill="#534AB7" font-family="sans-serif" font-size="10" lengthAdjust="spacing" textLength="59" x="235.72" y="65.9229">(SSE &#50672;&#44208; &#50976;&#51648;)</text></g><!--link Session to Controllers--><g id="link_Session_Controllers"><path d="M949,98.12 C949,130.24 949,175.62 949,207.78 " fill="none" id="Session-to-Controllers" style="stroke:#7F77DD;stroke-width:1.0;"/><polygon fill="#7F77DD" points="949,213.78,953,204.78,949,208.78,945,204.78,949,213.78" style="stroke:#7F77DD;stroke-width:1.0;"/><text fill="#534AB7" font-family="sans-serif" font-size="10" lengthAdjust="spacing" textLength="65" x="883" y="141.2322">POST /results</text><text fill="#534AB7" font-family="sans-serif" font-size="10" lengthAdjust="spacing" textLength="41" x="895" y="152.8729">(&#50896;&#51216;&#49688; &#51204;&#49569;)</text></g><!--link Security to Controllers--><g id="link_Security_Controllers"><path d="M1055.85,253 C1044.18,253 1038.22,253 1026.71,253 " fill="none" id="Security-to-Controllers" style="stroke:#7F77DD;stroke-width:1.0;"/><polygon fill="#7F77DD" points="1020.71,253,1029.71,257,1025.71,253,1029.71,249,1020.71,253" style="stroke:#7F77DD;stroke-width:1.0;"/><text fill="#534AB7" font-family="sans-serif" font-size="10" lengthAdjust="spacing" textLength="27" x="1024.78" y="263.2822">&#51064;&#51613;/&#51064;&#44032;</text></g><!--link Controllers to Scoring--><g id="link_Controllers_Scoring"><path d="M971,272.16 C971,301.24 971,339.68 971,368.79 " fill="none" id="Controllers-to-Scoring" style="stroke:#7F77DD;stroke-width:1.0;"/><polygon fill="#7F77DD" points="971,374.79,975,365.79,971,369.79,967,365.79,971,374.79" style="stroke:#7F77DD;stroke-width:1.0;"/></g><!--link Controllers to Cache--><g id="link_Controllers_Cache"><path d="M1020.62,234 C1029.34,234 1035.25,234 1035.25,234 C1035.25,234 1035.25,395 1035.25,395 C1035.25,395 1035.15,395 1043.69,395 " fill="none" id="Controllers-to-Cache" style="stroke:#7F77DD;stroke-width:1.0;"/><polygon fill="#7F77DD" points="1049.69,395,1040.69,391,1044.69,395,1040.69,399,1049.69,395" style="stroke:#7F77DD;stroke-width:1.0;"/></g><!--link Controllers to Chemistry--><g id="link_Controllers_Chemistry"><path d="M877.03,253 C832.08,253 782.7,253 782.7,253 C782.7,253 782.7,325.01 782.7,368.89 " fill="none" id="Controllers-to-Chemistry" style="stroke:#7F77DD;stroke-width:1.0;"/><polygon fill="#7F77DD" points="782.7,374.89,786.7,365.89,782.7,369.89,778.7,365.89,782.7,374.89" style="stroke:#7F77DD;stroke-width:1.0;"/></g><!--link Controllers to OtherServices--><g id="link_Controllers_OtherServices"><path d="M927,272.05 C927,307.56 927,363 927,363 C927,363 777.3,363 673.3,363 " fill="none" id="Controllers-to-OtherServices" style="stroke:#7F77DD;stroke-width:1.0;"/><polygon fill="#7F77DD" points="667.3,363,676.3,367,672.3,363,676.3,359,667.3,363" style="stroke:#7F77DD;stroke-width:1.0;"/></g><!--link Scoring to Cache--><g id="link_Scoring_Cache"><path d="M1015.3,414 C1026.76,414 1032.63,414 1043.97,414 " fill="none" id="Scoring-to-Cache" style="stroke:#7F77DD;stroke-width:1.0;"/><polygon fill="#7F77DD" points="1049.97,414,1040.97,410,1044.97,414,1040.97,418,1049.97,414" style="stroke:#7F77DD;stroke-width:1.0;"/><text fill="#534AB7" font-family="sans-serif" font-size="10" lengthAdjust="spacing" textLength="33" x="1016.13" y="424.2822">&#48260;&#53431;&#44050; &#51204;&#45804;</text></g><!--link Cache to Llm--><g id="link_Cache_Llm"><path d="M1174.38,404 C1185.69,404 1191.49,404 1202.8,404 " fill="none" id="Cache-to-Llm" style="stroke:#7F77DD;stroke-width:1.0;"/><polygon fill="#7F77DD" points="1208.8,404,1199.8,400,1203.8,404,1199.8,408,1208.8,404" style="stroke:#7F77DD;stroke-width:1.0;"/><text fill="#534AB7" font-family="sans-serif" font-size="10" lengthAdjust="spacing" textLength="50" x="1166.59" y="414.2822">MISS/&#47564;&#47308; &#49884;</text></g><!--link Chemistry to Llm--><g id="link_Chemistry_Llm"><path d="M762.1,374.79 C762.1,372.47 762.1,371 762.1,371 C762.1,371 1253.67,371 1253.67,371 C1253.67,371 1253.67,366.47 1253.67,368.79 " fill="none" id="Chemistry-to-Llm" style="stroke:#7F77DD;stroke-width:1.0;"/><polygon fill="#7F77DD" points="1253.67,374.79,1257.67,365.79,1253.67,369.79,1249.67,365.79,1253.67,374.79" style="stroke:#7F77DD;stroke-width:1.0;"/><text fill="#534AB7" font-family="sans-serif" font-size="10" lengthAdjust="spacing" textLength="55" x="951.88" y="368.2822">@Async &#54840;&#52636;</text></g><!--link Chemistry to Sse--><g id="link_Chemistry_Sse"><path d="M721.75,374.55 C721.75,349.31 721.75,317 721.75,317 C721.75,317 261,317 261,317 C261,317 261,343.31 261,368.55 " fill="none" id="Chemistry-to-Sse" style="stroke:#7F77DD;stroke-width:1.0;"/><polygon fill="#7F77DD" points="261,374.55,265,365.55,261,369.55,257,365.55,261,374.55" style="stroke:#7F77DD;stroke-width:1.0;"/><text fill="#534AB7" font-family="sans-serif" font-size="10" lengthAdjust="spacing" textLength="36" x="454.38" y="314.2822">&#50756;&#47308; &#49884; &#54392;&#49884;</text></g><!--link Coin to OtherServices--><g id="link_Coin_OtherServices"><path d="M450.09,404 C461.16,404 467.05,404 478.93,404 " fill="none" id="Coin-to-OtherServices" style="stroke:#7F77DD;stroke-width:1.0;"/><polygon fill="#7F77DD" points="484.93,404,475.93,400,479.93,404,475.93,408,484.93,404" style="stroke:#7F77DD;stroke-width:1.0;"/></g><!--link Scoring to Repos--><g id="link_Scoring_Repos"><path d="M905.25,433.22 C905.25,474.52 905.25,545 905.25,545 C905.25,545 882.39,545 851.84,545 " fill="none" id="Scoring-to-Repos" style="stroke:#7F77DD;stroke-width:1.0;"/><polygon fill="#7F77DD" points="845.84,545,854.84,549,850.84,545,854.84,541,845.84,545" style="stroke:#7F77DD;stroke-width:1.0;"/></g><!--link Cache to Repos--><g id="link_Cache_Repos"><path d="M1060.75,433.31 C1060.75,477.48 1060.75,556 1060.75,556 C1060.75,556 936.25,556 851.63,556 " fill="none" id="Cache-to-Repos" style="stroke:#7F77DD;stroke-width:1.0;"/><polygon fill="#7F77DD" points="845.63,556,854.63,560,850.63,556,854.63,552,845.63,556" style="stroke:#7F77DD;stroke-width:1.0;"/></g><!--link OtherServices to Repos--><g id="link_OtherServices_Repos"><path d="M667.09,444 C709.82,444 751.5,444 751.5,444 C751.5,444 751.5,486.83 751.5,516.58 " fill="none" id="OtherServices-to-Repos" style="stroke:#7F77DD;stroke-width:1.0;"/><polygon fill="#7F77DD" points="751.5,522.58,755.5,513.58,751.5,517.58,747.5,513.58,751.5,522.58" style="stroke:#7F77DD;stroke-width:1.0;"/></g><!--link Chemistry to Repos--><g id="link_Chemistry_Repos"><path d="M798.5,433.22 C798.5,459.83 798.5,492.58 798.5,516.76 " fill="none" id="Chemistry-to-Repos" style="stroke:#7F77DD;stroke-width:1.0;"/><polygon fill="#7F77DD" points="798.5,522.76,802.5,513.76,798.5,517.76,794.5,513.76,798.5,522.76" style="stroke:#7F77DD;stroke-width:1.0;"/></g><!--link Repos to MySQL--><g id="link_Repos_MySQL"><path d="M775,567.02 C775,579.0375 775,594.9788 775,612.2916 C775,620.948 775,623.9473 775,632.9704 " fill="none" id="Repos-to-MySQL" style="stroke:#7F77DD;stroke-width:1.0;"/><polygon fill="#7F77DD" points="775,638.9704,779,629.9704,775,633.9704,771,629.9704,775,638.9704" style="stroke:#7F77DD;stroke-width:1.0;"/></g><!--link Cache to Redis--><g id="link_Cache_Redis"><path d="M1115,374.67 C1115,373.61 1115,373 1115,373 C1115,373 1189.5,373 1264,373 C1301.25,373 1338.5,373 1366.4375,373 C1380.4063,373 1392.0469,373 1400.1953,373 C1401.2139,373 1402.1779,373 1403.085,373 C1403.5386,373 1397.9779,373 1398.4028,373 " fill="none" id="Cache-to-Redis" style="stroke:#7F77DD;stroke-width:1.0;"/><polygon fill="#7F77DD" points="1404.4028,373,1395.4028,369,1399.4028,373,1395.4028,377,1404.4028,373" style="stroke:#7F77DD;stroke-width:1.0;"/><text fill="#534AB7" font-family="sans-serif" font-size="10" lengthAdjust="spacing" textLength="62" x="1215.28" y="358.2822">@Cacheable</text><text fill="#534AB7" font-family="sans-serif" font-size="10" lengthAdjust="spacing" textLength="59" x="1216.78" y="369.9229">(disc_cache)</text></g><!--link Security to Redis--><g id="link_Security_Redis"><path d="M1214.27,253 C1279.32,253 1360.75,253 1360.75,253 C1360.75,253 1360.75,404 1360.75,404 C1360.75,404 1372.23,404 1384.4275,404 C1390.5263,404 1396.8044,404 1401.9166,404 C1402.5556,404 1403.1764,404 1403.7764,404 C1404.0763,404 1404.3711,404 1404.6603,404 C1404.7326,404 1398.8046,404 1398.8762,404 " fill="none" id="Security-to-Redis" style="stroke:#7F77DD;stroke-width:1.0;"/><polygon fill="#7F77DD" points="1404.8762,404,1395.8762,400,1399.8762,404,1395.8762,408,1404.8762,404" style="stroke:#7F77DD;stroke-width:1.0;"/><text fill="#534AB7" font-family="sans-serif" font-size="10" lengthAdjust="spacing" textLength="27" x="1332.75" y="278.3722">&#49464;&#49496; &#51200;&#51109;</text></g><!--link Llm to ClaudeAPI--><g id="link_Llm_ClaudeAPI"><path d="M1293.33,374.85 C1293.33,370.26 1293.33,367 1293.33,367 C1293.33,367 1859,367 1859,367 C1859,367 1859,361.33 1859,361.91 " fill="none" id="Llm-to-ClaudeAPI" style="stroke:#7F77DD;stroke-width:1.0;"/><polygon fill="#7F77DD" points="1859,367.91,1863,358.91,1859,362.91,1855,358.91,1859,367.91" style="stroke:#7F77DD;stroke-width:1.0;"/></g><!--link Security to Kakao--><g id="link_Security_Kakao"><path d="M1214.17,234 C1434.03,234 2036,234 2036,234 C2036,234 2036,329.69 2036,375.78 " fill="none" id="Security-to-Kakao" style="stroke:#7F77DD;stroke-width:1.0;"/><polygon fill="#7F77DD" points="2036,381.78,2040,372.78,2036,376.78,2032,372.78,2036,381.78" style="stroke:#7F77DD;stroke-width:1.0;"/></g><!--link OtherServices to S3--><g id="link_OtherServices_S3"><path d="M667.34,436 C896.34,436 1482.44,436 1648.26,436 " fill="none" id="OtherServices-to-S3" style="stroke:#7F77DD;stroke-width:1.0;"/><polygon fill="#7F77DD" points="1654.26,436,1645.26,432,1649.26,436,1645.26,440,1654.26,436" style="stroke:#7F77DD;stroke-width:1.0;"/><text fill="#534AB7" font-family="sans-serif" font-size="10" lengthAdjust="spacing" textLength="39" x="1120.8" y="446.2822">&#51060;&#48120;&#51648; &#50629;&#47196;&#46300;</text></g><!--link Batch to Repos--><g id="link_Batch_Repos"><path d="M82,433.22 C82,474.52 82,545 82,545 C82,545 522.01,545 698.42,545 " fill="none" id="Batch-to-Repos" style="stroke:#7F77DD;stroke-width:1.0;"/><polygon fill="#7F77DD" points="704.42,545,695.42,541,699.42,545,695.42,549,704.42,545" style="stroke:#7F77DD;stroke-width:1.0;"/><text fill="#534AB7" font-family="sans-serif" font-size="10" lengthAdjust="spacing" textLength="70" x="246.32" y="530.2822">&#47564;&#47308; peer_codes</text><text fill="#534AB7" font-family="sans-serif" font-size="10" lengthAdjust="spacing" textLength="110" x="226.32" y="541.9229">&#47564;&#47308; assessment_tokens</text></g><!--link Cache to GMN53--><g id="link_Cache_GMN53"><path d="M1122.75,433.17 C1122.75,471.5 1122.75,534 1122.75,534 C1122.75,534 1284.56,534 1388.21,534 " fill="none" id="Cache-GMN53" style="stroke:#7F77DD;stroke-width:1.0;stroke-dasharray:7.0,7.0;"/></g><!--link Chemistry to GMN56--><g id="link_Chemistry_GMN56"><path d="M803.3,374.84 C803.3,369.2 803.3,365 803.3,365 C803.3,365 2186,365 2186,365 C2186,365 2186,372.73 2186,381.31 " fill="none" id="Chemistry-GMN56" style="stroke:#7F77DD;stroke-width:1.0;stroke-dasharray:7.0,7.0;"/></g><!--link Redis to GMN59--><g id="link_Redis_GMN59"><path d="M1606.5034,438 C1606.742,438 1606.9785,438 1607.2128,438 C1608.1502,438 1609.0538,438 1609.9221,438 C1611.6586,438 1613.2537,438 1614.6943,438 C1620.457,438 1623.75,438 1623.75,438 C1623.75,438 1623.75,490.9 1623.75,522.31 " fill="none" id="Redis-GMN59" style="stroke:#7F77DD;stroke-width:1.0;stroke-dasharray:7.0,7.0;"/></g><!--SRC=[jLPTRzDM6BxFhtYLNOoAjO64jj2BYJGVK5PALmVjWgBATKuRhubFP3k3C24L5ge1bUXO66sNeg1jfKmWigvYsRJzcLt6n_zXxpd7TkmcbQP9IzN4Fk_NytuzjhMc6rNLL2kmh6fhgoQj6SKCBLCJFiYd-L_C2ZIAP4MjbUqyDUmvjK8WdgvMomIKB5oYTadNO8xGZy1I3MlK8gQ-4Xzkg-Xt29nD3XTwiPCJoRFZcLX8HwELAZM8OSENCO3f0R3YmoNKB1BJEqNy5tAPuBI08DSCObbmTcmSJmS3oZCV8K3QDEajJsKoFpcPpVg78TlnrBdqz6HO81sSYTqDPr15pEeg6Ou_byjbyxdZ-0FFn_4de-XJcTIvynSYw5F-dLt77YtJSZ6AfgZQwh9gaVzKpi72HNnhPLeh_X-E3MgV17Wyd_ftVeEQdjYeicuGkrubG4sxH6Cnlt7nJ5d70OppRkKdydc1vCOSkMsFVMuj6gSKPI6XA9T6Re9g0J- -ed052nkcKqEngObUKC_vlU7kRhBljm3_MNkBVRqDx4M3FMw1y-jHxsXTUb2a7SSM852gfcwiOfBKXjJOxRW_E0W5GmLgyoQn4AbgettSBuw0YtWMSae1CfYyISjbOdBaoVEzJWlOywRpRSjzyeRjTTr7NOaYf2ZDFGWAqMgcRjSNZTFmYRgcKhYMhjabI8wTyT1BEHhTZM2Rhbawd-41N8f6kMU5c5_e6jQ9_TB0ui1fS0uRxltVWBMVzNvhkJjDwLzgIzECgfL8O3Yhtga3FqAvp86BfUPikHBePSfghKWWFJy3xdQNlMy9PTJmd9P8HRTiinuON4nRTKC3zkUwywuBJgVbVlTG1l1LlKoiFXYypbLqsoOcO6UT_JSIlUNXoL3Tw6UyVU0qcywh0sm3iFUlMRlXzK0tf7glst6_MWVFWhUE5prn7VasiK0i9D74ef6s-CXLS00I2fy1ozOr2yypl8tgQeqavgYjh-YQc0_PvcjsYPY-su6UpMFtqGqnD3BGjYlpQLWWLMhfEE0wiOGxSU2xyKTcMhMrqgBXlDfqVjW4zXUVjeIxqNRlTO3TVylQiW52ZKzzG57ngtNbqzau5uehkNX5tTAMDDvQlbFUZFonXMiaKygYtE_y3PjOzf8fAeHLq_nAuBKHgWNUUXMUu0lXFjXaUqTEjzalKK5TBcE18kWM24A9oxJnIg9ZZIvxW7lTNcSlVc8RctnFBWeutCFDG3kBRhWxoPbnjjDrtgy3QxIG9TYZ7-E2CYTpMUarRTWbarPrBJozcBucRaOjQY1rZPuRdV2MLnoZ2hSDRQaGYdlXz3C5bDIYuJORpikM-wm1FEjtNVPg7LsptIEsVS-Zf1I7-Y588eI_DveGOgIOv3mSYj4YlMMCVXmc3vY2ouN2l089u0Gqg8ih0Vvd2Yxb2f28j2Q1-qNKYk3P779LftU8OzDg8ygHcCUL9qMUluQKbmZQVoh4k-q6stWvmfCA6Ck_W55JNotP0zwG7jd-NW9_UfrrKOv0Z2LvwczdB6mLPEdHrZ2P7DQXae1VXacZkoio4TVWt3_Ym-JkRJdxZPWNMXIudncF6LHTRb6lyvJNnNdy9XOM1pR8aA5ENPrHb8I_quzRiG3hoIOUZqhI7MuGdGQsq_3SW_jDLqH1IeJZm4ui1EzAm57rI2KWD8AIjS8v3qeZCGPjGxaCsYAYFWe1AZiT4oU1ek0tgOZaS0nBaAZacQaGeU1Gz_bmf3_2m-qYvCIZ-RJplECysOdrkzMVau19-gvzp1wJH2lJxsHAjj2d50po06a6kPy7bcGllgF5ujCeXwfAYBcaqI8dQ-z83PvmIpPT8mQMLhmQBbFRfXMWAy4ZNpuGuF9C0Lyaa2tStGDHUBR_KBnlTRRTdUtZUbuKhZSxUrNyNf_FfWkvlYAV-eZ2p9oIMoZ4Y54KRwaU8544WIVqXY1V783jDjdXMs6SF9CSG2IN12ibGdYx0k5Lu3pehSEniFqwo342mCSPXfqI3vR31ZYlcyxF1_Wsueq2TonuVigRaUEFBrGu3Vq92qrUF_O_]--></g></svg>